<?xml version="1.0" encoding="utf-8" standalone="no"?>
<!DOCTYPE svg PUBLIC "-//W3C//DTD SVG 1.1//EN"
  "http://www.w3.org/Graphics/SVG/1.1/DTD/svg11.dtd">
<svg xmlns:xlink="http://www.w3.org/1999/xlink" width="498.018011pt" height="149.998277pt" viewBox="0 0 498.018011 149.998277" xmlns="http://www.w3.org/2000/svg" version="1.1">
 <metadata>
  <rdf:RDF xmlns:dc="http://purl.org/dc/elements/1.1/" xmlns:cc="http://creativecommons.org/ns#" xmlns:rdf="http://www.w3.org/1999/02/22-rdf-syntax-ns#">
   <cc:Work>
    <dc:type rdf:resource="http://purl.org/dc/dcmitype/StillImage"/>
    <dc:date>2024-02-22T16:13:25.919006</dc:date>
    <dc:format>image/svg+xml</dc:format>
    <dc:creator>
     <cc:Agent>
      <dc:title>Matplotlib v3.7.0, https://matplotlib.org/</dc:title>
     </cc:Agent>
    </dc:creator>
   </cc:Work>
  </rdf:RDF>
 </metadata>
 <defs>
  <style type="text/css">*{stroke-linejoin: round; stroke-linecap: butt}</style>
 </defs>
 <g id="figure_1">
  <g id="patch_1">
   <path d="M 0 149.998277 
L 498.018011 149.998277 
L 498.018011 0 
L 0 0 
L 0 149.998277 
z
" style="fill: none"/>
  </g>
  <g id="axes_1">
   <g id="patch_2">
    <path d="M 36.562572 121.332274 
L 149.495541 121.332274 
L 149.495541 10.048274 
L 36.562572 10.048274 
z
" style="fill: #ffffff"/>
   </g>
   <g id="matplotlib.axis_1">
    <g id="xtick_1">
     <g id="line2d_1">
      <defs>
       <path id="m84aa918f20" d="M 0 2 
L 0 -2 
" style="stroke: #000000; stroke-width: 0.8"/>
      </defs>
      <g>
       <use xlink:href="#m84aa918f20" x="54.930579" y="121.332274" style="stroke: #000000; stroke-width: 0.8"/>
      </g>
     </g>
     <g id="text_1">
      <!-- $\mathdefault{10^{-4}}$ -->
      <g transform="translate(46.121604 131.028823) scale(0.07497 -0.07497)">
       <defs>
        <path id="DejaVuSans-31" d="M 794 531 
L 1825 531 
L 1825 4091 
L 703 3866 
L 703 4441 
L 1819 4666 
L 2450 4666 
L 2450 531 
L 3481 531 
L 3481 0 
L 794 0 
L 794 531 
z
" transform="scale(0.015625)"/>
        <path id="DejaVuSans-30" d="M 2034 4250 
Q 1547 4250 1301 3770 
Q 1056 3291 1056 2328 
Q 1056 1369 1301 889 
Q 1547 409 2034 409 
Q 2525 409 2770 889 
Q 3016 1369 3016 2328 
Q 3016 3291 2770 3770 
Q 2525 4250 2034 4250 
z
M 2034 4750 
Q 2819 4750 3233 4129 
Q 3647 3509 3647 2328 
Q 3647 1150 3233 529 
Q 2819 -91 2034 -91 
Q 1250 -91 836 529 
Q 422 1150 422 2328 
Q 422 3509 836 4129 
Q 1250 4750 2034 4750 
z
" transform="scale(0.015625)"/>
        <path id="DejaVuSans-2212" d="M 678 2272 
L 4684 2272 
L 4684 1741 
L 678 1741 
L 678 2272 
z
" transform="scale(0.015625)"/>
        <path id="DejaVuSans-34" d="M 2419 4116 
L 825 1625 
L 2419 1625 
L 2419 4116 
z
M 2253 4666 
L 3047 4666 
L 3047 1625 
L 3713 1625 
L 3713 1100 
L 3047 1100 
L 3047 0 
L 2419 0 
L 2419 1100 
L 313 1100 
L 313 1709 
L 2253 4666 
z
" transform="scale(0.015625)"/>
       </defs>
       <use xlink:href="#DejaVuSans-31" transform="translate(0 0.684375)"/>
       <use xlink:href="#DejaVuSans-30" transform="translate(63.623047 0.684375)"/>
       <use xlink:href="#DejaVuSans-2212" transform="translate(128.203125 38.965625) scale(0.7)"/>
       <use xlink:href="#DejaVuSans-34" transform="translate(186.855469 38.965625) scale(0.7)"/>
      </g>
     </g>
    </g>
    <g id="xtick_2">
     <g id="line2d_2">
      <g>
       <use xlink:href="#m84aa918f20" x="101.088307" y="121.332274" style="stroke: #000000; stroke-width: 0.8"/>
      </g>
     </g>
     <g id="text_2">
      <!-- $\mathdefault{10^{-3}}$ -->
      <g transform="translate(92.279332 131.028823) scale(0.07497 -0.07497)">
       <defs>
        <path id="DejaVuSans-33" d="M 2597 2516 
Q 3050 2419 3304 2112 
Q 3559 1806 3559 1356 
Q 3559 666 3084 287 
Q 2609 -91 1734 -91 
Q 1441 -91 1130 -33 
Q 819 25 488 141 
L 488 750 
Q 750 597 1062 519 
Q 1375 441 1716 441 
Q 2309 441 2620 675 
Q 2931 909 2931 1356 
Q 2931 1769 2642 2001 
Q 2353 2234 1838 2234 
L 1294 2234 
L 1294 2753 
L 1863 2753 
Q 2328 2753 2575 2939 
Q 2822 3125 2822 3475 
Q 2822 3834 2567 4026 
Q 2313 4219 1838 4219 
Q 1578 4219 1281 4162 
Q 984 4106 628 3988 
L 628 4550 
Q 988 4650 1302 4700 
Q 1616 4750 1894 4750 
Q 2613 4750 3031 4423 
Q 3450 4097 3450 3541 
Q 3450 3153 3228 2886 
Q 3006 2619 2597 2516 
z
" transform="scale(0.015625)"/>
       </defs>
       <use xlink:href="#DejaVuSans-31" transform="translate(0 0.765625)"/>
       <use xlink:href="#DejaVuSans-30" transform="translate(63.623047 0.765625)"/>
       <use xlink:href="#DejaVuSans-2212" transform="translate(128.203125 39.046875) scale(0.7)"/>
       <use xlink:href="#DejaVuSans-33" transform="translate(186.855469 39.046875) scale(0.7)"/>
      </g>
     </g>
    </g>
    <g id="xtick_3">
     <g id="line2d_3">
      <g>
       <use xlink:href="#m84aa918f20" x="147.246035" y="121.332274" style="stroke: #000000; stroke-width: 0.8"/>
      </g>
     </g>
     <g id="text_3">
      <!-- $\mathdefault{10^{-2}}$ -->
      <g transform="translate(138.43706 131.028823) scale(0.07497 -0.07497)">
       <defs>
        <path id="DejaVuSans-32" d="M 1228 531 
L 3431 531 
L 3431 0 
L 469 0 
L 469 531 
Q 828 903 1448 1529 
Q 2069 2156 2228 2338 
Q 2531 2678 2651 2914 
Q 2772 3150 2772 3378 
Q 2772 3750 2511 3984 
Q 2250 4219 1831 4219 
Q 1534 4219 1204 4116 
Q 875 4013 500 3803 
L 500 4441 
Q 881 4594 1212 4672 
Q 1544 4750 1819 4750 
Q 2544 4750 2975 4387 
Q 3406 4025 3406 3419 
Q 3406 3131 3298 2873 
Q 3191 2616 2906 2266 
Q 2828 2175 2409 1742 
Q 1991 1309 1228 531 
z
" transform="scale(0.015625)"/>
       </defs>
       <use xlink:href="#DejaVuSans-31" transform="translate(0 0.765625)"/>
       <use xlink:href="#DejaVuSans-30" transform="translate(63.623047 0.765625)"/>
       <use xlink:href="#DejaVuSans-2212" transform="translate(128.203125 39.046875) scale(0.7)"/>
       <use xlink:href="#DejaVuSans-32" transform="translate(186.855469 39.046875) scale(0.7)"/>
      </g>
     </g>
    </g>
    <g id="xtick_4">
     <g id="line2d_4">
      <defs>
       <path id="mb091fd4322" d="M 0 1 
L 0 -1 
" style="stroke: #000000; stroke-width: 0.4"/>
      </defs>
      <g>
       <use xlink:href="#mb091fd4322" x="36.562572" y="121.332274" style="stroke: #000000; stroke-width: 0.4"/>
      </g>
     </g>
    </g>
    <g id="xtick_5">
     <g id="line2d_5">
      <g>
       <use xlink:href="#mb091fd4322" x="41.035718" y="121.332274" style="stroke: #000000; stroke-width: 0.4"/>
      </g>
     </g>
    </g>
    <g id="xtick_6">
     <g id="line2d_6">
      <g>
       <use xlink:href="#mb091fd4322" x="44.690544" y="121.332274" style="stroke: #000000; stroke-width: 0.4"/>
      </g>
     </g>
    </g>
    <g id="xtick_7">
     <g id="line2d_7">
      <g>
       <use xlink:href="#mb091fd4322" x="47.780656" y="121.332274" style="stroke: #000000; stroke-width: 0.4"/>
      </g>
     </g>
    </g>
    <g id="xtick_8">
     <g id="line2d_8">
      <g>
       <use xlink:href="#mb091fd4322" x="50.457433" y="121.332274" style="stroke: #000000; stroke-width: 0.4"/>
      </g>
     </g>
    </g>
    <g id="xtick_9">
     <g id="line2d_9">
      <g>
       <use xlink:href="#mb091fd4322" x="52.818517" y="121.332274" style="stroke: #000000; stroke-width: 0.4"/>
      </g>
     </g>
    </g>
    <g id="xtick_10">
     <g id="line2d_10">
      <g>
       <use xlink:href="#mb091fd4322" x="68.825439" y="121.332274" style="stroke: #000000; stroke-width: 0.4"/>
      </g>
     </g>
    </g>
    <g id="xtick_11">
     <g id="line2d_11">
      <g>
       <use xlink:href="#mb091fd4322" x="76.953412" y="121.332274" style="stroke: #000000; stroke-width: 0.4"/>
      </g>
     </g>
    </g>
    <g id="xtick_12">
     <g id="line2d_12">
      <g>
       <use xlink:href="#mb091fd4322" x="82.7203" y="121.332274" style="stroke: #000000; stroke-width: 0.4"/>
      </g>
     </g>
    </g>
    <g id="xtick_13">
     <g id="line2d_13">
      <g>
       <use xlink:href="#mb091fd4322" x="87.193446" y="121.332274" style="stroke: #000000; stroke-width: 0.4"/>
      </g>
     </g>
    </g>
    <g id="xtick_14">
     <g id="line2d_14">
      <g>
       <use xlink:href="#mb091fd4322" x="90.848273" y="121.332274" style="stroke: #000000; stroke-width: 0.4"/>
      </g>
     </g>
    </g>
    <g id="xtick_15">
     <g id="line2d_15">
      <g>
       <use xlink:href="#mb091fd4322" x="93.938384" y="121.332274" style="stroke: #000000; stroke-width: 0.4"/>
      </g>
     </g>
    </g>
    <g id="xtick_16">
     <g id="line2d_16">
      <g>
       <use xlink:href="#mb091fd4322" x="96.615161" y="121.332274" style="stroke: #000000; stroke-width: 0.4"/>
      </g>
     </g>
    </g>
    <g id="xtick_17">
     <g id="line2d_17">
      <g>
       <use xlink:href="#mb091fd4322" x="98.976245" y="121.332274" style="stroke: #000000; stroke-width: 0.4"/>
      </g>
     </g>
    </g>
    <g id="xtick_18">
     <g id="line2d_18">
      <g>
       <use xlink:href="#mb091fd4322" x="114.983167" y="121.332274" style="stroke: #000000; stroke-width: 0.4"/>
      </g>
     </g>
    </g>
    <g id="xtick_19">
     <g id="line2d_19">
      <g>
       <use xlink:href="#mb091fd4322" x="123.11114" y="121.332274" style="stroke: #000000; stroke-width: 0.4"/>
      </g>
     </g>
    </g>
    <g id="xtick_20">
     <g id="line2d_20">
      <g>
       <use xlink:href="#mb091fd4322" x="128.878028" y="121.332274" style="stroke: #000000; stroke-width: 0.4"/>
      </g>
     </g>
    </g>
    <g id="xtick_21">
     <g id="line2d_21">
      <g>
       <use xlink:href="#mb091fd4322" x="133.351174" y="121.332274" style="stroke: #000000; stroke-width: 0.4"/>
      </g>
     </g>
    </g>
    <g id="xtick_22">
     <g id="line2d_22">
      <g>
       <use xlink:href="#mb091fd4322" x="137.006001" y="121.332274" style="stroke: #000000; stroke-width: 0.4"/>
      </g>
     </g>
    </g>
    <g id="xtick_23">
     <g id="line2d_23">
      <g>
       <use xlink:href="#mb091fd4322" x="140.096112" y="121.332274" style="stroke: #000000; stroke-width: 0.4"/>
      </g>
     </g>
    </g>
    <g id="xtick_24">
     <g id="line2d_24">
      <g>
       <use xlink:href="#mb091fd4322" x="142.772889" y="121.332274" style="stroke: #000000; stroke-width: 0.4"/>
      </g>
     </g>
    </g>
    <g id="xtick_25">
     <g id="line2d_25">
      <g>
       <use xlink:href="#mb091fd4322" x="145.133973" y="121.332274" style="stroke: #000000; stroke-width: 0.4"/>
      </g>
     </g>
    </g>
    <g id="text_4">
     <!-- Frequency -->
     <g transform="translate(69.782338 140.926558) scale(0.09 -0.09)">
      <defs>
       <path id="DejaVuSans-46" d="M 628 4666 
L 3309 4666 
L 3309 4134 
L 1259 4134 
L 1259 2759 
L 3109 2759 
L 3109 2228 
L 1259 2228 
L 1259 0 
L 628 0 
L 628 4666 
z
" transform="scale(0.015625)"/>
       <path id="DejaVuSans-72" d="M 2631 2963 
Q 2534 3019 2420 3045 
Q 2306 3072 2169 3072 
Q 1681 3072 1420 2755 
Q 1159 2438 1159 1844 
L 1159 0 
L 581 0 
L 581 3500 
L 1159 3500 
L 1159 2956 
Q 1341 3275 1631 3429 
Q 1922 3584 2338 3584 
Q 2397 3584 2469 3576 
Q 2541 3569 2628 3553 
L 2631 2963 
z
" transform="scale(0.015625)"/>
       <path id="DejaVuSans-65" d="M 3597 1894 
L 3597 1613 
L 953 1613 
Q 991 1019 1311 708 
Q 1631 397 2203 397 
Q 2534 397 2845 478 
Q 3156 559 3463 722 
L 3463 178 
Q 3153 47 2828 -22 
Q 2503 -91 2169 -91 
Q 1331 -91 842 396 
Q 353 884 353 1716 
Q 353 2575 817 3079 
Q 1281 3584 2069 3584 
Q 2775 3584 3186 3129 
Q 3597 2675 3597 1894 
z
M 3022 2063 
Q 3016 2534 2758 2815 
Q 2500 3097 2075 3097 
Q 1594 3097 1305 2825 
Q 1016 2553 972 2059 
L 3022 2063 
z
" transform="scale(0.015625)"/>
       <path id="DejaVuSans-71" d="M 947 1747 
Q 947 1113 1208 752 
Q 1469 391 1925 391 
Q 2381 391 2643 752 
Q 2906 1113 2906 1747 
Q 2906 2381 2643 2742 
Q 2381 3103 1925 3103 
Q 1469 3103 1208 2742 
Q 947 2381 947 1747 
z
M 2906 525 
Q 2725 213 2448 61 
Q 2172 -91 1784 -91 
Q 1150 -91 751 415 
Q 353 922 353 1747 
Q 353 2572 751 3078 
Q 1150 3584 1784 3584 
Q 2172 3584 2448 3432 
Q 2725 3281 2906 2969 
L 2906 3500 
L 3481 3500 
L 3481 -1331 
L 2906 -1331 
L 2906 525 
z
" transform="scale(0.015625)"/>
       <path id="DejaVuSans-75" d="M 544 1381 
L 544 3500 
L 1119 3500 
L 1119 1403 
Q 1119 906 1312 657 
Q 1506 409 1894 409 
Q 2359 409 2629 706 
Q 2900 1003 2900 1516 
L 2900 3500 
L 3475 3500 
L 3475 0 
L 2900 0 
L 2900 538 
Q 2691 219 2414 64 
Q 2138 -91 1772 -91 
Q 1169 -91 856 284 
Q 544 659 544 1381 
z
M 1991 3584 
L 1991 3584 
z
" transform="scale(0.015625)"/>
       <path id="DejaVuSans-6e" d="M 3513 2113 
L 3513 0 
L 2938 0 
L 2938 2094 
Q 2938 2591 2744 2837 
Q 2550 3084 2163 3084 
Q 1697 3084 1428 2787 
Q 1159 2491 1159 1978 
L 1159 0 
L 581 0 
L 581 3500 
L 1159 3500 
L 1159 2956 
Q 1366 3272 1645 3428 
Q 1925 3584 2291 3584 
Q 2894 3584 3203 3211 
Q 3513 2838 3513 2113 
z
" transform="scale(0.015625)"/>
       <path id="DejaVuSans-63" d="M 3122 3366 
L 3122 2828 
Q 2878 2963 2633 3030 
Q 2388 3097 2138 3097 
Q 1578 3097 1268 2742 
Q 959 2388 959 1747 
Q 959 1106 1268 751 
Q 1578 397 2138 397 
Q 2388 397 2633 464 
Q 2878 531 3122 666 
L 3122 134 
Q 2881 22 2623 -34 
Q 2366 -91 2075 -91 
Q 1284 -91 818 406 
Q 353 903 353 1747 
Q 353 2603 823 3093 
Q 1294 3584 2113 3584 
Q 2378 3584 2631 3529 
Q 2884 3475 3122 3366 
z
" transform="scale(0.015625)"/>
       <path id="DejaVuSans-79" d="M 2059 -325 
Q 1816 -950 1584 -1140 
Q 1353 -1331 966 -1331 
L 506 -1331 
L 506 -850 
L 844 -850 
Q 1081 -850 1212 -737 
Q 1344 -625 1503 -206 
L 1606 56 
L 191 3500 
L 800 3500 
L 1894 763 
L 2988 3500 
L 3597 3500 
L 2059 -325 
z
" transform="scale(0.015625)"/>
      </defs>
      <use xlink:href="#DejaVuSans-46"/>
      <use xlink:href="#DejaVuSans-72" x="50.269531"/>
      <use xlink:href="#DejaVuSans-65" x="89.132812"/>
      <use xlink:href="#DejaVuSans-71" x="150.65625"/>
      <use xlink:href="#DejaVuSans-75" x="214.132812"/>
      <use xlink:href="#DejaVuSans-65" x="277.511719"/>
      <use xlink:href="#DejaVuSans-6e" x="339.035156"/>
      <use xlink:href="#DejaVuSans-63" x="402.414062"/>
      <use xlink:href="#DejaVuSans-79" x="457.394531"/>
     </g>
    </g>
   </g>
   <g id="matplotlib.axis_2">
    <g id="ytick_1">
     <g id="line2d_26">
      <defs>
       <path id="m7364b21ee4" d="M 2 0 
L -2 -0 
" style="stroke: #000000; stroke-width: 0.8"/>
      </defs>
      <g>
       <use xlink:href="#m7364b21ee4" x="36.562572" y="116.273911" style="stroke: #000000; stroke-width: 0.8"/>
      </g>
     </g>
     <g id="text_5">
      <!-- $\mathdefault{10^{0}}$ -->
      <g transform="translate(19.367852 119.122185) scale(0.07497 -0.07497)">
       <use xlink:href="#DejaVuSans-31" transform="translate(0 0.765625)"/>
       <use xlink:href="#DejaVuSans-30" transform="translate(63.623047 0.765625)"/>
       <use xlink:href="#DejaVuSans-30" transform="translate(128.203125 39.046875) scale(0.7)"/>
      </g>
     </g>
    </g>
    <g id="ytick_2">
     <g id="line2d_27">
      <g>
       <use xlink:href="#m7364b21ee4" x="36.562572" y="82.546601" style="stroke: #000000; stroke-width: 0.8"/>
      </g>
     </g>
     <g id="text_6">
      <!-- $\mathdefault{10^{1}}$ -->
      <g transform="translate(19.367852 85.394876) scale(0.07497 -0.07497)">
       <use xlink:href="#DejaVuSans-31" transform="translate(0 0.684375)"/>
       <use xlink:href="#DejaVuSans-30" transform="translate(63.623047 0.684375)"/>
       <use xlink:href="#DejaVuSans-31" transform="translate(128.203125 38.965625) scale(0.7)"/>
      </g>
     </g>
    </g>
    <g id="ytick_3">
     <g id="line2d_28">
      <g>
       <use xlink:href="#m7364b21ee4" x="36.562572" y="48.819292" style="stroke: #000000; stroke-width: 0.8"/>
      </g>
     </g>
     <g id="text_7">
      <!-- $\mathdefault{10^{2}}$ -->
      <g transform="translate(19.367852 51.667567) scale(0.07497 -0.07497)">
       <use xlink:href="#DejaVuSans-31" transform="translate(0 0.765625)"/>
       <use xlink:href="#DejaVuSans-30" transform="translate(63.623047 0.765625)"/>
       <use xlink:href="#DejaVuSans-32" transform="translate(128.203125 39.046875) scale(0.7)"/>
      </g>
     </g>
    </g>
    <g id="ytick_4">
     <g id="line2d_29">
      <g>
       <use xlink:href="#m7364b21ee4" x="36.562572" y="15.091983" style="stroke: #000000; stroke-width: 0.8"/>
      </g>
     </g>
     <g id="text_8">
      <!-- $\mathdefault{10^{3}}$ -->
      <g transform="translate(19.367852 17.940257) scale(0.07497 -0.07497)">
       <use xlink:href="#DejaVuSans-31" transform="translate(0 0.765625)"/>
       <use xlink:href="#DejaVuSans-30" transform="translate(63.623047 0.765625)"/>
       <use xlink:href="#DejaVuSans-33" transform="translate(128.203125 39.046875) scale(0.7)"/>
      </g>
     </g>
    </g>
    <g id="ytick_5">
     <g id="line2d_30">
      <defs>
       <path id="m5875a7913d" d="M 1 0 
L -1 -0 
" style="stroke: #000000; stroke-width: 0.4"/>
      </defs>
      <g>
       <use xlink:href="#m5875a7913d" x="36.562572" y="119.542425" style="stroke: #000000; stroke-width: 0.4"/>
      </g>
     </g>
    </g>
    <g id="ytick_6">
     <g id="line2d_31">
      <g>
       <use xlink:href="#m5875a7913d" x="36.562572" y="117.817188" style="stroke: #000000; stroke-width: 0.4"/>
      </g>
     </g>
    </g>
    <g id="ytick_7">
     <g id="line2d_32">
      <g>
       <use xlink:href="#m5875a7913d" x="36.562572" y="106.120979" style="stroke: #000000; stroke-width: 0.4"/>
      </g>
     </g>
    </g>
    <g id="ytick_8">
     <g id="line2d_33">
      <g>
       <use xlink:href="#m5875a7913d" x="36.562572" y="100.181895" style="stroke: #000000; stroke-width: 0.4"/>
      </g>
     </g>
    </g>
    <g id="ytick_9">
     <g id="line2d_34">
      <g>
       <use xlink:href="#m5875a7913d" x="36.562572" y="95.968047" style="stroke: #000000; stroke-width: 0.4"/>
      </g>
     </g>
    </g>
    <g id="ytick_10">
     <g id="line2d_35">
      <g>
       <use xlink:href="#m5875a7913d" x="36.562572" y="92.699533" style="stroke: #000000; stroke-width: 0.4"/>
      </g>
     </g>
    </g>
    <g id="ytick_11">
     <g id="line2d_36">
      <g>
       <use xlink:href="#m5875a7913d" x="36.562572" y="90.028963" style="stroke: #000000; stroke-width: 0.4"/>
      </g>
     </g>
    </g>
    <g id="ytick_12">
     <g id="line2d_37">
      <g>
       <use xlink:href="#m5875a7913d" x="36.562572" y="87.771028" style="stroke: #000000; stroke-width: 0.4"/>
      </g>
     </g>
    </g>
    <g id="ytick_13">
     <g id="line2d_38">
      <g>
       <use xlink:href="#m5875a7913d" x="36.562572" y="85.815115" style="stroke: #000000; stroke-width: 0.4"/>
      </g>
     </g>
    </g>
    <g id="ytick_14">
     <g id="line2d_39">
      <g>
       <use xlink:href="#m5875a7913d" x="36.562572" y="84.089878" style="stroke: #000000; stroke-width: 0.4"/>
      </g>
     </g>
    </g>
    <g id="ytick_15">
     <g id="line2d_40">
      <g>
       <use xlink:href="#m5875a7913d" x="36.562572" y="72.39367" style="stroke: #000000; stroke-width: 0.4"/>
      </g>
     </g>
    </g>
    <g id="ytick_16">
     <g id="line2d_41">
      <g>
       <use xlink:href="#m5875a7913d" x="36.562572" y="66.454585" style="stroke: #000000; stroke-width: 0.4"/>
      </g>
     </g>
    </g>
    <g id="ytick_17">
     <g id="line2d_42">
      <g>
       <use xlink:href="#m5875a7913d" x="36.562572" y="62.240738" style="stroke: #000000; stroke-width: 0.4"/>
      </g>
     </g>
    </g>
    <g id="ytick_18">
     <g id="line2d_43">
      <g>
       <use xlink:href="#m5875a7913d" x="36.562572" y="58.972224" style="stroke: #000000; stroke-width: 0.4"/>
      </g>
     </g>
    </g>
    <g id="ytick_19">
     <g id="line2d_44">
      <g>
       <use xlink:href="#m5875a7913d" x="36.562572" y="56.301654" style="stroke: #000000; stroke-width: 0.4"/>
      </g>
     </g>
    </g>
    <g id="ytick_20">
     <g id="line2d_45">
      <g>
       <use xlink:href="#m5875a7913d" x="36.562572" y="54.043719" style="stroke: #000000; stroke-width: 0.4"/>
      </g>
     </g>
    </g>
    <g id="ytick_21">
     <g id="line2d_46">
      <g>
       <use xlink:href="#m5875a7913d" x="36.562572" y="52.087806" style="stroke: #000000; stroke-width: 0.4"/>
      </g>
     </g>
    </g>
    <g id="ytick_22">
     <g id="line2d_47">
      <g>
       <use xlink:href="#m5875a7913d" x="36.562572" y="50.362569" style="stroke: #000000; stroke-width: 0.4"/>
      </g>
     </g>
    </g>
    <g id="ytick_23">
     <g id="line2d_48">
      <g>
       <use xlink:href="#m5875a7913d" x="36.562572" y="38.66636" style="stroke: #000000; stroke-width: 0.4"/>
      </g>
     </g>
    </g>
    <g id="ytick_24">
     <g id="line2d_49">
      <g>
       <use xlink:href="#m5875a7913d" x="36.562572" y="32.727276" style="stroke: #000000; stroke-width: 0.4"/>
      </g>
     </g>
    </g>
    <g id="ytick_25">
     <g id="line2d_50">
      <g>
       <use xlink:href="#m5875a7913d" x="36.562572" y="28.513429" style="stroke: #000000; stroke-width: 0.4"/>
      </g>
     </g>
    </g>
    <g id="ytick_26">
     <g id="line2d_51">
      <g>
       <use xlink:href="#m5875a7913d" x="36.562572" y="25.244915" style="stroke: #000000; stroke-width: 0.4"/>
      </g>
     </g>
    </g>
    <g id="ytick_27">
     <g id="line2d_52">
      <g>
       <use xlink:href="#m5875a7913d" x="36.562572" y="22.574344" style="stroke: #000000; stroke-width: 0.4"/>
      </g>
     </g>
    </g>
    <g id="ytick_28">
     <g id="line2d_53">
      <g>
       <use xlink:href="#m5875a7913d" x="36.562572" y="20.316409" style="stroke: #000000; stroke-width: 0.4"/>
      </g>
     </g>
    </g>
    <g id="ytick_29">
     <g id="line2d_54">
      <g>
       <use xlink:href="#m5875a7913d" x="36.562572" y="18.360497" style="stroke: #000000; stroke-width: 0.4"/>
      </g>
     </g>
    </g>
    <g id="ytick_30">
     <g id="line2d_55">
      <g>
       <use xlink:href="#m5875a7913d" x="36.562572" y="16.63526" style="stroke: #000000; stroke-width: 0.4"/>
      </g>
     </g>
    </g>
    <g id="text_9">
     <!-- Rank -->
     <g transform="translate(15.996133 76.931134) rotate(-90) scale(0.09 -0.09)">
      <defs>
       <path id="DejaVuSans-52" d="M 2841 2188 
Q 3044 2119 3236 1894 
Q 3428 1669 3622 1275 
L 4263 0 
L 3584 0 
L 2988 1197 
Q 2756 1666 2539 1819 
Q 2322 1972 1947 1972 
L 1259 1972 
L 1259 0 
L 628 0 
L 628 4666 
L 2053 4666 
Q 2853 4666 3247 4331 
Q 3641 3997 3641 3322 
Q 3641 2881 3436 2590 
Q 3231 2300 2841 2188 
z
M 1259 4147 
L 1259 2491 
L 2053 2491 
Q 2509 2491 2742 2702 
Q 2975 2913 2975 3322 
Q 2975 3731 2742 3939 
Q 2509 4147 2053 4147 
L 1259 4147 
z
" transform="scale(0.015625)"/>
       <path id="DejaVuSans-61" d="M 2194 1759 
Q 1497 1759 1228 1600 
Q 959 1441 959 1056 
Q 959 750 1161 570 
Q 1363 391 1709 391 
Q 2188 391 2477 730 
Q 2766 1069 2766 1631 
L 2766 1759 
L 2194 1759 
z
M 3341 1997 
L 3341 0 
L 2766 0 
L 2766 531 
Q 2569 213 2275 61 
Q 1981 -91 1556 -91 
Q 1019 -91 701 211 
Q 384 513 384 1019 
Q 384 1609 779 1909 
Q 1175 2209 1959 2209 
L 2766 2209 
L 2766 2266 
Q 2766 2663 2505 2880 
Q 2244 3097 1772 3097 
Q 1472 3097 1187 3025 
Q 903 2953 641 2809 
L 641 3341 
Q 956 3463 1253 3523 
Q 1550 3584 1831 3584 
Q 2591 3584 2966 3190 
Q 3341 2797 3341 1997 
z
" transform="scale(0.015625)"/>
       <path id="DejaVuSans-6b" d="M 581 4863 
L 1159 4863 
L 1159 1991 
L 2875 3500 
L 3609 3500 
L 1753 1863 
L 3688 0 
L 2938 0 
L 1159 1709 
L 1159 0 
L 581 0 
L 581 4863 
z
" transform="scale(0.015625)"/>
      </defs>
      <use xlink:href="#DejaVuSans-52"/>
      <use xlink:href="#DejaVuSans-61" x="67.232422"/>
      <use xlink:href="#DejaVuSans-6e" x="128.511719"/>
      <use xlink:href="#DejaVuSans-6b" x="191.890625"/>
     </g>
    </g>
   </g>
   <g id="line2d_56">
    <path d="M 140.566514 150.998277 
L 140.566514 116.273911 
L 138.088429 116.273911 
L 138.088429 106.120979 
L 134.155189 106.120979 
L 134.155189 100.181895 
L 133.486621 100.181895 
L 133.486621 95.968047 
L 132.906428 95.968047 
L 132.906428 92.699533 
L 132.712531 92.699533 
L 132.712531 90.028963 
L 132.364875 90.028963 
L 132.364875 87.771028 
L 131.879974 87.771028 
L 131.879974 85.815115 
L 130.724396 85.815115 
L 130.632237 82.546601 
L 130.538308 82.546601 
L 130.538308 81.150538 
L 129.906463 81.150538 
L 129.906463 79.876031 
L 129.722683 79.876031 
L 129.684802 77.618096 
L 129.595315 77.618096 
L 129.595315 76.607517 
L 129.394551 76.607517 
L 129.394551 75.662184 
L 129.195344 75.662184 
L 129.195344 74.774179 
L 129.007407 74.774179 
L 129.007407 73.936947 
L 128.8906 73.936947 
L 128.8906 73.144993 
L 128.749736 73.144993 
L 128.749736 72.39367 
L 128.62163 72.39367 
L 128.522937 70.997606 
L 128.425287 70.997606 
L 128.363555 69.723099 
L 127.628148 69.723099 
L 127.544345 67.997862 
L 127.375849 67.997862 
L 127.306545 66.951161 
L 127.231529 66.951161 
L 127.231529 66.454585 
L 126.63779 66.454585 
L 126.63779 65.974294 
L 126.339771 65.974294 
L 126.339771 65.509252 
L 126.112268 65.509252 
L 126.112268 65.058521 
L 125.967613 65.058521 
L 125.967613 64.621248 
L 125.672255 64.621248 
L 125.672255 64.19665 
L 125.330861 64.19665 
L 125.293405 63.382686 
L 125.179566 63.382686 
L 125.125785 62.611583 
L 125.05006 62.611583 
L 125.05006 62.240738 
L 124.622543 62.240738 
L 124.591984 61.181415 
L 124.053217 61.181415 
L 124.053217 60.844674 
L 123.902674 60.844674 
L 123.861844 60.193563 
L 123.591459 60.193563 
L 123.580983 59.570168 
L 123.457939 59.570168 
L 123.457939 59.268145 
L 123.139134 59.268145 
L 123.10716 58.118725 
L 122.974939 58.118725 
L 122.974939 57.844931 
L 122.662958 57.844931 
L 122.662958 57.57616 
L 122.541382 57.57616 
L 122.541382 57.312233 
L 122.43008 57.312233 
L 122.32612 56.301654 
L 122.021519 56.301654 
L 121.988039 55.821362 
L 121.73132 55.821362 
L 121.694224 55.35632 
L 121.528227 55.35632 
L 121.44872 54.685321 
L 121.224355 54.685321 
L 121.173837 54.043719 
L 120.849396 54.043719 
L 120.849396 53.835948 
L 120.58638 53.835948 
L 120.58638 53.631083 
L 120.355469 53.631083 
L 120.263311 53.03314 
L 120.227015 53.03314 
L 120.169308 52.647655 
L 119.660245 52.647655 
L 119.660245 52.458651 
L 119.326611 52.458651 
L 119.278456 51.905846 
L 119.188398 51.905846 
L 119.146455 51.54857 
L 118.869898 51.54857 
L 118.803504 51.199802 
L 118.749167 51.199802 
L 118.681365 50.691742 
L 118.573175 50.691742 
L 118.573175 50.526231 
L 118.431987 50.526231 
L 118.333988 49.882278 
L 118.087486 49.882278 
L 118.087486 49.725617 
L 117.784437 49.725617 
L 117.707792 49.417236 
L 117.5313 49.417236 
L 117.5313 49.265446 
L 117.376291 49.265446 
L 117.376291 49.115213 
L 117.193315 49.115213 
L 117.083612 48.673544 
L 116.633197 48.673544 
L 116.569041 48.386327 
L 116.429416 48.386327 
L 116.367834 47.828256 
L 116.296027 47.828256 
L 116.251702 47.556997 
L 116.181164 47.556997 
L 116.075015 47.159301 
L 116.055622 47.159301 
L 115.960646 46.772117 
L 115.93472 46.772117 
L 115.93472 46.645298 
L 115.778073 46.645298 
L 115.682653 46.271297 
L 115.662518 46.271297 
L 115.629258 45.906608 
L 115.534865 45.906608 
L 115.529438 45.66843 
L 115.359408 45.66843 
L 115.256414 45.203388 
L 115.093304 45.203388 
L 115.025172 44.752658 
L 114.862649 44.64211 
L 114.845711 44.423485 
L 114.685778 44.315384 
L 114.609281 43.890787 
L 114.513852 43.786533 
L 114.513852 43.683016 
L 114.258894 43.580226 
L 114.167042 43.376784 
L 114.029527 43.276113 
L 113.972543 43.076823 
L 113.861677 42.978185 
L 113.806452 42.686197 
L 113.670759 42.590147 
L 113.570503 42.305719 
L 113.430987 42.212124 
L 113.34905 42.026709 
L 113.245773 41.934874 
L 113.184445 41.752915 
L 112.985133 41.662775 
L 112.889048 41.484144 
L 112.545086 41.395639 
L 112.545086 41.307665 
L 112.359437 41.220216 
L 112.276375 40.875551 
L 112.199523 40.790638 
L 112.133288 40.373299 
L 112.027529 40.29124 
L 111.916797 39.967523 
L 111.859686 39.8877 
L 111.798311 39.729346 
L 111.706787 39.650806 
L 111.624598 39.494979 
L 111.44928 39.417683 
L 111.44928 39.340793 
L 111.141466 39.264304 
L 111.037267 38.813574 
L 110.900499 38.739782 
L 110.809791 38.448278 
L 110.750545 38.3763 
L 110.750545 38.304673 
L 110.328636 38.233395 
L 110.218537 37.882118 
L 110.069243 37.812862 
L 109.966152 37.607038 
L 109.700673 37.539067 
L 109.683644 37.337028 
L 109.575417 37.270297 
L 109.505044 37.071906 
L 109.44881 37.006369 
L 109.369677 36.747113 
L 109.283041 36.68301 
L 109.252762 36.555639 
L 109.132404 36.492366 
L 109.072811 36.304172 
L 108.896009 36.241974 
L 108.879009 36.118365 
L 108.675676 36.056949 
L 108.675676 35.99579 
L 108.494168 35.934885 
L 108.494168 35.874233 
L 108.299149 35.81383 
L 108.299149 35.753676 
L 108.083521 35.693767 
L 107.998113 35.574681 
L 107.835067 35.515498 
L 107.835067 35.456554 
L 107.685007 35.397847 
L 107.682431 35.281132 
L 107.370344 35.223122 
L 107.262377 34.993351 
L 107.169179 34.936467 
L 107.08776 34.823358 
L 106.968101 34.767129 
L 106.872388 34.599726 
L 106.710998 34.489178 
L 106.659129 34.216403 
L 106.39583 34.1087 
L 106.356504 33.948615 
L 106.147312 33.842856 
L 106.089288 33.633601 
L 105.948452 33.530084 
L 105.869594 33.427294 
L 105.64044 33.32522 
L 105.561991 33.123181 
L 105.256067 33.023197 
L 105.151715 32.825254 
L 104.914525 32.727276 
L 104.88315 32.62995 
L 104.697625 32.533266 
L 104.669463 32.389426 
L 104.354319 32.294311 
L 104.246928 32.19981 
L 103.814868 32.105915 
L 103.774329 32.012618 
L 103.489191 31.919912 
L 103.38584 31.73624 
L 103.239391 31.645261 
L 103.134493 31.286893 
L 103.057734 31.198654 
L 103.057734 31.154733 
L 102.797266 31.067285 
L 102.76969 30.937083 
L 102.517406 30.850921 
L 102.425393 30.637706 
L 102.256739 30.553282 
L 102.256402 30.469341 
L 102.091388 30.385879 
L 102.041256 30.302889 
L 101.671095 30.220368 
L 101.617804 30.138308 
L 101.432451 30.056706 
L 101.418092 29.975556 
L 101.171068 29.894852 
L 101.171068 29.854667 
L 100.916688 29.774625 
L 100.916688 29.734768 
L 100.67705 29.655377 
L 100.577201 29.576414 
L 100.447878 29.497875 
L 100.360419 29.380849 
L 100.201081 29.303349 
L 100.110729 29.187861 
L 99.939012 29.111372 
L 99.834029 28.959583 
L 99.512427 28.884273 
L 99.486795 28.80935 
L 99.275447 28.734807 
L 99.275447 28.697678 
L 98.915752 28.58685 
L 98.843522 28.476855 
L 98.609136 28.36768 
L 98.527319 28.223368 
L 98.462506 28.116059 
L 98.447263 28.044954 
L 98.278428 27.93894 
L 98.168753 27.798771 
L 98.017038 27.694517 
L 97.943653 27.625424 
L 97.403096 27.522393 
L 97.315534 27.454106 
L 96.98095 27.352268 
L 96.8986 27.284768 
L 96.736148 27.184097 
L 96.645394 27.084113 
L 96.463314 26.984807 
L 96.366374 26.918975 
L 96.138014 26.820778 
L 96.054696 26.723236 
L 95.930561 26.626338 
L 95.930561 26.594181 
L 95.334026 26.498131 
L 95.271119 26.371036 
L 94.94492 26.276434 
L 94.92688 26.213703 
L 94.757114 26.120108 
L 94.655219 26.027107 
L 94.513149 25.934693 
L 94.4641 25.842858 
L 94.075929 25.751596 
L 93.993201 25.691069 
L 93.912555 25.600744 
L 93.871381 25.481171 
L 93.632935 25.392128 
L 93.560713 25.333065 
L 93.317831 25.244915 
L 93.249975 25.07019 
L 93.028088 24.983603 
L 92.964821 24.926161 
L 92.755956 24.840419 
L 92.755956 24.81195 
L 92.444677 24.726872 
L 92.444677 24.698622 
L 92.17966 24.614197 
L 92.080036 24.474562 
L 91.891459 24.363805 
L 91.79916 24.253879 
L 91.622549 24.144772 
L 91.552616 24.090521 
L 91.247862 23.98262 
L 91.247862 23.955768 
L 90.937056 23.848851 
L 90.84285 23.742708 
L 90.546061 23.63733 
L 90.486332 23.55879 
L 90.181291 23.454722 
L 90.181291 23.42882 
L 89.952459 23.325667 
L 89.854417 23.248777 
L 89.455591 23.14688 
L 89.362654 23.07092 
L 88.90717 22.970249 
L 88.90717 22.945189 
L 88.68225 22.845376 
L 88.597144 22.795723 
L 88.310192 22.696919 
L 88.260504 22.647766 
L 87.797198 22.549952 
L 87.785894 22.501289 
L 87.445266 22.404445 
L 87.427039 22.33223 
L 87.162095 22.236494 
L 87.130723 22.1651 
L 86.638874 22.070447 
L 86.638874 22.046878 
L 86.327236 21.952983 
L 86.260973 21.906261 
L 85.910514 21.81326 
L 85.837765 21.76698 
L 85.537574 21.674856 
L 85.448885 21.583309 
L 85.235865 21.49233 
L 85.189713 21.424464 
L 84.815417 21.334463 
L 84.751565 21.267324 
L 84.394029 21.178281 
L 84.302045 21.133961 
L 83.763671 21.023745 
L 83.74039 20.97989 
L 83.390137 20.870824 
L 83.390137 20.849107 
L 82.823477 20.741007 
L 82.771773 20.697989 
L 82.302599 20.590994 
L 82.245251 20.52717 
L 81.768752 20.42141 
L 81.768752 20.40035 
L 81.367764 20.295499 
L 81.362434 20.253768 
L 80.815968 20.149958 
L 80.815968 20.129284 
L 80.356982 20.026349 
L 80.305071 19.985376 
L 79.865907 19.883444 
L 79.865907 19.863143 
L 79.454193 19.762055 
L 79.435126 19.701735 
L 78.967029 19.601751 
L 78.928871 19.542087 
L 78.481628 19.443183 
L 78.377294 19.364538 
L 77.87894 19.266822 
L 77.856116 19.227918 
L 77.506866 19.131106 
L 77.506866 19.11182 
L 77.066271 19.01577 
L 77.042251 18.958441 
L 76.399014 18.863388 
L 76.331623 18.806651 
L 75.68009 18.712575 
L 75.646304 18.656418 
L 75.150898 18.563299 
L 75.07057 18.489227 
L 74.637249 18.378818 
L 74.58547 18.342199 
L 73.588968 18.232888 
L 73.571126 18.178537 
L 72.467696 18.070436 
L 72.467696 18.052497 
L 71.520595 17.945319 
L 71.412298 17.909767 
L 69.987782 17.803624 
L 69.92833 17.75084 
L 69.251183 17.645839 
L 69.225765 17.611005 
L 68.182186 17.506998 
L 68.182186 17.489735 
L 66.536064 17.386583 
L 66.536064 17.369461 
L 64.948521 17.267149 
L 64.948521 17.250167 
L 63.869555 17.148682 
L 63.869555 17.131836 
L 61.937397 17.031165 
L 61.937397 17.014453 
L 60.959321 16.914583 
L 60.959321 16.898004 
L 59.616548 16.798922 
L 59.616548 16.782473 
L 57.51061 16.684167 
L 57.51061 16.667846 
L 56.29223 16.570304 
L 56.29223 16.55411 
L 54.201065 16.457319 
L 54.201065 16.441249 
L 52.29855 16.345199 
L 52.29855 16.329252 
L 47.704694 16.233931 
L 47.704694 16.218105 
L 44.86323 16.107794 
L 44.857262 16.076429 
L 43.394265 15.967176 
L 43.295205 15.93611 
L 39.531847 15.827895 
L 39.531847 15.812501 
L 33.247117 15.705192 
L 33.247117 15.689927 
L 29.876905 15.583509 
L 29.876905 15.568369 
L 26.287593 15.462828 
L 26.287593 15.447812 
L 15.775913 15.343133 
L 15.775913 15.32824 
L 3.574927 15.224408 
L 3.574927 15.209635 
L -1 15.165405 
L -1 15.165405 
" clip-path="url(#p29202c5997)" style="fill: none; stroke: #1f77b4; stroke-width: 1.3; stroke-linecap: round"/>
   </g>
   <g id="patch_3">
    <path d="M 36.562572 121.332274 
L 36.562572 10.048274 
" style="fill: none; stroke: #000000; stroke-linejoin: miter; stroke-linecap: square"/>
   </g>
   <g id="patch_4">
    <path d="M 36.562572 121.332274 
L 149.495541 121.332274 
" style="fill: none; stroke: #000000; stroke-linejoin: miter; stroke-linecap: square"/>
   </g>
   <g id="text_10">
    <!-- Dirichlet: -->
    <g transform="translate(108.614448 16.886868) scale(0.09 -0.09)">
     <defs>
      <path id="DejaVuSans-44" d="M 1259 4147 
L 1259 519 
L 2022 519 
Q 2988 519 3436 956 
Q 3884 1394 3884 2338 
Q 3884 3275 3436 3711 
Q 2988 4147 2022 4147 
L 1259 4147 
z
M 628 4666 
L 1925 4666 
Q 3281 4666 3915 4102 
Q 4550 3538 4550 2338 
Q 4550 1131 3912 565 
Q 3275 0 1925 0 
L 628 0 
L 628 4666 
z
" transform="scale(0.015625)"/>
      <path id="DejaVuSans-69" d="M 603 3500 
L 1178 3500 
L 1178 0 
L 603 0 
L 603 3500 
z
M 603 4863 
L 1178 4863 
L 1178 4134 
L 603 4134 
L 603 4863 
z
" transform="scale(0.015625)"/>
      <path id="DejaVuSans-68" d="M 3513 2113 
L 3513 0 
L 2938 0 
L 2938 2094 
Q 2938 2591 2744 2837 
Q 2550 3084 2163 3084 
Q 1697 3084 1428 2787 
Q 1159 2491 1159 1978 
L 1159 0 
L 581 0 
L 581 4863 
L 1159 4863 
L 1159 2956 
Q 1366 3272 1645 3428 
Q 1925 3584 2291 3584 
Q 2894 3584 3203 3211 
Q 3513 2838 3513 2113 
z
" transform="scale(0.015625)"/>
      <path id="DejaVuSans-6c" d="M 603 4863 
L 1178 4863 
L 1178 0 
L 603 0 
L 603 4863 
z
" transform="scale(0.015625)"/>
      <path id="DejaVuSans-74" d="M 1172 4494 
L 1172 3500 
L 2356 3500 
L 2356 3053 
L 1172 3053 
L 1172 1153 
Q 1172 725 1289 603 
Q 1406 481 1766 481 
L 2356 481 
L 2356 0 
L 1766 0 
Q 1100 0 847 248 
Q 594 497 594 1153 
L 594 3053 
L 172 3053 
L 172 3500 
L 594 3500 
L 594 4494 
L 1172 4494 
z
" transform="scale(0.015625)"/>
      <path id="DejaVuSans-3a" d="M 750 794 
L 1409 794 
L 1409 0 
L 750 0 
L 750 794 
z
M 750 3309 
L 1409 3309 
L 1409 2516 
L 750 2516 
L 750 3309 
z
" transform="scale(0.015625)"/>
     </defs>
     <use xlink:href="#DejaVuSans-44"/>
     <use xlink:href="#DejaVuSans-69" x="77.001953"/>
     <use xlink:href="#DejaVuSans-72" x="104.785156"/>
     <use xlink:href="#DejaVuSans-69" x="145.898438"/>
     <use xlink:href="#DejaVuSans-63" x="173.681641"/>
     <use xlink:href="#DejaVuSans-68" x="228.662109"/>
     <use xlink:href="#DejaVuSans-6c" x="292.041016"/>
     <use xlink:href="#DejaVuSans-65" x="319.824219"/>
     <use xlink:href="#DejaVuSans-74" x="381.347656"/>
     <use xlink:href="#DejaVuSans-3a" x="420.556641"/>
    </g>
    <!-- $\alpha$=1.0 -->
    <g transform="translate(121.685541 26.964899) scale(0.09 -0.09)">
     <defs>
      <path id="DejaVuSans-Oblique-3b1" d="M 2619 1628 
L 2622 2350 
Q 2625 3088 2069 3091 
Q 1653 3094 1394 2747 
Q 1069 2319 959 1747 
Q 825 1059 994 731 
Q 1169 397 1547 397 
Q 1966 397 2319 1063 
L 2619 1628 
z
M 2166 3578 
Q 3141 3594 3128 2584 
Q 3128 2584 3616 3500 
L 4128 3500 
L 3119 1603 
L 3109 919 
Q 3109 766 3194 638 
Q 3291 488 3391 488 
L 3669 488 
L 3575 0 
L 3228 0 
Q 2934 0 2722 263 
Q 2622 394 2619 669 
Q 2416 334 2066 50 
Q 1900 -81 1453 -78 
Q 722 -72 456 397 
Q 184 884 353 1747 
Q 534 2675 1009 3097 
Q 1544 3569 2166 3578 
z
" transform="scale(0.015625)"/>
      <path id="DejaVuSans-3d" d="M 678 2906 
L 4684 2906 
L 4684 2381 
L 678 2381 
L 678 2906 
z
M 678 1631 
L 4684 1631 
L 4684 1100 
L 678 1100 
L 678 1631 
z
" transform="scale(0.015625)"/>
      <path id="DejaVuSans-2e" d="M 684 794 
L 1344 794 
L 1344 0 
L 684 0 
L 684 794 
z
" transform="scale(0.015625)"/>
     </defs>
     <use xlink:href="#DejaVuSans-Oblique-3b1" transform="translate(0 0.78125)"/>
     <use xlink:href="#DejaVuSans-3d" transform="translate(65.917969 0.78125)"/>
     <use xlink:href="#DejaVuSans-31" transform="translate(149.707031 0.78125)"/>
     <use xlink:href="#DejaVuSans-2e" transform="translate(213.330078 0.78125)"/>
     <use xlink:href="#DejaVuSans-30" transform="translate(245.117188 0.78125)"/>
    </g>
    <!-- S=1000 -->
    <g transform="translate(113.335229 37.042931) scale(0.09 -0.09)">
     <defs>
      <path id="DejaVuSans-53" d="M 3425 4513 
L 3425 3897 
Q 3066 4069 2747 4153 
Q 2428 4238 2131 4238 
Q 1616 4238 1336 4038 
Q 1056 3838 1056 3469 
Q 1056 3159 1242 3001 
Q 1428 2844 1947 2747 
L 2328 2669 
Q 3034 2534 3370 2195 
Q 3706 1856 3706 1288 
Q 3706 609 3251 259 
Q 2797 -91 1919 -91 
Q 1588 -91 1214 -16 
Q 841 59 441 206 
L 441 856 
Q 825 641 1194 531 
Q 1563 422 1919 422 
Q 2459 422 2753 634 
Q 3047 847 3047 1241 
Q 3047 1584 2836 1778 
Q 2625 1972 2144 2069 
L 1759 2144 
Q 1053 2284 737 2584 
Q 422 2884 422 3419 
Q 422 4038 858 4394 
Q 1294 4750 2059 4750 
Q 2388 4750 2728 4690 
Q 3069 4631 3425 4513 
z
" transform="scale(0.015625)"/>
     </defs>
     <use xlink:href="#DejaVuSans-53"/>
     <use xlink:href="#DejaVuSans-3d" x="63.476562"/>
     <use xlink:href="#DejaVuSans-31" x="147.265625"/>
     <use xlink:href="#DejaVuSans-30" x="210.888672"/>
     <use xlink:href="#DejaVuSans-30" x="274.511719"/>
     <use xlink:href="#DejaVuSans-30" x="338.134766"/>
    </g>
   </g>
   <g id="text_11">
    <!-- A -->
    <g transform="translate(7.2 16.886868) scale(0.09 -0.09)">
     <defs>
      <path id="DejaVuSans-Bold-41" d="M 3419 850 
L 1538 850 
L 1241 0 
L 31 0 
L 1759 4666 
L 3194 4666 
L 4922 0 
L 3713 0 
L 3419 850 
z
M 1838 1716 
L 3116 1716 
L 2478 3572 
L 1838 1716 
z
" transform="scale(0.015625)"/>
     </defs>
     <use xlink:href="#DejaVuSans-Bold-41"/>
    </g>
   </g>
  </g>
  <g id="axes_2">
   <g id="patch_5">
    <path d="M 203.925127 121.332274 
L 316.858096 121.332274 
L 316.858096 10.048274 
L 203.925127 10.048274 
z
" style="fill: #ffffff"/>
   </g>
   <g id="matplotlib.axis_3">
    <g id="xtick_26">
     <g id="line2d_57">
      <g>
       <use xlink:href="#m84aa918f20" x="203.925127" y="121.332274" style="stroke: #000000; stroke-width: 0.8"/>
      </g>
     </g>
     <g id="text_12">
      <!-- $\mathdefault{10^{1}}$ -->
      <g transform="translate(197.327767 131.028823) scale(0.07497 -0.07497)">
       <use xlink:href="#DejaVuSans-31" transform="translate(0 0.684375)"/>
       <use xlink:href="#DejaVuSans-30" transform="translate(63.623047 0.684375)"/>
       <use xlink:href="#DejaVuSans-31" transform="translate(128.203125 38.965625) scale(0.7)"/>
      </g>
     </g>
    </g>
    <g id="xtick_27">
     <g id="line2d_58">
      <g>
       <use xlink:href="#m84aa918f20" x="241.56945" y="121.332274" style="stroke: #000000; stroke-width: 0.8"/>
      </g>
     </g>
     <g id="text_13">
      <!-- $\mathdefault{10^{2}}$ -->
      <g transform="translate(234.97209 131.028823) scale(0.07497 -0.07497)">
       <use xlink:href="#DejaVuSans-31" transform="translate(0 0.765625)"/>
       <use xlink:href="#DejaVuSans-30" transform="translate(63.623047 0.765625)"/>
       <use xlink:href="#DejaVuSans-32" transform="translate(128.203125 39.046875) scale(0.7)"/>
      </g>
     </g>
    </g>
    <g id="xtick_28">
     <g id="line2d_59">
      <g>
       <use xlink:href="#m84aa918f20" x="279.213773" y="121.332274" style="stroke: #000000; stroke-width: 0.8"/>
      </g>
     </g>
     <g id="text_14">
      <!-- $\mathdefault{10^{3}}$ -->
      <g transform="translate(272.616413 131.028823) scale(0.07497 -0.07497)">
       <use xlink:href="#DejaVuSans-31" transform="translate(0 0.765625)"/>
       <use xlink:href="#DejaVuSans-30" transform="translate(63.623047 0.765625)"/>
       <use xlink:href="#DejaVuSans-33" transform="translate(128.203125 39.046875) scale(0.7)"/>
      </g>
     </g>
    </g>
    <g id="xtick_29">
     <g id="line2d_60">
      <g>
       <use xlink:href="#m84aa918f20" x="316.858096" y="121.332274" style="stroke: #000000; stroke-width: 0.8"/>
      </g>
     </g>
     <g id="text_15">
      <!-- $\mathdefault{10^{4}}$ -->
      <g transform="translate(310.260736 131.028823) scale(0.07497 -0.07497)">
       <use xlink:href="#DejaVuSans-31" transform="translate(0 0.684375)"/>
       <use xlink:href="#DejaVuSans-30" transform="translate(63.623047 0.684375)"/>
       <use xlink:href="#DejaVuSans-34" transform="translate(128.203125 38.965625) scale(0.7)"/>
      </g>
     </g>
    </g>
    <g id="xtick_30">
     <g id="line2d_61">
      <g>
       <use xlink:href="#mb091fd4322" x="215.257197" y="121.332274" style="stroke: #000000; stroke-width: 0.4"/>
      </g>
     </g>
    </g>
    <g id="xtick_31">
     <g id="line2d_62">
      <g>
       <use xlink:href="#mb091fd4322" x="221.886033" y="121.332274" style="stroke: #000000; stroke-width: 0.4"/>
      </g>
     </g>
    </g>
    <g id="xtick_32">
     <g id="line2d_63">
      <g>
       <use xlink:href="#mb091fd4322" x="226.589268" y="121.332274" style="stroke: #000000; stroke-width: 0.4"/>
      </g>
     </g>
    </g>
    <g id="xtick_33">
     <g id="line2d_64">
      <g>
       <use xlink:href="#mb091fd4322" x="230.237379" y="121.332274" style="stroke: #000000; stroke-width: 0.4"/>
      </g>
     </g>
    </g>
    <g id="xtick_34">
     <g id="line2d_65">
      <g>
       <use xlink:href="#mb091fd4322" x="233.218104" y="121.332274" style="stroke: #000000; stroke-width: 0.4"/>
      </g>
     </g>
    </g>
    <g id="xtick_35">
     <g id="line2d_66">
      <g>
       <use xlink:href="#mb091fd4322" x="235.73827" y="121.332274" style="stroke: #000000; stroke-width: 0.4"/>
      </g>
     </g>
    </g>
    <g id="xtick_36">
     <g id="line2d_67">
      <g>
       <use xlink:href="#mb091fd4322" x="237.921338" y="121.332274" style="stroke: #000000; stroke-width: 0.4"/>
      </g>
     </g>
    </g>
    <g id="xtick_37">
     <g id="line2d_68">
      <g>
       <use xlink:href="#mb091fd4322" x="239.84694" y="121.332274" style="stroke: #000000; stroke-width: 0.4"/>
      </g>
     </g>
    </g>
    <g id="xtick_38">
     <g id="line2d_69">
      <g>
       <use xlink:href="#mb091fd4322" x="252.90152" y="121.332274" style="stroke: #000000; stroke-width: 0.4"/>
      </g>
     </g>
    </g>
    <g id="xtick_39">
     <g id="line2d_70">
      <g>
       <use xlink:href="#mb091fd4322" x="259.530357" y="121.332274" style="stroke: #000000; stroke-width: 0.4"/>
      </g>
     </g>
    </g>
    <g id="xtick_40">
     <g id="line2d_71">
      <g>
       <use xlink:href="#mb091fd4322" x="264.233591" y="121.332274" style="stroke: #000000; stroke-width: 0.4"/>
      </g>
     </g>
    </g>
    <g id="xtick_41">
     <g id="line2d_72">
      <g>
       <use xlink:href="#mb091fd4322" x="267.881703" y="121.332274" style="stroke: #000000; stroke-width: 0.4"/>
      </g>
     </g>
    </g>
    <g id="xtick_42">
     <g id="line2d_73">
      <g>
       <use xlink:href="#mb091fd4322" x="270.862427" y="121.332274" style="stroke: #000000; stroke-width: 0.4"/>
      </g>
     </g>
    </g>
    <g id="xtick_43">
     <g id="line2d_74">
      <g>
       <use xlink:href="#mb091fd4322" x="273.382594" y="121.332274" style="stroke: #000000; stroke-width: 0.4"/>
      </g>
     </g>
    </g>
    <g id="xtick_44">
     <g id="line2d_75">
      <g>
       <use xlink:href="#mb091fd4322" x="275.565661" y="121.332274" style="stroke: #000000; stroke-width: 0.4"/>
      </g>
     </g>
    </g>
    <g id="xtick_45">
     <g id="line2d_76">
      <g>
       <use xlink:href="#mb091fd4322" x="277.491263" y="121.332274" style="stroke: #000000; stroke-width: 0.4"/>
      </g>
     </g>
    </g>
    <g id="xtick_46">
     <g id="line2d_77">
      <g>
       <use xlink:href="#mb091fd4322" x="290.545843" y="121.332274" style="stroke: #000000; stroke-width: 0.4"/>
      </g>
     </g>
    </g>
    <g id="xtick_47">
     <g id="line2d_78">
      <g>
       <use xlink:href="#mb091fd4322" x="297.17468" y="121.332274" style="stroke: #000000; stroke-width: 0.4"/>
      </g>
     </g>
    </g>
    <g id="xtick_48">
     <g id="line2d_79">
      <g>
       <use xlink:href="#mb091fd4322" x="301.877914" y="121.332274" style="stroke: #000000; stroke-width: 0.4"/>
      </g>
     </g>
    </g>
    <g id="xtick_49">
     <g id="line2d_80">
      <g>
       <use xlink:href="#mb091fd4322" x="305.526026" y="121.332274" style="stroke: #000000; stroke-width: 0.4"/>
      </g>
     </g>
    </g>
    <g id="xtick_50">
     <g id="line2d_81">
      <g>
       <use xlink:href="#mb091fd4322" x="308.50675" y="121.332274" style="stroke: #000000; stroke-width: 0.4"/>
      </g>
     </g>
    </g>
    <g id="xtick_51">
     <g id="line2d_82">
      <g>
       <use xlink:href="#mb091fd4322" x="311.026917" y="121.332274" style="stroke: #000000; stroke-width: 0.4"/>
      </g>
     </g>
    </g>
    <g id="xtick_52">
     <g id="line2d_83">
      <g>
       <use xlink:href="#mb091fd4322" x="313.209984" y="121.332274" style="stroke: #000000; stroke-width: 0.4"/>
      </g>
     </g>
    </g>
    <g id="xtick_53">
     <g id="line2d_84">
      <g>
       <use xlink:href="#mb091fd4322" x="315.135586" y="121.332274" style="stroke: #000000; stroke-width: 0.4"/>
      </g>
     </g>
    </g>
    <g id="text_16">
     <!-- Sample Size N -->
     <g transform="translate(228.053486 140.926558) scale(0.09 -0.09)">
      <defs>
       <path id="DejaVuSans-6d" d="M 3328 2828 
Q 3544 3216 3844 3400 
Q 4144 3584 4550 3584 
Q 5097 3584 5394 3201 
Q 5691 2819 5691 2113 
L 5691 0 
L 5113 0 
L 5113 2094 
Q 5113 2597 4934 2840 
Q 4756 3084 4391 3084 
Q 3944 3084 3684 2787 
Q 3425 2491 3425 1978 
L 3425 0 
L 2847 0 
L 2847 2094 
Q 2847 2600 2669 2842 
Q 2491 3084 2119 3084 
Q 1678 3084 1418 2786 
Q 1159 2488 1159 1978 
L 1159 0 
L 581 0 
L 581 3500 
L 1159 3500 
L 1159 2956 
Q 1356 3278 1631 3431 
Q 1906 3584 2284 3584 
Q 2666 3584 2933 3390 
Q 3200 3197 3328 2828 
z
" transform="scale(0.015625)"/>
       <path id="DejaVuSans-70" d="M 1159 525 
L 1159 -1331 
L 581 -1331 
L 581 3500 
L 1159 3500 
L 1159 2969 
Q 1341 3281 1617 3432 
Q 1894 3584 2278 3584 
Q 2916 3584 3314 3078 
Q 3713 2572 3713 1747 
Q 3713 922 3314 415 
Q 2916 -91 2278 -91 
Q 1894 -91 1617 61 
Q 1341 213 1159 525 
z
M 3116 1747 
Q 3116 2381 2855 2742 
Q 2594 3103 2138 3103 
Q 1681 3103 1420 2742 
Q 1159 2381 1159 1747 
Q 1159 1113 1420 752 
Q 1681 391 2138 391 
Q 2594 391 2855 752 
Q 3116 1113 3116 1747 
z
" transform="scale(0.015625)"/>
       <path id="DejaVuSans-20" transform="scale(0.015625)"/>
       <path id="DejaVuSans-7a" d="M 353 3500 
L 3084 3500 
L 3084 2975 
L 922 459 
L 3084 459 
L 3084 0 
L 275 0 
L 275 525 
L 2438 3041 
L 353 3041 
L 353 3500 
z
" transform="scale(0.015625)"/>
       <path id="DejaVuSans-4e" d="M 628 4666 
L 1478 4666 
L 3547 763 
L 3547 4666 
L 4159 4666 
L 4159 0 
L 3309 0 
L 1241 3903 
L 1241 0 
L 628 0 
L 628 4666 
z
" transform="scale(0.015625)"/>
      </defs>
      <use xlink:href="#DejaVuSans-53"/>
      <use xlink:href="#DejaVuSans-61" x="63.476562"/>
      <use xlink:href="#DejaVuSans-6d" x="124.755859"/>
      <use xlink:href="#DejaVuSans-70" x="222.167969"/>
      <use xlink:href="#DejaVuSans-6c" x="285.644531"/>
      <use xlink:href="#DejaVuSans-65" x="313.427734"/>
      <use xlink:href="#DejaVuSans-20" x="374.951172"/>
      <use xlink:href="#DejaVuSans-53" x="406.738281"/>
      <use xlink:href="#DejaVuSans-69" x="470.214844"/>
      <use xlink:href="#DejaVuSans-7a" x="497.998047"/>
      <use xlink:href="#DejaVuSans-65" x="550.488281"/>
      <use xlink:href="#DejaVuSans-20" x="612.011719"/>
      <use xlink:href="#DejaVuSans-4e" x="643.798828"/>
     </g>
    </g>
   </g>
   <g id="matplotlib.axis_4">
    <g id="ytick_31">
     <g id="line2d_85">
      <g>
       <use xlink:href="#m7364b21ee4" x="203.925127" y="121.332274" style="stroke: #000000; stroke-width: 0.8"/>
      </g>
     </g>
     <g id="text_17">
      <!-- −1.0 -->
      <g transform="translate(181.720302 124.180549) scale(0.07497 -0.07497)">
       <use xlink:href="#DejaVuSans-2212"/>
       <use xlink:href="#DejaVuSans-31" x="83.789062"/>
       <use xlink:href="#DejaVuSans-2e" x="147.412109"/>
       <use xlink:href="#DejaVuSans-30" x="179.199219"/>
      </g>
     </g>
    </g>
    <g id="ytick_32">
     <g id="line2d_86">
      <g>
       <use xlink:href="#m7364b21ee4" x="203.925127" y="93.511274" style="stroke: #000000; stroke-width: 0.8"/>
      </g>
     </g>
     <g id="text_18">
      <!-- −0.5 -->
      <g transform="translate(181.720302 96.359549) scale(0.07497 -0.07497)">
       <defs>
        <path id="DejaVuSans-35" d="M 691 4666 
L 3169 4666 
L 3169 4134 
L 1269 4134 
L 1269 2991 
Q 1406 3038 1543 3061 
Q 1681 3084 1819 3084 
Q 2600 3084 3056 2656 
Q 3513 2228 3513 1497 
Q 3513 744 3044 326 
Q 2575 -91 1722 -91 
Q 1428 -91 1123 -41 
Q 819 9 494 109 
L 494 744 
Q 775 591 1075 516 
Q 1375 441 1709 441 
Q 2250 441 2565 725 
Q 2881 1009 2881 1497 
Q 2881 1984 2565 2268 
Q 2250 2553 1709 2553 
Q 1456 2553 1204 2497 
Q 953 2441 691 2322 
L 691 4666 
z
" transform="scale(0.015625)"/>
       </defs>
       <use xlink:href="#DejaVuSans-2212"/>
       <use xlink:href="#DejaVuSans-30" x="83.789062"/>
       <use xlink:href="#DejaVuSans-2e" x="147.412109"/>
       <use xlink:href="#DejaVuSans-35" x="179.199219"/>
      </g>
     </g>
    </g>
    <g id="ytick_33">
     <g id="line2d_87">
      <g>
       <use xlink:href="#m7364b21ee4" x="203.925127" y="65.690274" style="stroke: #000000; stroke-width: 0.8"/>
      </g>
     </g>
     <g id="text_19">
      <!-- 0.0 -->
      <g transform="translate(188.002554 68.538549) scale(0.07497 -0.07497)">
       <use xlink:href="#DejaVuSans-30"/>
       <use xlink:href="#DejaVuSans-2e" x="63.623047"/>
       <use xlink:href="#DejaVuSans-30" x="95.410156"/>
      </g>
     </g>
    </g>
    <g id="ytick_34">
     <g id="line2d_88">
      <g>
       <use xlink:href="#m7364b21ee4" x="203.925127" y="37.869274" style="stroke: #000000; stroke-width: 0.8"/>
      </g>
     </g>
     <g id="text_20">
      <!-- 0.5 -->
      <g transform="translate(188.002554 40.717549) scale(0.07497 -0.07497)">
       <use xlink:href="#DejaVuSans-30"/>
       <use xlink:href="#DejaVuSans-2e" x="63.623047"/>
       <use xlink:href="#DejaVuSans-35" x="95.410156"/>
      </g>
     </g>
    </g>
    <g id="ytick_35">
     <g id="line2d_89">
      <g>
       <use xlink:href="#m7364b21ee4" x="203.925127" y="10.048274" style="stroke: #000000; stroke-width: 0.8"/>
      </g>
     </g>
     <g id="text_21">
      <!-- 1.0 -->
      <g transform="translate(188.002554 12.896549) scale(0.07497 -0.07497)">
       <use xlink:href="#DejaVuSans-31"/>
       <use xlink:href="#DejaVuSans-2e" x="63.623047"/>
       <use xlink:href="#DejaVuSans-30" x="95.410156"/>
      </g>
     </g>
    </g>
    <g id="text_22">
     <!-- Bias -->
     <g transform="translate(178.348583 75.129727) rotate(-90) scale(0.09 -0.09)">
      <defs>
       <path id="DejaVuSans-42" d="M 1259 2228 
L 1259 519 
L 2272 519 
Q 2781 519 3026 730 
Q 3272 941 3272 1375 
Q 3272 1813 3026 2020 
Q 2781 2228 2272 2228 
L 1259 2228 
z
M 1259 4147 
L 1259 2741 
L 2194 2741 
Q 2656 2741 2882 2914 
Q 3109 3088 3109 3444 
Q 3109 3797 2882 3972 
Q 2656 4147 2194 4147 
L 1259 4147 
z
M 628 4666 
L 2241 4666 
Q 2963 4666 3353 4366 
Q 3744 4066 3744 3513 
Q 3744 3084 3544 2831 
Q 3344 2578 2956 2516 
Q 3422 2416 3680 2098 
Q 3938 1781 3938 1306 
Q 3938 681 3513 340 
Q 3088 0 2303 0 
L 628 0 
L 628 4666 
z
" transform="scale(0.015625)"/>
       <path id="DejaVuSans-73" d="M 2834 3397 
L 2834 2853 
Q 2591 2978 2328 3040 
Q 2066 3103 1784 3103 
Q 1356 3103 1142 2972 
Q 928 2841 928 2578 
Q 928 2378 1081 2264 
Q 1234 2150 1697 2047 
L 1894 2003 
Q 2506 1872 2764 1633 
Q 3022 1394 3022 966 
Q 3022 478 2636 193 
Q 2250 -91 1575 -91 
Q 1294 -91 989 -36 
Q 684 19 347 128 
L 347 722 
Q 666 556 975 473 
Q 1284 391 1588 391 
Q 1994 391 2212 530 
Q 2431 669 2431 922 
Q 2431 1156 2273 1281 
Q 2116 1406 1581 1522 
L 1381 1569 
Q 847 1681 609 1914 
Q 372 2147 372 2553 
Q 372 3047 722 3315 
Q 1072 3584 1716 3584 
Q 2034 3584 2315 3537 
Q 2597 3491 2834 3397 
z
" transform="scale(0.015625)"/>
      </defs>
      <use xlink:href="#DejaVuSans-42"/>
      <use xlink:href="#DejaVuSans-69" x="68.603516"/>
      <use xlink:href="#DejaVuSans-61" x="96.386719"/>
      <use xlink:href="#DejaVuSans-73" x="157.666016"/>
     </g>
    </g>
   </g>
   <g id="patch_6">
    <path d="M 203.925127 121.332274 
L 203.925127 10.048274 
L 228.413324 10.048274 
L 228.413324 121.332274 
z
" clip-path="url(#pd974201f8c)" style="fill: #1f77b4; opacity: 0.2; stroke: #1f77b4; stroke-width: 0.8; stroke-linejoin: miter"/>
   </g>
   <g id="patch_7">
    <path d="M 228.413324 121.332274 
L 228.413324 10.048274 
L 279.213773 10.048274 
L 279.213773 121.332274 
z
" clip-path="url(#pd974201f8c)" style="fill: #ff7f0e; opacity: 0.2; stroke: #ff7f0e; stroke-width: 0.8; stroke-linejoin: miter"/>
   </g>
   <g id="patch_8">
    <path d="M 279.213773 121.332274 
L 279.213773 10.048274 
L 316.858096 10.048274 
L 316.858096 121.332274 
z
" clip-path="url(#pd974201f8c)" style="fill: #2ca02c; opacity: 0.2; stroke: #2ca02c; stroke-width: 0.8; stroke-linejoin: miter"/>
   </g>
   <g id="line2d_90">
    <path d="M 203.925127 65.690274 
L 316.858096 65.690274 
" clip-path="url(#pd974201f8c)" style="fill: none; stroke: #000000; stroke-width: 1.3; stroke-linecap: round"/>
   </g>
   <g id="line2d_91">
    <path d="M 203.925127 57.539624 
L 209.426018 67.121782 
L 215.257197 66.467739 
L 221.331786 61.806552 
L 227.386924 63.430934 
L 233.488337 63.491379 
L 239.479538 66.660778 
L 245.477071 64.767888 
L 251.449243 66.419161 
L 257.3784 64.810519 
L 263.351931 65.47558 
L 269.290598 65.900185 
L 275.235373 65.585508 
L 281.182914 65.810798 
L 287.131071 65.81446 
L 293.077683 66.159771 
L 299.022592 65.860629 
L 304.967268 65.546297 
L 310.912073 65.682564 
L 316.858096 65.654098 
" clip-path="url(#pd974201f8c)" style="fill: none; stroke: #1f77b4; stroke-width: 2; stroke-linecap: round"/>
   </g>
   <g id="line2d_92">
    <path d="M 273.594171 -1 
L 275.235373 4.675582 
L 281.182914 21.074824 
L 287.131071 33.086823 
L 293.077683 42.536691 
L 299.022592 48.921154 
L 304.967268 53.493248 
L 310.912073 57.158764 
L 316.858096 59.659834 
" clip-path="url(#pd974201f8c)" style="fill: none; stroke: #ff7f0e; stroke-linecap: round"/>
   </g>
   <g id="line2d_93">
    <path d="M 203.925127 41.122754 
L 209.426018 43.469477 
L 215.257197 33.397333 
L 221.331786 21.599096 
L 227.386924 20.187765 
L 233.488337 18.481285 
L 239.479538 23.662078 
L 245.477071 22.734831 
L 251.449243 26.75713 
L 257.3784 28.251544 
L 263.351931 33.244757 
L 269.290598 38.488983 
L 275.235373 42.866761 
L 281.182914 47.747884 
L 287.131071 51.783042 
L 293.077683 55.584667 
L 299.022592 58.036631 
L 304.967268 59.853981 
L 310.912073 61.593036 
L 316.858096 62.746204 
" clip-path="url(#pd974201f8c)" style="fill: none; stroke: #2ca02c; stroke-linecap: round"/>
   </g>
   <g id="line2d_94">
    <path d="M 275.791541 -1 
L 281.182914 13.989511 
L 287.131071 27.671589 
L 293.077683 39.562637 
L 299.022592 47.516633 
L 304.967268 52.740614 
L 310.912073 57.142078 
L 316.858096 60.11995 
" clip-path="url(#pd974201f8c)" style="fill: none; stroke: #d62728; stroke-linecap: round"/>
   </g>
   <g id="patch_9">
    <path d="M 203.925127 121.332274 
L 203.925127 10.048274 
" style="fill: none; stroke: #000000; stroke-linejoin: miter; stroke-linecap: square"/>
   </g>
   <g id="patch_10">
    <path d="M 203.925127 121.332274 
L 316.858096 121.332274 
" style="fill: none; stroke: #000000; stroke-linejoin: miter; stroke-linecap: square"/>
   </g>
   <g id="text_23">
    <!-- B -->
    <g transform="translate(174.562555 16.886868) scale(0.09 -0.09)">
     <defs>
      <path id="DejaVuSans-Bold-42" d="M 2456 2859 
Q 2741 2859 2887 2984 
Q 3034 3109 3034 3353 
Q 3034 3594 2887 3720 
Q 2741 3847 2456 3847 
L 1791 3847 
L 1791 2859 
L 2456 2859 
z
M 2497 819 
Q 2859 819 3042 972 
Q 3225 1125 3225 1434 
Q 3225 1738 3044 1889 
Q 2863 2041 2497 2041 
L 1791 2041 
L 1791 819 
L 2497 819 
z
M 3616 2497 
Q 4003 2384 4215 2081 
Q 4428 1778 4428 1338 
Q 4428 663 3972 331 
Q 3516 0 2584 0 
L 588 0 
L 588 4666 
L 2394 4666 
Q 3366 4666 3802 4372 
Q 4238 4078 4238 3431 
Q 4238 3091 4078 2852 
Q 3919 2613 3616 2497 
z
" transform="scale(0.015625)"/>
     </defs>
     <use xlink:href="#DejaVuSans-Bold-42"/>
    </g>
   </g>
   <g id="legend_1">
    <g id="patch_11">
     <path d="M 223.974658 119.082274 
L 296.808565 119.082274 
Q 298.608565 119.082274 298.608565 117.282274 
L 298.608565 72.091024 
Q 298.608565 70.291024 296.808565 70.291024 
L 223.974658 70.291024 
Q 222.174658 70.291024 222.174658 72.091024 
L 222.174658 117.282274 
Q 222.174658 119.082274 223.974658 119.082274 
z
" style="fill: #ffffff; opacity: 0.8; stroke: #cccccc; stroke-width: 0.8; stroke-linejoin: miter"/>
    </g>
    <g id="line2d_95">
     <path d="M 225.774658 77.579618 
L 231.399658 77.579618 
L 237.024658 77.579618 
" style="fill: none; stroke: #1f77b4; stroke-width: 2; stroke-linecap: round"/>
    </g>
    <g id="text_24">
     <!-- Unbiased -->
     <g transform="translate(241.524658 80.729618) scale(0.09 -0.09)">
      <defs>
       <path id="DejaVuSans-55" d="M 556 4666 
L 1191 4666 
L 1191 1831 
Q 1191 1081 1462 751 
Q 1734 422 2344 422 
Q 2950 422 3222 751 
Q 3494 1081 3494 1831 
L 3494 4666 
L 4128 4666 
L 4128 1753 
Q 4128 841 3676 375 
Q 3225 -91 2344 -91 
Q 1459 -91 1007 375 
Q 556 841 556 1753 
L 556 4666 
z
" transform="scale(0.015625)"/>
       <path id="DejaVuSans-62" d="M 3116 1747 
Q 3116 2381 2855 2742 
Q 2594 3103 2138 3103 
Q 1681 3103 1420 2742 
Q 1159 2381 1159 1747 
Q 1159 1113 1420 752 
Q 1681 391 2138 391 
Q 2594 391 2855 752 
Q 3116 1113 3116 1747 
z
M 1159 2969 
Q 1341 3281 1617 3432 
Q 1894 3584 2278 3584 
Q 2916 3584 3314 3078 
Q 3713 2572 3713 1747 
Q 3713 922 3314 415 
Q 2916 -91 2278 -91 
Q 1894 -91 1617 61 
Q 1341 213 1159 525 
L 1159 0 
L 581 0 
L 581 4863 
L 1159 4863 
L 1159 2969 
z
" transform="scale(0.015625)"/>
       <path id="DejaVuSans-64" d="M 2906 2969 
L 2906 4863 
L 3481 4863 
L 3481 0 
L 2906 0 
L 2906 525 
Q 2725 213 2448 61 
Q 2172 -91 1784 -91 
Q 1150 -91 751 415 
Q 353 922 353 1747 
Q 353 2572 751 3078 
Q 1150 3584 1784 3584 
Q 2172 3584 2448 3432 
Q 2725 3281 2906 2969 
z
M 947 1747 
Q 947 1113 1208 752 
Q 1469 391 1925 391 
Q 2381 391 2643 752 
Q 2906 1113 2906 1747 
Q 2906 2381 2643 2742 
Q 2381 3103 1925 3103 
Q 1469 3103 1208 2742 
Q 947 2381 947 1747 
z
" transform="scale(0.015625)"/>
      </defs>
      <use xlink:href="#DejaVuSans-55"/>
      <use xlink:href="#DejaVuSans-6e" x="73.193359"/>
      <use xlink:href="#DejaVuSans-62" x="136.572266"/>
      <use xlink:href="#DejaVuSans-69" x="200.048828"/>
      <use xlink:href="#DejaVuSans-61" x="227.832031"/>
      <use xlink:href="#DejaVuSans-73" x="289.111328"/>
      <use xlink:href="#DejaVuSans-65" x="341.210938"/>
      <use xlink:href="#DejaVuSans-64" x="402.734375"/>
     </g>
    </g>
    <g id="line2d_96">
     <path d="M 225.774658 88.539931 
L 231.399658 88.539931 
L 237.024658 88.539931 
" style="fill: none; stroke: #ff7f0e; stroke-linecap: round"/>
    </g>
    <g id="text_25">
     <!-- Plugin -->
     <g transform="translate(241.524658 91.689931) scale(0.09 -0.09)">
      <defs>
       <path id="DejaVuSans-50" d="M 1259 4147 
L 1259 2394 
L 2053 2394 
Q 2494 2394 2734 2622 
Q 2975 2850 2975 3272 
Q 2975 3691 2734 3919 
Q 2494 4147 2053 4147 
L 1259 4147 
z
M 628 4666 
L 2053 4666 
Q 2838 4666 3239 4311 
Q 3641 3956 3641 3272 
Q 3641 2581 3239 2228 
Q 2838 1875 2053 1875 
L 1259 1875 
L 1259 0 
L 628 0 
L 628 4666 
z
" transform="scale(0.015625)"/>
       <path id="DejaVuSans-67" d="M 2906 1791 
Q 2906 2416 2648 2759 
Q 2391 3103 1925 3103 
Q 1463 3103 1205 2759 
Q 947 2416 947 1791 
Q 947 1169 1205 825 
Q 1463 481 1925 481 
Q 2391 481 2648 825 
Q 2906 1169 2906 1791 
z
M 3481 434 
Q 3481 -459 3084 -895 
Q 2688 -1331 1869 -1331 
Q 1566 -1331 1297 -1286 
Q 1028 -1241 775 -1147 
L 775 -588 
Q 1028 -725 1275 -790 
Q 1522 -856 1778 -856 
Q 2344 -856 2625 -561 
Q 2906 -266 2906 331 
L 2906 616 
Q 2728 306 2450 153 
Q 2172 0 1784 0 
Q 1141 0 747 490 
Q 353 981 353 1791 
Q 353 2603 747 3093 
Q 1141 3584 1784 3584 
Q 2172 3584 2450 3431 
Q 2728 3278 2906 2969 
L 2906 3500 
L 3481 3500 
L 3481 434 
z
" transform="scale(0.015625)"/>
      </defs>
      <use xlink:href="#DejaVuSans-50"/>
      <use xlink:href="#DejaVuSans-6c" x="60.302734"/>
      <use xlink:href="#DejaVuSans-75" x="88.085938"/>
      <use xlink:href="#DejaVuSans-67" x="151.464844"/>
      <use xlink:href="#DejaVuSans-69" x="214.941406"/>
      <use xlink:href="#DejaVuSans-6e" x="242.724609"/>
     </g>
    </g>
    <g id="line2d_97">
     <path d="M 225.774658 99.500243 
L 231.399658 99.500243 
L 237.024658 99.500243 
" style="fill: none; stroke: #2ca02c; stroke-linecap: round"/>
    </g>
    <g id="text_26">
     <!-- Grundmann -->
     <g transform="translate(241.524658 102.650243) scale(0.09 -0.09)">
      <defs>
       <path id="DejaVuSans-47" d="M 3809 666 
L 3809 1919 
L 2778 1919 
L 2778 2438 
L 4434 2438 
L 4434 434 
Q 4069 175 3628 42 
Q 3188 -91 2688 -91 
Q 1594 -91 976 548 
Q 359 1188 359 2328 
Q 359 3472 976 4111 
Q 1594 4750 2688 4750 
Q 3144 4750 3555 4637 
Q 3966 4525 4313 4306 
L 4313 3634 
Q 3963 3931 3569 4081 
Q 3175 4231 2741 4231 
Q 1884 4231 1454 3753 
Q 1025 3275 1025 2328 
Q 1025 1384 1454 906 
Q 1884 428 2741 428 
Q 3075 428 3337 486 
Q 3600 544 3809 666 
z
" transform="scale(0.015625)"/>
      </defs>
      <use xlink:href="#DejaVuSans-47"/>
      <use xlink:href="#DejaVuSans-72" x="77.490234"/>
      <use xlink:href="#DejaVuSans-75" x="118.603516"/>
      <use xlink:href="#DejaVuSans-6e" x="181.982422"/>
      <use xlink:href="#DejaVuSans-64" x="245.361328"/>
      <use xlink:href="#DejaVuSans-6d" x="308.837891"/>
      <use xlink:href="#DejaVuSans-61" x="406.25"/>
      <use xlink:href="#DejaVuSans-6e" x="467.529297"/>
      <use xlink:href="#DejaVuSans-6e" x="530.908203"/>
     </g>
    </g>
    <g id="line2d_98">
     <path d="M 225.774658 110.460556 
L 231.399658 110.460556 
L 237.024658 110.460556 
" style="fill: none; stroke: #d62728; stroke-linecap: round"/>
    </g>
    <g id="text_27">
     <!-- Chao -->
     <g transform="translate(241.524658 113.610556) scale(0.09 -0.09)">
      <defs>
       <path id="DejaVuSans-43" d="M 4122 4306 
L 4122 3641 
Q 3803 3938 3442 4084 
Q 3081 4231 2675 4231 
Q 1875 4231 1450 3742 
Q 1025 3253 1025 2328 
Q 1025 1406 1450 917 
Q 1875 428 2675 428 
Q 3081 428 3442 575 
Q 3803 722 4122 1019 
L 4122 359 
Q 3791 134 3420 21 
Q 3050 -91 2638 -91 
Q 1578 -91 968 557 
Q 359 1206 359 2328 
Q 359 3453 968 4101 
Q 1578 4750 2638 4750 
Q 3056 4750 3426 4639 
Q 3797 4528 4122 4306 
z
" transform="scale(0.015625)"/>
       <path id="DejaVuSans-6f" d="M 1959 3097 
Q 1497 3097 1228 2736 
Q 959 2375 959 1747 
Q 959 1119 1226 758 
Q 1494 397 1959 397 
Q 2419 397 2687 759 
Q 2956 1122 2956 1747 
Q 2956 2369 2687 2733 
Q 2419 3097 1959 3097 
z
M 1959 3584 
Q 2709 3584 3137 3096 
Q 3566 2609 3566 1747 
Q 3566 888 3137 398 
Q 2709 -91 1959 -91 
Q 1206 -91 779 398 
Q 353 888 353 1747 
Q 353 2609 779 3096 
Q 1206 3584 1959 3584 
z
" transform="scale(0.015625)"/>
      </defs>
      <use xlink:href="#DejaVuSans-43"/>
      <use xlink:href="#DejaVuSans-68" x="69.824219"/>
      <use xlink:href="#DejaVuSans-61" x="133.203125"/>
      <use xlink:href="#DejaVuSans-6f" x="194.482422"/>
     </g>
    </g>
   </g>
  </g>
  <g id="axes_3">
   <g id="patch_12">
    <path d="M 371.287681 121.332274 
L 484.220651 121.332274 
L 484.220651 10.048274 
L 371.287681 10.048274 
z
" style="fill: #ffffff"/>
   </g>
   <g id="matplotlib.axis_5">
    <g id="xtick_54">
     <g id="line2d_99">
      <g>
       <use xlink:href="#m84aa918f20" x="371.287681" y="121.332274" style="stroke: #000000; stroke-width: 0.8"/>
      </g>
     </g>
     <g id="text_28">
      <!-- $\mathdefault{10^{1}}$ -->
      <g transform="translate(364.690321 131.028823) scale(0.07497 -0.07497)">
       <use xlink:href="#DejaVuSans-31" transform="translate(0 0.684375)"/>
       <use xlink:href="#DejaVuSans-30" transform="translate(63.623047 0.684375)"/>
       <use xlink:href="#DejaVuSans-31" transform="translate(128.203125 38.965625) scale(0.7)"/>
      </g>
     </g>
    </g>
    <g id="xtick_55">
     <g id="line2d_100">
      <g>
       <use xlink:href="#m84aa918f20" x="408.932005" y="121.332274" style="stroke: #000000; stroke-width: 0.8"/>
      </g>
     </g>
     <g id="text_29">
      <!-- $\mathdefault{10^{2}}$ -->
      <g transform="translate(402.334645 131.028823) scale(0.07497 -0.07497)">
       <use xlink:href="#DejaVuSans-31" transform="translate(0 0.765625)"/>
       <use xlink:href="#DejaVuSans-30" transform="translate(63.623047 0.765625)"/>
       <use xlink:href="#DejaVuSans-32" transform="translate(128.203125 39.046875) scale(0.7)"/>
      </g>
     </g>
    </g>
    <g id="xtick_56">
     <g id="line2d_101">
      <g>
       <use xlink:href="#m84aa918f20" x="446.576328" y="121.332274" style="stroke: #000000; stroke-width: 0.8"/>
      </g>
     </g>
     <g id="text_30">
      <!-- $\mathdefault{10^{3}}$ -->
      <g transform="translate(439.978968 131.028823) scale(0.07497 -0.07497)">
       <use xlink:href="#DejaVuSans-31" transform="translate(0 0.765625)"/>
       <use xlink:href="#DejaVuSans-30" transform="translate(63.623047 0.765625)"/>
       <use xlink:href="#DejaVuSans-33" transform="translate(128.203125 39.046875) scale(0.7)"/>
      </g>
     </g>
    </g>
    <g id="xtick_57">
     <g id="line2d_102">
      <g>
       <use xlink:href="#m84aa918f20" x="484.220651" y="121.332274" style="stroke: #000000; stroke-width: 0.8"/>
      </g>
     </g>
     <g id="text_31">
      <!-- $\mathdefault{10^{4}}$ -->
      <g transform="translate(477.623291 131.028823) scale(0.07497 -0.07497)">
       <use xlink:href="#DejaVuSans-31" transform="translate(0 0.684375)"/>
       <use xlink:href="#DejaVuSans-30" transform="translate(63.623047 0.684375)"/>
       <use xlink:href="#DejaVuSans-34" transform="translate(128.203125 38.965625) scale(0.7)"/>
      </g>
     </g>
    </g>
    <g id="xtick_58">
     <g id="line2d_103">
      <g>
       <use xlink:href="#mb091fd4322" x="382.619752" y="121.332274" style="stroke: #000000; stroke-width: 0.4"/>
      </g>
     </g>
    </g>
    <g id="xtick_59">
     <g id="line2d_104">
      <g>
       <use xlink:href="#mb091fd4322" x="389.248588" y="121.332274" style="stroke: #000000; stroke-width: 0.4"/>
      </g>
     </g>
    </g>
    <g id="xtick_60">
     <g id="line2d_105">
      <g>
       <use xlink:href="#mb091fd4322" x="393.951822" y="121.332274" style="stroke: #000000; stroke-width: 0.4"/>
      </g>
     </g>
    </g>
    <g id="xtick_61">
     <g id="line2d_106">
      <g>
       <use xlink:href="#mb091fd4322" x="397.599934" y="121.332274" style="stroke: #000000; stroke-width: 0.4"/>
      </g>
     </g>
    </g>
    <g id="xtick_62">
     <g id="line2d_107">
      <g>
       <use xlink:href="#mb091fd4322" x="400.580659" y="121.332274" style="stroke: #000000; stroke-width: 0.4"/>
      </g>
     </g>
    </g>
    <g id="xtick_63">
     <g id="line2d_108">
      <g>
       <use xlink:href="#mb091fd4322" x="403.100825" y="121.332274" style="stroke: #000000; stroke-width: 0.4"/>
      </g>
     </g>
    </g>
    <g id="xtick_64">
     <g id="line2d_109">
      <g>
       <use xlink:href="#mb091fd4322" x="405.283893" y="121.332274" style="stroke: #000000; stroke-width: 0.4"/>
      </g>
     </g>
    </g>
    <g id="xtick_65">
     <g id="line2d_110">
      <g>
       <use xlink:href="#mb091fd4322" x="407.209495" y="121.332274" style="stroke: #000000; stroke-width: 0.4"/>
      </g>
     </g>
    </g>
    <g id="xtick_66">
     <g id="line2d_111">
      <g>
       <use xlink:href="#mb091fd4322" x="420.264075" y="121.332274" style="stroke: #000000; stroke-width: 0.4"/>
      </g>
     </g>
    </g>
    <g id="xtick_67">
     <g id="line2d_112">
      <g>
       <use xlink:href="#mb091fd4322" x="426.892911" y="121.332274" style="stroke: #000000; stroke-width: 0.4"/>
      </g>
     </g>
    </g>
    <g id="xtick_68">
     <g id="line2d_113">
      <g>
       <use xlink:href="#mb091fd4322" x="431.596145" y="121.332274" style="stroke: #000000; stroke-width: 0.4"/>
      </g>
     </g>
    </g>
    <g id="xtick_69">
     <g id="line2d_114">
      <g>
       <use xlink:href="#mb091fd4322" x="435.244257" y="121.332274" style="stroke: #000000; stroke-width: 0.4"/>
      </g>
     </g>
    </g>
    <g id="xtick_70">
     <g id="line2d_115">
      <g>
       <use xlink:href="#mb091fd4322" x="438.224982" y="121.332274" style="stroke: #000000; stroke-width: 0.4"/>
      </g>
     </g>
    </g>
    <g id="xtick_71">
     <g id="line2d_116">
      <g>
       <use xlink:href="#mb091fd4322" x="440.745148" y="121.332274" style="stroke: #000000; stroke-width: 0.4"/>
      </g>
     </g>
    </g>
    <g id="xtick_72">
     <g id="line2d_117">
      <g>
       <use xlink:href="#mb091fd4322" x="442.928216" y="121.332274" style="stroke: #000000; stroke-width: 0.4"/>
      </g>
     </g>
    </g>
    <g id="xtick_73">
     <g id="line2d_118">
      <g>
       <use xlink:href="#mb091fd4322" x="444.853818" y="121.332274" style="stroke: #000000; stroke-width: 0.4"/>
      </g>
     </g>
    </g>
    <g id="xtick_74">
     <g id="line2d_119">
      <g>
       <use xlink:href="#mb091fd4322" x="457.908398" y="121.332274" style="stroke: #000000; stroke-width: 0.4"/>
      </g>
     </g>
    </g>
    <g id="xtick_75">
     <g id="line2d_120">
      <g>
       <use xlink:href="#mb091fd4322" x="464.537234" y="121.332274" style="stroke: #000000; stroke-width: 0.4"/>
      </g>
     </g>
    </g>
    <g id="xtick_76">
     <g id="line2d_121">
      <g>
       <use xlink:href="#mb091fd4322" x="469.240469" y="121.332274" style="stroke: #000000; stroke-width: 0.4"/>
      </g>
     </g>
    </g>
    <g id="xtick_77">
     <g id="line2d_122">
      <g>
       <use xlink:href="#mb091fd4322" x="472.88858" y="121.332274" style="stroke: #000000; stroke-width: 0.4"/>
      </g>
     </g>
    </g>
    <g id="xtick_78">
     <g id="line2d_123">
      <g>
       <use xlink:href="#mb091fd4322" x="475.869305" y="121.332274" style="stroke: #000000; stroke-width: 0.4"/>
      </g>
     </g>
    </g>
    <g id="xtick_79">
     <g id="line2d_124">
      <g>
       <use xlink:href="#mb091fd4322" x="478.389471" y="121.332274" style="stroke: #000000; stroke-width: 0.4"/>
      </g>
     </g>
    </g>
    <g id="xtick_80">
     <g id="line2d_125">
      <g>
       <use xlink:href="#mb091fd4322" x="480.572539" y="121.332274" style="stroke: #000000; stroke-width: 0.4"/>
      </g>
     </g>
    </g>
    <g id="xtick_81">
     <g id="line2d_126">
      <g>
       <use xlink:href="#mb091fd4322" x="482.498141" y="121.332274" style="stroke: #000000; stroke-width: 0.4"/>
      </g>
     </g>
    </g>
    <g id="text_32">
     <!-- Sample Size N -->
     <g transform="translate(395.416041 140.926558) scale(0.09 -0.09)">
      <use xlink:href="#DejaVuSans-53"/>
      <use xlink:href="#DejaVuSans-61" x="63.476562"/>
      <use xlink:href="#DejaVuSans-6d" x="124.755859"/>
      <use xlink:href="#DejaVuSans-70" x="222.167969"/>
      <use xlink:href="#DejaVuSans-6c" x="285.644531"/>
      <use xlink:href="#DejaVuSans-65" x="313.427734"/>
      <use xlink:href="#DejaVuSans-20" x="374.951172"/>
      <use xlink:href="#DejaVuSans-53" x="406.738281"/>
      <use xlink:href="#DejaVuSans-69" x="470.214844"/>
      <use xlink:href="#DejaVuSans-7a" x="497.998047"/>
      <use xlink:href="#DejaVuSans-65" x="550.488281"/>
      <use xlink:href="#DejaVuSans-20" x="612.011719"/>
      <use xlink:href="#DejaVuSans-4e" x="643.798828"/>
     </g>
    </g>
   </g>
   <g id="matplotlib.axis_6">
    <g id="ytick_36">
     <g id="line2d_127">
      <g>
       <use xlink:href="#m7364b21ee4" x="371.287681" y="121.332274" style="stroke: #000000; stroke-width: 0.8"/>
      </g>
     </g>
     <g id="text_33">
      <!-- 0.0 -->
      <g transform="translate(355.365109 124.180549) scale(0.07497 -0.07497)">
       <use xlink:href="#DejaVuSans-30"/>
       <use xlink:href="#DejaVuSans-2e" x="63.623047"/>
       <use xlink:href="#DejaVuSans-30" x="95.410156"/>
      </g>
     </g>
    </g>
    <g id="ytick_37">
     <g id="line2d_128">
      <g>
       <use xlink:href="#m7364b21ee4" x="371.287681" y="93.511274" style="stroke: #000000; stroke-width: 0.8"/>
      </g>
     </g>
     <g id="text_34">
      <!-- 0.5 -->
      <g transform="translate(355.365109 96.359549) scale(0.07497 -0.07497)">
       <use xlink:href="#DejaVuSans-30"/>
       <use xlink:href="#DejaVuSans-2e" x="63.623047"/>
       <use xlink:href="#DejaVuSans-35" x="95.410156"/>
      </g>
     </g>
    </g>
    <g id="ytick_38">
     <g id="line2d_129">
      <g>
       <use xlink:href="#m7364b21ee4" x="371.287681" y="65.690274" style="stroke: #000000; stroke-width: 0.8"/>
      </g>
     </g>
     <g id="text_35">
      <!-- 1.0 -->
      <g transform="translate(355.365109 68.538549) scale(0.07497 -0.07497)">
       <use xlink:href="#DejaVuSans-31"/>
       <use xlink:href="#DejaVuSans-2e" x="63.623047"/>
       <use xlink:href="#DejaVuSans-30" x="95.410156"/>
      </g>
     </g>
    </g>
    <g id="ytick_39">
     <g id="line2d_130">
      <g>
       <use xlink:href="#m7364b21ee4" x="371.287681" y="37.869274" style="stroke: #000000; stroke-width: 0.8"/>
      </g>
     </g>
     <g id="text_36">
      <!-- 1.5 -->
      <g transform="translate(355.365109 40.717549) scale(0.07497 -0.07497)">
       <use xlink:href="#DejaVuSans-31"/>
       <use xlink:href="#DejaVuSans-2e" x="63.623047"/>
       <use xlink:href="#DejaVuSans-35" x="95.410156"/>
      </g>
     </g>
    </g>
    <g id="ytick_40">
     <g id="line2d_131">
      <g>
       <use xlink:href="#m7364b21ee4" x="371.287681" y="10.048274" style="stroke: #000000; stroke-width: 0.8"/>
      </g>
     </g>
     <g id="text_37">
      <!-- 2.0 -->
      <g transform="translate(355.365109 12.896549) scale(0.07497 -0.07497)">
       <use xlink:href="#DejaVuSans-32"/>
       <use xlink:href="#DejaVuSans-2e" x="63.623047"/>
       <use xlink:href="#DejaVuSans-30" x="95.410156"/>
      </g>
     </g>
    </g>
    <g id="text_38">
     <!-- Variance -->
     <g transform="translate(351.99339 85.130274) rotate(-90) scale(0.09 -0.09)">
      <defs>
       <path id="DejaVuSans-56" d="M 1831 0 
L 50 4666 
L 709 4666 
L 2188 738 
L 3669 4666 
L 4325 4666 
L 2547 0 
L 1831 0 
z
" transform="scale(0.015625)"/>
      </defs>
      <use xlink:href="#DejaVuSans-56"/>
      <use xlink:href="#DejaVuSans-61" x="60.658203"/>
      <use xlink:href="#DejaVuSans-72" x="121.9375"/>
      <use xlink:href="#DejaVuSans-69" x="163.050781"/>
      <use xlink:href="#DejaVuSans-61" x="190.833984"/>
      <use xlink:href="#DejaVuSans-6e" x="252.113281"/>
      <use xlink:href="#DejaVuSans-63" x="315.492188"/>
      <use xlink:href="#DejaVuSans-65" x="370.472656"/>
     </g>
    </g>
   </g>
   <g id="patch_13">
    <path d="M 371.287681 121.332274 
L 371.287681 10.048274 
L 395.775878 10.048274 
L 395.775878 121.332274 
z
" clip-path="url(#pf3a0c9ab80)" style="fill: #1f77b4; opacity: 0.2; stroke: #1f77b4; stroke-width: 0.8; stroke-linejoin: miter"/>
   </g>
   <g id="patch_14">
    <path d="M 395.775878 121.332274 
L 395.775878 10.048274 
L 446.576328 10.048274 
L 446.576328 121.332274 
z
" clip-path="url(#pf3a0c9ab80)" style="fill: #ff7f0e; opacity: 0.2; stroke: #ff7f0e; stroke-width: 0.8; stroke-linejoin: miter"/>
   </g>
   <g id="patch_15">
    <path d="M 446.576328 121.332274 
L 446.576328 10.048274 
L 484.220651 10.048274 
L 484.220651 121.332274 
z
" clip-path="url(#pf3a0c9ab80)" style="fill: #2ca02c; opacity: 0.2; stroke: #2ca02c; stroke-width: 0.8; stroke-linejoin: miter"/>
   </g>
   <g id="line2d_132">
    <path d="M 393.289932 -1 
L 394.749479 14.656162 
L 400.850891 62.980474 
L 406.842092 87.72798 
L 412.839625 93.69571 
L 418.811798 104.930322 
L 424.740954 108.136053 
L 430.714486 112.646614 
L 436.653152 115.192503 
L 442.597927 116.943023 
L 448.545468 118.5521 
L 454.493626 119.434365 
L 460.440238 120.065123 
L 466.385147 120.390662 
L 472.329823 120.619154 
L 478.274628 120.885467 
L 484.220651 121.012539 
" clip-path="url(#pf3a0c9ab80)" style="fill: none; stroke: #1f77b4; stroke-width: 2; stroke-linecap: round"/>
   </g>
   <g id="line2d_133">
    <path d="M 404.438859 -1 
L 406.842092 34.76823 
L 412.839625 63.53473 
L 418.811798 88.291039 
L 424.740954 98.804475 
L 430.714486 107.870578 
L 436.653152 112.753291 
L 442.597927 115.473505 
L 448.545468 117.886158 
L 454.493626 119.095537 
L 460.440238 119.906265 
L 466.385147 120.309357 
L 472.329823 120.575126 
L 478.274628 120.865929 
L 484.220651 121.003296 
" clip-path="url(#pf3a0c9ab80)" style="fill: none; stroke: #ff7f0e; stroke-linecap: round"/>
   </g>
   <g id="line2d_134">
    <path d="M 398.990399 -1 
L 400.850891 20.45648 
L 406.842092 68.055154 
L 412.839625 82.157225 
L 418.811798 98.258242 
L 424.740954 104.250436 
L 430.714486 110.594474 
L 436.653152 114.119333 
L 442.597927 116.277959 
L 448.545468 118.245505 
L 454.493626 119.276236 
L 460.440238 119.990247 
L 466.385147 120.352084 
L 472.329823 120.598134 
L 478.274628 120.876102 
L 484.220651 121.008104 
" clip-path="url(#pf3a0c9ab80)" style="fill: none; stroke: #2ca02c; stroke-linecap: round"/>
   </g>
   <g id="line2d_135">
    <path d="M 412.429704 -1 
L 412.839625 3.902468 
L 418.811798 44.476846 
L 424.740954 78.328876 
L 430.714486 93.401198 
L 436.653152 104.395239 
L 442.597927 110.541782 
L 448.545468 115.231061 
L 454.493626 117.3769 
L 460.440238 118.569474 
L 466.385147 119.273789 
L 472.329823 119.693962 
L 478.274628 120.236387 
L 484.220651 120.241932 
" clip-path="url(#pf3a0c9ab80)" style="fill: none; stroke: #d62728; stroke-linecap: round"/>
   </g>
   <g id="patch_16">
    <path d="M 371.287681 121.332274 
L 371.287681 10.048274 
" style="fill: none; stroke: #000000; stroke-linejoin: miter; stroke-linecap: square"/>
   </g>
   <g id="patch_17">
    <path d="M 371.287681 121.332274 
L 484.220651 121.332274 
" style="fill: none; stroke: #000000; stroke-linejoin: miter; stroke-linecap: square"/>
   </g>
   <g id="text_39">
    <!-- C -->
    <g transform="translate(341.925109 16.886868) scale(0.09 -0.09)">
     <defs>
      <path id="DejaVuSans-Bold-43" d="M 4288 256 
Q 3956 84 3597 -3 
Q 3238 -91 2847 -91 
Q 1681 -91 1000 561 
Q 319 1213 319 2328 
Q 319 3447 1000 4098 
Q 1681 4750 2847 4750 
Q 3238 4750 3597 4662 
Q 3956 4575 4288 4403 
L 4288 3438 
Q 3953 3666 3628 3772 
Q 3303 3878 2944 3878 
Q 2300 3878 1931 3465 
Q 1563 3053 1563 2328 
Q 1563 1606 1931 1193 
Q 2300 781 2944 781 
Q 3303 781 3628 887 
Q 3953 994 4288 1222 
L 4288 256 
z
" transform="scale(0.015625)"/>
     </defs>
     <use xlink:href="#DejaVuSans-Bold-43"/>
    </g>
   </g>
  </g>
 </g>
 <defs>
  <clipPath id="p29202c5997">
   <rect x="36.562572" y="10.048274" width="112.932969" height="111.284"/>
  </clipPath>
  <clipPath id="pd974201f8c">
   <rect x="203.925127" y="10.048274" width="112.932969" height="111.284"/>
  </clipPath>
  <clipPath id="pf3a0c9ab80">
   <rect x="371.287681" y="10.048274" width="112.932969" height="111.284"/>
  </clipPath>
 </defs>
</svg>
