<?xml version="1.0" encoding="utf-8" standalone="no"?>
<!DOCTYPE svg PUBLIC "-//W3C//DTD SVG 1.1//EN"
  "http://www.w3.org/Graphics/SVG/1.1/DTD/svg11.dtd">
<svg xmlns:xlink="http://www.w3.org/1999/xlink" width="252.95837pt" height="168.922003pt" viewBox="0 0 252.95837 168.922003" xmlns="http://www.w3.org/2000/svg" version="1.1">
 <metadata>
  <rdf:RDF xmlns:dc="http://purl.org/dc/elements/1.1/" xmlns:cc="http://creativecommons.org/ns#" xmlns:rdf="http://www.w3.org/1999/02/22-rdf-syntax-ns#">
   <cc:Work>
    <dc:type rdf:resource="http://purl.org/dc/dcmitype/StillImage"/>
    <dc:date>2024-06-04T13:11:45.912742</dc:date>
    <dc:format>image/svg+xml</dc:format>
    <dc:creator>
     <cc:Agent>
      <dc:title>Matplotlib v3.7.1, https://matplotlib.org/</dc:title>
     </cc:Agent>
    </dc:creator>
   </cc:Work>
  </rdf:RDF>
 </metadata>
 <defs>
  <style type="text/css">*{stroke-linejoin: round; stroke-linecap: butt}</style>
 </defs>
 <g id="figure_1">
  <g id="patch_1">
   <path d="M 0 168.922003 
L 252.95837 168.922003 
L 252.95837 0 
L 0 0 
L 0 168.922003 
z
" style="fill: none"/>
  </g>
  <g id="axes_1">
   <g id="patch_2">
    <path d="M 54.92237 140.256 
L 245.75837 140.256 
L 245.75837 7.2 
L 54.92237 7.2 
z
" style="fill: #ffffff"/>
   </g>
   <g id="LineCollection_1">
    <path d="M 59.69327 53.292086 
L 59.69327 13.248 
" clip-path="url(#p8527b9f47f)" style="fill: none; stroke: #ff7f0e; stroke-opacity: 0.6; stroke-width: 4"/>
    <path d="M 69.23507 100.111858 
L 69.23507 80.687723 
" clip-path="url(#p8527b9f47f)" style="fill: none; stroke: #ff7f0e; stroke-opacity: 0.6; stroke-width: 4"/>
    <path d="M 78.77687 93.566354 
L 78.77687 72.999078 
" clip-path="url(#p8527b9f47f)" style="fill: none; stroke: #ff7f0e; stroke-opacity: 0.6; stroke-width: 4"/>
    <path d="M 88.31867 111.319784 
L 88.31867 85.273571 
" clip-path="url(#p8527b9f47f)" style="fill: none; stroke: #ff7f0e; stroke-opacity: 0.6; stroke-width: 4"/>
    <path d="M 97.86047 127.078069 
L 97.86047 96.750848 
" clip-path="url(#p8527b9f47f)" style="fill: none; stroke: #ff7f0e; stroke-opacity: 0.6; stroke-width: 4"/>
    <path d="M 107.40227 104.83203 
L 107.40227 87.28969 
" clip-path="url(#p8527b9f47f)" style="fill: none; stroke: #ff7f0e; stroke-opacity: 0.6; stroke-width: 4"/>
    <path d="M 116.94407 122.078086 
L 116.94407 92.029858 
" clip-path="url(#p8527b9f47f)" style="fill: none; stroke: #ff7f0e; stroke-opacity: 0.6; stroke-width: 4"/>
    <path d="M 126.48587 118.749716 
L 126.48587 96.247991 
" clip-path="url(#p8527b9f47f)" style="fill: none; stroke: #ff7f0e; stroke-opacity: 0.6; stroke-width: 4"/>
    <path d="M 136.02767 122.189545 
L 136.02767 96.710648 
" clip-path="url(#p8527b9f47f)" style="fill: none; stroke: #ff7f0e; stroke-opacity: 0.6; stroke-width: 4"/>
    <path d="M 145.56947 112.007421 
L 145.56947 89.714451 
" clip-path="url(#p8527b9f47f)" style="fill: none; stroke: #ff7f0e; stroke-opacity: 0.6; stroke-width: 4"/>
    <path d="M 155.11127 95.710048 
L 155.11127 65.079714 
" clip-path="url(#p8527b9f47f)" style="fill: none; stroke: #ff7f0e; stroke-opacity: 0.6; stroke-width: 4"/>
    <path d="M 164.65307 94.202407 
L 164.65307 64.988253 
" clip-path="url(#p8527b9f47f)" style="fill: none; stroke: #ff7f0e; stroke-opacity: 0.6; stroke-width: 4"/>
    <path d="M 174.19487 86.832175 
L 174.19487 55.443973 
" clip-path="url(#p8527b9f47f)" style="fill: none; stroke: #ff7f0e; stroke-opacity: 0.6; stroke-width: 4"/>
    <path d="M 183.73667 80.876431 
L 183.73667 51.490276 
" clip-path="url(#p8527b9f47f)" style="fill: none; stroke: #ff7f0e; stroke-opacity: 0.6; stroke-width: 4"/>
    <path d="M 193.27847 96.393909 
L 193.27847 59.129789 
" clip-path="url(#p8527b9f47f)" style="fill: none; stroke: #ff7f0e; stroke-opacity: 0.6; stroke-width: 4"/>
    <path d="M 202.82027 79.615705 
L 202.82027 52.100607 
" clip-path="url(#p8527b9f47f)" style="fill: none; stroke: #ff7f0e; stroke-opacity: 0.6; stroke-width: 4"/>
    <path d="M 212.36207 134.208 
L 212.36207 49.258079 
" clip-path="url(#p8527b9f47f)" style="fill: none; stroke: #ff7f0e; stroke-opacity: 0.6; stroke-width: 4"/>
    <path d="M 221.90387 95.191774 
L 221.90387 64.831437 
" clip-path="url(#p8527b9f47f)" style="fill: none; stroke: #ff7f0e; stroke-opacity: 0.6; stroke-width: 4"/>
    <path d="M 231.44567 103.534963 
L 231.44567 68.629585 
" clip-path="url(#p8527b9f47f)" style="fill: none; stroke: #ff7f0e; stroke-opacity: 0.6; stroke-width: 4"/>
    <path d="M 240.98747 91.301468 
L 240.98747 69.68299 
" clip-path="url(#p8527b9f47f)" style="fill: none; stroke: #ff7f0e; stroke-opacity: 0.6; stroke-width: 4"/>
   </g>
   <g id="line2d_1">
    <defs>
     <path id="m9d46060562" d="M 0 1.25 
C 0.331504 1.25 0.649475 1.118292 0.883883 0.883883 
C 1.118292 0.649475 1.25 0.331504 1.25 0 
C 1.25 -0.331504 1.118292 -0.649475 0.883883 -0.883883 
C 0.649475 -1.118292 0.331504 -1.25 0 -1.25 
C -0.331504 -1.25 -0.649475 -1.118292 -0.883883 -0.883883 
C -1.118292 -0.649475 -1.25 -0.331504 -1.25 0 
C -1.25 0.331504 -1.118292 0.649475 -0.883883 0.883883 
C -0.649475 1.118292 -0.331504 1.25 0 1.25 
z
" style="stroke: #ff7f0e; stroke-opacity: 0.6; stroke-width: 0.8"/>
    </defs>
    <g clip-path="url(#p8527b9f47f)">
     <use xlink:href="#m9d46060562" x="59.69327" y="30.206694" style="fill: #ff7f0e; fill-opacity: 0.6; stroke: #ff7f0e; stroke-opacity: 0.6; stroke-width: 0.8"/>
     <use xlink:href="#m9d46060562" x="69.23507" y="89.670269" style="fill: #ff7f0e; fill-opacity: 0.6; stroke: #ff7f0e; stroke-opacity: 0.6; stroke-width: 0.8"/>
     <use xlink:href="#m9d46060562" x="78.77687" y="82.465172" style="fill: #ff7f0e; fill-opacity: 0.6; stroke: #ff7f0e; stroke-opacity: 0.6; stroke-width: 0.8"/>
     <use xlink:href="#m9d46060562" x="88.31867" y="96.988864" style="fill: #ff7f0e; fill-opacity: 0.6; stroke: #ff7f0e; stroke-opacity: 0.6; stroke-width: 0.8"/>
     <use xlink:href="#m9d46060562" x="97.86047" y="110.145624" style="fill: #ff7f0e; fill-opacity: 0.6; stroke: #ff7f0e; stroke-opacity: 0.6; stroke-width: 0.8"/>
     <use xlink:href="#m9d46060562" x="107.40227" y="95.465429" style="fill: #ff7f0e; fill-opacity: 0.6; stroke: #ff7f0e; stroke-opacity: 0.6; stroke-width: 0.8"/>
     <use xlink:href="#m9d46060562" x="116.94407" y="105.317244" style="fill: #ff7f0e; fill-opacity: 0.6; stroke: #ff7f0e; stroke-opacity: 0.6; stroke-width: 0.8"/>
     <use xlink:href="#m9d46060562" x="126.48587" y="106.521101" style="fill: #ff7f0e; fill-opacity: 0.6; stroke: #ff7f0e; stroke-opacity: 0.6; stroke-width: 0.8"/>
     <use xlink:href="#m9d46060562" x="136.02767" y="108.198272" style="fill: #ff7f0e; fill-opacity: 0.6; stroke: #ff7f0e; stroke-opacity: 0.6; stroke-width: 0.8"/>
     <use xlink:href="#m9d46060562" x="145.56947" y="99.901151" style="fill: #ff7f0e; fill-opacity: 0.6; stroke: #ff7f0e; stroke-opacity: 0.6; stroke-width: 0.8"/>
     <use xlink:href="#m9d46060562" x="155.11127" y="78.59084" style="fill: #ff7f0e; fill-opacity: 0.6; stroke: #ff7f0e; stroke-opacity: 0.6; stroke-width: 0.8"/>
     <use xlink:href="#m9d46060562" x="164.65307" y="77.95288" style="fill: #ff7f0e; fill-opacity: 0.6; stroke: #ff7f0e; stroke-opacity: 0.6; stroke-width: 0.8"/>
     <use xlink:href="#m9d46060562" x="174.19487" y="69.244531" style="fill: #ff7f0e; fill-opacity: 0.6; stroke: #ff7f0e; stroke-opacity: 0.6; stroke-width: 0.8"/>
     <use xlink:href="#m9d46060562" x="183.73667" y="64.521672" style="fill: #ff7f0e; fill-opacity: 0.6; stroke: #ff7f0e; stroke-opacity: 0.6; stroke-width: 0.8"/>
     <use xlink:href="#m9d46060562" x="193.27847" y="75.103518" style="fill: #ff7f0e; fill-opacity: 0.6; stroke: #ff7f0e; stroke-opacity: 0.6; stroke-width: 0.8"/>
     <use xlink:href="#m9d46060562" x="202.82027" y="64.399809" style="fill: #ff7f0e; fill-opacity: 0.6; stroke: #ff7f0e; stroke-opacity: 0.6; stroke-width: 0.8"/>
     <use xlink:href="#m9d46060562" x="212.36207" y="78.63804" style="fill: #ff7f0e; fill-opacity: 0.6; stroke: #ff7f0e; stroke-opacity: 0.6; stroke-width: 0.8"/>
     <use xlink:href="#m9d46060562" x="221.90387" y="78.238941" style="fill: #ff7f0e; fill-opacity: 0.6; stroke: #ff7f0e; stroke-opacity: 0.6; stroke-width: 0.8"/>
     <use xlink:href="#m9d46060562" x="231.44567" y="83.745946" style="fill: #ff7f0e; fill-opacity: 0.6; stroke: #ff7f0e; stroke-opacity: 0.6; stroke-width: 0.8"/>
     <use xlink:href="#m9d46060562" x="240.98747" y="79.589378" style="fill: #ff7f0e; fill-opacity: 0.6; stroke: #ff7f0e; stroke-opacity: 0.6; stroke-width: 0.8"/>
    </g>
   </g>
   <g id="matplotlib.axis_1">
    <g id="xtick_1">
     <g id="line2d_2">
      <defs>
       <path id="m2bf6f35632" d="M 0 2 
L 0 -2 
" style="stroke: #000000; stroke-width: 0.8"/>
      </defs>
      <g>
       <use xlink:href="#m2bf6f35632" x="59.69327" y="140.256" style="stroke: #000000; stroke-width: 0.8"/>
      </g>
     </g>
     <g id="text_1">
      <!-- 1 -->
      <g transform="translate(57.308287 149.952549) scale(0.07497 -0.07497)">
       <defs>
        <path id="DejaVuSans-31" d="M 794 531 
L 1825 531 
L 1825 4091 
L 703 3866 
L 703 4441 
L 1819 4666 
L 2450 4666 
L 2450 531 
L 3481 531 
L 3481 0 
L 794 0 
L 794 531 
z
" transform="scale(0.015625)"/>
       </defs>
       <use xlink:href="#DejaVuSans-31"/>
      </g>
     </g>
    </g>
    <g id="xtick_2">
     <g id="line2d_3">
      <g>
       <use xlink:href="#m2bf6f35632" x="78.77687" y="140.256" style="stroke: #000000; stroke-width: 0.8"/>
      </g>
     </g>
     <g id="text_2">
      <!-- 3 -->
      <g transform="translate(76.391887 149.952549) scale(0.07497 -0.07497)">
       <defs>
        <path id="DejaVuSans-33" d="M 2597 2516 
Q 3050 2419 3304 2112 
Q 3559 1806 3559 1356 
Q 3559 666 3084 287 
Q 2609 -91 1734 -91 
Q 1441 -91 1130 -33 
Q 819 25 488 141 
L 488 750 
Q 750 597 1062 519 
Q 1375 441 1716 441 
Q 2309 441 2620 675 
Q 2931 909 2931 1356 
Q 2931 1769 2642 2001 
Q 2353 2234 1838 2234 
L 1294 2234 
L 1294 2753 
L 1863 2753 
Q 2328 2753 2575 2939 
Q 2822 3125 2822 3475 
Q 2822 3834 2567 4026 
Q 2313 4219 1838 4219 
Q 1578 4219 1281 4162 
Q 984 4106 628 3988 
L 628 4550 
Q 988 4650 1302 4700 
Q 1616 4750 1894 4750 
Q 2613 4750 3031 4423 
Q 3450 4097 3450 3541 
Q 3450 3153 3228 2886 
Q 3006 2619 2597 2516 
z
" transform="scale(0.015625)"/>
       </defs>
       <use xlink:href="#DejaVuSans-33"/>
      </g>
     </g>
    </g>
    <g id="xtick_3">
     <g id="line2d_4">
      <g>
       <use xlink:href="#m2bf6f35632" x="97.86047" y="140.256" style="stroke: #000000; stroke-width: 0.8"/>
      </g>
     </g>
     <g id="text_3">
      <!-- 5 -->
      <g transform="translate(95.475487 149.952549) scale(0.07497 -0.07497)">
       <defs>
        <path id="DejaVuSans-35" d="M 691 4666 
L 3169 4666 
L 3169 4134 
L 1269 4134 
L 1269 2991 
Q 1406 3038 1543 3061 
Q 1681 3084 1819 3084 
Q 2600 3084 3056 2656 
Q 3513 2228 3513 1497 
Q 3513 744 3044 326 
Q 2575 -91 1722 -91 
Q 1428 -91 1123 -41 
Q 819 9 494 109 
L 494 744 
Q 775 591 1075 516 
Q 1375 441 1709 441 
Q 2250 441 2565 725 
Q 2881 1009 2881 1497 
Q 2881 1984 2565 2268 
Q 2250 2553 1709 2553 
Q 1456 2553 1204 2497 
Q 953 2441 691 2322 
L 691 4666 
z
" transform="scale(0.015625)"/>
       </defs>
       <use xlink:href="#DejaVuSans-35"/>
      </g>
     </g>
    </g>
    <g id="xtick_4">
     <g id="line2d_5">
      <g>
       <use xlink:href="#m2bf6f35632" x="116.94407" y="140.256" style="stroke: #000000; stroke-width: 0.8"/>
      </g>
     </g>
     <g id="text_4">
      <!-- 7 -->
      <g transform="translate(114.559087 149.952549) scale(0.07497 -0.07497)">
       <defs>
        <path id="DejaVuSans-37" d="M 525 4666 
L 3525 4666 
L 3525 4397 
L 1831 0 
L 1172 0 
L 2766 4134 
L 525 4134 
L 525 4666 
z
" transform="scale(0.015625)"/>
       </defs>
       <use xlink:href="#DejaVuSans-37"/>
      </g>
     </g>
    </g>
    <g id="xtick_5">
     <g id="line2d_6">
      <g>
       <use xlink:href="#m2bf6f35632" x="136.02767" y="140.256" style="stroke: #000000; stroke-width: 0.8"/>
      </g>
     </g>
     <g id="text_5">
      <!-- 9 -->
      <g transform="translate(133.642687 149.952549) scale(0.07497 -0.07497)">
       <defs>
        <path id="DejaVuSans-39" d="M 703 97 
L 703 672 
Q 941 559 1184 500 
Q 1428 441 1663 441 
Q 2288 441 2617 861 
Q 2947 1281 2994 2138 
Q 2813 1869 2534 1725 
Q 2256 1581 1919 1581 
Q 1219 1581 811 2004 
Q 403 2428 403 3163 
Q 403 3881 828 4315 
Q 1253 4750 1959 4750 
Q 2769 4750 3195 4129 
Q 3622 3509 3622 2328 
Q 3622 1225 3098 567 
Q 2575 -91 1691 -91 
Q 1453 -91 1209 -44 
Q 966 3 703 97 
z
M 1959 2075 
Q 2384 2075 2632 2365 
Q 2881 2656 2881 3163 
Q 2881 3666 2632 3958 
Q 2384 4250 1959 4250 
Q 1534 4250 1286 3958 
Q 1038 3666 1038 3163 
Q 1038 2656 1286 2365 
Q 1534 2075 1959 2075 
z
" transform="scale(0.015625)"/>
       </defs>
       <use xlink:href="#DejaVuSans-39"/>
      </g>
     </g>
    </g>
    <g id="xtick_6">
     <g id="line2d_7">
      <g>
       <use xlink:href="#m2bf6f35632" x="155.11127" y="140.256" style="stroke: #000000; stroke-width: 0.8"/>
      </g>
     </g>
     <g id="text_6">
      <!-- 11 -->
      <g transform="translate(150.341304 149.952549) scale(0.07497 -0.07497)">
       <use xlink:href="#DejaVuSans-31"/>
       <use xlink:href="#DejaVuSans-31" x="63.623047"/>
      </g>
     </g>
    </g>
    <g id="xtick_7">
     <g id="line2d_8">
      <g>
       <use xlink:href="#m2bf6f35632" x="174.19487" y="140.256" style="stroke: #000000; stroke-width: 0.8"/>
      </g>
     </g>
     <g id="text_7">
      <!-- 13 -->
      <g transform="translate(169.424904 149.952549) scale(0.07497 -0.07497)">
       <use xlink:href="#DejaVuSans-31"/>
       <use xlink:href="#DejaVuSans-33" x="63.623047"/>
      </g>
     </g>
    </g>
    <g id="xtick_8">
     <g id="line2d_9">
      <g>
       <use xlink:href="#m2bf6f35632" x="193.27847" y="140.256" style="stroke: #000000; stroke-width: 0.8"/>
      </g>
     </g>
     <g id="text_8">
      <!-- 15 -->
      <g transform="translate(188.508504 149.952549) scale(0.07497 -0.07497)">
       <use xlink:href="#DejaVuSans-31"/>
       <use xlink:href="#DejaVuSans-35" x="63.623047"/>
      </g>
     </g>
    </g>
    <g id="xtick_9">
     <g id="line2d_10">
      <g>
       <use xlink:href="#m2bf6f35632" x="212.36207" y="140.256" style="stroke: #000000; stroke-width: 0.8"/>
      </g>
     </g>
     <g id="text_9">
      <!-- 17 -->
      <g transform="translate(207.592104 149.952549) scale(0.07497 -0.07497)">
       <use xlink:href="#DejaVuSans-31"/>
       <use xlink:href="#DejaVuSans-37" x="63.623047"/>
      </g>
     </g>
    </g>
    <g id="xtick_10">
     <g id="line2d_11">
      <g>
       <use xlink:href="#m2bf6f35632" x="231.44567" y="140.256" style="stroke: #000000; stroke-width: 0.8"/>
      </g>
     </g>
     <g id="text_10">
      <!-- 19 -->
      <g transform="translate(226.675704 149.952549) scale(0.07497 -0.07497)">
       <use xlink:href="#DejaVuSans-31"/>
       <use xlink:href="#DejaVuSans-39" x="63.623047"/>
      </g>
     </g>
    </g>
    <g id="text_11">
     <!-- Site -->
     <g transform="translate(141.70037 159.850284) scale(0.09 -0.09)">
      <defs>
       <path id="DejaVuSans-53" d="M 3425 4513 
L 3425 3897 
Q 3066 4069 2747 4153 
Q 2428 4238 2131 4238 
Q 1616 4238 1336 4038 
Q 1056 3838 1056 3469 
Q 1056 3159 1242 3001 
Q 1428 2844 1947 2747 
L 2328 2669 
Q 3034 2534 3370 2195 
Q 3706 1856 3706 1288 
Q 3706 609 3251 259 
Q 2797 -91 1919 -91 
Q 1588 -91 1214 -16 
Q 841 59 441 206 
L 441 856 
Q 825 641 1194 531 
Q 1563 422 1919 422 
Q 2459 422 2753 634 
Q 3047 847 3047 1241 
Q 3047 1584 2836 1778 
Q 2625 1972 2144 2069 
L 1759 2144 
Q 1053 2284 737 2584 
Q 422 2884 422 3419 
Q 422 4038 858 4394 
Q 1294 4750 2059 4750 
Q 2388 4750 2728 4690 
Q 3069 4631 3425 4513 
z
" transform="scale(0.015625)"/>
       <path id="DejaVuSans-69" d="M 603 3500 
L 1178 3500 
L 1178 0 
L 603 0 
L 603 3500 
z
M 603 4863 
L 1178 4863 
L 1178 4134 
L 603 4134 
L 603 4863 
z
" transform="scale(0.015625)"/>
       <path id="DejaVuSans-74" d="M 1172 4494 
L 1172 3500 
L 2356 3500 
L 2356 3053 
L 1172 3053 
L 1172 1153 
Q 1172 725 1289 603 
Q 1406 481 1766 481 
L 2356 481 
L 2356 0 
L 1766 0 
Q 1100 0 847 248 
Q 594 497 594 1153 
L 594 3053 
L 172 3053 
L 172 3500 
L 594 3500 
L 594 4494 
L 1172 4494 
z
" transform="scale(0.015625)"/>
       <path id="DejaVuSans-65" d="M 3597 1894 
L 3597 1613 
L 953 1613 
Q 991 1019 1311 708 
Q 1631 397 2203 397 
Q 2534 397 2845 478 
Q 3156 559 3463 722 
L 3463 178 
Q 3153 47 2828 -22 
Q 2503 -91 2169 -91 
Q 1331 -91 842 396 
Q 353 884 353 1716 
Q 353 2575 817 3079 
Q 1281 3584 2069 3584 
Q 2775 3584 3186 3129 
Q 3597 2675 3597 1894 
z
M 3022 2063 
Q 3016 2534 2758 2815 
Q 2500 3097 2075 3097 
Q 1594 3097 1305 2825 
Q 1016 2553 972 2059 
L 3022 2063 
z
" transform="scale(0.015625)"/>
      </defs>
      <use xlink:href="#DejaVuSans-53"/>
      <use xlink:href="#DejaVuSans-69" x="63.476562"/>
      <use xlink:href="#DejaVuSans-74" x="91.259766"/>
      <use xlink:href="#DejaVuSans-65" x="130.46875"/>
     </g>
    </g>
   </g>
   <g id="matplotlib.axis_2">
    <g id="ytick_1">
     <g id="line2d_12">
      <defs>
       <path id="m6ff5f7cb1b" d="M 2 0 
L -2 -0 
" style="stroke: #000000; stroke-width: 0.8"/>
      </defs>
      <g>
       <use xlink:href="#m6ff5f7cb1b" x="54.92237" y="81.634135" style="stroke: #000000; stroke-width: 0.8"/>
      </g>
     </g>
     <g id="text_12">
      <!-- $\mathdefault{10^{-1}}$ -->
      <g transform="translate(33.30442 84.48241) scale(0.07497 -0.07497)">
       <defs>
        <path id="DejaVuSans-30" d="M 2034 4250 
Q 1547 4250 1301 3770 
Q 1056 3291 1056 2328 
Q 1056 1369 1301 889 
Q 1547 409 2034 409 
Q 2525 409 2770 889 
Q 3016 1369 3016 2328 
Q 3016 3291 2770 3770 
Q 2525 4250 2034 4250 
z
M 2034 4750 
Q 2819 4750 3233 4129 
Q 3647 3509 3647 2328 
Q 3647 1150 3233 529 
Q 2819 -91 2034 -91 
Q 1250 -91 836 529 
Q 422 1150 422 2328 
Q 422 3509 836 4129 
Q 1250 4750 2034 4750 
z
" transform="scale(0.015625)"/>
        <path id="DejaVuSans-2212" d="M 678 2272 
L 4684 2272 
L 4684 1741 
L 678 1741 
L 678 2272 
z
" transform="scale(0.015625)"/>
       </defs>
       <use xlink:href="#DejaVuSans-31" transform="translate(0 0.684375)"/>
       <use xlink:href="#DejaVuSans-30" transform="translate(63.623047 0.684375)"/>
       <use xlink:href="#DejaVuSans-2212" transform="translate(128.203125 38.965625) scale(0.7)"/>
       <use xlink:href="#DejaVuSans-31" transform="translate(186.855469 38.965625) scale(0.7)"/>
      </g>
     </g>
    </g>
    <g id="ytick_2">
     <g id="line2d_13">
      <defs>
       <path id="m829f9247f5" d="M 1 0 
L -1 -0 
" style="stroke: #000000; stroke-width: 0.4"/>
      </defs>
      <g>
       <use xlink:href="#m829f9247f5" x="54.92237" y="126.275892" style="stroke: #000000; stroke-width: 0.4"/>
      </g>
     </g>
    </g>
    <g id="ytick_3">
     <g id="line2d_14">
      <g>
       <use xlink:href="#m829f9247f5" x="54.92237" y="114.533574" style="stroke: #000000; stroke-width: 0.4"/>
      </g>
     </g>
     <g id="text_13">
      <!-- $\mathdefault{6\times10^{-2}}$ -->
      <g transform="translate(18.96 117.381848) scale(0.07497 -0.07497)">
       <defs>
        <path id="DejaVuSans-36" d="M 2113 2584 
Q 1688 2584 1439 2293 
Q 1191 2003 1191 1497 
Q 1191 994 1439 701 
Q 1688 409 2113 409 
Q 2538 409 2786 701 
Q 3034 994 3034 1497 
Q 3034 2003 2786 2293 
Q 2538 2584 2113 2584 
z
M 3366 4563 
L 3366 3988 
Q 3128 4100 2886 4159 
Q 2644 4219 2406 4219 
Q 1781 4219 1451 3797 
Q 1122 3375 1075 2522 
Q 1259 2794 1537 2939 
Q 1816 3084 2150 3084 
Q 2853 3084 3261 2657 
Q 3669 2231 3669 1497 
Q 3669 778 3244 343 
Q 2819 -91 2113 -91 
Q 1303 -91 875 529 
Q 447 1150 447 2328 
Q 447 3434 972 4092 
Q 1497 4750 2381 4750 
Q 2619 4750 2861 4703 
Q 3103 4656 3366 4563 
z
" transform="scale(0.015625)"/>
        <path id="DejaVuSans-d7" d="M 4488 3438 
L 3059 2003 
L 4488 575 
L 4116 197 
L 2681 1631 
L 1247 197 
L 878 575 
L 2303 2003 
L 878 3438 
L 1247 3816 
L 2681 2381 
L 4116 3816 
L 4488 3438 
z
" transform="scale(0.015625)"/>
        <path id="DejaVuSans-32" d="M 1228 531 
L 3431 531 
L 3431 0 
L 469 0 
L 469 531 
Q 828 903 1448 1529 
Q 2069 2156 2228 2338 
Q 2531 2678 2651 2914 
Q 2772 3150 2772 3378 
Q 2772 3750 2511 3984 
Q 2250 4219 1831 4219 
Q 1534 4219 1204 4116 
Q 875 4013 500 3803 
L 500 4441 
Q 881 4594 1212 4672 
Q 1544 4750 1819 4750 
Q 2544 4750 2975 4387 
Q 3406 4025 3406 3419 
Q 3406 3131 3298 2873 
Q 3191 2616 2906 2266 
Q 2828 2175 2409 1742 
Q 1991 1309 1228 531 
z
" transform="scale(0.015625)"/>
       </defs>
       <use xlink:href="#DejaVuSans-36" transform="translate(0 0.765625)"/>
       <use xlink:href="#DejaVuSans-d7" transform="translate(83.105469 0.765625)"/>
       <use xlink:href="#DejaVuSans-31" transform="translate(186.376953 0.765625)"/>
       <use xlink:href="#DejaVuSans-30" transform="translate(250 0.765625)"/>
       <use xlink:href="#DejaVuSans-2212" transform="translate(314.580078 39.046875) scale(0.7)"/>
       <use xlink:href="#DejaVuSans-32" transform="translate(373.232422 39.046875) scale(0.7)"/>
      </g>
     </g>
    </g>
    <g id="ytick_4">
     <g id="line2d_15">
      <g>
       <use xlink:href="#m829f9247f5" x="54.92237" y="104.605586" style="stroke: #000000; stroke-width: 0.4"/>
      </g>
     </g>
    </g>
    <g id="ytick_5">
     <g id="line2d_16">
      <g>
       <use xlink:href="#m829f9247f5" x="54.92237" y="96.005571" style="stroke: #000000; stroke-width: 0.4"/>
      </g>
     </g>
    </g>
    <g id="ytick_6">
     <g id="line2d_17">
      <g>
       <use xlink:href="#m829f9247f5" x="54.92237" y="88.419821" style="stroke: #000000; stroke-width: 0.4"/>
      </g>
     </g>
    </g>
    <g id="ytick_7">
     <g id="line2d_18">
      <g>
       <use xlink:href="#m829f9247f5" x="54.92237" y="36.992379" style="stroke: #000000; stroke-width: 0.4"/>
      </g>
     </g>
     <g id="text_14">
      <!-- $\mathdefault{2\times10^{-1}}$ -->
      <g transform="translate(18.96 39.840653) scale(0.07497 -0.07497)">
       <use xlink:href="#DejaVuSans-32" transform="translate(0 0.684375)"/>
       <use xlink:href="#DejaVuSans-d7" transform="translate(83.105469 0.684375)"/>
       <use xlink:href="#DejaVuSans-31" transform="translate(186.376953 0.684375)"/>
       <use xlink:href="#DejaVuSans-30" transform="translate(250 0.684375)"/>
       <use xlink:href="#DejaVuSans-2212" transform="translate(314.580078 38.965625) scale(0.7)"/>
       <use xlink:href="#DejaVuSans-31" transform="translate(373.232422 38.965625) scale(0.7)"/>
      </g>
     </g>
    </g>
    <g id="ytick_8">
     <g id="line2d_19">
      <g>
       <use xlink:href="#m829f9247f5" x="54.92237" y="10.878625" style="stroke: #000000; stroke-width: 0.4"/>
      </g>
     </g>
     <g id="text_15">
      <!-- $\mathdefault{3\times10^{-1}}$ -->
      <g transform="translate(18.96 13.7269) scale(0.07497 -0.07497)">
       <use xlink:href="#DejaVuSans-33" transform="translate(0 0.684375)"/>
       <use xlink:href="#DejaVuSans-d7" transform="translate(83.105469 0.684375)"/>
       <use xlink:href="#DejaVuSans-31" transform="translate(186.376953 0.684375)"/>
       <use xlink:href="#DejaVuSans-30" transform="translate(250 0.684375)"/>
       <use xlink:href="#DejaVuSans-2212" transform="translate(314.580078 38.965625) scale(0.7)"/>
       <use xlink:href="#DejaVuSans-31" transform="translate(373.232422 38.965625) scale(0.7)"/>
      </g>
     </g>
    </g>
    <g id="text_16">
     <!-- Simpson index $\hat p_C$ -->
     <g transform="translate(15.57 113.508) rotate(-90) scale(0.09 -0.09)">
      <defs>
       <path id="DejaVuSans-6d" d="M 3328 2828 
Q 3544 3216 3844 3400 
Q 4144 3584 4550 3584 
Q 5097 3584 5394 3201 
Q 5691 2819 5691 2113 
L 5691 0 
L 5113 0 
L 5113 2094 
Q 5113 2597 4934 2840 
Q 4756 3084 4391 3084 
Q 3944 3084 3684 2787 
Q 3425 2491 3425 1978 
L 3425 0 
L 2847 0 
L 2847 2094 
Q 2847 2600 2669 2842 
Q 2491 3084 2119 3084 
Q 1678 3084 1418 2786 
Q 1159 2488 1159 1978 
L 1159 0 
L 581 0 
L 581 3500 
L 1159 3500 
L 1159 2956 
Q 1356 3278 1631 3431 
Q 1906 3584 2284 3584 
Q 2666 3584 2933 3390 
Q 3200 3197 3328 2828 
z
" transform="scale(0.015625)"/>
       <path id="DejaVuSans-70" d="M 1159 525 
L 1159 -1331 
L 581 -1331 
L 581 3500 
L 1159 3500 
L 1159 2969 
Q 1341 3281 1617 3432 
Q 1894 3584 2278 3584 
Q 2916 3584 3314 3078 
Q 3713 2572 3713 1747 
Q 3713 922 3314 415 
Q 2916 -91 2278 -91 
Q 1894 -91 1617 61 
Q 1341 213 1159 525 
z
M 3116 1747 
Q 3116 2381 2855 2742 
Q 2594 3103 2138 3103 
Q 1681 3103 1420 2742 
Q 1159 2381 1159 1747 
Q 1159 1113 1420 752 
Q 1681 391 2138 391 
Q 2594 391 2855 752 
Q 3116 1113 3116 1747 
z
" transform="scale(0.015625)"/>
       <path id="DejaVuSans-73" d="M 2834 3397 
L 2834 2853 
Q 2591 2978 2328 3040 
Q 2066 3103 1784 3103 
Q 1356 3103 1142 2972 
Q 928 2841 928 2578 
Q 928 2378 1081 2264 
Q 1234 2150 1697 2047 
L 1894 2003 
Q 2506 1872 2764 1633 
Q 3022 1394 3022 966 
Q 3022 478 2636 193 
Q 2250 -91 1575 -91 
Q 1294 -91 989 -36 
Q 684 19 347 128 
L 347 722 
Q 666 556 975 473 
Q 1284 391 1588 391 
Q 1994 391 2212 530 
Q 2431 669 2431 922 
Q 2431 1156 2273 1281 
Q 2116 1406 1581 1522 
L 1381 1569 
Q 847 1681 609 1914 
Q 372 2147 372 2553 
Q 372 3047 722 3315 
Q 1072 3584 1716 3584 
Q 2034 3584 2315 3537 
Q 2597 3491 2834 3397 
z
" transform="scale(0.015625)"/>
       <path id="DejaVuSans-6f" d="M 1959 3097 
Q 1497 3097 1228 2736 
Q 959 2375 959 1747 
Q 959 1119 1226 758 
Q 1494 397 1959 397 
Q 2419 397 2687 759 
Q 2956 1122 2956 1747 
Q 2956 2369 2687 2733 
Q 2419 3097 1959 3097 
z
M 1959 3584 
Q 2709 3584 3137 3096 
Q 3566 2609 3566 1747 
Q 3566 888 3137 398 
Q 2709 -91 1959 -91 
Q 1206 -91 779 398 
Q 353 888 353 1747 
Q 353 2609 779 3096 
Q 1206 3584 1959 3584 
z
" transform="scale(0.015625)"/>
       <path id="DejaVuSans-6e" d="M 3513 2113 
L 3513 0 
L 2938 0 
L 2938 2094 
Q 2938 2591 2744 2837 
Q 2550 3084 2163 3084 
Q 1697 3084 1428 2787 
Q 1159 2491 1159 1978 
L 1159 0 
L 581 0 
L 581 3500 
L 1159 3500 
L 1159 2956 
Q 1366 3272 1645 3428 
Q 1925 3584 2291 3584 
Q 2894 3584 3203 3211 
Q 3513 2838 3513 2113 
z
" transform="scale(0.015625)"/>
       <path id="DejaVuSans-20" transform="scale(0.015625)"/>
       <path id="DejaVuSans-64" d="M 2906 2969 
L 2906 4863 
L 3481 4863 
L 3481 0 
L 2906 0 
L 2906 525 
Q 2725 213 2448 61 
Q 2172 -91 1784 -91 
Q 1150 -91 751 415 
Q 353 922 353 1747 
Q 353 2572 751 3078 
Q 1150 3584 1784 3584 
Q 2172 3584 2448 3432 
Q 2725 3281 2906 2969 
z
M 947 1747 
Q 947 1113 1208 752 
Q 1469 391 1925 391 
Q 2381 391 2643 752 
Q 2906 1113 2906 1747 
Q 2906 2381 2643 2742 
Q 2381 3103 1925 3103 
Q 1469 3103 1208 2742 
Q 947 2381 947 1747 
z
" transform="scale(0.015625)"/>
       <path id="DejaVuSans-78" d="M 3513 3500 
L 2247 1797 
L 3578 0 
L 2900 0 
L 1881 1375 
L 863 0 
L 184 0 
L 1544 1831 
L 300 3500 
L 978 3500 
L 1906 2253 
L 2834 3500 
L 3513 3500 
z
" transform="scale(0.015625)"/>
       <path id="DejaVuSans-302" d="M -1831 5119 
L -1369 5119 
L -603 3944 
L -1038 3944 
L -1600 4709 
L -2163 3944 
L -2597 3944 
L -1831 5119 
z
M -1600 3584 
L -1600 3584 
z
" transform="scale(0.015625)"/>
       <path id="DejaVuSans-Oblique-70" d="M 3175 2156 
Q 3175 2616 2975 2859 
Q 2775 3103 2400 3103 
Q 2144 3103 1911 2972 
Q 1678 2841 1497 2591 
Q 1319 2344 1212 1994 
Q 1106 1644 1106 1300 
Q 1106 863 1306 627 
Q 1506 391 1875 391 
Q 2147 391 2380 519 
Q 2613 647 2778 891 
Q 2956 1147 3065 1494 
Q 3175 1841 3175 2156 
z
M 1394 2969 
Q 1625 3272 1939 3428 
Q 2253 3584 2638 3584 
Q 3175 3584 3472 3232 
Q 3769 2881 3769 2247 
Q 3769 1728 3584 1258 
Q 3400 788 3053 416 
Q 2822 169 2531 39 
Q 2241 -91 1919 -91 
Q 1547 -91 1294 64 
Q 1041 219 916 525 
L 556 -1331 
L -19 -1331 
L 922 3500 
L 1497 3500 
L 1394 2969 
z
" transform="scale(0.015625)"/>
       <path id="DejaVuSans-Oblique-43" d="M 4447 4306 
L 4319 3641 
Q 4019 3944 3683 4091 
Q 3347 4238 2956 4238 
Q 2422 4238 2017 3981 
Q 1613 3725 1319 3200 
Q 1131 2863 1032 2486 
Q 934 2109 934 1728 
Q 934 1091 1264 756 
Q 1594 422 2222 422 
Q 2656 422 3056 561 
Q 3456 700 3834 978 
L 3688 231 
Q 3316 72 2936 -9 
Q 2556 -91 2175 -91 
Q 1278 -91 773 396 
Q 269 884 269 1753 
Q 269 2309 461 2846 
Q 653 3384 1013 3828 
Q 1394 4300 1883 4525 
Q 2372 4750 3022 4750 
Q 3422 4750 3780 4639 
Q 4138 4528 4447 4306 
z
" transform="scale(0.015625)"/>
      </defs>
      <use xlink:href="#DejaVuSans-53" transform="translate(0 0.515625)"/>
      <use xlink:href="#DejaVuSans-69" transform="translate(63.476562 0.515625)"/>
      <use xlink:href="#DejaVuSans-6d" transform="translate(91.259766 0.515625)"/>
      <use xlink:href="#DejaVuSans-70" transform="translate(188.671875 0.515625)"/>
      <use xlink:href="#DejaVuSans-73" transform="translate(252.148438 0.515625)"/>
      <use xlink:href="#DejaVuSans-6f" transform="translate(304.248047 0.515625)"/>
      <use xlink:href="#DejaVuSans-6e" transform="translate(365.429688 0.515625)"/>
      <use xlink:href="#DejaVuSans-20" transform="translate(428.808594 0.515625)"/>
      <use xlink:href="#DejaVuSans-69" transform="translate(460.595703 0.515625)"/>
      <use xlink:href="#DejaVuSans-6e" transform="translate(488.378906 0.515625)"/>
      <use xlink:href="#DejaVuSans-64" transform="translate(551.757812 0.515625)"/>
      <use xlink:href="#DejaVuSans-65" transform="translate(615.234375 0.515625)"/>
      <use xlink:href="#DejaVuSans-78" transform="translate(676.757812 0.515625)"/>
      <use xlink:href="#DejaVuSans-20" transform="translate(735.9375 0.515625)"/>
      <use xlink:href="#DejaVuSans-302" transform="translate(830.095703 13.015625)"/>
      <use xlink:href="#DejaVuSans-Oblique-70" transform="translate(767.724609 0.515625)"/>
      <use xlink:href="#DejaVuSans-Oblique-43" transform="translate(832.158203 -15.890625) scale(0.7)"/>
     </g>
    </g>
   </g>
   <g id="LineCollection_2">
    <path d="M 59.69327 45.955755 
L 59.69327 17.562062 
" clip-path="url(#p8527b9f47f)" style="fill: none; stroke: #1f77b4; stroke-width: 1.3"/>
    <path d="M 69.23507 97.517151 
L 69.23507 82.676438 
" clip-path="url(#p8527b9f47f)" style="fill: none; stroke: #1f77b4; stroke-width: 1.3"/>
    <path d="M 78.77687 90.257712 
L 78.77687 75.514532 
" clip-path="url(#p8527b9f47f)" style="fill: none; stroke: #1f77b4; stroke-width: 1.3"/>
    <path d="M 88.31867 106.921283 
L 88.31867 88.385527 
" clip-path="url(#p8527b9f47f)" style="fill: none; stroke: #1f77b4; stroke-width: 1.3"/>
    <path d="M 97.86047 119.211505 
L 97.86047 102.199848 
" clip-path="url(#p8527b9f47f)" style="fill: none; stroke: #1f77b4; stroke-width: 1.3"/>
    <path d="M 107.40227 102.597573 
L 107.40227 89.044944 
" clip-path="url(#p8527b9f47f)" style="fill: none; stroke: #1f77b4; stroke-width: 1.3"/>
    <path d="M 116.94407 114.738217 
L 116.94407 97.100128 
" clip-path="url(#p8527b9f47f)" style="fill: none; stroke: #1f77b4; stroke-width: 1.3"/>
    <path d="M 126.48587 116.037403 
L 126.48587 98.231587 
" clip-path="url(#p8527b9f47f)" style="fill: none; stroke: #1f77b4; stroke-width: 1.3"/>
    <path d="M 136.02767 117.349232 
L 136.02767 100.187242 
" clip-path="url(#p8527b9f47f)" style="fill: none; stroke: #1f77b4; stroke-width: 1.3"/>
    <path d="M 145.56947 108.227042 
L 145.56947 92.529418 
" clip-path="url(#p8527b9f47f)" style="fill: none; stroke: #1f77b4; stroke-width: 1.3"/>
    <path d="M 155.11127 88.635259 
L 155.11127 69.90364 
" clip-path="url(#p8527b9f47f)" style="fill: none; stroke: #1f77b4; stroke-width: 1.3"/>
    <path d="M 164.65307 88.33523 
L 164.65307 69.014185 
" clip-path="url(#p8527b9f47f)" style="fill: none; stroke: #1f77b4; stroke-width: 1.3"/>
    <path d="M 174.19487 86.79657 
L 174.19487 55.465853 
" clip-path="url(#p8527b9f47f)" style="fill: none; stroke: #1f77b4; stroke-width: 1.3"/>
    <path d="M 183.73667 76.26399 
L 183.73667 54.593683 
" clip-path="url(#p8527b9f47f)" style="fill: none; stroke: #1f77b4; stroke-width: 1.3"/>
    <path d="M 193.27847 88.594015 
L 193.27847 63.955259 
" clip-path="url(#p8527b9f47f)" style="fill: none; stroke: #1f77b4; stroke-width: 1.3"/>
    <path d="M 202.82027 75.605335 
L 202.82027 54.858001 
" clip-path="url(#p8527b9f47f)" style="fill: none; stroke: #1f77b4; stroke-width: 1.3"/>
    <path d="M 212.36207 101.748694 
L 212.36207 61.665785 
" clip-path="url(#p8527b9f47f)" style="fill: none; stroke: #1f77b4; stroke-width: 1.3"/>
    <path d="M 221.90387 90.67644 
L 221.90387 67.818948 
" clip-path="url(#p8527b9f47f)" style="fill: none; stroke: #1f77b4; stroke-width: 1.3"/>
    <path d="M 231.44567 94.14255 
L 231.44567 74.796693 
" clip-path="url(#p8527b9f47f)" style="fill: none; stroke: #1f77b4; stroke-width: 1.3"/>
    <path d="M 240.98747 89.6287 
L 240.98747 70.90599 
" clip-path="url(#p8527b9f47f)" style="fill: none; stroke: #1f77b4; stroke-width: 1.3"/>
   </g>
   <g id="line2d_20">
    <defs>
     <path id="m1a40ce151d" d="M 0 1.25 
C 0.331504 1.25 0.649475 1.118292 0.883883 0.883883 
C 1.118292 0.649475 1.25 0.331504 1.25 0 
C 1.25 -0.331504 1.118292 -0.649475 0.883883 -0.883883 
C 0.649475 -1.118292 0.331504 -1.25 0 -1.25 
C -0.331504 -1.25 -0.649475 -1.118292 -0.883883 -0.883883 
C -1.118292 -0.649475 -1.25 -0.331504 -1.25 0 
C -1.25 0.331504 -1.118292 0.649475 -0.883883 0.883883 
C -0.649475 1.118292 -0.331504 1.25 0 1.25 
z
" style="stroke: #1f77b4; stroke-width: 0.8"/>
    </defs>
    <g clip-path="url(#p8527b9f47f)">
     <use xlink:href="#m1a40ce151d" x="59.69327" y="30.206694" style="fill: #1f77b4; stroke: #1f77b4; stroke-width: 0.8"/>
     <use xlink:href="#m1a40ce151d" x="69.23507" y="89.670269" style="fill: #1f77b4; stroke: #1f77b4; stroke-width: 0.8"/>
     <use xlink:href="#m1a40ce151d" x="78.77687" y="82.465172" style="fill: #1f77b4; stroke: #1f77b4; stroke-width: 0.8"/>
     <use xlink:href="#m1a40ce151d" x="88.31867" y="96.988864" style="fill: #1f77b4; stroke: #1f77b4; stroke-width: 0.8"/>
     <use xlink:href="#m1a40ce151d" x="97.86047" y="110.145624" style="fill: #1f77b4; stroke: #1f77b4; stroke-width: 0.8"/>
     <use xlink:href="#m1a40ce151d" x="107.40227" y="95.465429" style="fill: #1f77b4; stroke: #1f77b4; stroke-width: 0.8"/>
     <use xlink:href="#m1a40ce151d" x="116.94407" y="105.317244" style="fill: #1f77b4; stroke: #1f77b4; stroke-width: 0.8"/>
     <use xlink:href="#m1a40ce151d" x="126.48587" y="106.521101" style="fill: #1f77b4; stroke: #1f77b4; stroke-width: 0.8"/>
     <use xlink:href="#m1a40ce151d" x="136.02767" y="108.198272" style="fill: #1f77b4; stroke: #1f77b4; stroke-width: 0.8"/>
     <use xlink:href="#m1a40ce151d" x="145.56947" y="99.901151" style="fill: #1f77b4; stroke: #1f77b4; stroke-width: 0.8"/>
     <use xlink:href="#m1a40ce151d" x="155.11127" y="78.59084" style="fill: #1f77b4; stroke: #1f77b4; stroke-width: 0.8"/>
     <use xlink:href="#m1a40ce151d" x="164.65307" y="77.95288" style="fill: #1f77b4; stroke: #1f77b4; stroke-width: 0.8"/>
     <use xlink:href="#m1a40ce151d" x="174.19487" y="69.244531" style="fill: #1f77b4; stroke: #1f77b4; stroke-width: 0.8"/>
     <use xlink:href="#m1a40ce151d" x="183.73667" y="64.521672" style="fill: #1f77b4; stroke: #1f77b4; stroke-width: 0.8"/>
     <use xlink:href="#m1a40ce151d" x="193.27847" y="75.103518" style="fill: #1f77b4; stroke: #1f77b4; stroke-width: 0.8"/>
     <use xlink:href="#m1a40ce151d" x="202.82027" y="64.399809" style="fill: #1f77b4; stroke: #1f77b4; stroke-width: 0.8"/>
     <use xlink:href="#m1a40ce151d" x="212.36207" y="78.63804" style="fill: #1f77b4; stroke: #1f77b4; stroke-width: 0.8"/>
     <use xlink:href="#m1a40ce151d" x="221.90387" y="78.238941" style="fill: #1f77b4; stroke: #1f77b4; stroke-width: 0.8"/>
     <use xlink:href="#m1a40ce151d" x="231.44567" y="83.745946" style="fill: #1f77b4; stroke: #1f77b4; stroke-width: 0.8"/>
     <use xlink:href="#m1a40ce151d" x="240.98747" y="79.589378" style="fill: #1f77b4; stroke: #1f77b4; stroke-width: 0.8"/>
    </g>
   </g>
   <g id="patch_3">
    <path d="M 54.92237 140.256 
L 54.92237 7.2 
" style="fill: none; stroke: #000000; stroke-linejoin: miter; stroke-linecap: square"/>
   </g>
   <g id="patch_4">
    <path d="M 54.92237 140.256 
L 245.75837 140.256 
" style="fill: none; stroke: #000000; stroke-linejoin: miter; stroke-linecap: square"/>
   </g>
   <g id="legend_1">
    <g id="LineCollection_3">
     <path d="M 187.823682 21.238594 
L 187.823682 12.238594 
" style="fill: none; stroke: #1f77b4; stroke-width: 1.3"/>
    </g>
    <g id="line2d_21"/>
    <g id="line2d_22">
     <defs>
      <path id="m0ce69d527a" d="M 0 0.9375 
C 0.248628 0.9375 0.487106 0.838719 0.662913 0.662913 
C 0.838719 0.487106 0.9375 0.248628 0.9375 0 
C 0.9375 -0.248628 0.838719 -0.487106 0.662913 -0.662913 
C 0.487106 -0.838719 0.248628 -0.9375 0 -0.9375 
C -0.248628 -0.9375 -0.487106 -0.838719 -0.662913 -0.662913 
C -0.838719 -0.487106 -0.9375 -0.248628 -0.9375 0 
C -0.9375 0.248628 -0.838719 0.487106 -0.662913 0.662913 
C -0.487106 0.838719 -0.248628 0.9375 0 0.9375 
z
" style="stroke: #1f77b4; stroke-width: 0.8"/>
     </defs>
     <g>
      <use xlink:href="#m0ce69d527a" x="187.823682" y="16.738594" style="fill: #1f77b4; stroke: #1f77b4; stroke-width: 0.8"/>
     </g>
    </g>
    <g id="text_17">
     <!-- Unbiased -->
     <g transform="translate(197.948682 19.888594) scale(0.09 -0.09)">
      <defs>
       <path id="DejaVuSans-55" d="M 556 4666 
L 1191 4666 
L 1191 1831 
Q 1191 1081 1462 751 
Q 1734 422 2344 422 
Q 2950 422 3222 751 
Q 3494 1081 3494 1831 
L 3494 4666 
L 4128 4666 
L 4128 1753 
Q 4128 841 3676 375 
Q 3225 -91 2344 -91 
Q 1459 -91 1007 375 
Q 556 841 556 1753 
L 556 4666 
z
" transform="scale(0.015625)"/>
       <path id="DejaVuSans-62" d="M 3116 1747 
Q 3116 2381 2855 2742 
Q 2594 3103 2138 3103 
Q 1681 3103 1420 2742 
Q 1159 2381 1159 1747 
Q 1159 1113 1420 752 
Q 1681 391 2138 391 
Q 2594 391 2855 752 
Q 3116 1113 3116 1747 
z
M 1159 2969 
Q 1341 3281 1617 3432 
Q 1894 3584 2278 3584 
Q 2916 3584 3314 3078 
Q 3713 2572 3713 1747 
Q 3713 922 3314 415 
Q 2916 -91 2278 -91 
Q 1894 -91 1617 61 
Q 1341 213 1159 525 
L 1159 0 
L 581 0 
L 581 4863 
L 1159 4863 
L 1159 2969 
z
" transform="scale(0.015625)"/>
       <path id="DejaVuSans-61" d="M 2194 1759 
Q 1497 1759 1228 1600 
Q 959 1441 959 1056 
Q 959 750 1161 570 
Q 1363 391 1709 391 
Q 2188 391 2477 730 
Q 2766 1069 2766 1631 
L 2766 1759 
L 2194 1759 
z
M 3341 1997 
L 3341 0 
L 2766 0 
L 2766 531 
Q 2569 213 2275 61 
Q 1981 -91 1556 -91 
Q 1019 -91 701 211 
Q 384 513 384 1019 
Q 384 1609 779 1909 
Q 1175 2209 1959 2209 
L 2766 2209 
L 2766 2266 
Q 2766 2663 2505 2880 
Q 2244 3097 1772 3097 
Q 1472 3097 1187 3025 
Q 903 2953 641 2809 
L 641 3341 
Q 956 3463 1253 3523 
Q 1550 3584 1831 3584 
Q 2591 3584 2966 3190 
Q 3341 2797 3341 1997 
z
" transform="scale(0.015625)"/>
      </defs>
      <use xlink:href="#DejaVuSans-55"/>
      <use xlink:href="#DejaVuSans-6e" x="73.193359"/>
      <use xlink:href="#DejaVuSans-62" x="136.572266"/>
      <use xlink:href="#DejaVuSans-69" x="200.048828"/>
      <use xlink:href="#DejaVuSans-61" x="227.832031"/>
      <use xlink:href="#DejaVuSans-73" x="289.111328"/>
      <use xlink:href="#DejaVuSans-65" x="341.210938"/>
      <use xlink:href="#DejaVuSans-64" x="402.734375"/>
     </g>
    </g>
    <g id="LineCollection_4">
     <path d="M 187.823682 32.198906 
L 187.823682 23.198906 
" style="fill: none; stroke: #ff7f0e; stroke-opacity: 0.6; stroke-width: 4"/>
    </g>
    <g id="line2d_23"/>
    <g id="line2d_24">
     <defs>
      <path id="m2d388d20e2" d="M 0 0.9375 
C 0.248628 0.9375 0.487106 0.838719 0.662913 0.662913 
C 0.838719 0.487106 0.9375 0.248628 0.9375 0 
C 0.9375 -0.248628 0.838719 -0.487106 0.662913 -0.662913 
C 0.487106 -0.838719 0.248628 -0.9375 0 -0.9375 
C -0.248628 -0.9375 -0.487106 -0.838719 -0.662913 -0.662913 
C -0.838719 -0.487106 -0.9375 -0.248628 -0.9375 0 
C -0.9375 0.248628 -0.838719 0.487106 -0.662913 0.662913 
C -0.487106 0.838719 -0.248628 0.9375 0 0.9375 
z
" style="stroke: #ff7f0e; stroke-opacity: 0.6; stroke-width: 0.8"/>
     </defs>
     <g>
      <use xlink:href="#m2d388d20e2" x="187.823682" y="27.698906" style="fill: #ff7f0e; fill-opacity: 0.6; stroke: #ff7f0e; stroke-opacity: 0.6; stroke-width: 0.8"/>
     </g>
    </g>
    <g id="text_18">
     <!-- Chao -->
     <g transform="translate(197.948682 30.848906) scale(0.09 -0.09)">
      <defs>
       <path id="DejaVuSans-43" d="M 4122 4306 
L 4122 3641 
Q 3803 3938 3442 4084 
Q 3081 4231 2675 4231 
Q 1875 4231 1450 3742 
Q 1025 3253 1025 2328 
Q 1025 1406 1450 917 
Q 1875 428 2675 428 
Q 3081 428 3442 575 
Q 3803 722 4122 1019 
L 4122 359 
Q 3791 134 3420 21 
Q 3050 -91 2638 -91 
Q 1578 -91 968 557 
Q 359 1206 359 2328 
Q 359 3453 968 4101 
Q 1578 4750 2638 4750 
Q 3056 4750 3426 4639 
Q 3797 4528 4122 4306 
z
" transform="scale(0.015625)"/>
       <path id="DejaVuSans-68" d="M 3513 2113 
L 3513 0 
L 2938 0 
L 2938 2094 
Q 2938 2591 2744 2837 
Q 2550 3084 2163 3084 
Q 1697 3084 1428 2787 
Q 1159 2491 1159 1978 
L 1159 0 
L 581 0 
L 581 4863 
L 1159 4863 
L 1159 2956 
Q 1366 3272 1645 3428 
Q 1925 3584 2291 3584 
Q 2894 3584 3203 3211 
Q 3513 2838 3513 2113 
z
" transform="scale(0.015625)"/>
      </defs>
      <use xlink:href="#DejaVuSans-43"/>
      <use xlink:href="#DejaVuSans-68" x="69.824219"/>
      <use xlink:href="#DejaVuSans-61" x="133.203125"/>
      <use xlink:href="#DejaVuSans-6f" x="194.482422"/>
     </g>
    </g>
   </g>
  </g>
 </g>
 <defs>
  <clipPath id="p8527b9f47f">
   <rect x="54.92237" y="7.2" width="190.836" height="133.056"/>
  </clipPath>
 </defs>
</svg>
