<?xml version="1.0" encoding="utf-8" standalone="no"?>
<!DOCTYPE svg PUBLIC "-//W3C//DTD SVG 1.1//EN"
  "http://www.w3.org/Graphics/SVG/1.1/DTD/svg11.dtd">
<svg xmlns:xlink="http://www.w3.org/1999/xlink" width="499.921399pt" height="149.873965pt" viewBox="0 0 499.921399 149.873965" xmlns="http://www.w3.org/2000/svg" version="1.1">
 <metadata>
  <rdf:RDF xmlns:dc="http://purl.org/dc/elements/1.1/" xmlns:cc="http://creativecommons.org/ns#" xmlns:rdf="http://www.w3.org/1999/02/22-rdf-syntax-ns#">
   <cc:Work>
    <dc:type rdf:resource="http://purl.org/dc/dcmitype/StillImage"/>
    <dc:date>2024-06-04T15:56:11.192511</dc:date>
    <dc:format>image/svg+xml</dc:format>
    <dc:creator>
     <cc:Agent>
      <dc:title>Matplotlib v3.7.1, https://matplotlib.org/</dc:title>
     </cc:Agent>
    </dc:creator>
   </cc:Work>
  </rdf:RDF>
 </metadata>
 <defs>
  <style type="text/css">*{stroke-linejoin: round; stroke-linecap: butt}</style>
 </defs>
 <g id="figure_1">
  <g id="patch_1">
   <path d="M 0 149.873965 
L 499.921399 149.873965 
L 499.921399 0 
L 0 0 
L 0 149.873965 
z
" style="fill: none"/>
  </g>
  <g id="axes_1">
   <g id="patch_2">
    <path d="M 40.328475 121.188274 
L 158.644455 121.188274 
L 158.644455 10.048274 
L 40.328475 10.048274 
z
" style="fill: #ffffff"/>
   </g>
   <g id="matplotlib.axis_1">
    <g id="xtick_1">
     <g id="line2d_1">
      <defs>
       <path id="mb893e18311" d="M 0 2 
L 0 -2 
" style="stroke: #000000; stroke-width: 0.8"/>
      </defs>
      <g>
       <use xlink:href="#mb893e18311" x="41.196811" y="121.188274" style="stroke: #000000; stroke-width: 0.8"/>
      </g>
     </g>
     <g id="text_1">
      <!-- −4 -->
      <g transform="translate(35.670702 130.884823) scale(0.07497 -0.07497)">
       <defs>
        <path id="DejaVuSans-2212" d="M 678 2272 
L 4684 2272 
L 4684 1741 
L 678 1741 
L 678 2272 
z
" transform="scale(0.015625)"/>
        <path id="DejaVuSans-34" d="M 2419 4116 
L 825 1625 
L 2419 1625 
L 2419 4116 
z
M 2253 4666 
L 3047 4666 
L 3047 1625 
L 3713 1625 
L 3713 1100 
L 3047 1100 
L 3047 0 
L 2419 0 
L 2419 1100 
L 313 1100 
L 313 1709 
L 2253 4666 
z
" transform="scale(0.015625)"/>
       </defs>
       <use xlink:href="#DejaVuSans-2212"/>
       <use xlink:href="#DejaVuSans-34" x="83.789062"/>
      </g>
     </g>
    </g>
    <g id="xtick_2">
     <g id="line2d_2">
      <g>
       <use xlink:href="#mb893e18311" x="77.050138" y="121.188274" style="stroke: #000000; stroke-width: 0.8"/>
      </g>
     </g>
     <g id="text_2">
      <!-- −3 -->
      <g transform="translate(71.524029 130.884823) scale(0.07497 -0.07497)">
       <defs>
        <path id="DejaVuSans-33" d="M 2597 2516 
Q 3050 2419 3304 2112 
Q 3559 1806 3559 1356 
Q 3559 666 3084 287 
Q 2609 -91 1734 -91 
Q 1441 -91 1130 -33 
Q 819 25 488 141 
L 488 750 
Q 750 597 1062 519 
Q 1375 441 1716 441 
Q 2309 441 2620 675 
Q 2931 909 2931 1356 
Q 2931 1769 2642 2001 
Q 2353 2234 1838 2234 
L 1294 2234 
L 1294 2753 
L 1863 2753 
Q 2328 2753 2575 2939 
Q 2822 3125 2822 3475 
Q 2822 3834 2567 4026 
Q 2313 4219 1838 4219 
Q 1578 4219 1281 4162 
Q 984 4106 628 3988 
L 628 4550 
Q 988 4650 1302 4700 
Q 1616 4750 1894 4750 
Q 2613 4750 3031 4423 
Q 3450 4097 3450 3541 
Q 3450 3153 3228 2886 
Q 3006 2619 2597 2516 
z
" transform="scale(0.015625)"/>
       </defs>
       <use xlink:href="#DejaVuSans-2212"/>
       <use xlink:href="#DejaVuSans-33" x="83.789062"/>
      </g>
     </g>
    </g>
    <g id="xtick_3">
     <g id="line2d_3">
      <g>
       <use xlink:href="#mb893e18311" x="112.903465" y="121.188274" style="stroke: #000000; stroke-width: 0.8"/>
      </g>
     </g>
     <g id="text_3">
      <!-- −2 -->
      <g transform="translate(107.377356 130.884823) scale(0.07497 -0.07497)">
       <defs>
        <path id="DejaVuSans-32" d="M 1228 531 
L 3431 531 
L 3431 0 
L 469 0 
L 469 531 
Q 828 903 1448 1529 
Q 2069 2156 2228 2338 
Q 2531 2678 2651 2914 
Q 2772 3150 2772 3378 
Q 2772 3750 2511 3984 
Q 2250 4219 1831 4219 
Q 1534 4219 1204 4116 
Q 875 4013 500 3803 
L 500 4441 
Q 881 4594 1212 4672 
Q 1544 4750 1819 4750 
Q 2544 4750 2975 4387 
Q 3406 4025 3406 3419 
Q 3406 3131 3298 2873 
Q 3191 2616 2906 2266 
Q 2828 2175 2409 1742 
Q 1991 1309 1228 531 
z
" transform="scale(0.015625)"/>
       </defs>
       <use xlink:href="#DejaVuSans-2212"/>
       <use xlink:href="#DejaVuSans-32" x="83.789062"/>
      </g>
     </g>
    </g>
    <g id="xtick_4">
     <g id="line2d_4">
      <g>
       <use xlink:href="#mb893e18311" x="148.756793" y="121.188274" style="stroke: #000000; stroke-width: 0.8"/>
      </g>
     </g>
     <g id="text_4">
      <!-- −1 -->
      <g transform="translate(143.230684 130.884823) scale(0.07497 -0.07497)">
       <defs>
        <path id="DejaVuSans-31" d="M 794 531 
L 1825 531 
L 1825 4091 
L 703 3866 
L 703 4441 
L 1819 4666 
L 2450 4666 
L 2450 531 
L 3481 531 
L 3481 0 
L 794 0 
L 794 531 
z
" transform="scale(0.015625)"/>
       </defs>
       <use xlink:href="#DejaVuSans-2212"/>
       <use xlink:href="#DejaVuSans-31" x="83.789062"/>
      </g>
     </g>
    </g>
    <g id="text_5">
     <!-- $log_{10}$ Frequency -->
     <g transform="translate(63.351465 140.783965) scale(0.09 -0.09)">
      <defs>
       <path id="DejaVuSans-Oblique-6c" d="M 1172 4863 
L 1747 4863 
L 800 0 
L 225 0 
L 1172 4863 
z
" transform="scale(0.015625)"/>
       <path id="DejaVuSans-Oblique-6f" d="M 1625 -91 
Q 1009 -91 651 289 
Q 294 669 294 1325 
Q 294 1706 417 2101 
Q 541 2497 738 2766 
Q 1047 3184 1428 3384 
Q 1809 3584 2291 3584 
Q 2888 3584 3255 3212 
Q 3622 2841 3622 2241 
Q 3622 1825 3500 1412 
Q 3378 1000 3181 728 
Q 2875 309 2494 109 
Q 2113 -91 1625 -91 
z
M 891 1344 
Q 891 869 1089 633 
Q 1288 397 1691 397 
Q 2269 397 2648 901 
Q 3028 1406 3028 2181 
Q 3028 2634 2825 2865 
Q 2622 3097 2228 3097 
Q 1903 3097 1650 2945 
Q 1397 2794 1197 2484 
Q 1050 2253 970 1956 
Q 891 1659 891 1344 
z
" transform="scale(0.015625)"/>
       <path id="DejaVuSans-Oblique-67" d="M 3816 3500 
L 3219 434 
Q 3047 -456 2561 -893 
Q 2075 -1331 1253 -1331 
Q 950 -1331 690 -1286 
Q 431 -1241 206 -1147 
L 313 -588 
Q 525 -725 762 -790 
Q 1000 -856 1269 -856 
Q 1816 -856 2167 -557 
Q 2519 -259 2631 300 
L 2681 563 
Q 2441 288 2122 144 
Q 1803 0 1434 0 
Q 903 0 598 351 
Q 294 703 294 1319 
Q 294 1803 478 2267 
Q 663 2731 997 3091 
Q 1219 3328 1514 3456 
Q 1809 3584 2131 3584 
Q 2484 3584 2746 3420 
Q 3009 3256 3138 2956 
L 3238 3500 
L 3816 3500 
z
M 2950 2216 
Q 2950 2641 2750 2872 
Q 2550 3103 2181 3103 
Q 1953 3103 1747 3012 
Q 1541 2922 1394 2759 
Q 1156 2491 1023 2127 
Q 891 1763 891 1375 
Q 891 944 1092 712 
Q 1294 481 1672 481 
Q 2219 481 2584 976 
Q 2950 1472 2950 2216 
z
" transform="scale(0.015625)"/>
       <path id="DejaVuSans-30" d="M 2034 4250 
Q 1547 4250 1301 3770 
Q 1056 3291 1056 2328 
Q 1056 1369 1301 889 
Q 1547 409 2034 409 
Q 2525 409 2770 889 
Q 3016 1369 3016 2328 
Q 3016 3291 2770 3770 
Q 2525 4250 2034 4250 
z
M 2034 4750 
Q 2819 4750 3233 4129 
Q 3647 3509 3647 2328 
Q 3647 1150 3233 529 
Q 2819 -91 2034 -91 
Q 1250 -91 836 529 
Q 422 1150 422 2328 
Q 422 3509 836 4129 
Q 1250 4750 2034 4750 
z
" transform="scale(0.015625)"/>
       <path id="DejaVuSans-20" transform="scale(0.015625)"/>
       <path id="DejaVuSans-46" d="M 628 4666 
L 3309 4666 
L 3309 4134 
L 1259 4134 
L 1259 2759 
L 3109 2759 
L 3109 2228 
L 1259 2228 
L 1259 0 
L 628 0 
L 628 4666 
z
" transform="scale(0.015625)"/>
       <path id="DejaVuSans-72" d="M 2631 2963 
Q 2534 3019 2420 3045 
Q 2306 3072 2169 3072 
Q 1681 3072 1420 2755 
Q 1159 2438 1159 1844 
L 1159 0 
L 581 0 
L 581 3500 
L 1159 3500 
L 1159 2956 
Q 1341 3275 1631 3429 
Q 1922 3584 2338 3584 
Q 2397 3584 2469 3576 
Q 2541 3569 2628 3553 
L 2631 2963 
z
" transform="scale(0.015625)"/>
       <path id="DejaVuSans-65" d="M 3597 1894 
L 3597 1613 
L 953 1613 
Q 991 1019 1311 708 
Q 1631 397 2203 397 
Q 2534 397 2845 478 
Q 3156 559 3463 722 
L 3463 178 
Q 3153 47 2828 -22 
Q 2503 -91 2169 -91 
Q 1331 -91 842 396 
Q 353 884 353 1716 
Q 353 2575 817 3079 
Q 1281 3584 2069 3584 
Q 2775 3584 3186 3129 
Q 3597 2675 3597 1894 
z
M 3022 2063 
Q 3016 2534 2758 2815 
Q 2500 3097 2075 3097 
Q 1594 3097 1305 2825 
Q 1016 2553 972 2059 
L 3022 2063 
z
" transform="scale(0.015625)"/>
       <path id="DejaVuSans-71" d="M 947 1747 
Q 947 1113 1208 752 
Q 1469 391 1925 391 
Q 2381 391 2643 752 
Q 2906 1113 2906 1747 
Q 2906 2381 2643 2742 
Q 2381 3103 1925 3103 
Q 1469 3103 1208 2742 
Q 947 2381 947 1747 
z
M 2906 525 
Q 2725 213 2448 61 
Q 2172 -91 1784 -91 
Q 1150 -91 751 415 
Q 353 922 353 1747 
Q 353 2572 751 3078 
Q 1150 3584 1784 3584 
Q 2172 3584 2448 3432 
Q 2725 3281 2906 2969 
L 2906 3500 
L 3481 3500 
L 3481 -1331 
L 2906 -1331 
L 2906 525 
z
" transform="scale(0.015625)"/>
       <path id="DejaVuSans-75" d="M 544 1381 
L 544 3500 
L 1119 3500 
L 1119 1403 
Q 1119 906 1312 657 
Q 1506 409 1894 409 
Q 2359 409 2629 706 
Q 2900 1003 2900 1516 
L 2900 3500 
L 3475 3500 
L 3475 0 
L 2900 0 
L 2900 538 
Q 2691 219 2414 64 
Q 2138 -91 1772 -91 
Q 1169 -91 856 284 
Q 544 659 544 1381 
z
M 1991 3584 
L 1991 3584 
z
" transform="scale(0.015625)"/>
       <path id="DejaVuSans-6e" d="M 3513 2113 
L 3513 0 
L 2938 0 
L 2938 2094 
Q 2938 2591 2744 2837 
Q 2550 3084 2163 3084 
Q 1697 3084 1428 2787 
Q 1159 2491 1159 1978 
L 1159 0 
L 581 0 
L 581 3500 
L 1159 3500 
L 1159 2956 
Q 1366 3272 1645 3428 
Q 1925 3584 2291 3584 
Q 2894 3584 3203 3211 
Q 3513 2838 3513 2113 
z
" transform="scale(0.015625)"/>
       <path id="DejaVuSans-63" d="M 3122 3366 
L 3122 2828 
Q 2878 2963 2633 3030 
Q 2388 3097 2138 3097 
Q 1578 3097 1268 2742 
Q 959 2388 959 1747 
Q 959 1106 1268 751 
Q 1578 397 2138 397 
Q 2388 397 2633 464 
Q 2878 531 3122 666 
L 3122 134 
Q 2881 22 2623 -34 
Q 2366 -91 2075 -91 
Q 1284 -91 818 406 
Q 353 903 353 1747 
Q 353 2603 823 3093 
Q 1294 3584 2113 3584 
Q 2378 3584 2631 3529 
Q 2884 3475 3122 3366 
z
" transform="scale(0.015625)"/>
       <path id="DejaVuSans-79" d="M 2059 -325 
Q 1816 -950 1584 -1140 
Q 1353 -1331 966 -1331 
L 506 -1331 
L 506 -850 
L 844 -850 
Q 1081 -850 1212 -737 
Q 1344 -625 1503 -206 
L 1606 56 
L 191 3500 
L 800 3500 
L 1894 763 
L 2988 3500 
L 3597 3500 
L 2059 -325 
z
" transform="scale(0.015625)"/>
      </defs>
      <use xlink:href="#DejaVuSans-Oblique-6c" transform="translate(0 0.015625)"/>
      <use xlink:href="#DejaVuSans-Oblique-6f" transform="translate(27.783203 0.015625)"/>
      <use xlink:href="#DejaVuSans-Oblique-67" transform="translate(88.964844 0.015625)"/>
      <use xlink:href="#DejaVuSans-31" transform="translate(152.441406 -16.390625) scale(0.7)"/>
      <use xlink:href="#DejaVuSans-30" transform="translate(196.977539 -16.390625) scale(0.7)"/>
      <use xlink:href="#DejaVuSans-20" transform="translate(244.248047 0.015625)"/>
      <use xlink:href="#DejaVuSans-46" transform="translate(276.035156 0.015625)"/>
      <use xlink:href="#DejaVuSans-72" transform="translate(333.554688 0.015625)"/>
      <use xlink:href="#DejaVuSans-65" transform="translate(374.667969 0.015625)"/>
      <use xlink:href="#DejaVuSans-71" transform="translate(436.191406 0.015625)"/>
      <use xlink:href="#DejaVuSans-75" transform="translate(499.667969 0.015625)"/>
      <use xlink:href="#DejaVuSans-65" transform="translate(563.046875 0.015625)"/>
      <use xlink:href="#DejaVuSans-6e" transform="translate(624.570312 0.015625)"/>
      <use xlink:href="#DejaVuSans-63" transform="translate(687.949219 0.015625)"/>
      <use xlink:href="#DejaVuSans-79" transform="translate(742.929688 0.015625)"/>
     </g>
    </g>
   </g>
   <g id="matplotlib.axis_2">
    <g id="ytick_1">
     <g id="line2d_5">
      <defs>
       <path id="m5c82783340" d="M 2 0 
L -2 -0 
" style="stroke: #000000; stroke-width: 0.8"/>
      </defs>
      <g>
       <use xlink:href="#m5c82783340" x="40.328475" y="116.136456" style="stroke: #000000; stroke-width: 0.8"/>
      </g>
     </g>
     <g id="text_6">
      <!-- 0.0 -->
      <g transform="translate(24.405902 118.98473) scale(0.07497 -0.07497)">
       <defs>
        <path id="DejaVuSans-2e" d="M 684 794 
L 1344 794 
L 1344 0 
L 684 0 
L 684 794 
z
" transform="scale(0.015625)"/>
       </defs>
       <use xlink:href="#DejaVuSans-30"/>
       <use xlink:href="#DejaVuSans-2e" x="63.623047"/>
       <use xlink:href="#DejaVuSans-30" x="95.410156"/>
      </g>
     </g>
    </g>
    <g id="ytick_2">
     <g id="line2d_6">
      <g>
       <use xlink:href="#m5c82783340" x="40.328475" y="99.294623" style="stroke: #000000; stroke-width: 0.8"/>
      </g>
     </g>
     <g id="text_7">
      <!-- 0.5 -->
      <g transform="translate(24.405902 102.142897) scale(0.07497 -0.07497)">
       <defs>
        <path id="DejaVuSans-35" d="M 691 4666 
L 3169 4666 
L 3169 4134 
L 1269 4134 
L 1269 2991 
Q 1406 3038 1543 3061 
Q 1681 3084 1819 3084 
Q 2600 3084 3056 2656 
Q 3513 2228 3513 1497 
Q 3513 744 3044 326 
Q 2575 -91 1722 -91 
Q 1428 -91 1123 -41 
Q 819 9 494 109 
L 494 744 
Q 775 591 1075 516 
Q 1375 441 1709 441 
Q 2250 441 2565 725 
Q 2881 1009 2881 1497 
Q 2881 1984 2565 2268 
Q 2250 2553 1709 2553 
Q 1456 2553 1204 2497 
Q 953 2441 691 2322 
L 691 4666 
z
" transform="scale(0.015625)"/>
       </defs>
       <use xlink:href="#DejaVuSans-30"/>
       <use xlink:href="#DejaVuSans-2e" x="63.623047"/>
       <use xlink:href="#DejaVuSans-35" x="95.410156"/>
      </g>
     </g>
    </g>
    <g id="ytick_3">
     <g id="line2d_7">
      <g>
       <use xlink:href="#m5c82783340" x="40.328475" y="82.45279" style="stroke: #000000; stroke-width: 0.8"/>
      </g>
     </g>
     <g id="text_8">
      <!-- 1.0 -->
      <g transform="translate(24.405902 85.301064) scale(0.07497 -0.07497)">
       <use xlink:href="#DejaVuSans-31"/>
       <use xlink:href="#DejaVuSans-2e" x="63.623047"/>
       <use xlink:href="#DejaVuSans-30" x="95.410156"/>
      </g>
     </g>
    </g>
    <g id="ytick_4">
     <g id="line2d_8">
      <g>
       <use xlink:href="#m5c82783340" x="40.328475" y="65.610956" style="stroke: #000000; stroke-width: 0.8"/>
      </g>
     </g>
     <g id="text_9">
      <!-- 1.5 -->
      <g transform="translate(24.405902 68.459231) scale(0.07497 -0.07497)">
       <use xlink:href="#DejaVuSans-31"/>
       <use xlink:href="#DejaVuSans-2e" x="63.623047"/>
       <use xlink:href="#DejaVuSans-35" x="95.410156"/>
      </g>
     </g>
    </g>
    <g id="ytick_5">
     <g id="line2d_9">
      <g>
       <use xlink:href="#m5c82783340" x="40.328475" y="48.769123" style="stroke: #000000; stroke-width: 0.8"/>
      </g>
     </g>
     <g id="text_10">
      <!-- 2.0 -->
      <g transform="translate(24.405902 51.617397) scale(0.07497 -0.07497)">
       <use xlink:href="#DejaVuSans-32"/>
       <use xlink:href="#DejaVuSans-2e" x="63.623047"/>
       <use xlink:href="#DejaVuSans-30" x="95.410156"/>
      </g>
     </g>
    </g>
    <g id="ytick_6">
     <g id="line2d_10">
      <g>
       <use xlink:href="#m5c82783340" x="40.328475" y="31.92729" style="stroke: #000000; stroke-width: 0.8"/>
      </g>
     </g>
     <g id="text_11">
      <!-- 2.5 -->
      <g transform="translate(24.405902 34.775564) scale(0.07497 -0.07497)">
       <use xlink:href="#DejaVuSans-32"/>
       <use xlink:href="#DejaVuSans-2e" x="63.623047"/>
       <use xlink:href="#DejaVuSans-35" x="95.410156"/>
      </g>
     </g>
    </g>
    <g id="ytick_7">
     <g id="line2d_11">
      <g>
       <use xlink:href="#m5c82783340" x="40.328475" y="15.085457" style="stroke: #000000; stroke-width: 0.8"/>
      </g>
     </g>
     <g id="text_12">
      <!-- 3.0 -->
      <g transform="translate(24.405902 17.933731) scale(0.07497 -0.07497)">
       <use xlink:href="#DejaVuSans-33"/>
       <use xlink:href="#DejaVuSans-2e" x="63.623047"/>
       <use xlink:href="#DejaVuSans-30" x="95.410156"/>
      </g>
     </g>
    </g>
    <g id="text_13">
     <!-- $log_{10}$ Rank -->
     <g transform="translate(21.015902 89.423274) rotate(-90) scale(0.09 -0.09)">
      <defs>
       <path id="DejaVuSans-52" d="M 2841 2188 
Q 3044 2119 3236 1894 
Q 3428 1669 3622 1275 
L 4263 0 
L 3584 0 
L 2988 1197 
Q 2756 1666 2539 1819 
Q 2322 1972 1947 1972 
L 1259 1972 
L 1259 0 
L 628 0 
L 628 4666 
L 2053 4666 
Q 2853 4666 3247 4331 
Q 3641 3997 3641 3322 
Q 3641 2881 3436 2590 
Q 3231 2300 2841 2188 
z
M 1259 4147 
L 1259 2491 
L 2053 2491 
Q 2509 2491 2742 2702 
Q 2975 2913 2975 3322 
Q 2975 3731 2742 3939 
Q 2509 4147 2053 4147 
L 1259 4147 
z
" transform="scale(0.015625)"/>
       <path id="DejaVuSans-61" d="M 2194 1759 
Q 1497 1759 1228 1600 
Q 959 1441 959 1056 
Q 959 750 1161 570 
Q 1363 391 1709 391 
Q 2188 391 2477 730 
Q 2766 1069 2766 1631 
L 2766 1759 
L 2194 1759 
z
M 3341 1997 
L 3341 0 
L 2766 0 
L 2766 531 
Q 2569 213 2275 61 
Q 1981 -91 1556 -91 
Q 1019 -91 701 211 
Q 384 513 384 1019 
Q 384 1609 779 1909 
Q 1175 2209 1959 2209 
L 2766 2209 
L 2766 2266 
Q 2766 2663 2505 2880 
Q 2244 3097 1772 3097 
Q 1472 3097 1187 3025 
Q 903 2953 641 2809 
L 641 3341 
Q 956 3463 1253 3523 
Q 1550 3584 1831 3584 
Q 2591 3584 2966 3190 
Q 3341 2797 3341 1997 
z
" transform="scale(0.015625)"/>
       <path id="DejaVuSans-6b" d="M 581 4863 
L 1159 4863 
L 1159 1991 
L 2875 3500 
L 3609 3500 
L 1753 1863 
L 3688 0 
L 2938 0 
L 1159 1709 
L 1159 0 
L 581 0 
L 581 4863 
z
" transform="scale(0.015625)"/>
      </defs>
      <use xlink:href="#DejaVuSans-Oblique-6c" transform="translate(0 0.015625)"/>
      <use xlink:href="#DejaVuSans-Oblique-6f" transform="translate(27.783203 0.015625)"/>
      <use xlink:href="#DejaVuSans-Oblique-67" transform="translate(88.964844 0.015625)"/>
      <use xlink:href="#DejaVuSans-31" transform="translate(152.441406 -16.390625) scale(0.7)"/>
      <use xlink:href="#DejaVuSans-30" transform="translate(196.977539 -16.390625) scale(0.7)"/>
      <use xlink:href="#DejaVuSans-20" transform="translate(244.248047 0.015625)"/>
      <use xlink:href="#DejaVuSans-52" transform="translate(276.035156 0.015625)"/>
      <use xlink:href="#DejaVuSans-61" transform="translate(345.517578 0.015625)"/>
      <use xlink:href="#DejaVuSans-6e" transform="translate(406.796875 0.015625)"/>
      <use xlink:href="#DejaVuSans-6b" transform="translate(470.175781 0.015625)"/>
     </g>
    </g>
   </g>
   <g id="line2d_12">
    <path d="M 153.266456 116.136456 
L 142.473529 116.136456 
L 142.473529 105.996662 
L 136.160071 105.996662 
L 136.160071 100.065263 
L 131.680602 100.065263 
L 131.680602 95.856868 
L 128.206055 95.856868 
L 128.206055 92.592584 
L 125.367144 92.592584 
L 125.367144 89.925469 
L 122.966879 89.925469 
L 122.966879 87.670456 
L 120.887675 87.670456 
L 120.887675 85.717074 
L 119.053687 85.717074 
L 119.053687 83.99407 
L 117.413128 83.99407 
L 117.413128 82.45279 
L 115.929063 82.45279 
L 115.929063 81.058532 
L 114.574217 81.058532 
L 114.574217 79.785675 
L 113.32788 79.785675 
L 113.32788 78.61476 
L 112.173952 78.61476 
L 112.173952 77.530662 
L 111.099671 77.530662 
L 111.099671 76.52139 
L 110.094748 76.52139 
L 110.094748 75.57728 
L 109.150768 75.57728 
L 109.150768 74.690425 
L 108.26076 74.690425 
L 108.26076 73.854276 
L 107.418884 73.854276 
L 107.418884 73.063346 
L 106.620201 73.063346 
L 106.620201 72.312996 
L 105.860495 72.312996 
L 105.860495 71.599262 
L 105.136136 71.599262 
L 105.136136 70.918738 
L 104.443982 70.918738 
L 104.443982 70.26847 
L 103.78129 70.26847 
L 103.78129 69.645881 
L 103.145655 69.645881 
L 103.145655 69.048711 
L 102.534953 69.048711 
L 102.534953 68.474966 
L 101.947302 68.474966 
L 101.947302 67.922876 
L 101.381025 67.922876 
L 101.381025 67.390868 
L 100.834622 67.390868 
L 100.834622 66.87753 
L 100.306744 66.87753 
L 100.306744 66.381596 
L 99.796177 66.381596 
L 99.796177 65.901926 
L 99.301821 65.901926 
L 99.301821 65.437486 
L 98.822678 65.437486 
L 98.822678 64.987339 
L 98.357841 64.987339 
L 98.357841 64.550631 
L 97.906479 64.550631 
L 97.906479 64.126583 
L 97.467833 64.126583 
L 97.467833 63.714482 
L 97.041206 63.714482 
L 97.041206 63.313672 
L 96.625957 63.313672 
L 96.625957 62.923552 
L 96.221496 62.923552 
L 96.221496 62.543566 
L 95.827274 62.543566 
L 95.827274 62.173202 
L 95.442788 62.173202 
L 95.442788 61.811983 
L 95.067568 61.811983 
L 95.067568 61.459468 
L 94.701176 61.459468 
L 94.701176 61.115249 
L 94.343209 61.115249 
L 94.343209 60.778944 
L 93.993286 60.778944 
L 93.993286 60.450197 
L 93.651055 60.450197 
L 93.651055 60.128676 
L 93.316184 60.128676 
L 93.316184 59.814069 
L 92.988363 59.814069 
L 92.988363 59.506087 
L 92.667302 59.506087 
L 92.667302 59.204455 
L 92.352728 59.204455 
L 92.352728 58.908917 
L 92.044383 58.908917 
L 92.044383 58.619232 
L 91.742026 58.619232 
L 91.742026 58.335172 
L 91.445429 58.335172 
L 91.445429 58.056523 
L 91.154375 58.056523 
L 91.154375 57.783082 
L 90.868663 57.783082 
L 90.868663 57.51466 
L 90.588098 57.51466 
L 90.588098 57.251074 
L 90.3125 57.251074 
L 90.3125 56.992153 
L 90.041695 56.992153 
L 90.041695 56.737736 
L 89.775519 56.737736 
L 89.775519 56.487667 
L 89.513817 56.487667 
L 89.513817 56.241802 
L 89.256441 56.241802 
L 89.256441 56.000001 
L 89.00325 56.000001 
L 89.00325 55.762132 
L 88.75411 55.762132 
L 88.75411 55.528069 
L 88.508894 55.528069 
L 88.508894 55.297692 
L 88.26748 55.297692 
L 88.26748 55.070887 
L 88.029751 55.070887 
L 88.029751 54.847545 
L 87.795598 54.847545 
L 87.795598 54.627561 
L 87.564914 54.627561 
L 87.564914 54.410837 
L 87.337597 54.410837 
L 87.337597 54.197277 
L 87.113552 54.197277 
L 87.113552 53.986789 
L 86.892684 53.986789 
L 86.892684 53.779287 
L 86.674906 53.779287 
L 86.674906 53.574688 
L 86.460131 53.574688 
L 86.460131 53.37291 
L 86.248279 53.37291 
L 86.248279 53.173878 
L 86.03927 53.173878 
L 86.03927 52.977518 
L 85.83303 52.977518 
L 85.83303 52.783758 
L 85.629486 52.783758 
L 85.629486 52.592532 
L 85.428569 52.592532 
L 85.428569 52.403772 
L 85.23021 52.403772 
L 85.23021 52.217418 
L 85.034347 52.217418 
L 85.034347 52.033408 
L 84.840918 52.033408 
L 84.840918 51.851683 
L 84.649861 51.851683 
L 84.649861 51.672189 
L 84.461121 51.672189 
L 84.461121 51.49487 
L 84.274641 51.49487 
L 84.274641 51.319674 
L 84.090367 51.319674 
L 84.090367 51.146552 
L 83.908249 51.146552 
L 83.908249 50.975455 
L 83.728237 50.975455 
L 83.728237 50.806336 
L 83.550282 50.806336 
L 83.550282 50.63915 
L 83.374338 50.63915 
L 83.374338 50.473853 
L 83.200359 50.473853 
L 83.200359 50.310403 
L 83.028303 50.310403 
L 83.028303 50.148759 
L 82.858128 50.148759 
L 82.858128 49.988882 
L 82.689792 49.988882 
L 82.689792 49.830733 
L 82.523257 49.830733 
L 82.523257 49.674275 
L 82.358484 49.674275 
L 82.358484 49.519474 
L 82.195436 49.519474 
L 82.195436 49.366293 
L 82.034078 49.366293 
L 82.034078 49.2147 
L 81.874375 49.2147 
L 81.874375 49.064661 
L 81.716294 49.064661 
L 81.716294 48.916146 
L 81.559801 48.916146 
L 81.559801 48.769123 
L 81.404865 48.769123 
L 81.404865 48.623563 
L 81.251456 48.623563 
L 81.251456 48.479438 
L 81.099544 48.479438 
L 81.099544 48.336718 
L 80.949099 48.336718 
L 80.949099 48.195378 
L 80.800094 48.195378 
L 80.800094 48.05539 
L 80.652502 48.05539 
L 80.652502 47.916729 
L 80.506295 47.916729 
L 80.506295 47.77937 
L 80.361448 47.77937 
L 80.361448 47.643288 
L 80.217937 47.643288 
L 80.217937 47.508461 
L 80.075736 47.508461 
L 80.075736 47.374866 
L 79.934821 47.374866 
L 79.934821 47.242479 
L 79.795171 47.242479 
L 79.795171 47.11128 
L 79.656762 47.11128 
L 79.656762 46.981246 
L 79.519573 46.981246 
L 79.519573 46.852359 
L 79.383581 46.852359 
L 79.383581 46.724597 
L 79.248768 46.724597 
L 79.248768 46.597942 
L 79.115111 46.597942 
L 79.115111 46.472373 
L 78.982592 46.472373 
L 78.982592 46.347873 
L 78.851191 46.347873 
L 78.851191 46.224424 
L 78.72089 46.224424 
L 78.72089 46.102008 
L 78.59167 46.102008 
L 78.59167 45.980608 
L 78.463514 45.980608 
L 78.463514 45.860207 
L 78.336404 45.860207 
L 78.336404 45.740789 
L 78.210323 45.740789 
L 78.210323 45.622338 
L 78.085255 45.622338 
L 78.085255 45.504838 
L 77.961183 45.504838 
L 77.961183 45.388275 
L 77.838092 45.388275 
L 77.838092 45.272633 
L 77.715967 45.272633 
L 77.715967 45.157898 
L 77.594792 45.157898 
L 77.594792 45.044056 
L 77.474553 45.044056 
L 77.474553 44.931093 
L 77.355235 44.931093 
L 77.355235 44.818996 
L 77.236824 44.818996 
L 77.236824 44.707751 
L 77.002671 44.597346 
L 77.002671 44.487767 
L 76.771987 44.379004 
L 76.771987 44.271043 
L 76.54467 44.163873 
L 76.54467 44.057483 
L 76.320625 43.95186 
L 76.209799 43.742876 
L 75.990487 43.639493 
L 75.881979 43.434894 
L 75.667204 43.333657 
L 75.560918 43.133262 
L 75.350497 43.034084 
L 75.246343 42.837724 
L 75.040103 42.740523 
L 74.937999 42.548038 
L 74.735776 42.452738 
L 74.635642 42.263978 
L 74.437283 42.170504 
L 74.339044 41.985329 
L 74.144405 41.893614 
L 74.047991 41.711889 
L 73.856934 41.621867 
L 73.762278 41.443466 
L 73.574674 41.355076 
L 73.481714 41.17988 
L 73.29744 41.093063 
L 73.206115 40.92096 
L 73.025056 40.835661 
L 72.93531 40.666542 
L 72.757355 40.58271 
L 72.669134 40.416474 
L 72.494179 40.334059 
L 72.407432 40.170609 
L 72.235376 40.089564 
L 72.150056 39.928808 
L 71.980806 39.849088 
L 71.896865 39.690939 
L 71.73033 39.612501 
L 71.647725 39.456876 
L 71.48382 39.37968 
L 71.402509 39.226499 
L 71.241151 39.150506 
L 71.161095 38.999694 
L 71.002207 38.924867 
L 70.923367 38.776352 
L 70.766874 38.702656 
L 70.689213 38.556368 
L 70.535045 38.483769 
L 70.458529 38.339644 
L 70.306617 38.26811 
L 70.231213 38.126083 
L 70.081491 38.055584 
L 70.007167 37.915596 
L 69.859575 37.846101 
L 69.7863 37.708094 
L 69.640776 37.639576 
L 69.568521 37.503494 
L 69.42501 37.435926 
L 69.353747 37.301717 
L 69.212192 37.235072 
L 69.141894 37.102685 
L 69.002244 37.036938 
L 68.932886 36.906325 
L 68.795089 36.841452 
L 68.726646 36.712565 
L 68.590654 36.648545 
L 68.523102 36.521338 
L 68.388869 36.458148 
L 68.322184 36.332579 
L 68.189665 36.270197 
L 68.123826 36.146225 
L 67.992977 36.08463 
L 67.927963 35.962214 
L 67.798743 35.901388 
L 67.734533 35.78049 
L 67.606902 35.720413 
L 67.543477 35.600995 
L 67.417396 35.54165 
L 67.354736 35.423676 
L 67.230168 35.365045 
L 67.168256 35.248481 
L 67.045165 35.190546 
L 66.983983 35.075359 
L 66.862335 35.018104 
L 66.801865 34.904262 
L 66.681626 34.847672 
L 66.621852 34.735143 
L 66.50299 34.679202 
L 66.443897 34.567957 
L 66.267953 34.457552 
L 66.209744 34.347973 
L 66.036411 34.23921 
L 65.97906 34.131249 
L 65.808262 34.024079 
L 65.751743 33.917689 
L 65.583408 33.812066 
L 65.527698 33.707201 
L 65.361754 33.603082 
L 65.252099 33.44828 
L 65.089052 33.345982 
L 64.981294 33.193863 
L 64.821043 33.093322 
L 64.715118 32.943795 
L 64.55757 32.844952 
L 64.453416 32.69793 
L 64.298481 32.600729 
L 64.19604 32.456129 
L 64.043632 32.360516 
L 63.942849 32.21826 
L 63.792888 32.124184 
L 63.69371 31.984197 
L 63.546117 31.89161 
L 63.448493 31.75382 
L 63.303196 31.662675 
L 63.207079 31.527015 
L 63.064007 31.437268 
L 62.969351 31.303672 
L 62.828437 31.215282 
L 62.735198 31.083689 
L 62.596377 30.996613 
L 62.504513 30.866964 
L 62.367726 30.781166 
L 62.277197 30.653404 
L 62.142383 30.568845 
L 62.053151 30.442916 
L 61.920255 30.359562 
L 61.832284 30.235415 
L 61.701252 30.153231 
L 61.614505 30.030815 
L 61.485285 29.94977 
L 61.399731 29.829038 
L 61.272274 29.7491 
L 61.187879 29.630006 
L 61.062137 29.551145 
L 60.97887 29.433645 
L 60.854798 29.355833 
L 60.77263 29.239886 
L 60.650184 29.163095 
L 60.569086 29.048659 
L 60.448224 28.972863 
L 60.368168 28.8599 
L 60.24885 28.785073 
L 60.16981 28.673545 
L 60.012923 28.562862 
L 59.935068 28.453009 
L 59.780517 28.343975 
L 59.703813 28.235748 
L 59.551529 28.128316 
L 59.475942 28.021667 
L 59.32586 27.91579 
L 59.251358 27.810673 
L 59.103415 27.706307 
L 58.993373 27.5683 
L 58.847849 27.465643 
L 58.739592 27.329877 
L 58.59641 27.228873 
L 58.489882 27.095278 
L 58.348967 26.995876 
L 58.244112 26.864381 
L 58.105395 26.766531 
L 58.002162 26.637073 
L 57.865575 26.540726 
L 57.763914 26.413242 
L 57.629392 26.318354 
L 57.529257 26.192785 
L 57.396738 26.099311 
L 57.298083 25.975601 
L 57.167509 25.8835 
L 57.070292 25.761594 
L 56.941606 25.670827 
L 56.845785 25.550673 
L 56.718934 25.461201 
L 56.624469 25.34275 
L 56.499401 25.254537 
L 56.406254 25.137741 
L 56.28292 25.050752 
L 56.191056 24.935565 
L 56.069408 24.849767 
L 55.978791 24.736146 
L 55.858783 24.651505 
L 55.769381 24.539408 
L 55.65097 24.455895 
L 55.56275 24.345281 
L 55.416817 24.235497 
L 55.329909 24.126531 
L 55.186133 24.018371 
L 55.1005 23.911004 
L 54.958816 23.80442 
L 54.874421 23.698606 
L 54.734771 23.593553 
L 54.623945 23.463288 
L 54.486514 23.359905 
L 54.377435 23.231696 
L 54.242153 23.129931 
L 54.134767 23.003712 
L 54.001568 22.903516 
L 53.895822 22.779228 
L 53.764643 22.680552 
L 53.660489 22.558136 
L 53.53127 22.460935 
L 53.42866 22.340336 
L 53.301342 22.244567 
L 53.200232 22.125731 
L 53.074761 22.031352 
L 52.975107 21.914229 
L 52.851429 21.821201 
L 52.75319 21.705742 
L 52.631256 21.614026 
L 52.534392 21.500184 
L 52.414152 21.409744 
L 52.318625 21.297474 
L 52.200034 21.208275 
L 52.105808 21.097535 
L 51.965528 20.987628 
L 51.872706 20.87854 
L 51.734502 20.770259 
L 51.643042 20.662774 
L 51.506853 20.556073 
L 51.416717 20.450145 
L 51.282484 20.344978 
L 51.171501 20.219768 
L 51.039357 20.116239 
L 50.930087 19.992963 
L 50.799967 19.891021 
L 50.692358 19.769621 
L 50.564202 19.669218 
L 50.458205 19.549637 
L 50.331954 19.450728 
L 50.227521 19.332913 
L 50.103119 19.235453 
L 50.000204 19.119353 
L 49.877598 19.023301 
L 49.776159 18.908865 
L 49.655297 18.814181 
L 49.555291 18.701363 
L 49.436126 18.608009 
L 49.337513 18.496764 
L 49.200496 18.386358 
L 49.10336 18.27678 
L 48.968379 18.168017 
L 48.872675 18.060056 
L 48.739671 17.952886 
L 48.645359 17.846495 
L 48.514274 17.740873 
L 48.421313 17.636008 
L 48.292093 17.531889 
L 48.182181 17.411346 
L 48.054922 17.308809 
L 47.946665 17.190083 
L 47.821309 17.089079 
L 47.714659 16.972117 
L 47.59115 16.872602 
L 47.486059 16.75735 
L 47.364343 16.659281 
L 47.260766 16.545691 
L 47.140792 16.449026 
L 47.038687 16.337051 
L 46.920405 16.24175 
L 46.819731 16.131345 
L 46.686503 16.021767 
L 46.587325 15.913003 
L 46.456063 15.805042 
L 46.358337 15.697873 
L 46.228983 15.591482 
L 46.132668 15.48586 
L 46.005167 15.380994 
L 45.894455 15.262062 
L 45.768882 15.158783 
L 45.722052 15.100092 
L 45.706474 15.100092 
" clip-path="url(#p911f0bdac5)" style="fill: none; stroke: #1f77b4; stroke-width: 1.3; stroke-linecap: round"/>
   </g>
   <g id="patch_3">
    <path d="M 40.328475 121.188274 
L 40.328475 10.048274 
" style="fill: none; stroke: #000000; stroke-linejoin: miter; stroke-linecap: square"/>
   </g>
   <g id="patch_4">
    <path d="M 40.328475 121.188274 
L 158.644455 121.188274 
" style="fill: none; stroke: #000000; stroke-linejoin: miter; stroke-linecap: square"/>
   </g>
   <g id="text_14">
    <!-- Zipf: -->
    <g transform="translate(138.391642 16.886868) scale(0.09 -0.09)">
     <defs>
      <path id="DejaVuSans-5a" d="M 359 4666 
L 4025 4666 
L 4025 4184 
L 1075 531 
L 4097 531 
L 4097 0 
L 288 0 
L 288 481 
L 3238 4134 
L 359 4134 
L 359 4666 
z
" transform="scale(0.015625)"/>
      <path id="DejaVuSans-69" d="M 603 3500 
L 1178 3500 
L 1178 0 
L 603 0 
L 603 3500 
z
M 603 4863 
L 1178 4863 
L 1178 4134 
L 603 4134 
L 603 4863 
z
" transform="scale(0.015625)"/>
      <path id="DejaVuSans-70" d="M 1159 525 
L 1159 -1331 
L 581 -1331 
L 581 3500 
L 1159 3500 
L 1159 2969 
Q 1341 3281 1617 3432 
Q 1894 3584 2278 3584 
Q 2916 3584 3314 3078 
Q 3713 2572 3713 1747 
Q 3713 922 3314 415 
Q 2916 -91 2278 -91 
Q 1894 -91 1617 61 
Q 1341 213 1159 525 
z
M 3116 1747 
Q 3116 2381 2855 2742 
Q 2594 3103 2138 3103 
Q 1681 3103 1420 2742 
Q 1159 2381 1159 1747 
Q 1159 1113 1420 752 
Q 1681 391 2138 391 
Q 2594 391 2855 752 
Q 3116 1113 3116 1747 
z
" transform="scale(0.015625)"/>
      <path id="DejaVuSans-66" d="M 2375 4863 
L 2375 4384 
L 1825 4384 
Q 1516 4384 1395 4259 
Q 1275 4134 1275 3809 
L 1275 3500 
L 2222 3500 
L 2222 3053 
L 1275 3053 
L 1275 0 
L 697 0 
L 697 3053 
L 147 3053 
L 147 3500 
L 697 3500 
L 697 3744 
Q 697 4328 969 4595 
Q 1241 4863 1831 4863 
L 2375 4863 
z
" transform="scale(0.015625)"/>
      <path id="DejaVuSans-3a" d="M 750 794 
L 1409 794 
L 1409 0 
L 750 0 
L 750 794 
z
M 750 3309 
L 1409 3309 
L 1409 2516 
L 750 2516 
L 750 3309 
z
" transform="scale(0.015625)"/>
     </defs>
     <use xlink:href="#DejaVuSans-5a"/>
     <use xlink:href="#DejaVuSans-69" x="68.505859"/>
     <use xlink:href="#DejaVuSans-70" x="96.289062"/>
     <use xlink:href="#DejaVuSans-66" x="159.765625"/>
     <use xlink:href="#DejaVuSans-3a" x="191.345703"/>
    </g>
    <!-- $n_i \sim 1/i$ -->
    <g transform="translate(128.584455 26.964899) scale(0.09 -0.09)">
     <defs>
      <path id="DejaVuSans-Oblique-6e" d="M 3566 2113 
L 3156 0 
L 2578 0 
L 2988 2091 
Q 3016 2238 3031 2350 
Q 3047 2463 3047 2528 
Q 3047 2791 2881 2937 
Q 2716 3084 2419 3084 
Q 1956 3084 1622 2776 
Q 1288 2469 1184 1941 
L 800 0 
L 225 0 
L 903 3500 
L 1478 3500 
L 1363 2950 
Q 1603 3253 1940 3418 
Q 2278 3584 2650 3584 
Q 3113 3584 3367 3334 
Q 3622 3084 3622 2631 
Q 3622 2519 3608 2391 
Q 3594 2263 3566 2113 
z
" transform="scale(0.015625)"/>
      <path id="DejaVuSans-Oblique-69" d="M 1172 4863 
L 1747 4863 
L 1606 4134 
L 1031 4134 
L 1172 4863 
z
M 909 3500 
L 1484 3500 
L 800 0 
L 225 0 
L 909 3500 
z
" transform="scale(0.015625)"/>
      <path id="DejaVuSans-223c" d="M 4684 2556 
L 4684 1997 
Q 4356 1753 4076 1645 
Q 3797 1538 3494 1538 
Q 3150 1538 2694 1722 
Q 2663 1734 2641 1744 
Q 2622 1750 2575 1769 
Q 2091 1959 1797 1959 
Q 1522 1959 1253 1840 
Q 984 1722 678 1459 
L 678 2019 
Q 1006 2263 1286 2370 
Q 1566 2478 1869 2478 
Q 2213 2478 2672 2294 
Q 2706 2278 2722 2272 
Q 2741 2266 2788 2247 
Q 3272 2056 3566 2056 
Q 3834 2056 4098 2173 
Q 4363 2291 4684 2556 
z
" transform="scale(0.015625)"/>
      <path id="DejaVuSans-2f" d="M 1625 4666 
L 2156 4666 
L 531 -594 
L 0 -594 
L 1625 4666 
z
" transform="scale(0.015625)"/>
     </defs>
     <use xlink:href="#DejaVuSans-Oblique-6e" transform="translate(0 0.015625)"/>
     <use xlink:href="#DejaVuSans-Oblique-69" transform="translate(63.378906 -16.390625) scale(0.7)"/>
     <use xlink:href="#DejaVuSans-223c" transform="translate(105.043945 0.015625)"/>
     <use xlink:href="#DejaVuSans-31" transform="translate(208.31543 0.015625)"/>
     <use xlink:href="#DejaVuSans-2f" transform="translate(271.938477 0.015625)"/>
     <use xlink:href="#DejaVuSans-Oblique-69" transform="translate(305.629883 0.015625)"/>
    </g>
    <!-- S=1000 -->
    <g transform="translate(122.484142 37.042931) scale(0.09 -0.09)">
     <defs>
      <path id="DejaVuSans-53" d="M 3425 4513 
L 3425 3897 
Q 3066 4069 2747 4153 
Q 2428 4238 2131 4238 
Q 1616 4238 1336 4038 
Q 1056 3838 1056 3469 
Q 1056 3159 1242 3001 
Q 1428 2844 1947 2747 
L 2328 2669 
Q 3034 2534 3370 2195 
Q 3706 1856 3706 1288 
Q 3706 609 3251 259 
Q 2797 -91 1919 -91 
Q 1588 -91 1214 -16 
Q 841 59 441 206 
L 441 856 
Q 825 641 1194 531 
Q 1563 422 1919 422 
Q 2459 422 2753 634 
Q 3047 847 3047 1241 
Q 3047 1584 2836 1778 
Q 2625 1972 2144 2069 
L 1759 2144 
Q 1053 2284 737 2584 
Q 422 2884 422 3419 
Q 422 4038 858 4394 
Q 1294 4750 2059 4750 
Q 2388 4750 2728 4690 
Q 3069 4631 3425 4513 
z
" transform="scale(0.015625)"/>
      <path id="DejaVuSans-3d" d="M 678 2906 
L 4684 2906 
L 4684 2381 
L 678 2381 
L 678 2906 
z
M 678 1631 
L 4684 1631 
L 4684 1100 
L 678 1100 
L 678 1631 
z
" transform="scale(0.015625)"/>
     </defs>
     <use xlink:href="#DejaVuSans-53"/>
     <use xlink:href="#DejaVuSans-3d" x="63.476562"/>
     <use xlink:href="#DejaVuSans-31" x="147.265625"/>
     <use xlink:href="#DejaVuSans-30" x="210.888672"/>
     <use xlink:href="#DejaVuSans-30" x="274.511719"/>
     <use xlink:href="#DejaVuSans-30" x="338.134766"/>
    </g>
   </g>
   <g id="text_15">
    <!-- A -->
    <g transform="translate(7.2 17.998268) scale(0.09 -0.09)">
     <defs>
      <path id="DejaVuSans-Bold-41" d="M 3419 850 
L 1538 850 
L 1241 0 
L 31 0 
L 1759 4666 
L 3194 4666 
L 4922 0 
L 3713 0 
L 3419 850 
z
M 1838 1716 
L 3116 1716 
L 2478 3572 
L 1838 1716 
z
" transform="scale(0.015625)"/>
     </defs>
     <use xlink:href="#DejaVuSans-Bold-41"/>
    </g>
   </g>
  </g>
  <g id="axes_2">
   <g id="patch_5">
    <path d="M 206.174455 121.188274 
L 324.490435 121.188274 
L 324.490435 10.048274 
L 206.174455 10.048274 
z
" style="fill: #ffffff"/>
   </g>
   <g id="matplotlib.axis_3">
    <g id="xtick_5">
     <g id="line2d_13">
      <g>
       <use xlink:href="#mb893e18311" x="206.174455" y="121.188274" style="stroke: #000000; stroke-width: 0.8"/>
      </g>
     </g>
     <g id="text_16">
      <!-- 1 -->
      <g transform="translate(203.789472 130.884823) scale(0.07497 -0.07497)">
       <use xlink:href="#DejaVuSans-31"/>
      </g>
     </g>
    </g>
    <g id="xtick_6">
     <g id="line2d_14">
      <g>
       <use xlink:href="#mb893e18311" x="245.613115" y="121.188274" style="stroke: #000000; stroke-width: 0.8"/>
      </g>
     </g>
     <g id="text_17">
      <!-- 2 -->
      <g transform="translate(243.228132 130.884823) scale(0.07497 -0.07497)">
       <use xlink:href="#DejaVuSans-32"/>
      </g>
     </g>
    </g>
    <g id="xtick_7">
     <g id="line2d_15">
      <g>
       <use xlink:href="#mb893e18311" x="285.051775" y="121.188274" style="stroke: #000000; stroke-width: 0.8"/>
      </g>
     </g>
     <g id="text_18">
      <!-- 3 -->
      <g transform="translate(282.666792 130.884823) scale(0.07497 -0.07497)">
       <use xlink:href="#DejaVuSans-33"/>
      </g>
     </g>
    </g>
    <g id="xtick_8">
     <g id="line2d_16">
      <g>
       <use xlink:href="#mb893e18311" x="324.490435" y="121.188274" style="stroke: #000000; stroke-width: 0.8"/>
      </g>
     </g>
     <g id="text_19">
      <!-- 4 -->
      <g transform="translate(322.105452 130.884823) scale(0.07497 -0.07497)">
       <use xlink:href="#DejaVuSans-34"/>
      </g>
     </g>
    </g>
    <g id="text_20">
     <!-- $\log_{10}$ Sample Size -->
     <g transform="translate(224.562445 140.783965) scale(0.09 -0.09)">
      <defs>
       <path id="DejaVuSans-6c" d="M 603 4863 
L 1178 4863 
L 1178 0 
L 603 0 
L 603 4863 
z
" transform="scale(0.015625)"/>
       <path id="DejaVuSans-6f" d="M 1959 3097 
Q 1497 3097 1228 2736 
Q 959 2375 959 1747 
Q 959 1119 1226 758 
Q 1494 397 1959 397 
Q 2419 397 2687 759 
Q 2956 1122 2956 1747 
Q 2956 2369 2687 2733 
Q 2419 3097 1959 3097 
z
M 1959 3584 
Q 2709 3584 3137 3096 
Q 3566 2609 3566 1747 
Q 3566 888 3137 398 
Q 2709 -91 1959 -91 
Q 1206 -91 779 398 
Q 353 888 353 1747 
Q 353 2609 779 3096 
Q 1206 3584 1959 3584 
z
" transform="scale(0.015625)"/>
       <path id="DejaVuSans-67" d="M 2906 1791 
Q 2906 2416 2648 2759 
Q 2391 3103 1925 3103 
Q 1463 3103 1205 2759 
Q 947 2416 947 1791 
Q 947 1169 1205 825 
Q 1463 481 1925 481 
Q 2391 481 2648 825 
Q 2906 1169 2906 1791 
z
M 3481 434 
Q 3481 -459 3084 -895 
Q 2688 -1331 1869 -1331 
Q 1566 -1331 1297 -1286 
Q 1028 -1241 775 -1147 
L 775 -588 
Q 1028 -725 1275 -790 
Q 1522 -856 1778 -856 
Q 2344 -856 2625 -561 
Q 2906 -266 2906 331 
L 2906 616 
Q 2728 306 2450 153 
Q 2172 0 1784 0 
Q 1141 0 747 490 
Q 353 981 353 1791 
Q 353 2603 747 3093 
Q 1141 3584 1784 3584 
Q 2172 3584 2450 3431 
Q 2728 3278 2906 2969 
L 2906 3500 
L 3481 3500 
L 3481 434 
z
" transform="scale(0.015625)"/>
       <path id="DejaVuSans-6d" d="M 3328 2828 
Q 3544 3216 3844 3400 
Q 4144 3584 4550 3584 
Q 5097 3584 5394 3201 
Q 5691 2819 5691 2113 
L 5691 0 
L 5113 0 
L 5113 2094 
Q 5113 2597 4934 2840 
Q 4756 3084 4391 3084 
Q 3944 3084 3684 2787 
Q 3425 2491 3425 1978 
L 3425 0 
L 2847 0 
L 2847 2094 
Q 2847 2600 2669 2842 
Q 2491 3084 2119 3084 
Q 1678 3084 1418 2786 
Q 1159 2488 1159 1978 
L 1159 0 
L 581 0 
L 581 3500 
L 1159 3500 
L 1159 2956 
Q 1356 3278 1631 3431 
Q 1906 3584 2284 3584 
Q 2666 3584 2933 3390 
Q 3200 3197 3328 2828 
z
" transform="scale(0.015625)"/>
       <path id="DejaVuSans-7a" d="M 353 3500 
L 3084 3500 
L 3084 2975 
L 922 459 
L 3084 459 
L 3084 0 
L 275 0 
L 275 525 
L 2438 3041 
L 353 3041 
L 353 3500 
z
" transform="scale(0.015625)"/>
      </defs>
      <use xlink:href="#DejaVuSans-6c" transform="translate(0 0.015625)"/>
      <use xlink:href="#DejaVuSans-6f" transform="translate(27.783203 0.015625)"/>
      <use xlink:href="#DejaVuSans-67" transform="translate(88.964844 0.015625)"/>
      <use xlink:href="#DejaVuSans-31" transform="translate(153.398438 -16.390625) scale(0.7)"/>
      <use xlink:href="#DejaVuSans-30" transform="translate(197.93457 -16.390625) scale(0.7)"/>
      <use xlink:href="#DejaVuSans-20" transform="translate(261.440754 0.015625)"/>
      <use xlink:href="#DejaVuSans-53" transform="translate(293.227864 0.015625)"/>
      <use xlink:href="#DejaVuSans-61" transform="translate(356.704426 0.015625)"/>
      <use xlink:href="#DejaVuSans-6d" transform="translate(417.983723 0.015625)"/>
      <use xlink:href="#DejaVuSans-70" transform="translate(515.395833 0.015625)"/>
      <use xlink:href="#DejaVuSans-6c" transform="translate(578.872395 0.015625)"/>
      <use xlink:href="#DejaVuSans-65" transform="translate(606.655598 0.015625)"/>
      <use xlink:href="#DejaVuSans-20" transform="translate(668.179036 0.015625)"/>
      <use xlink:href="#DejaVuSans-53" transform="translate(699.966145 0.015625)"/>
      <use xlink:href="#DejaVuSans-69" transform="translate(763.442708 0.015625)"/>
      <use xlink:href="#DejaVuSans-7a" transform="translate(791.225911 0.015625)"/>
      <use xlink:href="#DejaVuSans-65" transform="translate(843.716145 0.015625)"/>
     </g>
    </g>
   </g>
   <g id="matplotlib.axis_4">
    <g id="ytick_8">
     <g id="line2d_17">
      <g>
       <use xlink:href="#m5c82783340" x="206.174455" y="121.188274" style="stroke: #000000; stroke-width: 0.8"/>
      </g>
     </g>
     <g id="text_21">
      <!-- −1.0 -->
      <g transform="translate(183.96963 124.036549) scale(0.07497 -0.07497)">
       <use xlink:href="#DejaVuSans-2212"/>
       <use xlink:href="#DejaVuSans-31" x="83.789062"/>
       <use xlink:href="#DejaVuSans-2e" x="147.412109"/>
       <use xlink:href="#DejaVuSans-30" x="179.199219"/>
      </g>
     </g>
    </g>
    <g id="ytick_9">
     <g id="line2d_18">
      <g>
       <use xlink:href="#m5c82783340" x="206.174455" y="93.403274" style="stroke: #000000; stroke-width: 0.8"/>
      </g>
     </g>
     <g id="text_22">
      <!-- −0.5 -->
      <g transform="translate(183.96963 96.251549) scale(0.07497 -0.07497)">
       <use xlink:href="#DejaVuSans-2212"/>
       <use xlink:href="#DejaVuSans-30" x="83.789062"/>
       <use xlink:href="#DejaVuSans-2e" x="147.412109"/>
       <use xlink:href="#DejaVuSans-35" x="179.199219"/>
      </g>
     </g>
    </g>
    <g id="ytick_10">
     <g id="line2d_19">
      <g>
       <use xlink:href="#m5c82783340" x="206.174455" y="65.618274" style="stroke: #000000; stroke-width: 0.8"/>
      </g>
     </g>
     <g id="text_23">
      <!-- 0.0 -->
      <g transform="translate(190.251882 68.466549) scale(0.07497 -0.07497)">
       <use xlink:href="#DejaVuSans-30"/>
       <use xlink:href="#DejaVuSans-2e" x="63.623047"/>
       <use xlink:href="#DejaVuSans-30" x="95.410156"/>
      </g>
     </g>
    </g>
    <g id="ytick_11">
     <g id="line2d_20">
      <g>
       <use xlink:href="#m5c82783340" x="206.174455" y="37.833274" style="stroke: #000000; stroke-width: 0.8"/>
      </g>
     </g>
     <g id="text_24">
      <!-- 0.5 -->
      <g transform="translate(190.251882 40.681549) scale(0.07497 -0.07497)">
       <use xlink:href="#DejaVuSans-30"/>
       <use xlink:href="#DejaVuSans-2e" x="63.623047"/>
       <use xlink:href="#DejaVuSans-35" x="95.410156"/>
      </g>
     </g>
    </g>
    <g id="ytick_12">
     <g id="line2d_21">
      <g>
       <use xlink:href="#m5c82783340" x="206.174455" y="10.048274" style="stroke: #000000; stroke-width: 0.8"/>
      </g>
     </g>
     <g id="text_25">
      <!-- 1.0 -->
      <g transform="translate(190.251882 12.896549) scale(0.07497 -0.07497)">
       <use xlink:href="#DejaVuSans-31"/>
       <use xlink:href="#DejaVuSans-2e" x="63.623047"/>
       <use xlink:href="#DejaVuSans-30" x="95.410156"/>
      </g>
     </g>
    </g>
    <g id="text_26">
     <!-- Bias -->
     <g transform="translate(180.597912 75.057727) rotate(-90) scale(0.09 -0.09)">
      <defs>
       <path id="DejaVuSans-42" d="M 1259 2228 
L 1259 519 
L 2272 519 
Q 2781 519 3026 730 
Q 3272 941 3272 1375 
Q 3272 1813 3026 2020 
Q 2781 2228 2272 2228 
L 1259 2228 
z
M 1259 4147 
L 1259 2741 
L 2194 2741 
Q 2656 2741 2882 2914 
Q 3109 3088 3109 3444 
Q 3109 3797 2882 3972 
Q 2656 4147 2194 4147 
L 1259 4147 
z
M 628 4666 
L 2241 4666 
Q 2963 4666 3353 4366 
Q 3744 4066 3744 3513 
Q 3744 3084 3544 2831 
Q 3344 2578 2956 2516 
Q 3422 2416 3680 2098 
Q 3938 1781 3938 1306 
Q 3938 681 3513 340 
Q 3088 0 2303 0 
L 628 0 
L 628 4666 
z
" transform="scale(0.015625)"/>
       <path id="DejaVuSans-73" d="M 2834 3397 
L 2834 2853 
Q 2591 2978 2328 3040 
Q 2066 3103 1784 3103 
Q 1356 3103 1142 2972 
Q 928 2841 928 2578 
Q 928 2378 1081 2264 
Q 1234 2150 1697 2047 
L 1894 2003 
Q 2506 1872 2764 1633 
Q 3022 1394 3022 966 
Q 3022 478 2636 193 
Q 2250 -91 1575 -91 
Q 1294 -91 989 -36 
Q 684 19 347 128 
L 347 722 
Q 666 556 975 473 
Q 1284 391 1588 391 
Q 1994 391 2212 530 
Q 2431 669 2431 922 
Q 2431 1156 2273 1281 
Q 2116 1406 1581 1522 
L 1381 1569 
Q 847 1681 609 1914 
Q 372 2147 372 2553 
Q 372 3047 722 3315 
Q 1072 3584 1716 3584 
Q 2034 3584 2315 3537 
Q 2597 3491 2834 3397 
z
" transform="scale(0.015625)"/>
      </defs>
      <use xlink:href="#DejaVuSans-42"/>
      <use xlink:href="#DejaVuSans-69" x="68.603516"/>
      <use xlink:href="#DejaVuSans-61" x="96.386719"/>
      <use xlink:href="#DejaVuSans-73" x="157.666016"/>
     </g>
    </g>
   </g>
   <g id="patch_6">
    <path d="M 206.174455 121.188274 
L 206.174455 10.048274 
L 231.829895 10.048274 
L 231.829895 121.188274 
z
" clip-path="url(#p7d50b5da6e)" style="fill: #1f77b4; opacity: 0.2; stroke: #1f77b4; stroke-width: 0.8; stroke-linejoin: miter"/>
   </g>
   <g id="patch_7">
    <path d="M 231.829895 121.188274 
L 231.829895 10.048274 
L 285.051775 10.048274 
L 285.051775 121.188274 
z
" clip-path="url(#p7d50b5da6e)" style="fill: #ff7f0e; opacity: 0.2; stroke: #ff7f0e; stroke-width: 0.8; stroke-linejoin: miter"/>
   </g>
   <g id="patch_8">
    <path d="M 285.051775 121.188274 
L 285.051775 10.048274 
L 324.490435 10.048274 
L 324.490435 121.188274 
z
" clip-path="url(#p7d50b5da6e)" style="fill: #2ca02c; opacity: 0.2; stroke: #2ca02c; stroke-width: 0.8; stroke-linejoin: miter"/>
   </g>
   <g id="line2d_22">
    <path d="M 206.174455 65.618274 
L 324.490435 65.618274 
" clip-path="url(#p7d50b5da6e)" style="fill: none; stroke: #000000; stroke-width: 1.3; stroke-linecap: round"/>
   </g>
   <g id="line2d_23">
    <path d="M 206.174455 65.509547 
L 211.937549 64.658105 
L 218.046675 65.068815 
L 224.410812 61.851849 
L 230.754572 64.963135 
L 237.146811 68.285506 
L 243.423586 65.640815 
L 249.706995 66.468364 
L 255.963834 66.34831 
L 262.175607 65.851074 
L 268.43387 65.451095 
L 274.655606 66.279955 
L 280.883742 65.164054 
L 287.114776 66.047556 
L 293.346456 65.758969 
L 299.576516 65.577388 
L 305.804793 65.626079 
L 312.032824 65.446556 
L 318.260992 65.681518 
L 324.490435 65.722846 
" clip-path="url(#p7d50b5da6e)" style="fill: none; stroke: #1f77b4; stroke-width: 2; stroke-linecap: round"/>
   </g>
   <g id="line2d_24">
    <path d="M 210.15732 -1 
L 211.937549 8.243703 
L 218.046675 29.813691 
L 224.410812 40.127914 
L 230.754572 51.518702 
L 237.146811 59.728321 
L 243.423586 60.100658 
L 249.706995 62.830839 
L 255.963834 63.930607 
L 262.175607 64.213224 
L 268.43387 64.344868 
L 274.655606 65.513314 
L 280.883742 64.64049 
L 287.114776 65.686521 
L 293.346456 65.508634 
L 299.576516 65.404558 
L 305.804793 65.505978 
L 312.032824 65.363442 
L 318.260992 65.623768 
L 324.490435 65.68271 
" clip-path="url(#p7d50b5da6e)" style="fill: none; stroke: #ff7f0e; stroke-linecap: round"/>
   </g>
   <g id="line2d_25">
    <path d="M 206.174455 73.138168 
L 211.937549 68.349402 
L 218.046675 66.390353 
L 224.410812 62.252037 
L 230.754572 64.713643 
L 237.146811 67.727458 
L 243.423586 65.214986 
L 249.706995 66.102809 
L 255.963834 66.072426 
L 262.175607 65.648007 
L 268.43387 65.309204 
L 274.655606 66.16969 
L 280.883742 65.091183 
L 287.114776 65.994222 
L 293.346456 65.721588 
L 299.576516 65.551677 
L 305.804793 65.607945 
L 312.032824 65.434111 
L 318.260992 65.672739 
L 324.490435 65.716708 
" clip-path="url(#p7d50b5da6e)" style="fill: none; stroke: #2ca02c; stroke-linecap: round"/>
   </g>
   <g id="line2d_26">
    <path d="M 206.174455 24.086804 
L 211.937549 25.474634 
L 218.046675 29.246075 
L 224.410812 29.416337 
L 230.754572 40.16979 
L 237.146811 51.169151 
L 243.423586 52.913244 
L 249.706995 57.315492 
L 255.963834 60.793715 
L 262.175607 62.417537 
L 268.43387 62.963488 
L 274.655606 64.928383 
L 280.883742 64.446212 
L 287.114776 66.340194 
L 293.346456 65.368772 
L 299.576516 65.262872 
L 305.804793 66.055855 
L 312.032824 65.56134 
L 318.260992 65.636901 
L 324.490435 65.687954 
" clip-path="url(#p7d50b5da6e)" style="fill: none; stroke: #d62728; stroke-linecap: round"/>
   </g>
   <g id="patch_9">
    <path d="M 206.174455 121.188274 
L 206.174455 10.048274 
" style="fill: none; stroke: #000000; stroke-linejoin: miter; stroke-linecap: square"/>
   </g>
   <g id="patch_10">
    <path d="M 206.174455 121.188274 
L 324.490435 121.188274 
" style="fill: none; stroke: #000000; stroke-linejoin: miter; stroke-linecap: square"/>
   </g>
   <g id="text_27">
    <!-- B -->
    <g transform="translate(173.04598 17.998268) scale(0.09 -0.09)">
     <defs>
      <path id="DejaVuSans-Bold-42" d="M 2456 2859 
Q 2741 2859 2887 2984 
Q 3034 3109 3034 3353 
Q 3034 3594 2887 3720 
Q 2741 3847 2456 3847 
L 1791 3847 
L 1791 2859 
L 2456 2859 
z
M 2497 819 
Q 2859 819 3042 972 
Q 3225 1125 3225 1434 
Q 3225 1738 3044 1889 
Q 2863 2041 2497 2041 
L 1791 2041 
L 1791 819 
L 2497 819 
z
M 3616 2497 
Q 4003 2384 4215 2081 
Q 4428 1778 4428 1338 
Q 4428 663 3972 331 
Q 3516 0 2584 0 
L 588 0 
L 588 4666 
L 2394 4666 
Q 3366 4666 3802 4372 
Q 4238 4078 4238 3431 
Q 4238 3091 4078 2852 
Q 3919 2613 3616 2497 
z
" transform="scale(0.015625)"/>
     </defs>
     <use xlink:href="#DejaVuSans-Bold-42"/>
    </g>
   </g>
   <g id="legend_1">
    <g id="patch_11">
     <path d="M 228.915492 118.938274 
L 301.749398 118.938274 
Q 303.549398 118.938274 303.549398 117.138274 
L 303.549398 71.947024 
Q 303.549398 70.147024 301.749398 70.147024 
L 228.915492 70.147024 
Q 227.115492 70.147024 227.115492 71.947024 
L 227.115492 117.138274 
Q 227.115492 118.938274 228.915492 118.938274 
z
" style="fill: #ffffff; opacity: 0.8; stroke: #cccccc; stroke-width: 0.8; stroke-linejoin: miter"/>
    </g>
    <g id="line2d_27">
     <path d="M 230.715492 77.435618 
L 236.340492 77.435618 
L 241.965492 77.435618 
" style="fill: none; stroke: #1f77b4; stroke-width: 2; stroke-linecap: round"/>
    </g>
    <g id="text_28">
     <!-- Unbiased -->
     <g transform="translate(246.465492 80.585618) scale(0.09 -0.09)">
      <defs>
       <path id="DejaVuSans-55" d="M 556 4666 
L 1191 4666 
L 1191 1831 
Q 1191 1081 1462 751 
Q 1734 422 2344 422 
Q 2950 422 3222 751 
Q 3494 1081 3494 1831 
L 3494 4666 
L 4128 4666 
L 4128 1753 
Q 4128 841 3676 375 
Q 3225 -91 2344 -91 
Q 1459 -91 1007 375 
Q 556 841 556 1753 
L 556 4666 
z
" transform="scale(0.015625)"/>
       <path id="DejaVuSans-62" d="M 3116 1747 
Q 3116 2381 2855 2742 
Q 2594 3103 2138 3103 
Q 1681 3103 1420 2742 
Q 1159 2381 1159 1747 
Q 1159 1113 1420 752 
Q 1681 391 2138 391 
Q 2594 391 2855 752 
Q 3116 1113 3116 1747 
z
M 1159 2969 
Q 1341 3281 1617 3432 
Q 1894 3584 2278 3584 
Q 2916 3584 3314 3078 
Q 3713 2572 3713 1747 
Q 3713 922 3314 415 
Q 2916 -91 2278 -91 
Q 1894 -91 1617 61 
Q 1341 213 1159 525 
L 1159 0 
L 581 0 
L 581 4863 
L 1159 4863 
L 1159 2969 
z
" transform="scale(0.015625)"/>
       <path id="DejaVuSans-64" d="M 2906 2969 
L 2906 4863 
L 3481 4863 
L 3481 0 
L 2906 0 
L 2906 525 
Q 2725 213 2448 61 
Q 2172 -91 1784 -91 
Q 1150 -91 751 415 
Q 353 922 353 1747 
Q 353 2572 751 3078 
Q 1150 3584 1784 3584 
Q 2172 3584 2448 3432 
Q 2725 3281 2906 2969 
z
M 947 1747 
Q 947 1113 1208 752 
Q 1469 391 1925 391 
Q 2381 391 2643 752 
Q 2906 1113 2906 1747 
Q 2906 2381 2643 2742 
Q 2381 3103 1925 3103 
Q 1469 3103 1208 2742 
Q 947 2381 947 1747 
z
" transform="scale(0.015625)"/>
      </defs>
      <use xlink:href="#DejaVuSans-55"/>
      <use xlink:href="#DejaVuSans-6e" x="73.193359"/>
      <use xlink:href="#DejaVuSans-62" x="136.572266"/>
      <use xlink:href="#DejaVuSans-69" x="200.048828"/>
      <use xlink:href="#DejaVuSans-61" x="227.832031"/>
      <use xlink:href="#DejaVuSans-73" x="289.111328"/>
      <use xlink:href="#DejaVuSans-65" x="341.210938"/>
      <use xlink:href="#DejaVuSans-64" x="402.734375"/>
     </g>
    </g>
    <g id="line2d_28">
     <path d="M 230.715492 88.395931 
L 236.340492 88.395931 
L 241.965492 88.395931 
" style="fill: none; stroke: #ff7f0e; stroke-linecap: round"/>
    </g>
    <g id="text_29">
     <!-- Plugin -->
     <g transform="translate(246.465492 91.545931) scale(0.09 -0.09)">
      <defs>
       <path id="DejaVuSans-50" d="M 1259 4147 
L 1259 2394 
L 2053 2394 
Q 2494 2394 2734 2622 
Q 2975 2850 2975 3272 
Q 2975 3691 2734 3919 
Q 2494 4147 2053 4147 
L 1259 4147 
z
M 628 4666 
L 2053 4666 
Q 2838 4666 3239 4311 
Q 3641 3956 3641 3272 
Q 3641 2581 3239 2228 
Q 2838 1875 2053 1875 
L 1259 1875 
L 1259 0 
L 628 0 
L 628 4666 
z
" transform="scale(0.015625)"/>
      </defs>
      <use xlink:href="#DejaVuSans-50"/>
      <use xlink:href="#DejaVuSans-6c" x="60.302734"/>
      <use xlink:href="#DejaVuSans-75" x="88.085938"/>
      <use xlink:href="#DejaVuSans-67" x="151.464844"/>
      <use xlink:href="#DejaVuSans-69" x="214.941406"/>
      <use xlink:href="#DejaVuSans-6e" x="242.724609"/>
     </g>
    </g>
    <g id="line2d_29">
     <path d="M 230.715492 99.356243 
L 236.340492 99.356243 
L 241.965492 99.356243 
" style="fill: none; stroke: #2ca02c; stroke-linecap: round"/>
    </g>
    <g id="text_30">
     <!-- Grundmann -->
     <g transform="translate(246.465492 102.506243) scale(0.09 -0.09)">
      <defs>
       <path id="DejaVuSans-47" d="M 3809 666 
L 3809 1919 
L 2778 1919 
L 2778 2438 
L 4434 2438 
L 4434 434 
Q 4069 175 3628 42 
Q 3188 -91 2688 -91 
Q 1594 -91 976 548 
Q 359 1188 359 2328 
Q 359 3472 976 4111 
Q 1594 4750 2688 4750 
Q 3144 4750 3555 4637 
Q 3966 4525 4313 4306 
L 4313 3634 
Q 3963 3931 3569 4081 
Q 3175 4231 2741 4231 
Q 1884 4231 1454 3753 
Q 1025 3275 1025 2328 
Q 1025 1384 1454 906 
Q 1884 428 2741 428 
Q 3075 428 3337 486 
Q 3600 544 3809 666 
z
" transform="scale(0.015625)"/>
      </defs>
      <use xlink:href="#DejaVuSans-47"/>
      <use xlink:href="#DejaVuSans-72" x="77.490234"/>
      <use xlink:href="#DejaVuSans-75" x="118.603516"/>
      <use xlink:href="#DejaVuSans-6e" x="181.982422"/>
      <use xlink:href="#DejaVuSans-64" x="245.361328"/>
      <use xlink:href="#DejaVuSans-6d" x="308.837891"/>
      <use xlink:href="#DejaVuSans-61" x="406.25"/>
      <use xlink:href="#DejaVuSans-6e" x="467.529297"/>
      <use xlink:href="#DejaVuSans-6e" x="530.908203"/>
     </g>
    </g>
    <g id="line2d_30">
     <path d="M 230.715492 110.316556 
L 236.340492 110.316556 
L 241.965492 110.316556 
" style="fill: none; stroke: #d62728; stroke-linecap: round"/>
    </g>
    <g id="text_31">
     <!-- Chao -->
     <g transform="translate(246.465492 113.466556) scale(0.09 -0.09)">
      <defs>
       <path id="DejaVuSans-43" d="M 4122 4306 
L 4122 3641 
Q 3803 3938 3442 4084 
Q 3081 4231 2675 4231 
Q 1875 4231 1450 3742 
Q 1025 3253 1025 2328 
Q 1025 1406 1450 917 
Q 1875 428 2675 428 
Q 3081 428 3442 575 
Q 3803 722 4122 1019 
L 4122 359 
Q 3791 134 3420 21 
Q 3050 -91 2638 -91 
Q 1578 -91 968 557 
Q 359 1206 359 2328 
Q 359 3453 968 4101 
Q 1578 4750 2638 4750 
Q 3056 4750 3426 4639 
Q 3797 4528 4122 4306 
z
" transform="scale(0.015625)"/>
       <path id="DejaVuSans-68" d="M 3513 2113 
L 3513 0 
L 2938 0 
L 2938 2094 
Q 2938 2591 2744 2837 
Q 2550 3084 2163 3084 
Q 1697 3084 1428 2787 
Q 1159 2491 1159 1978 
L 1159 0 
L 581 0 
L 581 4863 
L 1159 4863 
L 1159 2956 
Q 1366 3272 1645 3428 
Q 1925 3584 2291 3584 
Q 2894 3584 3203 3211 
Q 3513 2838 3513 2113 
z
" transform="scale(0.015625)"/>
      </defs>
      <use xlink:href="#DejaVuSans-43"/>
      <use xlink:href="#DejaVuSans-68" x="69.824219"/>
      <use xlink:href="#DejaVuSans-61" x="133.203125"/>
      <use xlink:href="#DejaVuSans-6f" x="194.482422"/>
     </g>
    </g>
   </g>
  </g>
  <g id="axes_3">
   <g id="patch_12">
    <path d="M 372.020435 121.188274 
L 490.336416 121.188274 
L 490.336416 10.048274 
L 372.020435 10.048274 
z
" style="fill: #ffffff"/>
   </g>
   <g id="matplotlib.axis_5">
    <g id="xtick_9">
     <g id="line2d_31">
      <g>
       <use xlink:href="#mb893e18311" x="372.020435" y="121.188274" style="stroke: #000000; stroke-width: 0.8"/>
      </g>
     </g>
     <g id="text_32">
      <!-- 1 -->
      <g transform="translate(369.635452 130.884823) scale(0.07497 -0.07497)">
       <use xlink:href="#DejaVuSans-31"/>
      </g>
     </g>
    </g>
    <g id="xtick_10">
     <g id="line2d_32">
      <g>
       <use xlink:href="#mb893e18311" x="411.459095" y="121.188274" style="stroke: #000000; stroke-width: 0.8"/>
      </g>
     </g>
     <g id="text_33">
      <!-- 2 -->
      <g transform="translate(409.074112 130.884823) scale(0.07497 -0.07497)">
       <use xlink:href="#DejaVuSans-32"/>
      </g>
     </g>
    </g>
    <g id="xtick_11">
     <g id="line2d_33">
      <g>
       <use xlink:href="#mb893e18311" x="450.897756" y="121.188274" style="stroke: #000000; stroke-width: 0.8"/>
      </g>
     </g>
     <g id="text_34">
      <!-- 3 -->
      <g transform="translate(448.512772 130.884823) scale(0.07497 -0.07497)">
       <use xlink:href="#DejaVuSans-33"/>
      </g>
     </g>
    </g>
    <g id="xtick_12">
     <g id="line2d_34">
      <g>
       <use xlink:href="#mb893e18311" x="490.336416" y="121.188274" style="stroke: #000000; stroke-width: 0.8"/>
      </g>
     </g>
     <g id="text_35">
      <!-- 4 -->
      <g transform="translate(487.951433 130.884823) scale(0.07497 -0.07497)">
       <use xlink:href="#DejaVuSans-34"/>
      </g>
     </g>
    </g>
    <g id="text_36">
     <!-- $\log_{10}$ Sample Size -->
     <g transform="translate(390.408425 140.783965) scale(0.09 -0.09)">
      <use xlink:href="#DejaVuSans-6c" transform="translate(0 0.015625)"/>
      <use xlink:href="#DejaVuSans-6f" transform="translate(27.783203 0.015625)"/>
      <use xlink:href="#DejaVuSans-67" transform="translate(88.964844 0.015625)"/>
      <use xlink:href="#DejaVuSans-31" transform="translate(153.398438 -16.390625) scale(0.7)"/>
      <use xlink:href="#DejaVuSans-30" transform="translate(197.93457 -16.390625) scale(0.7)"/>
      <use xlink:href="#DejaVuSans-20" transform="translate(261.440754 0.015625)"/>
      <use xlink:href="#DejaVuSans-53" transform="translate(293.227864 0.015625)"/>
      <use xlink:href="#DejaVuSans-61" transform="translate(356.704426 0.015625)"/>
      <use xlink:href="#DejaVuSans-6d" transform="translate(417.983723 0.015625)"/>
      <use xlink:href="#DejaVuSans-70" transform="translate(515.395833 0.015625)"/>
      <use xlink:href="#DejaVuSans-6c" transform="translate(578.872395 0.015625)"/>
      <use xlink:href="#DejaVuSans-65" transform="translate(606.655598 0.015625)"/>
      <use xlink:href="#DejaVuSans-20" transform="translate(668.179036 0.015625)"/>
      <use xlink:href="#DejaVuSans-53" transform="translate(699.966145 0.015625)"/>
      <use xlink:href="#DejaVuSans-69" transform="translate(763.442708 0.015625)"/>
      <use xlink:href="#DejaVuSans-7a" transform="translate(791.225911 0.015625)"/>
      <use xlink:href="#DejaVuSans-65" transform="translate(843.716145 0.015625)"/>
     </g>
    </g>
   </g>
   <g id="matplotlib.axis_6">
    <g id="ytick_13">
     <g id="line2d_35">
      <g>
       <use xlink:href="#m5c82783340" x="372.020435" y="121.188274" style="stroke: #000000; stroke-width: 0.8"/>
      </g>
     </g>
     <g id="text_37">
      <!-- 0.0 -->
      <g transform="translate(356.097862 124.036549) scale(0.07497 -0.07497)">
       <use xlink:href="#DejaVuSans-30"/>
       <use xlink:href="#DejaVuSans-2e" x="63.623047"/>
       <use xlink:href="#DejaVuSans-30" x="95.410156"/>
      </g>
     </g>
    </g>
    <g id="ytick_14">
     <g id="line2d_36">
      <g>
       <use xlink:href="#m5c82783340" x="372.020435" y="93.403274" style="stroke: #000000; stroke-width: 0.8"/>
      </g>
     </g>
     <g id="text_38">
      <!-- 0.5 -->
      <g transform="translate(356.097862 96.251549) scale(0.07497 -0.07497)">
       <use xlink:href="#DejaVuSans-30"/>
       <use xlink:href="#DejaVuSans-2e" x="63.623047"/>
       <use xlink:href="#DejaVuSans-35" x="95.410156"/>
      </g>
     </g>
    </g>
    <g id="ytick_15">
     <g id="line2d_37">
      <g>
       <use xlink:href="#m5c82783340" x="372.020435" y="65.618274" style="stroke: #000000; stroke-width: 0.8"/>
      </g>
     </g>
     <g id="text_39">
      <!-- 1.0 -->
      <g transform="translate(356.097862 68.466549) scale(0.07497 -0.07497)">
       <use xlink:href="#DejaVuSans-31"/>
       <use xlink:href="#DejaVuSans-2e" x="63.623047"/>
       <use xlink:href="#DejaVuSans-30" x="95.410156"/>
      </g>
     </g>
    </g>
    <g id="ytick_16">
     <g id="line2d_38">
      <g>
       <use xlink:href="#m5c82783340" x="372.020435" y="37.833274" style="stroke: #000000; stroke-width: 0.8"/>
      </g>
     </g>
     <g id="text_40">
      <!-- 1.5 -->
      <g transform="translate(356.097862 40.681549) scale(0.07497 -0.07497)">
       <use xlink:href="#DejaVuSans-31"/>
       <use xlink:href="#DejaVuSans-2e" x="63.623047"/>
       <use xlink:href="#DejaVuSans-35" x="95.410156"/>
      </g>
     </g>
    </g>
    <g id="ytick_17">
     <g id="line2d_39">
      <g>
       <use xlink:href="#m5c82783340" x="372.020435" y="10.048274" style="stroke: #000000; stroke-width: 0.8"/>
      </g>
     </g>
     <g id="text_41">
      <!-- 2.0 -->
      <g transform="translate(356.097862 12.896549) scale(0.07497 -0.07497)">
       <use xlink:href="#DejaVuSans-32"/>
       <use xlink:href="#DejaVuSans-2e" x="63.623047"/>
       <use xlink:href="#DejaVuSans-30" x="95.410156"/>
      </g>
     </g>
    </g>
    <g id="text_42">
     <!-- Variance -->
     <g transform="translate(352.726144 85.058274) rotate(-90) scale(0.09 -0.09)">
      <defs>
       <path id="DejaVuSans-56" d="M 1831 0 
L 50 4666 
L 709 4666 
L 2188 738 
L 3669 4666 
L 4325 4666 
L 2547 0 
L 1831 0 
z
" transform="scale(0.015625)"/>
      </defs>
      <use xlink:href="#DejaVuSans-56"/>
      <use xlink:href="#DejaVuSans-61" x="60.658203"/>
      <use xlink:href="#DejaVuSans-72" x="121.9375"/>
      <use xlink:href="#DejaVuSans-69" x="163.050781"/>
      <use xlink:href="#DejaVuSans-61" x="190.833984"/>
      <use xlink:href="#DejaVuSans-6e" x="252.113281"/>
      <use xlink:href="#DejaVuSans-63" x="315.492188"/>
      <use xlink:href="#DejaVuSans-65" x="370.472656"/>
     </g>
    </g>
   </g>
   <g id="patch_13">
    <path d="M 372.020435 121.188274 
L 372.020435 10.048274 
L 397.675875 10.048274 
L 397.675875 121.188274 
z
" clip-path="url(#pcdfed2f18e)" style="fill: #1f77b4; opacity: 0.2; stroke: #1f77b4; stroke-width: 0.8; stroke-linejoin: miter"/>
   </g>
   <g id="patch_14">
    <path d="M 397.675875 121.188274 
L 397.675875 10.048274 
L 450.897756 10.048274 
L 450.897756 121.188274 
z
" clip-path="url(#pcdfed2f18e)" style="fill: #ff7f0e; opacity: 0.2; stroke: #ff7f0e; stroke-width: 0.8; stroke-linejoin: miter"/>
   </g>
   <g id="patch_15">
    <path d="M 450.897756 121.188274 
L 450.897756 10.048274 
L 490.336416 10.048274 
L 490.336416 121.188274 
z
" clip-path="url(#pcdfed2f18e)" style="fill: #2ca02c; opacity: 0.2; stroke: #2ca02c; stroke-width: 0.8; stroke-linejoin: miter"/>
   </g>
   <g id="line2d_40">
    <path d="M 385.570867 -1 
L 390.256793 26.147026 
L 396.600552 58.445533 
L 402.992792 84.269356 
L 409.269566 92.989603 
L 415.552975 101.435322 
L 421.809815 108.799116 
L 428.021587 112.444202 
L 434.279851 114.49744 
L 440.501587 117.243353 
L 446.729723 117.975237 
L 452.960756 119.187313 
L 459.192436 119.738103 
L 465.422497 120.179997 
L 471.650773 120.473584 
L 477.878805 120.69154 
L 484.106972 120.867574 
L 490.336416 120.969035 
" clip-path="url(#pcdfed2f18e)" style="fill: none; stroke: #1f77b4; stroke-width: 2; stroke-linecap: round"/>
   </g>
   <g id="line2d_41">
    <path d="M 382.277866 -1 
L 383.892655 15.587027 
L 390.256793 37.899208 
L 396.600552 63.271704 
L 402.992792 85.942908 
L 409.269566 93.826925 
L 415.552975 101.853263 
L 421.809815 108.943358 
L 428.021587 112.512516 
L 434.279851 114.529356 
L 440.501587 117.257092 
L 446.729723 117.982929 
L 452.960756 119.190594 
L 459.192436 119.739392 
L 465.422497 120.180691 
L 471.650773 120.473918 
L 477.878805 120.691738 
L 484.106972 120.86765 
L 490.336416 120.969069 
" clip-path="url(#pcdfed2f18e)" style="fill: none; stroke: #ff7f0e; stroke-linecap: round"/>
   </g>
   <g id="line2d_42">
    <path d="M 380.421868 -1 
L 383.892655 29.3346 
L 390.256793 46.267622 
L 396.600552 67.643912 
L 402.992792 87.942357 
L 409.269566 94.939648 
L 415.552975 102.398027 
L 421.809815 109.202595 
L 428.021587 112.642151 
L 434.279851 114.600765 
L 440.501587 117.286157 
L 446.729723 117.999472 
L 452.960756 119.197792 
L 459.192436 119.743204 
L 465.422497 120.182499 
L 471.650773 120.474813 
L 477.878805 120.692153 
L 484.106972 120.867843 
L 490.336416 120.969162 
" clip-path="url(#pcdfed2f18e)" style="fill: none; stroke: #2ca02c; stroke-linecap: round"/>
   </g>
   <g id="line2d_43">
    <path d="M 391.878885 -1 
L 396.600552 37.811591 
L 402.992792 77.632931 
L 409.269566 87.64671 
L 415.552975 98.772409 
L 421.809815 107.414325 
L 428.021587 111.991462 
L 434.279851 113.655349 
L 440.501587 116.528891 
L 446.729723 117.118487 
L 452.960756 118.679477 
L 459.192436 119.11193 
L 465.422497 119.575593 
L 471.650773 120.028198 
L 477.878805 120.172298 
L 484.106972 120.308814 
L 490.336416 120.416516 
" clip-path="url(#pcdfed2f18e)" style="fill: none; stroke: #d62728; stroke-linecap: round"/>
   </g>
   <g id="patch_16">
    <path d="M 372.020435 121.188274 
L 372.020435 10.048274 
" style="fill: none; stroke: #000000; stroke-linejoin: miter; stroke-linecap: square"/>
   </g>
   <g id="patch_17">
    <path d="M 372.020435 121.188274 
L 490.336416 121.188274 
" style="fill: none; stroke: #000000; stroke-linejoin: miter; stroke-linecap: square"/>
   </g>
   <g id="text_43">
    <!-- C -->
    <g transform="translate(338.891961 17.998268) scale(0.09 -0.09)">
     <defs>
      <path id="DejaVuSans-Bold-43" d="M 4288 256 
Q 3956 84 3597 -3 
Q 3238 -91 2847 -91 
Q 1681 -91 1000 561 
Q 319 1213 319 2328 
Q 319 3447 1000 4098 
Q 1681 4750 2847 4750 
Q 3238 4750 3597 4662 
Q 3956 4575 4288 4403 
L 4288 3438 
Q 3953 3666 3628 3772 
Q 3303 3878 2944 3878 
Q 2300 3878 1931 3465 
Q 1563 3053 1563 2328 
Q 1563 1606 1931 1193 
Q 2300 781 2944 781 
Q 3303 781 3628 887 
Q 3953 994 4288 1222 
L 4288 256 
z
" transform="scale(0.015625)"/>
     </defs>
     <use xlink:href="#DejaVuSans-Bold-43"/>
    </g>
   </g>
  </g>
 </g>
 <defs>
  <clipPath id="p911f0bdac5">
   <rect x="40.328475" y="10.048274" width="118.31598" height="111.14"/>
  </clipPath>
  <clipPath id="p7d50b5da6e">
   <rect x="206.174455" y="10.048274" width="118.31598" height="111.14"/>
  </clipPath>
  <clipPath id="pcdfed2f18e">
   <rect x="372.020435" y="10.048274" width="118.31598" height="111.14"/>
  </clipPath>
 </defs>
</svg>
