<?xml version="1.0" encoding="utf-8" standalone="no"?>
<!DOCTYPE svg PUBLIC "-//W3C//DTD SVG 1.1//EN"
  "http://www.w3.org/Graphics/SVG/1.1/DTD/svg11.dtd">
<svg xmlns:xlink="http://www.w3.org/1999/xlink" width="499.921399pt" height="149.873965pt" viewBox="0 0 499.921399 149.873965" xmlns="http://www.w3.org/2000/svg" version="1.1">
 <metadata>
  <rdf:RDF xmlns:dc="http://purl.org/dc/elements/1.1/" xmlns:cc="http://creativecommons.org/ns#" xmlns:rdf="http://www.w3.org/1999/02/22-rdf-syntax-ns#">
   <cc:Work>
    <dc:type rdf:resource="http://purl.org/dc/dcmitype/StillImage"/>
    <dc:date>2024-06-04T15:56:11.598711</dc:date>
    <dc:format>image/svg+xml</dc:format>
    <dc:creator>
     <cc:Agent>
      <dc:title>Matplotlib v3.7.1, https://matplotlib.org/</dc:title>
     </cc:Agent>
    </dc:creator>
   </cc:Work>
  </rdf:RDF>
 </metadata>
 <defs>
  <style type="text/css">*{stroke-linejoin: round; stroke-linecap: butt}</style>
 </defs>
 <g id="figure_1">
  <g id="patch_1">
   <path d="M 0 149.873965 
L 499.921399 149.873965 
L 499.921399 0 
L 0 0 
L 0 149.873965 
z
" style="fill: none"/>
  </g>
  <g id="axes_1">
   <g id="patch_2">
    <path d="M 40.328475 121.188274 
L 158.644455 121.188274 
L 158.644455 10.048274 
L 40.328475 10.048274 
z
" style="fill: #ffffff"/>
   </g>
   <g id="matplotlib.axis_1">
    <g id="xtick_1">
     <g id="line2d_1">
      <defs>
       <path id="m68684ee765" d="M 0 2 
L 0 -2 
" style="stroke: #000000; stroke-width: 0.8"/>
      </defs>
      <g>
       <use xlink:href="#m68684ee765" x="47.171546" y="121.188274" style="stroke: #000000; stroke-width: 0.8"/>
      </g>
     </g>
     <g id="text_1">
      <!-- −5 -->
      <g transform="translate(41.645437 130.884823) scale(0.07497 -0.07497)">
       <defs>
        <path id="DejaVuSans-2212" d="M 678 2272 
L 4684 2272 
L 4684 1741 
L 678 1741 
L 678 2272 
z
" transform="scale(0.015625)"/>
        <path id="DejaVuSans-35" d="M 691 4666 
L 3169 4666 
L 3169 4134 
L 1269 4134 
L 1269 2991 
Q 1406 3038 1543 3061 
Q 1681 3084 1819 3084 
Q 2600 3084 3056 2656 
Q 3513 2228 3513 1497 
Q 3513 744 3044 326 
Q 2575 -91 1722 -91 
Q 1428 -91 1123 -41 
Q 819 9 494 109 
L 494 744 
Q 775 591 1075 516 
Q 1375 441 1709 441 
Q 2250 441 2565 725 
Q 2881 1009 2881 1497 
Q 2881 1984 2565 2268 
Q 2250 2553 1709 2553 
Q 1456 2553 1204 2497 
Q 953 2441 691 2322 
L 691 4666 
z
" transform="scale(0.015625)"/>
       </defs>
       <use xlink:href="#DejaVuSans-2212"/>
       <use xlink:href="#DejaVuSans-35" x="83.789062"/>
      </g>
     </g>
    </g>
    <g id="xtick_2">
     <g id="line2d_2">
      <g>
       <use xlink:href="#m68684ee765" x="80.992926" y="121.188274" style="stroke: #000000; stroke-width: 0.8"/>
      </g>
     </g>
     <g id="text_2">
      <!-- −4 -->
      <g transform="translate(75.466817 130.884823) scale(0.07497 -0.07497)">
       <defs>
        <path id="DejaVuSans-34" d="M 2419 4116 
L 825 1625 
L 2419 1625 
L 2419 4116 
z
M 2253 4666 
L 3047 4666 
L 3047 1625 
L 3713 1625 
L 3713 1100 
L 3047 1100 
L 3047 0 
L 2419 0 
L 2419 1100 
L 313 1100 
L 313 1709 
L 2253 4666 
z
" transform="scale(0.015625)"/>
       </defs>
       <use xlink:href="#DejaVuSans-2212"/>
       <use xlink:href="#DejaVuSans-34" x="83.789062"/>
      </g>
     </g>
    </g>
    <g id="xtick_3">
     <g id="line2d_3">
      <g>
       <use xlink:href="#m68684ee765" x="114.814307" y="121.188274" style="stroke: #000000; stroke-width: 0.8"/>
      </g>
     </g>
     <g id="text_3">
      <!-- −3 -->
      <g transform="translate(109.288198 130.884823) scale(0.07497 -0.07497)">
       <defs>
        <path id="DejaVuSans-33" d="M 2597 2516 
Q 3050 2419 3304 2112 
Q 3559 1806 3559 1356 
Q 3559 666 3084 287 
Q 2609 -91 1734 -91 
Q 1441 -91 1130 -33 
Q 819 25 488 141 
L 488 750 
Q 750 597 1062 519 
Q 1375 441 1716 441 
Q 2309 441 2620 675 
Q 2931 909 2931 1356 
Q 2931 1769 2642 2001 
Q 2353 2234 1838 2234 
L 1294 2234 
L 1294 2753 
L 1863 2753 
Q 2328 2753 2575 2939 
Q 2822 3125 2822 3475 
Q 2822 3834 2567 4026 
Q 2313 4219 1838 4219 
Q 1578 4219 1281 4162 
Q 984 4106 628 3988 
L 628 4550 
Q 988 4650 1302 4700 
Q 1616 4750 1894 4750 
Q 2613 4750 3031 4423 
Q 3450 4097 3450 3541 
Q 3450 3153 3228 2886 
Q 3006 2619 2597 2516 
z
" transform="scale(0.015625)"/>
       </defs>
       <use xlink:href="#DejaVuSans-2212"/>
       <use xlink:href="#DejaVuSans-33" x="83.789062"/>
      </g>
     </g>
    </g>
    <g id="xtick_4">
     <g id="line2d_4">
      <g>
       <use xlink:href="#m68684ee765" x="148.635687" y="121.188274" style="stroke: #000000; stroke-width: 0.8"/>
      </g>
     </g>
     <g id="text_4">
      <!-- −2 -->
      <g transform="translate(143.109578 130.884823) scale(0.07497 -0.07497)">
       <defs>
        <path id="DejaVuSans-32" d="M 1228 531 
L 3431 531 
L 3431 0 
L 469 0 
L 469 531 
Q 828 903 1448 1529 
Q 2069 2156 2228 2338 
Q 2531 2678 2651 2914 
Q 2772 3150 2772 3378 
Q 2772 3750 2511 3984 
Q 2250 4219 1831 4219 
Q 1534 4219 1204 4116 
Q 875 4013 500 3803 
L 500 4441 
Q 881 4594 1212 4672 
Q 1544 4750 1819 4750 
Q 2544 4750 2975 4387 
Q 3406 4025 3406 3419 
Q 3406 3131 3298 2873 
Q 3191 2616 2906 2266 
Q 2828 2175 2409 1742 
Q 1991 1309 1228 531 
z
" transform="scale(0.015625)"/>
       </defs>
       <use xlink:href="#DejaVuSans-2212"/>
       <use xlink:href="#DejaVuSans-32" x="83.789062"/>
      </g>
     </g>
    </g>
    <g id="text_5">
     <!-- $log_{10}$ Frequency -->
     <g transform="translate(63.351465 140.783965) scale(0.09 -0.09)">
      <defs>
       <path id="DejaVuSans-Oblique-6c" d="M 1172 4863 
L 1747 4863 
L 800 0 
L 225 0 
L 1172 4863 
z
" transform="scale(0.015625)"/>
       <path id="DejaVuSans-Oblique-6f" d="M 1625 -91 
Q 1009 -91 651 289 
Q 294 669 294 1325 
Q 294 1706 417 2101 
Q 541 2497 738 2766 
Q 1047 3184 1428 3384 
Q 1809 3584 2291 3584 
Q 2888 3584 3255 3212 
Q 3622 2841 3622 2241 
Q 3622 1825 3500 1412 
Q 3378 1000 3181 728 
Q 2875 309 2494 109 
Q 2113 -91 1625 -91 
z
M 891 1344 
Q 891 869 1089 633 
Q 1288 397 1691 397 
Q 2269 397 2648 901 
Q 3028 1406 3028 2181 
Q 3028 2634 2825 2865 
Q 2622 3097 2228 3097 
Q 1903 3097 1650 2945 
Q 1397 2794 1197 2484 
Q 1050 2253 970 1956 
Q 891 1659 891 1344 
z
" transform="scale(0.015625)"/>
       <path id="DejaVuSans-Oblique-67" d="M 3816 3500 
L 3219 434 
Q 3047 -456 2561 -893 
Q 2075 -1331 1253 -1331 
Q 950 -1331 690 -1286 
Q 431 -1241 206 -1147 
L 313 -588 
Q 525 -725 762 -790 
Q 1000 -856 1269 -856 
Q 1816 -856 2167 -557 
Q 2519 -259 2631 300 
L 2681 563 
Q 2441 288 2122 144 
Q 1803 0 1434 0 
Q 903 0 598 351 
Q 294 703 294 1319 
Q 294 1803 478 2267 
Q 663 2731 997 3091 
Q 1219 3328 1514 3456 
Q 1809 3584 2131 3584 
Q 2484 3584 2746 3420 
Q 3009 3256 3138 2956 
L 3238 3500 
L 3816 3500 
z
M 2950 2216 
Q 2950 2641 2750 2872 
Q 2550 3103 2181 3103 
Q 1953 3103 1747 3012 
Q 1541 2922 1394 2759 
Q 1156 2491 1023 2127 
Q 891 1763 891 1375 
Q 891 944 1092 712 
Q 1294 481 1672 481 
Q 2219 481 2584 976 
Q 2950 1472 2950 2216 
z
" transform="scale(0.015625)"/>
       <path id="DejaVuSans-31" d="M 794 531 
L 1825 531 
L 1825 4091 
L 703 3866 
L 703 4441 
L 1819 4666 
L 2450 4666 
L 2450 531 
L 3481 531 
L 3481 0 
L 794 0 
L 794 531 
z
" transform="scale(0.015625)"/>
       <path id="DejaVuSans-30" d="M 2034 4250 
Q 1547 4250 1301 3770 
Q 1056 3291 1056 2328 
Q 1056 1369 1301 889 
Q 1547 409 2034 409 
Q 2525 409 2770 889 
Q 3016 1369 3016 2328 
Q 3016 3291 2770 3770 
Q 2525 4250 2034 4250 
z
M 2034 4750 
Q 2819 4750 3233 4129 
Q 3647 3509 3647 2328 
Q 3647 1150 3233 529 
Q 2819 -91 2034 -91 
Q 1250 -91 836 529 
Q 422 1150 422 2328 
Q 422 3509 836 4129 
Q 1250 4750 2034 4750 
z
" transform="scale(0.015625)"/>
       <path id="DejaVuSans-20" transform="scale(0.015625)"/>
       <path id="DejaVuSans-46" d="M 628 4666 
L 3309 4666 
L 3309 4134 
L 1259 4134 
L 1259 2759 
L 3109 2759 
L 3109 2228 
L 1259 2228 
L 1259 0 
L 628 0 
L 628 4666 
z
" transform="scale(0.015625)"/>
       <path id="DejaVuSans-72" d="M 2631 2963 
Q 2534 3019 2420 3045 
Q 2306 3072 2169 3072 
Q 1681 3072 1420 2755 
Q 1159 2438 1159 1844 
L 1159 0 
L 581 0 
L 581 3500 
L 1159 3500 
L 1159 2956 
Q 1341 3275 1631 3429 
Q 1922 3584 2338 3584 
Q 2397 3584 2469 3576 
Q 2541 3569 2628 3553 
L 2631 2963 
z
" transform="scale(0.015625)"/>
       <path id="DejaVuSans-65" d="M 3597 1894 
L 3597 1613 
L 953 1613 
Q 991 1019 1311 708 
Q 1631 397 2203 397 
Q 2534 397 2845 478 
Q 3156 559 3463 722 
L 3463 178 
Q 3153 47 2828 -22 
Q 2503 -91 2169 -91 
Q 1331 -91 842 396 
Q 353 884 353 1716 
Q 353 2575 817 3079 
Q 1281 3584 2069 3584 
Q 2775 3584 3186 3129 
Q 3597 2675 3597 1894 
z
M 3022 2063 
Q 3016 2534 2758 2815 
Q 2500 3097 2075 3097 
Q 1594 3097 1305 2825 
Q 1016 2553 972 2059 
L 3022 2063 
z
" transform="scale(0.015625)"/>
       <path id="DejaVuSans-71" d="M 947 1747 
Q 947 1113 1208 752 
Q 1469 391 1925 391 
Q 2381 391 2643 752 
Q 2906 1113 2906 1747 
Q 2906 2381 2643 2742 
Q 2381 3103 1925 3103 
Q 1469 3103 1208 2742 
Q 947 2381 947 1747 
z
M 2906 525 
Q 2725 213 2448 61 
Q 2172 -91 1784 -91 
Q 1150 -91 751 415 
Q 353 922 353 1747 
Q 353 2572 751 3078 
Q 1150 3584 1784 3584 
Q 2172 3584 2448 3432 
Q 2725 3281 2906 2969 
L 2906 3500 
L 3481 3500 
L 3481 -1331 
L 2906 -1331 
L 2906 525 
z
" transform="scale(0.015625)"/>
       <path id="DejaVuSans-75" d="M 544 1381 
L 544 3500 
L 1119 3500 
L 1119 1403 
Q 1119 906 1312 657 
Q 1506 409 1894 409 
Q 2359 409 2629 706 
Q 2900 1003 2900 1516 
L 2900 3500 
L 3475 3500 
L 3475 0 
L 2900 0 
L 2900 538 
Q 2691 219 2414 64 
Q 2138 -91 1772 -91 
Q 1169 -91 856 284 
Q 544 659 544 1381 
z
M 1991 3584 
L 1991 3584 
z
" transform="scale(0.015625)"/>
       <path id="DejaVuSans-6e" d="M 3513 2113 
L 3513 0 
L 2938 0 
L 2938 2094 
Q 2938 2591 2744 2837 
Q 2550 3084 2163 3084 
Q 1697 3084 1428 2787 
Q 1159 2491 1159 1978 
L 1159 0 
L 581 0 
L 581 3500 
L 1159 3500 
L 1159 2956 
Q 1366 3272 1645 3428 
Q 1925 3584 2291 3584 
Q 2894 3584 3203 3211 
Q 3513 2838 3513 2113 
z
" transform="scale(0.015625)"/>
       <path id="DejaVuSans-63" d="M 3122 3366 
L 3122 2828 
Q 2878 2963 2633 3030 
Q 2388 3097 2138 3097 
Q 1578 3097 1268 2742 
Q 959 2388 959 1747 
Q 959 1106 1268 751 
Q 1578 397 2138 397 
Q 2388 397 2633 464 
Q 2878 531 3122 666 
L 3122 134 
Q 2881 22 2623 -34 
Q 2366 -91 2075 -91 
Q 1284 -91 818 406 
Q 353 903 353 1747 
Q 353 2603 823 3093 
Q 1294 3584 2113 3584 
Q 2378 3584 2631 3529 
Q 2884 3475 3122 3366 
z
" transform="scale(0.015625)"/>
       <path id="DejaVuSans-79" d="M 2059 -325 
Q 1816 -950 1584 -1140 
Q 1353 -1331 966 -1331 
L 506 -1331 
L 506 -850 
L 844 -850 
Q 1081 -850 1212 -737 
Q 1344 -625 1503 -206 
L 1606 56 
L 191 3500 
L 800 3500 
L 1894 763 
L 2988 3500 
L 3597 3500 
L 2059 -325 
z
" transform="scale(0.015625)"/>
      </defs>
      <use xlink:href="#DejaVuSans-Oblique-6c" transform="translate(0 0.015625)"/>
      <use xlink:href="#DejaVuSans-Oblique-6f" transform="translate(27.783203 0.015625)"/>
      <use xlink:href="#DejaVuSans-Oblique-67" transform="translate(88.964844 0.015625)"/>
      <use xlink:href="#DejaVuSans-31" transform="translate(152.441406 -16.390625) scale(0.7)"/>
      <use xlink:href="#DejaVuSans-30" transform="translate(196.977539 -16.390625) scale(0.7)"/>
      <use xlink:href="#DejaVuSans-20" transform="translate(244.248047 0.015625)"/>
      <use xlink:href="#DejaVuSans-46" transform="translate(276.035156 0.015625)"/>
      <use xlink:href="#DejaVuSans-72" transform="translate(333.554688 0.015625)"/>
      <use xlink:href="#DejaVuSans-65" transform="translate(374.667969 0.015625)"/>
      <use xlink:href="#DejaVuSans-71" transform="translate(436.191406 0.015625)"/>
      <use xlink:href="#DejaVuSans-75" transform="translate(499.667969 0.015625)"/>
      <use xlink:href="#DejaVuSans-65" transform="translate(563.046875 0.015625)"/>
      <use xlink:href="#DejaVuSans-6e" transform="translate(624.570312 0.015625)"/>
      <use xlink:href="#DejaVuSans-63" transform="translate(687.949219 0.015625)"/>
      <use xlink:href="#DejaVuSans-79" transform="translate(742.929688 0.015625)"/>
     </g>
    </g>
   </g>
   <g id="matplotlib.axis_2">
    <g id="ytick_1">
     <g id="line2d_5">
      <defs>
       <path id="m1ad5c044e3" d="M 2 0 
L -2 -0 
" style="stroke: #000000; stroke-width: 0.8"/>
      </defs>
      <g>
       <use xlink:href="#m1ad5c044e3" x="40.328475" y="116.136456" style="stroke: #000000; stroke-width: 0.8"/>
      </g>
     </g>
     <g id="text_6">
      <!-- 0.0 -->
      <g transform="translate(24.405902 118.98473) scale(0.07497 -0.07497)">
       <defs>
        <path id="DejaVuSans-2e" d="M 684 794 
L 1344 794 
L 1344 0 
L 684 0 
L 684 794 
z
" transform="scale(0.015625)"/>
       </defs>
       <use xlink:href="#DejaVuSans-30"/>
       <use xlink:href="#DejaVuSans-2e" x="63.623047"/>
       <use xlink:href="#DejaVuSans-30" x="95.410156"/>
      </g>
     </g>
    </g>
    <g id="ytick_2">
     <g id="line2d_6">
      <g>
       <use xlink:href="#m1ad5c044e3" x="40.328475" y="99.294623" style="stroke: #000000; stroke-width: 0.8"/>
      </g>
     </g>
     <g id="text_7">
      <!-- 0.5 -->
      <g transform="translate(24.405902 102.142897) scale(0.07497 -0.07497)">
       <use xlink:href="#DejaVuSans-30"/>
       <use xlink:href="#DejaVuSans-2e" x="63.623047"/>
       <use xlink:href="#DejaVuSans-35" x="95.410156"/>
      </g>
     </g>
    </g>
    <g id="ytick_3">
     <g id="line2d_7">
      <g>
       <use xlink:href="#m1ad5c044e3" x="40.328475" y="82.45279" style="stroke: #000000; stroke-width: 0.8"/>
      </g>
     </g>
     <g id="text_8">
      <!-- 1.0 -->
      <g transform="translate(24.405902 85.301064) scale(0.07497 -0.07497)">
       <use xlink:href="#DejaVuSans-31"/>
       <use xlink:href="#DejaVuSans-2e" x="63.623047"/>
       <use xlink:href="#DejaVuSans-30" x="95.410156"/>
      </g>
     </g>
    </g>
    <g id="ytick_4">
     <g id="line2d_8">
      <g>
       <use xlink:href="#m1ad5c044e3" x="40.328475" y="65.610956" style="stroke: #000000; stroke-width: 0.8"/>
      </g>
     </g>
     <g id="text_9">
      <!-- 1.5 -->
      <g transform="translate(24.405902 68.459231) scale(0.07497 -0.07497)">
       <use xlink:href="#DejaVuSans-31"/>
       <use xlink:href="#DejaVuSans-2e" x="63.623047"/>
       <use xlink:href="#DejaVuSans-35" x="95.410156"/>
      </g>
     </g>
    </g>
    <g id="ytick_5">
     <g id="line2d_9">
      <g>
       <use xlink:href="#m1ad5c044e3" x="40.328475" y="48.769123" style="stroke: #000000; stroke-width: 0.8"/>
      </g>
     </g>
     <g id="text_10">
      <!-- 2.0 -->
      <g transform="translate(24.405902 51.617397) scale(0.07497 -0.07497)">
       <use xlink:href="#DejaVuSans-32"/>
       <use xlink:href="#DejaVuSans-2e" x="63.623047"/>
       <use xlink:href="#DejaVuSans-30" x="95.410156"/>
      </g>
     </g>
    </g>
    <g id="ytick_6">
     <g id="line2d_10">
      <g>
       <use xlink:href="#m1ad5c044e3" x="40.328475" y="31.92729" style="stroke: #000000; stroke-width: 0.8"/>
      </g>
     </g>
     <g id="text_11">
      <!-- 2.5 -->
      <g transform="translate(24.405902 34.775564) scale(0.07497 -0.07497)">
       <use xlink:href="#DejaVuSans-32"/>
       <use xlink:href="#DejaVuSans-2e" x="63.623047"/>
       <use xlink:href="#DejaVuSans-35" x="95.410156"/>
      </g>
     </g>
    </g>
    <g id="ytick_7">
     <g id="line2d_11">
      <g>
       <use xlink:href="#m1ad5c044e3" x="40.328475" y="15.085457" style="stroke: #000000; stroke-width: 0.8"/>
      </g>
     </g>
     <g id="text_12">
      <!-- 3.0 -->
      <g transform="translate(24.405902 17.933731) scale(0.07497 -0.07497)">
       <use xlink:href="#DejaVuSans-33"/>
       <use xlink:href="#DejaVuSans-2e" x="63.623047"/>
       <use xlink:href="#DejaVuSans-30" x="95.410156"/>
      </g>
     </g>
    </g>
    <g id="text_13">
     <!-- $log_{10}$ Rank -->
     <g transform="translate(21.015902 89.423274) rotate(-90) scale(0.09 -0.09)">
      <defs>
       <path id="DejaVuSans-52" d="M 2841 2188 
Q 3044 2119 3236 1894 
Q 3428 1669 3622 1275 
L 4263 0 
L 3584 0 
L 2988 1197 
Q 2756 1666 2539 1819 
Q 2322 1972 1947 1972 
L 1259 1972 
L 1259 0 
L 628 0 
L 628 4666 
L 2053 4666 
Q 2853 4666 3247 4331 
Q 3641 3997 3641 3322 
Q 3641 2881 3436 2590 
Q 3231 2300 2841 2188 
z
M 1259 4147 
L 1259 2491 
L 2053 2491 
Q 2509 2491 2742 2702 
Q 2975 2913 2975 3322 
Q 2975 3731 2742 3939 
Q 2509 4147 2053 4147 
L 1259 4147 
z
" transform="scale(0.015625)"/>
       <path id="DejaVuSans-61" d="M 2194 1759 
Q 1497 1759 1228 1600 
Q 959 1441 959 1056 
Q 959 750 1161 570 
Q 1363 391 1709 391 
Q 2188 391 2477 730 
Q 2766 1069 2766 1631 
L 2766 1759 
L 2194 1759 
z
M 3341 1997 
L 3341 0 
L 2766 0 
L 2766 531 
Q 2569 213 2275 61 
Q 1981 -91 1556 -91 
Q 1019 -91 701 211 
Q 384 513 384 1019 
Q 384 1609 779 1909 
Q 1175 2209 1959 2209 
L 2766 2209 
L 2766 2266 
Q 2766 2663 2505 2880 
Q 2244 3097 1772 3097 
Q 1472 3097 1187 3025 
Q 903 2953 641 2809 
L 641 3341 
Q 956 3463 1253 3523 
Q 1550 3584 1831 3584 
Q 2591 3584 2966 3190 
Q 3341 2797 3341 1997 
z
" transform="scale(0.015625)"/>
       <path id="DejaVuSans-6b" d="M 581 4863 
L 1159 4863 
L 1159 1991 
L 2875 3500 
L 3609 3500 
L 1753 1863 
L 3688 0 
L 2938 0 
L 1159 1709 
L 1159 0 
L 581 0 
L 581 4863 
z
" transform="scale(0.015625)"/>
      </defs>
      <use xlink:href="#DejaVuSans-Oblique-6c" transform="translate(0 0.015625)"/>
      <use xlink:href="#DejaVuSans-Oblique-6f" transform="translate(27.783203 0.015625)"/>
      <use xlink:href="#DejaVuSans-Oblique-67" transform="translate(88.964844 0.015625)"/>
      <use xlink:href="#DejaVuSans-31" transform="translate(152.441406 -16.390625) scale(0.7)"/>
      <use xlink:href="#DejaVuSans-30" transform="translate(196.977539 -16.390625) scale(0.7)"/>
      <use xlink:href="#DejaVuSans-20" transform="translate(244.248047 0.015625)"/>
      <use xlink:href="#DejaVuSans-52" transform="translate(276.035156 0.015625)"/>
      <use xlink:href="#DejaVuSans-61" transform="translate(345.517578 0.015625)"/>
      <use xlink:href="#DejaVuSans-6e" transform="translate(406.796875 0.015625)"/>
      <use xlink:href="#DejaVuSans-6b" transform="translate(470.175781 0.015625)"/>
     </g>
    </g>
   </g>
   <g id="line2d_12">
    <path d="M 153.266456 116.136456 
L 150.836825 116.136456 
L 150.836825 105.996662 
L 150.531619 105.996662 
L 150.531619 100.065263 
L 146.088208 100.065263 
L 146.088208 95.856868 
L 145.53645 95.856868 
L 145.53645 92.592584 
L 145.348782 92.592584 
L 145.348782 89.925469 
L 145.124283 89.925469 
L 145.124283 87.670456 
L 144.471376 87.670456 
L 144.471376 85.717074 
L 143.132523 85.717074 
L 143.132523 83.99407 
L 142.075744 83.99407 
L 142.075744 82.45279 
L 141.91055 82.45279 
L 141.91055 81.058532 
L 141.48092 81.058532 
L 141.48092 79.785675 
L 140.61113 79.785675 
L 140.61113 78.61476 
L 140.477219 78.61476 
L 140.477219 77.530662 
L 140.063561 77.530662 
L 140.063561 76.52139 
L 139.800208 76.52139 
L 139.800208 75.57728 
L 139.675147 75.57728 
L 139.675147 74.690425 
L 138.851545 74.690425 
L 138.851545 73.854276 
L 138.522032 73.854276 
L 138.437896 72.312996 
L 137.994018 72.312996 
L 137.994018 71.599262 
L 137.807868 71.599262 
L 137.807868 70.918738 
L 137.16212 70.918738 
L 137.16212 70.26847 
L 136.963676 70.26847 
L 136.963676 69.645881 
L 136.766704 69.645881 
L 136.726875 68.474966 
L 136.321009 68.474966 
L 136.321009 67.922876 
L 136.079157 67.922876 
L 136.079157 67.390868 
L 135.775037 67.390868 
L 135.775037 66.87753 
L 135.388764 66.87753 
L 135.388764 66.381596 
L 135.245944 66.381596 
L 135.245944 65.901926 
L 134.75396 65.901926 
L 134.678472 64.550631 
L 134.57398 64.550631 
L 134.57398 64.126583 
L 134.276948 64.126583 
L 134.276948 63.714482 
L 134.097867 63.714482 
L 134.007966 62.923552 
L 133.786345 62.923552 
L 133.707661 61.811983 
L 133.425479 61.811983 
L 133.425479 61.459468 
L 133.175288 61.459468 
L 133.139293 60.778944 
L 132.819794 60.778944 
L 132.819794 60.450197 
L 132.368563 60.450197 
L 132.356235 59.814069 
L 132.232066 59.814069 
L 132.232066 59.506087 
L 131.886988 59.506087 
L 131.854793 58.908917 
L 131.740693 58.908917 
L 131.723736 58.335172 
L 131.031411 58.335172 
L 130.934466 57.783082 
L 130.779493 57.783082 
L 130.779493 57.51466 
L 130.624891 57.51466 
L 130.57575 56.992153 
L 130.472045 56.992153 
L 130.472045 56.737736 
L 130.120338 56.737736 
L 130.120338 56.487667 
L 129.921396 56.487667 
L 129.854596 55.528069 
L 129.72913 55.528069 
L 129.676115 54.627561 
L 129.556454 54.627561 
L 129.477038 54.197277 
L 129.409058 54.197277 
L 129.337709 53.779287 
L 129.120941 53.779287 
L 129.120941 53.574688 
L 128.91497 53.574688 
L 128.91497 53.37291 
L 128.733253 53.37291 
L 128.653364 52.977518 
L 128.246189 52.977518 
L 128.190556 52.592532 
L 128.118747 52.592532 
L 128.118747 52.403772 
L 127.954416 52.403772 
L 127.871143 52.033408 
L 127.839999 52.033408 
L 127.833361 51.49487 
L 127.684417 51.49487 
L 127.651293 50.975455 
L 127.534918 50.975455 
L 127.508076 50.63915 
L 127.419979 50.63915 
L 127.419979 50.473853 
L 126.914513 50.473853 
L 126.884813 50.148759 
L 126.70444 50.148759 
L 126.60191 49.674275 
L 126.522962 49.674275 
L 126.426018 48.916146 
L 126.191929 48.916146 
L 126.162041 48.623563 
L 125.981397 48.623563 
L 125.927209 48.336718 
L 125.804346 48.336718 
L 125.804346 48.195378 
L 125.625294 48.195378 
L 125.625294 48.05539 
L 125.508211 48.05539 
L 125.41228 47.643288 
L 125.391061 47.643288 
L 125.294712 47.374866 
L 125.212907 47.374866 
L 125.116239 46.981246 
L 124.943077 46.981246 
L 124.833061 46.224424 
L 124.730658 46.224424 
L 124.635588 45.980608 
L 124.587224 45.980608 
L 124.478642 45.622338 
L 124.444961 45.622338 
L 124.350878 45.272633 
L 124.302466 45.272633 
L 124.250824 44.931093 
L 124.06399 44.931093 
L 124.06399 44.818996 
L 123.767352 44.818996 
L 123.691027 44.379004 
L 123.582928 44.271043 
L 123.486958 43.95186 
L 123.422361 43.846995 
L 123.422361 43.742876 
L 122.986754 43.639493 
L 122.936555 43.434894 
L 122.843797 43.333657 
L 122.778444 42.740523 
L 122.68519 42.643964 
L 122.586535 42.170504 
L 122.393432 42.077624 
L 122.381928 41.893614 
L 122.125338 41.802469 
L 122.125338 41.711889 
L 121.900636 41.621867 
L 121.837878 41.355076 
L 121.727722 41.267216 
L 121.72206 41.093063 
L 121.581499 41.006758 
L 121.581499 40.92096 
L 121.222307 40.835661 
L 121.13493 40.666542 
L 120.867896 40.58271 
L 120.773738 40.089564 
L 120.624441 40.008965 
L 120.516489 39.7698 
L 120.427825 39.690939 
L 120.331249 39.456876 
L 120.266366 39.37968 
L 120.219672 39.150506 
L 120.084579 39.074906 
L 120.001486 38.776352 
L 119.863585 38.702656 
L 119.839927 38.556368 
L 119.705842 38.483769 
L 119.603695 38.196924 
L 119.5195 38.126083 
L 119.463506 37.985422 
L 119.298851 37.915596 
L 119.298851 37.846101 
L 119.014837 37.776935 
L 118.906295 37.435926 
L 118.881869 37.368667 
L 118.797375 37.168729 
L 118.705509 37.102685 
L 118.60818 36.906325 
L 118.501751 36.841452 
L 118.391374 36.712565 
L 118.277572 36.648545 
L 118.181488 36.458148 
L 117.960418 36.395229 
L 117.86169 36.146225 
L 117.812097 36.08463 
L 117.748682 35.962214 
L 117.63546 35.901388 
L 117.526 35.660582 
L 117.502813 35.600995 
L 117.50277 35.482544 
L 117.216005 35.423676 
L 117.107818 35.190546 
L 116.979603 35.132839 
L 116.885204 34.904262 
L 116.782752 34.847672 
L 116.708522 34.679202 
L 116.420486 34.623474 
L 116.314896 34.293491 
L 116.184476 34.18513 
L 116.121287 34.024079 
L 115.984825 33.917689 
L 115.88687 33.603082 
L 115.728921 33.499699 
L 115.639384 33.193863 
L 115.552231 33.093322 
L 115.468088 32.993468 
L 115.210016 32.89429 
L 115.157147 32.746773 
L 115.006278 32.649249 
L 114.95733 32.55237 
L 114.852017 32.456129 
L 114.791926 32.265525 
L 114.579681 32.171146 
L 114.480802 31.93783 
L 114.330213 31.845535 
L 114.270565 31.75382 
L 114.079916 31.662675 
L 113.983323 31.25941 
L 113.932762 31.171286 
L 113.835599 31.040086 
L 113.786056 30.953269 
L 113.733494 30.781166 
L 113.579106 30.695867 
L 113.499407 30.484772 
L 113.30381 30.40118 
L 113.271549 30.194265 
L 113.145559 30.112312 
L 113.069999 29.909415 
L 112.987288 29.829038 
L 112.987288 29.789014 
L 112.70565 29.709294 
L 112.601964 29.551145 
L 112.499048 29.472707 
L 112.398889 29.355833 
L 112.323013 29.278433 
L 112.213321 29.12485 
L 112.069311 29.048659 
L 111.997426 28.897457 
L 111.833217 28.822439 
L 111.74128 28.599663 
L 111.580736 28.489535 
L 111.580736 28.453009 
L 111.258562 28.343975 
L 111.192455 28.164039 
L 111.006003 28.05713 
L 111.006003 28.021667 
L 110.792434 27.91579 
L 110.71818 27.706307 
L 110.57335 27.60268 
L 110.505465 27.465643 
L 110.116643 27.3637 
L 110.015317 27.228873 
L 109.87623 27.128562 
L 109.847734 27.062069 
L 109.690016 26.962891 
L 109.597313 26.864381 
L 109.483248 26.766531 
L 109.415666 26.66933 
L 109.328193 26.572771 
L 109.293472 26.508751 
L 109.108045 26.413242 
L 109.003148 26.255435 
L 108.937473 26.161561 
L 108.874721 26.068286 
L 108.648539 25.975601 
L 108.62146 25.914136 
L 108.295079 25.82242 
L 108.232376 25.640696 
L 107.92948 25.550673 
L 107.840495 25.313287 
L 107.492692 25.225251 
L 107.382938 25.079691 
L 107.283622 24.993045 
L 107.215007 24.90691 
L 106.963141 24.821278 
L 106.866778 24.707878 
L 106.765155 24.6234 
L 106.706237 24.511517 
L 106.472509 24.400483 
L 106.404819 24.317758 
L 106.213929 24.208179 
L 106.108053 24.072351 
L 105.975524 23.964589 
L 105.911192 23.857615 
L 105.702842 23.751417 
L 105.610871 23.672272 
L 105.42241 23.567407 
L 105.356042 23.463288 
L 105.102716 23.359905 
L 104.992723 23.282845 
L 104.546407 23.180725 
L 104.452522 23.1046 
L 104.142713 23.003712 
L 104.054691 22.903516 
L 103.880164 22.804001 
L 103.780758 22.655987 
L 103.59903 22.558136 
L 103.490554 22.388456 
L 103.24872 22.292373 
L 103.19325 22.17315 
L 102.886876 22.078466 
L 102.800436 21.984391 
L 102.564259 21.890917 
L 102.564259 21.867641 
L 102.074639 21.774908 
L 101.991505 21.659812 
L 101.744324 21.568382 
L 101.645363 21.432301 
L 101.436662 21.342279 
L 101.365053 21.18606 
L 101.107477 21.075488 
L 101.00978 20.987628 
L 100.563515 20.87854 
L 100.461812 20.748699 
L 100.132599 20.641372 
L 100.042355 20.534826 
L 99.679139 20.429051 
L 99.610034 20.344978 
L 99.424678 20.240562 
L 99.325117 20.157563 
L 99.128248 20.054471 
L 99.034524 19.992963 
L 98.698064 19.891021 
L 98.622442 19.709297 
L 98.496422 19.609306 
L 98.401479 19.549637 
L 98.321514 19.450728 
L 98.222333 19.391702 
L 97.921355 19.293851 
L 97.817415 19.196651 
L 97.310676 19.100092 
L 97.310676 19.080856 
L 96.936187 18.985056 
L 96.899536 18.946911 
L 96.319595 18.851981 
L 96.255125 18.795318 
L 95.717231 18.701363 
L 95.667433 18.66395 
L 95.228625 18.570833 
L 95.182042 18.515246 
L 94.855038 18.404702 
L 94.776519 18.349741 
L 94.388843 18.240436 
L 94.279195 18.186088 
L 93.778808 18.077994 
L 93.675169 18.006373 
L 93.354967 17.899594 
L 93.29963 17.864173 
L 92.947249 17.758424 
L 92.896832 17.723343 
L 92.328173 17.618603 
L 92.328173 17.601219 
L 91.285832 17.497347 
L 91.21022 17.428506 
L 90.857355 17.325849 
L 90.7552 17.291789 
L 90.28512 17.190083 
L 90.187598 17.156338 
L 89.40617 17.055566 
L 89.35042 17.022129 
L 88.853695 16.922275 
L 88.743318 16.856082 
L 88.28566 16.75735 
L 88.177112 16.724587 
L 87.362825 16.626737 
L 87.282549 16.578056 
L 87.033977 16.481177 
L 86.967982 16.449026 
L 86.037245 16.352995 
L 85.927327 16.289323 
L 85.245279 16.17856 
L 85.245279 16.162805 
L 84.781839 16.052991 
L 84.781839 16.037371 
L 82.99455 15.928492 
L 82.920793 15.882076 
L 80.972633 15.774342 
L 80.972633 15.759016 
L 79.765861 15.652182 
L 79.676917 15.6218 
L 77.867544 15.51596 
L 77.76044 15.455821 
L 76.050116 15.351171 
L 76.050116 15.336281 
L 72.134203 15.232479 
L 72.134203 15.21771 
L 66.21363 15.114743 
L 66.21363 15.100092 
L 45.706474 15.100092 
L 45.706474 15.100092 
" clip-path="url(#p48d3ba39f9)" style="fill: none; stroke: #1f77b4; stroke-width: 1.3; stroke-linecap: round"/>
   </g>
   <g id="patch_3">
    <path d="M 40.328475 121.188274 
L 40.328475 10.048274 
" style="fill: none; stroke: #000000; stroke-linejoin: miter; stroke-linecap: square"/>
   </g>
   <g id="patch_4">
    <path d="M 40.328475 121.188274 
L 158.644455 121.188274 
" style="fill: none; stroke: #000000; stroke-linejoin: miter; stroke-linecap: square"/>
   </g>
   <g id="text_14">
    <!-- Lognormal: -->
    <g transform="translate(107.999767 16.886868) scale(0.09 -0.09)">
     <defs>
      <path id="DejaVuSans-4c" d="M 628 4666 
L 1259 4666 
L 1259 531 
L 3531 531 
L 3531 0 
L 628 0 
L 628 4666 
z
" transform="scale(0.015625)"/>
      <path id="DejaVuSans-6f" d="M 1959 3097 
Q 1497 3097 1228 2736 
Q 959 2375 959 1747 
Q 959 1119 1226 758 
Q 1494 397 1959 397 
Q 2419 397 2687 759 
Q 2956 1122 2956 1747 
Q 2956 2369 2687 2733 
Q 2419 3097 1959 3097 
z
M 1959 3584 
Q 2709 3584 3137 3096 
Q 3566 2609 3566 1747 
Q 3566 888 3137 398 
Q 2709 -91 1959 -91 
Q 1206 -91 779 398 
Q 353 888 353 1747 
Q 353 2609 779 3096 
Q 1206 3584 1959 3584 
z
" transform="scale(0.015625)"/>
      <path id="DejaVuSans-67" d="M 2906 1791 
Q 2906 2416 2648 2759 
Q 2391 3103 1925 3103 
Q 1463 3103 1205 2759 
Q 947 2416 947 1791 
Q 947 1169 1205 825 
Q 1463 481 1925 481 
Q 2391 481 2648 825 
Q 2906 1169 2906 1791 
z
M 3481 434 
Q 3481 -459 3084 -895 
Q 2688 -1331 1869 -1331 
Q 1566 -1331 1297 -1286 
Q 1028 -1241 775 -1147 
L 775 -588 
Q 1028 -725 1275 -790 
Q 1522 -856 1778 -856 
Q 2344 -856 2625 -561 
Q 2906 -266 2906 331 
L 2906 616 
Q 2728 306 2450 153 
Q 2172 0 1784 0 
Q 1141 0 747 490 
Q 353 981 353 1791 
Q 353 2603 747 3093 
Q 1141 3584 1784 3584 
Q 2172 3584 2450 3431 
Q 2728 3278 2906 2969 
L 2906 3500 
L 3481 3500 
L 3481 434 
z
" transform="scale(0.015625)"/>
      <path id="DejaVuSans-6d" d="M 3328 2828 
Q 3544 3216 3844 3400 
Q 4144 3584 4550 3584 
Q 5097 3584 5394 3201 
Q 5691 2819 5691 2113 
L 5691 0 
L 5113 0 
L 5113 2094 
Q 5113 2597 4934 2840 
Q 4756 3084 4391 3084 
Q 3944 3084 3684 2787 
Q 3425 2491 3425 1978 
L 3425 0 
L 2847 0 
L 2847 2094 
Q 2847 2600 2669 2842 
Q 2491 3084 2119 3084 
Q 1678 3084 1418 2786 
Q 1159 2488 1159 1978 
L 1159 0 
L 581 0 
L 581 3500 
L 1159 3500 
L 1159 2956 
Q 1356 3278 1631 3431 
Q 1906 3584 2284 3584 
Q 2666 3584 2933 3390 
Q 3200 3197 3328 2828 
z
" transform="scale(0.015625)"/>
      <path id="DejaVuSans-6c" d="M 603 4863 
L 1178 4863 
L 1178 0 
L 603 0 
L 603 4863 
z
" transform="scale(0.015625)"/>
      <path id="DejaVuSans-3a" d="M 750 794 
L 1409 794 
L 1409 0 
L 750 0 
L 750 794 
z
M 750 3309 
L 1409 3309 
L 1409 2516 
L 750 2516 
L 750 3309 
z
" transform="scale(0.015625)"/>
     </defs>
     <use xlink:href="#DejaVuSans-4c"/>
     <use xlink:href="#DejaVuSans-6f" x="53.962891"/>
     <use xlink:href="#DejaVuSans-67" x="115.144531"/>
     <use xlink:href="#DejaVuSans-6e" x="178.621094"/>
     <use xlink:href="#DejaVuSans-6f" x="242"/>
     <use xlink:href="#DejaVuSans-72" x="303.181641"/>
     <use xlink:href="#DejaVuSans-6d" x="342.544922"/>
     <use xlink:href="#DejaVuSans-61" x="439.957031"/>
     <use xlink:href="#DejaVuSans-6c" x="501.236328"/>
     <use xlink:href="#DejaVuSans-3a" x="529.019531"/>
    </g>
    <!-- $\sigma = 1$ -->
    <g transform="translate(136.144455 26.964899) scale(0.09 -0.09)">
     <defs>
      <path id="DejaVuSans-Oblique-3c3" d="M 2219 3044 
Q 1744 3044 1422 2700 
Q 1081 2341 969 1747 
Q 844 1119 1044 756 
Q 1241 397 1706 397 
Q 2166 397 2503 759 
Q 2844 1122 2966 1747 
Q 3075 2319 2881 2700 
Q 2700 3044 2219 3044 
z
M 2309 3503 
L 4219 3500 
L 4106 2925 
L 3463 2925 
Q 3706 2438 3575 1747 
Q 3406 888 2884 400 
Q 2359 -91 1609 -91 
Q 856 -91 525 400 
Q 194 888 363 1747 
Q 528 2609 1050 3097 
Q 1484 3503 2309 3503 
z
" transform="scale(0.015625)"/>
      <path id="DejaVuSans-3d" d="M 678 2906 
L 4684 2906 
L 4684 2381 
L 678 2381 
L 678 2906 
z
M 678 1631 
L 4684 1631 
L 4684 1100 
L 678 1100 
L 678 1631 
z
" transform="scale(0.015625)"/>
     </defs>
     <use xlink:href="#DejaVuSans-Oblique-3c3" transform="translate(0 0.09375)"/>
     <use xlink:href="#DejaVuSans-3d" transform="translate(82.861328 0.09375)"/>
     <use xlink:href="#DejaVuSans-31" transform="translate(186.132812 0.09375)"/>
    </g>
    <!-- S=1000 -->
    <g transform="translate(122.484142 37.042931) scale(0.09 -0.09)">
     <defs>
      <path id="DejaVuSans-53" d="M 3425 4513 
L 3425 3897 
Q 3066 4069 2747 4153 
Q 2428 4238 2131 4238 
Q 1616 4238 1336 4038 
Q 1056 3838 1056 3469 
Q 1056 3159 1242 3001 
Q 1428 2844 1947 2747 
L 2328 2669 
Q 3034 2534 3370 2195 
Q 3706 1856 3706 1288 
Q 3706 609 3251 259 
Q 2797 -91 1919 -91 
Q 1588 -91 1214 -16 
Q 841 59 441 206 
L 441 856 
Q 825 641 1194 531 
Q 1563 422 1919 422 
Q 2459 422 2753 634 
Q 3047 847 3047 1241 
Q 3047 1584 2836 1778 
Q 2625 1972 2144 2069 
L 1759 2144 
Q 1053 2284 737 2584 
Q 422 2884 422 3419 
Q 422 4038 858 4394 
Q 1294 4750 2059 4750 
Q 2388 4750 2728 4690 
Q 3069 4631 3425 4513 
z
" transform="scale(0.015625)"/>
     </defs>
     <use xlink:href="#DejaVuSans-53"/>
     <use xlink:href="#DejaVuSans-3d" x="63.476562"/>
     <use xlink:href="#DejaVuSans-31" x="147.265625"/>
     <use xlink:href="#DejaVuSans-30" x="210.888672"/>
     <use xlink:href="#DejaVuSans-30" x="274.511719"/>
     <use xlink:href="#DejaVuSans-30" x="338.134766"/>
    </g>
   </g>
   <g id="text_15">
    <!-- A -->
    <g transform="translate(7.2 17.998268) scale(0.09 -0.09)">
     <defs>
      <path id="DejaVuSans-Bold-41" d="M 3419 850 
L 1538 850 
L 1241 0 
L 31 0 
L 1759 4666 
L 3194 4666 
L 4922 0 
L 3713 0 
L 3419 850 
z
M 1838 1716 
L 3116 1716 
L 2478 3572 
L 1838 1716 
z
" transform="scale(0.015625)"/>
     </defs>
     <use xlink:href="#DejaVuSans-Bold-41"/>
    </g>
   </g>
  </g>
  <g id="axes_2">
   <g id="patch_5">
    <path d="M 206.174455 121.188274 
L 324.490435 121.188274 
L 324.490435 10.048274 
L 206.174455 10.048274 
z
" style="fill: #ffffff"/>
   </g>
   <g id="matplotlib.axis_3">
    <g id="xtick_5">
     <g id="line2d_13">
      <g>
       <use xlink:href="#m68684ee765" x="206.174455" y="121.188274" style="stroke: #000000; stroke-width: 0.8"/>
      </g>
     </g>
     <g id="text_16">
      <!-- 1 -->
      <g transform="translate(203.789472 130.884823) scale(0.07497 -0.07497)">
       <use xlink:href="#DejaVuSans-31"/>
      </g>
     </g>
    </g>
    <g id="xtick_6">
     <g id="line2d_14">
      <g>
       <use xlink:href="#m68684ee765" x="245.613115" y="121.188274" style="stroke: #000000; stroke-width: 0.8"/>
      </g>
     </g>
     <g id="text_17">
      <!-- 2 -->
      <g transform="translate(243.228132 130.884823) scale(0.07497 -0.07497)">
       <use xlink:href="#DejaVuSans-32"/>
      </g>
     </g>
    </g>
    <g id="xtick_7">
     <g id="line2d_15">
      <g>
       <use xlink:href="#m68684ee765" x="285.051775" y="121.188274" style="stroke: #000000; stroke-width: 0.8"/>
      </g>
     </g>
     <g id="text_18">
      <!-- 3 -->
      <g transform="translate(282.666792 130.884823) scale(0.07497 -0.07497)">
       <use xlink:href="#DejaVuSans-33"/>
      </g>
     </g>
    </g>
    <g id="xtick_8">
     <g id="line2d_16">
      <g>
       <use xlink:href="#m68684ee765" x="324.490435" y="121.188274" style="stroke: #000000; stroke-width: 0.8"/>
      </g>
     </g>
     <g id="text_19">
      <!-- 4 -->
      <g transform="translate(322.105452 130.884823) scale(0.07497 -0.07497)">
       <use xlink:href="#DejaVuSans-34"/>
      </g>
     </g>
    </g>
    <g id="text_20">
     <!-- $\log_{10}$ Sample Size -->
     <g transform="translate(224.562445 140.783965) scale(0.09 -0.09)">
      <defs>
       <path id="DejaVuSans-70" d="M 1159 525 
L 1159 -1331 
L 581 -1331 
L 581 3500 
L 1159 3500 
L 1159 2969 
Q 1341 3281 1617 3432 
Q 1894 3584 2278 3584 
Q 2916 3584 3314 3078 
Q 3713 2572 3713 1747 
Q 3713 922 3314 415 
Q 2916 -91 2278 -91 
Q 1894 -91 1617 61 
Q 1341 213 1159 525 
z
M 3116 1747 
Q 3116 2381 2855 2742 
Q 2594 3103 2138 3103 
Q 1681 3103 1420 2742 
Q 1159 2381 1159 1747 
Q 1159 1113 1420 752 
Q 1681 391 2138 391 
Q 2594 391 2855 752 
Q 3116 1113 3116 1747 
z
" transform="scale(0.015625)"/>
       <path id="DejaVuSans-69" d="M 603 3500 
L 1178 3500 
L 1178 0 
L 603 0 
L 603 3500 
z
M 603 4863 
L 1178 4863 
L 1178 4134 
L 603 4134 
L 603 4863 
z
" transform="scale(0.015625)"/>
       <path id="DejaVuSans-7a" d="M 353 3500 
L 3084 3500 
L 3084 2975 
L 922 459 
L 3084 459 
L 3084 0 
L 275 0 
L 275 525 
L 2438 3041 
L 353 3041 
L 353 3500 
z
" transform="scale(0.015625)"/>
      </defs>
      <use xlink:href="#DejaVuSans-6c" transform="translate(0 0.015625)"/>
      <use xlink:href="#DejaVuSans-6f" transform="translate(27.783203 0.015625)"/>
      <use xlink:href="#DejaVuSans-67" transform="translate(88.964844 0.015625)"/>
      <use xlink:href="#DejaVuSans-31" transform="translate(153.398438 -16.390625) scale(0.7)"/>
      <use xlink:href="#DejaVuSans-30" transform="translate(197.93457 -16.390625) scale(0.7)"/>
      <use xlink:href="#DejaVuSans-20" transform="translate(261.440754 0.015625)"/>
      <use xlink:href="#DejaVuSans-53" transform="translate(293.227864 0.015625)"/>
      <use xlink:href="#DejaVuSans-61" transform="translate(356.704426 0.015625)"/>
      <use xlink:href="#DejaVuSans-6d" transform="translate(417.983723 0.015625)"/>
      <use xlink:href="#DejaVuSans-70" transform="translate(515.395833 0.015625)"/>
      <use xlink:href="#DejaVuSans-6c" transform="translate(578.872395 0.015625)"/>
      <use xlink:href="#DejaVuSans-65" transform="translate(606.655598 0.015625)"/>
      <use xlink:href="#DejaVuSans-20" transform="translate(668.179036 0.015625)"/>
      <use xlink:href="#DejaVuSans-53" transform="translate(699.966145 0.015625)"/>
      <use xlink:href="#DejaVuSans-69" transform="translate(763.442708 0.015625)"/>
      <use xlink:href="#DejaVuSans-7a" transform="translate(791.225911 0.015625)"/>
      <use xlink:href="#DejaVuSans-65" transform="translate(843.716145 0.015625)"/>
     </g>
    </g>
   </g>
   <g id="matplotlib.axis_4">
    <g id="ytick_8">
     <g id="line2d_17">
      <g>
       <use xlink:href="#m1ad5c044e3" x="206.174455" y="121.188274" style="stroke: #000000; stroke-width: 0.8"/>
      </g>
     </g>
     <g id="text_21">
      <!-- −1.0 -->
      <g transform="translate(183.96963 124.036549) scale(0.07497 -0.07497)">
       <use xlink:href="#DejaVuSans-2212"/>
       <use xlink:href="#DejaVuSans-31" x="83.789062"/>
       <use xlink:href="#DejaVuSans-2e" x="147.412109"/>
       <use xlink:href="#DejaVuSans-30" x="179.199219"/>
      </g>
     </g>
    </g>
    <g id="ytick_9">
     <g id="line2d_18">
      <g>
       <use xlink:href="#m1ad5c044e3" x="206.174455" y="93.403274" style="stroke: #000000; stroke-width: 0.8"/>
      </g>
     </g>
     <g id="text_22">
      <!-- −0.5 -->
      <g transform="translate(183.96963 96.251549) scale(0.07497 -0.07497)">
       <use xlink:href="#DejaVuSans-2212"/>
       <use xlink:href="#DejaVuSans-30" x="83.789062"/>
       <use xlink:href="#DejaVuSans-2e" x="147.412109"/>
       <use xlink:href="#DejaVuSans-35" x="179.199219"/>
      </g>
     </g>
    </g>
    <g id="ytick_10">
     <g id="line2d_19">
      <g>
       <use xlink:href="#m1ad5c044e3" x="206.174455" y="65.618274" style="stroke: #000000; stroke-width: 0.8"/>
      </g>
     </g>
     <g id="text_23">
      <!-- 0.0 -->
      <g transform="translate(190.251882 68.466549) scale(0.07497 -0.07497)">
       <use xlink:href="#DejaVuSans-30"/>
       <use xlink:href="#DejaVuSans-2e" x="63.623047"/>
       <use xlink:href="#DejaVuSans-30" x="95.410156"/>
      </g>
     </g>
    </g>
    <g id="ytick_11">
     <g id="line2d_20">
      <g>
       <use xlink:href="#m1ad5c044e3" x="206.174455" y="37.833274" style="stroke: #000000; stroke-width: 0.8"/>
      </g>
     </g>
     <g id="text_24">
      <!-- 0.5 -->
      <g transform="translate(190.251882 40.681549) scale(0.07497 -0.07497)">
       <use xlink:href="#DejaVuSans-30"/>
       <use xlink:href="#DejaVuSans-2e" x="63.623047"/>
       <use xlink:href="#DejaVuSans-35" x="95.410156"/>
      </g>
     </g>
    </g>
    <g id="ytick_12">
     <g id="line2d_21">
      <g>
       <use xlink:href="#m1ad5c044e3" x="206.174455" y="10.048274" style="stroke: #000000; stroke-width: 0.8"/>
      </g>
     </g>
     <g id="text_25">
      <!-- 1.0 -->
      <g transform="translate(190.251882 12.896549) scale(0.07497 -0.07497)">
       <use xlink:href="#DejaVuSans-31"/>
       <use xlink:href="#DejaVuSans-2e" x="63.623047"/>
       <use xlink:href="#DejaVuSans-30" x="95.410156"/>
      </g>
     </g>
    </g>
    <g id="text_26">
     <!-- Bias -->
     <g transform="translate(180.597912 75.057727) rotate(-90) scale(0.09 -0.09)">
      <defs>
       <path id="DejaVuSans-42" d="M 1259 2228 
L 1259 519 
L 2272 519 
Q 2781 519 3026 730 
Q 3272 941 3272 1375 
Q 3272 1813 3026 2020 
Q 2781 2228 2272 2228 
L 1259 2228 
z
M 1259 4147 
L 1259 2741 
L 2194 2741 
Q 2656 2741 2882 2914 
Q 3109 3088 3109 3444 
Q 3109 3797 2882 3972 
Q 2656 4147 2194 4147 
L 1259 4147 
z
M 628 4666 
L 2241 4666 
Q 2963 4666 3353 4366 
Q 3744 4066 3744 3513 
Q 3744 3084 3544 2831 
Q 3344 2578 2956 2516 
Q 3422 2416 3680 2098 
Q 3938 1781 3938 1306 
Q 3938 681 3513 340 
Q 3088 0 2303 0 
L 628 0 
L 628 4666 
z
" transform="scale(0.015625)"/>
       <path id="DejaVuSans-73" d="M 2834 3397 
L 2834 2853 
Q 2591 2978 2328 3040 
Q 2066 3103 1784 3103 
Q 1356 3103 1142 2972 
Q 928 2841 928 2578 
Q 928 2378 1081 2264 
Q 1234 2150 1697 2047 
L 1894 2003 
Q 2506 1872 2764 1633 
Q 3022 1394 3022 966 
Q 3022 478 2636 193 
Q 2250 -91 1575 -91 
Q 1294 -91 989 -36 
Q 684 19 347 128 
L 347 722 
Q 666 556 975 473 
Q 1284 391 1588 391 
Q 1994 391 2212 530 
Q 2431 669 2431 922 
Q 2431 1156 2273 1281 
Q 2116 1406 1581 1522 
L 1381 1569 
Q 847 1681 609 1914 
Q 372 2147 372 2553 
Q 372 3047 722 3315 
Q 1072 3584 1716 3584 
Q 2034 3584 2315 3537 
Q 2597 3491 2834 3397 
z
" transform="scale(0.015625)"/>
      </defs>
      <use xlink:href="#DejaVuSans-42"/>
      <use xlink:href="#DejaVuSans-69" x="68.603516"/>
      <use xlink:href="#DejaVuSans-61" x="96.386719"/>
      <use xlink:href="#DejaVuSans-73" x="157.666016"/>
     </g>
    </g>
   </g>
   <g id="patch_6">
    <path d="M 206.174455 121.188274 
L 206.174455 10.048274 
L 231.829895 10.048274 
L 231.829895 121.188274 
z
" clip-path="url(#p615e2102de)" style="fill: #1f77b4; opacity: 0.2; stroke: #1f77b4; stroke-width: 0.8; stroke-linejoin: miter"/>
   </g>
   <g id="patch_7">
    <path d="M 231.829895 121.188274 
L 231.829895 10.048274 
L 285.051775 10.048274 
L 285.051775 121.188274 
z
" clip-path="url(#p615e2102de)" style="fill: #ff7f0e; opacity: 0.2; stroke: #ff7f0e; stroke-width: 0.8; stroke-linejoin: miter"/>
   </g>
   <g id="patch_8">
    <path d="M 285.051775 121.188274 
L 285.051775 10.048274 
L 324.490435 10.048274 
L 324.490435 121.188274 
z
" clip-path="url(#p615e2102de)" style="fill: #2ca02c; opacity: 0.2; stroke: #2ca02c; stroke-width: 0.8; stroke-linejoin: miter"/>
   </g>
   <g id="line2d_22">
    <path d="M 206.174455 65.618274 
L 324.490435 65.618274 
" clip-path="url(#p615e2102de)" style="fill: none; stroke: #000000; stroke-width: 1.3; stroke-linecap: round"/>
   </g>
   <g id="line2d_23">
    <path d="M 206.174455 75.513062 
L 211.937549 63.602624 
L 218.046675 66.55291 
L 224.410812 61.911808 
L 230.754572 64.994347 
L 237.146811 63.458494 
L 243.423586 66.750507 
L 249.706995 63.854717 
L 255.963834 66.202676 
L 262.175607 65.217329 
L 268.43387 66.925362 
L 274.655606 64.504818 
L 280.883742 65.299937 
L 287.114776 65.508152 
L 293.346456 65.072296 
L 299.576516 65.999644 
L 305.804793 64.947012 
L 312.032824 65.175602 
L 318.260992 65.563592 
L 324.490435 65.601737 
" clip-path="url(#p615e2102de)" style="fill: none; stroke: #1f77b4; stroke-width: 2; stroke-linecap: round"/>
   </g>
   <g id="line2d_24">
    <path d="M 264.574527 -1 
L 268.43387 14.839159 
L 274.655606 28.095935 
L 280.883742 40.159662 
L 287.114776 48.119568 
L 293.346456 53.018717 
L 299.576516 57.661387 
L 305.804793 59.13826 
L 312.032824 61.144119 
L 318.260992 62.765133 
L 324.490435 63.658607 
" clip-path="url(#p615e2102de)" style="fill: none; stroke: #ff7f0e; stroke-linecap: round"/>
   </g>
   <g id="line2d_25">
    <path d="M 206.174455 60.729247 
L 211.937549 40.421148 
L 218.046675 37.081869 
L 224.410812 27.752041 
L 230.754572 29.615569 
L 237.146811 28.422744 
L 243.423586 34.015717 
L 249.706995 34.327823 
L 255.963834 40.956589 
L 262.175607 44.07086 
L 268.43387 50.228001 
L 274.655606 51.375369 
L 280.883742 55.423455 
L 287.114776 58.224938 
L 293.346456 59.780838 
L 299.576516 62.212817 
L 305.804793 62.244111 
L 312.032824 63.267171 
L 318.260992 64.222633 
L 324.490435 64.662698 
" clip-path="url(#p615e2102de)" style="fill: none; stroke: #2ca02c; stroke-linecap: round"/>
   </g>
   <g id="line2d_26">
    <path d="M 264.839377 -1 
L 268.43387 9.132564 
L 274.655606 19.906129 
L 280.883742 32.923255 
L 287.114776 43.310943 
L 293.346456 50.524948 
L 299.576516 56.146332 
L 305.804793 58.737975 
L 312.032824 60.87098 
L 318.260992 63.179618 
L 324.490435 63.804394 
" clip-path="url(#p615e2102de)" style="fill: none; stroke: #d62728; stroke-linecap: round"/>
   </g>
   <g id="patch_9">
    <path d="M 206.174455 121.188274 
L 206.174455 10.048274 
" style="fill: none; stroke: #000000; stroke-linejoin: miter; stroke-linecap: square"/>
   </g>
   <g id="patch_10">
    <path d="M 206.174455 121.188274 
L 324.490435 121.188274 
" style="fill: none; stroke: #000000; stroke-linejoin: miter; stroke-linecap: square"/>
   </g>
   <g id="text_27">
    <!-- B -->
    <g transform="translate(173.04598 17.998268) scale(0.09 -0.09)">
     <defs>
      <path id="DejaVuSans-Bold-42" d="M 2456 2859 
Q 2741 2859 2887 2984 
Q 3034 3109 3034 3353 
Q 3034 3594 2887 3720 
Q 2741 3847 2456 3847 
L 1791 3847 
L 1791 2859 
L 2456 2859 
z
M 2497 819 
Q 2859 819 3042 972 
Q 3225 1125 3225 1434 
Q 3225 1738 3044 1889 
Q 2863 2041 2497 2041 
L 1791 2041 
L 1791 819 
L 2497 819 
z
M 3616 2497 
Q 4003 2384 4215 2081 
Q 4428 1778 4428 1338 
Q 4428 663 3972 331 
Q 3516 0 2584 0 
L 588 0 
L 588 4666 
L 2394 4666 
Q 3366 4666 3802 4372 
Q 4238 4078 4238 3431 
Q 4238 3091 4078 2852 
Q 3919 2613 3616 2497 
z
" transform="scale(0.015625)"/>
     </defs>
     <use xlink:href="#DejaVuSans-Bold-42"/>
    </g>
   </g>
   <g id="legend_1">
    <g id="patch_11">
     <path d="M 228.915492 118.938274 
L 301.749398 118.938274 
Q 303.549398 118.938274 303.549398 117.138274 
L 303.549398 71.947024 
Q 303.549398 70.147024 301.749398 70.147024 
L 228.915492 70.147024 
Q 227.115492 70.147024 227.115492 71.947024 
L 227.115492 117.138274 
Q 227.115492 118.938274 228.915492 118.938274 
z
" style="fill: #ffffff; opacity: 0.8; stroke: #cccccc; stroke-width: 0.8; stroke-linejoin: miter"/>
    </g>
    <g id="line2d_27">
     <path d="M 230.715492 77.435618 
L 236.340492 77.435618 
L 241.965492 77.435618 
" style="fill: none; stroke: #1f77b4; stroke-width: 2; stroke-linecap: round"/>
    </g>
    <g id="text_28">
     <!-- Unbiased -->
     <g transform="translate(246.465492 80.585618) scale(0.09 -0.09)">
      <defs>
       <path id="DejaVuSans-55" d="M 556 4666 
L 1191 4666 
L 1191 1831 
Q 1191 1081 1462 751 
Q 1734 422 2344 422 
Q 2950 422 3222 751 
Q 3494 1081 3494 1831 
L 3494 4666 
L 4128 4666 
L 4128 1753 
Q 4128 841 3676 375 
Q 3225 -91 2344 -91 
Q 1459 -91 1007 375 
Q 556 841 556 1753 
L 556 4666 
z
" transform="scale(0.015625)"/>
       <path id="DejaVuSans-62" d="M 3116 1747 
Q 3116 2381 2855 2742 
Q 2594 3103 2138 3103 
Q 1681 3103 1420 2742 
Q 1159 2381 1159 1747 
Q 1159 1113 1420 752 
Q 1681 391 2138 391 
Q 2594 391 2855 752 
Q 3116 1113 3116 1747 
z
M 1159 2969 
Q 1341 3281 1617 3432 
Q 1894 3584 2278 3584 
Q 2916 3584 3314 3078 
Q 3713 2572 3713 1747 
Q 3713 922 3314 415 
Q 2916 -91 2278 -91 
Q 1894 -91 1617 61 
Q 1341 213 1159 525 
L 1159 0 
L 581 0 
L 581 4863 
L 1159 4863 
L 1159 2969 
z
" transform="scale(0.015625)"/>
       <path id="DejaVuSans-64" d="M 2906 2969 
L 2906 4863 
L 3481 4863 
L 3481 0 
L 2906 0 
L 2906 525 
Q 2725 213 2448 61 
Q 2172 -91 1784 -91 
Q 1150 -91 751 415 
Q 353 922 353 1747 
Q 353 2572 751 3078 
Q 1150 3584 1784 3584 
Q 2172 3584 2448 3432 
Q 2725 3281 2906 2969 
z
M 947 1747 
Q 947 1113 1208 752 
Q 1469 391 1925 391 
Q 2381 391 2643 752 
Q 2906 1113 2906 1747 
Q 2906 2381 2643 2742 
Q 2381 3103 1925 3103 
Q 1469 3103 1208 2742 
Q 947 2381 947 1747 
z
" transform="scale(0.015625)"/>
      </defs>
      <use xlink:href="#DejaVuSans-55"/>
      <use xlink:href="#DejaVuSans-6e" x="73.193359"/>
      <use xlink:href="#DejaVuSans-62" x="136.572266"/>
      <use xlink:href="#DejaVuSans-69" x="200.048828"/>
      <use xlink:href="#DejaVuSans-61" x="227.832031"/>
      <use xlink:href="#DejaVuSans-73" x="289.111328"/>
      <use xlink:href="#DejaVuSans-65" x="341.210938"/>
      <use xlink:href="#DejaVuSans-64" x="402.734375"/>
     </g>
    </g>
    <g id="line2d_28">
     <path d="M 230.715492 88.395931 
L 236.340492 88.395931 
L 241.965492 88.395931 
" style="fill: none; stroke: #ff7f0e; stroke-linecap: round"/>
    </g>
    <g id="text_29">
     <!-- Plugin -->
     <g transform="translate(246.465492 91.545931) scale(0.09 -0.09)">
      <defs>
       <path id="DejaVuSans-50" d="M 1259 4147 
L 1259 2394 
L 2053 2394 
Q 2494 2394 2734 2622 
Q 2975 2850 2975 3272 
Q 2975 3691 2734 3919 
Q 2494 4147 2053 4147 
L 1259 4147 
z
M 628 4666 
L 2053 4666 
Q 2838 4666 3239 4311 
Q 3641 3956 3641 3272 
Q 3641 2581 3239 2228 
Q 2838 1875 2053 1875 
L 1259 1875 
L 1259 0 
L 628 0 
L 628 4666 
z
" transform="scale(0.015625)"/>
      </defs>
      <use xlink:href="#DejaVuSans-50"/>
      <use xlink:href="#DejaVuSans-6c" x="60.302734"/>
      <use xlink:href="#DejaVuSans-75" x="88.085938"/>
      <use xlink:href="#DejaVuSans-67" x="151.464844"/>
      <use xlink:href="#DejaVuSans-69" x="214.941406"/>
      <use xlink:href="#DejaVuSans-6e" x="242.724609"/>
     </g>
    </g>
    <g id="line2d_29">
     <path d="M 230.715492 99.356243 
L 236.340492 99.356243 
L 241.965492 99.356243 
" style="fill: none; stroke: #2ca02c; stroke-linecap: round"/>
    </g>
    <g id="text_30">
     <!-- Grundmann -->
     <g transform="translate(246.465492 102.506243) scale(0.09 -0.09)">
      <defs>
       <path id="DejaVuSans-47" d="M 3809 666 
L 3809 1919 
L 2778 1919 
L 2778 2438 
L 4434 2438 
L 4434 434 
Q 4069 175 3628 42 
Q 3188 -91 2688 -91 
Q 1594 -91 976 548 
Q 359 1188 359 2328 
Q 359 3472 976 4111 
Q 1594 4750 2688 4750 
Q 3144 4750 3555 4637 
Q 3966 4525 4313 4306 
L 4313 3634 
Q 3963 3931 3569 4081 
Q 3175 4231 2741 4231 
Q 1884 4231 1454 3753 
Q 1025 3275 1025 2328 
Q 1025 1384 1454 906 
Q 1884 428 2741 428 
Q 3075 428 3337 486 
Q 3600 544 3809 666 
z
" transform="scale(0.015625)"/>
      </defs>
      <use xlink:href="#DejaVuSans-47"/>
      <use xlink:href="#DejaVuSans-72" x="77.490234"/>
      <use xlink:href="#DejaVuSans-75" x="118.603516"/>
      <use xlink:href="#DejaVuSans-6e" x="181.982422"/>
      <use xlink:href="#DejaVuSans-64" x="245.361328"/>
      <use xlink:href="#DejaVuSans-6d" x="308.837891"/>
      <use xlink:href="#DejaVuSans-61" x="406.25"/>
      <use xlink:href="#DejaVuSans-6e" x="467.529297"/>
      <use xlink:href="#DejaVuSans-6e" x="530.908203"/>
     </g>
    </g>
    <g id="line2d_30">
     <path d="M 230.715492 110.316556 
L 236.340492 110.316556 
L 241.965492 110.316556 
" style="fill: none; stroke: #d62728; stroke-linecap: round"/>
    </g>
    <g id="text_31">
     <!-- Chao -->
     <g transform="translate(246.465492 113.466556) scale(0.09 -0.09)">
      <defs>
       <path id="DejaVuSans-43" d="M 4122 4306 
L 4122 3641 
Q 3803 3938 3442 4084 
Q 3081 4231 2675 4231 
Q 1875 4231 1450 3742 
Q 1025 3253 1025 2328 
Q 1025 1406 1450 917 
Q 1875 428 2675 428 
Q 3081 428 3442 575 
Q 3803 722 4122 1019 
L 4122 359 
Q 3791 134 3420 21 
Q 3050 -91 2638 -91 
Q 1578 -91 968 557 
Q 359 1206 359 2328 
Q 359 3453 968 4101 
Q 1578 4750 2638 4750 
Q 3056 4750 3426 4639 
Q 3797 4528 4122 4306 
z
" transform="scale(0.015625)"/>
       <path id="DejaVuSans-68" d="M 3513 2113 
L 3513 0 
L 2938 0 
L 2938 2094 
Q 2938 2591 2744 2837 
Q 2550 3084 2163 3084 
Q 1697 3084 1428 2787 
Q 1159 2491 1159 1978 
L 1159 0 
L 581 0 
L 581 4863 
L 1159 4863 
L 1159 2956 
Q 1366 3272 1645 3428 
Q 1925 3584 2291 3584 
Q 2894 3584 3203 3211 
Q 3513 2838 3513 2113 
z
" transform="scale(0.015625)"/>
      </defs>
      <use xlink:href="#DejaVuSans-43"/>
      <use xlink:href="#DejaVuSans-68" x="69.824219"/>
      <use xlink:href="#DejaVuSans-61" x="133.203125"/>
      <use xlink:href="#DejaVuSans-6f" x="194.482422"/>
     </g>
    </g>
   </g>
  </g>
  <g id="axes_3">
   <g id="patch_12">
    <path d="M 372.020435 121.188274 
L 490.336416 121.188274 
L 490.336416 10.048274 
L 372.020435 10.048274 
z
" style="fill: #ffffff"/>
   </g>
   <g id="matplotlib.axis_5">
    <g id="xtick_9">
     <g id="line2d_31">
      <g>
       <use xlink:href="#m68684ee765" x="372.020435" y="121.188274" style="stroke: #000000; stroke-width: 0.8"/>
      </g>
     </g>
     <g id="text_32">
      <!-- 1 -->
      <g transform="translate(369.635452 130.884823) scale(0.07497 -0.07497)">
       <use xlink:href="#DejaVuSans-31"/>
      </g>
     </g>
    </g>
    <g id="xtick_10">
     <g id="line2d_32">
      <g>
       <use xlink:href="#m68684ee765" x="411.459095" y="121.188274" style="stroke: #000000; stroke-width: 0.8"/>
      </g>
     </g>
     <g id="text_33">
      <!-- 2 -->
      <g transform="translate(409.074112 130.884823) scale(0.07497 -0.07497)">
       <use xlink:href="#DejaVuSans-32"/>
      </g>
     </g>
    </g>
    <g id="xtick_11">
     <g id="line2d_33">
      <g>
       <use xlink:href="#m68684ee765" x="450.897756" y="121.188274" style="stroke: #000000; stroke-width: 0.8"/>
      </g>
     </g>
     <g id="text_34">
      <!-- 3 -->
      <g transform="translate(448.512772 130.884823) scale(0.07497 -0.07497)">
       <use xlink:href="#DejaVuSans-33"/>
      </g>
     </g>
    </g>
    <g id="xtick_12">
     <g id="line2d_34">
      <g>
       <use xlink:href="#m68684ee765" x="490.336416" y="121.188274" style="stroke: #000000; stroke-width: 0.8"/>
      </g>
     </g>
     <g id="text_35">
      <!-- 4 -->
      <g transform="translate(487.951433 130.884823) scale(0.07497 -0.07497)">
       <use xlink:href="#DejaVuSans-34"/>
      </g>
     </g>
    </g>
    <g id="text_36">
     <!-- $\log_{10}$ Sample Size -->
     <g transform="translate(390.408425 140.783965) scale(0.09 -0.09)">
      <use xlink:href="#DejaVuSans-6c" transform="translate(0 0.015625)"/>
      <use xlink:href="#DejaVuSans-6f" transform="translate(27.783203 0.015625)"/>
      <use xlink:href="#DejaVuSans-67" transform="translate(88.964844 0.015625)"/>
      <use xlink:href="#DejaVuSans-31" transform="translate(153.398438 -16.390625) scale(0.7)"/>
      <use xlink:href="#DejaVuSans-30" transform="translate(197.93457 -16.390625) scale(0.7)"/>
      <use xlink:href="#DejaVuSans-20" transform="translate(261.440754 0.015625)"/>
      <use xlink:href="#DejaVuSans-53" transform="translate(293.227864 0.015625)"/>
      <use xlink:href="#DejaVuSans-61" transform="translate(356.704426 0.015625)"/>
      <use xlink:href="#DejaVuSans-6d" transform="translate(417.983723 0.015625)"/>
      <use xlink:href="#DejaVuSans-70" transform="translate(515.395833 0.015625)"/>
      <use xlink:href="#DejaVuSans-6c" transform="translate(578.872395 0.015625)"/>
      <use xlink:href="#DejaVuSans-65" transform="translate(606.655598 0.015625)"/>
      <use xlink:href="#DejaVuSans-20" transform="translate(668.179036 0.015625)"/>
      <use xlink:href="#DejaVuSans-53" transform="translate(699.966145 0.015625)"/>
      <use xlink:href="#DejaVuSans-69" transform="translate(763.442708 0.015625)"/>
      <use xlink:href="#DejaVuSans-7a" transform="translate(791.225911 0.015625)"/>
      <use xlink:href="#DejaVuSans-65" transform="translate(843.716145 0.015625)"/>
     </g>
    </g>
   </g>
   <g id="matplotlib.axis_6">
    <g id="ytick_13">
     <g id="line2d_35">
      <g>
       <use xlink:href="#m1ad5c044e3" x="372.020435" y="121.188274" style="stroke: #000000; stroke-width: 0.8"/>
      </g>
     </g>
     <g id="text_37">
      <!-- 0.0 -->
      <g transform="translate(356.097862 124.036549) scale(0.07497 -0.07497)">
       <use xlink:href="#DejaVuSans-30"/>
       <use xlink:href="#DejaVuSans-2e" x="63.623047"/>
       <use xlink:href="#DejaVuSans-30" x="95.410156"/>
      </g>
     </g>
    </g>
    <g id="ytick_14">
     <g id="line2d_36">
      <g>
       <use xlink:href="#m1ad5c044e3" x="372.020435" y="93.403274" style="stroke: #000000; stroke-width: 0.8"/>
      </g>
     </g>
     <g id="text_38">
      <!-- 0.5 -->
      <g transform="translate(356.097862 96.251549) scale(0.07497 -0.07497)">
       <use xlink:href="#DejaVuSans-30"/>
       <use xlink:href="#DejaVuSans-2e" x="63.623047"/>
       <use xlink:href="#DejaVuSans-35" x="95.410156"/>
      </g>
     </g>
    </g>
    <g id="ytick_15">
     <g id="line2d_37">
      <g>
       <use xlink:href="#m1ad5c044e3" x="372.020435" y="65.618274" style="stroke: #000000; stroke-width: 0.8"/>
      </g>
     </g>
     <g id="text_39">
      <!-- 1.0 -->
      <g transform="translate(356.097862 68.466549) scale(0.07497 -0.07497)">
       <use xlink:href="#DejaVuSans-31"/>
       <use xlink:href="#DejaVuSans-2e" x="63.623047"/>
       <use xlink:href="#DejaVuSans-30" x="95.410156"/>
      </g>
     </g>
    </g>
    <g id="ytick_16">
     <g id="line2d_38">
      <g>
       <use xlink:href="#m1ad5c044e3" x="372.020435" y="37.833274" style="stroke: #000000; stroke-width: 0.8"/>
      </g>
     </g>
     <g id="text_40">
      <!-- 1.5 -->
      <g transform="translate(356.097862 40.681549) scale(0.07497 -0.07497)">
       <use xlink:href="#DejaVuSans-31"/>
       <use xlink:href="#DejaVuSans-2e" x="63.623047"/>
       <use xlink:href="#DejaVuSans-35" x="95.410156"/>
      </g>
     </g>
    </g>
    <g id="ytick_17">
     <g id="line2d_39">
      <g>
       <use xlink:href="#m1ad5c044e3" x="372.020435" y="10.048274" style="stroke: #000000; stroke-width: 0.8"/>
      </g>
     </g>
     <g id="text_41">
      <!-- 2.0 -->
      <g transform="translate(356.097862 12.896549) scale(0.07497 -0.07497)">
       <use xlink:href="#DejaVuSans-32"/>
       <use xlink:href="#DejaVuSans-2e" x="63.623047"/>
       <use xlink:href="#DejaVuSans-30" x="95.410156"/>
      </g>
     </g>
    </g>
    <g id="text_42">
     <!-- Variance -->
     <g transform="translate(352.726144 85.058274) rotate(-90) scale(0.09 -0.09)">
      <defs>
       <path id="DejaVuSans-56" d="M 1831 0 
L 50 4666 
L 709 4666 
L 2188 738 
L 3669 4666 
L 4325 4666 
L 2547 0 
L 1831 0 
z
" transform="scale(0.015625)"/>
      </defs>
      <use xlink:href="#DejaVuSans-56"/>
      <use xlink:href="#DejaVuSans-61" x="60.658203"/>
      <use xlink:href="#DejaVuSans-72" x="121.9375"/>
      <use xlink:href="#DejaVuSans-69" x="163.050781"/>
      <use xlink:href="#DejaVuSans-61" x="190.833984"/>
      <use xlink:href="#DejaVuSans-6e" x="252.113281"/>
      <use xlink:href="#DejaVuSans-63" x="315.492188"/>
      <use xlink:href="#DejaVuSans-65" x="370.472656"/>
     </g>
    </g>
   </g>
   <g id="patch_13">
    <path d="M 372.020435 121.188274 
L 372.020435 10.048274 
L 397.675875 10.048274 
L 397.675875 121.188274 
z
" clip-path="url(#p3db9deea83)" style="fill: #1f77b4; opacity: 0.2; stroke: #1f77b4; stroke-width: 0.8; stroke-linejoin: miter"/>
   </g>
   <g id="patch_14">
    <path d="M 397.675875 121.188274 
L 397.675875 10.048274 
L 450.897756 10.048274 
L 450.897756 121.188274 
z
" clip-path="url(#p3db9deea83)" style="fill: #ff7f0e; opacity: 0.2; stroke: #ff7f0e; stroke-width: 0.8; stroke-linejoin: miter"/>
   </g>
   <g id="patch_15">
    <path d="M 450.897756 121.188274 
L 450.897756 10.048274 
L 490.336416 10.048274 
L 490.336416 121.188274 
z
" clip-path="url(#p3db9deea83)" style="fill: #2ca02c; opacity: 0.2; stroke: #2ca02c; stroke-width: 0.8; stroke-linejoin: miter"/>
   </g>
   <g id="line2d_40">
    <path d="M 395.403221 -1 
L 396.600552 15.331777 
L 402.992792 10.70539 
L 409.269566 76.206886 
L 415.552975 42.053436 
L 421.809815 92.615486 
L 428.021587 100.459339 
L 434.279851 108.876289 
L 440.501587 112.103403 
L 446.729723 115.246914 
L 452.960756 116.87055 
L 459.192436 117.998346 
L 465.422497 118.996052 
L 471.650773 119.734373 
L 477.878805 120.076048 
L 484.106972 120.513297 
L 490.336416 120.686455 
" clip-path="url(#p3db9deea83)" style="fill: none; stroke: #1f77b4; stroke-width: 2; stroke-linecap: round"/>
   </g>
   <g id="line2d_41">
    <path d="M 407.442048 -1 
L 409.269566 34.272966 
L 415.552975 12.843717 
L 421.809815 80.345254 
L 428.021587 93.686558 
L 434.279851 105.561816 
L 440.501587 110.359947 
L 446.729723 114.37114 
L 452.960756 116.435596 
L 459.192436 117.781883 
L 465.422497 118.885319 
L 471.650773 119.683599 
L 477.878805 120.04798 
L 484.106972 120.501274 
L 490.336416 120.680179 
" clip-path="url(#p3db9deea83)" style="fill: none; stroke: #ff7f0e; stroke-linecap: round"/>
   </g>
   <g id="line2d_42">
    <path d="M 404.611096 -1 
L 409.269566 60.750797 
L 415.552975 31.789642 
L 421.809815 87.767208 
L 428.021587 97.6782 
L 434.279851 107.462738 
L 440.501587 111.347305 
L 446.729723 114.858615 
L 452.960756 116.676269 
L 459.192436 117.901331 
L 465.422497 118.945883 
L 471.650773 119.711314 
L 477.878805 120.063228 
L 484.106972 120.50779 
L 490.336416 120.683575 
" clip-path="url(#p3db9deea83)" style="fill: none; stroke: #2ca02c; stroke-linecap: round"/>
   </g>
   <g id="line2d_43">
    <path d="M 419.205171 -1 
L 421.809815 47.018129 
L 428.021587 75.99072 
L 434.279851 97.269125 
L 440.501587 105.543325 
L 446.729723 111.638639 
L 452.960756 114.929729 
L 459.192436 116.86706 
L 465.422497 118.068618 
L 471.650773 118.913022 
L 477.878805 119.371667 
L 484.106972 119.935779 
L 490.336416 120.121531 
" clip-path="url(#p3db9deea83)" style="fill: none; stroke: #d62728; stroke-linecap: round"/>
   </g>
   <g id="patch_16">
    <path d="M 372.020435 121.188274 
L 372.020435 10.048274 
" style="fill: none; stroke: #000000; stroke-linejoin: miter; stroke-linecap: square"/>
   </g>
   <g id="patch_17">
    <path d="M 372.020435 121.188274 
L 490.336416 121.188274 
" style="fill: none; stroke: #000000; stroke-linejoin: miter; stroke-linecap: square"/>
   </g>
   <g id="text_43">
    <!-- C -->
    <g transform="translate(338.891961 17.998268) scale(0.09 -0.09)">
     <defs>
      <path id="DejaVuSans-Bold-43" d="M 4288 256 
Q 3956 84 3597 -3 
Q 3238 -91 2847 -91 
Q 1681 -91 1000 561 
Q 319 1213 319 2328 
Q 319 3447 1000 4098 
Q 1681 4750 2847 4750 
Q 3238 4750 3597 4662 
Q 3956 4575 4288 4403 
L 4288 3438 
Q 3953 3666 3628 3772 
Q 3303 3878 2944 3878 
Q 2300 3878 1931 3465 
Q 1563 3053 1563 2328 
Q 1563 1606 1931 1193 
Q 2300 781 2944 781 
Q 3303 781 3628 887 
Q 3953 994 4288 1222 
L 4288 256 
z
" transform="scale(0.015625)"/>
     </defs>
     <use xlink:href="#DejaVuSans-Bold-43"/>
    </g>
   </g>
  </g>
 </g>
 <defs>
  <clipPath id="p48d3ba39f9">
   <rect x="40.328475" y="10.048274" width="118.31598" height="111.14"/>
  </clipPath>
  <clipPath id="p615e2102de">
   <rect x="206.174455" y="10.048274" width="118.31598" height="111.14"/>
  </clipPath>
  <clipPath id="p3db9deea83">
   <rect x="372.020435" y="10.048274" width="118.31598" height="111.14"/>
  </clipPath>
 </defs>
</svg>
