<?xml version="1.0" encoding="utf-8" standalone="no"?>
<!DOCTYPE svg PUBLIC "-//W3C//DTD SVG 1.1//EN"
  "http://www.w3.org/Graphics/SVG/1.1/DTD/svg11.dtd">
<svg xmlns:xlink="http://www.w3.org/1999/xlink" width="499.187341pt" height="149.873965pt" viewBox="0 0 499.187341 149.873965" xmlns="http://www.w3.org/2000/svg" version="1.1">
 <metadata>
  <rdf:RDF xmlns:dc="http://purl.org/dc/elements/1.1/" xmlns:cc="http://creativecommons.org/ns#" xmlns:rdf="http://www.w3.org/1999/02/22-rdf-syntax-ns#">
   <cc:Work>
    <dc:type rdf:resource="http://purl.org/dc/dcmitype/StillImage"/>
    <dc:date>2024-06-04T15:51:43.339849</dc:date>
    <dc:format>image/svg+xml</dc:format>
    <dc:creator>
     <cc:Agent>
      <dc:title>Matplotlib v3.7.1, https://matplotlib.org/</dc:title>
     </cc:Agent>
    </dc:creator>
   </cc:Work>
  </rdf:RDF>
 </metadata>
 <defs>
  <style type="text/css">*{stroke-linejoin: round; stroke-linecap: butt}</style>
 </defs>
 <g id="figure_1">
  <g id="patch_1">
   <path d="M 0 149.873965 
L 499.187341 149.873965 
L 499.187341 0 
L 0 0 
L 0 149.873965 
z
" style="fill: none"/>
  </g>
  <g id="axes_1">
   <g id="patch_2">
    <path d="M 37.29677 121.188274 
L 153.053578 121.188274 
L 153.053578 10.048274 
L 37.29677 10.048274 
z
" style="fill: #ffffff"/>
   </g>
   <g id="matplotlib.axis_1">
    <g id="xtick_1">
     <g id="line2d_1">
      <defs>
       <path id="me9f2f757f7" d="M 0 2 
L 0 -2 
" style="stroke: #000000; stroke-width: 0.8"/>
      </defs>
      <g>
       <use xlink:href="#me9f2f757f7" x="55.820721" y="121.188274" style="stroke: #000000; stroke-width: 0.8"/>
      </g>
     </g>
     <g id="text_1">
      <!-- −4.0 -->
      <g transform="translate(46.718309 130.884823) scale(0.07497 -0.07497)">
       <defs>
        <path id="DejaVuSans-2212" d="M 678 2272 
L 4684 2272 
L 4684 1741 
L 678 1741 
L 678 2272 
z
" transform="scale(0.015625)"/>
        <path id="DejaVuSans-34" d="M 2419 4116 
L 825 1625 
L 2419 1625 
L 2419 4116 
z
M 2253 4666 
L 3047 4666 
L 3047 1625 
L 3713 1625 
L 3713 1100 
L 3047 1100 
L 3047 0 
L 2419 0 
L 2419 1100 
L 313 1100 
L 313 1709 
L 2253 4666 
z
" transform="scale(0.015625)"/>
        <path id="DejaVuSans-2e" d="M 684 794 
L 1344 794 
L 1344 0 
L 684 0 
L 684 794 
z
" transform="scale(0.015625)"/>
        <path id="DejaVuSans-30" d="M 2034 4250 
Q 1547 4250 1301 3770 
Q 1056 3291 1056 2328 
Q 1056 1369 1301 889 
Q 1547 409 2034 409 
Q 2525 409 2770 889 
Q 3016 1369 3016 2328 
Q 3016 3291 2770 3770 
Q 2525 4250 2034 4250 
z
M 2034 4750 
Q 2819 4750 3233 4129 
Q 3647 3509 3647 2328 
Q 3647 1150 3233 529 
Q 2819 -91 2034 -91 
Q 1250 -91 836 529 
Q 422 1150 422 2328 
Q 422 3509 836 4129 
Q 1250 4750 2034 4750 
z
" transform="scale(0.015625)"/>
       </defs>
       <use xlink:href="#DejaVuSans-2212"/>
       <use xlink:href="#DejaVuSans-34" x="83.789062"/>
       <use xlink:href="#DejaVuSans-2e" x="147.412109"/>
       <use xlink:href="#DejaVuSans-30" x="179.199219"/>
      </g>
     </g>
    </g>
    <g id="xtick_2">
     <g id="line2d_2">
      <g>
       <use xlink:href="#me9f2f757f7" x="79.095524" y="121.188274" style="stroke: #000000; stroke-width: 0.8"/>
      </g>
     </g>
     <g id="text_2">
      <!-- −3.5 -->
      <g transform="translate(69.993112 130.884823) scale(0.07497 -0.07497)">
       <defs>
        <path id="DejaVuSans-33" d="M 2597 2516 
Q 3050 2419 3304 2112 
Q 3559 1806 3559 1356 
Q 3559 666 3084 287 
Q 2609 -91 1734 -91 
Q 1441 -91 1130 -33 
Q 819 25 488 141 
L 488 750 
Q 750 597 1062 519 
Q 1375 441 1716 441 
Q 2309 441 2620 675 
Q 2931 909 2931 1356 
Q 2931 1769 2642 2001 
Q 2353 2234 1838 2234 
L 1294 2234 
L 1294 2753 
L 1863 2753 
Q 2328 2753 2575 2939 
Q 2822 3125 2822 3475 
Q 2822 3834 2567 4026 
Q 2313 4219 1838 4219 
Q 1578 4219 1281 4162 
Q 984 4106 628 3988 
L 628 4550 
Q 988 4650 1302 4700 
Q 1616 4750 1894 4750 
Q 2613 4750 3031 4423 
Q 3450 4097 3450 3541 
Q 3450 3153 3228 2886 
Q 3006 2619 2597 2516 
z
" transform="scale(0.015625)"/>
        <path id="DejaVuSans-35" d="M 691 4666 
L 3169 4666 
L 3169 4134 
L 1269 4134 
L 1269 2991 
Q 1406 3038 1543 3061 
Q 1681 3084 1819 3084 
Q 2600 3084 3056 2656 
Q 3513 2228 3513 1497 
Q 3513 744 3044 326 
Q 2575 -91 1722 -91 
Q 1428 -91 1123 -41 
Q 819 9 494 109 
L 494 744 
Q 775 591 1075 516 
Q 1375 441 1709 441 
Q 2250 441 2565 725 
Q 2881 1009 2881 1497 
Q 2881 1984 2565 2268 
Q 2250 2553 1709 2553 
Q 1456 2553 1204 2497 
Q 953 2441 691 2322 
L 691 4666 
z
" transform="scale(0.015625)"/>
       </defs>
       <use xlink:href="#DejaVuSans-2212"/>
       <use xlink:href="#DejaVuSans-33" x="83.789062"/>
       <use xlink:href="#DejaVuSans-2e" x="147.412109"/>
       <use xlink:href="#DejaVuSans-35" x="179.199219"/>
      </g>
     </g>
    </g>
    <g id="xtick_3">
     <g id="line2d_3">
      <g>
       <use xlink:href="#me9f2f757f7" x="102.370327" y="121.188274" style="stroke: #000000; stroke-width: 0.8"/>
      </g>
     </g>
     <g id="text_3">
      <!-- −3.0 -->
      <g transform="translate(93.267915 130.884823) scale(0.07497 -0.07497)">
       <use xlink:href="#DejaVuSans-2212"/>
       <use xlink:href="#DejaVuSans-33" x="83.789062"/>
       <use xlink:href="#DejaVuSans-2e" x="147.412109"/>
       <use xlink:href="#DejaVuSans-30" x="179.199219"/>
      </g>
     </g>
    </g>
    <g id="xtick_4">
     <g id="line2d_4">
      <g>
       <use xlink:href="#me9f2f757f7" x="125.64513" y="121.188274" style="stroke: #000000; stroke-width: 0.8"/>
      </g>
     </g>
     <g id="text_4">
      <!-- −2.5 -->
      <g transform="translate(116.542718 130.884823) scale(0.07497 -0.07497)">
       <defs>
        <path id="DejaVuSans-32" d="M 1228 531 
L 3431 531 
L 3431 0 
L 469 0 
L 469 531 
Q 828 903 1448 1529 
Q 2069 2156 2228 2338 
Q 2531 2678 2651 2914 
Q 2772 3150 2772 3378 
Q 2772 3750 2511 3984 
Q 2250 4219 1831 4219 
Q 1534 4219 1204 4116 
Q 875 4013 500 3803 
L 500 4441 
Q 881 4594 1212 4672 
Q 1544 4750 1819 4750 
Q 2544 4750 2975 4387 
Q 3406 4025 3406 3419 
Q 3406 3131 3298 2873 
Q 3191 2616 2906 2266 
Q 2828 2175 2409 1742 
Q 1991 1309 1228 531 
z
" transform="scale(0.015625)"/>
       </defs>
       <use xlink:href="#DejaVuSans-2212"/>
       <use xlink:href="#DejaVuSans-32" x="83.789062"/>
       <use xlink:href="#DejaVuSans-2e" x="147.412109"/>
       <use xlink:href="#DejaVuSans-35" x="179.199219"/>
      </g>
     </g>
    </g>
    <g id="xtick_5">
     <g id="line2d_5">
      <g>
       <use xlink:href="#me9f2f757f7" x="148.919934" y="121.188274" style="stroke: #000000; stroke-width: 0.8"/>
      </g>
     </g>
     <g id="text_5">
      <!-- −2.0 -->
      <g transform="translate(139.817521 130.884823) scale(0.07497 -0.07497)">
       <use xlink:href="#DejaVuSans-2212"/>
       <use xlink:href="#DejaVuSans-32" x="83.789062"/>
       <use xlink:href="#DejaVuSans-2e" x="147.412109"/>
       <use xlink:href="#DejaVuSans-30" x="179.199219"/>
      </g>
     </g>
    </g>
    <g id="text_6">
     <!-- $log_{10}$ Frequency -->
     <g transform="translate(59.040174 140.783965) scale(0.09 -0.09)">
      <defs>
       <path id="DejaVuSans-Oblique-6c" d="M 1172 4863 
L 1747 4863 
L 800 0 
L 225 0 
L 1172 4863 
z
" transform="scale(0.015625)"/>
       <path id="DejaVuSans-Oblique-6f" d="M 1625 -91 
Q 1009 -91 651 289 
Q 294 669 294 1325 
Q 294 1706 417 2101 
Q 541 2497 738 2766 
Q 1047 3184 1428 3384 
Q 1809 3584 2291 3584 
Q 2888 3584 3255 3212 
Q 3622 2841 3622 2241 
Q 3622 1825 3500 1412 
Q 3378 1000 3181 728 
Q 2875 309 2494 109 
Q 2113 -91 1625 -91 
z
M 891 1344 
Q 891 869 1089 633 
Q 1288 397 1691 397 
Q 2269 397 2648 901 
Q 3028 1406 3028 2181 
Q 3028 2634 2825 2865 
Q 2622 3097 2228 3097 
Q 1903 3097 1650 2945 
Q 1397 2794 1197 2484 
Q 1050 2253 970 1956 
Q 891 1659 891 1344 
z
" transform="scale(0.015625)"/>
       <path id="DejaVuSans-Oblique-67" d="M 3816 3500 
L 3219 434 
Q 3047 -456 2561 -893 
Q 2075 -1331 1253 -1331 
Q 950 -1331 690 -1286 
Q 431 -1241 206 -1147 
L 313 -588 
Q 525 -725 762 -790 
Q 1000 -856 1269 -856 
Q 1816 -856 2167 -557 
Q 2519 -259 2631 300 
L 2681 563 
Q 2441 288 2122 144 
Q 1803 0 1434 0 
Q 903 0 598 351 
Q 294 703 294 1319 
Q 294 1803 478 2267 
Q 663 2731 997 3091 
Q 1219 3328 1514 3456 
Q 1809 3584 2131 3584 
Q 2484 3584 2746 3420 
Q 3009 3256 3138 2956 
L 3238 3500 
L 3816 3500 
z
M 2950 2216 
Q 2950 2641 2750 2872 
Q 2550 3103 2181 3103 
Q 1953 3103 1747 3012 
Q 1541 2922 1394 2759 
Q 1156 2491 1023 2127 
Q 891 1763 891 1375 
Q 891 944 1092 712 
Q 1294 481 1672 481 
Q 2219 481 2584 976 
Q 2950 1472 2950 2216 
z
" transform="scale(0.015625)"/>
       <path id="DejaVuSans-31" d="M 794 531 
L 1825 531 
L 1825 4091 
L 703 3866 
L 703 4441 
L 1819 4666 
L 2450 4666 
L 2450 531 
L 3481 531 
L 3481 0 
L 794 0 
L 794 531 
z
" transform="scale(0.015625)"/>
       <path id="DejaVuSans-20" transform="scale(0.015625)"/>
       <path id="DejaVuSans-46" d="M 628 4666 
L 3309 4666 
L 3309 4134 
L 1259 4134 
L 1259 2759 
L 3109 2759 
L 3109 2228 
L 1259 2228 
L 1259 0 
L 628 0 
L 628 4666 
z
" transform="scale(0.015625)"/>
       <path id="DejaVuSans-72" d="M 2631 2963 
Q 2534 3019 2420 3045 
Q 2306 3072 2169 3072 
Q 1681 3072 1420 2755 
Q 1159 2438 1159 1844 
L 1159 0 
L 581 0 
L 581 3500 
L 1159 3500 
L 1159 2956 
Q 1341 3275 1631 3429 
Q 1922 3584 2338 3584 
Q 2397 3584 2469 3576 
Q 2541 3569 2628 3553 
L 2631 2963 
z
" transform="scale(0.015625)"/>
       <path id="DejaVuSans-65" d="M 3597 1894 
L 3597 1613 
L 953 1613 
Q 991 1019 1311 708 
Q 1631 397 2203 397 
Q 2534 397 2845 478 
Q 3156 559 3463 722 
L 3463 178 
Q 3153 47 2828 -22 
Q 2503 -91 2169 -91 
Q 1331 -91 842 396 
Q 353 884 353 1716 
Q 353 2575 817 3079 
Q 1281 3584 2069 3584 
Q 2775 3584 3186 3129 
Q 3597 2675 3597 1894 
z
M 3022 2063 
Q 3016 2534 2758 2815 
Q 2500 3097 2075 3097 
Q 1594 3097 1305 2825 
Q 1016 2553 972 2059 
L 3022 2063 
z
" transform="scale(0.015625)"/>
       <path id="DejaVuSans-71" d="M 947 1747 
Q 947 1113 1208 752 
Q 1469 391 1925 391 
Q 2381 391 2643 752 
Q 2906 1113 2906 1747 
Q 2906 2381 2643 2742 
Q 2381 3103 1925 3103 
Q 1469 3103 1208 2742 
Q 947 2381 947 1747 
z
M 2906 525 
Q 2725 213 2448 61 
Q 2172 -91 1784 -91 
Q 1150 -91 751 415 
Q 353 922 353 1747 
Q 353 2572 751 3078 
Q 1150 3584 1784 3584 
Q 2172 3584 2448 3432 
Q 2725 3281 2906 2969 
L 2906 3500 
L 3481 3500 
L 3481 -1331 
L 2906 -1331 
L 2906 525 
z
" transform="scale(0.015625)"/>
       <path id="DejaVuSans-75" d="M 544 1381 
L 544 3500 
L 1119 3500 
L 1119 1403 
Q 1119 906 1312 657 
Q 1506 409 1894 409 
Q 2359 409 2629 706 
Q 2900 1003 2900 1516 
L 2900 3500 
L 3475 3500 
L 3475 0 
L 2900 0 
L 2900 538 
Q 2691 219 2414 64 
Q 2138 -91 1772 -91 
Q 1169 -91 856 284 
Q 544 659 544 1381 
z
M 1991 3584 
L 1991 3584 
z
" transform="scale(0.015625)"/>
       <path id="DejaVuSans-6e" d="M 3513 2113 
L 3513 0 
L 2938 0 
L 2938 2094 
Q 2938 2591 2744 2837 
Q 2550 3084 2163 3084 
Q 1697 3084 1428 2787 
Q 1159 2491 1159 1978 
L 1159 0 
L 581 0 
L 581 3500 
L 1159 3500 
L 1159 2956 
Q 1366 3272 1645 3428 
Q 1925 3584 2291 3584 
Q 2894 3584 3203 3211 
Q 3513 2838 3513 2113 
z
" transform="scale(0.015625)"/>
       <path id="DejaVuSans-63" d="M 3122 3366 
L 3122 2828 
Q 2878 2963 2633 3030 
Q 2388 3097 2138 3097 
Q 1578 3097 1268 2742 
Q 959 2388 959 1747 
Q 959 1106 1268 751 
Q 1578 397 2138 397 
Q 2388 397 2633 464 
Q 2878 531 3122 666 
L 3122 134 
Q 2881 22 2623 -34 
Q 2366 -91 2075 -91 
Q 1284 -91 818 406 
Q 353 903 353 1747 
Q 353 2603 823 3093 
Q 1294 3584 2113 3584 
Q 2378 3584 2631 3529 
Q 2884 3475 3122 3366 
z
" transform="scale(0.015625)"/>
       <path id="DejaVuSans-79" d="M 2059 -325 
Q 1816 -950 1584 -1140 
Q 1353 -1331 966 -1331 
L 506 -1331 
L 506 -850 
L 844 -850 
Q 1081 -850 1212 -737 
Q 1344 -625 1503 -206 
L 1606 56 
L 191 3500 
L 800 3500 
L 1894 763 
L 2988 3500 
L 3597 3500 
L 2059 -325 
z
" transform="scale(0.015625)"/>
      </defs>
      <use xlink:href="#DejaVuSans-Oblique-6c" transform="translate(0 0.015625)"/>
      <use xlink:href="#DejaVuSans-Oblique-6f" transform="translate(27.783203 0.015625)"/>
      <use xlink:href="#DejaVuSans-Oblique-67" transform="translate(88.964844 0.015625)"/>
      <use xlink:href="#DejaVuSans-31" transform="translate(152.441406 -16.390625) scale(0.7)"/>
      <use xlink:href="#DejaVuSans-30" transform="translate(196.977539 -16.390625) scale(0.7)"/>
      <use xlink:href="#DejaVuSans-20" transform="translate(244.248047 0.015625)"/>
      <use xlink:href="#DejaVuSans-46" transform="translate(276.035156 0.015625)"/>
      <use xlink:href="#DejaVuSans-72" transform="translate(333.554688 0.015625)"/>
      <use xlink:href="#DejaVuSans-65" transform="translate(374.667969 0.015625)"/>
      <use xlink:href="#DejaVuSans-71" transform="translate(436.191406 0.015625)"/>
      <use xlink:href="#DejaVuSans-75" transform="translate(499.667969 0.015625)"/>
      <use xlink:href="#DejaVuSans-65" transform="translate(563.046875 0.015625)"/>
      <use xlink:href="#DejaVuSans-6e" transform="translate(624.570312 0.015625)"/>
      <use xlink:href="#DejaVuSans-63" transform="translate(687.949219 0.015625)"/>
      <use xlink:href="#DejaVuSans-79" transform="translate(742.929688 0.015625)"/>
     </g>
    </g>
   </g>
   <g id="matplotlib.axis_2">
    <g id="ytick_1">
     <g id="line2d_6">
      <defs>
       <path id="m7691e72ee8" d="M 2 0 
L -2 -0 
" style="stroke: #000000; stroke-width: 0.8"/>
      </defs>
      <g>
       <use xlink:href="#m7691e72ee8" x="37.29677" y="116.136456" style="stroke: #000000; stroke-width: 0.8"/>
      </g>
     </g>
     <g id="text_7">
      <!-- 0.0 -->
      <g transform="translate(21.374197 118.98473) scale(0.07497 -0.07497)">
       <use xlink:href="#DejaVuSans-30"/>
       <use xlink:href="#DejaVuSans-2e" x="63.623047"/>
       <use xlink:href="#DejaVuSans-30" x="95.410156"/>
      </g>
     </g>
    </g>
    <g id="ytick_2">
     <g id="line2d_7">
      <g>
       <use xlink:href="#m7691e72ee8" x="37.29677" y="99.294623" style="stroke: #000000; stroke-width: 0.8"/>
      </g>
     </g>
     <g id="text_8">
      <!-- 0.5 -->
      <g transform="translate(21.374197 102.142897) scale(0.07497 -0.07497)">
       <use xlink:href="#DejaVuSans-30"/>
       <use xlink:href="#DejaVuSans-2e" x="63.623047"/>
       <use xlink:href="#DejaVuSans-35" x="95.410156"/>
      </g>
     </g>
    </g>
    <g id="ytick_3">
     <g id="line2d_8">
      <g>
       <use xlink:href="#m7691e72ee8" x="37.29677" y="82.45279" style="stroke: #000000; stroke-width: 0.8"/>
      </g>
     </g>
     <g id="text_9">
      <!-- 1.0 -->
      <g transform="translate(21.374197 85.301064) scale(0.07497 -0.07497)">
       <use xlink:href="#DejaVuSans-31"/>
       <use xlink:href="#DejaVuSans-2e" x="63.623047"/>
       <use xlink:href="#DejaVuSans-30" x="95.410156"/>
      </g>
     </g>
    </g>
    <g id="ytick_4">
     <g id="line2d_9">
      <g>
       <use xlink:href="#m7691e72ee8" x="37.29677" y="65.610956" style="stroke: #000000; stroke-width: 0.8"/>
      </g>
     </g>
     <g id="text_10">
      <!-- 1.5 -->
      <g transform="translate(21.374197 68.459231) scale(0.07497 -0.07497)">
       <use xlink:href="#DejaVuSans-31"/>
       <use xlink:href="#DejaVuSans-2e" x="63.623047"/>
       <use xlink:href="#DejaVuSans-35" x="95.410156"/>
      </g>
     </g>
    </g>
    <g id="ytick_5">
     <g id="line2d_10">
      <g>
       <use xlink:href="#m7691e72ee8" x="37.29677" y="48.769123" style="stroke: #000000; stroke-width: 0.8"/>
      </g>
     </g>
     <g id="text_11">
      <!-- 2.0 -->
      <g transform="translate(21.374197 51.617397) scale(0.07497 -0.07497)">
       <use xlink:href="#DejaVuSans-32"/>
       <use xlink:href="#DejaVuSans-2e" x="63.623047"/>
       <use xlink:href="#DejaVuSans-30" x="95.410156"/>
      </g>
     </g>
    </g>
    <g id="ytick_6">
     <g id="line2d_11">
      <g>
       <use xlink:href="#m7691e72ee8" x="37.29677" y="31.92729" style="stroke: #000000; stroke-width: 0.8"/>
      </g>
     </g>
     <g id="text_12">
      <!-- 2.5 -->
      <g transform="translate(21.374197 34.775564) scale(0.07497 -0.07497)">
       <use xlink:href="#DejaVuSans-32"/>
       <use xlink:href="#DejaVuSans-2e" x="63.623047"/>
       <use xlink:href="#DejaVuSans-35" x="95.410156"/>
      </g>
     </g>
    </g>
    <g id="ytick_7">
     <g id="line2d_12">
      <g>
       <use xlink:href="#m7691e72ee8" x="37.29677" y="15.085457" style="stroke: #000000; stroke-width: 0.8"/>
      </g>
     </g>
     <g id="text_13">
      <!-- 3.0 -->
      <g transform="translate(21.374197 17.933731) scale(0.07497 -0.07497)">
       <use xlink:href="#DejaVuSans-33"/>
       <use xlink:href="#DejaVuSans-2e" x="63.623047"/>
       <use xlink:href="#DejaVuSans-30" x="95.410156"/>
      </g>
     </g>
    </g>
    <g id="text_14">
     <!-- $log_{10}$ Rank -->
     <g transform="translate(17.984197 89.423274) rotate(-90) scale(0.09 -0.09)">
      <defs>
       <path id="DejaVuSans-52" d="M 2841 2188 
Q 3044 2119 3236 1894 
Q 3428 1669 3622 1275 
L 4263 0 
L 3584 0 
L 2988 1197 
Q 2756 1666 2539 1819 
Q 2322 1972 1947 1972 
L 1259 1972 
L 1259 0 
L 628 0 
L 628 4666 
L 2053 4666 
Q 2853 4666 3247 4331 
Q 3641 3997 3641 3322 
Q 3641 2881 3436 2590 
Q 3231 2300 2841 2188 
z
M 1259 4147 
L 1259 2491 
L 2053 2491 
Q 2509 2491 2742 2702 
Q 2975 2913 2975 3322 
Q 2975 3731 2742 3939 
Q 2509 4147 2053 4147 
L 1259 4147 
z
" transform="scale(0.015625)"/>
       <path id="DejaVuSans-61" d="M 2194 1759 
Q 1497 1759 1228 1600 
Q 959 1441 959 1056 
Q 959 750 1161 570 
Q 1363 391 1709 391 
Q 2188 391 2477 730 
Q 2766 1069 2766 1631 
L 2766 1759 
L 2194 1759 
z
M 3341 1997 
L 3341 0 
L 2766 0 
L 2766 531 
Q 2569 213 2275 61 
Q 1981 -91 1556 -91 
Q 1019 -91 701 211 
Q 384 513 384 1019 
Q 384 1609 779 1909 
Q 1175 2209 1959 2209 
L 2766 2209 
L 2766 2266 
Q 2766 2663 2505 2880 
Q 2244 3097 1772 3097 
Q 1472 3097 1187 3025 
Q 903 2953 641 2809 
L 641 3341 
Q 956 3463 1253 3523 
Q 1550 3584 1831 3584 
Q 2591 3584 2966 3190 
Q 3341 2797 3341 1997 
z
" transform="scale(0.015625)"/>
       <path id="DejaVuSans-6b" d="M 581 4863 
L 1159 4863 
L 1159 1991 
L 2875 3500 
L 3609 3500 
L 1753 1863 
L 3688 0 
L 2938 0 
L 1159 1709 
L 1159 0 
L 581 0 
L 581 4863 
z
" transform="scale(0.015625)"/>
      </defs>
      <use xlink:href="#DejaVuSans-Oblique-6c" transform="translate(0 0.015625)"/>
      <use xlink:href="#DejaVuSans-Oblique-6f" transform="translate(27.783203 0.015625)"/>
      <use xlink:href="#DejaVuSans-Oblique-67" transform="translate(88.964844 0.015625)"/>
      <use xlink:href="#DejaVuSans-31" transform="translate(152.441406 -16.390625) scale(0.7)"/>
      <use xlink:href="#DejaVuSans-30" transform="translate(196.977539 -16.390625) scale(0.7)"/>
      <use xlink:href="#DejaVuSans-20" transform="translate(244.248047 0.015625)"/>
      <use xlink:href="#DejaVuSans-52" transform="translate(276.035156 0.015625)"/>
      <use xlink:href="#DejaVuSans-61" transform="translate(345.517578 0.015625)"/>
      <use xlink:href="#DejaVuSans-6e" transform="translate(406.796875 0.015625)"/>
      <use xlink:href="#DejaVuSans-6b" transform="translate(470.175781 0.015625)"/>
     </g>
    </g>
   </g>
   <g id="line2d_13">
    <path d="M 144.461361 116.136456 
L 141.951402 116.136456 
L 141.951402 105.996662 
L 138.776256 105.996662 
L 138.776256 100.065263 
L 135.534499 100.065263 
L 135.534499 95.856868 
L 135.121129 95.856868 
L 135.121129 92.592584 
L 134.777343 92.592584 
L 134.777343 89.925469 
L 134.55748 89.925469 
L 134.55748 87.670456 
L 134.355954 87.670456 
L 134.355954 85.717074 
L 133.220315 85.717074 
L 133.220315 83.99407 
L 133.044446 83.99407 
L 133.044446 82.45279 
L 131.969366 82.45279 
L 131.969366 81.058532 
L 131.497178 81.058532 
L 131.497178 79.785675 
L 131.064922 79.785675 
L 131.064922 78.61476 
L 130.494502 78.61476 
L 130.494502 77.530662 
L 129.514539 77.530662 
L 129.469706 75.57728 
L 128.823286 75.57728 
L 128.740995 73.854276 
L 128.66864 73.854276 
L 128.619679 72.312996 
L 128.012136 72.312996 
L 127.974371 70.918738 
L 127.695281 70.918738 
L 127.695281 70.26847 
L 127.498223 70.26847 
L 127.416162 68.474966 
L 127.164988 68.474966 
L 127.164988 67.922876 
L 127.029066 67.922876 
L 127.029066 67.390868 
L 126.823772 67.390868 
L 126.823772 66.87753 
L 126.470074 66.87753 
L 126.470074 66.381596 
L 126.022858 66.381596 
L 125.928334 64.987339 
L 125.60954 64.987339 
L 125.600055 64.126583 
L 125.460011 64.126583 
L 125.396319 63.313672 
L 125.318239 63.313672 
L 125.318239 62.923552 
L 124.64532 62.923552 
L 124.64532 62.543566 
L 124.402752 62.543566 
L 124.342501 61.811983 
L 124.16214 61.811983 
L 124.15866 61.115249 
L 123.96224 61.115249 
L 123.96224 60.778944 
L 123.815027 60.778944 
L 123.815027 60.450197 
L 123.688038 60.450197 
L 123.688038 60.128676 
L 123.438065 60.128676 
L 123.390177 59.204455 
L 123.020917 59.204455 
L 122.930026 58.619232 
L 122.82695 58.619232 
L 122.751868 57.783082 
L 122.513562 57.783082 
L 122.513562 57.51466 
L 122.006549 57.51466 
L 121.990285 56.737736 
L 121.875083 56.737736 
L 121.77808 55.297692 
L 121.483972 55.297692 
L 121.410608 54.627561 
L 121.344208 54.627561 
L 121.344208 54.410837 
L 121.231354 54.410837 
L 121.231354 54.197277 
L 121.119686 54.197277 
L 121.034784 53.779287 
L 120.774789 53.779287 
L 120.677447 53.173878 
L 120.623873 53.173878 
L 120.590993 52.592532 
L 120.41734 52.592532 
L 120.347648 52.033408 
L 120.091713 52.033408 
L 120.037466 51.49487 
L 119.970953 51.49487 
L 119.935241 50.63915 
L 119.754194 50.63915 
L 119.684169 50.310403 
L 119.641522 50.310403 
L 119.571309 49.830733 
L 119.501697 49.830733 
L 119.4332 49.366293 
L 119.346372 49.366293 
L 119.346372 49.2147 
L 119.194989 49.2147 
L 119.123158 48.623563 
L 119.050991 48.623563 
L 118.956629 48.195378 
L 118.850113 48.195378 
L 118.755637 47.643288 
L 118.647718 47.643288 
L 118.57473 47.374866 
L 118.331731 47.374866 
L 118.244558 46.852359 
L 118.057032 46.852359 
L 118.057032 46.724597 
L 117.866774 46.724597 
L 117.771478 46.224424 
L 117.750065 46.224424 
L 117.643231 45.860207 
L 117.488679 45.860207 
L 117.418333 45.622338 
L 117.350702 45.622338 
L 117.28332 45.157898 
L 117.224438 45.157898 
L 117.122839 44.707751 
L 116.893257 44.597346 
L 116.795266 44.163873 
L 116.718807 44.057483 
L 116.630022 43.846995 
L 116.507106 43.742876 
L 116.507106 43.639493 
L 116.243186 43.536836 
L 116.151086 43.133262 
L 116.029242 43.034084 
L 115.951335 42.837724 
L 115.763012 42.740523 
L 115.698801 42.548038 
L 115.588218 42.452738 
L 115.515479 42.263978 
L 115.389088 42.170504 
L 115.389088 42.077624 
L 115.140301 41.985329 
L 115.061822 41.711889 
L 114.979488 41.621867 
L 114.939086 41.355076 
L 114.778981 41.267216 
L 114.673778 41.093063 
L 114.657461 41.006758 
L 114.566557 40.750858 
L 114.286772 40.666542 
L 114.193205 40.334059 
L 113.980842 40.252106 
L 113.980842 40.170609 
L 113.712283 40.089564 
L 113.601593 39.690939 
L 113.50353 39.612501 
L 113.398572 39.302889 
L 113.269331 39.226499 
L 113.162049 39.074906 
L 113.077982 38.999694 
L 113.065874 38.850421 
L 112.769136 38.776352 
L 112.769136 38.702656 
L 112.630771 38.629329 
L 112.630771 38.556368 
L 112.433925 38.483769 
L 112.355702 38.339644 
L 112.181367 38.26811 
L 112.167859 38.126083 
L 111.96002 38.055584 
L 111.884464 37.915596 
L 111.730105 37.846101 
L 111.621011 37.639576 
L 111.571876 37.571377 
L 111.540891 37.435926 
L 111.075594 37.368667 
L 111.054601 37.235072 
L 110.933713 37.168729 
L 110.904851 36.971486 
L 110.813636 36.906325 
L 110.813636 36.841452 
L 110.639714 36.776867 
L 110.552396 36.648545 
L 110.502696 36.584803 
L 110.394039 36.20808 
L 110.341318 36.146225 
L 110.280437 36.023294 
L 110.010676 35.962214 
L 109.929918 35.840814 
L 109.60489 35.78049 
L 109.604557 35.660582 
L 109.455767 35.600995 
L 109.372405 35.423676 
L 109.141589 35.365045 
L 109.081646 35.132839 
L 108.990973 35.075359 
L 108.909631 34.961072 
L 108.6387 34.904262 
L 108.618809 34.791299 
L 108.486724 34.735143 
L 108.380793 34.51265 
L 108.098415 34.40266 
L 107.99832 34.293491 
L 107.873628 34.18513 
L 107.845419 33.970787 
L 107.577311 33.864782 
L 107.485434 33.75954 
L 107.248239 33.655049 
L 107.145574 33.44828 
L 107.018725 33.345982 
L 106.978209 33.193863 
L 106.662842 33.093322 
L 106.557231 32.943795 
L 106.415969 32.844952 
L 106.313492 32.649249 
L 106.255772 32.55237 
L 106.159014 32.408245 
L 106.090661 32.312944 
L 106.049254 32.124184 
L 105.912235 32.030711 
L 105.829285 31.75382 
L 105.697266 31.662675 
L 105.60304 31.437268 
L 105.407258 31.348069 
L 105.407258 31.303672 
L 105.043356 31.215282 
L 104.94678 31.040086 
L 104.80665 30.953269 
L 104.71909 30.781166 
L 104.623627 30.695867 
L 104.518563 30.484772 
L 104.250161 30.40118 
L 104.155692 30.235415 
L 103.987808 30.153231 
L 103.939786 30.030815 
L 103.717866 29.94977 
L 103.657112 29.869171 
L 103.460837 29.789014 
L 103.460837 29.7491 
L 103.170464 29.669596 
L 103.10144 29.590522 
L 102.719743 29.511873 
L 102.676034 29.433645 
L 102.546749 29.355833 
L 102.546749 29.317082 
L 102.387304 29.239886 
L 102.33773 29.163095 
L 102.170601 29.086705 
L 102.100653 29.010712 
L 101.811915 28.935112 
L 101.733764 28.747803 
L 101.473847 28.673545 
L 101.423006 28.453009 
L 101.06022 28.343975 
L 101.06022 28.307811 
L 100.807648 28.19985 
L 100.705854 28.128316 
L 100.397983 28.021667 
L 100.321246 27.91579 
L 100.197585 27.810673 
L 100.172205 27.706307 
L 99.993075 27.60268 
L 99.909805 27.329877 
L 99.722309 27.228873 
L 99.70211 27.161923 
L 99.500979 27.062069 
L 99.434527 26.897144 
L 99.1832 26.799075 
L 99.116068 26.701658 
L 98.815261 26.604887 
L 98.815261 26.572771 
L 98.168091 26.476845 
L 98.083851 26.381544 
L 97.627335 26.28686 
L 97.589265 26.192785 
L 97.188301 26.099311 
L 97.080272 25.975601 
L 97.005916 25.8835 
L 96.903249 25.761594 
L 96.697109 25.670827 
L 96.608431 25.520788 
L 96.293265 25.431498 
L 96.202925 25.372273 
L 96.048135 25.283882 
L 95.951251 25.225251 
L 95.763075 25.137741 
L 95.677723 25.02187 
L 95.535016 24.935565 
L 95.516335 24.87831 
L 94.924645 24.792846 
L 94.840341 24.707878 
L 94.670481 24.6234 
L 94.600666 24.567352 
L 94.307116 24.48368 
L 94.307116 24.455895 
L 93.87443 24.345281 
L 93.779213 24.235497 
L 93.615446 24.126531 
L 93.615446 24.099416 
L 93.142235 23.991455 
L 93.060215 23.937772 
L 92.52819 23.830993 
L 92.440187 23.751417 
L 92.255038 23.645985 
L 92.255038 23.619746 
L 91.494168 23.515255 
L 91.390109 23.411505 
L 91.253167 23.308486 
L 91.19967 23.231696 
L 90.923987 23.129931 
L 90.908964 23.079313 
L 90.608028 22.978599 
L 90.530165 22.853674 
L 90.32047 22.754496 
L 90.293517 22.655987 
L 89.610287 22.558136 
L 89.567876 22.485175 
L 89.337541 22.388456 
L 89.337541 22.364376 
L 88.634411 22.268451 
L 88.572304 22.196917 
L 87.971631 22.102079 
L 87.919568 22.05489 
L 87.38141 21.960966 
L 87.287537 21.914229 
L 86.576734 21.821201 
L 86.505621 21.751816 
L 86.216 21.659812 
L 86.216 21.636901 
L 85.666687 21.545614 
L 85.666687 21.522881 
L 84.919794 21.432301 
L 84.828636 21.319859 
L 84.539633 21.230524 
L 84.520399 21.18606 
L 84.287494 21.075488 
L 84.210095 21.031492 
L 83.523296 20.922077 
L 83.461408 20.856819 
L 83.081234 20.748699 
L 83.031443 20.705674 
L 82.486895 20.59866 
L 82.384999 20.534826 
L 82.110661 20.429051 
L 82.076808 20.386954 
L 81.320747 20.282239 
L 81.219092 20.199004 
L 80.594759 20.095621 
L 80.506962 20.013437 
L 79.656604 19.911353 
L 79.656604 19.891021 
L 79.172717 19.789785 
L 79.078529 19.749485 
L 78.672999 19.64922 
L 78.672999 19.629249 
L 78.138042 19.529802 
L 78.038184 19.490212 
L 77.219458 19.391702 
L 77.219458 19.372079 
L 76.614669 19.274359 
L 76.614669 19.254894 
L 76.132615 19.157951 
L 76.067544 19.119353 
L 75.306769 19.023301 
L 75.220817 18.965971 
L 73.868459 18.870918 
L 73.815668 18.833069 
L 73.311797 18.738873 
L 73.311797 18.720106 
L 72.723218 18.626632 
L 72.624265 18.533751 
L 71.989811 18.423068 
L 71.943845 18.386358 
L 71.356767 18.27678 
L 71.322149 18.240436 
L 70.099026 18.131941 
L 70.079537 18.095954 
L 69.438684 17.988522 
L 69.416185 17.952886 
L 68.645557 17.846495 
L 68.645557 17.828839 
L 68.237795 17.723343 
L 68.134512 17.670879 
L 67.050153 17.566513 
L 67.050153 17.549191 
L 65.868904 17.445686 
L 65.868904 17.428506 
L 64.620501 17.325849 
L 64.61145 17.291789 
L 62.740471 17.190083 
L 62.663014 17.139494 
L 61.699078 17.038838 
L 61.699078 17.022129 
L 60.232028 16.922275 
L 60.130846 16.889141 
L 58.86653 16.790187 
L 58.86653 16.773759 
L 57.351517 16.67558 
L 57.28007 16.626737 
L 55.692448 16.529536 
L 55.692448 16.513399 
L 54.418774 16.416946 
L 54.418774 16.400932 
L 52.327598 16.305215 
L 52.327598 16.289323 
L 50.323044 16.17856 
L 50.323044 16.162805 
L 48.23475 16.052991 
L 48.229361 16.021767 
L 45.755282 15.913003 
L 45.755282 15.897531 
L 44.201645 15.789684 
L 44.201645 15.774342 
L 42.045184 15.667396 
L 42.045184 15.652182 
L 37.345612 15.546122 
L 37.251313 15.51596 
L 31.260339 15.410879 
L 31.260339 15.395929 
L 25.292874 15.291704 
L 25.292874 15.276876 
L 5.882124 15.173493 
L 5.882124 15.158783 
L -1 15.144088 
L -1 15.144088 
" clip-path="url(#pc6742bebc1)" style="fill: none; stroke: #1f77b4; stroke-width: 1.3; stroke-linecap: round"/>
   </g>
   <g id="patch_3">
    <path d="M 37.29677 121.188274 
L 37.29677 10.048274 
" style="fill: none; stroke: #000000; stroke-linejoin: miter; stroke-linecap: square"/>
   </g>
   <g id="patch_4">
    <path d="M 37.29677 121.188274 
L 153.053578 121.188274 
" style="fill: none; stroke: #000000; stroke-linejoin: miter; stroke-linecap: square"/>
   </g>
   <g id="text_15">
    <!-- Dirichlet: -->
    <g transform="translate(112.172484 16.886868) scale(0.09 -0.09)">
     <defs>
      <path id="DejaVuSans-44" d="M 1259 4147 
L 1259 519 
L 2022 519 
Q 2988 519 3436 956 
Q 3884 1394 3884 2338 
Q 3884 3275 3436 3711 
Q 2988 4147 2022 4147 
L 1259 4147 
z
M 628 4666 
L 1925 4666 
Q 3281 4666 3915 4102 
Q 4550 3538 4550 2338 
Q 4550 1131 3912 565 
Q 3275 0 1925 0 
L 628 0 
L 628 4666 
z
" transform="scale(0.015625)"/>
      <path id="DejaVuSans-69" d="M 603 3500 
L 1178 3500 
L 1178 0 
L 603 0 
L 603 3500 
z
M 603 4863 
L 1178 4863 
L 1178 4134 
L 603 4134 
L 603 4863 
z
" transform="scale(0.015625)"/>
      <path id="DejaVuSans-68" d="M 3513 2113 
L 3513 0 
L 2938 0 
L 2938 2094 
Q 2938 2591 2744 2837 
Q 2550 3084 2163 3084 
Q 1697 3084 1428 2787 
Q 1159 2491 1159 1978 
L 1159 0 
L 581 0 
L 581 4863 
L 1159 4863 
L 1159 2956 
Q 1366 3272 1645 3428 
Q 1925 3584 2291 3584 
Q 2894 3584 3203 3211 
Q 3513 2838 3513 2113 
z
" transform="scale(0.015625)"/>
      <path id="DejaVuSans-6c" d="M 603 4863 
L 1178 4863 
L 1178 0 
L 603 0 
L 603 4863 
z
" transform="scale(0.015625)"/>
      <path id="DejaVuSans-74" d="M 1172 4494 
L 1172 3500 
L 2356 3500 
L 2356 3053 
L 1172 3053 
L 1172 1153 
Q 1172 725 1289 603 
Q 1406 481 1766 481 
L 2356 481 
L 2356 0 
L 1766 0 
Q 1100 0 847 248 
Q 594 497 594 1153 
L 594 3053 
L 172 3053 
L 172 3500 
L 594 3500 
L 594 4494 
L 1172 4494 
z
" transform="scale(0.015625)"/>
      <path id="DejaVuSans-3a" d="M 750 794 
L 1409 794 
L 1409 0 
L 750 0 
L 750 794 
z
M 750 3309 
L 1409 3309 
L 1409 2516 
L 750 2516 
L 750 3309 
z
" transform="scale(0.015625)"/>
     </defs>
     <use xlink:href="#DejaVuSans-44"/>
     <use xlink:href="#DejaVuSans-69" x="77.001953"/>
     <use xlink:href="#DejaVuSans-72" x="104.785156"/>
     <use xlink:href="#DejaVuSans-69" x="145.898438"/>
     <use xlink:href="#DejaVuSans-63" x="173.681641"/>
     <use xlink:href="#DejaVuSans-68" x="228.662109"/>
     <use xlink:href="#DejaVuSans-6c" x="292.041016"/>
     <use xlink:href="#DejaVuSans-65" x="319.824219"/>
     <use xlink:href="#DejaVuSans-74" x="381.347656"/>
     <use xlink:href="#DejaVuSans-3a" x="420.556641"/>
    </g>
    <!-- $\alpha$=1.0 -->
    <g transform="translate(125.243578 26.964899) scale(0.09 -0.09)">
     <defs>
      <path id="DejaVuSans-Oblique-3b1" d="M 2619 1628 
L 2622 2350 
Q 2625 3088 2069 3091 
Q 1653 3094 1394 2747 
Q 1069 2319 959 1747 
Q 825 1059 994 731 
Q 1169 397 1547 397 
Q 1966 397 2319 1063 
L 2619 1628 
z
M 2166 3578 
Q 3141 3594 3128 2584 
Q 3128 2584 3616 3500 
L 4128 3500 
L 3119 1603 
L 3109 919 
Q 3109 766 3194 638 
Q 3291 488 3391 488 
L 3669 488 
L 3575 0 
L 3228 0 
Q 2934 0 2722 263 
Q 2622 394 2619 669 
Q 2416 334 2066 50 
Q 1900 -81 1453 -78 
Q 722 -72 456 397 
Q 184 884 353 1747 
Q 534 2675 1009 3097 
Q 1544 3569 2166 3578 
z
" transform="scale(0.015625)"/>
      <path id="DejaVuSans-3d" d="M 678 2906 
L 4684 2906 
L 4684 2381 
L 678 2381 
L 678 2906 
z
M 678 1631 
L 4684 1631 
L 4684 1100 
L 678 1100 
L 678 1631 
z
" transform="scale(0.015625)"/>
     </defs>
     <use xlink:href="#DejaVuSans-Oblique-3b1" transform="translate(0 0.78125)"/>
     <use xlink:href="#DejaVuSans-3d" transform="translate(65.917969 0.78125)"/>
     <use xlink:href="#DejaVuSans-31" transform="translate(149.707031 0.78125)"/>
     <use xlink:href="#DejaVuSans-2e" transform="translate(213.330078 0.78125)"/>
     <use xlink:href="#DejaVuSans-30" transform="translate(245.117188 0.78125)"/>
    </g>
    <!-- S=1000 -->
    <g transform="translate(116.893266 37.042931) scale(0.09 -0.09)">
     <defs>
      <path id="DejaVuSans-53" d="M 3425 4513 
L 3425 3897 
Q 3066 4069 2747 4153 
Q 2428 4238 2131 4238 
Q 1616 4238 1336 4038 
Q 1056 3838 1056 3469 
Q 1056 3159 1242 3001 
Q 1428 2844 1947 2747 
L 2328 2669 
Q 3034 2534 3370 2195 
Q 3706 1856 3706 1288 
Q 3706 609 3251 259 
Q 2797 -91 1919 -91 
Q 1588 -91 1214 -16 
Q 841 59 441 206 
L 441 856 
Q 825 641 1194 531 
Q 1563 422 1919 422 
Q 2459 422 2753 634 
Q 3047 847 3047 1241 
Q 3047 1584 2836 1778 
Q 2625 1972 2144 2069 
L 1759 2144 
Q 1053 2284 737 2584 
Q 422 2884 422 3419 
Q 422 4038 858 4394 
Q 1294 4750 2059 4750 
Q 2388 4750 2728 4690 
Q 3069 4631 3425 4513 
z
" transform="scale(0.015625)"/>
     </defs>
     <use xlink:href="#DejaVuSans-53"/>
     <use xlink:href="#DejaVuSans-3d" x="63.476562"/>
     <use xlink:href="#DejaVuSans-31" x="147.265625"/>
     <use xlink:href="#DejaVuSans-30" x="210.888672"/>
     <use xlink:href="#DejaVuSans-30" x="274.511719"/>
     <use xlink:href="#DejaVuSans-30" x="338.134766"/>
    </g>
   </g>
   <g id="text_16">
    <!-- A -->
    <g transform="translate(7.2 16.886868) scale(0.09 -0.09)">
     <defs>
      <path id="DejaVuSans-Bold-41" d="M 3419 850 
L 1538 850 
L 1241 0 
L 31 0 
L 1759 4666 
L 3194 4666 
L 4922 0 
L 3713 0 
L 3419 850 
z
M 1838 1716 
L 3116 1716 
L 2478 3572 
L 1838 1716 
z
" transform="scale(0.015625)"/>
     </defs>
     <use xlink:href="#DejaVuSans-Bold-41"/>
    </g>
   </g>
  </g>
  <g id="axes_2">
   <g id="patch_5">
    <path d="M 205.57116 121.188274 
L 321.327968 121.188274 
L 321.327968 10.048274 
L 205.57116 10.048274 
z
" style="fill: #ffffff"/>
   </g>
   <g id="matplotlib.axis_3">
    <g id="xtick_6">
     <g id="line2d_14">
      <g>
       <use xlink:href="#me9f2f757f7" x="205.57116" y="121.188274" style="stroke: #000000; stroke-width: 0.8"/>
      </g>
     </g>
     <g id="text_17">
      <!-- 1 -->
      <g transform="translate(203.186177 130.884823) scale(0.07497 -0.07497)">
       <use xlink:href="#DejaVuSans-31"/>
      </g>
     </g>
    </g>
    <g id="xtick_7">
     <g id="line2d_15">
      <g>
       <use xlink:href="#me9f2f757f7" x="244.156763" y="121.188274" style="stroke: #000000; stroke-width: 0.8"/>
      </g>
     </g>
     <g id="text_18">
      <!-- 2 -->
      <g transform="translate(241.77178 130.884823) scale(0.07497 -0.07497)">
       <use xlink:href="#DejaVuSans-32"/>
      </g>
     </g>
    </g>
    <g id="xtick_8">
     <g id="line2d_16">
      <g>
       <use xlink:href="#me9f2f757f7" x="282.742366" y="121.188274" style="stroke: #000000; stroke-width: 0.8"/>
      </g>
     </g>
     <g id="text_19">
      <!-- 3 -->
      <g transform="translate(280.357382 130.884823) scale(0.07497 -0.07497)">
       <use xlink:href="#DejaVuSans-33"/>
      </g>
     </g>
    </g>
    <g id="xtick_9">
     <g id="line2d_17">
      <g>
       <use xlink:href="#me9f2f757f7" x="321.327968" y="121.188274" style="stroke: #000000; stroke-width: 0.8"/>
      </g>
     </g>
     <g id="text_20">
      <!-- 4 -->
      <g transform="translate(318.942985 130.884823) scale(0.07497 -0.07497)">
       <use xlink:href="#DejaVuSans-34"/>
      </g>
     </g>
    </g>
    <g id="text_21">
     <!-- $\log_{10}$ Sample Size -->
     <g transform="translate(222.679564 140.783965) scale(0.09 -0.09)">
      <defs>
       <path id="DejaVuSans-6f" d="M 1959 3097 
Q 1497 3097 1228 2736 
Q 959 2375 959 1747 
Q 959 1119 1226 758 
Q 1494 397 1959 397 
Q 2419 397 2687 759 
Q 2956 1122 2956 1747 
Q 2956 2369 2687 2733 
Q 2419 3097 1959 3097 
z
M 1959 3584 
Q 2709 3584 3137 3096 
Q 3566 2609 3566 1747 
Q 3566 888 3137 398 
Q 2709 -91 1959 -91 
Q 1206 -91 779 398 
Q 353 888 353 1747 
Q 353 2609 779 3096 
Q 1206 3584 1959 3584 
z
" transform="scale(0.015625)"/>
       <path id="DejaVuSans-67" d="M 2906 1791 
Q 2906 2416 2648 2759 
Q 2391 3103 1925 3103 
Q 1463 3103 1205 2759 
Q 947 2416 947 1791 
Q 947 1169 1205 825 
Q 1463 481 1925 481 
Q 2391 481 2648 825 
Q 2906 1169 2906 1791 
z
M 3481 434 
Q 3481 -459 3084 -895 
Q 2688 -1331 1869 -1331 
Q 1566 -1331 1297 -1286 
Q 1028 -1241 775 -1147 
L 775 -588 
Q 1028 -725 1275 -790 
Q 1522 -856 1778 -856 
Q 2344 -856 2625 -561 
Q 2906 -266 2906 331 
L 2906 616 
Q 2728 306 2450 153 
Q 2172 0 1784 0 
Q 1141 0 747 490 
Q 353 981 353 1791 
Q 353 2603 747 3093 
Q 1141 3584 1784 3584 
Q 2172 3584 2450 3431 
Q 2728 3278 2906 2969 
L 2906 3500 
L 3481 3500 
L 3481 434 
z
" transform="scale(0.015625)"/>
       <path id="DejaVuSans-6d" d="M 3328 2828 
Q 3544 3216 3844 3400 
Q 4144 3584 4550 3584 
Q 5097 3584 5394 3201 
Q 5691 2819 5691 2113 
L 5691 0 
L 5113 0 
L 5113 2094 
Q 5113 2597 4934 2840 
Q 4756 3084 4391 3084 
Q 3944 3084 3684 2787 
Q 3425 2491 3425 1978 
L 3425 0 
L 2847 0 
L 2847 2094 
Q 2847 2600 2669 2842 
Q 2491 3084 2119 3084 
Q 1678 3084 1418 2786 
Q 1159 2488 1159 1978 
L 1159 0 
L 581 0 
L 581 3500 
L 1159 3500 
L 1159 2956 
Q 1356 3278 1631 3431 
Q 1906 3584 2284 3584 
Q 2666 3584 2933 3390 
Q 3200 3197 3328 2828 
z
" transform="scale(0.015625)"/>
       <path id="DejaVuSans-70" d="M 1159 525 
L 1159 -1331 
L 581 -1331 
L 581 3500 
L 1159 3500 
L 1159 2969 
Q 1341 3281 1617 3432 
Q 1894 3584 2278 3584 
Q 2916 3584 3314 3078 
Q 3713 2572 3713 1747 
Q 3713 922 3314 415 
Q 2916 -91 2278 -91 
Q 1894 -91 1617 61 
Q 1341 213 1159 525 
z
M 3116 1747 
Q 3116 2381 2855 2742 
Q 2594 3103 2138 3103 
Q 1681 3103 1420 2742 
Q 1159 2381 1159 1747 
Q 1159 1113 1420 752 
Q 1681 391 2138 391 
Q 2594 391 2855 752 
Q 3116 1113 3116 1747 
z
" transform="scale(0.015625)"/>
       <path id="DejaVuSans-7a" d="M 353 3500 
L 3084 3500 
L 3084 2975 
L 922 459 
L 3084 459 
L 3084 0 
L 275 0 
L 275 525 
L 2438 3041 
L 353 3041 
L 353 3500 
z
" transform="scale(0.015625)"/>
      </defs>
      <use xlink:href="#DejaVuSans-6c" transform="translate(0 0.015625)"/>
      <use xlink:href="#DejaVuSans-6f" transform="translate(27.783203 0.015625)"/>
      <use xlink:href="#DejaVuSans-67" transform="translate(88.964844 0.015625)"/>
      <use xlink:href="#DejaVuSans-31" transform="translate(153.398438 -16.390625) scale(0.7)"/>
      <use xlink:href="#DejaVuSans-30" transform="translate(197.93457 -16.390625) scale(0.7)"/>
      <use xlink:href="#DejaVuSans-20" transform="translate(261.440754 0.015625)"/>
      <use xlink:href="#DejaVuSans-53" transform="translate(293.227864 0.015625)"/>
      <use xlink:href="#DejaVuSans-61" transform="translate(356.704426 0.015625)"/>
      <use xlink:href="#DejaVuSans-6d" transform="translate(417.983723 0.015625)"/>
      <use xlink:href="#DejaVuSans-70" transform="translate(515.395833 0.015625)"/>
      <use xlink:href="#DejaVuSans-6c" transform="translate(578.872395 0.015625)"/>
      <use xlink:href="#DejaVuSans-65" transform="translate(606.655598 0.015625)"/>
      <use xlink:href="#DejaVuSans-20" transform="translate(668.179036 0.015625)"/>
      <use xlink:href="#DejaVuSans-53" transform="translate(699.966145 0.015625)"/>
      <use xlink:href="#DejaVuSans-69" transform="translate(763.442708 0.015625)"/>
      <use xlink:href="#DejaVuSans-7a" transform="translate(791.225911 0.015625)"/>
      <use xlink:href="#DejaVuSans-65" transform="translate(843.716145 0.015625)"/>
     </g>
    </g>
   </g>
   <g id="matplotlib.axis_4">
    <g id="ytick_8">
     <g id="line2d_18">
      <g>
       <use xlink:href="#m7691e72ee8" x="205.57116" y="121.188274" style="stroke: #000000; stroke-width: 0.8"/>
      </g>
     </g>
     <g id="text_22">
      <!-- −1.0 -->
      <g transform="translate(183.366336 124.036549) scale(0.07497 -0.07497)">
       <use xlink:href="#DejaVuSans-2212"/>
       <use xlink:href="#DejaVuSans-31" x="83.789062"/>
       <use xlink:href="#DejaVuSans-2e" x="147.412109"/>
       <use xlink:href="#DejaVuSans-30" x="179.199219"/>
      </g>
     </g>
    </g>
    <g id="ytick_9">
     <g id="line2d_19">
      <g>
       <use xlink:href="#m7691e72ee8" x="205.57116" y="93.403274" style="stroke: #000000; stroke-width: 0.8"/>
      </g>
     </g>
     <g id="text_23">
      <!-- −0.5 -->
      <g transform="translate(183.366336 96.251549) scale(0.07497 -0.07497)">
       <use xlink:href="#DejaVuSans-2212"/>
       <use xlink:href="#DejaVuSans-30" x="83.789062"/>
       <use xlink:href="#DejaVuSans-2e" x="147.412109"/>
       <use xlink:href="#DejaVuSans-35" x="179.199219"/>
      </g>
     </g>
    </g>
    <g id="ytick_10">
     <g id="line2d_20">
      <g>
       <use xlink:href="#m7691e72ee8" x="205.57116" y="65.618274" style="stroke: #000000; stroke-width: 0.8"/>
      </g>
     </g>
     <g id="text_24">
      <!-- 0.0 -->
      <g transform="translate(189.648587 68.466549) scale(0.07497 -0.07497)">
       <use xlink:href="#DejaVuSans-30"/>
       <use xlink:href="#DejaVuSans-2e" x="63.623047"/>
       <use xlink:href="#DejaVuSans-30" x="95.410156"/>
      </g>
     </g>
    </g>
    <g id="ytick_11">
     <g id="line2d_21">
      <g>
       <use xlink:href="#m7691e72ee8" x="205.57116" y="37.833274" style="stroke: #000000; stroke-width: 0.8"/>
      </g>
     </g>
     <g id="text_25">
      <!-- 0.5 -->
      <g transform="translate(189.648587 40.681549) scale(0.07497 -0.07497)">
       <use xlink:href="#DejaVuSans-30"/>
       <use xlink:href="#DejaVuSans-2e" x="63.623047"/>
       <use xlink:href="#DejaVuSans-35" x="95.410156"/>
      </g>
     </g>
    </g>
    <g id="ytick_12">
     <g id="line2d_22">
      <g>
       <use xlink:href="#m7691e72ee8" x="205.57116" y="10.048274" style="stroke: #000000; stroke-width: 0.8"/>
      </g>
     </g>
     <g id="text_26">
      <!-- 1.0 -->
      <g transform="translate(189.648587 12.896549) scale(0.07497 -0.07497)">
       <use xlink:href="#DejaVuSans-31"/>
       <use xlink:href="#DejaVuSans-2e" x="63.623047"/>
       <use xlink:href="#DejaVuSans-30" x="95.410156"/>
      </g>
     </g>
    </g>
    <g id="text_27">
     <!-- Bias -->
     <g transform="translate(179.994617 75.057727) rotate(-90) scale(0.09 -0.09)">
      <defs>
       <path id="DejaVuSans-42" d="M 1259 2228 
L 1259 519 
L 2272 519 
Q 2781 519 3026 730 
Q 3272 941 3272 1375 
Q 3272 1813 3026 2020 
Q 2781 2228 2272 2228 
L 1259 2228 
z
M 1259 4147 
L 1259 2741 
L 2194 2741 
Q 2656 2741 2882 2914 
Q 3109 3088 3109 3444 
Q 3109 3797 2882 3972 
Q 2656 4147 2194 4147 
L 1259 4147 
z
M 628 4666 
L 2241 4666 
Q 2963 4666 3353 4366 
Q 3744 4066 3744 3513 
Q 3744 3084 3544 2831 
Q 3344 2578 2956 2516 
Q 3422 2416 3680 2098 
Q 3938 1781 3938 1306 
Q 3938 681 3513 340 
Q 3088 0 2303 0 
L 628 0 
L 628 4666 
z
" transform="scale(0.015625)"/>
       <path id="DejaVuSans-73" d="M 2834 3397 
L 2834 2853 
Q 2591 2978 2328 3040 
Q 2066 3103 1784 3103 
Q 1356 3103 1142 2972 
Q 928 2841 928 2578 
Q 928 2378 1081 2264 
Q 1234 2150 1697 2047 
L 1894 2003 
Q 2506 1872 2764 1633 
Q 3022 1394 3022 966 
Q 3022 478 2636 193 
Q 2250 -91 1575 -91 
Q 1294 -91 989 -36 
Q 684 19 347 128 
L 347 722 
Q 666 556 975 473 
Q 1284 391 1588 391 
Q 1994 391 2212 530 
Q 2431 669 2431 922 
Q 2431 1156 2273 1281 
Q 2116 1406 1581 1522 
L 1381 1569 
Q 847 1681 609 1914 
Q 372 2147 372 2553 
Q 372 3047 722 3315 
Q 1072 3584 1716 3584 
Q 2034 3584 2315 3537 
Q 2597 3491 2834 3397 
z
" transform="scale(0.015625)"/>
      </defs>
      <use xlink:href="#DejaVuSans-42"/>
      <use xlink:href="#DejaVuSans-69" x="68.603516"/>
      <use xlink:href="#DejaVuSans-61" x="96.386719"/>
      <use xlink:href="#DejaVuSans-73" x="157.666016"/>
     </g>
    </g>
   </g>
   <g id="patch_6">
    <path d="M 205.57116 121.188274 
L 205.57116 10.048274 
L 230.671673 10.048274 
L 230.671673 121.188274 
z
" clip-path="url(#p4101412469)" style="fill: #1f77b4; opacity: 0.2; stroke: #1f77b4; stroke-width: 0.8; stroke-linejoin: miter"/>
   </g>
   <g id="patch_7">
    <path d="M 230.671673 121.188274 
L 230.671673 10.048274 
L 282.742366 10.048274 
L 282.742366 121.188274 
z
" clip-path="url(#p4101412469)" style="fill: #ff7f0e; opacity: 0.2; stroke: #ff7f0e; stroke-width: 0.8; stroke-linejoin: miter"/>
   </g>
   <g id="patch_8">
    <path d="M 282.742366 121.188274 
L 282.742366 10.048274 
L 321.327968 10.048274 
L 321.327968 121.188274 
z
" clip-path="url(#p4101412469)" style="fill: #2ca02c; opacity: 0.2; stroke: #2ca02c; stroke-width: 0.8; stroke-linejoin: miter"/>
   </g>
   <g id="line2d_23">
    <path d="M 205.57116 65.618274 
L 321.327968 65.618274 
" clip-path="url(#p4101412469)" style="fill: none; stroke: #000000; stroke-width: 1.3; stroke-linecap: round"/>
   </g>
   <g id="line2d_24">
    <path d="M 205.57116 70.444929 
L 211.209598 74.710733 
L 217.186584 61.590971 
L 223.413066 69.308289 
L 229.61961 63.069378 
L 235.873585 65.955374 
L 242.014593 64.421809 
L 248.162092 65.652129 
L 254.283596 64.493073 
L 260.361009 65.006028 
L 266.483906 65.410572 
L 272.571066 66.47381 
L 278.664487 64.856614 
L 284.760744 65.515746 
L 290.857632 66.088346 
L 296.952937 65.488821 
L 303.046496 65.571872 
L 309.139815 65.806402 
L 315.233268 65.559563 
L 321.327968 65.420881 
" clip-path="url(#p4101412469)" style="fill: none; stroke: #1f77b4; stroke-width: 2; stroke-linecap: round"/>
   </g>
   <g id="line2d_25">
    <path d="M 205.57116 68.144564 
L 211.209598 74.691947 
L 217.186584 65.827423 
L 223.413066 70.205223 
L 229.61961 68.619418 
L 235.873585 70.712151 
L 242.014593 72.780595 
L 248.162092 76.135079 
L 254.283596 79.286854 
L 260.361009 83.72817 
L 266.483906 88.743026 
L 272.571066 93.584276 
L 278.664487 98.59482 
L 284.760744 103.273774 
L 290.857632 107.429952 
L 296.952937 110.816263 
L 303.046496 113.554853 
L 309.139815 115.65586 
L 315.233268 117.223262 
L 321.327968 118.369957 
" clip-path="url(#p4101412469)" style="fill: none; stroke: #ff7f0e; stroke-linecap: round"/>
   </g>
   <g id="patch_9">
    <path d="M 205.57116 121.188274 
L 205.57116 10.048274 
" style="fill: none; stroke: #000000; stroke-linejoin: miter; stroke-linecap: square"/>
   </g>
   <g id="patch_10">
    <path d="M 205.57116 121.188274 
L 321.327968 121.188274 
" style="fill: none; stroke: #000000; stroke-linejoin: miter; stroke-linecap: square"/>
   </g>
   <g id="text_28">
    <!-- B -->
    <g transform="translate(175.47439 16.886868) scale(0.09 -0.09)">
     <defs>
      <path id="DejaVuSans-Bold-42" d="M 2456 2859 
Q 2741 2859 2887 2984 
Q 3034 3109 3034 3353 
Q 3034 3594 2887 3720 
Q 2741 3847 2456 3847 
L 1791 3847 
L 1791 2859 
L 2456 2859 
z
M 2497 819 
Q 2859 819 3042 972 
Q 3225 1125 3225 1434 
Q 3225 1738 3044 1889 
Q 2863 2041 2497 2041 
L 1791 2041 
L 1791 819 
L 2497 819 
z
M 3616 2497 
Q 4003 2384 4215 2081 
Q 4428 1778 4428 1338 
Q 4428 663 3972 331 
Q 3516 0 2584 0 
L 588 0 
L 588 4666 
L 2394 4666 
Q 3366 4666 3802 4372 
Q 4238 4078 4238 3431 
Q 4238 3091 4078 2852 
Q 3919 2613 3616 2497 
z
" transform="scale(0.015625)"/>
     </defs>
     <use xlink:href="#DejaVuSans-Bold-42"/>
    </g>
   </g>
   <g id="legend_1">
    <g id="patch_11">
     <path d="M 232.79472 39.168899 
L 294.104408 39.168899 
Q 295.904408 39.168899 295.904408 37.368899 
L 295.904408 14.098274 
Q 295.904408 12.298274 294.104408 12.298274 
L 232.79472 12.298274 
Q 230.99472 12.298274 230.99472 14.098274 
L 230.99472 37.368899 
Q 230.99472 39.168899 232.79472 39.168899 
z
" style="fill: #ffffff; opacity: 0.8; stroke: #cccccc; stroke-width: 0.8; stroke-linejoin: miter"/>
    </g>
    <g id="line2d_26">
     <path d="M 234.59472 19.586868 
L 240.21972 19.586868 
L 245.84472 19.586868 
" style="fill: none; stroke: #1f77b4; stroke-width: 2; stroke-linecap: round"/>
    </g>
    <g id="text_29">
     <!-- Unbiased -->
     <g transform="translate(250.34472 22.736868) scale(0.09 -0.09)">
      <defs>
       <path id="DejaVuSans-55" d="M 556 4666 
L 1191 4666 
L 1191 1831 
Q 1191 1081 1462 751 
Q 1734 422 2344 422 
Q 2950 422 3222 751 
Q 3494 1081 3494 1831 
L 3494 4666 
L 4128 4666 
L 4128 1753 
Q 4128 841 3676 375 
Q 3225 -91 2344 -91 
Q 1459 -91 1007 375 
Q 556 841 556 1753 
L 556 4666 
z
" transform="scale(0.015625)"/>
       <path id="DejaVuSans-62" d="M 3116 1747 
Q 3116 2381 2855 2742 
Q 2594 3103 2138 3103 
Q 1681 3103 1420 2742 
Q 1159 2381 1159 1747 
Q 1159 1113 1420 752 
Q 1681 391 2138 391 
Q 2594 391 2855 752 
Q 3116 1113 3116 1747 
z
M 1159 2969 
Q 1341 3281 1617 3432 
Q 1894 3584 2278 3584 
Q 2916 3584 3314 3078 
Q 3713 2572 3713 1747 
Q 3713 922 3314 415 
Q 2916 -91 2278 -91 
Q 1894 -91 1617 61 
Q 1341 213 1159 525 
L 1159 0 
L 581 0 
L 581 4863 
L 1159 4863 
L 1159 2969 
z
" transform="scale(0.015625)"/>
       <path id="DejaVuSans-64" d="M 2906 2969 
L 2906 4863 
L 3481 4863 
L 3481 0 
L 2906 0 
L 2906 525 
Q 2725 213 2448 61 
Q 2172 -91 1784 -91 
Q 1150 -91 751 415 
Q 353 922 353 1747 
Q 353 2572 751 3078 
Q 1150 3584 1784 3584 
Q 2172 3584 2448 3432 
Q 2725 3281 2906 2969 
z
M 947 1747 
Q 947 1113 1208 752 
Q 1469 391 1925 391 
Q 2381 391 2643 752 
Q 2906 1113 2906 1747 
Q 2906 2381 2643 2742 
Q 2381 3103 1925 3103 
Q 1469 3103 1208 2742 
Q 947 2381 947 1747 
z
" transform="scale(0.015625)"/>
      </defs>
      <use xlink:href="#DejaVuSans-55"/>
      <use xlink:href="#DejaVuSans-6e" x="73.193359"/>
      <use xlink:href="#DejaVuSans-62" x="136.572266"/>
      <use xlink:href="#DejaVuSans-69" x="200.048828"/>
      <use xlink:href="#DejaVuSans-61" x="227.832031"/>
      <use xlink:href="#DejaVuSans-73" x="289.111328"/>
      <use xlink:href="#DejaVuSans-65" x="341.210938"/>
      <use xlink:href="#DejaVuSans-64" x="402.734375"/>
     </g>
    </g>
    <g id="line2d_27">
     <path d="M 234.59472 30.547181 
L 240.21972 30.547181 
L 245.84472 30.547181 
" style="fill: none; stroke: #ff7f0e; stroke-linecap: round"/>
    </g>
    <g id="text_30">
     <!-- Poisson -->
     <g transform="translate(250.34472 33.697181) scale(0.09 -0.09)">
      <defs>
       <path id="DejaVuSans-50" d="M 1259 4147 
L 1259 2394 
L 2053 2394 
Q 2494 2394 2734 2622 
Q 2975 2850 2975 3272 
Q 2975 3691 2734 3919 
Q 2494 4147 2053 4147 
L 1259 4147 
z
M 628 4666 
L 2053 4666 
Q 2838 4666 3239 4311 
Q 3641 3956 3641 3272 
Q 3641 2581 3239 2228 
Q 2838 1875 2053 1875 
L 1259 1875 
L 1259 0 
L 628 0 
L 628 4666 
z
" transform="scale(0.015625)"/>
      </defs>
      <use xlink:href="#DejaVuSans-50"/>
      <use xlink:href="#DejaVuSans-6f" x="56.677734"/>
      <use xlink:href="#DejaVuSans-69" x="117.859375"/>
      <use xlink:href="#DejaVuSans-73" x="145.642578"/>
      <use xlink:href="#DejaVuSans-73" x="197.742188"/>
      <use xlink:href="#DejaVuSans-6f" x="249.841797"/>
      <use xlink:href="#DejaVuSans-6e" x="311.023438"/>
     </g>
    </g>
   </g>
  </g>
  <g id="axes_3">
   <g id="patch_12">
    <path d="M 373.84555 121.188274 
L 489.602358 121.188274 
L 489.602358 10.048274 
L 373.84555 10.048274 
z
" style="fill: #ffffff"/>
   </g>
   <g id="matplotlib.axis_5">
    <g id="xtick_10">
     <g id="line2d_28">
      <g>
       <use xlink:href="#me9f2f757f7" x="373.84555" y="121.188274" style="stroke: #000000; stroke-width: 0.8"/>
      </g>
     </g>
     <g id="text_31">
      <!-- 1 -->
      <g transform="translate(371.460567 130.884823) scale(0.07497 -0.07497)">
       <use xlink:href="#DejaVuSans-31"/>
      </g>
     </g>
    </g>
    <g id="xtick_11">
     <g id="line2d_29">
      <g>
       <use xlink:href="#me9f2f757f7" x="412.431153" y="121.188274" style="stroke: #000000; stroke-width: 0.8"/>
      </g>
     </g>
     <g id="text_32">
      <!-- 2 -->
      <g transform="translate(410.04617 130.884823) scale(0.07497 -0.07497)">
       <use xlink:href="#DejaVuSans-32"/>
      </g>
     </g>
    </g>
    <g id="xtick_12">
     <g id="line2d_30">
      <g>
       <use xlink:href="#me9f2f757f7" x="451.016756" y="121.188274" style="stroke: #000000; stroke-width: 0.8"/>
      </g>
     </g>
     <g id="text_33">
      <!-- 3 -->
      <g transform="translate(448.631773 130.884823) scale(0.07497 -0.07497)">
       <use xlink:href="#DejaVuSans-33"/>
      </g>
     </g>
    </g>
    <g id="xtick_13">
     <g id="line2d_31">
      <g>
       <use xlink:href="#me9f2f757f7" x="489.602358" y="121.188274" style="stroke: #000000; stroke-width: 0.8"/>
      </g>
     </g>
     <g id="text_34">
      <!-- 4 -->
      <g transform="translate(487.217375 130.884823) scale(0.07497 -0.07497)">
       <use xlink:href="#DejaVuSans-34"/>
      </g>
     </g>
    </g>
    <g id="text_35">
     <!-- $\log_{10}$ Sample Size -->
     <g transform="translate(390.953954 140.783965) scale(0.09 -0.09)">
      <use xlink:href="#DejaVuSans-6c" transform="translate(0 0.015625)"/>
      <use xlink:href="#DejaVuSans-6f" transform="translate(27.783203 0.015625)"/>
      <use xlink:href="#DejaVuSans-67" transform="translate(88.964844 0.015625)"/>
      <use xlink:href="#DejaVuSans-31" transform="translate(153.398438 -16.390625) scale(0.7)"/>
      <use xlink:href="#DejaVuSans-30" transform="translate(197.93457 -16.390625) scale(0.7)"/>
      <use xlink:href="#DejaVuSans-20" transform="translate(261.440754 0.015625)"/>
      <use xlink:href="#DejaVuSans-53" transform="translate(293.227864 0.015625)"/>
      <use xlink:href="#DejaVuSans-61" transform="translate(356.704426 0.015625)"/>
      <use xlink:href="#DejaVuSans-6d" transform="translate(417.983723 0.015625)"/>
      <use xlink:href="#DejaVuSans-70" transform="translate(515.395833 0.015625)"/>
      <use xlink:href="#DejaVuSans-6c" transform="translate(578.872395 0.015625)"/>
      <use xlink:href="#DejaVuSans-65" transform="translate(606.655598 0.015625)"/>
      <use xlink:href="#DejaVuSans-20" transform="translate(668.179036 0.015625)"/>
      <use xlink:href="#DejaVuSans-53" transform="translate(699.966145 0.015625)"/>
      <use xlink:href="#DejaVuSans-69" transform="translate(763.442708 0.015625)"/>
      <use xlink:href="#DejaVuSans-7a" transform="translate(791.225911 0.015625)"/>
      <use xlink:href="#DejaVuSans-65" transform="translate(843.716145 0.015625)"/>
     </g>
    </g>
   </g>
   <g id="matplotlib.axis_6">
    <g id="ytick_13">
     <g id="line2d_32">
      <g>
       <use xlink:href="#m7691e72ee8" x="373.84555" y="121.188274" style="stroke: #000000; stroke-width: 0.8"/>
      </g>
     </g>
     <g id="text_36">
      <!-- 0 -->
      <g transform="translate(365.075584 124.036549) scale(0.07497 -0.07497)">
       <use xlink:href="#DejaVuSans-30"/>
      </g>
     </g>
    </g>
    <g id="ytick_14">
     <g id="line2d_33">
      <g>
       <use xlink:href="#m7691e72ee8" x="373.84555" y="98.960274" style="stroke: #000000; stroke-width: 0.8"/>
      </g>
     </g>
     <g id="text_37">
      <!-- 1 -->
      <g transform="translate(365.075584 101.808549) scale(0.07497 -0.07497)">
       <use xlink:href="#DejaVuSans-31"/>
      </g>
     </g>
    </g>
    <g id="ytick_15">
     <g id="line2d_34">
      <g>
       <use xlink:href="#m7691e72ee8" x="373.84555" y="76.732274" style="stroke: #000000; stroke-width: 0.8"/>
      </g>
     </g>
     <g id="text_38">
      <!-- 2 -->
      <g transform="translate(365.075584 79.580549) scale(0.07497 -0.07497)">
       <use xlink:href="#DejaVuSans-32"/>
      </g>
     </g>
    </g>
    <g id="ytick_16">
     <g id="line2d_35">
      <g>
       <use xlink:href="#m7691e72ee8" x="373.84555" y="54.504274" style="stroke: #000000; stroke-width: 0.8"/>
      </g>
     </g>
     <g id="text_39">
      <!-- 3 -->
      <g transform="translate(365.075584 57.352549) scale(0.07497 -0.07497)">
       <use xlink:href="#DejaVuSans-33"/>
      </g>
     </g>
    </g>
    <g id="ytick_17">
     <g id="line2d_36">
      <g>
       <use xlink:href="#m7691e72ee8" x="373.84555" y="32.276274" style="stroke: #000000; stroke-width: 0.8"/>
      </g>
     </g>
     <g id="text_40">
      <!-- 4 -->
      <g transform="translate(365.075584 35.124549) scale(0.07497 -0.07497)">
       <use xlink:href="#DejaVuSans-34"/>
      </g>
     </g>
    </g>
    <g id="ytick_18">
     <g id="line2d_37">
      <g>
       <use xlink:href="#m7691e72ee8" x="373.84555" y="10.048274" style="stroke: #000000; stroke-width: 0.8"/>
      </g>
     </g>
     <g id="text_41">
      <!-- 5 -->
      <g transform="translate(365.075584 12.896549) scale(0.07497 -0.07497)">
       <use xlink:href="#DejaVuSans-35"/>
      </g>
     </g>
    </g>
    <g id="text_42">
     <!-- Variance -->
     <g transform="translate(361.703865 85.058274) rotate(-90) scale(0.09 -0.09)">
      <defs>
       <path id="DejaVuSans-56" d="M 1831 0 
L 50 4666 
L 709 4666 
L 2188 738 
L 3669 4666 
L 4325 4666 
L 2547 0 
L 1831 0 
z
" transform="scale(0.015625)"/>
      </defs>
      <use xlink:href="#DejaVuSans-56"/>
      <use xlink:href="#DejaVuSans-61" x="60.658203"/>
      <use xlink:href="#DejaVuSans-72" x="121.9375"/>
      <use xlink:href="#DejaVuSans-69" x="163.050781"/>
      <use xlink:href="#DejaVuSans-61" x="190.833984"/>
      <use xlink:href="#DejaVuSans-6e" x="252.113281"/>
      <use xlink:href="#DejaVuSans-63" x="315.492188"/>
      <use xlink:href="#DejaVuSans-65" x="370.472656"/>
     </g>
    </g>
   </g>
   <g id="patch_13">
    <path d="M 373.84555 121.188274 
L 373.84555 10.048274 
L 398.946063 10.048274 
L 398.946063 121.188274 
z
" clip-path="url(#p857ad6f29b)" style="fill: #1f77b4; opacity: 0.2; stroke: #1f77b4; stroke-width: 0.8; stroke-linejoin: miter"/>
   </g>
   <g id="patch_14">
    <path d="M 398.946063 121.188274 
L 398.946063 10.048274 
L 451.016756 10.048274 
L 451.016756 121.188274 
z
" clip-path="url(#p857ad6f29b)" style="fill: #ff7f0e; opacity: 0.2; stroke: #ff7f0e; stroke-width: 0.8; stroke-linejoin: miter"/>
   </g>
   <g id="patch_15">
    <path d="M 451.016756 121.188274 
L 451.016756 10.048274 
L 489.602358 10.048274 
L 489.602358 121.188274 
z
" clip-path="url(#p857ad6f29b)" style="fill: #2ca02c; opacity: 0.2; stroke: #2ca02c; stroke-width: 0.8; stroke-linejoin: miter"/>
   </g>
   <g id="line2d_38">
    <path d="M 386.645988 -1 
L 391.687456 67.820983 
L 397.894 73.619717 
L 404.147975 102.856337 
L 410.288983 104.509896 
L 416.436482 110.288299 
L 422.557986 112.031486 
L 428.635399 115.608071 
L 434.758296 117.125575 
L 440.845456 118.889317 
L 446.938877 119.160462 
L 453.035134 119.689517 
L 459.132022 120.172421 
L 465.227327 120.381311 
L 471.320886 120.628217 
L 477.414205 120.792615 
L 483.507658 120.902863 
L 489.602358 120.97289 
" clip-path="url(#p857ad6f29b)" style="fill: none; stroke: #1f77b4; stroke-width: 2; stroke-linecap: round"/>
   </g>
   <g id="line2d_39">
    <path d="M 378.697337 -1 
L 379.483989 17.789456 
L 385.460974 60.207577 
L 391.687456 94.548115 
L 397.894 107.397762 
L 404.147975 115.679014 
L 410.288983 118.698616 
L 416.436482 120.042072 
L 422.557986 120.664088 
L 428.635399 120.9543 
L 434.758296 121.09364 
L 440.845456 121.152247 
L 446.938877 121.173139 
L 453.035134 121.182426 
L 459.132022 121.186229 
L 465.227327 121.187463 
L 471.320886 121.187975 
L 477.414205 121.188175 
L 483.507658 121.188239 
L 489.602358 121.188262 
" clip-path="url(#p857ad6f29b)" style="fill: none; stroke: #ff7f0e; stroke-linecap: round"/>
   </g>
   <g id="patch_16">
    <path d="M 373.84555 121.188274 
L 373.84555 10.048274 
" style="fill: none; stroke: #000000; stroke-linejoin: miter; stroke-linecap: square"/>
   </g>
   <g id="patch_17">
    <path d="M 373.84555 121.188274 
L 489.602358 121.188274 
" style="fill: none; stroke: #000000; stroke-linejoin: miter; stroke-linecap: square"/>
   </g>
   <g id="text_43">
    <!-- C -->
    <g transform="translate(343.74878 16.886868) scale(0.09 -0.09)">
     <defs>
      <path id="DejaVuSans-Bold-43" d="M 4288 256 
Q 3956 84 3597 -3 
Q 3238 -91 2847 -91 
Q 1681 -91 1000 561 
Q 319 1213 319 2328 
Q 319 3447 1000 4098 
Q 1681 4750 2847 4750 
Q 3238 4750 3597 4662 
Q 3956 4575 4288 4403 
L 4288 3438 
Q 3953 3666 3628 3772 
Q 3303 3878 2944 3878 
Q 2300 3878 1931 3465 
Q 1563 3053 1563 2328 
Q 1563 1606 1931 1193 
Q 2300 781 2944 781 
Q 3303 781 3628 887 
Q 3953 994 4288 1222 
L 4288 256 
z
" transform="scale(0.015625)"/>
     </defs>
     <use xlink:href="#DejaVuSans-Bold-43"/>
    </g>
   </g>
  </g>
 </g>
 <defs>
  <clipPath id="pc6742bebc1">
   <rect x="37.29677" y="10.048274" width="115.756808" height="111.14"/>
  </clipPath>
  <clipPath id="p4101412469">
   <rect x="205.57116" y="10.048274" width="115.756808" height="111.14"/>
  </clipPath>
  <clipPath id="p857ad6f29b">
   <rect x="373.84555" y="10.048274" width="115.756808" height="111.14"/>
  </clipPath>
 </defs>
</svg>
