<?xml version="1.0" encoding="utf-8" standalone="no"?>
<!DOCTYPE svg PUBLIC "-//W3C//DTD SVG 1.1//EN"
  "http://www.w3.org/Graphics/SVG/1.1/DTD/svg11.dtd">
<svg xmlns:xlink="http://www.w3.org/1999/xlink" width="498.793113pt" height="149.998277pt" viewBox="0 0 498.793113 149.998277" xmlns="http://www.w3.org/2000/svg" version="1.1">
 <metadata>
  <rdf:RDF xmlns:dc="http://purl.org/dc/elements/1.1/" xmlns:cc="http://creativecommons.org/ns#" xmlns:rdf="http://www.w3.org/1999/02/22-rdf-syntax-ns#">
   <cc:Work>
    <dc:type rdf:resource="http://purl.org/dc/dcmitype/StillImage"/>
    <dc:date>2024-02-22T16:13:42.045968</dc:date>
    <dc:format>image/svg+xml</dc:format>
    <dc:creator>
     <cc:Agent>
      <dc:title>Matplotlib v3.7.0, https://matplotlib.org/</dc:title>
     </cc:Agent>
    </dc:creator>
   </cc:Work>
  </rdf:RDF>
 </metadata>
 <defs>
  <style type="text/css">*{stroke-linejoin: round; stroke-linecap: butt}</style>
 </defs>
 <g id="figure_1">
  <g id="patch_1">
   <path d="M 0 149.998277 
L 498.793113 149.998277 
L 498.793113 0 
L 0 0 
L 0 149.998277 
z
" style="fill: none"/>
  </g>
  <g id="axes_1">
   <g id="patch_2">
    <path d="M 39.635321 121.332274 
L 155.475753 121.332274 
L 155.475753 10.048274 
L 39.635321 10.048274 
z
" style="fill: #ffffff"/>
   </g>
   <g id="matplotlib.axis_1">
    <g id="xtick_1">
     <g id="line2d_1">
      <defs>
       <path id="m8fe8fd69d9" d="M 0 2 
L 0 -2 
" style="stroke: #000000; stroke-width: 0.8"/>
      </defs>
      <g>
       <use xlink:href="#m8fe8fd69d9" x="40.485489" y="121.332274" style="stroke: #000000; stroke-width: 0.8"/>
      </g>
     </g>
     <g id="text_1">
      <!-- $\mathdefault{10^{-4}}$ -->
      <g transform="translate(31.676514 131.028823) scale(0.07497 -0.07497)">
       <defs>
        <path id="DejaVuSans-31" d="M 794 531 
L 1825 531 
L 1825 4091 
L 703 3866 
L 703 4441 
L 1819 4666 
L 2450 4666 
L 2450 531 
L 3481 531 
L 3481 0 
L 794 0 
L 794 531 
z
" transform="scale(0.015625)"/>
        <path id="DejaVuSans-30" d="M 2034 4250 
Q 1547 4250 1301 3770 
Q 1056 3291 1056 2328 
Q 1056 1369 1301 889 
Q 1547 409 2034 409 
Q 2525 409 2770 889 
Q 3016 1369 3016 2328 
Q 3016 3291 2770 3770 
Q 2525 4250 2034 4250 
z
M 2034 4750 
Q 2819 4750 3233 4129 
Q 3647 3509 3647 2328 
Q 3647 1150 3233 529 
Q 2819 -91 2034 -91 
Q 1250 -91 836 529 
Q 422 1150 422 2328 
Q 422 3509 836 4129 
Q 1250 4750 2034 4750 
z
" transform="scale(0.015625)"/>
        <path id="DejaVuSans-2212" d="M 678 2272 
L 4684 2272 
L 4684 1741 
L 678 1741 
L 678 2272 
z
" transform="scale(0.015625)"/>
        <path id="DejaVuSans-34" d="M 2419 4116 
L 825 1625 
L 2419 1625 
L 2419 4116 
z
M 2253 4666 
L 3047 4666 
L 3047 1625 
L 3713 1625 
L 3713 1100 
L 3047 1100 
L 3047 0 
L 2419 0 
L 2419 1100 
L 313 1100 
L 313 1709 
L 2253 4666 
z
" transform="scale(0.015625)"/>
       </defs>
       <use xlink:href="#DejaVuSans-31" transform="translate(0 0.684375)"/>
       <use xlink:href="#DejaVuSans-30" transform="translate(63.623047 0.684375)"/>
       <use xlink:href="#DejaVuSans-2212" transform="translate(128.203125 38.965625) scale(0.7)"/>
       <use xlink:href="#DejaVuSans-34" transform="translate(186.855469 38.965625) scale(0.7)"/>
      </g>
     </g>
    </g>
    <g id="xtick_2">
     <g id="line2d_2">
      <g>
       <use xlink:href="#m8fe8fd69d9" x="75.58865" y="121.332274" style="stroke: #000000; stroke-width: 0.8"/>
      </g>
     </g>
     <g id="text_2">
      <!-- $\mathdefault{10^{-3}}$ -->
      <g transform="translate(66.779675 131.028823) scale(0.07497 -0.07497)">
       <defs>
        <path id="DejaVuSans-33" d="M 2597 2516 
Q 3050 2419 3304 2112 
Q 3559 1806 3559 1356 
Q 3559 666 3084 287 
Q 2609 -91 1734 -91 
Q 1441 -91 1130 -33 
Q 819 25 488 141 
L 488 750 
Q 750 597 1062 519 
Q 1375 441 1716 441 
Q 2309 441 2620 675 
Q 2931 909 2931 1356 
Q 2931 1769 2642 2001 
Q 2353 2234 1838 2234 
L 1294 2234 
L 1294 2753 
L 1863 2753 
Q 2328 2753 2575 2939 
Q 2822 3125 2822 3475 
Q 2822 3834 2567 4026 
Q 2313 4219 1838 4219 
Q 1578 4219 1281 4162 
Q 984 4106 628 3988 
L 628 4550 
Q 988 4650 1302 4700 
Q 1616 4750 1894 4750 
Q 2613 4750 3031 4423 
Q 3450 4097 3450 3541 
Q 3450 3153 3228 2886 
Q 3006 2619 2597 2516 
z
" transform="scale(0.015625)"/>
       </defs>
       <use xlink:href="#DejaVuSans-31" transform="translate(0 0.765625)"/>
       <use xlink:href="#DejaVuSans-30" transform="translate(63.623047 0.765625)"/>
       <use xlink:href="#DejaVuSans-2212" transform="translate(128.203125 39.046875) scale(0.7)"/>
       <use xlink:href="#DejaVuSans-33" transform="translate(186.855469 39.046875) scale(0.7)"/>
      </g>
     </g>
    </g>
    <g id="xtick_3">
     <g id="line2d_3">
      <g>
       <use xlink:href="#m8fe8fd69d9" x="110.691811" y="121.332274" style="stroke: #000000; stroke-width: 0.8"/>
      </g>
     </g>
     <g id="text_3">
      <!-- $\mathdefault{10^{-2}}$ -->
      <g transform="translate(101.882836 131.028823) scale(0.07497 -0.07497)">
       <defs>
        <path id="DejaVuSans-32" d="M 1228 531 
L 3431 531 
L 3431 0 
L 469 0 
L 469 531 
Q 828 903 1448 1529 
Q 2069 2156 2228 2338 
Q 2531 2678 2651 2914 
Q 2772 3150 2772 3378 
Q 2772 3750 2511 3984 
Q 2250 4219 1831 4219 
Q 1534 4219 1204 4116 
Q 875 4013 500 3803 
L 500 4441 
Q 881 4594 1212 4672 
Q 1544 4750 1819 4750 
Q 2544 4750 2975 4387 
Q 3406 4025 3406 3419 
Q 3406 3131 3298 2873 
Q 3191 2616 2906 2266 
Q 2828 2175 2409 1742 
Q 1991 1309 1228 531 
z
" transform="scale(0.015625)"/>
       </defs>
       <use xlink:href="#DejaVuSans-31" transform="translate(0 0.765625)"/>
       <use xlink:href="#DejaVuSans-30" transform="translate(63.623047 0.765625)"/>
       <use xlink:href="#DejaVuSans-2212" transform="translate(128.203125 39.046875) scale(0.7)"/>
       <use xlink:href="#DejaVuSans-32" transform="translate(186.855469 39.046875) scale(0.7)"/>
      </g>
     </g>
    </g>
    <g id="xtick_4">
     <g id="line2d_4">
      <g>
       <use xlink:href="#m8fe8fd69d9" x="145.794972" y="121.332274" style="stroke: #000000; stroke-width: 0.8"/>
      </g>
     </g>
     <g id="text_4">
      <!-- $\mathdefault{10^{-1}}$ -->
      <g transform="translate(136.985997 131.028823) scale(0.07497 -0.07497)">
       <use xlink:href="#DejaVuSans-31" transform="translate(0 0.684375)"/>
       <use xlink:href="#DejaVuSans-30" transform="translate(63.623047 0.684375)"/>
       <use xlink:href="#DejaVuSans-2212" transform="translate(128.203125 38.965625) scale(0.7)"/>
       <use xlink:href="#DejaVuSans-31" transform="translate(186.855469 38.965625) scale(0.7)"/>
      </g>
     </g>
    </g>
    <g id="xtick_5">
     <g id="line2d_5">
      <defs>
       <path id="m35cfe7c5ce" d="M 0 1 
L 0 -1 
" style="stroke: #000000; stroke-width: 0.4"/>
      </defs>
      <g>
       <use xlink:href="#m35cfe7c5ce" x="51.052593" y="121.332274" style="stroke: #000000; stroke-width: 0.4"/>
      </g>
     </g>
    </g>
    <g id="xtick_6">
     <g id="line2d_6">
      <g>
       <use xlink:href="#m35cfe7c5ce" x="57.233953" y="121.332274" style="stroke: #000000; stroke-width: 0.4"/>
      </g>
     </g>
    </g>
    <g id="xtick_7">
     <g id="line2d_7">
      <g>
       <use xlink:href="#m35cfe7c5ce" x="61.619698" y="121.332274" style="stroke: #000000; stroke-width: 0.4"/>
      </g>
     </g>
    </g>
    <g id="xtick_8">
     <g id="line2d_8">
      <g>
       <use xlink:href="#m35cfe7c5ce" x="65.021545" y="121.332274" style="stroke: #000000; stroke-width: 0.4"/>
      </g>
     </g>
    </g>
    <g id="xtick_9">
     <g id="line2d_9">
      <g>
       <use xlink:href="#m35cfe7c5ce" x="67.801057" y="121.332274" style="stroke: #000000; stroke-width: 0.4"/>
      </g>
     </g>
    </g>
    <g id="xtick_10">
     <g id="line2d_10">
      <g>
       <use xlink:href="#m35cfe7c5ce" x="70.151101" y="121.332274" style="stroke: #000000; stroke-width: 0.4"/>
      </g>
     </g>
    </g>
    <g id="xtick_11">
     <g id="line2d_11">
      <g>
       <use xlink:href="#m35cfe7c5ce" x="72.186802" y="121.332274" style="stroke: #000000; stroke-width: 0.4"/>
      </g>
     </g>
    </g>
    <g id="xtick_12">
     <g id="line2d_12">
      <g>
       <use xlink:href="#m35cfe7c5ce" x="73.982417" y="121.332274" style="stroke: #000000; stroke-width: 0.4"/>
      </g>
     </g>
    </g>
    <g id="xtick_13">
     <g id="line2d_13">
      <g>
       <use xlink:href="#m35cfe7c5ce" x="86.155754" y="121.332274" style="stroke: #000000; stroke-width: 0.4"/>
      </g>
     </g>
    </g>
    <g id="xtick_14">
     <g id="line2d_14">
      <g>
       <use xlink:href="#m35cfe7c5ce" x="92.337114" y="121.332274" style="stroke: #000000; stroke-width: 0.4"/>
      </g>
     </g>
    </g>
    <g id="xtick_15">
     <g id="line2d_15">
      <g>
       <use xlink:href="#m35cfe7c5ce" x="96.722859" y="121.332274" style="stroke: #000000; stroke-width: 0.4"/>
      </g>
     </g>
    </g>
    <g id="xtick_16">
     <g id="line2d_16">
      <g>
       <use xlink:href="#m35cfe7c5ce" x="100.124706" y="121.332274" style="stroke: #000000; stroke-width: 0.4"/>
      </g>
     </g>
    </g>
    <g id="xtick_17">
     <g id="line2d_17">
      <g>
       <use xlink:href="#m35cfe7c5ce" x="102.904219" y="121.332274" style="stroke: #000000; stroke-width: 0.4"/>
      </g>
     </g>
    </g>
    <g id="xtick_18">
     <g id="line2d_18">
      <g>
       <use xlink:href="#m35cfe7c5ce" x="105.254262" y="121.332274" style="stroke: #000000; stroke-width: 0.4"/>
      </g>
     </g>
    </g>
    <g id="xtick_19">
     <g id="line2d_19">
      <g>
       <use xlink:href="#m35cfe7c5ce" x="107.289963" y="121.332274" style="stroke: #000000; stroke-width: 0.4"/>
      </g>
     </g>
    </g>
    <g id="xtick_20">
     <g id="line2d_20">
      <g>
       <use xlink:href="#m35cfe7c5ce" x="109.085578" y="121.332274" style="stroke: #000000; stroke-width: 0.4"/>
      </g>
     </g>
    </g>
    <g id="xtick_21">
     <g id="line2d_21">
      <g>
       <use xlink:href="#m35cfe7c5ce" x="121.258915" y="121.332274" style="stroke: #000000; stroke-width: 0.4"/>
      </g>
     </g>
    </g>
    <g id="xtick_22">
     <g id="line2d_22">
      <g>
       <use xlink:href="#m35cfe7c5ce" x="127.440275" y="121.332274" style="stroke: #000000; stroke-width: 0.4"/>
      </g>
     </g>
    </g>
    <g id="xtick_23">
     <g id="line2d_23">
      <g>
       <use xlink:href="#m35cfe7c5ce" x="131.82602" y="121.332274" style="stroke: #000000; stroke-width: 0.4"/>
      </g>
     </g>
    </g>
    <g id="xtick_24">
     <g id="line2d_24">
      <g>
       <use xlink:href="#m35cfe7c5ce" x="135.227868" y="121.332274" style="stroke: #000000; stroke-width: 0.4"/>
      </g>
     </g>
    </g>
    <g id="xtick_25">
     <g id="line2d_25">
      <g>
       <use xlink:href="#m35cfe7c5ce" x="138.00738" y="121.332274" style="stroke: #000000; stroke-width: 0.4"/>
      </g>
     </g>
    </g>
    <g id="xtick_26">
     <g id="line2d_26">
      <g>
       <use xlink:href="#m35cfe7c5ce" x="140.357424" y="121.332274" style="stroke: #000000; stroke-width: 0.4"/>
      </g>
     </g>
    </g>
    <g id="xtick_27">
     <g id="line2d_27">
      <g>
       <use xlink:href="#m35cfe7c5ce" x="142.393124" y="121.332274" style="stroke: #000000; stroke-width: 0.4"/>
      </g>
     </g>
    </g>
    <g id="xtick_28">
     <g id="line2d_28">
      <g>
       <use xlink:href="#m35cfe7c5ce" x="144.188739" y="121.332274" style="stroke: #000000; stroke-width: 0.4"/>
      </g>
     </g>
    </g>
    <g id="text_5">
     <!-- Frequency -->
     <g transform="translate(74.308818 140.926558) scale(0.09 -0.09)">
      <defs>
       <path id="DejaVuSans-46" d="M 628 4666 
L 3309 4666 
L 3309 4134 
L 1259 4134 
L 1259 2759 
L 3109 2759 
L 3109 2228 
L 1259 2228 
L 1259 0 
L 628 0 
L 628 4666 
z
" transform="scale(0.015625)"/>
       <path id="DejaVuSans-72" d="M 2631 2963 
Q 2534 3019 2420 3045 
Q 2306 3072 2169 3072 
Q 1681 3072 1420 2755 
Q 1159 2438 1159 1844 
L 1159 0 
L 581 0 
L 581 3500 
L 1159 3500 
L 1159 2956 
Q 1341 3275 1631 3429 
Q 1922 3584 2338 3584 
Q 2397 3584 2469 3576 
Q 2541 3569 2628 3553 
L 2631 2963 
z
" transform="scale(0.015625)"/>
       <path id="DejaVuSans-65" d="M 3597 1894 
L 3597 1613 
L 953 1613 
Q 991 1019 1311 708 
Q 1631 397 2203 397 
Q 2534 397 2845 478 
Q 3156 559 3463 722 
L 3463 178 
Q 3153 47 2828 -22 
Q 2503 -91 2169 -91 
Q 1331 -91 842 396 
Q 353 884 353 1716 
Q 353 2575 817 3079 
Q 1281 3584 2069 3584 
Q 2775 3584 3186 3129 
Q 3597 2675 3597 1894 
z
M 3022 2063 
Q 3016 2534 2758 2815 
Q 2500 3097 2075 3097 
Q 1594 3097 1305 2825 
Q 1016 2553 972 2059 
L 3022 2063 
z
" transform="scale(0.015625)"/>
       <path id="DejaVuSans-71" d="M 947 1747 
Q 947 1113 1208 752 
Q 1469 391 1925 391 
Q 2381 391 2643 752 
Q 2906 1113 2906 1747 
Q 2906 2381 2643 2742 
Q 2381 3103 1925 3103 
Q 1469 3103 1208 2742 
Q 947 2381 947 1747 
z
M 2906 525 
Q 2725 213 2448 61 
Q 2172 -91 1784 -91 
Q 1150 -91 751 415 
Q 353 922 353 1747 
Q 353 2572 751 3078 
Q 1150 3584 1784 3584 
Q 2172 3584 2448 3432 
Q 2725 3281 2906 2969 
L 2906 3500 
L 3481 3500 
L 3481 -1331 
L 2906 -1331 
L 2906 525 
z
" transform="scale(0.015625)"/>
       <path id="DejaVuSans-75" d="M 544 1381 
L 544 3500 
L 1119 3500 
L 1119 1403 
Q 1119 906 1312 657 
Q 1506 409 1894 409 
Q 2359 409 2629 706 
Q 2900 1003 2900 1516 
L 2900 3500 
L 3475 3500 
L 3475 0 
L 2900 0 
L 2900 538 
Q 2691 219 2414 64 
Q 2138 -91 1772 -91 
Q 1169 -91 856 284 
Q 544 659 544 1381 
z
M 1991 3584 
L 1991 3584 
z
" transform="scale(0.015625)"/>
       <path id="DejaVuSans-6e" d="M 3513 2113 
L 3513 0 
L 2938 0 
L 2938 2094 
Q 2938 2591 2744 2837 
Q 2550 3084 2163 3084 
Q 1697 3084 1428 2787 
Q 1159 2491 1159 1978 
L 1159 0 
L 581 0 
L 581 3500 
L 1159 3500 
L 1159 2956 
Q 1366 3272 1645 3428 
Q 1925 3584 2291 3584 
Q 2894 3584 3203 3211 
Q 3513 2838 3513 2113 
z
" transform="scale(0.015625)"/>
       <path id="DejaVuSans-63" d="M 3122 3366 
L 3122 2828 
Q 2878 2963 2633 3030 
Q 2388 3097 2138 3097 
Q 1578 3097 1268 2742 
Q 959 2388 959 1747 
Q 959 1106 1268 751 
Q 1578 397 2138 397 
Q 2388 397 2633 464 
Q 2878 531 3122 666 
L 3122 134 
Q 2881 22 2623 -34 
Q 2366 -91 2075 -91 
Q 1284 -91 818 406 
Q 353 903 353 1747 
Q 353 2603 823 3093 
Q 1294 3584 2113 3584 
Q 2378 3584 2631 3529 
Q 2884 3475 3122 3366 
z
" transform="scale(0.015625)"/>
       <path id="DejaVuSans-79" d="M 2059 -325 
Q 1816 -950 1584 -1140 
Q 1353 -1331 966 -1331 
L 506 -1331 
L 506 -850 
L 844 -850 
Q 1081 -850 1212 -737 
Q 1344 -625 1503 -206 
L 1606 56 
L 191 3500 
L 800 3500 
L 1894 763 
L 2988 3500 
L 3597 3500 
L 2059 -325 
z
" transform="scale(0.015625)"/>
      </defs>
      <use xlink:href="#DejaVuSans-46"/>
      <use xlink:href="#DejaVuSans-72" x="50.269531"/>
      <use xlink:href="#DejaVuSans-65" x="89.132812"/>
      <use xlink:href="#DejaVuSans-71" x="150.65625"/>
      <use xlink:href="#DejaVuSans-75" x="214.132812"/>
      <use xlink:href="#DejaVuSans-65" x="277.511719"/>
      <use xlink:href="#DejaVuSans-6e" x="339.035156"/>
      <use xlink:href="#DejaVuSans-63" x="402.414062"/>
      <use xlink:href="#DejaVuSans-79" x="457.394531"/>
     </g>
    </g>
   </g>
   <g id="matplotlib.axis_2">
    <g id="ytick_1">
     <g id="line2d_29">
      <defs>
       <path id="m50595a4f32" d="M 2 0 
L -2 -0 
" style="stroke: #000000; stroke-width: 0.8"/>
      </defs>
      <g>
       <use xlink:href="#m50595a4f32" x="39.635321" y="116.273911" style="stroke: #000000; stroke-width: 0.8"/>
      </g>
     </g>
     <g id="text_6">
      <!-- $\mathdefault{10^{0}}$ -->
      <g transform="translate(22.440601 119.122185) scale(0.07497 -0.07497)">
       <use xlink:href="#DejaVuSans-31" transform="translate(0 0.765625)"/>
       <use xlink:href="#DejaVuSans-30" transform="translate(63.623047 0.765625)"/>
       <use xlink:href="#DejaVuSans-30" transform="translate(128.203125 39.046875) scale(0.7)"/>
      </g>
     </g>
    </g>
    <g id="ytick_2">
     <g id="line2d_30">
      <g>
       <use xlink:href="#m50595a4f32" x="39.635321" y="82.546601" style="stroke: #000000; stroke-width: 0.8"/>
      </g>
     </g>
     <g id="text_7">
      <!-- $\mathdefault{10^{1}}$ -->
      <g transform="translate(22.440601 85.394876) scale(0.07497 -0.07497)">
       <use xlink:href="#DejaVuSans-31" transform="translate(0 0.684375)"/>
       <use xlink:href="#DejaVuSans-30" transform="translate(63.623047 0.684375)"/>
       <use xlink:href="#DejaVuSans-31" transform="translate(128.203125 38.965625) scale(0.7)"/>
      </g>
     </g>
    </g>
    <g id="ytick_3">
     <g id="line2d_31">
      <g>
       <use xlink:href="#m50595a4f32" x="39.635321" y="48.819292" style="stroke: #000000; stroke-width: 0.8"/>
      </g>
     </g>
     <g id="text_8">
      <!-- $\mathdefault{10^{2}}$ -->
      <g transform="translate(22.440601 51.667567) scale(0.07497 -0.07497)">
       <use xlink:href="#DejaVuSans-31" transform="translate(0 0.765625)"/>
       <use xlink:href="#DejaVuSans-30" transform="translate(63.623047 0.765625)"/>
       <use xlink:href="#DejaVuSans-32" transform="translate(128.203125 39.046875) scale(0.7)"/>
      </g>
     </g>
    </g>
    <g id="ytick_4">
     <g id="line2d_32">
      <g>
       <use xlink:href="#m50595a4f32" x="39.635321" y="15.091983" style="stroke: #000000; stroke-width: 0.8"/>
      </g>
     </g>
     <g id="text_9">
      <!-- $\mathdefault{10^{3}}$ -->
      <g transform="translate(22.440601 17.940257) scale(0.07497 -0.07497)">
       <use xlink:href="#DejaVuSans-31" transform="translate(0 0.765625)"/>
       <use xlink:href="#DejaVuSans-30" transform="translate(63.623047 0.765625)"/>
       <use xlink:href="#DejaVuSans-33" transform="translate(128.203125 39.046875) scale(0.7)"/>
      </g>
     </g>
    </g>
    <g id="ytick_5">
     <g id="line2d_33">
      <defs>
       <path id="mc50719102d" d="M 1 0 
L -1 -0 
" style="stroke: #000000; stroke-width: 0.4"/>
      </defs>
      <g>
       <use xlink:href="#mc50719102d" x="39.635321" y="119.542425" style="stroke: #000000; stroke-width: 0.4"/>
      </g>
     </g>
    </g>
    <g id="ytick_6">
     <g id="line2d_34">
      <g>
       <use xlink:href="#mc50719102d" x="39.635321" y="117.817188" style="stroke: #000000; stroke-width: 0.4"/>
      </g>
     </g>
    </g>
    <g id="ytick_7">
     <g id="line2d_35">
      <g>
       <use xlink:href="#mc50719102d" x="39.635321" y="106.120979" style="stroke: #000000; stroke-width: 0.4"/>
      </g>
     </g>
    </g>
    <g id="ytick_8">
     <g id="line2d_36">
      <g>
       <use xlink:href="#mc50719102d" x="39.635321" y="100.181895" style="stroke: #000000; stroke-width: 0.4"/>
      </g>
     </g>
    </g>
    <g id="ytick_9">
     <g id="line2d_37">
      <g>
       <use xlink:href="#mc50719102d" x="39.635321" y="95.968047" style="stroke: #000000; stroke-width: 0.4"/>
      </g>
     </g>
    </g>
    <g id="ytick_10">
     <g id="line2d_38">
      <g>
       <use xlink:href="#mc50719102d" x="39.635321" y="92.699533" style="stroke: #000000; stroke-width: 0.4"/>
      </g>
     </g>
    </g>
    <g id="ytick_11">
     <g id="line2d_39">
      <g>
       <use xlink:href="#mc50719102d" x="39.635321" y="90.028963" style="stroke: #000000; stroke-width: 0.4"/>
      </g>
     </g>
    </g>
    <g id="ytick_12">
     <g id="line2d_40">
      <g>
       <use xlink:href="#mc50719102d" x="39.635321" y="87.771028" style="stroke: #000000; stroke-width: 0.4"/>
      </g>
     </g>
    </g>
    <g id="ytick_13">
     <g id="line2d_41">
      <g>
       <use xlink:href="#mc50719102d" x="39.635321" y="85.815115" style="stroke: #000000; stroke-width: 0.4"/>
      </g>
     </g>
    </g>
    <g id="ytick_14">
     <g id="line2d_42">
      <g>
       <use xlink:href="#mc50719102d" x="39.635321" y="84.089878" style="stroke: #000000; stroke-width: 0.4"/>
      </g>
     </g>
    </g>
    <g id="ytick_15">
     <g id="line2d_43">
      <g>
       <use xlink:href="#mc50719102d" x="39.635321" y="72.39367" style="stroke: #000000; stroke-width: 0.4"/>
      </g>
     </g>
    </g>
    <g id="ytick_16">
     <g id="line2d_44">
      <g>
       <use xlink:href="#mc50719102d" x="39.635321" y="66.454585" style="stroke: #000000; stroke-width: 0.4"/>
      </g>
     </g>
    </g>
    <g id="ytick_17">
     <g id="line2d_45">
      <g>
       <use xlink:href="#mc50719102d" x="39.635321" y="62.240738" style="stroke: #000000; stroke-width: 0.4"/>
      </g>
     </g>
    </g>
    <g id="ytick_18">
     <g id="line2d_46">
      <g>
       <use xlink:href="#mc50719102d" x="39.635321" y="58.972224" style="stroke: #000000; stroke-width: 0.4"/>
      </g>
     </g>
    </g>
    <g id="ytick_19">
     <g id="line2d_47">
      <g>
       <use xlink:href="#mc50719102d" x="39.635321" y="56.301654" style="stroke: #000000; stroke-width: 0.4"/>
      </g>
     </g>
    </g>
    <g id="ytick_20">
     <g id="line2d_48">
      <g>
       <use xlink:href="#mc50719102d" x="39.635321" y="54.043719" style="stroke: #000000; stroke-width: 0.4"/>
      </g>
     </g>
    </g>
    <g id="ytick_21">
     <g id="line2d_49">
      <g>
       <use xlink:href="#mc50719102d" x="39.635321" y="52.087806" style="stroke: #000000; stroke-width: 0.4"/>
      </g>
     </g>
    </g>
    <g id="ytick_22">
     <g id="line2d_50">
      <g>
       <use xlink:href="#mc50719102d" x="39.635321" y="50.362569" style="stroke: #000000; stroke-width: 0.4"/>
      </g>
     </g>
    </g>
    <g id="ytick_23">
     <g id="line2d_51">
      <g>
       <use xlink:href="#mc50719102d" x="39.635321" y="38.66636" style="stroke: #000000; stroke-width: 0.4"/>
      </g>
     </g>
    </g>
    <g id="ytick_24">
     <g id="line2d_52">
      <g>
       <use xlink:href="#mc50719102d" x="39.635321" y="32.727276" style="stroke: #000000; stroke-width: 0.4"/>
      </g>
     </g>
    </g>
    <g id="ytick_25">
     <g id="line2d_53">
      <g>
       <use xlink:href="#mc50719102d" x="39.635321" y="28.513429" style="stroke: #000000; stroke-width: 0.4"/>
      </g>
     </g>
    </g>
    <g id="ytick_26">
     <g id="line2d_54">
      <g>
       <use xlink:href="#mc50719102d" x="39.635321" y="25.244915" style="stroke: #000000; stroke-width: 0.4"/>
      </g>
     </g>
    </g>
    <g id="ytick_27">
     <g id="line2d_55">
      <g>
       <use xlink:href="#mc50719102d" x="39.635321" y="22.574344" style="stroke: #000000; stroke-width: 0.4"/>
      </g>
     </g>
    </g>
    <g id="ytick_28">
     <g id="line2d_56">
      <g>
       <use xlink:href="#mc50719102d" x="39.635321" y="20.316409" style="stroke: #000000; stroke-width: 0.4"/>
      </g>
     </g>
    </g>
    <g id="ytick_29">
     <g id="line2d_57">
      <g>
       <use xlink:href="#mc50719102d" x="39.635321" y="18.360497" style="stroke: #000000; stroke-width: 0.4"/>
      </g>
     </g>
    </g>
    <g id="ytick_30">
     <g id="line2d_58">
      <g>
       <use xlink:href="#mc50719102d" x="39.635321" y="16.63526" style="stroke: #000000; stroke-width: 0.4"/>
      </g>
     </g>
    </g>
    <g id="text_10">
     <!-- Rank -->
     <g transform="translate(19.068882 76.931134) rotate(-90) scale(0.09 -0.09)">
      <defs>
       <path id="DejaVuSans-52" d="M 2841 2188 
Q 3044 2119 3236 1894 
Q 3428 1669 3622 1275 
L 4263 0 
L 3584 0 
L 2988 1197 
Q 2756 1666 2539 1819 
Q 2322 1972 1947 1972 
L 1259 1972 
L 1259 0 
L 628 0 
L 628 4666 
L 2053 4666 
Q 2853 4666 3247 4331 
Q 3641 3997 3641 3322 
Q 3641 2881 3436 2590 
Q 3231 2300 2841 2188 
z
M 1259 4147 
L 1259 2491 
L 2053 2491 
Q 2509 2491 2742 2702 
Q 2975 2913 2975 3322 
Q 2975 3731 2742 3939 
Q 2509 4147 2053 4147 
L 1259 4147 
z
" transform="scale(0.015625)"/>
       <path id="DejaVuSans-61" d="M 2194 1759 
Q 1497 1759 1228 1600 
Q 959 1441 959 1056 
Q 959 750 1161 570 
Q 1363 391 1709 391 
Q 2188 391 2477 730 
Q 2766 1069 2766 1631 
L 2766 1759 
L 2194 1759 
z
M 3341 1997 
L 3341 0 
L 2766 0 
L 2766 531 
Q 2569 213 2275 61 
Q 1981 -91 1556 -91 
Q 1019 -91 701 211 
Q 384 513 384 1019 
Q 384 1609 779 1909 
Q 1175 2209 1959 2209 
L 2766 2209 
L 2766 2266 
Q 2766 2663 2505 2880 
Q 2244 3097 1772 3097 
Q 1472 3097 1187 3025 
Q 903 2953 641 2809 
L 641 3341 
Q 956 3463 1253 3523 
Q 1550 3584 1831 3584 
Q 2591 3584 2966 3190 
Q 3341 2797 3341 1997 
z
" transform="scale(0.015625)"/>
       <path id="DejaVuSans-6b" d="M 581 4863 
L 1159 4863 
L 1159 1991 
L 2875 3500 
L 3609 3500 
L 1753 1863 
L 3688 0 
L 2938 0 
L 1159 1709 
L 1159 0 
L 581 0 
L 581 4863 
z
" transform="scale(0.015625)"/>
      </defs>
      <use xlink:href="#DejaVuSans-52"/>
      <use xlink:href="#DejaVuSans-61" x="67.232422"/>
      <use xlink:href="#DejaVuSans-6e" x="128.511719"/>
      <use xlink:href="#DejaVuSans-6b" x="191.890625"/>
     </g>
    </g>
   </g>
   <g id="line2d_59">
    <path d="M 150.210278 150.998277 
L 150.210278 116.273911 
L 139.643174 116.273911 
L 139.643174 106.120979 
L 133.461814 106.120979 
L 133.461814 100.181895 
L 129.07607 100.181895 
L 129.07607 95.968047 
L 125.674222 95.968047 
L 125.674222 92.699533 
L 122.89471 92.699533 
L 122.89471 90.028963 
L 120.544666 90.028963 
L 120.544666 87.771028 
L 118.508965 87.771028 
L 118.508965 85.815115 
L 116.71335 85.815115 
L 116.71335 84.089878 
L 115.107117 84.089878 
L 115.107117 82.546601 
L 113.654103 82.546601 
L 113.654103 81.150538 
L 112.327605 81.150538 
L 112.327605 79.876031 
L 111.107345 79.876031 
L 111.107345 78.703599 
L 109.977561 78.703599 
L 109.977561 77.618096 
L 108.925757 77.618096 
L 108.925757 76.607517 
L 107.941861 76.607517 
L 107.941861 75.662184 
L 107.017632 75.662184 
L 107.017632 74.774179 
L 106.146245 74.774179 
L 106.146245 73.936947 
L 105.321985 73.936947 
L 105.321985 73.144993 
L 104.540013 73.144993 
L 104.540013 72.39367 
L 103.796201 72.39367 
L 103.796201 71.679012 
L 103.086999 71.679012 
L 103.086999 70.997606 
L 102.409327 70.997606 
L 102.409327 70.346495 
L 101.760501 70.346495 
L 101.760501 69.723099 
L 101.138165 69.723099 
L 101.138165 69.125156 
L 100.540241 69.125156 
L 100.540241 68.550667 
L 99.964886 68.550667 
L 99.964886 67.997862 
L 99.410457 67.997862 
L 99.410457 67.465164 
L 98.875486 67.465164 
L 98.875486 66.951161 
L 98.358653 66.951161 
L 98.358653 66.454585 
L 97.858769 66.454585 
L 97.858769 65.974294 
L 97.374756 65.974294 
L 97.374756 65.509252 
L 96.905639 65.509252 
L 96.905639 65.058521 
L 96.450527 65.058521 
L 96.450527 64.621248 
L 96.008609 64.621248 
L 96.008609 64.19665 
L 95.579141 64.19665 
L 95.579141 63.784015 
L 95.161441 63.784015 
L 95.161441 63.382686 
L 94.75488 63.382686 
L 94.75488 62.992061 
L 94.358881 62.992061 
L 94.358881 62.611583 
L 93.972908 62.611583 
L 93.972908 62.240738 
L 93.596467 62.240738 
L 93.596467 61.879051 
L 93.229097 61.879051 
L 93.229097 61.52608 
L 92.870372 61.52608 
L 92.870372 61.181415 
L 92.519894 61.181415 
L 92.519894 60.844674 
L 92.177293 60.844674 
L 92.177293 60.515501 
L 91.842222 60.515501 
L 91.842222 60.193563 
L 91.514358 60.193563 
L 91.514358 59.878549 
L 91.193396 59.878549 
L 91.193396 59.570168 
L 90.879053 59.570168 
L 90.879053 59.268145 
L 90.571061 59.268145 
L 90.571061 58.972224 
L 90.269167 58.972224 
L 90.269167 58.682163 
L 89.973137 58.682163 
L 89.973137 58.397735 
L 89.682745 58.397735 
L 89.682745 58.118725 
L 89.397781 58.118725 
L 89.397781 57.844931 
L 89.118047 57.844931 
L 89.118047 57.57616 
L 88.843352 57.57616 
L 88.843352 57.312233 
L 88.57352 57.312233 
L 88.57352 57.052976 
L 88.308381 57.052976 
L 88.308381 56.798229 
L 88.047775 56.798229 
L 88.047775 56.547837 
L 87.791549 56.547837 
L 87.791549 56.301654 
L 87.539558 56.301654 
L 87.539558 56.059539 
L 87.291664 56.059539 
L 87.291664 55.821362 
L 87.047737 55.821362 
L 87.047737 55.586996 
L 86.807652 55.586996 
L 86.807652 55.35632 
L 86.571289 55.35632 
L 86.571289 55.129221 
L 86.338534 55.129221 
L 86.338534 54.90559 
L 86.10928 54.90559 
L 86.10928 54.685321 
L 85.883423 54.685321 
L 85.883423 54.468316 
L 85.660863 54.468316 
L 85.660863 54.254479 
L 85.441505 54.254479 
L 85.441505 54.043719 
L 85.225258 54.043719 
L 85.225258 53.835948 
L 85.012037 53.835948 
L 85.012037 53.631083 
L 84.801756 53.631083 
L 84.801756 53.429044 
L 84.594336 53.429044 
L 84.594336 53.229754 
L 84.389701 53.229754 
L 84.389701 53.03314 
L 84.187776 53.03314 
L 84.187776 52.839129 
L 83.988491 52.839129 
L 83.988491 52.647655 
L 83.791777 52.647655 
L 83.791777 52.458651 
L 83.597569 52.458651 
L 83.597569 52.272055 
L 83.405804 52.272055 
L 83.405804 52.087806 
L 83.216421 52.087806 
L 83.216421 51.905846 
L 83.029362 51.905846 
L 83.029362 51.726119 
L 82.844571 51.726119 
L 82.844571 51.54857 
L 82.661993 51.54857 
L 82.661993 51.373148 
L 82.481575 51.373148 
L 82.481575 51.199802 
L 82.303268 51.199802 
L 82.303268 51.028483 
L 82.127022 51.028483 
L 82.127022 50.859145 
L 81.95279 50.859145 
L 81.95279 50.691742 
L 81.780527 50.691742 
L 81.780527 50.526231 
L 81.610189 50.526231 
L 81.610189 50.362569 
L 81.441733 50.362569 
L 81.441733 50.200716 
L 81.275118 50.200716 
L 81.275118 50.040631 
L 81.110304 50.040631 
L 81.110304 49.882278 
L 80.947253 49.882278 
L 80.947253 49.725617 
L 80.785928 49.725617 
L 80.785928 49.570615 
L 80.626292 49.570615 
L 80.626292 49.417236 
L 80.46831 49.417236 
L 80.46831 49.265446 
L 80.311949 49.265446 
L 80.311949 49.115213 
L 80.157175 49.115213 
L 80.157175 48.966505 
L 80.003956 48.966505 
L 80.003956 48.819292 
L 79.852262 48.819292 
L 79.852262 48.673544 
L 79.702063 48.673544 
L 79.702063 48.529232 
L 79.553329 48.529232 
L 79.553329 48.386327 
L 79.406032 48.386327 
L 79.406032 48.244804 
L 79.260145 48.244804 
L 79.260145 48.104634 
L 79.11564 48.104634 
L 79.11564 47.965793 
L 78.972493 47.965793 
L 78.972493 47.828256 
L 78.830677 47.828256 
L 78.830677 47.691999 
L 78.690168 47.691999 
L 78.690168 47.556997 
L 78.550942 47.556997 
L 78.550942 47.423228 
L 78.412976 47.423228 
L 78.412976 47.29067 
L 78.276248 47.29067 
L 78.276248 47.159301 
L 78.140735 47.159301 
L 78.140735 47.029099 
L 78.006416 47.029099 
L 78.006416 46.900045 
L 77.87327 46.900045 
L 77.87327 46.772117 
L 77.741277 46.772117 
L 77.741277 46.645298 
L 77.610417 46.645298 
L 77.610417 46.519567 
L 77.48067 46.519567 
L 77.48067 46.394906 
L 77.352019 46.394906 
L 77.352019 46.271297 
L 77.224444 46.271297 
L 77.224444 46.148722 
L 77.097928 46.148722 
L 77.097928 46.027164 
L 76.972453 46.027164 
L 76.972453 45.906608 
L 76.848003 45.906608 
L 76.848003 45.787035 
L 76.72456 45.787035 
L 76.72456 45.66843 
L 76.602108 45.66843 
L 76.602108 45.550778 
L 76.480633 45.550778 
L 76.480633 45.434064 
L 76.360117 45.434064 
L 76.360117 45.318272 
L 76.240547 45.318272 
L 76.240547 45.203388 
L 76.121908 45.203388 
L 76.121908 45.089399 
L 76.004184 45.089399 
L 76.004184 44.97629 
L 75.887363 44.97629 
L 75.887363 44.864047 
L 75.77143 44.864047 
L 75.77143 44.752658 
L 75.542176 44.64211 
L 75.542176 44.532389 
L 75.316318 44.423485 
L 75.316318 44.315384 
L 75.093758 44.208075 
L 74.983685 43.995788 
L 74.765894 43.890787 
L 74.658154 43.683016 
L 74.444932 43.580226 
L 74.339429 43.376784 
L 74.130589 43.276113 
L 74.027232 43.076823 
L 73.822596 42.978185 
L 73.7213 42.782881 
L 73.520703 42.686197 
L 73.421386 42.494723 
L 73.224672 42.399916 
L 73.127259 42.212124 
L 72.93428 42.119123 
L 72.8387 41.934874 
L 72.649317 41.843612 
L 72.555501 41.662775 
L 72.369582 41.573187 
L 72.277466 41.395639 
L 72.094888 41.307665 
L 72.004412 41.133287 
L 71.825056 41.04687 
L 71.736163 40.875551 
L 71.559917 40.790638 
L 71.472552 40.622273 
L 71.299311 40.538811 
L 71.213422 40.373299 
L 71.043084 40.29124 
L 70.958624 40.128487 
L 70.791093 40.047784 
L 70.708013 39.8877 
L 70.5432 39.808309 
L 70.461456 39.650806 
L 70.299273 39.572686 
L 70.218824 39.417683 
L 70.059187 39.340793 
L 69.979992 39.188213 
L 69.822824 39.112514 
L 69.744844 38.962281 
L 69.59007 38.887739 
L 69.513268 38.739782 
L 69.360816 38.66636 
L 69.285158 38.520612 
L 69.134959 38.448278 
L 69.06041 38.304673 
L 68.912398 38.233395 
L 68.838928 38.091872 
L 68.69304 38.021619 
L 68.620617 37.882118 
L 68.476794 37.812862 
L 68.405388 37.675325 
L 68.263572 37.607038 
L 68.193156 37.471411 
L 68.053292 37.404065 
L 67.983838 37.270297 
L 67.845872 37.203868 
L 67.777354 37.071906 
L 67.641236 37.006369 
L 67.573631 36.876167 
L 67.439312 36.811498 
L 67.372593 36.68301 
L 67.240026 36.619186 
L 67.174173 36.492366 
L 67.043312 36.429365 
L 66.978301 36.304172 
L 66.849105 36.241974 
L 66.784915 36.118365 
L 66.65734 36.056949 
L 66.59395 35.934885 
L 66.467957 35.874233 
L 66.405349 35.753676 
L 66.280898 35.693767 
L 66.219052 35.574681 
L 66.096107 35.515498 
L 66.035004 35.397847 
L 65.913528 35.339373 
L 65.853152 35.223122 
L 65.733111 35.16534 
L 65.673443 35.050457 
L 65.554803 34.993351 
L 65.495828 34.879803 
L 65.378557 34.823358 
L 65.320259 34.711115 
L 65.204326 34.655315 
L 65.146688 34.544348 
L 64.975072 34.434215 
L 64.918293 34.324904 
L 64.749214 34.216403 
L 64.693268 34.1087 
L 64.526654 34.001783 
L 64.41658 33.842856 
L 64.252946 33.737855 
L 64.144824 33.581751 
L 63.984066 33.478599 
L 63.877828 33.32522 
L 63.719846 33.223852 
L 63.615427 33.073104 
L 63.460127 32.97346 
L 63.357466 32.825254 
L 63.204759 32.727276 
L 63.103798 32.581528 
L 62.953599 32.485162 
L 62.854282 32.341791 
L 62.706509 32.246984 
L 62.608783 32.105915 
L 62.46336 32.012618 
L 62.367176 31.873777 
L 62.224028 31.781943 
L 62.129338 31.645261 
L 61.988396 31.554844 
L 61.895154 31.420256 
L 61.75635 31.331212 
L 61.664512 31.198654 
L 61.527784 31.110944 
L 61.437308 30.980355 
L 61.302593 30.893938 
L 61.21344 30.765262 
L 61.080681 30.680101 
L 60.992813 30.553282 
L 60.861953 30.469341 
L 60.775332 30.344325 
L 60.646318 30.26157 
L 60.560911 30.138308 
L 60.433691 30.056706 
L 60.349464 29.935148 
L 60.223989 29.854667 
L 60.140909 29.734768 
L 60.017132 29.655377 
L 59.935169 29.537092 
L 59.813045 29.458762 
L 59.732168 29.342048 
L 59.611653 29.264752 
L 59.531836 29.149567 
L 59.412887 29.073277 
L 59.334101 28.959583 
L 59.21668 28.884273 
L 59.138899 28.772031 
L 59.022966 28.697678 
L 58.946164 28.58685 
L 58.793712 28.476855 
L 58.718053 28.36768 
L 58.567854 28.259313 
L 58.493306 28.151742 
L 58.345294 28.044954 
L 58.23522 27.903772 
L 58.089681 27.798771 
L 57.981431 27.65993 
L 57.838284 27.556656 
L 57.731798 27.420081 
L 57.590965 27.318479 
L 57.486187 27.184097 
L 57.347594 27.084113 
L 57.24447 26.951854 
L 57.108048 26.853437 
L 57.006526 26.723236 
L 56.872207 26.626338 
L 56.772239 26.498131 
L 56.639959 26.402707 
L 56.541498 26.276434 
L 56.411197 26.182438 
L 56.314197 26.058042 
L 56.185816 25.965433 
L 56.090235 25.842858 
L 55.963719 25.751596 
L 55.869516 25.63079 
L 55.744811 25.540836 
L 55.651947 25.421749 
L 55.529002 25.333065 
L 55.43744 25.215649 
L 55.316206 25.1282 
L 55.225909 25.012409 
L 55.106338 24.926161 
L 55.017272 24.81195 
L 54.899321 24.726872 
L 54.811453 24.614197 
L 54.695077 24.530257 
L 54.608375 24.419079 
L 54.464958 24.308739 
L 54.379551 24.199224 
L 54.238261 24.090521 
L 54.154111 23.98262 
L 54.014885 23.875507 
L 53.904413 23.742708 
L 53.767439 23.63733 
L 53.658739 23.506664 
L 53.523945 23.402963 
L 53.416961 23.274362 
L 53.284279 23.172288 
L 53.178958 23.045688 
L 53.048322 22.945189 
L 52.944614 22.820528 
L 52.815962 22.721558 
L 52.713817 22.598777 
L 52.587091 22.501289 
L 52.486463 22.380334 
L 52.361604 22.284284 
L 52.262449 22.1651 
L 52.139404 22.070447 
L 52.041679 21.952983 
L 51.920397 21.859686 
L 51.824061 21.743895 
L 51.704491 21.651916 
L 51.609505 21.537748 
L 51.4916 21.447051 
L 51.397927 21.334463 
L 51.281641 21.245012 
L 51.189246 21.133961 
L 51.051695 21.023745 
L 50.960679 20.914353 
L 50.825166 20.805771 
L 50.735489 20.697989 
L 50.601954 20.590994 
L 50.491562 20.463622 
L 50.360138 20.358319 
L 50.251477 20.232947 
L 50.122097 20.129284 
L 50.015114 20.005848 
L 49.887716 19.903774 
L 49.782359 19.782217 
L 49.656884 19.681684 
L 49.553105 19.561948 
L 49.429496 19.462911 
L 49.327248 19.344943 
L 49.205448 19.247357 
L 49.104687 19.131106 
L 48.984646 19.034929 
L 48.885329 18.920345 
L 48.766997 18.825539 
L 48.669083 18.712575 
L 48.552411 18.619099 
L 48.455861 18.50771 
L 48.321711 18.397162 
L 48.226607 18.287442 
L 48.094451 18.178537 
L 48.00075 18.070436 
L 47.870528 17.963128 
L 47.759788 17.83892 
L 47.631601 17.733287 
L 47.522577 17.611005 
L 47.39636 17.506998 
L 47.288999 17.386583 
L 47.164694 17.284152 
L 47.058947 17.165547 
L 46.936496 17.064645 
L 46.832315 16.947798 
L 46.711663 16.848379 
L 46.609002 16.733238 
L 46.490098 16.63526 
L 46.388913 16.521775 
L 46.271707 16.425197 
L 46.171957 16.313322 
L 46.039964 16.202295 
L 45.941713 16.092103 
L 45.81169 15.982734 
L 45.714896 15.874175 
L 45.586785 15.766415 
L 45.491403 15.659443 
L 45.365149 15.553245 
L 45.255528 15.432812 
L 45.131204 15.32824 
L 45.023246 15.209635 
L 44.900795 15.106638 
L 44.900795 15.106638 
" clip-path="url(#p6289a2230e)" style="fill: none; stroke: #1f77b4; stroke-width: 1.3; stroke-linecap: round"/>
   </g>
   <g id="patch_3">
    <path d="M 39.635321 121.332274 
L 39.635321 10.048274 
" style="fill: none; stroke: #000000; stroke-linejoin: miter; stroke-linecap: square"/>
   </g>
   <g id="patch_4">
    <path d="M 39.635321 121.332274 
L 155.475753 121.332274 
" style="fill: none; stroke: #000000; stroke-linejoin: miter; stroke-linecap: square"/>
   </g>
   <g id="text_11">
    <!-- Zipf: -->
    <g transform="translate(135.22294 16.886868) scale(0.09 -0.09)">
     <defs>
      <path id="DejaVuSans-5a" d="M 359 4666 
L 4025 4666 
L 4025 4184 
L 1075 531 
L 4097 531 
L 4097 0 
L 288 0 
L 288 481 
L 3238 4134 
L 359 4134 
L 359 4666 
z
" transform="scale(0.015625)"/>
      <path id="DejaVuSans-69" d="M 603 3500 
L 1178 3500 
L 1178 0 
L 603 0 
L 603 3500 
z
M 603 4863 
L 1178 4863 
L 1178 4134 
L 603 4134 
L 603 4863 
z
" transform="scale(0.015625)"/>
      <path id="DejaVuSans-70" d="M 1159 525 
L 1159 -1331 
L 581 -1331 
L 581 3500 
L 1159 3500 
L 1159 2969 
Q 1341 3281 1617 3432 
Q 1894 3584 2278 3584 
Q 2916 3584 3314 3078 
Q 3713 2572 3713 1747 
Q 3713 922 3314 415 
Q 2916 -91 2278 -91 
Q 1894 -91 1617 61 
Q 1341 213 1159 525 
z
M 3116 1747 
Q 3116 2381 2855 2742 
Q 2594 3103 2138 3103 
Q 1681 3103 1420 2742 
Q 1159 2381 1159 1747 
Q 1159 1113 1420 752 
Q 1681 391 2138 391 
Q 2594 391 2855 752 
Q 3116 1113 3116 1747 
z
" transform="scale(0.015625)"/>
      <path id="DejaVuSans-66" d="M 2375 4863 
L 2375 4384 
L 1825 4384 
Q 1516 4384 1395 4259 
Q 1275 4134 1275 3809 
L 1275 3500 
L 2222 3500 
L 2222 3053 
L 1275 3053 
L 1275 0 
L 697 0 
L 697 3053 
L 147 3053 
L 147 3500 
L 697 3500 
L 697 3744 
Q 697 4328 969 4595 
Q 1241 4863 1831 4863 
L 2375 4863 
z
" transform="scale(0.015625)"/>
      <path id="DejaVuSans-3a" d="M 750 794 
L 1409 794 
L 1409 0 
L 750 0 
L 750 794 
z
M 750 3309 
L 1409 3309 
L 1409 2516 
L 750 2516 
L 750 3309 
z
" transform="scale(0.015625)"/>
     </defs>
     <use xlink:href="#DejaVuSans-5a"/>
     <use xlink:href="#DejaVuSans-69" x="68.505859"/>
     <use xlink:href="#DejaVuSans-70" x="96.289062"/>
     <use xlink:href="#DejaVuSans-66" x="159.765625"/>
     <use xlink:href="#DejaVuSans-3a" x="191.345703"/>
    </g>
    <!-- $n_i \sim 1/i$ -->
    <g transform="translate(125.415753 26.964899) scale(0.09 -0.09)">
     <defs>
      <path id="DejaVuSans-Oblique-6e" d="M 3566 2113 
L 3156 0 
L 2578 0 
L 2988 2091 
Q 3016 2238 3031 2350 
Q 3047 2463 3047 2528 
Q 3047 2791 2881 2937 
Q 2716 3084 2419 3084 
Q 1956 3084 1622 2776 
Q 1288 2469 1184 1941 
L 800 0 
L 225 0 
L 903 3500 
L 1478 3500 
L 1363 2950 
Q 1603 3253 1940 3418 
Q 2278 3584 2650 3584 
Q 3113 3584 3367 3334 
Q 3622 3084 3622 2631 
Q 3622 2519 3608 2391 
Q 3594 2263 3566 2113 
z
" transform="scale(0.015625)"/>
      <path id="DejaVuSans-Oblique-69" d="M 1172 4863 
L 1747 4863 
L 1606 4134 
L 1031 4134 
L 1172 4863 
z
M 909 3500 
L 1484 3500 
L 800 0 
L 225 0 
L 909 3500 
z
" transform="scale(0.015625)"/>
      <path id="DejaVuSans-223c" d="M 4684 2556 
L 4684 1997 
Q 4356 1753 4076 1645 
Q 3797 1538 3494 1538 
Q 3150 1538 2694 1722 
Q 2663 1734 2641 1744 
Q 2622 1750 2575 1769 
Q 2091 1959 1797 1959 
Q 1522 1959 1253 1840 
Q 984 1722 678 1459 
L 678 2019 
Q 1006 2263 1286 2370 
Q 1566 2478 1869 2478 
Q 2213 2478 2672 2294 
Q 2706 2278 2722 2272 
Q 2741 2266 2788 2247 
Q 3272 2056 3566 2056 
Q 3834 2056 4098 2173 
Q 4363 2291 4684 2556 
z
" transform="scale(0.015625)"/>
      <path id="DejaVuSans-2f" d="M 1625 4666 
L 2156 4666 
L 531 -594 
L 0 -594 
L 1625 4666 
z
" transform="scale(0.015625)"/>
     </defs>
     <use xlink:href="#DejaVuSans-Oblique-6e" transform="translate(0 0.015625)"/>
     <use xlink:href="#DejaVuSans-Oblique-69" transform="translate(63.378906 -16.390625) scale(0.7)"/>
     <use xlink:href="#DejaVuSans-223c" transform="translate(105.043945 0.015625)"/>
     <use xlink:href="#DejaVuSans-31" transform="translate(208.31543 0.015625)"/>
     <use xlink:href="#DejaVuSans-2f" transform="translate(271.938477 0.015625)"/>
     <use xlink:href="#DejaVuSans-Oblique-69" transform="translate(305.629883 0.015625)"/>
    </g>
    <!-- S=1000 -->
    <g transform="translate(119.31544 37.042931) scale(0.09 -0.09)">
     <defs>
      <path id="DejaVuSans-53" d="M 3425 4513 
L 3425 3897 
Q 3066 4069 2747 4153 
Q 2428 4238 2131 4238 
Q 1616 4238 1336 4038 
Q 1056 3838 1056 3469 
Q 1056 3159 1242 3001 
Q 1428 2844 1947 2747 
L 2328 2669 
Q 3034 2534 3370 2195 
Q 3706 1856 3706 1288 
Q 3706 609 3251 259 
Q 2797 -91 1919 -91 
Q 1588 -91 1214 -16 
Q 841 59 441 206 
L 441 856 
Q 825 641 1194 531 
Q 1563 422 1919 422 
Q 2459 422 2753 634 
Q 3047 847 3047 1241 
Q 3047 1584 2836 1778 
Q 2625 1972 2144 2069 
L 1759 2144 
Q 1053 2284 737 2584 
Q 422 2884 422 3419 
Q 422 4038 858 4394 
Q 1294 4750 2059 4750 
Q 2388 4750 2728 4690 
Q 3069 4631 3425 4513 
z
" transform="scale(0.015625)"/>
      <path id="DejaVuSans-3d" d="M 678 2906 
L 4684 2906 
L 4684 2381 
L 678 2381 
L 678 2906 
z
M 678 1631 
L 4684 1631 
L 4684 1100 
L 678 1100 
L 678 1631 
z
" transform="scale(0.015625)"/>
     </defs>
     <use xlink:href="#DejaVuSans-53"/>
     <use xlink:href="#DejaVuSans-3d" x="63.476562"/>
     <use xlink:href="#DejaVuSans-31" x="147.265625"/>
     <use xlink:href="#DejaVuSans-30" x="210.888672"/>
     <use xlink:href="#DejaVuSans-30" x="274.511719"/>
     <use xlink:href="#DejaVuSans-30" x="338.134766"/>
    </g>
   </g>
   <g id="text_12">
    <!-- A -->
    <g transform="translate(7.2 17.999708) scale(0.09 -0.09)">
     <defs>
      <path id="DejaVuSans-Bold-41" d="M 3419 850 
L 1538 850 
L 1241 0 
L 31 0 
L 1759 4666 
L 3194 4666 
L 4922 0 
L 3713 0 
L 3419 850 
z
M 1838 1716 
L 3116 1716 
L 2478 3572 
L 1838 1716 
z
" transform="scale(0.015625)"/>
     </defs>
     <use xlink:href="#DejaVuSans-Bold-41"/>
    </g>
   </g>
  </g>
  <g id="axes_2">
   <g id="patch_5">
    <path d="M 204.395321 121.332274 
L 320.235753 121.332274 
L 320.235753 10.048274 
L 204.395321 10.048274 
z
" style="fill: #ffffff"/>
   </g>
   <g id="matplotlib.axis_3">
    <g id="xtick_29">
     <g id="line2d_60">
      <g>
       <use xlink:href="#m8fe8fd69d9" x="204.395321" y="121.332274" style="stroke: #000000; stroke-width: 0.8"/>
      </g>
     </g>
     <g id="text_13">
      <!-- $\mathdefault{10^{1}}$ -->
      <g transform="translate(197.797961 131.028823) scale(0.07497 -0.07497)">
       <use xlink:href="#DejaVuSans-31" transform="translate(0 0.684375)"/>
       <use xlink:href="#DejaVuSans-30" transform="translate(63.623047 0.684375)"/>
       <use xlink:href="#DejaVuSans-31" transform="translate(128.203125 38.965625) scale(0.7)"/>
      </g>
     </g>
    </g>
    <g id="xtick_30">
     <g id="line2d_61">
      <g>
       <use xlink:href="#m8fe8fd69d9" x="243.008798" y="121.332274" style="stroke: #000000; stroke-width: 0.8"/>
      </g>
     </g>
     <g id="text_14">
      <!-- $\mathdefault{10^{2}}$ -->
      <g transform="translate(236.411438 131.028823) scale(0.07497 -0.07497)">
       <use xlink:href="#DejaVuSans-31" transform="translate(0 0.765625)"/>
       <use xlink:href="#DejaVuSans-30" transform="translate(63.623047 0.765625)"/>
       <use xlink:href="#DejaVuSans-32" transform="translate(128.203125 39.046875) scale(0.7)"/>
      </g>
     </g>
    </g>
    <g id="xtick_31">
     <g id="line2d_62">
      <g>
       <use xlink:href="#m8fe8fd69d9" x="281.622275" y="121.332274" style="stroke: #000000; stroke-width: 0.8"/>
      </g>
     </g>
     <g id="text_15">
      <!-- $\mathdefault{10^{3}}$ -->
      <g transform="translate(275.024915 131.028823) scale(0.07497 -0.07497)">
       <use xlink:href="#DejaVuSans-31" transform="translate(0 0.765625)"/>
       <use xlink:href="#DejaVuSans-30" transform="translate(63.623047 0.765625)"/>
       <use xlink:href="#DejaVuSans-33" transform="translate(128.203125 39.046875) scale(0.7)"/>
      </g>
     </g>
    </g>
    <g id="xtick_32">
     <g id="line2d_63">
      <g>
       <use xlink:href="#m8fe8fd69d9" x="320.235753" y="121.332274" style="stroke: #000000; stroke-width: 0.8"/>
      </g>
     </g>
     <g id="text_16">
      <!-- $\mathdefault{10^{4}}$ -->
      <g transform="translate(313.638393 131.028823) scale(0.07497 -0.07497)">
       <use xlink:href="#DejaVuSans-31" transform="translate(0 0.684375)"/>
       <use xlink:href="#DejaVuSans-30" transform="translate(63.623047 0.684375)"/>
       <use xlink:href="#DejaVuSans-34" transform="translate(128.203125 38.965625) scale(0.7)"/>
      </g>
     </g>
    </g>
    <g id="xtick_33">
     <g id="line2d_64">
      <g>
       <use xlink:href="#m35cfe7c5ce" x="216.019136" y="121.332274" style="stroke: #000000; stroke-width: 0.4"/>
      </g>
     </g>
    </g>
    <g id="xtick_34">
     <g id="line2d_65">
      <g>
       <use xlink:href="#m35cfe7c5ce" x="222.818632" y="121.332274" style="stroke: #000000; stroke-width: 0.4"/>
      </g>
     </g>
    </g>
    <g id="xtick_35">
     <g id="line2d_66">
      <g>
       <use xlink:href="#m35cfe7c5ce" x="227.642951" y="121.332274" style="stroke: #000000; stroke-width: 0.4"/>
      </g>
     </g>
    </g>
    <g id="xtick_36">
     <g id="line2d_67">
      <g>
       <use xlink:href="#m35cfe7c5ce" x="231.384983" y="121.332274" style="stroke: #000000; stroke-width: 0.4"/>
      </g>
     </g>
    </g>
    <g id="xtick_37">
     <g id="line2d_68">
      <g>
       <use xlink:href="#m35cfe7c5ce" x="234.442446" y="121.332274" style="stroke: #000000; stroke-width: 0.4"/>
      </g>
     </g>
    </g>
    <g id="xtick_38">
     <g id="line2d_69">
      <g>
       <use xlink:href="#m35cfe7c5ce" x="237.027495" y="121.332274" style="stroke: #000000; stroke-width: 0.4"/>
      </g>
     </g>
    </g>
    <g id="xtick_39">
     <g id="line2d_70">
      <g>
       <use xlink:href="#m35cfe7c5ce" x="239.266766" y="121.332274" style="stroke: #000000; stroke-width: 0.4"/>
      </g>
     </g>
    </g>
    <g id="xtick_40">
     <g id="line2d_71">
      <g>
       <use xlink:href="#m35cfe7c5ce" x="241.241942" y="121.332274" style="stroke: #000000; stroke-width: 0.4"/>
      </g>
     </g>
    </g>
    <g id="xtick_41">
     <g id="line2d_72">
      <g>
       <use xlink:href="#m35cfe7c5ce" x="254.632613" y="121.332274" style="stroke: #000000; stroke-width: 0.4"/>
      </g>
     </g>
    </g>
    <g id="xtick_42">
     <g id="line2d_73">
      <g>
       <use xlink:href="#m35cfe7c5ce" x="261.432109" y="121.332274" style="stroke: #000000; stroke-width: 0.4"/>
      </g>
     </g>
    </g>
    <g id="xtick_43">
     <g id="line2d_74">
      <g>
       <use xlink:href="#m35cfe7c5ce" x="266.256428" y="121.332274" style="stroke: #000000; stroke-width: 0.4"/>
      </g>
     </g>
    </g>
    <g id="xtick_44">
     <g id="line2d_75">
      <g>
       <use xlink:href="#m35cfe7c5ce" x="269.99846" y="121.332274" style="stroke: #000000; stroke-width: 0.4"/>
      </g>
     </g>
    </g>
    <g id="xtick_45">
     <g id="line2d_76">
      <g>
       <use xlink:href="#m35cfe7c5ce" x="273.055924" y="121.332274" style="stroke: #000000; stroke-width: 0.4"/>
      </g>
     </g>
    </g>
    <g id="xtick_46">
     <g id="line2d_77">
      <g>
       <use xlink:href="#m35cfe7c5ce" x="275.640972" y="121.332274" style="stroke: #000000; stroke-width: 0.4"/>
      </g>
     </g>
    </g>
    <g id="xtick_47">
     <g id="line2d_78">
      <g>
       <use xlink:href="#m35cfe7c5ce" x="277.880243" y="121.332274" style="stroke: #000000; stroke-width: 0.4"/>
      </g>
     </g>
    </g>
    <g id="xtick_48">
     <g id="line2d_79">
      <g>
       <use xlink:href="#m35cfe7c5ce" x="279.85542" y="121.332274" style="stroke: #000000; stroke-width: 0.4"/>
      </g>
     </g>
    </g>
    <g id="xtick_49">
     <g id="line2d_80">
      <g>
       <use xlink:href="#m35cfe7c5ce" x="293.24609" y="121.332274" style="stroke: #000000; stroke-width: 0.4"/>
      </g>
     </g>
    </g>
    <g id="xtick_50">
     <g id="line2d_81">
      <g>
       <use xlink:href="#m35cfe7c5ce" x="300.045586" y="121.332274" style="stroke: #000000; stroke-width: 0.4"/>
      </g>
     </g>
    </g>
    <g id="xtick_51">
     <g id="line2d_82">
      <g>
       <use xlink:href="#m35cfe7c5ce" x="304.869905" y="121.332274" style="stroke: #000000; stroke-width: 0.4"/>
      </g>
     </g>
    </g>
    <g id="xtick_52">
     <g id="line2d_83">
      <g>
       <use xlink:href="#m35cfe7c5ce" x="308.611938" y="121.332274" style="stroke: #000000; stroke-width: 0.4"/>
      </g>
     </g>
    </g>
    <g id="xtick_53">
     <g id="line2d_84">
      <g>
       <use xlink:href="#m35cfe7c5ce" x="311.669401" y="121.332274" style="stroke: #000000; stroke-width: 0.4"/>
      </g>
     </g>
    </g>
    <g id="xtick_54">
     <g id="line2d_85">
      <g>
       <use xlink:href="#m35cfe7c5ce" x="314.254449" y="121.332274" style="stroke: #000000; stroke-width: 0.4"/>
      </g>
     </g>
    </g>
    <g id="xtick_55">
     <g id="line2d_86">
      <g>
       <use xlink:href="#m35cfe7c5ce" x="316.49372" y="121.332274" style="stroke: #000000; stroke-width: 0.4"/>
      </g>
     </g>
    </g>
    <g id="xtick_56">
     <g id="line2d_87">
      <g>
       <use xlink:href="#m35cfe7c5ce" x="318.468897" y="121.332274" style="stroke: #000000; stroke-width: 0.4"/>
      </g>
     </g>
    </g>
    <g id="text_17">
     <!-- Sample Size N -->
     <g transform="translate(229.977412 140.926558) scale(0.09 -0.09)">
      <defs>
       <path id="DejaVuSans-6d" d="M 3328 2828 
Q 3544 3216 3844 3400 
Q 4144 3584 4550 3584 
Q 5097 3584 5394 3201 
Q 5691 2819 5691 2113 
L 5691 0 
L 5113 0 
L 5113 2094 
Q 5113 2597 4934 2840 
Q 4756 3084 4391 3084 
Q 3944 3084 3684 2787 
Q 3425 2491 3425 1978 
L 3425 0 
L 2847 0 
L 2847 2094 
Q 2847 2600 2669 2842 
Q 2491 3084 2119 3084 
Q 1678 3084 1418 2786 
Q 1159 2488 1159 1978 
L 1159 0 
L 581 0 
L 581 3500 
L 1159 3500 
L 1159 2956 
Q 1356 3278 1631 3431 
Q 1906 3584 2284 3584 
Q 2666 3584 2933 3390 
Q 3200 3197 3328 2828 
z
" transform="scale(0.015625)"/>
       <path id="DejaVuSans-6c" d="M 603 4863 
L 1178 4863 
L 1178 0 
L 603 0 
L 603 4863 
z
" transform="scale(0.015625)"/>
       <path id="DejaVuSans-20" transform="scale(0.015625)"/>
       <path id="DejaVuSans-7a" d="M 353 3500 
L 3084 3500 
L 3084 2975 
L 922 459 
L 3084 459 
L 3084 0 
L 275 0 
L 275 525 
L 2438 3041 
L 353 3041 
L 353 3500 
z
" transform="scale(0.015625)"/>
       <path id="DejaVuSans-4e" d="M 628 4666 
L 1478 4666 
L 3547 763 
L 3547 4666 
L 4159 4666 
L 4159 0 
L 3309 0 
L 1241 3903 
L 1241 0 
L 628 0 
L 628 4666 
z
" transform="scale(0.015625)"/>
      </defs>
      <use xlink:href="#DejaVuSans-53"/>
      <use xlink:href="#DejaVuSans-61" x="63.476562"/>
      <use xlink:href="#DejaVuSans-6d" x="124.755859"/>
      <use xlink:href="#DejaVuSans-70" x="222.167969"/>
      <use xlink:href="#DejaVuSans-6c" x="285.644531"/>
      <use xlink:href="#DejaVuSans-65" x="313.427734"/>
      <use xlink:href="#DejaVuSans-20" x="374.951172"/>
      <use xlink:href="#DejaVuSans-53" x="406.738281"/>
      <use xlink:href="#DejaVuSans-69" x="470.214844"/>
      <use xlink:href="#DejaVuSans-7a" x="497.998047"/>
      <use xlink:href="#DejaVuSans-65" x="550.488281"/>
      <use xlink:href="#DejaVuSans-20" x="612.011719"/>
      <use xlink:href="#DejaVuSans-4e" x="643.798828"/>
     </g>
    </g>
   </g>
   <g id="matplotlib.axis_4">
    <g id="ytick_31">
     <g id="line2d_88">
      <g>
       <use xlink:href="#m50595a4f32" x="204.395321" y="121.332274" style="stroke: #000000; stroke-width: 0.8"/>
      </g>
     </g>
     <g id="text_18">
      <!-- 1.0 -->
      <g transform="translate(182.190496 124.180549) scale(0.07497 -0.07497)">
       <defs>
        <path id="DejaVuSans-2e" d="M 684 794 
L 1344 794 
L 1344 0 
L 684 0 
L 684 794 
z
" transform="scale(0.015625)"/>
       </defs>
       <use xlink:href="#DejaVuSans-2212"/>
       <use xlink:href="#DejaVuSans-31" x="83.789062"/>
       <use xlink:href="#DejaVuSans-2e" x="147.412109"/>
       <use xlink:href="#DejaVuSans-30" x="179.199219"/>
      </g>
     </g>
    </g>
    <g id="ytick_32">
     <g id="line2d_89">
      <g>
       <use xlink:href="#m50595a4f32" x="204.395321" y="93.511274" style="stroke: #000000; stroke-width: 0.8"/>
      </g>
     </g>
     <g id="text_19">
      <!-- 0.5 -->
      <g transform="translate(182.190496 96.359549) scale(0.07497 -0.07497)">
       <defs>
        <path id="DejaVuSans-35" d="M 691 4666 
L 3169 4666 
L 3169 4134 
L 1269 4134 
L 1269 2991 
Q 1406 3038 1543 3061 
Q 1681 3084 1819 3084 
Q 2600 3084 3056 2656 
Q 3513 2228 3513 1497 
Q 3513 744 3044 326 
Q 2575 -91 1722 -91 
Q 1428 -91 1123 -41 
Q 819 9 494 109 
L 494 744 
Q 775 591 1075 516 
Q 1375 441 1709 441 
Q 2250 441 2565 725 
Q 2881 1009 2881 1497 
Q 2881 1984 2565 2268 
Q 2250 2553 1709 2553 
Q 1456 2553 1204 2497 
Q 953 2441 691 2322 
L 691 4666 
z
" transform="scale(0.015625)"/>
       </defs>
       <use xlink:href="#DejaVuSans-2212"/>
       <use xlink:href="#DejaVuSans-30" x="83.789062"/>
       <use xlink:href="#DejaVuSans-2e" x="147.412109"/>
       <use xlink:href="#DejaVuSans-35" x="179.199219"/>
      </g>
     </g>
    </g>
    <g id="ytick_33">
     <g id="line2d_90">
      <g>
       <use xlink:href="#m50595a4f32" x="204.395321" y="65.690274" style="stroke: #000000; stroke-width: 0.8"/>
      </g>
     </g>
     <g id="text_20">
      <!-- 0.0 -->
      <g transform="translate(188.472748 68.538549) scale(0.07497 -0.07497)">
       <use xlink:href="#DejaVuSans-30"/>
       <use xlink:href="#DejaVuSans-2e" x="63.623047"/>
       <use xlink:href="#DejaVuSans-30" x="95.410156"/>
      </g>
     </g>
    </g>
    <g id="ytick_34">
     <g id="line2d_91">
      <g>
       <use xlink:href="#m50595a4f32" x="204.395321" y="37.869274" style="stroke: #000000; stroke-width: 0.8"/>
      </g>
     </g>
     <g id="text_21">
      <!-- 0.5 -->
      <g transform="translate(188.472748 40.717549) scale(0.07497 -0.07497)">
       <use xlink:href="#DejaVuSans-30"/>
       <use xlink:href="#DejaVuSans-2e" x="63.623047"/>
       <use xlink:href="#DejaVuSans-35" x="95.410156"/>
      </g>
     </g>
    </g>
    <g id="ytick_35">
     <g id="line2d_92">
      <g>
       <use xlink:href="#m50595a4f32" x="204.395321" y="10.048274" style="stroke: #000000; stroke-width: 0.8"/>
      </g>
     </g>
     <g id="text_22">
      <!-- 1.0 -->
      <g transform="translate(188.472748 12.896549) scale(0.07497 -0.07497)">
       <use xlink:href="#DejaVuSans-31"/>
       <use xlink:href="#DejaVuSans-2e" x="63.623047"/>
       <use xlink:href="#DejaVuSans-30" x="95.410156"/>
      </g>
     </g>
    </g>
    <g id="text_23">
     <!-- Bias -->
     <g transform="translate(178.818778 75.129727) rotate(-90) scale(0.09 -0.09)">
      <defs>
       <path id="DejaVuSans-42" d="M 1259 2228 
L 1259 519 
L 2272 519 
Q 2781 519 3026 730 
Q 3272 941 3272 1375 
Q 3272 1813 3026 2020 
Q 2781 2228 2272 2228 
L 1259 2228 
z
M 1259 4147 
L 1259 2741 
L 2194 2741 
Q 2656 2741 2882 2914 
Q 3109 3088 3109 3444 
Q 3109 3797 2882 3972 
Q 2656 4147 2194 4147 
L 1259 4147 
z
M 628 4666 
L 2241 4666 
Q 2963 4666 3353 4366 
Q 3744 4066 3744 3513 
Q 3744 3084 3544 2831 
Q 3344 2578 2956 2516 
Q 3422 2416 3680 2098 
Q 3938 1781 3938 1306 
Q 3938 681 3513 340 
Q 3088 0 2303 0 
L 628 0 
L 628 4666 
z
" transform="scale(0.015625)"/>
       <path id="DejaVuSans-73" d="M 2834 3397 
L 2834 2853 
Q 2591 2978 2328 3040 
Q 2066 3103 1784 3103 
Q 1356 3103 1142 2972 
Q 928 2841 928 2578 
Q 928 2378 1081 2264 
Q 1234 2150 1697 2047 
L 1894 2003 
Q 2506 1872 2764 1633 
Q 3022 1394 3022 966 
Q 3022 478 2636 193 
Q 2250 -91 1575 -91 
Q 1294 -91 989 -36 
Q 684 19 347 128 
L 347 722 
Q 666 556 975 473 
Q 1284 391 1588 391 
Q 1994 391 2212 530 
Q 2431 669 2431 922 
Q 2431 1156 2273 1281 
Q 2116 1406 1581 1522 
L 1381 1569 
Q 847 1681 609 1914 
Q 372 2147 372 2553 
Q 372 3047 722 3315 
Q 1072 3584 1716 3584 
Q 2034 3584 2315 3537 
Q 2597 3491 2834 3397 
z
" transform="scale(0.015625)"/>
      </defs>
      <use xlink:href="#DejaVuSans-42"/>
      <use xlink:href="#DejaVuSans-69" x="68.603516"/>
      <use xlink:href="#DejaVuSans-61" x="96.386719"/>
      <use xlink:href="#DejaVuSans-73" x="157.666016"/>
     </g>
    </g>
   </g>
   <g id="patch_6">
    <path d="M 204.395321 121.332274 
L 204.395321 10.048274 
L 229.513967 10.048274 
L 229.513967 121.332274 
z
" clip-path="url(#p2d2fb7fcaa)" style="fill: #1f77b4; opacity: 0.2; stroke: #1f77b4; stroke-width: 0.8; stroke-linejoin: miter"/>
   </g>
   <g id="patch_7">
    <path d="M 229.513967 121.332274 
L 229.513967 10.048274 
L 281.622275 10.048274 
L 281.622275 121.332274 
z
" clip-path="url(#p2d2fb7fcaa)" style="fill: #ff7f0e; opacity: 0.2; stroke: #ff7f0e; stroke-width: 0.8; stroke-linejoin: miter"/>
   </g>
   <g id="patch_8">
    <path d="M 281.622275 121.332274 
L 281.622275 10.048274 
L 320.235753 10.048274 
L 320.235753 121.332274 
z
" clip-path="url(#p2d2fb7fcaa)" style="fill: #2ca02c; opacity: 0.2; stroke: #2ca02c; stroke-width: 0.8; stroke-linejoin: miter"/>
   </g>
   <g id="line2d_93">
    <path d="M 204.395321 65.690274 
L 320.235753 65.690274 
" clip-path="url(#p2d2fb7fcaa)" style="fill: none; stroke: #000000; stroke-width: 1.3; stroke-linecap: round"/>
   </g>
   <g id="line2d_94">
    <path d="M 204.395321 64.416162 
L 210.037832 68.781136 
L 216.019136 67.26641 
L 222.250115 64.93589 
L 228.461143 64.848037 
L 234.719637 66.275934 
L 240.865081 65.317646 
L 247.017021 65.16988 
L 253.142947 64.63867 
L 259.22475 64.984257 
L 265.35207 65.447986 
L 271.443628 65.251221 
L 277.541451 65.776654 
L 283.642112 66.008185 
L 289.743405 65.774075 
L 295.843113 65.943418 
L 301.941073 65.692069 
L 308.038795 65.615125 
L 314.136649 65.643921 
L 320.235753 65.705741 
" clip-path="url(#p2d2fb7fcaa)" style="fill: none; stroke: #1f77b4; stroke-width: 2; stroke-linecap: round"/>
   </g>
   <g id="line2d_95">
    <path d="M 208.038544 -1 
L 210.037832 11.33512 
L 216.019136 32.342507 
L 222.250115 43.354416 
L 228.461143 51.282753 
L 234.719637 57.780676 
L 240.865081 59.742058 
L 247.017021 61.522503 
L 253.142947 62.237345 
L 259.22475 63.347516 
L 265.35207 64.328598 
L 271.443628 64.492793 
L 277.541451 65.25141 
L 283.642112 65.645862 
L 289.743405 65.523904 
L 295.843113 65.770432 
L 301.941073 65.57208 
L 308.038795 65.531874 
L 314.136649 65.586066 
L 320.235753 65.665548 
" clip-path="url(#p2d2fb7fcaa)" style="fill: none; stroke: #ff7f0e; stroke-linecap: round"/>
   </g>
   <g id="line2d_96">
    <path d="M 204.395321 71.936562 
L 210.037832 71.372649 
L 216.019136 68.557499 
L 222.250115 65.188619 
L 228.461143 64.555598 
L 234.719637 65.836036 
L 240.865081 64.887857 
L 247.017021 64.827696 
L 253.142947 64.396239 
L 259.22475 64.791386 
L 265.35207 65.300522 
L 271.443628 65.150454 
L 277.541451 65.701467 
L 283.642112 65.954619 
L 289.743405 65.736978 
L 295.843113 65.917393 
L 301.941073 65.674049 
L 308.038795 65.602599 
L 314.136649 65.635154 
L 320.235753 65.699614 
" clip-path="url(#p2d2fb7fcaa)" style="fill: none; stroke: #2ca02c; stroke-linecap: round"/>
   </g>
   <g id="line2d_97"/>
   <g id="patch_9">
    <path d="M 204.395321 121.332274 
L 204.395321 10.048274 
" style="fill: none; stroke: #000000; stroke-linejoin: miter; stroke-linecap: square"/>
   </g>
   <g id="patch_10">
    <path d="M 204.395321 121.332274 
L 320.235753 121.332274 
" style="fill: none; stroke: #000000; stroke-linejoin: miter; stroke-linecap: square"/>
   </g>
   <g id="text_24">
    <!-- B -->
    <g transform="translate(171.96 17.999708) scale(0.09 -0.09)">
     <defs>
      <path id="DejaVuSans-Bold-42" d="M 2456 2859 
Q 2741 2859 2887 2984 
Q 3034 3109 3034 3353 
Q 3034 3594 2887 3720 
Q 2741 3847 2456 3847 
L 1791 3847 
L 1791 2859 
L 2456 2859 
z
M 2497 819 
Q 2859 819 3042 972 
Q 3225 1125 3225 1434 
Q 3225 1738 3044 1889 
Q 2863 2041 2497 2041 
L 1791 2041 
L 1791 819 
L 2497 819 
z
M 3616 2497 
Q 4003 2384 4215 2081 
Q 4428 1778 4428 1338 
Q 4428 663 3972 331 
Q 3516 0 2584 0 
L 588 0 
L 588 4666 
L 2394 4666 
Q 3366 4666 3802 4372 
Q 4238 4078 4238 3431 
Q 4238 3091 4078 2852 
Q 3919 2613 3616 2497 
z
" transform="scale(0.015625)"/>
     </defs>
     <use xlink:href="#DejaVuSans-Bold-42"/>
    </g>
   </g>
   <g id="legend_1">
    <g id="patch_11">
     <path d="M 225.898584 119.082274 
L 298.73249 119.082274 
Q 300.53249 119.082274 300.53249 117.282274 
L 300.53249 72.091024 
Q 300.53249 70.291024 298.73249 70.291024 
L 225.898584 70.291024 
Q 224.098584 70.291024 224.098584 72.091024 
L 224.098584 117.282274 
Q 224.098584 119.082274 225.898584 119.082274 
z
" style="fill: #ffffff; opacity: 0.8; stroke: #cccccc; stroke-width: 0.8; stroke-linejoin: miter"/>
    </g>
    <g id="line2d_98">
     <path d="M 227.698584 77.579618 
L 233.323584 77.579618 
L 238.948584 77.579618 
" style="fill: none; stroke: #1f77b4; stroke-width: 2; stroke-linecap: round"/>
    </g>
    <g id="text_25">
     <!-- Unbiased -->
     <g transform="translate(243.448584 80.729618) scale(0.09 -0.09)">
      <defs>
       <path id="DejaVuSans-55" d="M 556 4666 
L 1191 4666 
L 1191 1831 
Q 1191 1081 1462 751 
Q 1734 422 2344 422 
Q 2950 422 3222 751 
Q 3494 1081 3494 1831 
L 3494 4666 
L 4128 4666 
L 4128 1753 
Q 4128 841 3676 375 
Q 3225 -91 2344 -91 
Q 1459 -91 1007 375 
Q 556 841 556 1753 
L 556 4666 
z
" transform="scale(0.015625)"/>
       <path id="DejaVuSans-62" d="M 3116 1747 
Q 3116 2381 2855 2742 
Q 2594 3103 2138 3103 
Q 1681 3103 1420 2742 
Q 1159 2381 1159 1747 
Q 1159 1113 1420 752 
Q 1681 391 2138 391 
Q 2594 391 2855 752 
Q 3116 1113 3116 1747 
z
M 1159 2969 
Q 1341 3281 1617 3432 
Q 1894 3584 2278 3584 
Q 2916 3584 3314 3078 
Q 3713 2572 3713 1747 
Q 3713 922 3314 415 
Q 2916 -91 2278 -91 
Q 1894 -91 1617 61 
Q 1341 213 1159 525 
L 1159 0 
L 581 0 
L 581 4863 
L 1159 4863 
L 1159 2969 
z
" transform="scale(0.015625)"/>
       <path id="DejaVuSans-64" d="M 2906 2969 
L 2906 4863 
L 3481 4863 
L 3481 0 
L 2906 0 
L 2906 525 
Q 2725 213 2448 61 
Q 2172 -91 1784 -91 
Q 1150 -91 751 415 
Q 353 922 353 1747 
Q 353 2572 751 3078 
Q 1150 3584 1784 3584 
Q 2172 3584 2448 3432 
Q 2725 3281 2906 2969 
z
M 947 1747 
Q 947 1113 1208 752 
Q 1469 391 1925 391 
Q 2381 391 2643 752 
Q 2906 1113 2906 1747 
Q 2906 2381 2643 2742 
Q 2381 3103 1925 3103 
Q 1469 3103 1208 2742 
Q 947 2381 947 1747 
z
" transform="scale(0.015625)"/>
      </defs>
      <use xlink:href="#DejaVuSans-55"/>
      <use xlink:href="#DejaVuSans-6e" x="73.193359"/>
      <use xlink:href="#DejaVuSans-62" x="136.572266"/>
      <use xlink:href="#DejaVuSans-69" x="200.048828"/>
      <use xlink:href="#DejaVuSans-61" x="227.832031"/>
      <use xlink:href="#DejaVuSans-73" x="289.111328"/>
      <use xlink:href="#DejaVuSans-65" x="341.210938"/>
      <use xlink:href="#DejaVuSans-64" x="402.734375"/>
     </g>
    </g>
    <g id="line2d_99">
     <path d="M 227.698584 88.539931 
L 233.323584 88.539931 
L 238.948584 88.539931 
" style="fill: none; stroke: #ff7f0e; stroke-linecap: round"/>
    </g>
    <g id="text_26">
     <!-- Plugin -->
     <g transform="translate(243.448584 91.689931) scale(0.09 -0.09)">
      <defs>
       <path id="DejaVuSans-50" d="M 1259 4147 
L 1259 2394 
L 2053 2394 
Q 2494 2394 2734 2622 
Q 2975 2850 2975 3272 
Q 2975 3691 2734 3919 
Q 2494 4147 2053 4147 
L 1259 4147 
z
M 628 4666 
L 2053 4666 
Q 2838 4666 3239 4311 
Q 3641 3956 3641 3272 
Q 3641 2581 3239 2228 
Q 2838 1875 2053 1875 
L 1259 1875 
L 1259 0 
L 628 0 
L 628 4666 
z
" transform="scale(0.015625)"/>
       <path id="DejaVuSans-67" d="M 2906 1791 
Q 2906 2416 2648 2759 
Q 2391 3103 1925 3103 
Q 1463 3103 1205 2759 
Q 947 2416 947 1791 
Q 947 1169 1205 825 
Q 1463 481 1925 481 
Q 2391 481 2648 825 
Q 2906 1169 2906 1791 
z
M 3481 434 
Q 3481 -459 3084 -895 
Q 2688 -1331 1869 -1331 
Q 1566 -1331 1297 -1286 
Q 1028 -1241 775 -1147 
L 775 -588 
Q 1028 -725 1275 -790 
Q 1522 -856 1778 -856 
Q 2344 -856 2625 -561 
Q 2906 -266 2906 331 
L 2906 616 
Q 2728 306 2450 153 
Q 2172 0 1784 0 
Q 1141 0 747 490 
Q 353 981 353 1791 
Q 353 2603 747 3093 
Q 1141 3584 1784 3584 
Q 2172 3584 2450 3431 
Q 2728 3278 2906 2969 
L 2906 3500 
L 3481 3500 
L 3481 434 
z
" transform="scale(0.015625)"/>
      </defs>
      <use xlink:href="#DejaVuSans-50"/>
      <use xlink:href="#DejaVuSans-6c" x="60.302734"/>
      <use xlink:href="#DejaVuSans-75" x="88.085938"/>
      <use xlink:href="#DejaVuSans-67" x="151.464844"/>
      <use xlink:href="#DejaVuSans-69" x="214.941406"/>
      <use xlink:href="#DejaVuSans-6e" x="242.724609"/>
     </g>
    </g>
    <g id="line2d_100">
     <path d="M 227.698584 99.500243 
L 233.323584 99.500243 
L 238.948584 99.500243 
" style="fill: none; stroke: #2ca02c; stroke-linecap: round"/>
    </g>
    <g id="text_27">
     <!-- Grundmann -->
     <g transform="translate(243.448584 102.650243) scale(0.09 -0.09)">
      <defs>
       <path id="DejaVuSans-47" d="M 3809 666 
L 3809 1919 
L 2778 1919 
L 2778 2438 
L 4434 2438 
L 4434 434 
Q 4069 175 3628 42 
Q 3188 -91 2688 -91 
Q 1594 -91 976 548 
Q 359 1188 359 2328 
Q 359 3472 976 4111 
Q 1594 4750 2688 4750 
Q 3144 4750 3555 4637 
Q 3966 4525 4313 4306 
L 4313 3634 
Q 3963 3931 3569 4081 
Q 3175 4231 2741 4231 
Q 1884 4231 1454 3753 
Q 1025 3275 1025 2328 
Q 1025 1384 1454 906 
Q 1884 428 2741 428 
Q 3075 428 3337 486 
Q 3600 544 3809 666 
z
" transform="scale(0.015625)"/>
      </defs>
      <use xlink:href="#DejaVuSans-47"/>
      <use xlink:href="#DejaVuSans-72" x="77.490234"/>
      <use xlink:href="#DejaVuSans-75" x="118.603516"/>
      <use xlink:href="#DejaVuSans-6e" x="181.982422"/>
      <use xlink:href="#DejaVuSans-64" x="245.361328"/>
      <use xlink:href="#DejaVuSans-6d" x="308.837891"/>
      <use xlink:href="#DejaVuSans-61" x="406.25"/>
      <use xlink:href="#DejaVuSans-6e" x="467.529297"/>
      <use xlink:href="#DejaVuSans-6e" x="530.908203"/>
     </g>
    </g>
    <g id="line2d_101">
     <path d="M 227.698584 110.460556 
L 233.323584 110.460556 
L 238.948584 110.460556 
" style="fill: none; stroke: #d62728; stroke-linecap: round"/>
    </g>
    <g id="text_28">
     <!-- Chao -->
     <g transform="translate(243.448584 113.610556) scale(0.09 -0.09)">
      <defs>
       <path id="DejaVuSans-43" d="M 4122 4306 
L 4122 3641 
Q 3803 3938 3442 4084 
Q 3081 4231 2675 4231 
Q 1875 4231 1450 3742 
Q 1025 3253 1025 2328 
Q 1025 1406 1450 917 
Q 1875 428 2675 428 
Q 3081 428 3442 575 
Q 3803 722 4122 1019 
L 4122 359 
Q 3791 134 3420 21 
Q 3050 -91 2638 -91 
Q 1578 -91 968 557 
Q 359 1206 359 2328 
Q 359 3453 968 4101 
Q 1578 4750 2638 4750 
Q 3056 4750 3426 4639 
Q 3797 4528 4122 4306 
z
" transform="scale(0.015625)"/>
       <path id="DejaVuSans-68" d="M 3513 2113 
L 3513 0 
L 2938 0 
L 2938 2094 
Q 2938 2591 2744 2837 
Q 2550 3084 2163 3084 
Q 1697 3084 1428 2787 
Q 1159 2491 1159 1978 
L 1159 0 
L 581 0 
L 581 4863 
L 1159 4863 
L 1159 2956 
Q 1366 3272 1645 3428 
Q 1925 3584 2291 3584 
Q 2894 3584 3203 3211 
Q 3513 2838 3513 2113 
z
" transform="scale(0.015625)"/>
       <path id="DejaVuSans-6f" d="M 1959 3097 
Q 1497 3097 1228 2736 
Q 959 2375 959 1747 
Q 959 1119 1226 758 
Q 1494 397 1959 397 
Q 2419 397 2687 759 
Q 2956 1122 2956 1747 
Q 2956 2369 2687 2733 
Q 2419 3097 1959 3097 
z
M 1959 3584 
Q 2709 3584 3137 3096 
Q 3566 2609 3566 1747 
Q 3566 888 3137 398 
Q 2709 -91 1959 -91 
Q 1206 -91 779 398 
Q 353 888 353 1747 
Q 353 2609 779 3096 
Q 1206 3584 1959 3584 
z
" transform="scale(0.015625)"/>
      </defs>
      <use xlink:href="#DejaVuSans-43"/>
      <use xlink:href="#DejaVuSans-68" x="69.824219"/>
      <use xlink:href="#DejaVuSans-61" x="133.203125"/>
      <use xlink:href="#DejaVuSans-6f" x="194.482422"/>
     </g>
    </g>
   </g>
  </g>
  <g id="axes_3">
   <g id="patch_12">
    <path d="M 369.155321 121.332274 
L 484.995753 121.332274 
L 484.995753 10.048274 
L 369.155321 10.048274 
z
" style="fill: #ffffff"/>
   </g>
   <g id="matplotlib.axis_5">
    <g id="xtick_57">
     <g id="line2d_102">
      <g>
       <use xlink:href="#m8fe8fd69d9" x="369.155321" y="121.332274" style="stroke: #000000; stroke-width: 0.8"/>
      </g>
     </g>
     <g id="text_29">
      <!-- $\mathdefault{10^{1}}$ -->
      <g transform="translate(362.557961 131.028823) scale(0.07497 -0.07497)">
       <use xlink:href="#DejaVuSans-31" transform="translate(0 0.684375)"/>
       <use xlink:href="#DejaVuSans-30" transform="translate(63.623047 0.684375)"/>
       <use xlink:href="#DejaVuSans-31" transform="translate(128.203125 38.965625) scale(0.7)"/>
      </g>
     </g>
    </g>
    <g id="xtick_58">
     <g id="line2d_103">
      <g>
       <use xlink:href="#m8fe8fd69d9" x="407.768798" y="121.332274" style="stroke: #000000; stroke-width: 0.8"/>
      </g>
     </g>
     <g id="text_30">
      <!-- $\mathdefault{10^{2}}$ -->
      <g transform="translate(401.171438 131.028823) scale(0.07497 -0.07497)">
       <use xlink:href="#DejaVuSans-31" transform="translate(0 0.765625)"/>
       <use xlink:href="#DejaVuSans-30" transform="translate(63.623047 0.765625)"/>
       <use xlink:href="#DejaVuSans-32" transform="translate(128.203125 39.046875) scale(0.7)"/>
      </g>
     </g>
    </g>
    <g id="xtick_59">
     <g id="line2d_104">
      <g>
       <use xlink:href="#m8fe8fd69d9" x="446.382275" y="121.332274" style="stroke: #000000; stroke-width: 0.8"/>
      </g>
     </g>
     <g id="text_31">
      <!-- $\mathdefault{10^{3}}$ -->
      <g transform="translate(439.784915 131.028823) scale(0.07497 -0.07497)">
       <use xlink:href="#DejaVuSans-31" transform="translate(0 0.765625)"/>
       <use xlink:href="#DejaVuSans-30" transform="translate(63.623047 0.765625)"/>
       <use xlink:href="#DejaVuSans-33" transform="translate(128.203125 39.046875) scale(0.7)"/>
      </g>
     </g>
    </g>
    <g id="xtick_60">
     <g id="line2d_105">
      <g>
       <use xlink:href="#m8fe8fd69d9" x="484.995753" y="121.332274" style="stroke: #000000; stroke-width: 0.8"/>
      </g>
     </g>
     <g id="text_32">
      <!-- $\mathdefault{10^{4}}$ -->
      <g transform="translate(478.398393 131.028823) scale(0.07497 -0.07497)">
       <use xlink:href="#DejaVuSans-31" transform="translate(0 0.684375)"/>
       <use xlink:href="#DejaVuSans-30" transform="translate(63.623047 0.684375)"/>
       <use xlink:href="#DejaVuSans-34" transform="translate(128.203125 38.965625) scale(0.7)"/>
      </g>
     </g>
    </g>
    <g id="xtick_61">
     <g id="line2d_106">
      <g>
       <use xlink:href="#m35cfe7c5ce" x="380.779136" y="121.332274" style="stroke: #000000; stroke-width: 0.4"/>
      </g>
     </g>
    </g>
    <g id="xtick_62">
     <g id="line2d_107">
      <g>
       <use xlink:href="#m35cfe7c5ce" x="387.578632" y="121.332274" style="stroke: #000000; stroke-width: 0.4"/>
      </g>
     </g>
    </g>
    <g id="xtick_63">
     <g id="line2d_108">
      <g>
       <use xlink:href="#m35cfe7c5ce" x="392.402951" y="121.332274" style="stroke: #000000; stroke-width: 0.4"/>
      </g>
     </g>
    </g>
    <g id="xtick_64">
     <g id="line2d_109">
      <g>
       <use xlink:href="#m35cfe7c5ce" x="396.144983" y="121.332274" style="stroke: #000000; stroke-width: 0.4"/>
      </g>
     </g>
    </g>
    <g id="xtick_65">
     <g id="line2d_110">
      <g>
       <use xlink:href="#m35cfe7c5ce" x="399.202446" y="121.332274" style="stroke: #000000; stroke-width: 0.4"/>
      </g>
     </g>
    </g>
    <g id="xtick_66">
     <g id="line2d_111">
      <g>
       <use xlink:href="#m35cfe7c5ce" x="401.787495" y="121.332274" style="stroke: #000000; stroke-width: 0.4"/>
      </g>
     </g>
    </g>
    <g id="xtick_67">
     <g id="line2d_112">
      <g>
       <use xlink:href="#m35cfe7c5ce" x="404.026766" y="121.332274" style="stroke: #000000; stroke-width: 0.4"/>
      </g>
     </g>
    </g>
    <g id="xtick_68">
     <g id="line2d_113">
      <g>
       <use xlink:href="#m35cfe7c5ce" x="406.001942" y="121.332274" style="stroke: #000000; stroke-width: 0.4"/>
      </g>
     </g>
    </g>
    <g id="xtick_69">
     <g id="line2d_114">
      <g>
       <use xlink:href="#m35cfe7c5ce" x="419.392613" y="121.332274" style="stroke: #000000; stroke-width: 0.4"/>
      </g>
     </g>
    </g>
    <g id="xtick_70">
     <g id="line2d_115">
      <g>
       <use xlink:href="#m35cfe7c5ce" x="426.192109" y="121.332274" style="stroke: #000000; stroke-width: 0.4"/>
      </g>
     </g>
    </g>
    <g id="xtick_71">
     <g id="line2d_116">
      <g>
       <use xlink:href="#m35cfe7c5ce" x="431.016428" y="121.332274" style="stroke: #000000; stroke-width: 0.4"/>
      </g>
     </g>
    </g>
    <g id="xtick_72">
     <g id="line2d_117">
      <g>
       <use xlink:href="#m35cfe7c5ce" x="434.75846" y="121.332274" style="stroke: #000000; stroke-width: 0.4"/>
      </g>
     </g>
    </g>
    <g id="xtick_73">
     <g id="line2d_118">
      <g>
       <use xlink:href="#m35cfe7c5ce" x="437.815924" y="121.332274" style="stroke: #000000; stroke-width: 0.4"/>
      </g>
     </g>
    </g>
    <g id="xtick_74">
     <g id="line2d_119">
      <g>
       <use xlink:href="#m35cfe7c5ce" x="440.400972" y="121.332274" style="stroke: #000000; stroke-width: 0.4"/>
      </g>
     </g>
    </g>
    <g id="xtick_75">
     <g id="line2d_120">
      <g>
       <use xlink:href="#m35cfe7c5ce" x="442.640243" y="121.332274" style="stroke: #000000; stroke-width: 0.4"/>
      </g>
     </g>
    </g>
    <g id="xtick_76">
     <g id="line2d_121">
      <g>
       <use xlink:href="#m35cfe7c5ce" x="444.61542" y="121.332274" style="stroke: #000000; stroke-width: 0.4"/>
      </g>
     </g>
    </g>
    <g id="xtick_77">
     <g id="line2d_122">
      <g>
       <use xlink:href="#m35cfe7c5ce" x="458.00609" y="121.332274" style="stroke: #000000; stroke-width: 0.4"/>
      </g>
     </g>
    </g>
    <g id="xtick_78">
     <g id="line2d_123">
      <g>
       <use xlink:href="#m35cfe7c5ce" x="464.805586" y="121.332274" style="stroke: #000000; stroke-width: 0.4"/>
      </g>
     </g>
    </g>
    <g id="xtick_79">
     <g id="line2d_124">
      <g>
       <use xlink:href="#m35cfe7c5ce" x="469.629905" y="121.332274" style="stroke: #000000; stroke-width: 0.4"/>
      </g>
     </g>
    </g>
    <g id="xtick_80">
     <g id="line2d_125">
      <g>
       <use xlink:href="#m35cfe7c5ce" x="473.371938" y="121.332274" style="stroke: #000000; stroke-width: 0.4"/>
      </g>
     </g>
    </g>
    <g id="xtick_81">
     <g id="line2d_126">
      <g>
       <use xlink:href="#m35cfe7c5ce" x="476.429401" y="121.332274" style="stroke: #000000; stroke-width: 0.4"/>
      </g>
     </g>
    </g>
    <g id="xtick_82">
     <g id="line2d_127">
      <g>
       <use xlink:href="#m35cfe7c5ce" x="479.014449" y="121.332274" style="stroke: #000000; stroke-width: 0.4"/>
      </g>
     </g>
    </g>
    <g id="xtick_83">
     <g id="line2d_128">
      <g>
       <use xlink:href="#m35cfe7c5ce" x="481.25372" y="121.332274" style="stroke: #000000; stroke-width: 0.4"/>
      </g>
     </g>
    </g>
    <g id="xtick_84">
     <g id="line2d_129">
      <g>
       <use xlink:href="#m35cfe7c5ce" x="483.228897" y="121.332274" style="stroke: #000000; stroke-width: 0.4"/>
      </g>
     </g>
    </g>
    <g id="text_33">
     <!-- Sample Size N -->
     <g transform="translate(394.737412 140.926558) scale(0.09 -0.09)">
      <use xlink:href="#DejaVuSans-53"/>
      <use xlink:href="#DejaVuSans-61" x="63.476562"/>
      <use xlink:href="#DejaVuSans-6d" x="124.755859"/>
      <use xlink:href="#DejaVuSans-70" x="222.167969"/>
      <use xlink:href="#DejaVuSans-6c" x="285.644531"/>
      <use xlink:href="#DejaVuSans-65" x="313.427734"/>
      <use xlink:href="#DejaVuSans-20" x="374.951172"/>
      <use xlink:href="#DejaVuSans-53" x="406.738281"/>
      <use xlink:href="#DejaVuSans-69" x="470.214844"/>
      <use xlink:href="#DejaVuSans-7a" x="497.998047"/>
      <use xlink:href="#DejaVuSans-65" x="550.488281"/>
      <use xlink:href="#DejaVuSans-20" x="612.011719"/>
      <use xlink:href="#DejaVuSans-4e" x="643.798828"/>
     </g>
    </g>
   </g>
   <g id="matplotlib.axis_6">
    <g id="ytick_36">
     <g id="line2d_130">
      <g>
       <use xlink:href="#m50595a4f32" x="369.155321" y="121.332274" style="stroke: #000000; stroke-width: 0.8"/>
      </g>
     </g>
     <g id="text_34">
      <!-- 0.0 -->
      <g transform="translate(353.232748 124.180549) scale(0.07497 -0.07497)">
       <use xlink:href="#DejaVuSans-30"/>
       <use xlink:href="#DejaVuSans-2e" x="63.623047"/>
       <use xlink:href="#DejaVuSans-30" x="95.410156"/>
      </g>
     </g>
    </g>
    <g id="ytick_37">
     <g id="line2d_131">
      <g>
       <use xlink:href="#m50595a4f32" x="369.155321" y="93.511274" style="stroke: #000000; stroke-width: 0.8"/>
      </g>
     </g>
     <g id="text_35">
      <!-- 0.5 -->
      <g transform="translate(353.232748 96.359549) scale(0.07497 -0.07497)">
       <use xlink:href="#DejaVuSans-30"/>
       <use xlink:href="#DejaVuSans-2e" x="63.623047"/>
       <use xlink:href="#DejaVuSans-35" x="95.410156"/>
      </g>
     </g>
    </g>
    <g id="ytick_38">
     <g id="line2d_132">
      <g>
       <use xlink:href="#m50595a4f32" x="369.155321" y="65.690274" style="stroke: #000000; stroke-width: 0.8"/>
      </g>
     </g>
     <g id="text_36">
      <!-- 1.0 -->
      <g transform="translate(353.232748 68.538549) scale(0.07497 -0.07497)">
       <use xlink:href="#DejaVuSans-31"/>
       <use xlink:href="#DejaVuSans-2e" x="63.623047"/>
       <use xlink:href="#DejaVuSans-30" x="95.410156"/>
      </g>
     </g>
    </g>
    <g id="ytick_39">
     <g id="line2d_133">
      <g>
       <use xlink:href="#m50595a4f32" x="369.155321" y="37.869274" style="stroke: #000000; stroke-width: 0.8"/>
      </g>
     </g>
     <g id="text_37">
      <!-- 1.5 -->
      <g transform="translate(353.232748 40.717549) scale(0.07497 -0.07497)">
       <use xlink:href="#DejaVuSans-31"/>
       <use xlink:href="#DejaVuSans-2e" x="63.623047"/>
       <use xlink:href="#DejaVuSans-35" x="95.410156"/>
      </g>
     </g>
    </g>
    <g id="ytick_40">
     <g id="line2d_134">
      <g>
       <use xlink:href="#m50595a4f32" x="369.155321" y="10.048274" style="stroke: #000000; stroke-width: 0.8"/>
      </g>
     </g>
     <g id="text_38">
      <!-- 2.0 -->
      <g transform="translate(353.232748 12.896549) scale(0.07497 -0.07497)">
       <use xlink:href="#DejaVuSans-32"/>
       <use xlink:href="#DejaVuSans-2e" x="63.623047"/>
       <use xlink:href="#DejaVuSans-30" x="95.410156"/>
      </g>
     </g>
    </g>
    <g id="text_39">
     <!-- Variance -->
     <g transform="translate(349.861029 85.130274) rotate(-90) scale(0.09 -0.09)">
      <defs>
       <path id="DejaVuSans-56" d="M 1831 0 
L 50 4666 
L 709 4666 
L 2188 738 
L 3669 4666 
L 4325 4666 
L 2547 0 
L 1831 0 
z
" transform="scale(0.015625)"/>
      </defs>
      <use xlink:href="#DejaVuSans-56"/>
      <use xlink:href="#DejaVuSans-61" x="60.658203"/>
      <use xlink:href="#DejaVuSans-72" x="121.9375"/>
      <use xlink:href="#DejaVuSans-69" x="163.050781"/>
      <use xlink:href="#DejaVuSans-61" x="190.833984"/>
      <use xlink:href="#DejaVuSans-6e" x="252.113281"/>
      <use xlink:href="#DejaVuSans-63" x="315.492188"/>
      <use xlink:href="#DejaVuSans-65" x="370.472656"/>
     </g>
    </g>
   </g>
   <g id="patch_13">
    <path d="M 369.155321 121.332274 
L 369.155321 10.048274 
L 394.273967 10.048274 
L 394.273967 121.332274 
z
" clip-path="url(#p878912489f)" style="fill: #1f77b4; opacity: 0.2; stroke: #1f77b4; stroke-width: 0.8; stroke-linejoin: miter"/>
   </g>
   <g id="patch_14">
    <path d="M 394.273967 121.332274 
L 394.273967 10.048274 
L 446.382275 10.048274 
L 446.382275 121.332274 
z
" clip-path="url(#p878912489f)" style="fill: #ff7f0e; opacity: 0.2; stroke: #ff7f0e; stroke-width: 0.8; stroke-linejoin: miter"/>
   </g>
   <g id="patch_15">
    <path d="M 446.382275 121.332274 
L 446.382275 10.048274 
L 484.995753 10.048274 
L 484.995753 121.332274 
z
" clip-path="url(#p878912489f)" style="fill: #2ca02c; opacity: 0.2; stroke: #2ca02c; stroke-width: 0.8; stroke-linejoin: miter"/>
   </g>
   <g id="line2d_135">
    <path d="M 385.59336 -1 
L 387.010115 12.234264 
L 393.221143 61.955018 
L 399.479637 79.639984 
L 405.625081 91.878562 
L 411.777021 100.501048 
L 417.902947 106.356296 
L 423.98475 112.184049 
L 430.11207 115.052934 
L 436.203628 116.882498 
L 442.301451 118.018395 
L 448.402112 119.366306 
L 454.503405 120.003946 
L 460.603113 120.316248 
L 466.701073 120.617942 
L 472.798795 120.852842 
L 478.896649 120.964163 
L 484.995753 121.093983 
" clip-path="url(#p878912489f)" style="fill: none; stroke: #1f77b4; stroke-width: 2; stroke-linecap: round"/>
   </g>
   <g id="line2d_136">
    <path d="M 374.395999 -1 
L 374.797832 3.560868 
L 377.900706 -1 
M 381.575925 -1 
L 387.010115 27.855638 
L 393.221143 66.492266 
L 399.479637 81.532534 
L 405.625081 92.817096 
L 411.777021 100.895199 
L 417.902947 106.569373 
L 423.98475 112.260265 
L 430.11207 115.083495 
L 436.203628 116.898065 
L 442.301451 118.026986 
L 448.402112 119.369637 
L 454.503405 120.005332 
L 460.603113 120.316936 
L 466.701073 120.618277 
L 472.798795 120.853041 
L 478.896649 120.964251 
L 484.995753 121.094025 
" clip-path="url(#p878912489f)" style="fill: none; stroke: #ff7f0e; stroke-linecap: round"/>
   </g>
   <g id="line2d_137">
    <path d="M 372.074781 -1 
L 374.797832 25.049777 
L 380.779136 8.451848 
L 387.010115 36.37869 
L 393.221143 70.648477 
L 399.479637 83.788063 
L 405.625081 93.947547 
L 411.777021 101.493044 
L 417.902947 106.863205 
L 423.98475 112.393501 
L 430.11207 115.150211 
L 436.203628 116.930815 
L 442.301451 118.043719 
L 448.402112 119.376656 
L 454.503405 120.008721 
L 460.603113 120.318764 
L 466.701073 120.619171 
L 472.798795 120.853437 
L 478.896649 120.964472 
L 484.995753 121.094123 
" clip-path="url(#p878912489f)" style="fill: none; stroke: #2ca02c; stroke-linecap: round"/>
   </g>
   <g id="line2d_138"/>
   <g id="patch_16">
    <path d="M 369.155321 121.332274 
L 369.155321 10.048274 
" style="fill: none; stroke: #000000; stroke-linejoin: miter; stroke-linecap: square"/>
   </g>
   <g id="patch_17">
    <path d="M 369.155321 121.332274 
L 484.995753 121.332274 
" style="fill: none; stroke: #000000; stroke-linejoin: miter; stroke-linecap: square"/>
   </g>
   <g id="text_40">
    <!-- C -->
    <g transform="translate(336.72 17.999708) scale(0.09 -0.09)">
     <defs>
      <path id="DejaVuSans-Bold-43" d="M 4288 256 
Q 3956 84 3597 -3 
Q 3238 -91 2847 -91 
Q 1681 -91 1000 561 
Q 319 1213 319 2328 
Q 319 3447 1000 4098 
Q 1681 4750 2847 4750 
Q 3238 4750 3597 4662 
Q 3956 4575 4288 4403 
L 4288 3438 
Q 3953 3666 3628 3772 
Q 3303 3878 2944 3878 
Q 2300 3878 1931 3465 
Q 1563 3053 1563 2328 
Q 1563 1606 1931 1193 
Q 2300 781 2944 781 
Q 3303 781 3628 887 
Q 3953 994 4288 1222 
L 4288 256 
z
" transform="scale(0.015625)"/>
     </defs>
     <use xlink:href="#DejaVuSans-Bold-43"/>
    </g>
   </g>
  </g>
 </g>
 <defs>
  <clipPath id="p6289a2230e">
   <rect x="39.635321" y="10.048274" width="115.840432" height="111.284"/>
  </clipPath>
  <clipPath id="p2d2fb7fcaa">
   <rect x="204.395321" y="10.048274" width="115.840432" height="111.284"/>
  </clipPath>
  <clipPath id="p878912489f">
   <rect x="369.155321" y="10.048274" width="115.840432" height="111.284"/>
  </clipPath>
 </defs>
</svg>
