<?xml version="1.0" encoding="utf-8" standalone="no"?>
<!DOCTYPE svg PUBLIC "-//W3C//DTD SVG 1.1//EN"
  "http://www.w3.org/Graphics/SVG/1.1/DTD/svg11.dtd">
<svg xmlns:xlink="http://www.w3.org/1999/xlink" width="498.793113pt" height="149.998277pt" viewBox="0 0 498.793113 149.998277" xmlns="http://www.w3.org/2000/svg" version="1.1">
 <metadata>
  <rdf:RDF xmlns:dc="http://purl.org/dc/elements/1.1/" xmlns:cc="http://creativecommons.org/ns#" xmlns:rdf="http://www.w3.org/1999/02/22-rdf-syntax-ns#">
   <cc:Work>
    <dc:type rdf:resource="http://purl.org/dc/dcmitype/StillImage"/>
    <dc:date>2024-02-22T16:13:43.460200</dc:date>
    <dc:format>image/svg+xml</dc:format>
    <dc:creator>
     <cc:Agent>
      <dc:title>Matplotlib v3.7.0, https://matplotlib.org/</dc:title>
     </cc:Agent>
    </dc:creator>
   </cc:Work>
  </rdf:RDF>
 </metadata>
 <defs>
  <style type="text/css">*{stroke-linejoin: round; stroke-linecap: butt}</style>
 </defs>
 <g id="figure_1">
  <g id="patch_1">
   <path d="M 0 149.998277 
L 498.793113 149.998277 
L 498.793113 0 
L 0 0 
L 0 149.998277 
z
" style="fill: none"/>
  </g>
  <g id="axes_1">
   <g id="patch_2">
    <path d="M 39.635321 121.332274 
L 155.475753 121.332274 
L 155.475753 10.048274 
L 39.635321 10.048274 
z
" style="fill: #ffffff"/>
   </g>
   <g id="matplotlib.axis_1">
    <g id="xtick_1">
     <g id="line2d_1">
      <defs>
       <path id="me7b5078c80" d="M 0 2 
L 0 -2 
" style="stroke: #000000; stroke-width: 0.8"/>
      </defs>
      <g>
       <use xlink:href="#me7b5078c80" x="65.048372" y="121.332274" style="stroke: #000000; stroke-width: 0.8"/>
      </g>
     </g>
     <g id="text_1">
      <!-- $\mathdefault{10^{-4}}$ -->
      <g transform="translate(56.239397 131.028823) scale(0.07497 -0.07497)">
       <defs>
        <path id="DejaVuSans-31" d="M 794 531 
L 1825 531 
L 1825 4091 
L 703 3866 
L 703 4441 
L 1819 4666 
L 2450 4666 
L 2450 531 
L 3481 531 
L 3481 0 
L 794 0 
L 794 531 
z
" transform="scale(0.015625)"/>
        <path id="DejaVuSans-30" d="M 2034 4250 
Q 1547 4250 1301 3770 
Q 1056 3291 1056 2328 
Q 1056 1369 1301 889 
Q 1547 409 2034 409 
Q 2525 409 2770 889 
Q 3016 1369 3016 2328 
Q 3016 3291 2770 3770 
Q 2525 4250 2034 4250 
z
M 2034 4750 
Q 2819 4750 3233 4129 
Q 3647 3509 3647 2328 
Q 3647 1150 3233 529 
Q 2819 -91 2034 -91 
Q 1250 -91 836 529 
Q 422 1150 422 2328 
Q 422 3509 836 4129 
Q 1250 4750 2034 4750 
z
" transform="scale(0.015625)"/>
        <path id="DejaVuSans-2212" d="M 678 2272 
L 4684 2272 
L 4684 1741 
L 678 1741 
L 678 2272 
z
" transform="scale(0.015625)"/>
        <path id="DejaVuSans-34" d="M 2419 4116 
L 825 1625 
L 2419 1625 
L 2419 4116 
z
M 2253 4666 
L 3047 4666 
L 3047 1625 
L 3713 1625 
L 3713 1100 
L 3047 1100 
L 3047 0 
L 2419 0 
L 2419 1100 
L 313 1100 
L 313 1709 
L 2253 4666 
z
" transform="scale(0.015625)"/>
       </defs>
       <use xlink:href="#DejaVuSans-31" transform="translate(0 0.684375)"/>
       <use xlink:href="#DejaVuSans-30" transform="translate(63.623047 0.684375)"/>
       <use xlink:href="#DejaVuSans-2212" transform="translate(128.203125 38.965625) scale(0.7)"/>
       <use xlink:href="#DejaVuSans-34" transform="translate(186.855469 38.965625) scale(0.7)"/>
      </g>
     </g>
    </g>
    <g id="xtick_2">
     <g id="line2d_2">
      <g>
       <use xlink:href="#me7b5078c80" x="103.725309" y="121.332274" style="stroke: #000000; stroke-width: 0.8"/>
      </g>
     </g>
     <g id="text_2">
      <!-- $\mathdefault{10^{-3}}$ -->
      <g transform="translate(94.916334 131.028823) scale(0.07497 -0.07497)">
       <defs>
        <path id="DejaVuSans-33" d="M 2597 2516 
Q 3050 2419 3304 2112 
Q 3559 1806 3559 1356 
Q 3559 666 3084 287 
Q 2609 -91 1734 -91 
Q 1441 -91 1130 -33 
Q 819 25 488 141 
L 488 750 
Q 750 597 1062 519 
Q 1375 441 1716 441 
Q 2309 441 2620 675 
Q 2931 909 2931 1356 
Q 2931 1769 2642 2001 
Q 2353 2234 1838 2234 
L 1294 2234 
L 1294 2753 
L 1863 2753 
Q 2328 2753 2575 2939 
Q 2822 3125 2822 3475 
Q 2822 3834 2567 4026 
Q 2313 4219 1838 4219 
Q 1578 4219 1281 4162 
Q 984 4106 628 3988 
L 628 4550 
Q 988 4650 1302 4700 
Q 1616 4750 1894 4750 
Q 2613 4750 3031 4423 
Q 3450 4097 3450 3541 
Q 3450 3153 3228 2886 
Q 3006 2619 2597 2516 
z
" transform="scale(0.015625)"/>
       </defs>
       <use xlink:href="#DejaVuSans-31" transform="translate(0 0.765625)"/>
       <use xlink:href="#DejaVuSans-30" transform="translate(63.623047 0.765625)"/>
       <use xlink:href="#DejaVuSans-2212" transform="translate(128.203125 39.046875) scale(0.7)"/>
       <use xlink:href="#DejaVuSans-33" transform="translate(186.855469 39.046875) scale(0.7)"/>
      </g>
     </g>
    </g>
    <g id="xtick_3">
     <g id="line2d_3">
      <g>
       <use xlink:href="#me7b5078c80" x="142.402246" y="121.332274" style="stroke: #000000; stroke-width: 0.8"/>
      </g>
     </g>
     <g id="text_3">
      <!-- $\mathdefault{10^{-2}}$ -->
      <g transform="translate(133.593271 131.028823) scale(0.07497 -0.07497)">
       <defs>
        <path id="DejaVuSans-32" d="M 1228 531 
L 3431 531 
L 3431 0 
L 469 0 
L 469 531 
Q 828 903 1448 1529 
Q 2069 2156 2228 2338 
Q 2531 2678 2651 2914 
Q 2772 3150 2772 3378 
Q 2772 3750 2511 3984 
Q 2250 4219 1831 4219 
Q 1534 4219 1204 4116 
Q 875 4013 500 3803 
L 500 4441 
Q 881 4594 1212 4672 
Q 1544 4750 1819 4750 
Q 2544 4750 2975 4387 
Q 3406 4025 3406 3419 
Q 3406 3131 3298 2873 
Q 3191 2616 2906 2266 
Q 2828 2175 2409 1742 
Q 1991 1309 1228 531 
z
" transform="scale(0.015625)"/>
       </defs>
       <use xlink:href="#DejaVuSans-31" transform="translate(0 0.765625)"/>
       <use xlink:href="#DejaVuSans-30" transform="translate(63.623047 0.765625)"/>
       <use xlink:href="#DejaVuSans-2212" transform="translate(128.203125 39.046875) scale(0.7)"/>
       <use xlink:href="#DejaVuSans-32" transform="translate(186.855469 39.046875) scale(0.7)"/>
      </g>
     </g>
    </g>
    <g id="xtick_4">
     <g id="line2d_4">
      <defs>
       <path id="me6ac1a1369" d="M 0 1 
L 0 -1 
" style="stroke: #000000; stroke-width: 0.4"/>
      </defs>
      <g>
       <use xlink:href="#me6ac1a1369" x="44.825024" y="121.332274" style="stroke: #000000; stroke-width: 0.4"/>
      </g>
     </g>
    </g>
    <g id="xtick_5">
     <g id="line2d_5">
      <g>
       <use xlink:href="#me6ac1a1369" x="49.657271" y="121.332274" style="stroke: #000000; stroke-width: 0.4"/>
      </g>
     </g>
    </g>
    <g id="xtick_6">
     <g id="line2d_6">
      <g>
       <use xlink:href="#me6ac1a1369" x="53.405454" y="121.332274" style="stroke: #000000; stroke-width: 0.4"/>
      </g>
     </g>
    </g>
    <g id="xtick_7">
     <g id="line2d_7">
      <g>
       <use xlink:href="#me6ac1a1369" x="56.467942" y="121.332274" style="stroke: #000000; stroke-width: 0.4"/>
      </g>
     </g>
    </g>
    <g id="xtick_8">
     <g id="line2d_8">
      <g>
       <use xlink:href="#me6ac1a1369" x="59.057238" y="121.332274" style="stroke: #000000; stroke-width: 0.4"/>
      </g>
     </g>
    </g>
    <g id="xtick_9">
     <g id="line2d_9">
      <g>
       <use xlink:href="#me6ac1a1369" x="61.300189" y="121.332274" style="stroke: #000000; stroke-width: 0.4"/>
      </g>
     </g>
    </g>
    <g id="xtick_10">
     <g id="line2d_10">
      <g>
       <use xlink:href="#me6ac1a1369" x="63.278612" y="121.332274" style="stroke: #000000; stroke-width: 0.4"/>
      </g>
     </g>
    </g>
    <g id="xtick_11">
     <g id="line2d_11">
      <g>
       <use xlink:href="#me6ac1a1369" x="76.69129" y="121.332274" style="stroke: #000000; stroke-width: 0.4"/>
      </g>
     </g>
    </g>
    <g id="xtick_12">
     <g id="line2d_12">
      <g>
       <use xlink:href="#me6ac1a1369" x="83.50196" y="121.332274" style="stroke: #000000; stroke-width: 0.4"/>
      </g>
     </g>
    </g>
    <g id="xtick_13">
     <g id="line2d_13">
      <g>
       <use xlink:href="#me6ac1a1369" x="88.334208" y="121.332274" style="stroke: #000000; stroke-width: 0.4"/>
      </g>
     </g>
    </g>
    <g id="xtick_14">
     <g id="line2d_14">
      <g>
       <use xlink:href="#me6ac1a1369" x="92.082391" y="121.332274" style="stroke: #000000; stroke-width: 0.4"/>
      </g>
     </g>
    </g>
    <g id="xtick_15">
     <g id="line2d_15">
      <g>
       <use xlink:href="#me6ac1a1369" x="95.144879" y="121.332274" style="stroke: #000000; stroke-width: 0.4"/>
      </g>
     </g>
    </g>
    <g id="xtick_16">
     <g id="line2d_16">
      <g>
       <use xlink:href="#me6ac1a1369" x="97.734175" y="121.332274" style="stroke: #000000; stroke-width: 0.4"/>
      </g>
     </g>
    </g>
    <g id="xtick_17">
     <g id="line2d_17">
      <g>
       <use xlink:href="#me6ac1a1369" x="99.977126" y="121.332274" style="stroke: #000000; stroke-width: 0.4"/>
      </g>
     </g>
    </g>
    <g id="xtick_18">
     <g id="line2d_18">
      <g>
       <use xlink:href="#me6ac1a1369" x="101.955549" y="121.332274" style="stroke: #000000; stroke-width: 0.4"/>
      </g>
     </g>
    </g>
    <g id="xtick_19">
     <g id="line2d_19">
      <g>
       <use xlink:href="#me6ac1a1369" x="115.368227" y="121.332274" style="stroke: #000000; stroke-width: 0.4"/>
      </g>
     </g>
    </g>
    <g id="xtick_20">
     <g id="line2d_20">
      <g>
       <use xlink:href="#me6ac1a1369" x="122.178897" y="121.332274" style="stroke: #000000; stroke-width: 0.4"/>
      </g>
     </g>
    </g>
    <g id="xtick_21">
     <g id="line2d_21">
      <g>
       <use xlink:href="#me6ac1a1369" x="127.011145" y="121.332274" style="stroke: #000000; stroke-width: 0.4"/>
      </g>
     </g>
    </g>
    <g id="xtick_22">
     <g id="line2d_22">
      <g>
       <use xlink:href="#me6ac1a1369" x="130.759327" y="121.332274" style="stroke: #000000; stroke-width: 0.4"/>
      </g>
     </g>
    </g>
    <g id="xtick_23">
     <g id="line2d_23">
      <g>
       <use xlink:href="#me6ac1a1369" x="133.821815" y="121.332274" style="stroke: #000000; stroke-width: 0.4"/>
      </g>
     </g>
    </g>
    <g id="xtick_24">
     <g id="line2d_24">
      <g>
       <use xlink:href="#me6ac1a1369" x="136.411112" y="121.332274" style="stroke: #000000; stroke-width: 0.4"/>
      </g>
     </g>
    </g>
    <g id="xtick_25">
     <g id="line2d_25">
      <g>
       <use xlink:href="#me6ac1a1369" x="138.654063" y="121.332274" style="stroke: #000000; stroke-width: 0.4"/>
      </g>
     </g>
    </g>
    <g id="xtick_26">
     <g id="line2d_26">
      <g>
       <use xlink:href="#me6ac1a1369" x="140.632486" y="121.332274" style="stroke: #000000; stroke-width: 0.4"/>
      </g>
     </g>
    </g>
    <g id="xtick_27">
     <g id="line2d_27">
      <g>
       <use xlink:href="#me6ac1a1369" x="154.045164" y="121.332274" style="stroke: #000000; stroke-width: 0.4"/>
      </g>
     </g>
    </g>
    <g id="text_4">
     <!-- Frequency -->
     <g transform="translate(74.308818 140.926558) scale(0.09 -0.09)">
      <defs>
       <path id="DejaVuSans-46" d="M 628 4666 
L 3309 4666 
L 3309 4134 
L 1259 4134 
L 1259 2759 
L 3109 2759 
L 3109 2228 
L 1259 2228 
L 1259 0 
L 628 0 
L 628 4666 
z
" transform="scale(0.015625)"/>
       <path id="DejaVuSans-72" d="M 2631 2963 
Q 2534 3019 2420 3045 
Q 2306 3072 2169 3072 
Q 1681 3072 1420 2755 
Q 1159 2438 1159 1844 
L 1159 0 
L 581 0 
L 581 3500 
L 1159 3500 
L 1159 2956 
Q 1341 3275 1631 3429 
Q 1922 3584 2338 3584 
Q 2397 3584 2469 3576 
Q 2541 3569 2628 3553 
L 2631 2963 
z
" transform="scale(0.015625)"/>
       <path id="DejaVuSans-65" d="M 3597 1894 
L 3597 1613 
L 953 1613 
Q 991 1019 1311 708 
Q 1631 397 2203 397 
Q 2534 397 2845 478 
Q 3156 559 3463 722 
L 3463 178 
Q 3153 47 2828 -22 
Q 2503 -91 2169 -91 
Q 1331 -91 842 396 
Q 353 884 353 1716 
Q 353 2575 817 3079 
Q 1281 3584 2069 3584 
Q 2775 3584 3186 3129 
Q 3597 2675 3597 1894 
z
M 3022 2063 
Q 3016 2534 2758 2815 
Q 2500 3097 2075 3097 
Q 1594 3097 1305 2825 
Q 1016 2553 972 2059 
L 3022 2063 
z
" transform="scale(0.015625)"/>
       <path id="DejaVuSans-71" d="M 947 1747 
Q 947 1113 1208 752 
Q 1469 391 1925 391 
Q 2381 391 2643 752 
Q 2906 1113 2906 1747 
Q 2906 2381 2643 2742 
Q 2381 3103 1925 3103 
Q 1469 3103 1208 2742 
Q 947 2381 947 1747 
z
M 2906 525 
Q 2725 213 2448 61 
Q 2172 -91 1784 -91 
Q 1150 -91 751 415 
Q 353 922 353 1747 
Q 353 2572 751 3078 
Q 1150 3584 1784 3584 
Q 2172 3584 2448 3432 
Q 2725 3281 2906 2969 
L 2906 3500 
L 3481 3500 
L 3481 -1331 
L 2906 -1331 
L 2906 525 
z
" transform="scale(0.015625)"/>
       <path id="DejaVuSans-75" d="M 544 1381 
L 544 3500 
L 1119 3500 
L 1119 1403 
Q 1119 906 1312 657 
Q 1506 409 1894 409 
Q 2359 409 2629 706 
Q 2900 1003 2900 1516 
L 2900 3500 
L 3475 3500 
L 3475 0 
L 2900 0 
L 2900 538 
Q 2691 219 2414 64 
Q 2138 -91 1772 -91 
Q 1169 -91 856 284 
Q 544 659 544 1381 
z
M 1991 3584 
L 1991 3584 
z
" transform="scale(0.015625)"/>
       <path id="DejaVuSans-6e" d="M 3513 2113 
L 3513 0 
L 2938 0 
L 2938 2094 
Q 2938 2591 2744 2837 
Q 2550 3084 2163 3084 
Q 1697 3084 1428 2787 
Q 1159 2491 1159 1978 
L 1159 0 
L 581 0 
L 581 3500 
L 1159 3500 
L 1159 2956 
Q 1366 3272 1645 3428 
Q 1925 3584 2291 3584 
Q 2894 3584 3203 3211 
Q 3513 2838 3513 2113 
z
" transform="scale(0.015625)"/>
       <path id="DejaVuSans-63" d="M 3122 3366 
L 3122 2828 
Q 2878 2963 2633 3030 
Q 2388 3097 2138 3097 
Q 1578 3097 1268 2742 
Q 959 2388 959 1747 
Q 959 1106 1268 751 
Q 1578 397 2138 397 
Q 2388 397 2633 464 
Q 2878 531 3122 666 
L 3122 134 
Q 2881 22 2623 -34 
Q 2366 -91 2075 -91 
Q 1284 -91 818 406 
Q 353 903 353 1747 
Q 353 2603 823 3093 
Q 1294 3584 2113 3584 
Q 2378 3584 2631 3529 
Q 2884 3475 3122 3366 
z
" transform="scale(0.015625)"/>
       <path id="DejaVuSans-79" d="M 2059 -325 
Q 1816 -950 1584 -1140 
Q 1353 -1331 966 -1331 
L 506 -1331 
L 506 -850 
L 844 -850 
Q 1081 -850 1212 -737 
Q 1344 -625 1503 -206 
L 1606 56 
L 191 3500 
L 800 3500 
L 1894 763 
L 2988 3500 
L 3597 3500 
L 2059 -325 
z
" transform="scale(0.015625)"/>
      </defs>
      <use xlink:href="#DejaVuSans-46"/>
      <use xlink:href="#DejaVuSans-72" x="50.269531"/>
      <use xlink:href="#DejaVuSans-65" x="89.132812"/>
      <use xlink:href="#DejaVuSans-71" x="150.65625"/>
      <use xlink:href="#DejaVuSans-75" x="214.132812"/>
      <use xlink:href="#DejaVuSans-65" x="277.511719"/>
      <use xlink:href="#DejaVuSans-6e" x="339.035156"/>
      <use xlink:href="#DejaVuSans-63" x="402.414062"/>
      <use xlink:href="#DejaVuSans-79" x="457.394531"/>
     </g>
    </g>
   </g>
   <g id="matplotlib.axis_2">
    <g id="ytick_1">
     <g id="line2d_28">
      <defs>
       <path id="mcb31f62d44" d="M 2 0 
L -2 -0 
" style="stroke: #000000; stroke-width: 0.8"/>
      </defs>
      <g>
       <use xlink:href="#mcb31f62d44" x="39.635321" y="116.273911" style="stroke: #000000; stroke-width: 0.8"/>
      </g>
     </g>
     <g id="text_5">
      <!-- $\mathdefault{10^{0}}$ -->
      <g transform="translate(22.440601 119.122185) scale(0.07497 -0.07497)">
       <use xlink:href="#DejaVuSans-31" transform="translate(0 0.765625)"/>
       <use xlink:href="#DejaVuSans-30" transform="translate(63.623047 0.765625)"/>
       <use xlink:href="#DejaVuSans-30" transform="translate(128.203125 39.046875) scale(0.7)"/>
      </g>
     </g>
    </g>
    <g id="ytick_2">
     <g id="line2d_29">
      <g>
       <use xlink:href="#mcb31f62d44" x="39.635321" y="82.546601" style="stroke: #000000; stroke-width: 0.8"/>
      </g>
     </g>
     <g id="text_6">
      <!-- $\mathdefault{10^{1}}$ -->
      <g transform="translate(22.440601 85.394876) scale(0.07497 -0.07497)">
       <use xlink:href="#DejaVuSans-31" transform="translate(0 0.684375)"/>
       <use xlink:href="#DejaVuSans-30" transform="translate(63.623047 0.684375)"/>
       <use xlink:href="#DejaVuSans-31" transform="translate(128.203125 38.965625) scale(0.7)"/>
      </g>
     </g>
    </g>
    <g id="ytick_3">
     <g id="line2d_30">
      <g>
       <use xlink:href="#mcb31f62d44" x="39.635321" y="48.819292" style="stroke: #000000; stroke-width: 0.8"/>
      </g>
     </g>
     <g id="text_7">
      <!-- $\mathdefault{10^{2}}$ -->
      <g transform="translate(22.440601 51.667567) scale(0.07497 -0.07497)">
       <use xlink:href="#DejaVuSans-31" transform="translate(0 0.765625)"/>
       <use xlink:href="#DejaVuSans-30" transform="translate(63.623047 0.765625)"/>
       <use xlink:href="#DejaVuSans-32" transform="translate(128.203125 39.046875) scale(0.7)"/>
      </g>
     </g>
    </g>
    <g id="ytick_4">
     <g id="line2d_31">
      <g>
       <use xlink:href="#mcb31f62d44" x="39.635321" y="15.091983" style="stroke: #000000; stroke-width: 0.8"/>
      </g>
     </g>
     <g id="text_8">
      <!-- $\mathdefault{10^{3}}$ -->
      <g transform="translate(22.440601 17.940257) scale(0.07497 -0.07497)">
       <use xlink:href="#DejaVuSans-31" transform="translate(0 0.765625)"/>
       <use xlink:href="#DejaVuSans-30" transform="translate(63.623047 0.765625)"/>
       <use xlink:href="#DejaVuSans-33" transform="translate(128.203125 39.046875) scale(0.7)"/>
      </g>
     </g>
    </g>
    <g id="ytick_5">
     <g id="line2d_32">
      <defs>
       <path id="mafbf7297b4" d="M 1 0 
L -1 -0 
" style="stroke: #000000; stroke-width: 0.4"/>
      </defs>
      <g>
       <use xlink:href="#mafbf7297b4" x="39.635321" y="119.542425" style="stroke: #000000; stroke-width: 0.4"/>
      </g>
     </g>
    </g>
    <g id="ytick_6">
     <g id="line2d_33">
      <g>
       <use xlink:href="#mafbf7297b4" x="39.635321" y="117.817188" style="stroke: #000000; stroke-width: 0.4"/>
      </g>
     </g>
    </g>
    <g id="ytick_7">
     <g id="line2d_34">
      <g>
       <use xlink:href="#mafbf7297b4" x="39.635321" y="106.120979" style="stroke: #000000; stroke-width: 0.4"/>
      </g>
     </g>
    </g>
    <g id="ytick_8">
     <g id="line2d_35">
      <g>
       <use xlink:href="#mafbf7297b4" x="39.635321" y="100.181895" style="stroke: #000000; stroke-width: 0.4"/>
      </g>
     </g>
    </g>
    <g id="ytick_9">
     <g id="line2d_36">
      <g>
       <use xlink:href="#mafbf7297b4" x="39.635321" y="95.968047" style="stroke: #000000; stroke-width: 0.4"/>
      </g>
     </g>
    </g>
    <g id="ytick_10">
     <g id="line2d_37">
      <g>
       <use xlink:href="#mafbf7297b4" x="39.635321" y="92.699533" style="stroke: #000000; stroke-width: 0.4"/>
      </g>
     </g>
    </g>
    <g id="ytick_11">
     <g id="line2d_38">
      <g>
       <use xlink:href="#mafbf7297b4" x="39.635321" y="90.028963" style="stroke: #000000; stroke-width: 0.4"/>
      </g>
     </g>
    </g>
    <g id="ytick_12">
     <g id="line2d_39">
      <g>
       <use xlink:href="#mafbf7297b4" x="39.635321" y="87.771028" style="stroke: #000000; stroke-width: 0.4"/>
      </g>
     </g>
    </g>
    <g id="ytick_13">
     <g id="line2d_40">
      <g>
       <use xlink:href="#mafbf7297b4" x="39.635321" y="85.815115" style="stroke: #000000; stroke-width: 0.4"/>
      </g>
     </g>
    </g>
    <g id="ytick_14">
     <g id="line2d_41">
      <g>
       <use xlink:href="#mafbf7297b4" x="39.635321" y="84.089878" style="stroke: #000000; stroke-width: 0.4"/>
      </g>
     </g>
    </g>
    <g id="ytick_15">
     <g id="line2d_42">
      <g>
       <use xlink:href="#mafbf7297b4" x="39.635321" y="72.39367" style="stroke: #000000; stroke-width: 0.4"/>
      </g>
     </g>
    </g>
    <g id="ytick_16">
     <g id="line2d_43">
      <g>
       <use xlink:href="#mafbf7297b4" x="39.635321" y="66.454585" style="stroke: #000000; stroke-width: 0.4"/>
      </g>
     </g>
    </g>
    <g id="ytick_17">
     <g id="line2d_44">
      <g>
       <use xlink:href="#mafbf7297b4" x="39.635321" y="62.240738" style="stroke: #000000; stroke-width: 0.4"/>
      </g>
     </g>
    </g>
    <g id="ytick_18">
     <g id="line2d_45">
      <g>
       <use xlink:href="#mafbf7297b4" x="39.635321" y="58.972224" style="stroke: #000000; stroke-width: 0.4"/>
      </g>
     </g>
    </g>
    <g id="ytick_19">
     <g id="line2d_46">
      <g>
       <use xlink:href="#mafbf7297b4" x="39.635321" y="56.301654" style="stroke: #000000; stroke-width: 0.4"/>
      </g>
     </g>
    </g>
    <g id="ytick_20">
     <g id="line2d_47">
      <g>
       <use xlink:href="#mafbf7297b4" x="39.635321" y="54.043719" style="stroke: #000000; stroke-width: 0.4"/>
      </g>
     </g>
    </g>
    <g id="ytick_21">
     <g id="line2d_48">
      <g>
       <use xlink:href="#mafbf7297b4" x="39.635321" y="52.087806" style="stroke: #000000; stroke-width: 0.4"/>
      </g>
     </g>
    </g>
    <g id="ytick_22">
     <g id="line2d_49">
      <g>
       <use xlink:href="#mafbf7297b4" x="39.635321" y="50.362569" style="stroke: #000000; stroke-width: 0.4"/>
      </g>
     </g>
    </g>
    <g id="ytick_23">
     <g id="line2d_50">
      <g>
       <use xlink:href="#mafbf7297b4" x="39.635321" y="38.66636" style="stroke: #000000; stroke-width: 0.4"/>
      </g>
     </g>
    </g>
    <g id="ytick_24">
     <g id="line2d_51">
      <g>
       <use xlink:href="#mafbf7297b4" x="39.635321" y="32.727276" style="stroke: #000000; stroke-width: 0.4"/>
      </g>
     </g>
    </g>
    <g id="ytick_25">
     <g id="line2d_52">
      <g>
       <use xlink:href="#mafbf7297b4" x="39.635321" y="28.513429" style="stroke: #000000; stroke-width: 0.4"/>
      </g>
     </g>
    </g>
    <g id="ytick_26">
     <g id="line2d_53">
      <g>
       <use xlink:href="#mafbf7297b4" x="39.635321" y="25.244915" style="stroke: #000000; stroke-width: 0.4"/>
      </g>
     </g>
    </g>
    <g id="ytick_27">
     <g id="line2d_54">
      <g>
       <use xlink:href="#mafbf7297b4" x="39.635321" y="22.574344" style="stroke: #000000; stroke-width: 0.4"/>
      </g>
     </g>
    </g>
    <g id="ytick_28">
     <g id="line2d_55">
      <g>
       <use xlink:href="#mafbf7297b4" x="39.635321" y="20.316409" style="stroke: #000000; stroke-width: 0.4"/>
      </g>
     </g>
    </g>
    <g id="ytick_29">
     <g id="line2d_56">
      <g>
       <use xlink:href="#mafbf7297b4" x="39.635321" y="18.360497" style="stroke: #000000; stroke-width: 0.4"/>
      </g>
     </g>
    </g>
    <g id="ytick_30">
     <g id="line2d_57">
      <g>
       <use xlink:href="#mafbf7297b4" x="39.635321" y="16.63526" style="stroke: #000000; stroke-width: 0.4"/>
      </g>
     </g>
    </g>
    <g id="text_9">
     <!-- Rank -->
     <g transform="translate(19.068882 76.931134) rotate(-90) scale(0.09 -0.09)">
      <defs>
       <path id="DejaVuSans-52" d="M 2841 2188 
Q 3044 2119 3236 1894 
Q 3428 1669 3622 1275 
L 4263 0 
L 3584 0 
L 2988 1197 
Q 2756 1666 2539 1819 
Q 2322 1972 1947 1972 
L 1259 1972 
L 1259 0 
L 628 0 
L 628 4666 
L 2053 4666 
Q 2853 4666 3247 4331 
Q 3641 3997 3641 3322 
Q 3641 2881 3436 2590 
Q 3231 2300 2841 2188 
z
M 1259 4147 
L 1259 2491 
L 2053 2491 
Q 2509 2491 2742 2702 
Q 2975 2913 2975 3322 
Q 2975 3731 2742 3939 
Q 2509 4147 2053 4147 
L 1259 4147 
z
" transform="scale(0.015625)"/>
       <path id="DejaVuSans-61" d="M 2194 1759 
Q 1497 1759 1228 1600 
Q 959 1441 959 1056 
Q 959 750 1161 570 
Q 1363 391 1709 391 
Q 2188 391 2477 730 
Q 2766 1069 2766 1631 
L 2766 1759 
L 2194 1759 
z
M 3341 1997 
L 3341 0 
L 2766 0 
L 2766 531 
Q 2569 213 2275 61 
Q 1981 -91 1556 -91 
Q 1019 -91 701 211 
Q 384 513 384 1019 
Q 384 1609 779 1909 
Q 1175 2209 1959 2209 
L 2766 2209 
L 2766 2266 
Q 2766 2663 2505 2880 
Q 2244 3097 1772 3097 
Q 1472 3097 1187 3025 
Q 903 2953 641 2809 
L 641 3341 
Q 956 3463 1253 3523 
Q 1550 3584 1831 3584 
Q 2591 3584 2966 3190 
Q 3341 2797 3341 1997 
z
" transform="scale(0.015625)"/>
       <path id="DejaVuSans-6b" d="M 581 4863 
L 1159 4863 
L 1159 1991 
L 2875 3500 
L 3609 3500 
L 1753 1863 
L 3688 0 
L 2938 0 
L 1159 1709 
L 1159 0 
L 581 0 
L 581 4863 
z
" transform="scale(0.015625)"/>
      </defs>
      <use xlink:href="#DejaVuSans-52"/>
      <use xlink:href="#DejaVuSans-61" x="67.232422"/>
      <use xlink:href="#DejaVuSans-6e" x="128.511719"/>
      <use xlink:href="#DejaVuSans-6b" x="191.890625"/>
     </g>
    </g>
   </g>
   <g id="line2d_58">
    <path d="M 150.210278 150.998277 
L 150.210278 116.273911 
L 147.726953 116.273911 
L 147.726953 106.120979 
L 141.079449 106.120979 
L 141.079449 100.181895 
L 140.474253 100.181895 
L 140.474253 95.968047 
L 139.272726 95.968047 
L 139.231795 90.028963 
L 138.877555 90.028963 
L 138.877555 87.771028 
L 138.105377 87.771028 
L 138.105377 85.815115 
L 136.957723 85.815115 
L 136.957723 84.089878 
L 136.578761 84.089878 
L 136.578761 82.546601 
L 136.142504 82.546601 
L 136.142504 81.150538 
L 135.330866 81.150538 
L 135.330866 79.876031 
L 135.02542 79.876031 
L 135.02542 78.703599 
L 133.728316 78.703599 
L 133.728316 77.618096 
L 133.477672 77.618096 
L 133.477672 76.607517 
L 132.624072 76.607517 
L 132.624072 75.662184 
L 131.357886 75.662184 
L 131.349088 73.936947 
L 130.911229 73.936947 
L 130.911229 73.144993 
L 130.578621 73.144993 
L 130.578621 72.39367 
L 130.224399 72.39367 
L 130.224399 71.679012 
L 129.741536 71.679012 
L 129.631375 70.346495 
L 129.068367 70.346495 
L 129.061629 69.125156 
L 128.366642 69.125156 
L 128.366642 68.550667 
L 128.10312 68.550667 
L 128.10312 67.997862 
L 127.821944 67.997862 
L 127.821944 67.465164 
L 127.69206 67.465164 
L 127.69206 66.951161 
L 127.568141 66.951161 
L 127.51021 65.974294 
L 127.421882 65.974294 
L 127.329332 65.058521 
L 127.246976 65.058521 
L 127.246976 64.621248 
L 126.949211 64.621248 
L 126.949211 64.19665 
L 126.397673 64.19665 
L 126.397673 63.784015 
L 126.164785 63.784015 
L 126.164785 63.382686 
L 125.846454 63.382686 
L 125.744118 62.611583 
L 125.428781 62.611583 
L 125.335544 61.879051 
L 124.987008 61.879051 
L 124.987008 61.52608 
L 124.854451 61.52608 
L 124.854451 61.181415 
L 124.579932 61.181415 
L 124.481483 59.878549 
L 124.415021 59.878549 
L 124.374061 59.268145 
L 123.635423 59.268145 
L 123.635423 58.972224 
L 123.463729 58.972224 
L 123.372155 58.397735 
L 123.220493 58.397735 
L 123.143312 57.844931 
L 122.893422 57.844931 
L 122.821152 57.052976 
L 122.747472 57.052976 
L 122.733446 56.547837 
L 122.507955 56.547837 
L 122.507955 56.301654 
L 122.334782 56.301654 
L 122.24115 55.821362 
L 122.159377 55.821362 
L 122.110895 55.35632 
L 121.920441 55.35632 
L 121.872958 54.685321 
L 121.689398 54.685321 
L 121.689398 54.468316 
L 121.494153 54.468316 
L 121.453732 54.043719 
L 121.363605 54.043719 
L 121.363605 53.835948 
L 121.069286 53.835948 
L 121.069286 53.631083 
L 120.792435 53.631083 
L 120.783793 53.229754 
L 120.658759 53.229754 
L 120.574285 52.647655 
L 120.504017 52.647655 
L 120.504017 52.458651 
L 120.241243 52.458651 
L 120.241243 52.272055 
L 120.097413 52.272055 
L 120.090509 51.905846 
L 119.968323 51.905846 
L 119.904269 51.54857 
L 119.636974 51.54857 
L 119.555934 50.859145 
L 119.22002 50.859145 
L 119.143627 50.362569 
L 118.979571 50.362569 
L 118.946681 50.040631 
L 118.75889 50.040631 
L 118.75889 49.882278 
L 118.629672 49.882278 
L 118.564937 49.570615 
L 118.301134 49.570615 
L 118.301134 49.417236 
L 118.053621 49.417236 
L 118.053621 49.265446 
L 117.868872 49.265446 
L 117.758602 48.966505 
L 117.745848 48.966505 
L 117.745848 48.819292 
L 117.56912 48.819292 
L 117.56912 48.673544 
L 117.456379 48.673544 
L 117.41553 48.386327 
L 116.825195 48.386327 
L 116.751724 48.104634 
L 116.283839 48.104634 
L 116.183909 47.691999 
L 116.141292 47.691999 
L 116.06796 47.423228 
L 115.965941 47.423228 
L 115.868527 47.029099 
L 115.805892 47.029099 
L 115.715477 46.772117 
L 115.468125 46.772117 
L 115.468125 46.645298 
L 115.338142 46.645298 
L 115.259929 46.148722 
L 115.11082 46.148722 
L 115.11082 46.027164 
L 114.88235 46.027164 
L 114.88235 45.906608 
L 114.687856 45.906608 
L 114.627329 45.66843 
L 114.476339 45.66843 
L 114.42268 45.434064 
L 114.30535 45.434064 
L 114.212972 45.203388 
L 114.144378 45.203388 
L 114.044077 44.864047 
L 114.028697 44.864047 
L 114.028697 44.752658 
L 113.79662 44.64211 
L 113.707029 44.315384 
L 113.582481 44.208075 
L 113.582481 44.101547 
L 113.393006 43.995788 
L 113.393006 43.890787 
L 113.1299 43.786533 
L 113.050588 43.478151 
L 112.920955 43.376784 
L 112.920955 43.276113 
L 112.746283 43.176129 
L 112.698793 42.978185 
L 112.18357 42.880208 
L 112.089868 42.494723 
L 112.029693 42.399916 
L 111.96557 42.119123 
L 111.881694 42.026709 
L 111.81895 41.843612 
L 111.712385 41.752915 
L 111.712385 41.662775 
L 111.247774 41.573187 
L 111.13991 41.307665 
L 110.973345 41.220216 
L 110.875376 41.04687 
L 110.807209 40.96096 
L 110.698105 40.538811 
L 110.603072 40.455821 
L 110.493208 40.29124 
L 110.366238 40.209638 
L 110.271214 40.047784 
L 110.181085 39.967523 
L 110.101508 39.808309 
L 109.930585 39.729346 
L 109.895571 39.572686 
L 109.811505 39.494979 
L 109.811505 39.417683 
L 109.559182 39.340793 
L 109.53643 39.188213 
L 109.249576 39.112514 
L 109.249576 39.037205 
L 108.967746 38.962281 
L 108.895404 38.739782 
L 108.522529 38.66636 
L 108.522529 38.593305 
L 108.197356 38.520612 
L 108.097862 38.3763 
L 107.952282 38.304673 
L 107.946204 38.162463 
L 107.705355 38.091872 
L 107.605525 37.812862 
L 107.472087 37.743932 
L 107.389966 37.404065 
L 107.259973 37.337028 
L 107.164994 37.006369 
L 107.115406 36.941124 
L 107.045577 36.811498 
L 106.818114 36.747113 
L 106.818114 36.68301 
L 106.382294 36.619186 
L 106.306618 36.429365 
L 106.2463 36.366635 
L 106.15219 36.118365 
L 106.110494 36.056949 
L 106.010194 35.874233 
L 105.988429 35.81383 
L 105.889538 35.574681 
L 105.756978 35.515498 
L 105.686887 35.281132 
L 105.489184 35.223122 
L 105.389301 35.050457 
L 105.291482 34.993351 
L 105.185837 34.767129 
L 105.069241 34.711115 
L 105.060463 34.599726 
L 104.835091 34.489178 
L 104.77092 34.216403 
L 104.605098 34.1087 
L 104.511037 33.842856 
L 104.462129 33.737855 
L 104.36485 33.478599 
L 104.31427 33.376168 
L 104.242194 33.274448 
L 104.156138 33.17343 
L 104.067918 33.023197 
L 103.819447 32.923891 
L 103.730199 32.678532 
L 103.375444 32.581528 
L 103.311688 32.389426 
L 103.248532 32.294311 
L 103.176672 32.19981 
L 103.097504 32.105915 
L 103.005662 31.873777 
L 102.926666 31.781943 
L 102.882091 31.69068 
L 102.628196 31.599983 
L 102.627212 31.509844 
L 102.347342 31.420256 
L 102.298927 31.198654 
L 102.147227 31.110944 
L 102.135707 31.023755 
L 101.880373 30.937083 
L 101.804381 30.850921 
L 101.64448 30.765262 
L 101.554285 30.427551 
L 101.487268 30.344325 
L 101.387916 30.220368 
L 101.129488 30.138308 
L 101.023632 29.975556 
L 100.801069 29.894852 
L 100.76256 29.695019 
L 100.57628 29.615842 
L 100.558521 29.537092 
L 100.374345 29.458762 
L 100.317651 29.187861 
L 100.182486 29.111372 
L 100.121933 28.959583 
L 99.801807 28.884273 
L 99.727514 28.734807 
L 99.563017 28.6237 
L 99.460512 28.440373 
L 99.330624 28.331469 
L 99.228742 28.223368 
L 99.05627 28.116059 
L 98.959611 28.044954 
L 98.75554 27.93894 
L 98.740226 27.868688 
L 98.468013 27.763937 
L 98.427211 27.591 
L 97.948182 27.48821 
L 97.889109 27.386135 
L 97.600169 27.284768 
L 97.600169 27.251134 
L 97.335473 27.150693 
L 97.237 27.017834 
L 97.041877 26.918975 
L 96.960638 26.853437 
L 96.815208 26.755678 
L 96.721562 26.626338 
L 96.535611 26.530078 
L 96.456128 26.466254 
L 96.134119 26.371036 
L 96.024599 26.15124 
L 95.815942 26.058042 
L 95.724977 25.965433 
L 95.611238 25.873406 
L 95.604798 25.812374 
L 95.176381 25.721301 
L 95.082843 25.510973 
L 94.752144 25.421749 
L 94.695489 25.303623 
L 94.551489 25.215649 
L 94.442066 25.041271 
L 94.307044 24.954854 
L 94.209738 24.783535 
L 93.981795 24.698622 
L 93.896729 24.558183 
L 93.771958 24.474562 
L 93.674784 24.419079 
L 93.475438 24.308739 
L 93.388229 24.144772 
L 93.136543 24.036471 
L 93.080948 23.928965 
L 92.469319 23.822243 
L 92.390894 23.716293 
L 92.157876 23.611103 
L 92.091903 23.506664 
L 91.825157 23.402963 
L 91.735833 23.351387 
L 91.512264 23.248777 
L 91.410911 23.121516 
L 91.240206 23.020498 
L 91.137574 22.870265 
L 90.985399 22.770959 
L 90.890791 22.598777 
L 90.6221 22.501289 
L 90.546582 22.452787 
L 90.180257 22.356262 
L 90.109216 22.308237 
L 89.93192 22.212657 
L 89.862015 22.094053 
L 89.650549 21.999856 
L 89.562199 21.859686 
L 89.343033 21.76698 
L 89.343033 21.743895 
L 89.012274 21.651916 
L 88.911276 21.583309 
L 88.764179 21.49233 
L 88.733355 21.447051 
L 88.074925 21.356912 
L 87.974938 21.267324 
L 87.827367 21.178281 
L 87.724909 21.067732 
L 87.023778 20.958012 
L 86.936365 20.849107 
L 86.696249 20.741007 
L 86.675903 20.697989 
L 86.323364 20.590994 
L 86.216926 20.484774 
L 85.635936 20.37932 
L 85.635936 20.358319 
L 85.264559 20.253768 
L 85.230662 20.212156 
L 84.677298 20.108639 
L 84.586679 20.005848 
L 84.089372 19.903774 
L 84.020963 19.842869 
L 83.53826 19.741921 
L 83.447446 19.681684 
L 83.08512 19.581836 
L 82.981062 19.462911 
L 82.56929 19.364538 
L 82.469607 19.30583 
L 82.062512 19.208504 
L 81.98304 19.150417 
L 81.446098 19.054114 
L 81.35016 18.958441 
L 81.030727 18.863388 
L 80.931159 18.787787 
L 80.676373 18.693832 
L 80.671634 18.656418 
L 80.240245 18.563299 
L 80.193972 18.50771 
L 79.782629 18.397162 
L 79.782629 18.378818 
L 79.278568 18.269234 
L 79.177119 18.196632 
L 78.763331 18.088398 
L 78.676317 17.99881 
L 78.046168 17.892023 
L 77.957857 17.83892 
L 77.60868 17.733287 
L 77.60868 17.715756 
L 77.063913 17.611005 
L 76.968291 17.541585 
L 76.478758 17.438068 
L 76.478758 17.420886 
L 76.178513 17.318216 
L 76.084281 17.284152 
L 75.854181 17.182432 
L 75.776654 17.131836 
L 75.222816 17.031165 
L 75.222816 17.014453 
L 74.228533 16.914583 
L 74.180969 16.881444 
L 73.660159 16.782473 
L 73.633834 16.749631 
L 72.852417 16.651544 
L 72.751867 16.618994 
L 72.249309 16.521775 
L 72.148612 16.473407 
L 71.494941 16.377146 
L 71.432711 16.329252 
L 70.330906 16.233931 
L 70.267243 16.202295 
L 68.715921 16.092103 
L 68.673501 16.045131 
L 68.033192 15.93611 
L 67.96031 15.889635 
L 67.075208 15.781761 
L 67.075208 15.766415 
L 64.257352 15.659443 
L 64.257352 15.644224 
L 62.17579 15.538137 
L 62.14706 15.507967 
L 59.839409 15.402858 
L 59.773909 15.372965 
L 57.455735 15.268817 
L 57.455735 15.253999 
L 49.411859 15.150691 
L 49.411859 15.135992 
L 44.900795 15.106638 
L 44.900795 15.106638 
" clip-path="url(#p986ebc6a26)" style="fill: none; stroke: #1f77b4; stroke-width: 1.3; stroke-linecap: round"/>
   </g>
   <g id="patch_3">
    <path d="M 39.635321 121.332274 
L 39.635321 10.048274 
" style="fill: none; stroke: #000000; stroke-linejoin: miter; stroke-linecap: square"/>
   </g>
   <g id="patch_4">
    <path d="M 39.635321 121.332274 
L 155.475753 121.332274 
" style="fill: none; stroke: #000000; stroke-linejoin: miter; stroke-linecap: square"/>
   </g>
   <g id="text_10">
    <!-- Lognormal: -->
    <g transform="translate(104.831065 16.886868) scale(0.09 -0.09)">
     <defs>
      <path id="DejaVuSans-4c" d="M 628 4666 
L 1259 4666 
L 1259 531 
L 3531 531 
L 3531 0 
L 628 0 
L 628 4666 
z
" transform="scale(0.015625)"/>
      <path id="DejaVuSans-6f" d="M 1959 3097 
Q 1497 3097 1228 2736 
Q 959 2375 959 1747 
Q 959 1119 1226 758 
Q 1494 397 1959 397 
Q 2419 397 2687 759 
Q 2956 1122 2956 1747 
Q 2956 2369 2687 2733 
Q 2419 3097 1959 3097 
z
M 1959 3584 
Q 2709 3584 3137 3096 
Q 3566 2609 3566 1747 
Q 3566 888 3137 398 
Q 2709 -91 1959 -91 
Q 1206 -91 779 398 
Q 353 888 353 1747 
Q 353 2609 779 3096 
Q 1206 3584 1959 3584 
z
" transform="scale(0.015625)"/>
      <path id="DejaVuSans-67" d="M 2906 1791 
Q 2906 2416 2648 2759 
Q 2391 3103 1925 3103 
Q 1463 3103 1205 2759 
Q 947 2416 947 1791 
Q 947 1169 1205 825 
Q 1463 481 1925 481 
Q 2391 481 2648 825 
Q 2906 1169 2906 1791 
z
M 3481 434 
Q 3481 -459 3084 -895 
Q 2688 -1331 1869 -1331 
Q 1566 -1331 1297 -1286 
Q 1028 -1241 775 -1147 
L 775 -588 
Q 1028 -725 1275 -790 
Q 1522 -856 1778 -856 
Q 2344 -856 2625 -561 
Q 2906 -266 2906 331 
L 2906 616 
Q 2728 306 2450 153 
Q 2172 0 1784 0 
Q 1141 0 747 490 
Q 353 981 353 1791 
Q 353 2603 747 3093 
Q 1141 3584 1784 3584 
Q 2172 3584 2450 3431 
Q 2728 3278 2906 2969 
L 2906 3500 
L 3481 3500 
L 3481 434 
z
" transform="scale(0.015625)"/>
      <path id="DejaVuSans-6d" d="M 3328 2828 
Q 3544 3216 3844 3400 
Q 4144 3584 4550 3584 
Q 5097 3584 5394 3201 
Q 5691 2819 5691 2113 
L 5691 0 
L 5113 0 
L 5113 2094 
Q 5113 2597 4934 2840 
Q 4756 3084 4391 3084 
Q 3944 3084 3684 2787 
Q 3425 2491 3425 1978 
L 3425 0 
L 2847 0 
L 2847 2094 
Q 2847 2600 2669 2842 
Q 2491 3084 2119 3084 
Q 1678 3084 1418 2786 
Q 1159 2488 1159 1978 
L 1159 0 
L 581 0 
L 581 3500 
L 1159 3500 
L 1159 2956 
Q 1356 3278 1631 3431 
Q 1906 3584 2284 3584 
Q 2666 3584 2933 3390 
Q 3200 3197 3328 2828 
z
" transform="scale(0.015625)"/>
      <path id="DejaVuSans-6c" d="M 603 4863 
L 1178 4863 
L 1178 0 
L 603 0 
L 603 4863 
z
" transform="scale(0.015625)"/>
      <path id="DejaVuSans-3a" d="M 750 794 
L 1409 794 
L 1409 0 
L 750 0 
L 750 794 
z
M 750 3309 
L 1409 3309 
L 1409 2516 
L 750 2516 
L 750 3309 
z
" transform="scale(0.015625)"/>
     </defs>
     <use xlink:href="#DejaVuSans-4c"/>
     <use xlink:href="#DejaVuSans-6f" x="53.962891"/>
     <use xlink:href="#DejaVuSans-67" x="115.144531"/>
     <use xlink:href="#DejaVuSans-6e" x="178.621094"/>
     <use xlink:href="#DejaVuSans-6f" x="242"/>
     <use xlink:href="#DejaVuSans-72" x="303.181641"/>
     <use xlink:href="#DejaVuSans-6d" x="342.544922"/>
     <use xlink:href="#DejaVuSans-61" x="439.957031"/>
     <use xlink:href="#DejaVuSans-6c" x="501.236328"/>
     <use xlink:href="#DejaVuSans-3a" x="529.019531"/>
    </g>
    <!-- $\sigma = 1$ -->
    <g transform="translate(132.975753 26.964899) scale(0.09 -0.09)">
     <defs>
      <path id="DejaVuSans-Oblique-3c3" d="M 2219 3044 
Q 1744 3044 1422 2700 
Q 1081 2341 969 1747 
Q 844 1119 1044 756 
Q 1241 397 1706 397 
Q 2166 397 2503 759 
Q 2844 1122 2966 1747 
Q 3075 2319 2881 2700 
Q 2700 3044 2219 3044 
z
M 2309 3503 
L 4219 3500 
L 4106 2925 
L 3463 2925 
Q 3706 2438 3575 1747 
Q 3406 888 2884 400 
Q 2359 -91 1609 -91 
Q 856 -91 525 400 
Q 194 888 363 1747 
Q 528 2609 1050 3097 
Q 1484 3503 2309 3503 
z
" transform="scale(0.015625)"/>
      <path id="DejaVuSans-3d" d="M 678 2906 
L 4684 2906 
L 4684 2381 
L 678 2381 
L 678 2906 
z
M 678 1631 
L 4684 1631 
L 4684 1100 
L 678 1100 
L 678 1631 
z
" transform="scale(0.015625)"/>
     </defs>
     <use xlink:href="#DejaVuSans-Oblique-3c3" transform="translate(0 0.09375)"/>
     <use xlink:href="#DejaVuSans-3d" transform="translate(82.861328 0.09375)"/>
     <use xlink:href="#DejaVuSans-31" transform="translate(186.132812 0.09375)"/>
    </g>
    <!-- S=1000 -->
    <g transform="translate(119.31544 37.042931) scale(0.09 -0.09)">
     <defs>
      <path id="DejaVuSans-53" d="M 3425 4513 
L 3425 3897 
Q 3066 4069 2747 4153 
Q 2428 4238 2131 4238 
Q 1616 4238 1336 4038 
Q 1056 3838 1056 3469 
Q 1056 3159 1242 3001 
Q 1428 2844 1947 2747 
L 2328 2669 
Q 3034 2534 3370 2195 
Q 3706 1856 3706 1288 
Q 3706 609 3251 259 
Q 2797 -91 1919 -91 
Q 1588 -91 1214 -16 
Q 841 59 441 206 
L 441 856 
Q 825 641 1194 531 
Q 1563 422 1919 422 
Q 2459 422 2753 634 
Q 3047 847 3047 1241 
Q 3047 1584 2836 1778 
Q 2625 1972 2144 2069 
L 1759 2144 
Q 1053 2284 737 2584 
Q 422 2884 422 3419 
Q 422 4038 858 4394 
Q 1294 4750 2059 4750 
Q 2388 4750 2728 4690 
Q 3069 4631 3425 4513 
z
" transform="scale(0.015625)"/>
     </defs>
     <use xlink:href="#DejaVuSans-53"/>
     <use xlink:href="#DejaVuSans-3d" x="63.476562"/>
     <use xlink:href="#DejaVuSans-31" x="147.265625"/>
     <use xlink:href="#DejaVuSans-30" x="210.888672"/>
     <use xlink:href="#DejaVuSans-30" x="274.511719"/>
     <use xlink:href="#DejaVuSans-30" x="338.134766"/>
    </g>
   </g>
   <g id="text_11">
    <!-- A -->
    <g transform="translate(7.2 17.999708) scale(0.09 -0.09)">
     <defs>
      <path id="DejaVuSans-Bold-41" d="M 3419 850 
L 1538 850 
L 1241 0 
L 31 0 
L 1759 4666 
L 3194 4666 
L 4922 0 
L 3713 0 
L 3419 850 
z
M 1838 1716 
L 3116 1716 
L 2478 3572 
L 1838 1716 
z
" transform="scale(0.015625)"/>
     </defs>
     <use xlink:href="#DejaVuSans-Bold-41"/>
    </g>
   </g>
  </g>
  <g id="axes_2">
   <g id="patch_5">
    <path d="M 204.395321 121.332274 
L 320.235753 121.332274 
L 320.235753 10.048274 
L 204.395321 10.048274 
z
" style="fill: #ffffff"/>
   </g>
   <g id="matplotlib.axis_3">
    <g id="xtick_28">
     <g id="line2d_59">
      <g>
       <use xlink:href="#me7b5078c80" x="204.395321" y="121.332274" style="stroke: #000000; stroke-width: 0.8"/>
      </g>
     </g>
     <g id="text_12">
      <!-- $\mathdefault{10^{1}}$ -->
      <g transform="translate(197.797961 131.028823) scale(0.07497 -0.07497)">
       <use xlink:href="#DejaVuSans-31" transform="translate(0 0.684375)"/>
       <use xlink:href="#DejaVuSans-30" transform="translate(63.623047 0.684375)"/>
       <use xlink:href="#DejaVuSans-31" transform="translate(128.203125 38.965625) scale(0.7)"/>
      </g>
     </g>
    </g>
    <g id="xtick_29">
     <g id="line2d_60">
      <g>
       <use xlink:href="#me7b5078c80" x="243.008798" y="121.332274" style="stroke: #000000; stroke-width: 0.8"/>
      </g>
     </g>
     <g id="text_13">
      <!-- $\mathdefault{10^{2}}$ -->
      <g transform="translate(236.411438 131.028823) scale(0.07497 -0.07497)">
       <use xlink:href="#DejaVuSans-31" transform="translate(0 0.765625)"/>
       <use xlink:href="#DejaVuSans-30" transform="translate(63.623047 0.765625)"/>
       <use xlink:href="#DejaVuSans-32" transform="translate(128.203125 39.046875) scale(0.7)"/>
      </g>
     </g>
    </g>
    <g id="xtick_30">
     <g id="line2d_61">
      <g>
       <use xlink:href="#me7b5078c80" x="281.622275" y="121.332274" style="stroke: #000000; stroke-width: 0.8"/>
      </g>
     </g>
     <g id="text_14">
      <!-- $\mathdefault{10^{3}}$ -->
      <g transform="translate(275.024915 131.028823) scale(0.07497 -0.07497)">
       <use xlink:href="#DejaVuSans-31" transform="translate(0 0.765625)"/>
       <use xlink:href="#DejaVuSans-30" transform="translate(63.623047 0.765625)"/>
       <use xlink:href="#DejaVuSans-33" transform="translate(128.203125 39.046875) scale(0.7)"/>
      </g>
     </g>
    </g>
    <g id="xtick_31">
     <g id="line2d_62">
      <g>
       <use xlink:href="#me7b5078c80" x="320.235753" y="121.332274" style="stroke: #000000; stroke-width: 0.8"/>
      </g>
     </g>
     <g id="text_15">
      <!-- $\mathdefault{10^{4}}$ -->
      <g transform="translate(313.638393 131.028823) scale(0.07497 -0.07497)">
       <use xlink:href="#DejaVuSans-31" transform="translate(0 0.684375)"/>
       <use xlink:href="#DejaVuSans-30" transform="translate(63.623047 0.684375)"/>
       <use xlink:href="#DejaVuSans-34" transform="translate(128.203125 38.965625) scale(0.7)"/>
      </g>
     </g>
    </g>
    <g id="xtick_32">
     <g id="line2d_63">
      <g>
       <use xlink:href="#me6ac1a1369" x="216.019136" y="121.332274" style="stroke: #000000; stroke-width: 0.4"/>
      </g>
     </g>
    </g>
    <g id="xtick_33">
     <g id="line2d_64">
      <g>
       <use xlink:href="#me6ac1a1369" x="222.818632" y="121.332274" style="stroke: #000000; stroke-width: 0.4"/>
      </g>
     </g>
    </g>
    <g id="xtick_34">
     <g id="line2d_65">
      <g>
       <use xlink:href="#me6ac1a1369" x="227.642951" y="121.332274" style="stroke: #000000; stroke-width: 0.4"/>
      </g>
     </g>
    </g>
    <g id="xtick_35">
     <g id="line2d_66">
      <g>
       <use xlink:href="#me6ac1a1369" x="231.384983" y="121.332274" style="stroke: #000000; stroke-width: 0.4"/>
      </g>
     </g>
    </g>
    <g id="xtick_36">
     <g id="line2d_67">
      <g>
       <use xlink:href="#me6ac1a1369" x="234.442446" y="121.332274" style="stroke: #000000; stroke-width: 0.4"/>
      </g>
     </g>
    </g>
    <g id="xtick_37">
     <g id="line2d_68">
      <g>
       <use xlink:href="#me6ac1a1369" x="237.027495" y="121.332274" style="stroke: #000000; stroke-width: 0.4"/>
      </g>
     </g>
    </g>
    <g id="xtick_38">
     <g id="line2d_69">
      <g>
       <use xlink:href="#me6ac1a1369" x="239.266766" y="121.332274" style="stroke: #000000; stroke-width: 0.4"/>
      </g>
     </g>
    </g>
    <g id="xtick_39">
     <g id="line2d_70">
      <g>
       <use xlink:href="#me6ac1a1369" x="241.241942" y="121.332274" style="stroke: #000000; stroke-width: 0.4"/>
      </g>
     </g>
    </g>
    <g id="xtick_40">
     <g id="line2d_71">
      <g>
       <use xlink:href="#me6ac1a1369" x="254.632613" y="121.332274" style="stroke: #000000; stroke-width: 0.4"/>
      </g>
     </g>
    </g>
    <g id="xtick_41">
     <g id="line2d_72">
      <g>
       <use xlink:href="#me6ac1a1369" x="261.432109" y="121.332274" style="stroke: #000000; stroke-width: 0.4"/>
      </g>
     </g>
    </g>
    <g id="xtick_42">
     <g id="line2d_73">
      <g>
       <use xlink:href="#me6ac1a1369" x="266.256428" y="121.332274" style="stroke: #000000; stroke-width: 0.4"/>
      </g>
     </g>
    </g>
    <g id="xtick_43">
     <g id="line2d_74">
      <g>
       <use xlink:href="#me6ac1a1369" x="269.99846" y="121.332274" style="stroke: #000000; stroke-width: 0.4"/>
      </g>
     </g>
    </g>
    <g id="xtick_44">
     <g id="line2d_75">
      <g>
       <use xlink:href="#me6ac1a1369" x="273.055924" y="121.332274" style="stroke: #000000; stroke-width: 0.4"/>
      </g>
     </g>
    </g>
    <g id="xtick_45">
     <g id="line2d_76">
      <g>
       <use xlink:href="#me6ac1a1369" x="275.640972" y="121.332274" style="stroke: #000000; stroke-width: 0.4"/>
      </g>
     </g>
    </g>
    <g id="xtick_46">
     <g id="line2d_77">
      <g>
       <use xlink:href="#me6ac1a1369" x="277.880243" y="121.332274" style="stroke: #000000; stroke-width: 0.4"/>
      </g>
     </g>
    </g>
    <g id="xtick_47">
     <g id="line2d_78">
      <g>
       <use xlink:href="#me6ac1a1369" x="279.85542" y="121.332274" style="stroke: #000000; stroke-width: 0.4"/>
      </g>
     </g>
    </g>
    <g id="xtick_48">
     <g id="line2d_79">
      <g>
       <use xlink:href="#me6ac1a1369" x="293.24609" y="121.332274" style="stroke: #000000; stroke-width: 0.4"/>
      </g>
     </g>
    </g>
    <g id="xtick_49">
     <g id="line2d_80">
      <g>
       <use xlink:href="#me6ac1a1369" x="300.045586" y="121.332274" style="stroke: #000000; stroke-width: 0.4"/>
      </g>
     </g>
    </g>
    <g id="xtick_50">
     <g id="line2d_81">
      <g>
       <use xlink:href="#me6ac1a1369" x="304.869905" y="121.332274" style="stroke: #000000; stroke-width: 0.4"/>
      </g>
     </g>
    </g>
    <g id="xtick_51">
     <g id="line2d_82">
      <g>
       <use xlink:href="#me6ac1a1369" x="308.611938" y="121.332274" style="stroke: #000000; stroke-width: 0.4"/>
      </g>
     </g>
    </g>
    <g id="xtick_52">
     <g id="line2d_83">
      <g>
       <use xlink:href="#me6ac1a1369" x="311.669401" y="121.332274" style="stroke: #000000; stroke-width: 0.4"/>
      </g>
     </g>
    </g>
    <g id="xtick_53">
     <g id="line2d_84">
      <g>
       <use xlink:href="#me6ac1a1369" x="314.254449" y="121.332274" style="stroke: #000000; stroke-width: 0.4"/>
      </g>
     </g>
    </g>
    <g id="xtick_54">
     <g id="line2d_85">
      <g>
       <use xlink:href="#me6ac1a1369" x="316.49372" y="121.332274" style="stroke: #000000; stroke-width: 0.4"/>
      </g>
     </g>
    </g>
    <g id="xtick_55">
     <g id="line2d_86">
      <g>
       <use xlink:href="#me6ac1a1369" x="318.468897" y="121.332274" style="stroke: #000000; stroke-width: 0.4"/>
      </g>
     </g>
    </g>
    <g id="text_16">
     <!-- Sample Size N -->
     <g transform="translate(229.977412 140.926558) scale(0.09 -0.09)">
      <defs>
       <path id="DejaVuSans-70" d="M 1159 525 
L 1159 -1331 
L 581 -1331 
L 581 3500 
L 1159 3500 
L 1159 2969 
Q 1341 3281 1617 3432 
Q 1894 3584 2278 3584 
Q 2916 3584 3314 3078 
Q 3713 2572 3713 1747 
Q 3713 922 3314 415 
Q 2916 -91 2278 -91 
Q 1894 -91 1617 61 
Q 1341 213 1159 525 
z
M 3116 1747 
Q 3116 2381 2855 2742 
Q 2594 3103 2138 3103 
Q 1681 3103 1420 2742 
Q 1159 2381 1159 1747 
Q 1159 1113 1420 752 
Q 1681 391 2138 391 
Q 2594 391 2855 752 
Q 3116 1113 3116 1747 
z
" transform="scale(0.015625)"/>
       <path id="DejaVuSans-20" transform="scale(0.015625)"/>
       <path id="DejaVuSans-69" d="M 603 3500 
L 1178 3500 
L 1178 0 
L 603 0 
L 603 3500 
z
M 603 4863 
L 1178 4863 
L 1178 4134 
L 603 4134 
L 603 4863 
z
" transform="scale(0.015625)"/>
       <path id="DejaVuSans-7a" d="M 353 3500 
L 3084 3500 
L 3084 2975 
L 922 459 
L 3084 459 
L 3084 0 
L 275 0 
L 275 525 
L 2438 3041 
L 353 3041 
L 353 3500 
z
" transform="scale(0.015625)"/>
       <path id="DejaVuSans-4e" d="M 628 4666 
L 1478 4666 
L 3547 763 
L 3547 4666 
L 4159 4666 
L 4159 0 
L 3309 0 
L 1241 3903 
L 1241 0 
L 628 0 
L 628 4666 
z
" transform="scale(0.015625)"/>
      </defs>
      <use xlink:href="#DejaVuSans-53"/>
      <use xlink:href="#DejaVuSans-61" x="63.476562"/>
      <use xlink:href="#DejaVuSans-6d" x="124.755859"/>
      <use xlink:href="#DejaVuSans-70" x="222.167969"/>
      <use xlink:href="#DejaVuSans-6c" x="285.644531"/>
      <use xlink:href="#DejaVuSans-65" x="313.427734"/>
      <use xlink:href="#DejaVuSans-20" x="374.951172"/>
      <use xlink:href="#DejaVuSans-53" x="406.738281"/>
      <use xlink:href="#DejaVuSans-69" x="470.214844"/>
      <use xlink:href="#DejaVuSans-7a" x="497.998047"/>
      <use xlink:href="#DejaVuSans-65" x="550.488281"/>
      <use xlink:href="#DejaVuSans-20" x="612.011719"/>
      <use xlink:href="#DejaVuSans-4e" x="643.798828"/>
     </g>
    </g>
   </g>
   <g id="matplotlib.axis_4">
    <g id="ytick_31">
     <g id="line2d_87">
      <g>
       <use xlink:href="#mcb31f62d44" x="204.395321" y="121.332274" style="stroke: #000000; stroke-width: 0.8"/>
      </g>
     </g>
     <g id="text_17">
      <!-- −1.0 -->
      <g transform="translate(182.190496 124.180549) scale(0.07497 -0.07497)">
       <defs>
        <path id="DejaVuSans-2e" d="M 684 794 
L 1344 794 
L 1344 0 
L 684 0 
L 684 794 
z
" transform="scale(0.015625)"/>
       </defs>
       <use xlink:href="#DejaVuSans-2212"/>
       <use xlink:href="#DejaVuSans-31" x="83.789062"/>
       <use xlink:href="#DejaVuSans-2e" x="147.412109"/>
       <use xlink:href="#DejaVuSans-30" x="179.199219"/>
      </g>
     </g>
    </g>
    <g id="ytick_32">
     <g id="line2d_88">
      <g>
       <use xlink:href="#mcb31f62d44" x="204.395321" y="93.511274" style="stroke: #000000; stroke-width: 0.8"/>
      </g>
     </g>
     <g id="text_18">
      <!-- −0.5 -->
      <g transform="translate(182.190496 96.359549) scale(0.07497 -0.07497)">
       <defs>
        <path id="DejaVuSans-35" d="M 691 4666 
L 3169 4666 
L 3169 4134 
L 1269 4134 
L 1269 2991 
Q 1406 3038 1543 3061 
Q 1681 3084 1819 3084 
Q 2600 3084 3056 2656 
Q 3513 2228 3513 1497 
Q 3513 744 3044 326 
Q 2575 -91 1722 -91 
Q 1428 -91 1123 -41 
Q 819 9 494 109 
L 494 744 
Q 775 591 1075 516 
Q 1375 441 1709 441 
Q 2250 441 2565 725 
Q 2881 1009 2881 1497 
Q 2881 1984 2565 2268 
Q 2250 2553 1709 2553 
Q 1456 2553 1204 2497 
Q 953 2441 691 2322 
L 691 4666 
z
" transform="scale(0.015625)"/>
       </defs>
       <use xlink:href="#DejaVuSans-2212"/>
       <use xlink:href="#DejaVuSans-30" x="83.789062"/>
       <use xlink:href="#DejaVuSans-2e" x="147.412109"/>
       <use xlink:href="#DejaVuSans-35" x="179.199219"/>
      </g>
     </g>
    </g>
    <g id="ytick_33">
     <g id="line2d_89">
      <g>
       <use xlink:href="#mcb31f62d44" x="204.395321" y="65.690274" style="stroke: #000000; stroke-width: 0.8"/>
      </g>
     </g>
     <g id="text_19">
      <!-- 0.0 -->
      <g transform="translate(188.472748 68.538549) scale(0.07497 -0.07497)">
       <use xlink:href="#DejaVuSans-30"/>
       <use xlink:href="#DejaVuSans-2e" x="63.623047"/>
       <use xlink:href="#DejaVuSans-30" x="95.410156"/>
      </g>
     </g>
    </g>
    <g id="ytick_34">
     <g id="line2d_90">
      <g>
       <use xlink:href="#mcb31f62d44" x="204.395321" y="37.869274" style="stroke: #000000; stroke-width: 0.8"/>
      </g>
     </g>
     <g id="text_20">
      <!-- 0.5 -->
      <g transform="translate(188.472748 40.717549) scale(0.07497 -0.07497)">
       <use xlink:href="#DejaVuSans-30"/>
       <use xlink:href="#DejaVuSans-2e" x="63.623047"/>
       <use xlink:href="#DejaVuSans-35" x="95.410156"/>
      </g>
     </g>
    </g>
    <g id="ytick_35">
     <g id="line2d_91">
      <g>
       <use xlink:href="#mcb31f62d44" x="204.395321" y="10.048274" style="stroke: #000000; stroke-width: 0.8"/>
      </g>
     </g>
     <g id="text_21">
      <!-- 1.0 -->
      <g transform="translate(188.472748 12.896549) scale(0.07497 -0.07497)">
       <use xlink:href="#DejaVuSans-31"/>
       <use xlink:href="#DejaVuSans-2e" x="63.623047"/>
       <use xlink:href="#DejaVuSans-30" x="95.410156"/>
      </g>
     </g>
    </g>
    <g id="text_22">
     <!-- Bias -->
     <g transform="translate(178.818778 75.129727) rotate(-90) scale(0.09 -0.09)">
      <defs>
       <path id="DejaVuSans-42" d="M 1259 2228 
L 1259 519 
L 2272 519 
Q 2781 519 3026 730 
Q 3272 941 3272 1375 
Q 3272 1813 3026 2020 
Q 2781 2228 2272 2228 
L 1259 2228 
z
M 1259 4147 
L 1259 2741 
L 2194 2741 
Q 2656 2741 2882 2914 
Q 3109 3088 3109 3444 
Q 3109 3797 2882 3972 
Q 2656 4147 2194 4147 
L 1259 4147 
z
M 628 4666 
L 2241 4666 
Q 2963 4666 3353 4366 
Q 3744 4066 3744 3513 
Q 3744 3084 3544 2831 
Q 3344 2578 2956 2516 
Q 3422 2416 3680 2098 
Q 3938 1781 3938 1306 
Q 3938 681 3513 340 
Q 3088 0 2303 0 
L 628 0 
L 628 4666 
z
" transform="scale(0.015625)"/>
       <path id="DejaVuSans-73" d="M 2834 3397 
L 2834 2853 
Q 2591 2978 2328 3040 
Q 2066 3103 1784 3103 
Q 1356 3103 1142 2972 
Q 928 2841 928 2578 
Q 928 2378 1081 2264 
Q 1234 2150 1697 2047 
L 1894 2003 
Q 2506 1872 2764 1633 
Q 3022 1394 3022 966 
Q 3022 478 2636 193 
Q 2250 -91 1575 -91 
Q 1294 -91 989 -36 
Q 684 19 347 128 
L 347 722 
Q 666 556 975 473 
Q 1284 391 1588 391 
Q 1994 391 2212 530 
Q 2431 669 2431 922 
Q 2431 1156 2273 1281 
Q 2116 1406 1581 1522 
L 1381 1569 
Q 847 1681 609 1914 
Q 372 2147 372 2553 
Q 372 3047 722 3315 
Q 1072 3584 1716 3584 
Q 2034 3584 2315 3537 
Q 2597 3491 2834 3397 
z
" transform="scale(0.015625)"/>
      </defs>
      <use xlink:href="#DejaVuSans-42"/>
      <use xlink:href="#DejaVuSans-69" x="68.603516"/>
      <use xlink:href="#DejaVuSans-61" x="96.386719"/>
      <use xlink:href="#DejaVuSans-73" x="157.666016"/>
     </g>
    </g>
   </g>
   <g id="patch_6">
    <path d="M 204.395321 121.332274 
L 204.395321 10.048274 
L 229.513967 10.048274 
L 229.513967 121.332274 
z
" clip-path="url(#pe00705a0da)" style="fill: #1f77b4; opacity: 0.2; stroke: #1f77b4; stroke-width: 0.8; stroke-linejoin: miter"/>
   </g>
   <g id="patch_7">
    <path d="M 229.513967 121.332274 
L 229.513967 10.048274 
L 281.622275 10.048274 
L 281.622275 121.332274 
z
" clip-path="url(#pe00705a0da)" style="fill: #ff7f0e; opacity: 0.2; stroke: #ff7f0e; stroke-width: 0.8; stroke-linejoin: miter"/>
   </g>
   <g id="patch_8">
    <path d="M 281.622275 121.332274 
L 281.622275 10.048274 
L 320.235753 10.048274 
L 320.235753 121.332274 
z
" clip-path="url(#pe00705a0da)" style="fill: #2ca02c; opacity: 0.2; stroke: #2ca02c; stroke-width: 0.8; stroke-linejoin: miter"/>
   </g>
   <g id="line2d_92">
    <path d="M 204.395321 65.690274 
L 320.235753 65.690274 
" clip-path="url(#pe00705a0da)" style="fill: none; stroke: #000000; stroke-width: 1.3; stroke-linecap: round"/>
   </g>
   <g id="line2d_93">
    <path d="M 204.395321 62.787553 
L 210.037832 60.53933 
L 216.019136 54.257967 
L 222.250115 60.100395 
L 228.461143 70.452272 
L 234.719637 64.695028 
L 240.865081 67.088826 
L 247.017021 65.02904 
L 253.142947 65.633623 
L 259.22475 67.406099 
L 265.35207 63.932332 
L 271.443628 65.772718 
L 277.541451 65.188649 
L 283.642112 65.986957 
L 289.743405 65.458886 
L 295.843113 65.594307 
L 301.941073 66.037009 
L 308.038795 65.883609 
L 314.136649 65.967646 
L 320.235753 65.644173 
" clip-path="url(#pe00705a0da)" style="fill: none; stroke: #1f77b4; stroke-width: 2; stroke-linecap: round"/>
   </g>
   <g id="line2d_94">
    <path d="M 258.970378 -1 
L 259.22475 0.381306 
L 265.35207 17.776238 
L 271.443628 34.112148 
L 277.541451 43.414865 
L 283.642112 50.995207 
L 289.743405 55.080136 
L 295.843113 58.415882 
L 301.941073 61.06022 
L 308.038795 62.433223 
L 314.136649 63.572679 
L 320.235753 63.9813 
" clip-path="url(#pe00705a0da)" style="fill: none; stroke: #ff7f0e; stroke-linecap: round"/>
   </g>
   <g id="line2d_95">
    <path d="M 204.395321 47.619407 
L 210.037832 35.260659 
L 216.019136 25.965093 
L 222.250115 24.894459 
L 228.461143 36.855186 
L 234.719637 31.741947 
L 240.865081 35.648017 
L 247.017021 37.518074 
L 253.142947 42.095006 
L 259.22475 48.371508 
L 265.35207 48.809512 
L 271.443628 54.212128 
L 277.541451 56.559173 
L 283.642112 59.670073 
L 289.743405 60.88497 
L 295.843113 62.327385 
L 301.941073 63.719077 
L 308.038795 64.250425 
L 314.136649 64.82096 
L 320.235753 64.841679 
" clip-path="url(#pe00705a0da)" style="fill: none; stroke: #2ca02c; stroke-linecap: round"/>
   </g>
   <g id="line2d_96"/>
   <g id="patch_9">
    <path d="M 204.395321 121.332274 
L 204.395321 10.048274 
" style="fill: none; stroke: #000000; stroke-linejoin: miter; stroke-linecap: square"/>
   </g>
   <g id="patch_10">
    <path d="M 204.395321 121.332274 
L 320.235753 121.332274 
" style="fill: none; stroke: #000000; stroke-linejoin: miter; stroke-linecap: square"/>
   </g>
   <g id="text_23">
    <!-- B -->
    <g transform="translate(171.96 17.999708) scale(0.09 -0.09)">
     <defs>
      <path id="DejaVuSans-Bold-42" d="M 2456 2859 
Q 2741 2859 2887 2984 
Q 3034 3109 3034 3353 
Q 3034 3594 2887 3720 
Q 2741 3847 2456 3847 
L 1791 3847 
L 1791 2859 
L 2456 2859 
z
M 2497 819 
Q 2859 819 3042 972 
Q 3225 1125 3225 1434 
Q 3225 1738 3044 1889 
Q 2863 2041 2497 2041 
L 1791 2041 
L 1791 819 
L 2497 819 
z
M 3616 2497 
Q 4003 2384 4215 2081 
Q 4428 1778 4428 1338 
Q 4428 663 3972 331 
Q 3516 0 2584 0 
L 588 0 
L 588 4666 
L 2394 4666 
Q 3366 4666 3802 4372 
Q 4238 4078 4238 3431 
Q 4238 3091 4078 2852 
Q 3919 2613 3616 2497 
z
" transform="scale(0.015625)"/>
     </defs>
     <use xlink:href="#DejaVuSans-Bold-42"/>
    </g>
   </g>
   <g id="legend_1">
    <g id="patch_11">
     <path d="M 225.898584 119.082274 
L 298.73249 119.082274 
Q 300.53249 119.082274 300.53249 117.282274 
L 300.53249 72.091024 
Q 300.53249 70.291024 298.73249 70.291024 
L 225.898584 70.291024 
Q 224.098584 70.291024 224.098584 72.091024 
L 224.098584 117.282274 
Q 224.098584 119.082274 225.898584 119.082274 
z
" style="fill: #ffffff; opacity: 0.8; stroke: #cccccc; stroke-width: 0.8; stroke-linejoin: miter"/>
    </g>
    <g id="line2d_97">
     <path d="M 227.698584 77.579618 
L 233.323584 77.579618 
L 238.948584 77.579618 
" style="fill: none; stroke: #1f77b4; stroke-width: 2; stroke-linecap: round"/>
    </g>
    <g id="text_24">
     <!-- Unbiased -->
     <g transform="translate(243.448584 80.729618) scale(0.09 -0.09)">
      <defs>
       <path id="DejaVuSans-55" d="M 556 4666 
L 1191 4666 
L 1191 1831 
Q 1191 1081 1462 751 
Q 1734 422 2344 422 
Q 2950 422 3222 751 
Q 3494 1081 3494 1831 
L 3494 4666 
L 4128 4666 
L 4128 1753 
Q 4128 841 3676 375 
Q 3225 -91 2344 -91 
Q 1459 -91 1007 375 
Q 556 841 556 1753 
L 556 4666 
z
" transform="scale(0.015625)"/>
       <path id="DejaVuSans-62" d="M 3116 1747 
Q 3116 2381 2855 2742 
Q 2594 3103 2138 3103 
Q 1681 3103 1420 2742 
Q 1159 2381 1159 1747 
Q 1159 1113 1420 752 
Q 1681 391 2138 391 
Q 2594 391 2855 752 
Q 3116 1113 3116 1747 
z
M 1159 2969 
Q 1341 3281 1617 3432 
Q 1894 3584 2278 3584 
Q 2916 3584 3314 3078 
Q 3713 2572 3713 1747 
Q 3713 922 3314 415 
Q 2916 -91 2278 -91 
Q 1894 -91 1617 61 
Q 1341 213 1159 525 
L 1159 0 
L 581 0 
L 581 4863 
L 1159 4863 
L 1159 2969 
z
" transform="scale(0.015625)"/>
       <path id="DejaVuSans-64" d="M 2906 2969 
L 2906 4863 
L 3481 4863 
L 3481 0 
L 2906 0 
L 2906 525 
Q 2725 213 2448 61 
Q 2172 -91 1784 -91 
Q 1150 -91 751 415 
Q 353 922 353 1747 
Q 353 2572 751 3078 
Q 1150 3584 1784 3584 
Q 2172 3584 2448 3432 
Q 2725 3281 2906 2969 
z
M 947 1747 
Q 947 1113 1208 752 
Q 1469 391 1925 391 
Q 2381 391 2643 752 
Q 2906 1113 2906 1747 
Q 2906 2381 2643 2742 
Q 2381 3103 1925 3103 
Q 1469 3103 1208 2742 
Q 947 2381 947 1747 
z
" transform="scale(0.015625)"/>
      </defs>
      <use xlink:href="#DejaVuSans-55"/>
      <use xlink:href="#DejaVuSans-6e" x="73.193359"/>
      <use xlink:href="#DejaVuSans-62" x="136.572266"/>
      <use xlink:href="#DejaVuSans-69" x="200.048828"/>
      <use xlink:href="#DejaVuSans-61" x="227.832031"/>
      <use xlink:href="#DejaVuSans-73" x="289.111328"/>
      <use xlink:href="#DejaVuSans-65" x="341.210938"/>
      <use xlink:href="#DejaVuSans-64" x="402.734375"/>
     </g>
    </g>
    <g id="line2d_98">
     <path d="M 227.698584 88.539931 
L 233.323584 88.539931 
L 238.948584 88.539931 
" style="fill: none; stroke: #ff7f0e; stroke-linecap: round"/>
    </g>
    <g id="text_25">
     <!-- Plugin -->
     <g transform="translate(243.448584 91.689931) scale(0.09 -0.09)">
      <defs>
       <path id="DejaVuSans-50" d="M 1259 4147 
L 1259 2394 
L 2053 2394 
Q 2494 2394 2734 2622 
Q 2975 2850 2975 3272 
Q 2975 3691 2734 3919 
Q 2494 4147 2053 4147 
L 1259 4147 
z
M 628 4666 
L 2053 4666 
Q 2838 4666 3239 4311 
Q 3641 3956 3641 3272 
Q 3641 2581 3239 2228 
Q 2838 1875 2053 1875 
L 1259 1875 
L 1259 0 
L 628 0 
L 628 4666 
z
" transform="scale(0.015625)"/>
      </defs>
      <use xlink:href="#DejaVuSans-50"/>
      <use xlink:href="#DejaVuSans-6c" x="60.302734"/>
      <use xlink:href="#DejaVuSans-75" x="88.085938"/>
      <use xlink:href="#DejaVuSans-67" x="151.464844"/>
      <use xlink:href="#DejaVuSans-69" x="214.941406"/>
      <use xlink:href="#DejaVuSans-6e" x="242.724609"/>
     </g>
    </g>
    <g id="line2d_99">
     <path d="M 227.698584 99.500243 
L 233.323584 99.500243 
L 238.948584 99.500243 
" style="fill: none; stroke: #2ca02c; stroke-linecap: round"/>
    </g>
    <g id="text_26">
     <!-- Grundmann -->
     <g transform="translate(243.448584 102.650243) scale(0.09 -0.09)">
      <defs>
       <path id="DejaVuSans-47" d="M 3809 666 
L 3809 1919 
L 2778 1919 
L 2778 2438 
L 4434 2438 
L 4434 434 
Q 4069 175 3628 42 
Q 3188 -91 2688 -91 
Q 1594 -91 976 548 
Q 359 1188 359 2328 
Q 359 3472 976 4111 
Q 1594 4750 2688 4750 
Q 3144 4750 3555 4637 
Q 3966 4525 4313 4306 
L 4313 3634 
Q 3963 3931 3569 4081 
Q 3175 4231 2741 4231 
Q 1884 4231 1454 3753 
Q 1025 3275 1025 2328 
Q 1025 1384 1454 906 
Q 1884 428 2741 428 
Q 3075 428 3337 486 
Q 3600 544 3809 666 
z
" transform="scale(0.015625)"/>
      </defs>
      <use xlink:href="#DejaVuSans-47"/>
      <use xlink:href="#DejaVuSans-72" x="77.490234"/>
      <use xlink:href="#DejaVuSans-75" x="118.603516"/>
      <use xlink:href="#DejaVuSans-6e" x="181.982422"/>
      <use xlink:href="#DejaVuSans-64" x="245.361328"/>
      <use xlink:href="#DejaVuSans-6d" x="308.837891"/>
      <use xlink:href="#DejaVuSans-61" x="406.25"/>
      <use xlink:href="#DejaVuSans-6e" x="467.529297"/>
      <use xlink:href="#DejaVuSans-6e" x="530.908203"/>
     </g>
    </g>
    <g id="line2d_100">
     <path d="M 227.698584 110.460556 
L 233.323584 110.460556 
L 238.948584 110.460556 
" style="fill: none; stroke: #d62728; stroke-linecap: round"/>
    </g>
    <g id="text_27">
     <!-- Chao -->
     <g transform="translate(243.448584 113.610556) scale(0.09 -0.09)">
      <defs>
       <path id="DejaVuSans-43" d="M 4122 4306 
L 4122 3641 
Q 3803 3938 3442 4084 
Q 3081 4231 2675 4231 
Q 1875 4231 1450 3742 
Q 1025 3253 1025 2328 
Q 1025 1406 1450 917 
Q 1875 428 2675 428 
Q 3081 428 3442 575 
Q 3803 722 4122 1019 
L 4122 359 
Q 3791 134 3420 21 
Q 3050 -91 2638 -91 
Q 1578 -91 968 557 
Q 359 1206 359 2328 
Q 359 3453 968 4101 
Q 1578 4750 2638 4750 
Q 3056 4750 3426 4639 
Q 3797 4528 4122 4306 
z
" transform="scale(0.015625)"/>
       <path id="DejaVuSans-68" d="M 3513 2113 
L 3513 0 
L 2938 0 
L 2938 2094 
Q 2938 2591 2744 2837 
Q 2550 3084 2163 3084 
Q 1697 3084 1428 2787 
Q 1159 2491 1159 1978 
L 1159 0 
L 581 0 
L 581 4863 
L 1159 4863 
L 1159 2956 
Q 1366 3272 1645 3428 
Q 1925 3584 2291 3584 
Q 2894 3584 3203 3211 
Q 3513 2838 3513 2113 
z
" transform="scale(0.015625)"/>
      </defs>
      <use xlink:href="#DejaVuSans-43"/>
      <use xlink:href="#DejaVuSans-68" x="69.824219"/>
      <use xlink:href="#DejaVuSans-61" x="133.203125"/>
      <use xlink:href="#DejaVuSans-6f" x="194.482422"/>
     </g>
    </g>
   </g>
  </g>
  <g id="axes_3">
   <g id="patch_12">
    <path d="M 369.155321 121.332274 
L 484.995753 121.332274 
L 484.995753 10.048274 
L 369.155321 10.048274 
z
" style="fill: #ffffff"/>
   </g>
   <g id="matplotlib.axis_5">
    <g id="xtick_56">
     <g id="line2d_101">
      <g>
       <use xlink:href="#me7b5078c80" x="369.155321" y="121.332274" style="stroke: #000000; stroke-width: 0.8"/>
      </g>
     </g>
     <g id="text_28">
      <!-- $\mathdefault{10^{1}}$ -->
      <g transform="translate(362.557961 131.028823) scale(0.07497 -0.07497)">
       <use xlink:href="#DejaVuSans-31" transform="translate(0 0.684375)"/>
       <use xlink:href="#DejaVuSans-30" transform="translate(63.623047 0.684375)"/>
       <use xlink:href="#DejaVuSans-31" transform="translate(128.203125 38.965625) scale(0.7)"/>
      </g>
     </g>
    </g>
    <g id="xtick_57">
     <g id="line2d_102">
      <g>
       <use xlink:href="#me7b5078c80" x="407.768798" y="121.332274" style="stroke: #000000; stroke-width: 0.8"/>
      </g>
     </g>
     <g id="text_29">
      <!-- $\mathdefault{10^{2}}$ -->
      <g transform="translate(401.171438 131.028823) scale(0.07497 -0.07497)">
       <use xlink:href="#DejaVuSans-31" transform="translate(0 0.765625)"/>
       <use xlink:href="#DejaVuSans-30" transform="translate(63.623047 0.765625)"/>
       <use xlink:href="#DejaVuSans-32" transform="translate(128.203125 39.046875) scale(0.7)"/>
      </g>
     </g>
    </g>
    <g id="xtick_58">
     <g id="line2d_103">
      <g>
       <use xlink:href="#me7b5078c80" x="446.382275" y="121.332274" style="stroke: #000000; stroke-width: 0.8"/>
      </g>
     </g>
     <g id="text_30">
      <!-- $\mathdefault{10^{3}}$ -->
      <g transform="translate(439.784915 131.028823) scale(0.07497 -0.07497)">
       <use xlink:href="#DejaVuSans-31" transform="translate(0 0.765625)"/>
       <use xlink:href="#DejaVuSans-30" transform="translate(63.623047 0.765625)"/>
       <use xlink:href="#DejaVuSans-33" transform="translate(128.203125 39.046875) scale(0.7)"/>
      </g>
     </g>
    </g>
    <g id="xtick_59">
     <g id="line2d_104">
      <g>
       <use xlink:href="#me7b5078c80" x="484.995753" y="121.332274" style="stroke: #000000; stroke-width: 0.8"/>
      </g>
     </g>
     <g id="text_31">
      <!-- $\mathdefault{10^{4}}$ -->
      <g transform="translate(478.398393 131.028823) scale(0.07497 -0.07497)">
       <use xlink:href="#DejaVuSans-31" transform="translate(0 0.684375)"/>
       <use xlink:href="#DejaVuSans-30" transform="translate(63.623047 0.684375)"/>
       <use xlink:href="#DejaVuSans-34" transform="translate(128.203125 38.965625) scale(0.7)"/>
      </g>
     </g>
    </g>
    <g id="xtick_60">
     <g id="line2d_105">
      <g>
       <use xlink:href="#me6ac1a1369" x="380.779136" y="121.332274" style="stroke: #000000; stroke-width: 0.4"/>
      </g>
     </g>
    </g>
    <g id="xtick_61">
     <g id="line2d_106">
      <g>
       <use xlink:href="#me6ac1a1369" x="387.578632" y="121.332274" style="stroke: #000000; stroke-width: 0.4"/>
      </g>
     </g>
    </g>
    <g id="xtick_62">
     <g id="line2d_107">
      <g>
       <use xlink:href="#me6ac1a1369" x="392.402951" y="121.332274" style="stroke: #000000; stroke-width: 0.4"/>
      </g>
     </g>
    </g>
    <g id="xtick_63">
     <g id="line2d_108">
      <g>
       <use xlink:href="#me6ac1a1369" x="396.144983" y="121.332274" style="stroke: #000000; stroke-width: 0.4"/>
      </g>
     </g>
    </g>
    <g id="xtick_64">
     <g id="line2d_109">
      <g>
       <use xlink:href="#me6ac1a1369" x="399.202446" y="121.332274" style="stroke: #000000; stroke-width: 0.4"/>
      </g>
     </g>
    </g>
    <g id="xtick_65">
     <g id="line2d_110">
      <g>
       <use xlink:href="#me6ac1a1369" x="401.787495" y="121.332274" style="stroke: #000000; stroke-width: 0.4"/>
      </g>
     </g>
    </g>
    <g id="xtick_66">
     <g id="line2d_111">
      <g>
       <use xlink:href="#me6ac1a1369" x="404.026766" y="121.332274" style="stroke: #000000; stroke-width: 0.4"/>
      </g>
     </g>
    </g>
    <g id="xtick_67">
     <g id="line2d_112">
      <g>
       <use xlink:href="#me6ac1a1369" x="406.001942" y="121.332274" style="stroke: #000000; stroke-width: 0.4"/>
      </g>
     </g>
    </g>
    <g id="xtick_68">
     <g id="line2d_113">
      <g>
       <use xlink:href="#me6ac1a1369" x="419.392613" y="121.332274" style="stroke: #000000; stroke-width: 0.4"/>
      </g>
     </g>
    </g>
    <g id="xtick_69">
     <g id="line2d_114">
      <g>
       <use xlink:href="#me6ac1a1369" x="426.192109" y="121.332274" style="stroke: #000000; stroke-width: 0.4"/>
      </g>
     </g>
    </g>
    <g id="xtick_70">
     <g id="line2d_115">
      <g>
       <use xlink:href="#me6ac1a1369" x="431.016428" y="121.332274" style="stroke: #000000; stroke-width: 0.4"/>
      </g>
     </g>
    </g>
    <g id="xtick_71">
     <g id="line2d_116">
      <g>
       <use xlink:href="#me6ac1a1369" x="434.75846" y="121.332274" style="stroke: #000000; stroke-width: 0.4"/>
      </g>
     </g>
    </g>
    <g id="xtick_72">
     <g id="line2d_117">
      <g>
       <use xlink:href="#me6ac1a1369" x="437.815924" y="121.332274" style="stroke: #000000; stroke-width: 0.4"/>
      </g>
     </g>
    </g>
    <g id="xtick_73">
     <g id="line2d_118">
      <g>
       <use xlink:href="#me6ac1a1369" x="440.400972" y="121.332274" style="stroke: #000000; stroke-width: 0.4"/>
      </g>
     </g>
    </g>
    <g id="xtick_74">
     <g id="line2d_119">
      <g>
       <use xlink:href="#me6ac1a1369" x="442.640243" y="121.332274" style="stroke: #000000; stroke-width: 0.4"/>
      </g>
     </g>
    </g>
    <g id="xtick_75">
     <g id="line2d_120">
      <g>
       <use xlink:href="#me6ac1a1369" x="444.61542" y="121.332274" style="stroke: #000000; stroke-width: 0.4"/>
      </g>
     </g>
    </g>
    <g id="xtick_76">
     <g id="line2d_121">
      <g>
       <use xlink:href="#me6ac1a1369" x="458.00609" y="121.332274" style="stroke: #000000; stroke-width: 0.4"/>
      </g>
     </g>
    </g>
    <g id="xtick_77">
     <g id="line2d_122">
      <g>
       <use xlink:href="#me6ac1a1369" x="464.805586" y="121.332274" style="stroke: #000000; stroke-width: 0.4"/>
      </g>
     </g>
    </g>
    <g id="xtick_78">
     <g id="line2d_123">
      <g>
       <use xlink:href="#me6ac1a1369" x="469.629905" y="121.332274" style="stroke: #000000; stroke-width: 0.4"/>
      </g>
     </g>
    </g>
    <g id="xtick_79">
     <g id="line2d_124">
      <g>
       <use xlink:href="#me6ac1a1369" x="473.371938" y="121.332274" style="stroke: #000000; stroke-width: 0.4"/>
      </g>
     </g>
    </g>
    <g id="xtick_80">
     <g id="line2d_125">
      <g>
       <use xlink:href="#me6ac1a1369" x="476.429401" y="121.332274" style="stroke: #000000; stroke-width: 0.4"/>
      </g>
     </g>
    </g>
    <g id="xtick_81">
     <g id="line2d_126">
      <g>
       <use xlink:href="#me6ac1a1369" x="479.014449" y="121.332274" style="stroke: #000000; stroke-width: 0.4"/>
      </g>
     </g>
    </g>
    <g id="xtick_82">
     <g id="line2d_127">
      <g>
       <use xlink:href="#me6ac1a1369" x="481.25372" y="121.332274" style="stroke: #000000; stroke-width: 0.4"/>
      </g>
     </g>
    </g>
    <g id="xtick_83">
     <g id="line2d_128">
      <g>
       <use xlink:href="#me6ac1a1369" x="483.228897" y="121.332274" style="stroke: #000000; stroke-width: 0.4"/>
      </g>
     </g>
    </g>
    <g id="text_32">
     <!-- Sample Size N -->
     <g transform="translate(394.737412 140.926558) scale(0.09 -0.09)">
      <use xlink:href="#DejaVuSans-53"/>
      <use xlink:href="#DejaVuSans-61" x="63.476562"/>
      <use xlink:href="#DejaVuSans-6d" x="124.755859"/>
      <use xlink:href="#DejaVuSans-70" x="222.167969"/>
      <use xlink:href="#DejaVuSans-6c" x="285.644531"/>
      <use xlink:href="#DejaVuSans-65" x="313.427734"/>
      <use xlink:href="#DejaVuSans-20" x="374.951172"/>
      <use xlink:href="#DejaVuSans-53" x="406.738281"/>
      <use xlink:href="#DejaVuSans-69" x="470.214844"/>
      <use xlink:href="#DejaVuSans-7a" x="497.998047"/>
      <use xlink:href="#DejaVuSans-65" x="550.488281"/>
      <use xlink:href="#DejaVuSans-20" x="612.011719"/>
      <use xlink:href="#DejaVuSans-4e" x="643.798828"/>
     </g>
    </g>
   </g>
   <g id="matplotlib.axis_6">
    <g id="ytick_36">
     <g id="line2d_129">
      <g>
       <use xlink:href="#mcb31f62d44" x="369.155321" y="121.332274" style="stroke: #000000; stroke-width: 0.8"/>
      </g>
     </g>
     <g id="text_33">
      <!-- 0.0 -->
      <g transform="translate(353.232748 124.180549) scale(0.07497 -0.07497)">
       <use xlink:href="#DejaVuSans-30"/>
       <use xlink:href="#DejaVuSans-2e" x="63.623047"/>
       <use xlink:href="#DejaVuSans-30" x="95.410156"/>
      </g>
     </g>
    </g>
    <g id="ytick_37">
     <g id="line2d_130">
      <g>
       <use xlink:href="#mcb31f62d44" x="369.155321" y="93.511274" style="stroke: #000000; stroke-width: 0.8"/>
      </g>
     </g>
     <g id="text_34">
      <!-- 0.5 -->
      <g transform="translate(353.232748 96.359549) scale(0.07497 -0.07497)">
       <use xlink:href="#DejaVuSans-30"/>
       <use xlink:href="#DejaVuSans-2e" x="63.623047"/>
       <use xlink:href="#DejaVuSans-35" x="95.410156"/>
      </g>
     </g>
    </g>
    <g id="ytick_38">
     <g id="line2d_131">
      <g>
       <use xlink:href="#mcb31f62d44" x="369.155321" y="65.690274" style="stroke: #000000; stroke-width: 0.8"/>
      </g>
     </g>
     <g id="text_35">
      <!-- 1.0 -->
      <g transform="translate(353.232748 68.538549) scale(0.07497 -0.07497)">
       <use xlink:href="#DejaVuSans-31"/>
       <use xlink:href="#DejaVuSans-2e" x="63.623047"/>
       <use xlink:href="#DejaVuSans-30" x="95.410156"/>
      </g>
     </g>
    </g>
    <g id="ytick_39">
     <g id="line2d_132">
      <g>
       <use xlink:href="#mcb31f62d44" x="369.155321" y="37.869274" style="stroke: #000000; stroke-width: 0.8"/>
      </g>
     </g>
     <g id="text_36">
      <!-- 1.5 -->
      <g transform="translate(353.232748 40.717549) scale(0.07497 -0.07497)">
       <use xlink:href="#DejaVuSans-31"/>
       <use xlink:href="#DejaVuSans-2e" x="63.623047"/>
       <use xlink:href="#DejaVuSans-35" x="95.410156"/>
      </g>
     </g>
    </g>
    <g id="ytick_40">
     <g id="line2d_133">
      <g>
       <use xlink:href="#mcb31f62d44" x="369.155321" y="10.048274" style="stroke: #000000; stroke-width: 0.8"/>
      </g>
     </g>
     <g id="text_37">
      <!-- 2.0 -->
      <g transform="translate(353.232748 12.896549) scale(0.07497 -0.07497)">
       <use xlink:href="#DejaVuSans-32"/>
       <use xlink:href="#DejaVuSans-2e" x="63.623047"/>
       <use xlink:href="#DejaVuSans-30" x="95.410156"/>
      </g>
     </g>
    </g>
    <g id="text_38">
     <!-- Variance -->
     <g transform="translate(349.861029 85.130274) rotate(-90) scale(0.09 -0.09)">
      <defs>
       <path id="DejaVuSans-56" d="M 1831 0 
L 50 4666 
L 709 4666 
L 2188 738 
L 3669 4666 
L 4325 4666 
L 2547 0 
L 1831 0 
z
" transform="scale(0.015625)"/>
      </defs>
      <use xlink:href="#DejaVuSans-56"/>
      <use xlink:href="#DejaVuSans-61" x="60.658203"/>
      <use xlink:href="#DejaVuSans-72" x="121.9375"/>
      <use xlink:href="#DejaVuSans-69" x="163.050781"/>
      <use xlink:href="#DejaVuSans-61" x="190.833984"/>
      <use xlink:href="#DejaVuSans-6e" x="252.113281"/>
      <use xlink:href="#DejaVuSans-63" x="315.492188"/>
      <use xlink:href="#DejaVuSans-65" x="370.472656"/>
     </g>
    </g>
   </g>
   <g id="patch_13">
    <path d="M 369.155321 121.332274 
L 369.155321 10.048274 
L 394.273967 10.048274 
L 394.273967 121.332274 
z
" clip-path="url(#pc56efdd95d)" style="fill: #1f77b4; opacity: 0.2; stroke: #1f77b4; stroke-width: 0.8; stroke-linejoin: miter"/>
   </g>
   <g id="patch_14">
    <path d="M 394.273967 121.332274 
L 394.273967 10.048274 
L 446.382275 10.048274 
L 446.382275 121.332274 
z
" clip-path="url(#pc56efdd95d)" style="fill: #ff7f0e; opacity: 0.2; stroke: #ff7f0e; stroke-width: 0.8; stroke-linejoin: miter"/>
   </g>
   <g id="patch_15">
    <path d="M 446.382275 121.332274 
L 446.382275 10.048274 
L 484.995753 10.048274 
L 484.995753 121.332274 
z
" clip-path="url(#pc56efdd95d)" style="fill: #2ca02c; opacity: 0.2; stroke: #2ca02c; stroke-width: 0.8; stroke-linejoin: miter"/>
   </g>
   <g id="line2d_134">
    <path d="M 391.677764 -1 
L 393.221143 36.434153 
L 397.063059 -1 
M 400.962426 -1 
L 405.625081 73.04144 
L 411.777021 79.290178 
L 417.902947 94.756139 
L 423.98475 105.418151 
L 430.11207 106.609696 
L 436.203628 110.409585 
L 442.301451 112.981616 
L 448.402112 116.578147 
L 454.503405 118.081122 
L 460.603113 118.907618 
L 466.701073 119.764419 
L 472.798795 120.23079 
L 478.896649 120.583333 
L 484.995753 120.770593 
" clip-path="url(#pc56efdd95d)" style="fill: none; stroke: #1f77b4; stroke-width: 2; stroke-linecap: round"/>
   </g>
   <g id="line2d_135">
    <path d="M 404.100213 -1 
L 405.625081 34.900626 
L 411.777021 56.976125 
L 417.902947 83.463528 
L 423.98475 99.628802 
L 430.11207 103.391881 
L 436.203628 108.703466 
L 442.301451 112.081738 
L 448.402112 116.178996 
L 454.503405 117.894721 
L 460.603113 118.807591 
L 466.701073 119.718253 
L 472.798795 120.208579 
L 478.896649 120.572583 
L 484.995753 120.76504 
" clip-path="url(#pc56efdd95d)" style="fill: none; stroke: #ff7f0e; stroke-linecap: round"/>
   </g>
   <g id="line2d_136">
    <path d="M 402.238794 -1 
L 405.625081 59.06401 
L 411.777021 70.833757 
L 417.902947 90.276 
L 423.98475 103.015534 
L 430.11207 105.262523 
L 436.203628 109.682901 
L 442.301451 112.594245 
L 448.402112 116.402778 
L 454.503405 117.99899 
L 460.603113 118.863191 
L 466.701073 119.743802 
L 472.798795 120.220867 
L 478.896649 120.578512 
L 484.995753 120.768103 
" clip-path="url(#pc56efdd95d)" style="fill: none; stroke: #2ca02c; stroke-linecap: round"/>
   </g>
   <g id="line2d_137"/>
   <g id="patch_16">
    <path d="M 369.155321 121.332274 
L 369.155321 10.048274 
" style="fill: none; stroke: #000000; stroke-linejoin: miter; stroke-linecap: square"/>
   </g>
   <g id="patch_17">
    <path d="M 369.155321 121.332274 
L 484.995753 121.332274 
" style="fill: none; stroke: #000000; stroke-linejoin: miter; stroke-linecap: square"/>
   </g>
   <g id="text_39">
    <!-- C -->
    <g transform="translate(336.72 17.999708) scale(0.09 -0.09)">
     <defs>
      <path id="DejaVuSans-Bold-43" d="M 4288 256 
Q 3956 84 3597 -3 
Q 3238 -91 2847 -91 
Q 1681 -91 1000 561 
Q 319 1213 319 2328 
Q 319 3447 1000 4098 
Q 1681 4750 2847 4750 
Q 3238 4750 3597 4662 
Q 3956 4575 4288 4403 
L 4288 3438 
Q 3953 3666 3628 3772 
Q 3303 3878 2944 3878 
Q 2300 3878 1931 3465 
Q 1563 3053 1563 2328 
Q 1563 1606 1931 1193 
Q 2300 781 2944 781 
Q 3303 781 3628 887 
Q 3953 994 4288 1222 
L 4288 256 
z
" transform="scale(0.015625)"/>
     </defs>
     <use xlink:href="#DejaVuSans-Bold-43"/>
    </g>
   </g>
  </g>
 </g>
 <defs>
  <clipPath id="p986ebc6a26">
   <rect x="39.635321" y="10.048274" width="115.840432" height="111.284"/>
  </clipPath>
  <clipPath id="pe00705a0da">
   <rect x="204.395321" y="10.048274" width="115.840432" height="111.284"/>
  </clipPath>
  <clipPath id="pc56efdd95d">
   <rect x="369.155321" y="10.048274" width="115.840432" height="111.284"/>
  </clipPath>
 </defs>
</svg>
