<?xml version="1.0" encoding="utf-8" standalone="no"?>
<!DOCTYPE svg PUBLIC "-//W3C//DTD SVG 1.1//EN"
  "http://www.w3.org/Graphics/SVG/1.1/DTD/svg11.dtd">
<svg xmlns:xlink="http://www.w3.org/1999/xlink" width="498.498501pt" height="149.998277pt" viewBox="0 0 498.498501 149.998277" xmlns="http://www.w3.org/2000/svg" version="1.1">
 <metadata>
  <rdf:RDF xmlns:dc="http://purl.org/dc/elements/1.1/" xmlns:cc="http://creativecommons.org/ns#" xmlns:rdf="http://www.w3.org/1999/02/22-rdf-syntax-ns#">
   <cc:Work>
    <dc:type rdf:resource="http://purl.org/dc/dcmitype/StillImage"/>
    <dc:date>2024-02-23T18:52:25.588063</dc:date>
    <dc:format>image/svg+xml</dc:format>
    <dc:creator>
     <cc:Agent>
      <dc:title>Matplotlib v3.7.0, https://matplotlib.org/</dc:title>
     </cc:Agent>
    </dc:creator>
   </cc:Work>
  </rdf:RDF>
 </metadata>
 <defs>
  <style type="text/css">*{stroke-linejoin: round; stroke-linecap: butt}</style>
 </defs>
 <g id="figure_1">
  <g id="patch_1">
   <path d="M 0 149.998277 
L 498.498501 149.998277 
L 498.498501 0 
L 0 0 
L 0 149.998277 
z
" style="fill: none"/>
  </g>
  <g id="axes_1">
   <g id="patch_2">
    <path d="M 37.043062 121.332274 
L 151.82407 121.332274 
L 151.82407 10.048274 
L 37.043062 10.048274 
z
" style="fill: #ffffff"/>
   </g>
   <g id="matplotlib.axis_1">
    <g id="xtick_1">
     <g id="line2d_1">
      <defs>
       <path id="m41a00ab543" d="M 0 2 
L 0 -2 
" style="stroke: #000000; stroke-width: 0.8"/>
      </defs>
      <g>
       <use xlink:href="#m41a00ab543" x="55.252024" y="121.332274" style="stroke: #000000; stroke-width: 0.8"/>
      </g>
     </g>
     <g id="text_1">
      <!-- $\mathdefault{10^{-4}}$ -->
      <g transform="translate(46.443049 131.028823) scale(0.07497 -0.07497)">
       <defs>
        <path id="DejaVuSans-31" d="M 794 531 
L 1825 531 
L 1825 4091 
L 703 3866 
L 703 4441 
L 1819 4666 
L 2450 4666 
L 2450 531 
L 3481 531 
L 3481 0 
L 794 0 
L 794 531 
z
" transform="scale(0.015625)"/>
        <path id="DejaVuSans-30" d="M 2034 4250 
Q 1547 4250 1301 3770 
Q 1056 3291 1056 2328 
Q 1056 1369 1301 889 
Q 1547 409 2034 409 
Q 2525 409 2770 889 
Q 3016 1369 3016 2328 
Q 3016 3291 2770 3770 
Q 2525 4250 2034 4250 
z
M 2034 4750 
Q 2819 4750 3233 4129 
Q 3647 3509 3647 2328 
Q 3647 1150 3233 529 
Q 2819 -91 2034 -91 
Q 1250 -91 836 529 
Q 422 1150 422 2328 
Q 422 3509 836 4129 
Q 1250 4750 2034 4750 
z
" transform="scale(0.015625)"/>
        <path id="DejaVuSans-2212" d="M 678 2272 
L 4684 2272 
L 4684 1741 
L 678 1741 
L 678 2272 
z
" transform="scale(0.015625)"/>
        <path id="DejaVuSans-34" d="M 2419 4116 
L 825 1625 
L 2419 1625 
L 2419 4116 
z
M 2253 4666 
L 3047 4666 
L 3047 1625 
L 3713 1625 
L 3713 1100 
L 3047 1100 
L 3047 0 
L 2419 0 
L 2419 1100 
L 313 1100 
L 313 1709 
L 2253 4666 
z
" transform="scale(0.015625)"/>
       </defs>
       <use xlink:href="#DejaVuSans-31" transform="translate(0 0.684375)"/>
       <use xlink:href="#DejaVuSans-30" transform="translate(63.623047 0.684375)"/>
       <use xlink:href="#DejaVuSans-2212" transform="translate(128.203125 38.965625) scale(0.7)"/>
       <use xlink:href="#DejaVuSans-34" transform="translate(186.855469 38.965625) scale(0.7)"/>
      </g>
     </g>
    </g>
    <g id="xtick_2">
     <g id="line2d_2">
      <g>
       <use xlink:href="#m41a00ab543" x="101.010082" y="121.332274" style="stroke: #000000; stroke-width: 0.8"/>
      </g>
     </g>
     <g id="text_2">
      <!-- $\mathdefault{10^{-3}}$ -->
      <g transform="translate(92.201107 131.028823) scale(0.07497 -0.07497)">
       <defs>
        <path id="DejaVuSans-33" d="M 2597 2516 
Q 3050 2419 3304 2112 
Q 3559 1806 3559 1356 
Q 3559 666 3084 287 
Q 2609 -91 1734 -91 
Q 1441 -91 1130 -33 
Q 819 25 488 141 
L 488 750 
Q 750 597 1062 519 
Q 1375 441 1716 441 
Q 2309 441 2620 675 
Q 2931 909 2931 1356 
Q 2931 1769 2642 2001 
Q 2353 2234 1838 2234 
L 1294 2234 
L 1294 2753 
L 1863 2753 
Q 2328 2753 2575 2939 
Q 2822 3125 2822 3475 
Q 2822 3834 2567 4026 
Q 2313 4219 1838 4219 
Q 1578 4219 1281 4162 
Q 984 4106 628 3988 
L 628 4550 
Q 988 4650 1302 4700 
Q 1616 4750 1894 4750 
Q 2613 4750 3031 4423 
Q 3450 4097 3450 3541 
Q 3450 3153 3228 2886 
Q 3006 2619 2597 2516 
z
" transform="scale(0.015625)"/>
       </defs>
       <use xlink:href="#DejaVuSans-31" transform="translate(0 0.765625)"/>
       <use xlink:href="#DejaVuSans-30" transform="translate(63.623047 0.765625)"/>
       <use xlink:href="#DejaVuSans-2212" transform="translate(128.203125 39.046875) scale(0.7)"/>
       <use xlink:href="#DejaVuSans-33" transform="translate(186.855469 39.046875) scale(0.7)"/>
      </g>
     </g>
    </g>
    <g id="xtick_3">
     <g id="line2d_3">
      <g>
       <use xlink:href="#m41a00ab543" x="146.76814" y="121.332274" style="stroke: #000000; stroke-width: 0.8"/>
      </g>
     </g>
     <g id="text_3">
      <!-- $\mathdefault{10^{-2}}$ -->
      <g transform="translate(137.959165 131.028823) scale(0.07497 -0.07497)">
       <defs>
        <path id="DejaVuSans-32" d="M 1228 531 
L 3431 531 
L 3431 0 
L 469 0 
L 469 531 
Q 828 903 1448 1529 
Q 2069 2156 2228 2338 
Q 2531 2678 2651 2914 
Q 2772 3150 2772 3378 
Q 2772 3750 2511 3984 
Q 2250 4219 1831 4219 
Q 1534 4219 1204 4116 
Q 875 4013 500 3803 
L 500 4441 
Q 881 4594 1212 4672 
Q 1544 4750 1819 4750 
Q 2544 4750 2975 4387 
Q 3406 4025 3406 3419 
Q 3406 3131 3298 2873 
Q 3191 2616 2906 2266 
Q 2828 2175 2409 1742 
Q 1991 1309 1228 531 
z
" transform="scale(0.015625)"/>
       </defs>
       <use xlink:href="#DejaVuSans-31" transform="translate(0 0.765625)"/>
       <use xlink:href="#DejaVuSans-30" transform="translate(63.623047 0.765625)"/>
       <use xlink:href="#DejaVuSans-2212" transform="translate(128.203125 39.046875) scale(0.7)"/>
       <use xlink:href="#DejaVuSans-32" transform="translate(186.855469 39.046875) scale(0.7)"/>
      </g>
     </g>
    </g>
    <g id="xtick_4">
     <g id="line2d_4">
      <defs>
       <path id="m06f3319b39" d="M 0 1 
L 0 -1 
" style="stroke: #000000; stroke-width: 0.4"/>
      </defs>
      <g>
       <use xlink:href="#m06f3319b39" x="37.043062" y="121.332274" style="stroke: #000000; stroke-width: 0.4"/>
      </g>
     </g>
    </g>
    <g id="xtick_5">
     <g id="line2d_5">
      <g>
       <use xlink:href="#m06f3319b39" x="41.477476" y="121.332274" style="stroke: #000000; stroke-width: 0.4"/>
      </g>
     </g>
    </g>
    <g id="xtick_6">
     <g id="line2d_6">
      <g>
       <use xlink:href="#m06f3319b39" x="45.100656" y="121.332274" style="stroke: #000000; stroke-width: 0.4"/>
      </g>
     </g>
    </g>
    <g id="xtick_7">
     <g id="line2d_7">
      <g>
       <use xlink:href="#m06f3319b39" x="48.164011" y="121.332274" style="stroke: #000000; stroke-width: 0.4"/>
      </g>
     </g>
    </g>
    <g id="xtick_8">
     <g id="line2d_8">
      <g>
       <use xlink:href="#m06f3319b39" x="50.81761" y="121.332274" style="stroke: #000000; stroke-width: 0.4"/>
      </g>
     </g>
    </g>
    <g id="xtick_9">
     <g id="line2d_9">
      <g>
       <use xlink:href="#m06f3319b39" x="53.15825" y="121.332274" style="stroke: #000000; stroke-width: 0.4"/>
      </g>
     </g>
    </g>
    <g id="xtick_10">
     <g id="line2d_10">
      <g>
       <use xlink:href="#m06f3319b39" x="69.026572" y="121.332274" style="stroke: #000000; stroke-width: 0.4"/>
      </g>
     </g>
    </g>
    <g id="xtick_11">
     <g id="line2d_11">
      <g>
       <use xlink:href="#m06f3319b39" x="77.084166" y="121.332274" style="stroke: #000000; stroke-width: 0.4"/>
      </g>
     </g>
    </g>
    <g id="xtick_12">
     <g id="line2d_12">
      <g>
       <use xlink:href="#m06f3319b39" x="82.80112" y="121.332274" style="stroke: #000000; stroke-width: 0.4"/>
      </g>
     </g>
    </g>
    <g id="xtick_13">
     <g id="line2d_13">
      <g>
       <use xlink:href="#m06f3319b39" x="87.235534" y="121.332274" style="stroke: #000000; stroke-width: 0.4"/>
      </g>
     </g>
    </g>
    <g id="xtick_14">
     <g id="line2d_14">
      <g>
       <use xlink:href="#m06f3319b39" x="90.858714" y="121.332274" style="stroke: #000000; stroke-width: 0.4"/>
      </g>
     </g>
    </g>
    <g id="xtick_15">
     <g id="line2d_15">
      <g>
       <use xlink:href="#m06f3319b39" x="93.922069" y="121.332274" style="stroke: #000000; stroke-width: 0.4"/>
      </g>
     </g>
    </g>
    <g id="xtick_16">
     <g id="line2d_16">
      <g>
       <use xlink:href="#m06f3319b39" x="96.575668" y="121.332274" style="stroke: #000000; stroke-width: 0.4"/>
      </g>
     </g>
    </g>
    <g id="xtick_17">
     <g id="line2d_17">
      <g>
       <use xlink:href="#m06f3319b39" x="98.916308" y="121.332274" style="stroke: #000000; stroke-width: 0.4"/>
      </g>
     </g>
    </g>
    <g id="xtick_18">
     <g id="line2d_18">
      <g>
       <use xlink:href="#m06f3319b39" x="114.78463" y="121.332274" style="stroke: #000000; stroke-width: 0.4"/>
      </g>
     </g>
    </g>
    <g id="xtick_19">
     <g id="line2d_19">
      <g>
       <use xlink:href="#m06f3319b39" x="122.842224" y="121.332274" style="stroke: #000000; stroke-width: 0.4"/>
      </g>
     </g>
    </g>
    <g id="xtick_20">
     <g id="line2d_20">
      <g>
       <use xlink:href="#m06f3319b39" x="128.559178" y="121.332274" style="stroke: #000000; stroke-width: 0.4"/>
      </g>
     </g>
    </g>
    <g id="xtick_21">
     <g id="line2d_21">
      <g>
       <use xlink:href="#m06f3319b39" x="132.993592" y="121.332274" style="stroke: #000000; stroke-width: 0.4"/>
      </g>
     </g>
    </g>
    <g id="xtick_22">
     <g id="line2d_22">
      <g>
       <use xlink:href="#m06f3319b39" x="136.616772" y="121.332274" style="stroke: #000000; stroke-width: 0.4"/>
      </g>
     </g>
    </g>
    <g id="xtick_23">
     <g id="line2d_23">
      <g>
       <use xlink:href="#m06f3319b39" x="139.680127" y="121.332274" style="stroke: #000000; stroke-width: 0.4"/>
      </g>
     </g>
    </g>
    <g id="xtick_24">
     <g id="line2d_24">
      <g>
       <use xlink:href="#m06f3319b39" x="142.333726" y="121.332274" style="stroke: #000000; stroke-width: 0.4"/>
      </g>
     </g>
    </g>
    <g id="xtick_25">
     <g id="line2d_25">
      <g>
       <use xlink:href="#m06f3319b39" x="144.674366" y="121.332274" style="stroke: #000000; stroke-width: 0.4"/>
      </g>
     </g>
    </g>
    <g id="text_4">
     <!-- Frequency -->
     <g transform="translate(71.186847 140.926558) scale(0.09 -0.09)">
      <defs>
       <path id="DejaVuSans-46" d="M 628 4666 
L 3309 4666 
L 3309 4134 
L 1259 4134 
L 1259 2759 
L 3109 2759 
L 3109 2228 
L 1259 2228 
L 1259 0 
L 628 0 
L 628 4666 
z
" transform="scale(0.015625)"/>
       <path id="DejaVuSans-72" d="M 2631 2963 
Q 2534 3019 2420 3045 
Q 2306 3072 2169 3072 
Q 1681 3072 1420 2755 
Q 1159 2438 1159 1844 
L 1159 0 
L 581 0 
L 581 3500 
L 1159 3500 
L 1159 2956 
Q 1341 3275 1631 3429 
Q 1922 3584 2338 3584 
Q 2397 3584 2469 3576 
Q 2541 3569 2628 3553 
L 2631 2963 
z
" transform="scale(0.015625)"/>
       <path id="DejaVuSans-65" d="M 3597 1894 
L 3597 1613 
L 953 1613 
Q 991 1019 1311 708 
Q 1631 397 2203 397 
Q 2534 397 2845 478 
Q 3156 559 3463 722 
L 3463 178 
Q 3153 47 2828 -22 
Q 2503 -91 2169 -91 
Q 1331 -91 842 396 
Q 353 884 353 1716 
Q 353 2575 817 3079 
Q 1281 3584 2069 3584 
Q 2775 3584 3186 3129 
Q 3597 2675 3597 1894 
z
M 3022 2063 
Q 3016 2534 2758 2815 
Q 2500 3097 2075 3097 
Q 1594 3097 1305 2825 
Q 1016 2553 972 2059 
L 3022 2063 
z
" transform="scale(0.015625)"/>
       <path id="DejaVuSans-71" d="M 947 1747 
Q 947 1113 1208 752 
Q 1469 391 1925 391 
Q 2381 391 2643 752 
Q 2906 1113 2906 1747 
Q 2906 2381 2643 2742 
Q 2381 3103 1925 3103 
Q 1469 3103 1208 2742 
Q 947 2381 947 1747 
z
M 2906 525 
Q 2725 213 2448 61 
Q 2172 -91 1784 -91 
Q 1150 -91 751 415 
Q 353 922 353 1747 
Q 353 2572 751 3078 
Q 1150 3584 1784 3584 
Q 2172 3584 2448 3432 
Q 2725 3281 2906 2969 
L 2906 3500 
L 3481 3500 
L 3481 -1331 
L 2906 -1331 
L 2906 525 
z
" transform="scale(0.015625)"/>
       <path id="DejaVuSans-75" d="M 544 1381 
L 544 3500 
L 1119 3500 
L 1119 1403 
Q 1119 906 1312 657 
Q 1506 409 1894 409 
Q 2359 409 2629 706 
Q 2900 1003 2900 1516 
L 2900 3500 
L 3475 3500 
L 3475 0 
L 2900 0 
L 2900 538 
Q 2691 219 2414 64 
Q 2138 -91 1772 -91 
Q 1169 -91 856 284 
Q 544 659 544 1381 
z
M 1991 3584 
L 1991 3584 
z
" transform="scale(0.015625)"/>
       <path id="DejaVuSans-6e" d="M 3513 2113 
L 3513 0 
L 2938 0 
L 2938 2094 
Q 2938 2591 2744 2837 
Q 2550 3084 2163 3084 
Q 1697 3084 1428 2787 
Q 1159 2491 1159 1978 
L 1159 0 
L 581 0 
L 581 3500 
L 1159 3500 
L 1159 2956 
Q 1366 3272 1645 3428 
Q 1925 3584 2291 3584 
Q 2894 3584 3203 3211 
Q 3513 2838 3513 2113 
z
" transform="scale(0.015625)"/>
       <path id="DejaVuSans-63" d="M 3122 3366 
L 3122 2828 
Q 2878 2963 2633 3030 
Q 2388 3097 2138 3097 
Q 1578 3097 1268 2742 
Q 959 2388 959 1747 
Q 959 1106 1268 751 
Q 1578 397 2138 397 
Q 2388 397 2633 464 
Q 2878 531 3122 666 
L 3122 134 
Q 2881 22 2623 -34 
Q 2366 -91 2075 -91 
Q 1284 -91 818 406 
Q 353 903 353 1747 
Q 353 2603 823 3093 
Q 1294 3584 2113 3584 
Q 2378 3584 2631 3529 
Q 2884 3475 3122 3366 
z
" transform="scale(0.015625)"/>
       <path id="DejaVuSans-79" d="M 2059 -325 
Q 1816 -950 1584 -1140 
Q 1353 -1331 966 -1331 
L 506 -1331 
L 506 -850 
L 844 -850 
Q 1081 -850 1212 -737 
Q 1344 -625 1503 -206 
L 1606 56 
L 191 3500 
L 800 3500 
L 1894 763 
L 2988 3500 
L 3597 3500 
L 2059 -325 
z
" transform="scale(0.015625)"/>
      </defs>
      <use xlink:href="#DejaVuSans-46"/>
      <use xlink:href="#DejaVuSans-72" x="50.269531"/>
      <use xlink:href="#DejaVuSans-65" x="89.132812"/>
      <use xlink:href="#DejaVuSans-71" x="150.65625"/>
      <use xlink:href="#DejaVuSans-75" x="214.132812"/>
      <use xlink:href="#DejaVuSans-65" x="277.511719"/>
      <use xlink:href="#DejaVuSans-6e" x="339.035156"/>
      <use xlink:href="#DejaVuSans-63" x="402.414062"/>
      <use xlink:href="#DejaVuSans-79" x="457.394531"/>
     </g>
    </g>
   </g>
   <g id="matplotlib.axis_2">
    <g id="ytick_1">
     <g id="line2d_26">
      <defs>
       <path id="m366cba0e8f" d="M 2 0 
L -2 -0 
" style="stroke: #000000; stroke-width: 0.8"/>
      </defs>
      <g>
       <use xlink:href="#m366cba0e8f" x="37.043062" y="116.273911" style="stroke: #000000; stroke-width: 0.8"/>
      </g>
     </g>
     <g id="text_5">
      <!-- $\mathdefault{10^{0}}$ -->
      <g transform="translate(19.848342 119.122185) scale(0.07497 -0.07497)">
       <use xlink:href="#DejaVuSans-31" transform="translate(0 0.765625)"/>
       <use xlink:href="#DejaVuSans-30" transform="translate(63.623047 0.765625)"/>
       <use xlink:href="#DejaVuSans-30" transform="translate(128.203125 39.046875) scale(0.7)"/>
      </g>
     </g>
    </g>
    <g id="ytick_2">
     <g id="line2d_27">
      <g>
       <use xlink:href="#m366cba0e8f" x="37.043062" y="82.546601" style="stroke: #000000; stroke-width: 0.8"/>
      </g>
     </g>
     <g id="text_6">
      <!-- $\mathdefault{10^{1}}$ -->
      <g transform="translate(19.848342 85.394876) scale(0.07497 -0.07497)">
       <use xlink:href="#DejaVuSans-31" transform="translate(0 0.684375)"/>
       <use xlink:href="#DejaVuSans-30" transform="translate(63.623047 0.684375)"/>
       <use xlink:href="#DejaVuSans-31" transform="translate(128.203125 38.965625) scale(0.7)"/>
      </g>
     </g>
    </g>
    <g id="ytick_3">
     <g id="line2d_28">
      <g>
       <use xlink:href="#m366cba0e8f" x="37.043062" y="48.819292" style="stroke: #000000; stroke-width: 0.8"/>
      </g>
     </g>
     <g id="text_7">
      <!-- $\mathdefault{10^{2}}$ -->
      <g transform="translate(19.848342 51.667567) scale(0.07497 -0.07497)">
       <use xlink:href="#DejaVuSans-31" transform="translate(0 0.765625)"/>
       <use xlink:href="#DejaVuSans-30" transform="translate(63.623047 0.765625)"/>
       <use xlink:href="#DejaVuSans-32" transform="translate(128.203125 39.046875) scale(0.7)"/>
      </g>
     </g>
    </g>
    <g id="ytick_4">
     <g id="line2d_29">
      <g>
       <use xlink:href="#m366cba0e8f" x="37.043062" y="15.091983" style="stroke: #000000; stroke-width: 0.8"/>
      </g>
     </g>
     <g id="text_8">
      <!-- $\mathdefault{10^{3}}$ -->
      <g transform="translate(19.848342 17.940257) scale(0.07497 -0.07497)">
       <use xlink:href="#DejaVuSans-31" transform="translate(0 0.765625)"/>
       <use xlink:href="#DejaVuSans-30" transform="translate(63.623047 0.765625)"/>
       <use xlink:href="#DejaVuSans-33" transform="translate(128.203125 39.046875) scale(0.7)"/>
      </g>
     </g>
    </g>
    <g id="ytick_5">
     <g id="line2d_30">
      <defs>
       <path id="m83825a9995" d="M 1 0 
L -1 -0 
" style="stroke: #000000; stroke-width: 0.4"/>
      </defs>
      <g>
       <use xlink:href="#m83825a9995" x="37.043062" y="119.542425" style="stroke: #000000; stroke-width: 0.4"/>
      </g>
     </g>
    </g>
    <g id="ytick_6">
     <g id="line2d_31">
      <g>
       <use xlink:href="#m83825a9995" x="37.043062" y="117.817188" style="stroke: #000000; stroke-width: 0.4"/>
      </g>
     </g>
    </g>
    <g id="ytick_7">
     <g id="line2d_32">
      <g>
       <use xlink:href="#m83825a9995" x="37.043062" y="106.120979" style="stroke: #000000; stroke-width: 0.4"/>
      </g>
     </g>
    </g>
    <g id="ytick_8">
     <g id="line2d_33">
      <g>
       <use xlink:href="#m83825a9995" x="37.043062" y="100.181895" style="stroke: #000000; stroke-width: 0.4"/>
      </g>
     </g>
    </g>
    <g id="ytick_9">
     <g id="line2d_34">
      <g>
       <use xlink:href="#m83825a9995" x="37.043062" y="95.968047" style="stroke: #000000; stroke-width: 0.4"/>
      </g>
     </g>
    </g>
    <g id="ytick_10">
     <g id="line2d_35">
      <g>
       <use xlink:href="#m83825a9995" x="37.043062" y="92.699533" style="stroke: #000000; stroke-width: 0.4"/>
      </g>
     </g>
    </g>
    <g id="ytick_11">
     <g id="line2d_36">
      <g>
       <use xlink:href="#m83825a9995" x="37.043062" y="90.028963" style="stroke: #000000; stroke-width: 0.4"/>
      </g>
     </g>
    </g>
    <g id="ytick_12">
     <g id="line2d_37">
      <g>
       <use xlink:href="#m83825a9995" x="37.043062" y="87.771028" style="stroke: #000000; stroke-width: 0.4"/>
      </g>
     </g>
    </g>
    <g id="ytick_13">
     <g id="line2d_38">
      <g>
       <use xlink:href="#m83825a9995" x="37.043062" y="85.815115" style="stroke: #000000; stroke-width: 0.4"/>
      </g>
     </g>
    </g>
    <g id="ytick_14">
     <g id="line2d_39">
      <g>
       <use xlink:href="#m83825a9995" x="37.043062" y="84.089878" style="stroke: #000000; stroke-width: 0.4"/>
      </g>
     </g>
    </g>
    <g id="ytick_15">
     <g id="line2d_40">
      <g>
       <use xlink:href="#m83825a9995" x="37.043062" y="72.39367" style="stroke: #000000; stroke-width: 0.4"/>
      </g>
     </g>
    </g>
    <g id="ytick_16">
     <g id="line2d_41">
      <g>
       <use xlink:href="#m83825a9995" x="37.043062" y="66.454585" style="stroke: #000000; stroke-width: 0.4"/>
      </g>
     </g>
    </g>
    <g id="ytick_17">
     <g id="line2d_42">
      <g>
       <use xlink:href="#m83825a9995" x="37.043062" y="62.240738" style="stroke: #000000; stroke-width: 0.4"/>
      </g>
     </g>
    </g>
    <g id="ytick_18">
     <g id="line2d_43">
      <g>
       <use xlink:href="#m83825a9995" x="37.043062" y="58.972224" style="stroke: #000000; stroke-width: 0.4"/>
      </g>
     </g>
    </g>
    <g id="ytick_19">
     <g id="line2d_44">
      <g>
       <use xlink:href="#m83825a9995" x="37.043062" y="56.301654" style="stroke: #000000; stroke-width: 0.4"/>
      </g>
     </g>
    </g>
    <g id="ytick_20">
     <g id="line2d_45">
      <g>
       <use xlink:href="#m83825a9995" x="37.043062" y="54.043719" style="stroke: #000000; stroke-width: 0.4"/>
      </g>
     </g>
    </g>
    <g id="ytick_21">
     <g id="line2d_46">
      <g>
       <use xlink:href="#m83825a9995" x="37.043062" y="52.087806" style="stroke: #000000; stroke-width: 0.4"/>
      </g>
     </g>
    </g>
    <g id="ytick_22">
     <g id="line2d_47">
      <g>
       <use xlink:href="#m83825a9995" x="37.043062" y="50.362569" style="stroke: #000000; stroke-width: 0.4"/>
      </g>
     </g>
    </g>
    <g id="ytick_23">
     <g id="line2d_48">
      <g>
       <use xlink:href="#m83825a9995" x="37.043062" y="38.66636" style="stroke: #000000; stroke-width: 0.4"/>
      </g>
     </g>
    </g>
    <g id="ytick_24">
     <g id="line2d_49">
      <g>
       <use xlink:href="#m83825a9995" x="37.043062" y="32.727276" style="stroke: #000000; stroke-width: 0.4"/>
      </g>
     </g>
    </g>
    <g id="ytick_25">
     <g id="line2d_50">
      <g>
       <use xlink:href="#m83825a9995" x="37.043062" y="28.513429" style="stroke: #000000; stroke-width: 0.4"/>
      </g>
     </g>
    </g>
    <g id="ytick_26">
     <g id="line2d_51">
      <g>
       <use xlink:href="#m83825a9995" x="37.043062" y="25.244915" style="stroke: #000000; stroke-width: 0.4"/>
      </g>
     </g>
    </g>
    <g id="ytick_27">
     <g id="line2d_52">
      <g>
       <use xlink:href="#m83825a9995" x="37.043062" y="22.574344" style="stroke: #000000; stroke-width: 0.4"/>
      </g>
     </g>
    </g>
    <g id="ytick_28">
     <g id="line2d_53">
      <g>
       <use xlink:href="#m83825a9995" x="37.043062" y="20.316409" style="stroke: #000000; stroke-width: 0.4"/>
      </g>
     </g>
    </g>
    <g id="ytick_29">
     <g id="line2d_54">
      <g>
       <use xlink:href="#m83825a9995" x="37.043062" y="18.360497" style="stroke: #000000; stroke-width: 0.4"/>
      </g>
     </g>
    </g>
    <g id="ytick_30">
     <g id="line2d_55">
      <g>
       <use xlink:href="#m83825a9995" x="37.043062" y="16.63526" style="stroke: #000000; stroke-width: 0.4"/>
      </g>
     </g>
    </g>
    <g id="text_9">
     <!-- Rank -->
     <g transform="translate(16.476623 76.931134) rotate(-90) scale(0.09 -0.09)">
      <defs>
       <path id="DejaVuSans-52" d="M 2841 2188 
Q 3044 2119 3236 1894 
Q 3428 1669 3622 1275 
L 4263 0 
L 3584 0 
L 2988 1197 
Q 2756 1666 2539 1819 
Q 2322 1972 1947 1972 
L 1259 1972 
L 1259 0 
L 628 0 
L 628 4666 
L 2053 4666 
Q 2853 4666 3247 4331 
Q 3641 3997 3641 3322 
Q 3641 2881 3436 2590 
Q 3231 2300 2841 2188 
z
M 1259 4147 
L 1259 2491 
L 2053 2491 
Q 2509 2491 2742 2702 
Q 2975 2913 2975 3322 
Q 2975 3731 2742 3939 
Q 2509 4147 2053 4147 
L 1259 4147 
z
" transform="scale(0.015625)"/>
       <path id="DejaVuSans-61" d="M 2194 1759 
Q 1497 1759 1228 1600 
Q 959 1441 959 1056 
Q 959 750 1161 570 
Q 1363 391 1709 391 
Q 2188 391 2477 730 
Q 2766 1069 2766 1631 
L 2766 1759 
L 2194 1759 
z
M 3341 1997 
L 3341 0 
L 2766 0 
L 2766 531 
Q 2569 213 2275 61 
Q 1981 -91 1556 -91 
Q 1019 -91 701 211 
Q 384 513 384 1019 
Q 384 1609 779 1909 
Q 1175 2209 1959 2209 
L 2766 2209 
L 2766 2266 
Q 2766 2663 2505 2880 
Q 2244 3097 1772 3097 
Q 1472 3097 1187 3025 
Q 903 2953 641 2809 
L 641 3341 
Q 956 3463 1253 3523 
Q 1550 3584 1831 3584 
Q 2591 3584 2966 3190 
Q 3341 2797 3341 1997 
z
" transform="scale(0.015625)"/>
       <path id="DejaVuSans-6b" d="M 581 4863 
L 1159 4863 
L 1159 1991 
L 2875 3500 
L 3609 3500 
L 1753 1863 
L 3688 0 
L 2938 0 
L 1159 1709 
L 1159 0 
L 581 0 
L 581 4863 
z
" transform="scale(0.015625)"/>
      </defs>
      <use xlink:href="#DejaVuSans-52"/>
      <use xlink:href="#DejaVuSans-61" x="67.232422"/>
      <use xlink:href="#DejaVuSans-6e" x="128.511719"/>
      <use xlink:href="#DejaVuSans-6b" x="191.890625"/>
     </g>
    </g>
   </g>
   <g id="line2d_56">
    <path d="M 142.702374 150.998277 
L 142.702374 116.273911 
L 139.700054 116.273911 
L 139.700054 106.120979 
L 138.072307 106.120979 
L 138.072307 100.181895 
L 137.07807 100.181895 
L 137.07807 95.968047 
L 136.191461 95.968047 
L 136.191461 92.699533 
L 134.955878 92.699533 
L 134.955878 90.028963 
L 133.165763 90.028963 
L 133.165763 87.771028 
L 132.799947 87.771028 
L 132.799947 85.815115 
L 132.379465 85.815115 
L 132.379465 84.089878 
L 132.225106 84.089878 
L 132.225106 82.546601 
L 131.563266 82.546601 
L 131.563266 81.150538 
L 131.032881 81.150538 
L 131.032881 79.876031 
L 130.670513 79.876031 
L 130.670513 78.703599 
L 129.971905 78.703599 
L 129.971905 77.618096 
L 129.478328 77.618096 
L 129.423383 74.774179 
L 129.359105 74.774179 
L 129.359105 73.936947 
L 128.457341 73.936947 
L 128.390146 72.39367 
L 128.011895 72.39367 
L 128.011895 71.679012 
L 127.896451 71.679012 
L 127.896451 70.997606 
L 127.643366 70.997606 
L 127.643366 70.346495 
L 127.079744 70.346495 
L 127.079744 69.723099 
L 126.902698 69.723099 
L 126.827947 68.550667 
L 126.691021 68.550667 
L 126.586057 66.951161 
L 126.517429 66.951161 
L 126.517429 66.454585 
L 126.247675 66.454585 
L 126.234455 65.509252 
L 125.929894 65.509252 
L 125.871317 64.621248 
L 125.601195 64.621248 
L 125.523608 63.784015 
L 125.346932 63.784015 
L 125.249108 62.992061 
L 125.148177 62.992061 
L 125.04401 62.240738 
L 124.580338 62.240738 
L 124.503748 61.52608 
L 124.412028 61.52608 
L 124.362343 60.515501 
L 124.231881 60.515501 
L 124.231881 60.193563 
L 124.059677 60.193563 
L 124.018122 58.682163 
L 123.730601 58.682163 
L 123.730601 58.397735 
L 123.54535 58.397735 
L 123.511434 57.844931 
L 122.432088 57.844931 
L 122.432088 57.57616 
L 122.29219 57.57616 
L 122.239504 56.798229 
L 122.122467 56.798229 
L 122.117882 56.301654 
L 121.836195 56.301654 
L 121.743161 55.35632 
L 121.397318 55.35632 
L 121.350949 54.90559 
L 121.003312 54.90559 
L 121.003312 54.685321 
L 120.196113 54.685321 
L 120.196113 54.468316 
L 119.995836 54.468316 
L 119.933745 53.631083 
L 119.871986 53.631083 
L 119.802738 53.03314 
L 119.739268 53.03314 
L 119.739268 52.839129 
L 119.566042 52.839129 
L 119.566042 52.647655 
L 119.449227 52.647655 
L 119.388587 52.087806 
L 119.175651 52.087806 
L 119.175651 51.905846 
L 119.043833 51.905846 
L 118.965438 51.54857 
L 118.676914 51.54857 
L 118.622646 51.028483 
L 118.498278 51.028483 
L 118.45686 50.691742 
L 118.203814 50.691742 
L 118.104754 50.200716 
L 118.068373 50.200716 
L 117.971336 49.265446 
L 117.954524 49.265446 
L 117.870897 48.966505 
L 117.724343 48.966505 
L 117.656645 48.529232 
L 117.611793 48.529232 
L 117.500711 48.104634 
L 117.40184 48.104634 
L 117.29801 47.691999 
L 117.192073 47.691999 
L 117.192073 47.556997 
L 117.042012 47.556997 
L 116.944923 47.029099 
L 116.919366 47.029099 
L 116.855678 46.645298 
L 116.735749 46.645298 
L 116.715862 46.394906 
L 116.624344 46.394906 
L 116.57543 46.027164 
L 116.330986 46.027164 
L 116.23418 45.550778 
L 116.215562 45.550778 
L 116.140778 45.203388 
L 116.080003 45.203388 
L 116.080003 45.089399 
L 115.836165 45.089399 
L 115.836165 44.97629 
L 115.670531 44.97629 
L 115.596572 44.752658 
L 115.247961 44.64211 
L 115.151621 44.208075 
L 115.058272 44.101547 
L 114.958506 43.683016 
L 114.838461 43.580226 
L 114.838461 43.478151 
L 114.583858 43.376784 
L 114.535616 43.176129 
L 114.399429 43.076823 
L 114.399429 42.978185 
L 114.223533 42.880208 
L 114.170822 42.686197 
L 113.933693 42.590147 
L 113.851559 42.212124 
L 113.707587 42.119123 
L 113.681977 41.934874 
L 113.553816 41.843612 
L 113.499779 41.662775 
L 113.103718 41.573187 
L 113.00517 41.04687 
L 112.740324 40.96096 
L 112.647308 40.622273 
L 112.510736 40.538811 
L 112.485757 40.373299 
L 112.360429 40.29124 
L 112.360429 40.209638 
L 112.045974 40.128487 
L 112.045974 40.047784 
L 111.762143 39.967523 
L 111.666195 39.808309 
L 111.566695 39.729346 
L 111.566695 39.650806 
L 111.21834 39.572686 
L 111.128347 39.340793 
L 110.905959 39.264304 
L 110.836998 39.037205 
L 110.699291 38.962281 
L 110.607498 38.593305 
L 110.432465 38.520612 
L 110.432465 38.448278 
L 110.158026 38.3763 
L 110.07078 38.233395 
L 109.961521 38.162463 
L 109.856724 37.951702 
L 109.832314 37.882118 
L 109.832314 37.812862 
L 109.48036 37.743932 
L 109.47004 37.471411 
L 109.336082 37.404065 
L 109.268746 37.071906 
L 109.132645 37.006369 
L 109.066968 36.876167 
L 108.894259 36.811498 
L 108.894259 36.747113 
L 108.375407 36.68301 
L 108.331117 36.492366 
L 107.999905 36.429365 
L 107.949408 36.180039 
L 107.815044 36.118365 
L 107.763697 35.934885 
L 107.682556 35.874233 
L 107.632464 35.753676 
L 107.518106 35.693767 
L 107.45137 35.456554 
L 107.168848 35.397847 
L 107.124702 35.281132 
L 107.03257 35.223122 
L 106.950953 35.107786 
L 106.85809 35.050457 
L 106.85809 34.993351 
L 106.682966 34.936467 
L 106.628933 34.823358 
L 106.474662 34.767129 
L 106.410637 34.544348 
L 106.203778 34.434215 
L 106.112671 34.162452 
L 105.787117 34.055144 
L 105.705518 33.89564 
L 105.55448 33.790261 
L 105.512627 33.685635 
L 105.293348 33.581751 
L 105.221874 33.32522 
L 105.029402 33.223852 
L 104.970954 33.123181 
L 104.746601 33.023197 
L 104.637139 32.825254 
L 104.408823 32.727276 
L 104.408823 32.678532 
L 104.165452 32.581528 
L 104.075029 32.437215 
L 103.820485 32.341791 
L 103.715326 32.105915 
L 103.512361 32.012618 
L 103.442906 31.873777 
L 102.783115 31.781943 
L 102.696241 31.69068 
L 102.555381 31.599983 
L 102.455649 31.464981 
L 102.041944 31.375666 
L 101.94139 31.154733 
L 101.77073 31.067285 
L 101.734121 30.937083 
L 101.57806 30.850921 
L 101.506608 30.765262 
L 101.412075 30.680101 
L 101.309858 30.302889 
L 101.057238 30.220368 
L 101.057238 30.17928 
L 100.719646 30.09745 
L 100.670926 29.975556 
L 100.458168 29.894852 
L 100.352906 29.814591 
L 100.198746 29.734768 
L 100.111423 29.497875 
L 99.783304 29.419754 
L 99.701527 29.303349 
L 99.58439 29.226256 
L 99.58439 29.187861 
L 99.23415 29.111372 
L 99.199635 29.035281 
L 99.039228 28.959583 
L 98.981123 28.846764 
L 98.688588 28.772031 
L 98.656513 28.660642 
L 98.108508 28.550094 
L 98.07062 28.440373 
L 97.855984 28.331469 
L 97.749105 28.223368 
L 97.656577 28.116059 
L 97.554924 27.93894 
L 97.341765 27.833687 
L 97.294488 27.694517 
L 96.972506 27.591 
L 96.887086 27.522393 
L 96.591766 27.420081 
L 96.516592 27.318479 
L 96.343016 27.217577 
L 96.24707 27.084113 
L 95.701327 26.984807 
L 95.662421 26.886169 
L 95.511109 26.788192 
L 95.511109 26.755678 
L 95.236581 26.658566 
L 95.211136 26.594181 
L 94.963089 26.498131 
L 94.873019 26.371036 
L 94.756312 26.276434 
L 94.675741 26.182438 
L 94.297636 26.089042 
L 94.195037 26.027107 
L 93.892687 25.934693 
L 93.871249 25.873406 
L 93.384237 25.781954 
L 93.317353 25.691069 
L 92.986249 25.600744 
L 92.89908 25.481171 
L 92.687571 25.392128 
L 92.597457 25.333065 
L 92.364916 25.244915 
L 92.312057 25.186441 
L 92.125501 25.099166 
L 92.060816 25.012409 
L 91.917593 24.926161 
L 91.857313 24.81195 
L 91.485048 24.726872 
L 91.375116 24.530257 
L 91.292035 24.446794 
L 91.254698 24.391416 
L 91.092608 24.281283 
L 91.009388 24.199224 
L 90.686483 24.090521 
L 90.686483 24.063471 
L 90.452336 23.955768 
L 90.424301 23.902212 
L 90.02792 23.795684 
L 89.970302 23.716293 
L 89.676355 23.611103 
L 89.591323 23.55879 
L 89.404634 23.454722 
L 89.351883 23.377153 
L 88.819062 23.274362 
L 88.727893 23.223236 
L 88.410717 23.121516 
L 88.311242 23.07092 
L 87.994899 22.970249 
L 87.950531 22.870265 
L 87.704255 22.770959 
L 87.618336 22.696919 
L 87.388474 22.598777 
L 87.297435 22.501289 
L 86.963394 22.404445 
L 86.957222 22.356262 
L 86.434144 22.260369 
L 86.366011 22.212657 
L 85.908655 22.117697 
L 85.813166 22.046878 
L 85.608427 21.952983 
L 85.532263 21.906261 
L 85.168947 21.81326 
L 85.125076 21.76698 
L 84.688843 21.674856 
L 84.581454 21.606142 
L 84.110946 21.515021 
L 84.008868 21.401912 
L 83.489194 21.312049 
L 83.489194 21.28967 
L 82.935232 21.200491 
L 82.857685 21.089775 
L 82.377622 20.97989 
L 82.282822 20.870824 
L 82.051206 20.762563 
L 81.945858 20.590994 
L 81.62387 20.484774 
L 81.529285 20.42141 
L 81.199975 20.316409 
L 81.148276 20.253768 
L 80.323228 20.149958 
L 80.244424 20.067436 
L 79.639991 19.964933 
L 79.624101 19.924132 
L 78.720586 19.822624 
L 78.67283 19.782217 
L 78.269653 19.681684 
L 78.269653 19.66166 
L 77.63537 19.561948 
L 77.63537 19.542087 
L 77.085765 19.443183 
L 77.045648 19.403808 
L 76.479072 19.30583 
L 76.419941 19.227918 
L 75.655129 19.131106 
L 75.655129 19.11182 
L 74.387068 19.01577 
L 74.31387 18.939381 
L 73.782717 18.844451 
L 73.679254 18.787787 
L 73.455931 18.693832 
L 73.446309 18.637747 
L 72.889218 18.544746 
L 72.864721 18.50771 
L 71.945199 18.397162 
L 71.863298 18.342199 
L 71.482095 18.232888 
L 71.482095 18.214749 
L 70.429075 18.106381 
L 70.37145 18.070436 
L 69.286627 17.963128 
L 69.201228 17.927532 
L 68.368642 17.821261 
L 68.346554 17.786008 
L 67.678714 17.680756 
L 67.611654 17.645839 
L 66.238943 17.541585 
L 66.226619 17.506998 
L 65.378396 17.403725 
L 65.305922 17.35236 
L 64.352899 17.250167 
L 64.352899 17.233204 
L 63.083008 17.131836 
L 63.083008 17.115009 
L 62.218088 17.014453 
L 62.120428 16.981088 
L 61.309327 16.881444 
L 61.309327 16.864902 
L 59.938633 16.766043 
L 59.914339 16.733238 
L 57.984583 16.63526 
L 57.984583 16.618994 
L 55.508797 16.521775 
L 55.461694 16.489512 
L 54.289789 16.393146 
L 54.289789 16.377146 
L 53.066411 16.281514 
L 53.066411 16.265636 
L 49.069151 16.154968 
L 48.993277 16.123502 
L 46.873764 16.013899 
L 46.832997 15.982734 
L 43.419443 15.874175 
L 43.419443 15.858733 
L 37.003437 15.751086 
L 37.003437 15.735772 
L 33.001391 15.629022 
L 33.001391 15.613835 
L 27.682178 15.507967 
L 27.682178 15.492905 
L 23.310697 15.387904 
L 23.310697 15.372965 
L 0.046583 15.268817 
L 0.04581 15.239196 
L -1 15.239196 
L -1 15.239196 
" clip-path="url(#pe847da8698)" style="fill: none; stroke: #1f77b4; stroke-width: 1.3; stroke-linecap: round"/>
   </g>
   <g id="patch_3">
    <path d="M 37.043062 121.332274 
L 37.043062 10.048274 
" style="fill: none; stroke: #000000; stroke-linejoin: miter; stroke-linecap: square"/>
   </g>
   <g id="patch_4">
    <path d="M 37.043062 121.332274 
L 151.82407 121.332274 
" style="fill: none; stroke: #000000; stroke-linejoin: miter; stroke-linecap: square"/>
   </g>
   <g id="text_10">
    <!-- Dirichlet: -->
    <g transform="translate(110.942976 16.886868) scale(0.09 -0.09)">
     <defs>
      <path id="DejaVuSans-44" d="M 1259 4147 
L 1259 519 
L 2022 519 
Q 2988 519 3436 956 
Q 3884 1394 3884 2338 
Q 3884 3275 3436 3711 
Q 2988 4147 2022 4147 
L 1259 4147 
z
M 628 4666 
L 1925 4666 
Q 3281 4666 3915 4102 
Q 4550 3538 4550 2338 
Q 4550 1131 3912 565 
Q 3275 0 1925 0 
L 628 0 
L 628 4666 
z
" transform="scale(0.015625)"/>
      <path id="DejaVuSans-69" d="M 603 3500 
L 1178 3500 
L 1178 0 
L 603 0 
L 603 3500 
z
M 603 4863 
L 1178 4863 
L 1178 4134 
L 603 4134 
L 603 4863 
z
" transform="scale(0.015625)"/>
      <path id="DejaVuSans-68" d="M 3513 2113 
L 3513 0 
L 2938 0 
L 2938 2094 
Q 2938 2591 2744 2837 
Q 2550 3084 2163 3084 
Q 1697 3084 1428 2787 
Q 1159 2491 1159 1978 
L 1159 0 
L 581 0 
L 581 4863 
L 1159 4863 
L 1159 2956 
Q 1366 3272 1645 3428 
Q 1925 3584 2291 3584 
Q 2894 3584 3203 3211 
Q 3513 2838 3513 2113 
z
" transform="scale(0.015625)"/>
      <path id="DejaVuSans-6c" d="M 603 4863 
L 1178 4863 
L 1178 0 
L 603 0 
L 603 4863 
z
" transform="scale(0.015625)"/>
      <path id="DejaVuSans-74" d="M 1172 4494 
L 1172 3500 
L 2356 3500 
L 2356 3053 
L 1172 3053 
L 1172 1153 
Q 1172 725 1289 603 
Q 1406 481 1766 481 
L 2356 481 
L 2356 0 
L 1766 0 
Q 1100 0 847 248 
Q 594 497 594 1153 
L 594 3053 
L 172 3053 
L 172 3500 
L 594 3500 
L 594 4494 
L 1172 4494 
z
" transform="scale(0.015625)"/>
      <path id="DejaVuSans-3a" d="M 750 794 
L 1409 794 
L 1409 0 
L 750 0 
L 750 794 
z
M 750 3309 
L 1409 3309 
L 1409 2516 
L 750 2516 
L 750 3309 
z
" transform="scale(0.015625)"/>
     </defs>
     <use xlink:href="#DejaVuSans-44"/>
     <use xlink:href="#DejaVuSans-69" x="77.001953"/>
     <use xlink:href="#DejaVuSans-72" x="104.785156"/>
     <use xlink:href="#DejaVuSans-69" x="145.898438"/>
     <use xlink:href="#DejaVuSans-63" x="173.681641"/>
     <use xlink:href="#DejaVuSans-68" x="228.662109"/>
     <use xlink:href="#DejaVuSans-6c" x="292.041016"/>
     <use xlink:href="#DejaVuSans-65" x="319.824219"/>
     <use xlink:href="#DejaVuSans-74" x="381.347656"/>
     <use xlink:href="#DejaVuSans-3a" x="420.556641"/>
    </g>
    <!-- $\alpha$=1.0 -->
    <g transform="translate(124.01407 26.964899) scale(0.09 -0.09)">
     <defs>
      <path id="DejaVuSans-Oblique-3b1" d="M 2619 1628 
L 2622 2350 
Q 2625 3088 2069 3091 
Q 1653 3094 1394 2747 
Q 1069 2319 959 1747 
Q 825 1059 994 731 
Q 1169 397 1547 397 
Q 1966 397 2319 1063 
L 2619 1628 
z
M 2166 3578 
Q 3141 3594 3128 2584 
Q 3128 2584 3616 3500 
L 4128 3500 
L 3119 1603 
L 3109 919 
Q 3109 766 3194 638 
Q 3291 488 3391 488 
L 3669 488 
L 3575 0 
L 3228 0 
Q 2934 0 2722 263 
Q 2622 394 2619 669 
Q 2416 334 2066 50 
Q 1900 -81 1453 -78 
Q 722 -72 456 397 
Q 184 884 353 1747 
Q 534 2675 1009 3097 
Q 1544 3569 2166 3578 
z
" transform="scale(0.015625)"/>
      <path id="DejaVuSans-3d" d="M 678 2906 
L 4684 2906 
L 4684 2381 
L 678 2381 
L 678 2906 
z
M 678 1631 
L 4684 1631 
L 4684 1100 
L 678 1100 
L 678 1631 
z
" transform="scale(0.015625)"/>
      <path id="DejaVuSans-2e" d="M 684 794 
L 1344 794 
L 1344 0 
L 684 0 
L 684 794 
z
" transform="scale(0.015625)"/>
     </defs>
     <use xlink:href="#DejaVuSans-Oblique-3b1" transform="translate(0 0.78125)"/>
     <use xlink:href="#DejaVuSans-3d" transform="translate(65.917969 0.78125)"/>
     <use xlink:href="#DejaVuSans-31" transform="translate(149.707031 0.78125)"/>
     <use xlink:href="#DejaVuSans-2e" transform="translate(213.330078 0.78125)"/>
     <use xlink:href="#DejaVuSans-30" transform="translate(245.117188 0.78125)"/>
    </g>
    <!-- S=1000 -->
    <g transform="translate(115.663758 37.042931) scale(0.09 -0.09)">
     <defs>
      <path id="DejaVuSans-53" d="M 3425 4513 
L 3425 3897 
Q 3066 4069 2747 4153 
Q 2428 4238 2131 4238 
Q 1616 4238 1336 4038 
Q 1056 3838 1056 3469 
Q 1056 3159 1242 3001 
Q 1428 2844 1947 2747 
L 2328 2669 
Q 3034 2534 3370 2195 
Q 3706 1856 3706 1288 
Q 3706 609 3251 259 
Q 2797 -91 1919 -91 
Q 1588 -91 1214 -16 
Q 841 59 441 206 
L 441 856 
Q 825 641 1194 531 
Q 1563 422 1919 422 
Q 2459 422 2753 634 
Q 3047 847 3047 1241 
Q 3047 1584 2836 1778 
Q 2625 1972 2144 2069 
L 1759 2144 
Q 1053 2284 737 2584 
Q 422 2884 422 3419 
Q 422 4038 858 4394 
Q 1294 4750 2059 4750 
Q 2388 4750 2728 4690 
Q 3069 4631 3425 4513 
z
" transform="scale(0.015625)"/>
     </defs>
     <use xlink:href="#DejaVuSans-53"/>
     <use xlink:href="#DejaVuSans-3d" x="63.476562"/>
     <use xlink:href="#DejaVuSans-31" x="147.265625"/>
     <use xlink:href="#DejaVuSans-30" x="210.888672"/>
     <use xlink:href="#DejaVuSans-30" x="274.511719"/>
     <use xlink:href="#DejaVuSans-30" x="338.134766"/>
    </g>
   </g>
   <g id="text_11">
    <!-- A -->
    <g transform="translate(7.2 16.886868) scale(0.09 -0.09)">
     <defs>
      <path id="DejaVuSans-Bold-41" d="M 3419 850 
L 1538 850 
L 1241 0 
L 31 0 
L 1759 4666 
L 3194 4666 
L 4922 0 
L 3713 0 
L 3419 850 
z
M 1838 1716 
L 3116 1716 
L 2478 3572 
L 1838 1716 
z
" transform="scale(0.015625)"/>
     </defs>
     <use xlink:href="#DejaVuSans-Bold-41"/>
    </g>
   </g>
  </g>
  <g id="axes_2">
   <g id="patch_5">
    <path d="M 203.481597 121.332274 
L 318.262605 121.332274 
L 318.262605 10.048274 
L 203.481597 10.048274 
z
" style="fill: #ffffff"/>
   </g>
   <g id="matplotlib.axis_3">
    <g id="xtick_26">
     <g id="line2d_57">
      <g>
       <use xlink:href="#m41a00ab543" x="203.481597" y="121.332274" style="stroke: #000000; stroke-width: 0.8"/>
      </g>
     </g>
     <g id="text_12">
      <!-- $\mathdefault{10^{1}}$ -->
      <g transform="translate(196.884237 131.028823) scale(0.07497 -0.07497)">
       <use xlink:href="#DejaVuSans-31" transform="translate(0 0.684375)"/>
       <use xlink:href="#DejaVuSans-30" transform="translate(63.623047 0.684375)"/>
       <use xlink:href="#DejaVuSans-31" transform="translate(128.203125 38.965625) scale(0.7)"/>
      </g>
     </g>
    </g>
    <g id="xtick_27">
     <g id="line2d_58">
      <g>
       <use xlink:href="#m41a00ab543" x="241.741933" y="121.332274" style="stroke: #000000; stroke-width: 0.8"/>
      </g>
     </g>
     <g id="text_13">
      <!-- $\mathdefault{10^{2}}$ -->
      <g transform="translate(235.144573 131.028823) scale(0.07497 -0.07497)">
       <use xlink:href="#DejaVuSans-31" transform="translate(0 0.765625)"/>
       <use xlink:href="#DejaVuSans-30" transform="translate(63.623047 0.765625)"/>
       <use xlink:href="#DejaVuSans-32" transform="translate(128.203125 39.046875) scale(0.7)"/>
      </g>
     </g>
    </g>
    <g id="xtick_28">
     <g id="line2d_59">
      <g>
       <use xlink:href="#m41a00ab543" x="280.002269" y="121.332274" style="stroke: #000000; stroke-width: 0.8"/>
      </g>
     </g>
     <g id="text_14">
      <!-- $\mathdefault{10^{3}}$ -->
      <g transform="translate(273.404909 131.028823) scale(0.07497 -0.07497)">
       <use xlink:href="#DejaVuSans-31" transform="translate(0 0.765625)"/>
       <use xlink:href="#DejaVuSans-30" transform="translate(63.623047 0.765625)"/>
       <use xlink:href="#DejaVuSans-33" transform="translate(128.203125 39.046875) scale(0.7)"/>
      </g>
     </g>
    </g>
    <g id="xtick_29">
     <g id="line2d_60">
      <g>
       <use xlink:href="#m41a00ab543" x="318.262605" y="121.332274" style="stroke: #000000; stroke-width: 0.8"/>
      </g>
     </g>
     <g id="text_15">
      <!-- $\mathdefault{10^{4}}$ -->
      <g transform="translate(311.665245 131.028823) scale(0.07497 -0.07497)">
       <use xlink:href="#DejaVuSans-31" transform="translate(0 0.684375)"/>
       <use xlink:href="#DejaVuSans-30" transform="translate(63.623047 0.684375)"/>
       <use xlink:href="#DejaVuSans-34" transform="translate(128.203125 38.965625) scale(0.7)"/>
      </g>
     </g>
    </g>
    <g id="xtick_30">
     <g id="line2d_61">
      <g>
       <use xlink:href="#m06f3319b39" x="214.999106" y="121.332274" style="stroke: #000000; stroke-width: 0.4"/>
      </g>
     </g>
    </g>
    <g id="xtick_31">
     <g id="line2d_62">
      <g>
       <use xlink:href="#m06f3319b39" x="221.736417" y="121.332274" style="stroke: #000000; stroke-width: 0.4"/>
      </g>
     </g>
    </g>
    <g id="xtick_32">
     <g id="line2d_63">
      <g>
       <use xlink:href="#m06f3319b39" x="226.516615" y="121.332274" style="stroke: #000000; stroke-width: 0.4"/>
      </g>
     </g>
    </g>
    <g id="xtick_33">
     <g id="line2d_64">
      <g>
       <use xlink:href="#m06f3319b39" x="230.224425" y="121.332274" style="stroke: #000000; stroke-width: 0.4"/>
      </g>
     </g>
    </g>
    <g id="xtick_34">
     <g id="line2d_65">
      <g>
       <use xlink:href="#m06f3319b39" x="233.253926" y="121.332274" style="stroke: #000000; stroke-width: 0.4"/>
      </g>
     </g>
    </g>
    <g id="xtick_35">
     <g id="line2d_66">
      <g>
       <use xlink:href="#m06f3319b39" x="235.815332" y="121.332274" style="stroke: #000000; stroke-width: 0.4"/>
      </g>
     </g>
    </g>
    <g id="xtick_36">
     <g id="line2d_67">
      <g>
       <use xlink:href="#m06f3319b39" x="238.034124" y="121.332274" style="stroke: #000000; stroke-width: 0.4"/>
      </g>
     </g>
    </g>
    <g id="xtick_37">
     <g id="line2d_68">
      <g>
       <use xlink:href="#m06f3319b39" x="239.991236" y="121.332274" style="stroke: #000000; stroke-width: 0.4"/>
      </g>
     </g>
    </g>
    <g id="xtick_38">
     <g id="line2d_69">
      <g>
       <use xlink:href="#m06f3319b39" x="253.259442" y="121.332274" style="stroke: #000000; stroke-width: 0.4"/>
      </g>
     </g>
    </g>
    <g id="xtick_39">
     <g id="line2d_70">
      <g>
       <use xlink:href="#m06f3319b39" x="259.996753" y="121.332274" style="stroke: #000000; stroke-width: 0.4"/>
      </g>
     </g>
    </g>
    <g id="xtick_40">
     <g id="line2d_71">
      <g>
       <use xlink:href="#m06f3319b39" x="264.776951" y="121.332274" style="stroke: #000000; stroke-width: 0.4"/>
      </g>
     </g>
    </g>
    <g id="xtick_41">
     <g id="line2d_72">
      <g>
       <use xlink:href="#m06f3319b39" x="268.484761" y="121.332274" style="stroke: #000000; stroke-width: 0.4"/>
      </g>
     </g>
    </g>
    <g id="xtick_42">
     <g id="line2d_73">
      <g>
       <use xlink:href="#m06f3319b39" x="271.514262" y="121.332274" style="stroke: #000000; stroke-width: 0.4"/>
      </g>
     </g>
    </g>
    <g id="xtick_43">
     <g id="line2d_74">
      <g>
       <use xlink:href="#m06f3319b39" x="274.075668" y="121.332274" style="stroke: #000000; stroke-width: 0.4"/>
      </g>
     </g>
    </g>
    <g id="xtick_44">
     <g id="line2d_75">
      <g>
       <use xlink:href="#m06f3319b39" x="276.29446" y="121.332274" style="stroke: #000000; stroke-width: 0.4"/>
      </g>
     </g>
    </g>
    <g id="xtick_45">
     <g id="line2d_76">
      <g>
       <use xlink:href="#m06f3319b39" x="278.251572" y="121.332274" style="stroke: #000000; stroke-width: 0.4"/>
      </g>
     </g>
    </g>
    <g id="xtick_46">
     <g id="line2d_77">
      <g>
       <use xlink:href="#m06f3319b39" x="291.519778" y="121.332274" style="stroke: #000000; stroke-width: 0.4"/>
      </g>
     </g>
    </g>
    <g id="xtick_47">
     <g id="line2d_78">
      <g>
       <use xlink:href="#m06f3319b39" x="298.257089" y="121.332274" style="stroke: #000000; stroke-width: 0.4"/>
      </g>
     </g>
    </g>
    <g id="xtick_48">
     <g id="line2d_79">
      <g>
       <use xlink:href="#m06f3319b39" x="303.037287" y="121.332274" style="stroke: #000000; stroke-width: 0.4"/>
      </g>
     </g>
    </g>
    <g id="xtick_49">
     <g id="line2d_80">
      <g>
       <use xlink:href="#m06f3319b39" x="306.745097" y="121.332274" style="stroke: #000000; stroke-width: 0.4"/>
      </g>
     </g>
    </g>
    <g id="xtick_50">
     <g id="line2d_81">
      <g>
       <use xlink:href="#m06f3319b39" x="309.774598" y="121.332274" style="stroke: #000000; stroke-width: 0.4"/>
      </g>
     </g>
    </g>
    <g id="xtick_51">
     <g id="line2d_82">
      <g>
       <use xlink:href="#m06f3319b39" x="312.336004" y="121.332274" style="stroke: #000000; stroke-width: 0.4"/>
      </g>
     </g>
    </g>
    <g id="xtick_52">
     <g id="line2d_83">
      <g>
       <use xlink:href="#m06f3319b39" x="314.554796" y="121.332274" style="stroke: #000000; stroke-width: 0.4"/>
      </g>
     </g>
    </g>
    <g id="xtick_53">
     <g id="line2d_84">
      <g>
       <use xlink:href="#m06f3319b39" x="316.511908" y="121.332274" style="stroke: #000000; stroke-width: 0.4"/>
      </g>
     </g>
    </g>
    <g id="text_16">
     <!-- Sample Size N -->
     <g transform="translate(228.533976 140.926558) scale(0.09 -0.09)">
      <defs>
       <path id="DejaVuSans-6d" d="M 3328 2828 
Q 3544 3216 3844 3400 
Q 4144 3584 4550 3584 
Q 5097 3584 5394 3201 
Q 5691 2819 5691 2113 
L 5691 0 
L 5113 0 
L 5113 2094 
Q 5113 2597 4934 2840 
Q 4756 3084 4391 3084 
Q 3944 3084 3684 2787 
Q 3425 2491 3425 1978 
L 3425 0 
L 2847 0 
L 2847 2094 
Q 2847 2600 2669 2842 
Q 2491 3084 2119 3084 
Q 1678 3084 1418 2786 
Q 1159 2488 1159 1978 
L 1159 0 
L 581 0 
L 581 3500 
L 1159 3500 
L 1159 2956 
Q 1356 3278 1631 3431 
Q 1906 3584 2284 3584 
Q 2666 3584 2933 3390 
Q 3200 3197 3328 2828 
z
" transform="scale(0.015625)"/>
       <path id="DejaVuSans-70" d="M 1159 525 
L 1159 -1331 
L 581 -1331 
L 581 3500 
L 1159 3500 
L 1159 2969 
Q 1341 3281 1617 3432 
Q 1894 3584 2278 3584 
Q 2916 3584 3314 3078 
Q 3713 2572 3713 1747 
Q 3713 922 3314 415 
Q 2916 -91 2278 -91 
Q 1894 -91 1617 61 
Q 1341 213 1159 525 
z
M 3116 1747 
Q 3116 2381 2855 2742 
Q 2594 3103 2138 3103 
Q 1681 3103 1420 2742 
Q 1159 2381 1159 1747 
Q 1159 1113 1420 752 
Q 1681 391 2138 391 
Q 2594 391 2855 752 
Q 3116 1113 3116 1747 
z
" transform="scale(0.015625)"/>
       <path id="DejaVuSans-20" transform="scale(0.015625)"/>
       <path id="DejaVuSans-7a" d="M 353 3500 
L 3084 3500 
L 3084 2975 
L 922 459 
L 3084 459 
L 3084 0 
L 275 0 
L 275 525 
L 2438 3041 
L 353 3041 
L 353 3500 
z
" transform="scale(0.015625)"/>
       <path id="DejaVuSans-4e" d="M 628 4666 
L 1478 4666 
L 3547 763 
L 3547 4666 
L 4159 4666 
L 4159 0 
L 3309 0 
L 1241 3903 
L 1241 0 
L 628 0 
L 628 4666 
z
" transform="scale(0.015625)"/>
      </defs>
      <use xlink:href="#DejaVuSans-53"/>
      <use xlink:href="#DejaVuSans-61" x="63.476562"/>
      <use xlink:href="#DejaVuSans-6d" x="124.755859"/>
      <use xlink:href="#DejaVuSans-70" x="222.167969"/>
      <use xlink:href="#DejaVuSans-6c" x="285.644531"/>
      <use xlink:href="#DejaVuSans-65" x="313.427734"/>
      <use xlink:href="#DejaVuSans-20" x="374.951172"/>
      <use xlink:href="#DejaVuSans-53" x="406.738281"/>
      <use xlink:href="#DejaVuSans-69" x="470.214844"/>
      <use xlink:href="#DejaVuSans-7a" x="497.998047"/>
      <use xlink:href="#DejaVuSans-65" x="550.488281"/>
      <use xlink:href="#DejaVuSans-20" x="612.011719"/>
      <use xlink:href="#DejaVuSans-4e" x="643.798828"/>
     </g>
    </g>
   </g>
   <g id="matplotlib.axis_4">
    <g id="ytick_31">
     <g id="line2d_85">
      <g>
       <use xlink:href="#m366cba0e8f" x="203.481597" y="121.332274" style="stroke: #000000; stroke-width: 0.8"/>
      </g>
     </g>
     <g id="text_17">
      <!-- −1.0 -->
      <g transform="translate(181.276773 124.180549) scale(0.07497 -0.07497)">
       <use xlink:href="#DejaVuSans-2212"/>
       <use xlink:href="#DejaVuSans-31" x="83.789062"/>
       <use xlink:href="#DejaVuSans-2e" x="147.412109"/>
       <use xlink:href="#DejaVuSans-30" x="179.199219"/>
      </g>
     </g>
    </g>
    <g id="ytick_32">
     <g id="line2d_86">
      <g>
       <use xlink:href="#m366cba0e8f" x="203.481597" y="93.511274" style="stroke: #000000; stroke-width: 0.8"/>
      </g>
     </g>
     <g id="text_18">
      <!-- −0.5 -->
      <g transform="translate(181.276773 96.359549) scale(0.07497 -0.07497)">
       <defs>
        <path id="DejaVuSans-35" d="M 691 4666 
L 3169 4666 
L 3169 4134 
L 1269 4134 
L 1269 2991 
Q 1406 3038 1543 3061 
Q 1681 3084 1819 3084 
Q 2600 3084 3056 2656 
Q 3513 2228 3513 1497 
Q 3513 744 3044 326 
Q 2575 -91 1722 -91 
Q 1428 -91 1123 -41 
Q 819 9 494 109 
L 494 744 
Q 775 591 1075 516 
Q 1375 441 1709 441 
Q 2250 441 2565 725 
Q 2881 1009 2881 1497 
Q 2881 1984 2565 2268 
Q 2250 2553 1709 2553 
Q 1456 2553 1204 2497 
Q 953 2441 691 2322 
L 691 4666 
z
" transform="scale(0.015625)"/>
       </defs>
       <use xlink:href="#DejaVuSans-2212"/>
       <use xlink:href="#DejaVuSans-30" x="83.789062"/>
       <use xlink:href="#DejaVuSans-2e" x="147.412109"/>
       <use xlink:href="#DejaVuSans-35" x="179.199219"/>
      </g>
     </g>
    </g>
    <g id="ytick_33">
     <g id="line2d_87">
      <g>
       <use xlink:href="#m366cba0e8f" x="203.481597" y="65.690274" style="stroke: #000000; stroke-width: 0.8"/>
      </g>
     </g>
     <g id="text_19">
      <!-- 0.0 -->
      <g transform="translate(187.559025 68.538549) scale(0.07497 -0.07497)">
       <use xlink:href="#DejaVuSans-30"/>
       <use xlink:href="#DejaVuSans-2e" x="63.623047"/>
       <use xlink:href="#DejaVuSans-30" x="95.410156"/>
      </g>
     </g>
    </g>
    <g id="ytick_34">
     <g id="line2d_88">
      <g>
       <use xlink:href="#m366cba0e8f" x="203.481597" y="37.869274" style="stroke: #000000; stroke-width: 0.8"/>
      </g>
     </g>
     <g id="text_20">
      <!-- 0.5 -->
      <g transform="translate(187.559025 40.717549) scale(0.07497 -0.07497)">
       <use xlink:href="#DejaVuSans-30"/>
       <use xlink:href="#DejaVuSans-2e" x="63.623047"/>
       <use xlink:href="#DejaVuSans-35" x="95.410156"/>
      </g>
     </g>
    </g>
    <g id="ytick_35">
     <g id="line2d_89">
      <g>
       <use xlink:href="#m366cba0e8f" x="203.481597" y="10.048274" style="stroke: #000000; stroke-width: 0.8"/>
      </g>
     </g>
     <g id="text_21">
      <!-- 1.0 -->
      <g transform="translate(187.559025 12.896549) scale(0.07497 -0.07497)">
       <use xlink:href="#DejaVuSans-31"/>
       <use xlink:href="#DejaVuSans-2e" x="63.623047"/>
       <use xlink:href="#DejaVuSans-30" x="95.410156"/>
      </g>
     </g>
    </g>
    <g id="text_22">
     <!-- Bias -->
     <g transform="translate(177.905054 75.129727) rotate(-90) scale(0.09 -0.09)">
      <defs>
       <path id="DejaVuSans-42" d="M 1259 2228 
L 1259 519 
L 2272 519 
Q 2781 519 3026 730 
Q 3272 941 3272 1375 
Q 3272 1813 3026 2020 
Q 2781 2228 2272 2228 
L 1259 2228 
z
M 1259 4147 
L 1259 2741 
L 2194 2741 
Q 2656 2741 2882 2914 
Q 3109 3088 3109 3444 
Q 3109 3797 2882 3972 
Q 2656 4147 2194 4147 
L 1259 4147 
z
M 628 4666 
L 2241 4666 
Q 2963 4666 3353 4366 
Q 3744 4066 3744 3513 
Q 3744 3084 3544 2831 
Q 3344 2578 2956 2516 
Q 3422 2416 3680 2098 
Q 3938 1781 3938 1306 
Q 3938 681 3513 340 
Q 3088 0 2303 0 
L 628 0 
L 628 4666 
z
" transform="scale(0.015625)"/>
       <path id="DejaVuSans-73" d="M 2834 3397 
L 2834 2853 
Q 2591 2978 2328 3040 
Q 2066 3103 1784 3103 
Q 1356 3103 1142 2972 
Q 928 2841 928 2578 
Q 928 2378 1081 2264 
Q 1234 2150 1697 2047 
L 1894 2003 
Q 2506 1872 2764 1633 
Q 3022 1394 3022 966 
Q 3022 478 2636 193 
Q 2250 -91 1575 -91 
Q 1294 -91 989 -36 
Q 684 19 347 128 
L 347 722 
Q 666 556 975 473 
Q 1284 391 1588 391 
Q 1994 391 2212 530 
Q 2431 669 2431 922 
Q 2431 1156 2273 1281 
Q 2116 1406 1581 1522 
L 1381 1569 
Q 847 1681 609 1914 
Q 372 2147 372 2553 
Q 372 3047 722 3315 
Q 1072 3584 1716 3584 
Q 2034 3584 2315 3537 
Q 2597 3491 2834 3397 
z
" transform="scale(0.015625)"/>
      </defs>
      <use xlink:href="#DejaVuSans-42"/>
      <use xlink:href="#DejaVuSans-69" x="68.603516"/>
      <use xlink:href="#DejaVuSans-61" x="96.386719"/>
      <use xlink:href="#DejaVuSans-73" x="157.666016"/>
     </g>
    </g>
   </g>
   <g id="patch_6">
    <path d="M 203.481597 121.332274 
L 203.481597 10.048274 
L 228.37052 10.048274 
L 228.37052 121.332274 
z
" clip-path="url(#pe5825264af)" style="fill: #1f77b4; opacity: 0.2; stroke: #1f77b4; stroke-width: 0.8; stroke-linejoin: miter"/>
   </g>
   <g id="patch_7">
    <path d="M 228.37052 121.332274 
L 228.37052 10.048274 
L 280.002269 10.048274 
L 280.002269 121.332274 
z
" clip-path="url(#pe5825264af)" style="fill: #ff7f0e; opacity: 0.2; stroke: #ff7f0e; stroke-width: 0.8; stroke-linejoin: miter"/>
   </g>
   <g id="patch_8">
    <path d="M 280.002269 121.332274 
L 280.002269 10.048274 
L 318.262605 10.048274 
L 318.262605 121.332274 
z
" clip-path="url(#pe5825264af)" style="fill: #2ca02c; opacity: 0.2; stroke: #2ca02c; stroke-width: 0.8; stroke-linejoin: miter"/>
   </g>
   <g id="line2d_90">
    <path d="M 203.481597 65.690274 
L 318.262605 65.690274 
" clip-path="url(#pe5825264af)" style="fill: none; stroke: #000000; stroke-width: 1.3; stroke-linecap: round"/>
   </g>
   <g id="line2d_91">
    <path d="M 203.481597 62.594503 
L 209.072505 67.066678 
L 214.999106 68.854097 
L 221.1731 62.190924 
L 227.327325 65.209959 
L 233.528581 65.167028 
L 239.617822 63.558928 
L 245.713499 64.729565 
L 251.7834 63.994672 
L 257.809582 66.527771 
L 263.880864 66.10275 
L 269.916711 66.551662 
L 275.958767 66.266628 
L 282.003633 65.586868 
L 288.049127 65.619723 
L 294.093049 64.927541 
L 300.135241 65.837635 
L 306.177195 65.579861 
L 312.219282 65.6554 
L 318.262605 65.685425 
" clip-path="url(#pe5825264af)" style="fill: none; stroke: #1f77b4; stroke-width: 2; stroke-linecap: round"/>
   </g>
   <g id="line2d_92">
    <path d="M 203.481597 62.552093 
L 209.072505 67.472501 
L 214.999106 68.456304 
L 221.1731 65.856881 
L 227.327325 69.901739 
L 233.528581 71.208184 
L 239.617822 74.400466 
L 245.713499 77.349459 
L 251.7834 80.750311 
L 257.809582 85.954056 
L 263.880864 90.752624 
L 269.916711 95.734454 
L 275.958767 100.626959 
L 282.003633 105.074771 
L 288.049127 108.969967 
L 294.093049 112.078152 
L 300.135241 114.573978 
L 306.177195 116.45519 
L 312.219282 117.85012 
L 318.262605 118.865289 
" clip-path="url(#pe5825264af)" style="fill: none; stroke: #ff7f0e; stroke-linecap: round"/>
   </g>
   <g id="patch_9">
    <path d="M 203.481597 121.332274 
L 203.481597 10.048274 
" style="fill: none; stroke: #000000; stroke-linejoin: miter; stroke-linecap: square"/>
   </g>
   <g id="patch_10">
    <path d="M 203.481597 121.332274 
L 318.262605 121.332274 
" style="fill: none; stroke: #000000; stroke-linejoin: miter; stroke-linecap: square"/>
   </g>
   <g id="text_23">
    <!-- B -->
    <g transform="translate(173.638535 16.886868) scale(0.09 -0.09)">
     <defs>
      <path id="DejaVuSans-Bold-42" d="M 2456 2859 
Q 2741 2859 2887 2984 
Q 3034 3109 3034 3353 
Q 3034 3594 2887 3720 
Q 2741 3847 2456 3847 
L 1791 3847 
L 1791 2859 
L 2456 2859 
z
M 2497 819 
Q 2859 819 3042 972 
Q 3225 1125 3225 1434 
Q 3225 1738 3044 1889 
Q 2863 2041 2497 2041 
L 1791 2041 
L 1791 819 
L 2497 819 
z
M 3616 2497 
Q 4003 2384 4215 2081 
Q 4428 1778 4428 1338 
Q 4428 663 3972 331 
Q 3516 0 2584 0 
L 588 0 
L 588 4666 
L 2394 4666 
Q 3366 4666 3802 4372 
Q 4238 4078 4238 3431 
Q 4238 3091 4078 2852 
Q 3919 2613 3616 2497 
z
" transform="scale(0.015625)"/>
     </defs>
     <use xlink:href="#DejaVuSans-Bold-42"/>
    </g>
   </g>
   <g id="legend_1">
    <g id="patch_11">
     <path d="M 230.217258 39.168899 
L 291.526945 39.168899 
Q 293.326945 39.168899 293.326945 37.368899 
L 293.326945 14.098274 
Q 293.326945 12.298274 291.526945 12.298274 
L 230.217258 12.298274 
Q 228.417258 12.298274 228.417258 14.098274 
L 228.417258 37.368899 
Q 228.417258 39.168899 230.217258 39.168899 
z
" style="fill: #ffffff; opacity: 0.8; stroke: #cccccc; stroke-width: 0.8; stroke-linejoin: miter"/>
    </g>
    <g id="line2d_93">
     <path d="M 232.017258 19.586868 
L 237.642258 19.586868 
L 243.267258 19.586868 
" style="fill: none; stroke: #1f77b4; stroke-width: 2; stroke-linecap: round"/>
    </g>
    <g id="text_24">
     <!-- Unbiased -->
     <g transform="translate(247.767258 22.736868) scale(0.09 -0.09)">
      <defs>
       <path id="DejaVuSans-55" d="M 556 4666 
L 1191 4666 
L 1191 1831 
Q 1191 1081 1462 751 
Q 1734 422 2344 422 
Q 2950 422 3222 751 
Q 3494 1081 3494 1831 
L 3494 4666 
L 4128 4666 
L 4128 1753 
Q 4128 841 3676 375 
Q 3225 -91 2344 -91 
Q 1459 -91 1007 375 
Q 556 841 556 1753 
L 556 4666 
z
" transform="scale(0.015625)"/>
       <path id="DejaVuSans-62" d="M 3116 1747 
Q 3116 2381 2855 2742 
Q 2594 3103 2138 3103 
Q 1681 3103 1420 2742 
Q 1159 2381 1159 1747 
Q 1159 1113 1420 752 
Q 1681 391 2138 391 
Q 2594 391 2855 752 
Q 3116 1113 3116 1747 
z
M 1159 2969 
Q 1341 3281 1617 3432 
Q 1894 3584 2278 3584 
Q 2916 3584 3314 3078 
Q 3713 2572 3713 1747 
Q 3713 922 3314 415 
Q 2916 -91 2278 -91 
Q 1894 -91 1617 61 
Q 1341 213 1159 525 
L 1159 0 
L 581 0 
L 581 4863 
L 1159 4863 
L 1159 2969 
z
" transform="scale(0.015625)"/>
       <path id="DejaVuSans-64" d="M 2906 2969 
L 2906 4863 
L 3481 4863 
L 3481 0 
L 2906 0 
L 2906 525 
Q 2725 213 2448 61 
Q 2172 -91 1784 -91 
Q 1150 -91 751 415 
Q 353 922 353 1747 
Q 353 2572 751 3078 
Q 1150 3584 1784 3584 
Q 2172 3584 2448 3432 
Q 2725 3281 2906 2969 
z
M 947 1747 
Q 947 1113 1208 752 
Q 1469 391 1925 391 
Q 2381 391 2643 752 
Q 2906 1113 2906 1747 
Q 2906 2381 2643 2742 
Q 2381 3103 1925 3103 
Q 1469 3103 1208 2742 
Q 947 2381 947 1747 
z
" transform="scale(0.015625)"/>
      </defs>
      <use xlink:href="#DejaVuSans-55"/>
      <use xlink:href="#DejaVuSans-6e" x="73.193359"/>
      <use xlink:href="#DejaVuSans-62" x="136.572266"/>
      <use xlink:href="#DejaVuSans-69" x="200.048828"/>
      <use xlink:href="#DejaVuSans-61" x="227.832031"/>
      <use xlink:href="#DejaVuSans-73" x="289.111328"/>
      <use xlink:href="#DejaVuSans-65" x="341.210938"/>
      <use xlink:href="#DejaVuSans-64" x="402.734375"/>
     </g>
    </g>
    <g id="line2d_94">
     <path d="M 232.017258 30.547181 
L 237.642258 30.547181 
L 243.267258 30.547181 
" style="fill: none; stroke: #ff7f0e; stroke-linecap: round"/>
    </g>
    <g id="text_25">
     <!-- Poisson -->
     <g transform="translate(247.767258 33.697181) scale(0.09 -0.09)">
      <defs>
       <path id="DejaVuSans-50" d="M 1259 4147 
L 1259 2394 
L 2053 2394 
Q 2494 2394 2734 2622 
Q 2975 2850 2975 3272 
Q 2975 3691 2734 3919 
Q 2494 4147 2053 4147 
L 1259 4147 
z
M 628 4666 
L 2053 4666 
Q 2838 4666 3239 4311 
Q 3641 3956 3641 3272 
Q 3641 2581 3239 2228 
Q 2838 1875 2053 1875 
L 1259 1875 
L 1259 0 
L 628 0 
L 628 4666 
z
" transform="scale(0.015625)"/>
       <path id="DejaVuSans-6f" d="M 1959 3097 
Q 1497 3097 1228 2736 
Q 959 2375 959 1747 
Q 959 1119 1226 758 
Q 1494 397 1959 397 
Q 2419 397 2687 759 
Q 2956 1122 2956 1747 
Q 2956 2369 2687 2733 
Q 2419 3097 1959 3097 
z
M 1959 3584 
Q 2709 3584 3137 3096 
Q 3566 2609 3566 1747 
Q 3566 888 3137 398 
Q 2709 -91 1959 -91 
Q 1206 -91 779 398 
Q 353 888 353 1747 
Q 353 2609 779 3096 
Q 1206 3584 1959 3584 
z
" transform="scale(0.015625)"/>
      </defs>
      <use xlink:href="#DejaVuSans-50"/>
      <use xlink:href="#DejaVuSans-6f" x="56.677734"/>
      <use xlink:href="#DejaVuSans-69" x="117.859375"/>
      <use xlink:href="#DejaVuSans-73" x="145.642578"/>
      <use xlink:href="#DejaVuSans-73" x="197.742188"/>
      <use xlink:href="#DejaVuSans-6f" x="249.841797"/>
      <use xlink:href="#DejaVuSans-6e" x="311.023438"/>
     </g>
    </g>
   </g>
  </g>
  <g id="axes_3">
   <g id="patch_12">
    <path d="M 369.920133 121.332274 
L 484.701141 121.332274 
L 484.701141 10.048274 
L 369.920133 10.048274 
z
" style="fill: #ffffff"/>
   </g>
   <g id="matplotlib.axis_5">
    <g id="xtick_54">
     <g id="line2d_95">
      <g>
       <use xlink:href="#m41a00ab543" x="369.920133" y="121.332274" style="stroke: #000000; stroke-width: 0.8"/>
      </g>
     </g>
     <g id="text_26">
      <!-- $\mathdefault{10^{1}}$ -->
      <g transform="translate(363.322773 131.028823) scale(0.07497 -0.07497)">
       <use xlink:href="#DejaVuSans-31" transform="translate(0 0.684375)"/>
       <use xlink:href="#DejaVuSans-30" transform="translate(63.623047 0.684375)"/>
       <use xlink:href="#DejaVuSans-31" transform="translate(128.203125 38.965625) scale(0.7)"/>
      </g>
     </g>
    </g>
    <g id="xtick_55">
     <g id="line2d_96">
      <g>
       <use xlink:href="#m41a00ab543" x="408.180469" y="121.332274" style="stroke: #000000; stroke-width: 0.8"/>
      </g>
     </g>
     <g id="text_27">
      <!-- $\mathdefault{10^{2}}$ -->
      <g transform="translate(401.583109 131.028823) scale(0.07497 -0.07497)">
       <use xlink:href="#DejaVuSans-31" transform="translate(0 0.765625)"/>
       <use xlink:href="#DejaVuSans-30" transform="translate(63.623047 0.765625)"/>
       <use xlink:href="#DejaVuSans-32" transform="translate(128.203125 39.046875) scale(0.7)"/>
      </g>
     </g>
    </g>
    <g id="xtick_56">
     <g id="line2d_97">
      <g>
       <use xlink:href="#m41a00ab543" x="446.440805" y="121.332274" style="stroke: #000000; stroke-width: 0.8"/>
      </g>
     </g>
     <g id="text_28">
      <!-- $\mathdefault{10^{3}}$ -->
      <g transform="translate(439.843445 131.028823) scale(0.07497 -0.07497)">
       <use xlink:href="#DejaVuSans-31" transform="translate(0 0.765625)"/>
       <use xlink:href="#DejaVuSans-30" transform="translate(63.623047 0.765625)"/>
       <use xlink:href="#DejaVuSans-33" transform="translate(128.203125 39.046875) scale(0.7)"/>
      </g>
     </g>
    </g>
    <g id="xtick_57">
     <g id="line2d_98">
      <g>
       <use xlink:href="#m41a00ab543" x="484.701141" y="121.332274" style="stroke: #000000; stroke-width: 0.8"/>
      </g>
     </g>
     <g id="text_29">
      <!-- $\mathdefault{10^{4}}$ -->
      <g transform="translate(478.103781 131.028823) scale(0.07497 -0.07497)">
       <use xlink:href="#DejaVuSans-31" transform="translate(0 0.684375)"/>
       <use xlink:href="#DejaVuSans-30" transform="translate(63.623047 0.684375)"/>
       <use xlink:href="#DejaVuSans-34" transform="translate(128.203125 38.965625) scale(0.7)"/>
      </g>
     </g>
    </g>
    <g id="xtick_58">
     <g id="line2d_99">
      <g>
       <use xlink:href="#m06f3319b39" x="381.437642" y="121.332274" style="stroke: #000000; stroke-width: 0.4"/>
      </g>
     </g>
    </g>
    <g id="xtick_59">
     <g id="line2d_100">
      <g>
       <use xlink:href="#m06f3319b39" x="388.174952" y="121.332274" style="stroke: #000000; stroke-width: 0.4"/>
      </g>
     </g>
    </g>
    <g id="xtick_60">
     <g id="line2d_101">
      <g>
       <use xlink:href="#m06f3319b39" x="392.95515" y="121.332274" style="stroke: #000000; stroke-width: 0.4"/>
      </g>
     </g>
    </g>
    <g id="xtick_61">
     <g id="line2d_102">
      <g>
       <use xlink:href="#m06f3319b39" x="396.66296" y="121.332274" style="stroke: #000000; stroke-width: 0.4"/>
      </g>
     </g>
    </g>
    <g id="xtick_62">
     <g id="line2d_103">
      <g>
       <use xlink:href="#m06f3319b39" x="399.692461" y="121.332274" style="stroke: #000000; stroke-width: 0.4"/>
      </g>
     </g>
    </g>
    <g id="xtick_63">
     <g id="line2d_104">
      <g>
       <use xlink:href="#m06f3319b39" x="402.253868" y="121.332274" style="stroke: #000000; stroke-width: 0.4"/>
      </g>
     </g>
    </g>
    <g id="xtick_64">
     <g id="line2d_105">
      <g>
       <use xlink:href="#m06f3319b39" x="404.472659" y="121.332274" style="stroke: #000000; stroke-width: 0.4"/>
      </g>
     </g>
    </g>
    <g id="xtick_65">
     <g id="line2d_106">
      <g>
       <use xlink:href="#m06f3319b39" x="406.429772" y="121.332274" style="stroke: #000000; stroke-width: 0.4"/>
      </g>
     </g>
    </g>
    <g id="xtick_66">
     <g id="line2d_107">
      <g>
       <use xlink:href="#m06f3319b39" x="419.697978" y="121.332274" style="stroke: #000000; stroke-width: 0.4"/>
      </g>
     </g>
    </g>
    <g id="xtick_67">
     <g id="line2d_108">
      <g>
       <use xlink:href="#m06f3319b39" x="426.435288" y="121.332274" style="stroke: #000000; stroke-width: 0.4"/>
      </g>
     </g>
    </g>
    <g id="xtick_68">
     <g id="line2d_109">
      <g>
       <use xlink:href="#m06f3319b39" x="431.215486" y="121.332274" style="stroke: #000000; stroke-width: 0.4"/>
      </g>
     </g>
    </g>
    <g id="xtick_69">
     <g id="line2d_110">
      <g>
       <use xlink:href="#m06f3319b39" x="434.923296" y="121.332274" style="stroke: #000000; stroke-width: 0.4"/>
      </g>
     </g>
    </g>
    <g id="xtick_70">
     <g id="line2d_111">
      <g>
       <use xlink:href="#m06f3319b39" x="437.952797" y="121.332274" style="stroke: #000000; stroke-width: 0.4"/>
      </g>
     </g>
    </g>
    <g id="xtick_71">
     <g id="line2d_112">
      <g>
       <use xlink:href="#m06f3319b39" x="440.514204" y="121.332274" style="stroke: #000000; stroke-width: 0.4"/>
      </g>
     </g>
    </g>
    <g id="xtick_72">
     <g id="line2d_113">
      <g>
       <use xlink:href="#m06f3319b39" x="442.732995" y="121.332274" style="stroke: #000000; stroke-width: 0.4"/>
      </g>
     </g>
    </g>
    <g id="xtick_73">
     <g id="line2d_114">
      <g>
       <use xlink:href="#m06f3319b39" x="444.690108" y="121.332274" style="stroke: #000000; stroke-width: 0.4"/>
      </g>
     </g>
    </g>
    <g id="xtick_74">
     <g id="line2d_115">
      <g>
       <use xlink:href="#m06f3319b39" x="457.958314" y="121.332274" style="stroke: #000000; stroke-width: 0.4"/>
      </g>
     </g>
    </g>
    <g id="xtick_75">
     <g id="line2d_116">
      <g>
       <use xlink:href="#m06f3319b39" x="464.695624" y="121.332274" style="stroke: #000000; stroke-width: 0.4"/>
      </g>
     </g>
    </g>
    <g id="xtick_76">
     <g id="line2d_117">
      <g>
       <use xlink:href="#m06f3319b39" x="469.475822" y="121.332274" style="stroke: #000000; stroke-width: 0.4"/>
      </g>
     </g>
    </g>
    <g id="xtick_77">
     <g id="line2d_118">
      <g>
       <use xlink:href="#m06f3319b39" x="473.183632" y="121.332274" style="stroke: #000000; stroke-width: 0.4"/>
      </g>
     </g>
    </g>
    <g id="xtick_78">
     <g id="line2d_119">
      <g>
       <use xlink:href="#m06f3319b39" x="476.213133" y="121.332274" style="stroke: #000000; stroke-width: 0.4"/>
      </g>
     </g>
    </g>
    <g id="xtick_79">
     <g id="line2d_120">
      <g>
       <use xlink:href="#m06f3319b39" x="478.77454" y="121.332274" style="stroke: #000000; stroke-width: 0.4"/>
      </g>
     </g>
    </g>
    <g id="xtick_80">
     <g id="line2d_121">
      <g>
       <use xlink:href="#m06f3319b39" x="480.993331" y="121.332274" style="stroke: #000000; stroke-width: 0.4"/>
      </g>
     </g>
    </g>
    <g id="xtick_81">
     <g id="line2d_122">
      <g>
       <use xlink:href="#m06f3319b39" x="482.950444" y="121.332274" style="stroke: #000000; stroke-width: 0.4"/>
      </g>
     </g>
    </g>
    <g id="text_30">
     <!-- Sample Size N -->
     <g transform="translate(394.972512 140.926558) scale(0.09 -0.09)">
      <use xlink:href="#DejaVuSans-53"/>
      <use xlink:href="#DejaVuSans-61" x="63.476562"/>
      <use xlink:href="#DejaVuSans-6d" x="124.755859"/>
      <use xlink:href="#DejaVuSans-70" x="222.167969"/>
      <use xlink:href="#DejaVuSans-6c" x="285.644531"/>
      <use xlink:href="#DejaVuSans-65" x="313.427734"/>
      <use xlink:href="#DejaVuSans-20" x="374.951172"/>
      <use xlink:href="#DejaVuSans-53" x="406.738281"/>
      <use xlink:href="#DejaVuSans-69" x="470.214844"/>
      <use xlink:href="#DejaVuSans-7a" x="497.998047"/>
      <use xlink:href="#DejaVuSans-65" x="550.488281"/>
      <use xlink:href="#DejaVuSans-20" x="612.011719"/>
      <use xlink:href="#DejaVuSans-4e" x="643.798828"/>
     </g>
    </g>
   </g>
   <g id="matplotlib.axis_6">
    <g id="ytick_36">
     <g id="line2d_123">
      <g>
       <use xlink:href="#m366cba0e8f" x="369.920133" y="121.332274" style="stroke: #000000; stroke-width: 0.8"/>
      </g>
     </g>
     <g id="text_31">
      <!-- 0 -->
      <g transform="translate(361.150167 124.180549) scale(0.07497 -0.07497)">
       <use xlink:href="#DejaVuSans-30"/>
      </g>
     </g>
    </g>
    <g id="ytick_37">
     <g id="line2d_124">
      <g>
       <use xlink:href="#m366cba0e8f" x="369.920133" y="99.075474" style="stroke: #000000; stroke-width: 0.8"/>
      </g>
     </g>
     <g id="text_32">
      <!-- 1 -->
      <g transform="translate(361.150167 101.923749) scale(0.07497 -0.07497)">
       <use xlink:href="#DejaVuSans-31"/>
      </g>
     </g>
    </g>
    <g id="ytick_38">
     <g id="line2d_125">
      <g>
       <use xlink:href="#m366cba0e8f" x="369.920133" y="76.818674" style="stroke: #000000; stroke-width: 0.8"/>
      </g>
     </g>
     <g id="text_33">
      <!-- 2 -->
      <g transform="translate(361.150167 79.666949) scale(0.07497 -0.07497)">
       <use xlink:href="#DejaVuSans-32"/>
      </g>
     </g>
    </g>
    <g id="ytick_39">
     <g id="line2d_126">
      <g>
       <use xlink:href="#m366cba0e8f" x="369.920133" y="54.561874" style="stroke: #000000; stroke-width: 0.8"/>
      </g>
     </g>
     <g id="text_34">
      <!-- 3 -->
      <g transform="translate(361.150167 57.410149) scale(0.07497 -0.07497)">
       <use xlink:href="#DejaVuSans-33"/>
      </g>
     </g>
    </g>
    <g id="ytick_40">
     <g id="line2d_127">
      <g>
       <use xlink:href="#m366cba0e8f" x="369.920133" y="32.305074" style="stroke: #000000; stroke-width: 0.8"/>
      </g>
     </g>
     <g id="text_35">
      <!-- 4 -->
      <g transform="translate(361.150167 35.153349) scale(0.07497 -0.07497)">
       <use xlink:href="#DejaVuSans-34"/>
      </g>
     </g>
    </g>
    <g id="ytick_41">
     <g id="line2d_128">
      <g>
       <use xlink:href="#m366cba0e8f" x="369.920133" y="10.048274" style="stroke: #000000; stroke-width: 0.8"/>
      </g>
     </g>
     <g id="text_36">
      <!-- 5 -->
      <g transform="translate(361.150167 12.896549) scale(0.07497 -0.07497)">
       <use xlink:href="#DejaVuSans-35"/>
      </g>
     </g>
    </g>
    <g id="text_37">
     <!-- Variance -->
     <g transform="translate(357.778448 85.130274) rotate(-90) scale(0.09 -0.09)">
      <defs>
       <path id="DejaVuSans-56" d="M 1831 0 
L 50 4666 
L 709 4666 
L 2188 738 
L 3669 4666 
L 4325 4666 
L 2547 0 
L 1831 0 
z
" transform="scale(0.015625)"/>
      </defs>
      <use xlink:href="#DejaVuSans-56"/>
      <use xlink:href="#DejaVuSans-61" x="60.658203"/>
      <use xlink:href="#DejaVuSans-72" x="121.9375"/>
      <use xlink:href="#DejaVuSans-69" x="163.050781"/>
      <use xlink:href="#DejaVuSans-61" x="190.833984"/>
      <use xlink:href="#DejaVuSans-6e" x="252.113281"/>
      <use xlink:href="#DejaVuSans-63" x="315.492188"/>
      <use xlink:href="#DejaVuSans-65" x="370.472656"/>
     </g>
    </g>
   </g>
   <g id="patch_13">
    <path d="M 369.920133 121.332274 
L 369.920133 10.048274 
L 394.809055 10.048274 
L 394.809055 121.332274 
z
" clip-path="url(#p010c1645ec)" style="fill: #1f77b4; opacity: 0.2; stroke: #1f77b4; stroke-width: 0.8; stroke-linejoin: miter"/>
   </g>
   <g id="patch_14">
    <path d="M 394.809055 121.332274 
L 394.809055 10.048274 
L 446.440805 10.048274 
L 446.440805 121.332274 
z
" clip-path="url(#p010c1645ec)" style="fill: #ff7f0e; opacity: 0.2; stroke: #ff7f0e; stroke-width: 0.8; stroke-linejoin: miter"/>
   </g>
   <g id="patch_15">
    <path d="M 446.440805 121.332274 
L 446.440805 10.048274 
L 484.701141 10.048274 
L 484.701141 121.332274 
z
" clip-path="url(#p010c1645ec)" style="fill: #2ca02c; opacity: 0.2; stroke: #2ca02c; stroke-width: 0.8; stroke-linejoin: miter"/>
   </g>
   <g id="line2d_129">
    <path d="M 379.199347 -1 
L 381.437642 35.754664 
L 387.611636 56.354177 
L 393.76586 76.704365 
L 399.967116 92.179629 
L 406.056357 100.581316 
L 412.152034 107.109915 
L 418.221936 112.545143 
L 424.248117 116.509119 
L 430.319399 117.216453 
L 436.355246 119.091952 
L 442.397302 119.635033 
L 448.442169 120.069108 
L 454.487662 120.461766 
L 460.531585 120.699467 
L 466.573776 120.927472 
L 472.615731 121.024018 
L 478.657817 121.112088 
L 484.701141 121.170544 
" clip-path="url(#p010c1645ec)" style="fill: none; stroke: #1f77b4; stroke-width: 2; stroke-linecap: round"/>
   </g>
   <g id="line2d_130">
    <path d="M 375.289141 -1 
L 375.511041 4.973585 
L 381.437642 66.408625 
L 387.611636 94.442927 
L 393.76586 109.223047 
L 399.967116 115.586807 
L 406.056357 118.928831 
L 412.152034 120.205321 
L 418.221936 120.862837 
L 424.248117 121.144234 
L 430.319399 121.248848 
L 436.355246 121.298806 
L 442.397302 121.319167 
L 448.442169 121.327456 
L 454.487662 121.330504 
L 460.531585 121.33164 
L 466.573776 121.33203 
L 472.615731 121.332192 
L 478.657817 121.332247 
L 484.701141 121.332264 
" clip-path="url(#p010c1645ec)" style="fill: none; stroke: #ff7f0e; stroke-linecap: round"/>
   </g>
   <g id="patch_16">
    <path d="M 369.920133 121.332274 
L 369.920133 10.048274 
" style="fill: none; stroke: #000000; stroke-linejoin: miter; stroke-linecap: square"/>
   </g>
   <g id="patch_17">
    <path d="M 369.920133 121.332274 
L 484.701141 121.332274 
" style="fill: none; stroke: #000000; stroke-linejoin: miter; stroke-linecap: square"/>
   </g>
   <g id="text_38">
    <!-- C -->
    <g transform="translate(340.077071 16.886868) scale(0.09 -0.09)">
     <defs>
      <path id="DejaVuSans-Bold-43" d="M 4288 256 
Q 3956 84 3597 -3 
Q 3238 -91 2847 -91 
Q 1681 -91 1000 561 
Q 319 1213 319 2328 
Q 319 3447 1000 4098 
Q 1681 4750 2847 4750 
Q 3238 4750 3597 4662 
Q 3956 4575 4288 4403 
L 4288 3438 
Q 3953 3666 3628 3772 
Q 3303 3878 2944 3878 
Q 2300 3878 1931 3465 
Q 1563 3053 1563 2328 
Q 1563 1606 1931 1193 
Q 2300 781 2944 781 
Q 3303 781 3628 887 
Q 3953 994 4288 1222 
L 4288 256 
z
" transform="scale(0.015625)"/>
     </defs>
     <use xlink:href="#DejaVuSans-Bold-43"/>
    </g>
   </g>
  </g>
 </g>
 <defs>
  <clipPath id="pe847da8698">
   <rect x="37.043062" y="10.048274" width="114.781008" height="111.284"/>
  </clipPath>
  <clipPath id="pe5825264af">
   <rect x="203.481597" y="10.048274" width="114.781008" height="111.284"/>
  </clipPath>
  <clipPath id="p010c1645ec">
   <rect x="369.920133" y="10.048274" width="114.781008" height="111.284"/>
  </clipPath>
 </defs>
</svg>
