<?xml version="1.0" encoding="utf-8" standalone="no"?>
<!DOCTYPE svg PUBLIC "-//W3C//DTD SVG 1.1//EN"
  "http://www.w3.org/Graphics/SVG/1.1/DTD/svg11.dtd">
<svg xmlns:xlink="http://www.w3.org/1999/xlink" width="500.719017pt" height="149.873965pt" viewBox="0 0 500.719017 149.873965" xmlns="http://www.w3.org/2000/svg" version="1.1">
 <metadata>
  <rdf:RDF xmlns:dc="http://purl.org/dc/elements/1.1/" xmlns:cc="http://creativecommons.org/ns#" xmlns:rdf="http://www.w3.org/1999/02/22-rdf-syntax-ns#">
   <cc:Work>
    <dc:type rdf:resource="http://purl.org/dc/dcmitype/StillImage"/>
    <dc:date>2024-06-04T15:32:23.944581</dc:date>
    <dc:format>image/svg+xml</dc:format>
    <dc:creator>
     <cc:Agent>
      <dc:title>Matplotlib v3.7.1, https://matplotlib.org/</dc:title>
     </cc:Agent>
    </dc:creator>
   </cc:Work>
  </rdf:RDF>
 </metadata>
 <defs>
  <style type="text/css">*{stroke-linejoin: round; stroke-linecap: butt}</style>
 </defs>
 <g id="figure_1">
  <g id="patch_1">
   <path d="M 0 149.873965 
L 500.719017 149.873965 
L 500.719017 0 
L 0 0 
L 0 149.873965 
z
" style="fill: none"/>
  </g>
  <g id="axes_1">
   <g id="patch_2">
    <path d="M 41.126076 121.188274 
L 162.290632 121.188274 
L 162.290632 10.048274 
L 41.126076 10.048274 
z
" style="fill: #ffffff"/>
   </g>
   <g id="matplotlib.axis_1">
    <g id="xtick_1">
     <g id="line2d_1">
      <defs>
       <path id="m06b35295f2" d="M 0 2 
L 0 -2 
" style="stroke: #000000; stroke-width: 0.8"/>
      </defs>
      <g>
       <use xlink:href="#m06b35295f2" x="62.073538" y="121.188274" style="stroke: #000000; stroke-width: 0.8"/>
      </g>
     </g>
     <g id="text_1">
      <!-- −7 -->
      <g transform="translate(56.547429 130.884823) scale(0.07497 -0.07497)">
       <defs>
        <path id="DejaVuSans-2212" d="M 678 2272 
L 4684 2272 
L 4684 1741 
L 678 1741 
L 678 2272 
z
" transform="scale(0.015625)"/>
        <path id="DejaVuSans-37" d="M 525 4666 
L 3525 4666 
L 3525 4397 
L 1831 0 
L 1172 0 
L 2766 4134 
L 525 4134 
L 525 4666 
z
" transform="scale(0.015625)"/>
       </defs>
       <use xlink:href="#DejaVuSans-2212"/>
       <use xlink:href="#DejaVuSans-37" x="83.789062"/>
      </g>
     </g>
    </g>
    <g id="xtick_2">
     <g id="line2d_2">
      <g>
       <use xlink:href="#m06b35295f2" x="94.434247" y="121.188274" style="stroke: #000000; stroke-width: 0.8"/>
      </g>
     </g>
     <g id="text_2">
      <!-- −6 -->
      <g transform="translate(88.908138 130.884823) scale(0.07497 -0.07497)">
       <defs>
        <path id="DejaVuSans-36" d="M 2113 2584 
Q 1688 2584 1439 2293 
Q 1191 2003 1191 1497 
Q 1191 994 1439 701 
Q 1688 409 2113 409 
Q 2538 409 2786 701 
Q 3034 994 3034 1497 
Q 3034 2003 2786 2293 
Q 2538 2584 2113 2584 
z
M 3366 4563 
L 3366 3988 
Q 3128 4100 2886 4159 
Q 2644 4219 2406 4219 
Q 1781 4219 1451 3797 
Q 1122 3375 1075 2522 
Q 1259 2794 1537 2939 
Q 1816 3084 2150 3084 
Q 2853 3084 3261 2657 
Q 3669 2231 3669 1497 
Q 3669 778 3244 343 
Q 2819 -91 2113 -91 
Q 1303 -91 875 529 
Q 447 1150 447 2328 
Q 447 3434 972 4092 
Q 1497 4750 2381 4750 
Q 2619 4750 2861 4703 
Q 3103 4656 3366 4563 
z
" transform="scale(0.015625)"/>
       </defs>
       <use xlink:href="#DejaVuSans-2212"/>
       <use xlink:href="#DejaVuSans-36" x="83.789062"/>
      </g>
     </g>
    </g>
    <g id="xtick_3">
     <g id="line2d_3">
      <g>
       <use xlink:href="#m06b35295f2" x="126.794957" y="121.188274" style="stroke: #000000; stroke-width: 0.8"/>
      </g>
     </g>
     <g id="text_3">
      <!-- −5 -->
      <g transform="translate(121.268848 130.884823) scale(0.07497 -0.07497)">
       <defs>
        <path id="DejaVuSans-35" d="M 691 4666 
L 3169 4666 
L 3169 4134 
L 1269 4134 
L 1269 2991 
Q 1406 3038 1543 3061 
Q 1681 3084 1819 3084 
Q 2600 3084 3056 2656 
Q 3513 2228 3513 1497 
Q 3513 744 3044 326 
Q 2575 -91 1722 -91 
Q 1428 -91 1123 -41 
Q 819 9 494 109 
L 494 744 
Q 775 591 1075 516 
Q 1375 441 1709 441 
Q 2250 441 2565 725 
Q 2881 1009 2881 1497 
Q 2881 1984 2565 2268 
Q 2250 2553 1709 2553 
Q 1456 2553 1204 2497 
Q 953 2441 691 2322 
L 691 4666 
z
" transform="scale(0.015625)"/>
       </defs>
       <use xlink:href="#DejaVuSans-2212"/>
       <use xlink:href="#DejaVuSans-35" x="83.789062"/>
      </g>
     </g>
    </g>
    <g id="xtick_4">
     <g id="line2d_4">
      <g>
       <use xlink:href="#m06b35295f2" x="159.155666" y="121.188274" style="stroke: #000000; stroke-width: 0.8"/>
      </g>
     </g>
     <g id="text_4">
      <!-- −4 -->
      <g transform="translate(153.629557 130.884823) scale(0.07497 -0.07497)">
       <defs>
        <path id="DejaVuSans-34" d="M 2419 4116 
L 825 1625 
L 2419 1625 
L 2419 4116 
z
M 2253 4666 
L 3047 4666 
L 3047 1625 
L 3713 1625 
L 3713 1100 
L 3047 1100 
L 3047 0 
L 2419 0 
L 2419 1100 
L 313 1100 
L 313 1709 
L 2253 4666 
z
" transform="scale(0.015625)"/>
       </defs>
       <use xlink:href="#DejaVuSans-2212"/>
       <use xlink:href="#DejaVuSans-34" x="83.789062"/>
      </g>
     </g>
    </g>
    <g id="text_5">
     <!-- $log_{10}$ Frequency -->
     <g transform="translate(65.573354 140.783965) scale(0.09 -0.09)">
      <defs>
       <path id="DejaVuSans-Oblique-6c" d="M 1172 4863 
L 1747 4863 
L 800 0 
L 225 0 
L 1172 4863 
z
" transform="scale(0.015625)"/>
       <path id="DejaVuSans-Oblique-6f" d="M 1625 -91 
Q 1009 -91 651 289 
Q 294 669 294 1325 
Q 294 1706 417 2101 
Q 541 2497 738 2766 
Q 1047 3184 1428 3384 
Q 1809 3584 2291 3584 
Q 2888 3584 3255 3212 
Q 3622 2841 3622 2241 
Q 3622 1825 3500 1412 
Q 3378 1000 3181 728 
Q 2875 309 2494 109 
Q 2113 -91 1625 -91 
z
M 891 1344 
Q 891 869 1089 633 
Q 1288 397 1691 397 
Q 2269 397 2648 901 
Q 3028 1406 3028 2181 
Q 3028 2634 2825 2865 
Q 2622 3097 2228 3097 
Q 1903 3097 1650 2945 
Q 1397 2794 1197 2484 
Q 1050 2253 970 1956 
Q 891 1659 891 1344 
z
" transform="scale(0.015625)"/>
       <path id="DejaVuSans-Oblique-67" d="M 3816 3500 
L 3219 434 
Q 3047 -456 2561 -893 
Q 2075 -1331 1253 -1331 
Q 950 -1331 690 -1286 
Q 431 -1241 206 -1147 
L 313 -588 
Q 525 -725 762 -790 
Q 1000 -856 1269 -856 
Q 1816 -856 2167 -557 
Q 2519 -259 2631 300 
L 2681 563 
Q 2441 288 2122 144 
Q 1803 0 1434 0 
Q 903 0 598 351 
Q 294 703 294 1319 
Q 294 1803 478 2267 
Q 663 2731 997 3091 
Q 1219 3328 1514 3456 
Q 1809 3584 2131 3584 
Q 2484 3584 2746 3420 
Q 3009 3256 3138 2956 
L 3238 3500 
L 3816 3500 
z
M 2950 2216 
Q 2950 2641 2750 2872 
Q 2550 3103 2181 3103 
Q 1953 3103 1747 3012 
Q 1541 2922 1394 2759 
Q 1156 2491 1023 2127 
Q 891 1763 891 1375 
Q 891 944 1092 712 
Q 1294 481 1672 481 
Q 2219 481 2584 976 
Q 2950 1472 2950 2216 
z
" transform="scale(0.015625)"/>
       <path id="DejaVuSans-31" d="M 794 531 
L 1825 531 
L 1825 4091 
L 703 3866 
L 703 4441 
L 1819 4666 
L 2450 4666 
L 2450 531 
L 3481 531 
L 3481 0 
L 794 0 
L 794 531 
z
" transform="scale(0.015625)"/>
       <path id="DejaVuSans-30" d="M 2034 4250 
Q 1547 4250 1301 3770 
Q 1056 3291 1056 2328 
Q 1056 1369 1301 889 
Q 1547 409 2034 409 
Q 2525 409 2770 889 
Q 3016 1369 3016 2328 
Q 3016 3291 2770 3770 
Q 2525 4250 2034 4250 
z
M 2034 4750 
Q 2819 4750 3233 4129 
Q 3647 3509 3647 2328 
Q 3647 1150 3233 529 
Q 2819 -91 2034 -91 
Q 1250 -91 836 529 
Q 422 1150 422 2328 
Q 422 3509 836 4129 
Q 1250 4750 2034 4750 
z
" transform="scale(0.015625)"/>
       <path id="DejaVuSans-20" transform="scale(0.015625)"/>
       <path id="DejaVuSans-46" d="M 628 4666 
L 3309 4666 
L 3309 4134 
L 1259 4134 
L 1259 2759 
L 3109 2759 
L 3109 2228 
L 1259 2228 
L 1259 0 
L 628 0 
L 628 4666 
z
" transform="scale(0.015625)"/>
       <path id="DejaVuSans-72" d="M 2631 2963 
Q 2534 3019 2420 3045 
Q 2306 3072 2169 3072 
Q 1681 3072 1420 2755 
Q 1159 2438 1159 1844 
L 1159 0 
L 581 0 
L 581 3500 
L 1159 3500 
L 1159 2956 
Q 1341 3275 1631 3429 
Q 1922 3584 2338 3584 
Q 2397 3584 2469 3576 
Q 2541 3569 2628 3553 
L 2631 2963 
z
" transform="scale(0.015625)"/>
       <path id="DejaVuSans-65" d="M 3597 1894 
L 3597 1613 
L 953 1613 
Q 991 1019 1311 708 
Q 1631 397 2203 397 
Q 2534 397 2845 478 
Q 3156 559 3463 722 
L 3463 178 
Q 3153 47 2828 -22 
Q 2503 -91 2169 -91 
Q 1331 -91 842 396 
Q 353 884 353 1716 
Q 353 2575 817 3079 
Q 1281 3584 2069 3584 
Q 2775 3584 3186 3129 
Q 3597 2675 3597 1894 
z
M 3022 2063 
Q 3016 2534 2758 2815 
Q 2500 3097 2075 3097 
Q 1594 3097 1305 2825 
Q 1016 2553 972 2059 
L 3022 2063 
z
" transform="scale(0.015625)"/>
       <path id="DejaVuSans-71" d="M 947 1747 
Q 947 1113 1208 752 
Q 1469 391 1925 391 
Q 2381 391 2643 752 
Q 2906 1113 2906 1747 
Q 2906 2381 2643 2742 
Q 2381 3103 1925 3103 
Q 1469 3103 1208 2742 
Q 947 2381 947 1747 
z
M 2906 525 
Q 2725 213 2448 61 
Q 2172 -91 1784 -91 
Q 1150 -91 751 415 
Q 353 922 353 1747 
Q 353 2572 751 3078 
Q 1150 3584 1784 3584 
Q 2172 3584 2448 3432 
Q 2725 3281 2906 2969 
L 2906 3500 
L 3481 3500 
L 3481 -1331 
L 2906 -1331 
L 2906 525 
z
" transform="scale(0.015625)"/>
       <path id="DejaVuSans-75" d="M 544 1381 
L 544 3500 
L 1119 3500 
L 1119 1403 
Q 1119 906 1312 657 
Q 1506 409 1894 409 
Q 2359 409 2629 706 
Q 2900 1003 2900 1516 
L 2900 3500 
L 3475 3500 
L 3475 0 
L 2900 0 
L 2900 538 
Q 2691 219 2414 64 
Q 2138 -91 1772 -91 
Q 1169 -91 856 284 
Q 544 659 544 1381 
z
M 1991 3584 
L 1991 3584 
z
" transform="scale(0.015625)"/>
       <path id="DejaVuSans-6e" d="M 3513 2113 
L 3513 0 
L 2938 0 
L 2938 2094 
Q 2938 2591 2744 2837 
Q 2550 3084 2163 3084 
Q 1697 3084 1428 2787 
Q 1159 2491 1159 1978 
L 1159 0 
L 581 0 
L 581 3500 
L 1159 3500 
L 1159 2956 
Q 1366 3272 1645 3428 
Q 1925 3584 2291 3584 
Q 2894 3584 3203 3211 
Q 3513 2838 3513 2113 
z
" transform="scale(0.015625)"/>
       <path id="DejaVuSans-63" d="M 3122 3366 
L 3122 2828 
Q 2878 2963 2633 3030 
Q 2388 3097 2138 3097 
Q 1578 3097 1268 2742 
Q 959 2388 959 1747 
Q 959 1106 1268 751 
Q 1578 397 2138 397 
Q 2388 397 2633 464 
Q 2878 531 3122 666 
L 3122 134 
Q 2881 22 2623 -34 
Q 2366 -91 2075 -91 
Q 1284 -91 818 406 
Q 353 903 353 1747 
Q 353 2603 823 3093 
Q 1294 3584 2113 3584 
Q 2378 3584 2631 3529 
Q 2884 3475 3122 3366 
z
" transform="scale(0.015625)"/>
       <path id="DejaVuSans-79" d="M 2059 -325 
Q 1816 -950 1584 -1140 
Q 1353 -1331 966 -1331 
L 506 -1331 
L 506 -850 
L 844 -850 
Q 1081 -850 1212 -737 
Q 1344 -625 1503 -206 
L 1606 56 
L 191 3500 
L 800 3500 
L 1894 763 
L 2988 3500 
L 3597 3500 
L 2059 -325 
z
" transform="scale(0.015625)"/>
      </defs>
      <use xlink:href="#DejaVuSans-Oblique-6c" transform="translate(0 0.015625)"/>
      <use xlink:href="#DejaVuSans-Oblique-6f" transform="translate(27.783203 0.015625)"/>
      <use xlink:href="#DejaVuSans-Oblique-67" transform="translate(88.964844 0.015625)"/>
      <use xlink:href="#DejaVuSans-31" transform="translate(152.441406 -16.390625) scale(0.7)"/>
      <use xlink:href="#DejaVuSans-30" transform="translate(196.977539 -16.390625) scale(0.7)"/>
      <use xlink:href="#DejaVuSans-20" transform="translate(244.248047 0.015625)"/>
      <use xlink:href="#DejaVuSans-46" transform="translate(276.035156 0.015625)"/>
      <use xlink:href="#DejaVuSans-72" transform="translate(333.554688 0.015625)"/>
      <use xlink:href="#DejaVuSans-65" transform="translate(374.667969 0.015625)"/>
      <use xlink:href="#DejaVuSans-71" transform="translate(436.191406 0.015625)"/>
      <use xlink:href="#DejaVuSans-75" transform="translate(499.667969 0.015625)"/>
      <use xlink:href="#DejaVuSans-65" transform="translate(563.046875 0.015625)"/>
      <use xlink:href="#DejaVuSans-6e" transform="translate(624.570312 0.015625)"/>
      <use xlink:href="#DejaVuSans-63" transform="translate(687.949219 0.015625)"/>
      <use xlink:href="#DejaVuSans-79" transform="translate(742.929688 0.015625)"/>
     </g>
    </g>
   </g>
   <g id="matplotlib.axis_2">
    <g id="ytick_1">
     <g id="line2d_5">
      <defs>
       <path id="m62aa7c27c3" d="M 2 0 
L -2 -0 
" style="stroke: #000000; stroke-width: 0.8"/>
      </defs>
      <g>
       <use xlink:href="#m62aa7c27c3" x="41.126076" y="116.136456" style="stroke: #000000; stroke-width: 0.8"/>
      </g>
     </g>
     <g id="text_6">
      <!-- 0 -->
      <g transform="translate(32.356109 118.98473) scale(0.07497 -0.07497)">
       <use xlink:href="#DejaVuSans-30"/>
      </g>
     </g>
    </g>
    <g id="ytick_2">
     <g id="line2d_6">
      <g>
       <use xlink:href="#m62aa7c27c3" x="41.126076" y="88.313274" style="stroke: #000000; stroke-width: 0.8"/>
      </g>
     </g>
     <g id="text_7">
      <!-- 2 -->
      <g transform="translate(32.356109 91.161549) scale(0.07497 -0.07497)">
       <defs>
        <path id="DejaVuSans-32" d="M 1228 531 
L 3431 531 
L 3431 0 
L 469 0 
L 469 531 
Q 828 903 1448 1529 
Q 2069 2156 2228 2338 
Q 2531 2678 2651 2914 
Q 2772 3150 2772 3378 
Q 2772 3750 2511 3984 
Q 2250 4219 1831 4219 
Q 1534 4219 1204 4116 
Q 875 4013 500 3803 
L 500 4441 
Q 881 4594 1212 4672 
Q 1544 4750 1819 4750 
Q 2544 4750 2975 4387 
Q 3406 4025 3406 3419 
Q 3406 3131 3298 2873 
Q 3191 2616 2906 2266 
Q 2828 2175 2409 1742 
Q 1991 1309 1228 531 
z
" transform="scale(0.015625)"/>
       </defs>
       <use xlink:href="#DejaVuSans-32"/>
      </g>
     </g>
    </g>
    <g id="ytick_3">
     <g id="line2d_7">
      <g>
       <use xlink:href="#m62aa7c27c3" x="41.126076" y="60.490093" style="stroke: #000000; stroke-width: 0.8"/>
      </g>
     </g>
     <g id="text_8">
      <!-- 4 -->
      <g transform="translate(32.356109 63.338367) scale(0.07497 -0.07497)">
       <use xlink:href="#DejaVuSans-34"/>
      </g>
     </g>
    </g>
    <g id="ytick_4">
     <g id="line2d_8">
      <g>
       <use xlink:href="#m62aa7c27c3" x="41.126076" y="32.666911" style="stroke: #000000; stroke-width: 0.8"/>
      </g>
     </g>
     <g id="text_9">
      <!-- 6 -->
      <g transform="translate(32.356109 35.515185) scale(0.07497 -0.07497)">
       <use xlink:href="#DejaVuSans-36"/>
      </g>
     </g>
    </g>
    <g id="text_10">
     <!-- $log_{10}$ Rank -->
     <g transform="translate(28.966109 89.423274) rotate(-90) scale(0.09 -0.09)">
      <defs>
       <path id="DejaVuSans-52" d="M 2841 2188 
Q 3044 2119 3236 1894 
Q 3428 1669 3622 1275 
L 4263 0 
L 3584 0 
L 2988 1197 
Q 2756 1666 2539 1819 
Q 2322 1972 1947 1972 
L 1259 1972 
L 1259 0 
L 628 0 
L 628 4666 
L 2053 4666 
Q 2853 4666 3247 4331 
Q 3641 3997 3641 3322 
Q 3641 2881 3436 2590 
Q 3231 2300 2841 2188 
z
M 1259 4147 
L 1259 2491 
L 2053 2491 
Q 2509 2491 2742 2702 
Q 2975 2913 2975 3322 
Q 2975 3731 2742 3939 
Q 2509 4147 2053 4147 
L 1259 4147 
z
" transform="scale(0.015625)"/>
       <path id="DejaVuSans-61" d="M 2194 1759 
Q 1497 1759 1228 1600 
Q 959 1441 959 1056 
Q 959 750 1161 570 
Q 1363 391 1709 391 
Q 2188 391 2477 730 
Q 2766 1069 2766 1631 
L 2766 1759 
L 2194 1759 
z
M 3341 1997 
L 3341 0 
L 2766 0 
L 2766 531 
Q 2569 213 2275 61 
Q 1981 -91 1556 -91 
Q 1019 -91 701 211 
Q 384 513 384 1019 
Q 384 1609 779 1909 
Q 1175 2209 1959 2209 
L 2766 2209 
L 2766 2266 
Q 2766 2663 2505 2880 
Q 2244 3097 1772 3097 
Q 1472 3097 1187 3025 
Q 903 2953 641 2809 
L 641 3341 
Q 956 3463 1253 3523 
Q 1550 3584 1831 3584 
Q 2591 3584 2966 3190 
Q 3341 2797 3341 1997 
z
" transform="scale(0.015625)"/>
       <path id="DejaVuSans-6b" d="M 581 4863 
L 1159 4863 
L 1159 1991 
L 2875 3500 
L 3609 3500 
L 1753 1863 
L 3688 0 
L 2938 0 
L 1159 1709 
L 1159 0 
L 581 0 
L 581 4863 
z
" transform="scale(0.015625)"/>
      </defs>
      <use xlink:href="#DejaVuSans-Oblique-6c" transform="translate(0 0.015625)"/>
      <use xlink:href="#DejaVuSans-Oblique-6f" transform="translate(27.783203 0.015625)"/>
      <use xlink:href="#DejaVuSans-Oblique-67" transform="translate(88.964844 0.015625)"/>
      <use xlink:href="#DejaVuSans-31" transform="translate(152.441406 -16.390625) scale(0.7)"/>
      <use xlink:href="#DejaVuSans-30" transform="translate(196.977539 -16.390625) scale(0.7)"/>
      <use xlink:href="#DejaVuSans-20" transform="translate(244.248047 0.015625)"/>
      <use xlink:href="#DejaVuSans-52" transform="translate(276.035156 0.015625)"/>
      <use xlink:href="#DejaVuSans-61" transform="translate(345.517578 0.015625)"/>
      <use xlink:href="#DejaVuSans-6e" transform="translate(406.796875 0.015625)"/>
      <use xlink:href="#DejaVuSans-6b" transform="translate(470.175781 0.015625)"/>
     </g>
    </g>
   </g>
   <g id="line2d_9">
    <path d="M 156.783152 116.136456 
L 154.955529 116.136456 
L 154.955529 111.94865 
L 153.940708 111.94865 
L 153.940708 109.49894 
L 151.890334 109.49894 
L 151.890334 107.760844 
L 151.098573 107.760844 
L 151.065289 105.311134 
L 149.856807 105.311134 
L 149.856807 104.379798 
L 149.158844 104.379798 
L 149.158844 103.573038 
L 148.840406 103.573038 
L 148.840406 102.861425 
L 148.693242 102.861425 
L 148.693242 102.224865 
L 147.891673 102.224865 
L 147.828885 101.123328 
L 147.435367 101.123328 
L 147.435367 100.639732 
L 146.896662 100.639732 
L 146.896662 100.191992 
L 146.498825 100.191992 
L 146.394677 99.018954 
L 146.383057 99.018954 
L 146.383057 98.673619 
L 146.184038 98.673619 
L 146.089397 98.037059 
L 146.053742 98.037059 
L 145.994115 96.935522 
L 145.83789 96.935522 
L 145.83789 96.688887 
L 145.43334 96.688887 
L 145.43334 96.451926 
L 145.320957 96.451926 
L 145.320957 96.004186 
L 145.042398 96.004186 
L 144.952595 95.389242 
L 144.705912 95.389242 
L 144.600736 94.656013 
L 144.521335 94.656013 
L 144.481465 94.159153 
L 144.239842 94.159153 
L 144.239842 94.002216 
L 144.103789 94.002216 
L 143.993991 93.412311 
L 143.81372 93.412311 
L 143.715684 93.13764 
L 143.659355 93.13764 
L 143.574436 92.874915 
L 143.316555 92.874915 
L 143.244074 92.50108 
L 143.112658 92.50108 
L 143.112658 92.381438 
L 142.831123 92.381438 
L 142.725961 91.925242 
L 142.374782 91.816379 
L 142.266136 91.604367 
L 142.093691 91.501087 
L 142.093691 91.399543 
L 141.546896 91.299678 
L 141.448155 90.915947 
L 141.38194 90.823705 
L 141.38194 90.732851 
L 141.096993 90.643342 
L 141.046104 90.468207 
L 140.754194 90.382507 
L 140.667172 90.051371 
L 140.544428 89.971347 
L 140.491493 89.737444 
L 140.402824 89.737444 
L 140.402824 89.661447 
L 140.331483 89.512261 
L 140.0789 89.439027 
L 140.060683 89.295169 
L 139.858727 89.224505 
L 139.803141 88.949834 
L 139.559693 88.883074 
L 139.483929 88.687109 
L 139.254157 88.623174 
L 139.196123 88.497301 
L 139.079329 88.435334 
L 138.981254 88.076313 
L 138.902298 88.076313 
L 138.902298 88.018497 
L 138.802976 87.848297 
L 138.622407 87.737436 
L 138.622407 87.68276 
L 138.45993 87.574869 
L 138.35742 87.468871 
L 138.212638 87.416561 
L 138.212638 87.364701 
L 138.108302 87.211737 
L 138.003185 87.111872 
L 137.918521 87.01363 
L 137.769122 86.91696 
L 137.726143 86.728141 
L 137.574673 86.681844 
L 137.574673 86.635899 
L 137.465473 86.411274 
L 137.421554 86.411274 
L 137.421554 86.323711 
L 137.399542 86.237399 
L 137.155118 86.194701 
L 137.155118 86.152303 
L 137.110216 85.985624 
L 136.997332 85.944663 
L 136.997332 85.903978 
L 136.951923 85.783541 
L 136.814809 85.704563 
L 136.72265 85.473641 
L 136.58327 85.398587 
L 136.513058 85.251221 
L 136.324093 85.143008 
L 136.25257 84.829534 
L 136.156638 84.762028 
L 136.156638 84.728555 
L 136.060046 84.563921 
L 135.962785 84.467251 
L 135.913902 84.340718 
L 135.591944 84.247527 
L 135.541751 84.035515 
L 135.313636 83.946882 
L 135.211051 83.744992 
L 135.133618 83.716693 
L 135.133618 83.660491 
L 135.081758 83.577155 
L 134.898726 83.4678 
L 134.793055 83.333831 
L 134.65984 83.228755 
L 134.579301 83.049158 
L 134.389561 82.948878 
L 134.279977 82.850235 
L 134.169532 82.777296 
L 134.169532 82.753177 
L 134.086125 82.563617 
L 134.030244 82.563617 
L 134.030244 82.471022 
L 133.946003 82.402495 
L 133.861255 82.334736 
L 133.861255 82.312318 
L 133.804471 82.245558 
L 133.661498 82.157677 
L 133.661498 82.135905 
L 133.575011 82.049593 
L 133.458861 81.943409 
L 133.371114 81.777303 
L 133.282816 81.716172 
L 133.282816 81.675759 
L 133.223641 81.595735 
L 133.104538 81.516757 
L 133.104538 81.497172 
L 133.014543 81.419464 
L 132.86326 81.342743 
L 132.86326 81.323714 
L 132.771702 81.155097 
L 132.64869 81.099921 
L 132.64869 81.045244 
L 132.555719 80.901813 
L 132.336364 80.796432 
L 132.273058 80.658723 
L 132.145582 80.557462 
L 132.049211 80.441431 
L 131.952174 80.376114 
L 131.952174 80.343719 
L 131.854463 80.168584 
L 131.756068 80.090625 
L 131.756068 80.059721 
L 131.656979 79.952785 
L 131.557186 79.847709 
L 131.45668 79.700701 
L 131.287555 79.614183 
L 131.287555 79.599883 
L 131.219331 79.50072 
L 131.081882 79.403159 
L 130.977906 79.172582 
L 130.767616 79.067047 
L 130.66128 78.912123 
L 130.482244 78.811003 
L 130.373718 78.638018 
L 130.264347 78.577418 
L 130.264347 78.529372 
L 130.154119 78.399183 
L 130.043019 78.294713 
L 129.968461 78.102177 
L 129.855878 78.046697 
L 129.855878 77.991721 
L 129.780318 77.926405 
L 129.627969 77.829735 
L 129.627969 77.819089 
L 129.55117 77.745086 
L 129.47395 77.703202 
L 129.47395 77.640916 
L 129.396303 77.558854 
L 129.279022 77.487952 
L 129.279022 77.447808 
L 129.200288 77.260682 
L 129.081352 77.174026 
L 129.081352 77.154937 
L 129.001499 77.022975 
L 128.880863 76.921275 
L 128.880863 76.912114 
L 128.799859 76.794268 
L 128.636438 76.696315 
L 128.636438 76.687489 
L 128.554009 76.565253 
L 128.387687 76.479432 
L 128.387687 76.462413 
L 128.303782 76.394813 
L 128.219372 76.352943 
L 128.219372 76.28655 
L 128.134453 76.196434 
L 127.96306 76.107643 
L 127.96306 76.091639 
L 127.876573 75.941673 
L 127.789551 75.902819 
L 127.789551 75.833506 
L 127.701986 75.757413 
L 127.569608 75.667348 
L 127.569608 75.652467 
L 127.480657 75.527436 
L 127.346168 75.455079 
L 127.346168 75.419223 
L 127.255787 75.334027 
L 127.119118 75.256972 
L 127.119118 75.229194 
L 127.027261 75.126149 
L 126.841726 75.024832 
L 126.841726 75.018137 
L 126.748031 74.905452 
L 126.606308 74.846636 
L 126.606308 74.794831 
L 126.511026 74.660919 
L 126.366881 74.560847 
L 126.366881 74.554647 
L 126.269956 74.425899 
L 126.123303 74.329614 
L 126.123303 74.317686 
L 126.024677 74.19968 
L 125.875429 74.124193 
L 125.875429 74.089669 
L 125.775042 73.975993 
L 125.623105 73.881021 
L 125.623105 73.869946 
L 125.520893 73.765728 
L 125.366168 73.684702 
L 125.366168 73.657934 
L 125.262063 73.520616 
L 125.157181 73.447948 
L 125.157181 73.411939 
L 125.051511 73.320319 
L 124.94504 73.260002 
L 124.94504 73.210193 
L 124.837757 73.063185 
L 124.67528 72.967131 
L 124.67528 72.952853 
L 124.565909 72.858523 
L 124.40024 72.751833 
L 124.344581 72.646995 
L 124.176266 72.539504 
L 124.119711 72.438256 
L 123.948665 72.364496 
L 123.948665 72.330095 
L 123.891184 72.274607 
L 123.717317 72.190224 
L 123.717317 72.165137 
L 123.65888 72.102872 
L 123.482097 72.000502 
L 123.482097 71.992387 
L 123.422671 71.903832 
L 123.242873 71.792972 
L 123.182425 71.69182 
L 123.060744 71.638047 
L 123.060744 71.58096 
L 122.999506 71.52816 
L 122.814175 71.427618 
L 122.814175 71.420236 
L 122.75185 71.303343 
L 122.563202 71.245734 
L 122.563202 71.195772 
L 122.499753 71.132137 
L 122.307667 71.07613 
L 122.307667 71.024091 
L 122.24305 70.938343 
L 122.112919 70.860515 
L 122.112919 70.830331 
L 122.047398 70.750571 
L 121.848985 70.655579 
L 121.848985 70.642593 
L 121.782219 70.53651 
L 121.579999 70.441662 
L 121.579999 70.425997 
L 121.51194 70.332855 
L 121.374826 70.271548 
L 121.374826 70.222947 
L 121.305764 70.147781 
L 121.166614 70.0824 
L 121.166614 70.038225 
L 121.096519 69.985637 
L 120.95527 69.924857 
L 120.95527 69.876099 
L 120.88411 69.807926 
L 120.668443 69.698761 
L 120.595811 69.558919 
L 120.375639 69.448797 
L 120.301474 69.322375 
L 120.151962 69.265303 
L 120.151962 69.211325 
L 120.076604 69.135039 
L 119.924667 69.092235 
L 119.924667 69.024868 
L 119.848078 68.928868 
L 119.693636 68.851222 
L 119.693636 68.819961 
L 119.615774 68.705918 
L 119.458743 68.621777 
L 119.458743 68.596299 
L 119.379565 68.506824 
L 119.219858 68.432136 
L 119.219858 68.396254 
L 119.139319 68.272316 
L 118.976842 68.215627 
L 118.976842 68.161615 
L 118.894894 68.052906 
L 118.646143 67.946118 
L 118.646143 67.941969 
L 118.562237 67.818789 
L 118.392909 67.738043 
L 118.392909 67.70804 
L 118.307474 67.595366 
L 118.135029 67.504014 
L 118.135029 67.484754 
L 118.048006 67.378021 
L 117.872328 67.306654 
L 117.872328 67.267573 
L 117.783659 67.157285 
L 117.604623 67.081265 
L 117.604623 67.047187 
L 117.514243 66.926773 
L 117.33172 66.844927 
L 117.33172 66.817315 
L 117.239562 66.706424 
L 117.053412 66.630828 
L 117.053412 66.595871 
L 116.959405 66.484044 
L 116.769482 66.40312 
L 116.769482 66.374251 
L 116.673549 66.260133 
L 116.479697 66.186785 
L 116.479697 66.149672 
L 116.381759 66.003457 
L 116.183811 65.937607 
L 116.183811 65.893116 
L 116.083781 65.781853 
L 115.881561 65.706889 
L 115.881561 65.671177 
L 115.779349 65.556899 
L 115.572668 65.476379 
L 115.572668 65.446115 
L 115.468176 65.335978 
L 115.256832 65.237085 
L 115.256832 65.225167 
L 115.149957 65.071046 
L 114.933736 64.987799 
L 114.933736 64.961147 
L 114.824365 64.803658 
L 114.603036 64.711827 
L 114.603036 64.693628 
L 114.603036 64.620175 
L 114.378166 64.53697 
L 114.378166 64.50988 
L 114.378166 64.457226 
L 114.14964 64.371625 
L 114.14964 64.346408 
L 114.14964 64.290618 
L 113.917336 64.201743 
L 113.917336 64.180562 
L 113.917336 64.110855 
L 113.681127 64.025651 
L 113.681127 64.000755 
L 113.681127 63.95341 
L 113.440881 63.857711 
L 113.440881 63.842959 
L 113.440881 63.758312 
L 113.196456 63.668696 
L 113.196456 63.647263 
L 113.196456 63.576362 
L 112.947704 63.476496 
L 112.947704 63.465611 
L 112.947704 63.373384 
L 112.694471 63.285422 
L 112.694471 63.262435 
L 112.694471 63.17889 
L 112.436591 63.097415 
L 112.436591 63.068647 
L 112.436591 63.004186 
L 112.17389 62.915082 
L 112.17389 62.893459 
L 112.17389 62.811282 
L 111.906185 62.718838 
L 111.906185 62.700518 
L 111.906185 62.626067 
L 111.633282 62.517772 
L 111.633282 62.515238 
L 111.633282 62.410555 
L 111.354974 62.299498 
L 111.354974 62.192848 
L 111.071044 62.0849 
L 111.071044 62.081754 
L 111.071044 61.974212 
L 110.781259 61.872346 
L 110.781259 61.863239 
L 110.781259 61.751289 
L 110.634094 61.751289 
L 110.634094 61.640645 
L 110.634094 61.634801 
L 110.485373 61.634801 
L 110.485373 61.524099 
L 110.485373 61.521232 
L 110.183123 61.423141 
L 110.183123 61.410463 
L 110.183123 61.318989 
L 109.87423 61.212515 
L 109.87423 61.208431 
L 109.87423 61.117931 
L 109.558394 61.017549 
L 109.558394 61.00701 
L 109.558394 60.894857 
L 109.235298 60.784114 
L 109.235298 60.663539 
L 109.070921 60.663539 
L 109.070921 60.552645 
L 109.070921 60.538012 
L 108.904598 60.538012 
L 108.904598 60.426985 
L 108.904598 60.418023 
L 108.736284 60.418023 
L 108.736284 60.307402 
L 108.736284 60.295105 
L 108.565929 60.295105 
L 108.565929 60.184393 
L 108.565929 60.166614 
L 108.393485 60.166614 
L 108.393485 60.055962 
L 108.393485 60.039117 
L 108.218898 60.039117 
L 108.218898 59.928552 
L 108.218898 59.913156 
L 108.042114 59.913156 
L 108.042114 59.802156 
L 108.042114 59.789768 
L 107.863079 59.789768 
L 107.863079 59.678878 
L 107.863079 59.652523 
L 107.681734 59.652523 
L 107.681734 59.541519 
L 107.681734 59.51524 
L 107.498018 59.51524 
L 107.498018 59.404183 
L 107.498018 59.381008 
L 107.311868 59.381008 
L 107.311868 59.269901 
L 107.311868 59.238387 
L 107.12322 59.238387 
L 107.12322 59.127437 
L 107.12322 59.111065 
L 106.932005 59.111065 
L 106.932005 59.000048 
L 106.932005 58.957237 
L 106.738153 58.957237 
L 106.738153 58.846223 
L 106.738153 58.827841 
L 106.541589 58.827841 
L 106.541589 58.716905 
L 106.541589 58.685004 
L 106.342237 58.685004 
L 106.342237 58.573996 
L 106.342237 58.561251 
L 106.140017 58.561251 
L 106.140017 58.450318 
L 106.140017 58.415074 
L 105.934844 58.415074 
L 105.934844 58.304245 
L 105.934844 58.268586 
L 105.726632 58.268167 
L 105.726632 58.157512 
L 105.726632 58.125973 
L 105.515288 58.125973 
L 105.515288 58.015061 
L 105.515288 57.987848 
L 105.300718 57.987848 
L 105.300718 57.877067 
L 105.300718 57.855543 
L 105.082821 57.855543 
L 105.082821 57.744455 
L 105.082821 57.706986 
L 104.861492 57.706986 
L 104.861492 57.595952 
L 104.861492 57.553442 
L 104.636622 57.553442 
L 104.636622 57.442615 
L 104.636622 57.398992 
L 104.408096 57.398992 
L 104.408096 57.288092 
L 104.408096 57.248393 
L 104.175791 57.248393 
L 104.175791 57.137423 
L 104.175791 57.084584 
L 103.939583 57.084584 
L 103.939583 56.973517 
L 103.939583 56.92376 
L 103.699336 56.92376 
L 103.699336 56.812955 
L 103.699336 56.751142 
L 103.454912 56.751142 
L 103.454912 56.640234 
L 103.454912 56.582686 
L 103.20616 56.582686 
L 103.20616 56.471693 
L 103.20616 56.399429 
L 102.952927 56.399429 
L 102.952927 56.288406 
L 102.952927 56.225741 
L 102.695047 56.225741 
L 102.695047 56.114908 
L 102.695047 56.04995 
L 102.432346 56.04995 
L 102.432346 55.938853 
L 102.432346 55.858043 
L 102.164641 55.858043 
L 102.164641 55.74708 
L 102.164641 55.669867 
L 101.891738 55.669867 
L 101.891738 55.558804 
L 101.891738 55.500588 
L 101.61343 55.500588 
L 101.61343 55.389709 
L 101.61343 55.311517 
L 101.3295 55.311517 
L 101.3295 55.200498 
L 101.3295 55.119235 
L 101.039715 55.119235 
L 101.039715 55.008248 
L 101.039715 54.933607 
L 100.743828 54.933607 
L 100.743828 54.822637 
L 100.743828 54.731345 
L 100.441579 54.731345 
L 100.441579 54.620336 
L 100.441579 54.5415 
L 100.132685 54.5415 
L 100.132685 54.43057 
L 100.132685 54.345848 
L 99.81685 54.345848 
L 99.81685 54.234773 
L 99.81685 54.144485 
L 99.493754 54.144485 
L 99.493754 54.03349 
L 99.493754 53.922663 
L 99.163054 53.922663 
L 99.163054 53.811632 
L 99.163054 53.695537 
L 98.824385 53.695537 
L 98.824385 53.584519 
L 98.824385 53.469264 
L 98.477353 53.469264 
L 98.477353 53.358208 
L 98.477353 53.24442 
L 98.121535 53.24442 
L 98.121535 53.13345 
L 98.121535 53.009574 
L 97.756473 53.009574 
L 97.756473 52.898497 
L 97.756473 52.777952 
L 97.381676 52.777952 
L 97.381676 52.666877 
L 97.381676 52.537037 
L 96.996609 52.537037 
L 96.996609 52.42597 
L 96.996609 52.282644 
L 96.600693 52.282644 
L 96.600693 52.171541 
L 96.600693 52.04256 
L 96.1933 52.04256 
L 96.1933 51.931496 
L 96.1933 51.779988 
L 95.773744 51.779988 
L 95.773744 51.668974 
L 95.773744 51.511379 
L 95.341277 51.511242 
L 95.341277 51.400317 
L 95.341277 51.24622 
L 94.895078 51.24622 
L 94.895078 51.135131 
L 94.895078 50.972424 
L 94.434247 50.972424 
L 94.434247 50.861424 
L 94.434247 50.679451 
L 93.957792 50.679451 
L 93.957792 50.568396 
L 93.957792 50.381295 
L 93.464616 50.381295 
L 93.464616 50.270195 
L 93.464616 50.065122 
L 92.953502 50.065122 
L 92.953502 49.954037 
L 92.953502 49.736691 
L 92.423097 49.736691 
L 92.423097 49.625627 
L 92.423097 49.407608 
L 91.871886 49.407608 
L 91.871886 49.296503 
L 91.871886 49.065908 
L 91.29817 49.065908 
L 91.29817 48.954859 
L 91.29817 48.707167 
L 90.700034 48.707167 
L 90.700034 48.596133 
L 90.700034 48.338711 
L 90.075306 48.338711 
L 90.075306 48.227677 
L 90.075306 47.961438 
L 89.42151 47.961438 
L 89.42151 47.850353 
L 89.42151 47.559331 
L 88.735809 47.559331 
L 88.735809 47.448285 
L 88.735809 47.154678 
L 88.014929 47.154678 
L 88.014929 47.043583 
L 88.014929 46.715499 
L 87.255064 46.715499 
L 87.255064 46.604416 
L 87.255064 46.260179 
L 86.451756 46.260179 
L 86.451756 46.149096 
L 86.451756 45.778444 
L 85.599732 45.778444 
L 85.599732 45.667378 
L 85.599732 45.268342 
L 84.692703 45.268342 
L 84.692703 45.157257 
L 84.692703 44.718453 
L 83.723072 44.718453 
L 83.723072 44.607352 
L 83.723072 44.142543 
L 82.681553 44.142543 
L 82.681553 44.031463 
L 82.681553 43.52734 
L 81.556626 43.52734 
L 81.556626 43.416248 
L 81.556626 42.861032 
L 80.333762 42.861032 
L 80.333762 42.749925 
L 80.333762 42.133581 
L 78.994265 42.133581 
L 78.994265 42.022485 
L 78.994265 41.342917 
L 77.51352 41.342917 
L 77.51352 41.231809 
L 77.51352 40.471234 
L 75.858188 40.471234 
L 75.858188 40.360131 
L 75.858188 39.480747 
L 73.981528 39.480747 
L 73.981528 39.369653 
L 73.981528 38.358208 
L 71.815082 38.358208 
L 71.815082 38.24711 
L 71.815082 37.051001 
L 69.252721 37.051001 
L 69.252721 36.939899 
L 69.252721 35.476113 
L 66.116644 35.476113 
L 66.116644 35.365002 
L 66.116644 33.491546 
L 62.073538 33.491546 
L 62.073538 33.38044 
L 62.073538 30.741789 
L 56.3751 30.741789 
L 56.3751 30.630681 
L 56.3751 25.973666 
L 46.633556 25.973666 
L 46.633556 25.862556 
L 46.633556 15.100092 
L 46.633556 15.100092 
" clip-path="url(#p7fc20c78c1)" style="fill: none; stroke: #1f77b4; stroke-width: 1.3; stroke-linecap: round"/>
   </g>
   <g id="patch_3">
    <path d="M 41.126076 121.188274 
L 41.126076 10.048274 
" style="fill: none; stroke: #000000; stroke-linejoin: miter; stroke-linecap: square"/>
   </g>
   <g id="patch_4">
    <path d="M 41.126076 121.188274 
L 162.290632 121.188274 
" style="fill: none; stroke: #000000; stroke-linejoin: miter; stroke-linecap: square"/>
   </g>
   <g id="text_11">
    <!-- A -->
    <g transform="translate(7.2 17.998268) scale(0.09 -0.09)">
     <defs>
      <path id="DejaVuSans-Bold-41" d="M 3419 850 
L 1538 850 
L 1241 0 
L 31 0 
L 1759 4666 
L 3194 4666 
L 4922 0 
L 3713 0 
L 3419 850 
z
M 1838 1716 
L 3116 1716 
L 2478 3572 
L 1838 1716 
z
" transform="scale(0.015625)"/>
     </defs>
     <use xlink:href="#DejaVuSans-Bold-41"/>
    </g>
   </g>
  </g>
  <g id="axes_2">
   <g id="patch_5">
    <path d="M 206.740268 121.188274 
L 327.904824 121.188274 
L 327.904824 10.048274 
L 206.740268 10.048274 
z
" style="fill: #ffffff"/>
   </g>
   <g id="matplotlib.axis_3">
    <g id="xtick_5">
     <g id="line2d_10">
      <g>
       <use xlink:href="#m06b35295f2" x="224.977351" y="121.188274" style="stroke: #000000; stroke-width: 0.8"/>
      </g>
     </g>
     <g id="text_12">
      <!-- 3.0 -->
      <g transform="translate(219.016065 130.884823) scale(0.07497 -0.07497)">
       <defs>
        <path id="DejaVuSans-33" d="M 2597 2516 
Q 3050 2419 3304 2112 
Q 3559 1806 3559 1356 
Q 3559 666 3084 287 
Q 2609 -91 1734 -91 
Q 1441 -91 1130 -33 
Q 819 25 488 141 
L 488 750 
Q 750 597 1062 519 
Q 1375 441 1716 441 
Q 2309 441 2620 675 
Q 2931 909 2931 1356 
Q 2931 1769 2642 2001 
Q 2353 2234 1838 2234 
L 1294 2234 
L 1294 2753 
L 1863 2753 
Q 2328 2753 2575 2939 
Q 2822 3125 2822 3475 
Q 2822 3834 2567 4026 
Q 2313 4219 1838 4219 
Q 1578 4219 1281 4162 
Q 984 4106 628 3988 
L 628 4550 
Q 988 4650 1302 4700 
Q 1616 4750 1894 4750 
Q 2613 4750 3031 4423 
Q 3450 4097 3450 3541 
Q 3450 3153 3228 2886 
Q 3006 2619 2597 2516 
z
" transform="scale(0.015625)"/>
        <path id="DejaVuSans-2e" d="M 684 794 
L 1344 794 
L 1344 0 
L 684 0 
L 684 794 
z
" transform="scale(0.015625)"/>
       </defs>
       <use xlink:href="#DejaVuSans-33"/>
       <use xlink:href="#DejaVuSans-2e" x="63.623047"/>
       <use xlink:href="#DejaVuSans-30" x="95.410156"/>
      </g>
     </g>
    </g>
    <g id="xtick_6">
     <g id="line2d_11">
      <g>
       <use xlink:href="#m06b35295f2" x="255.26849" y="121.188274" style="stroke: #000000; stroke-width: 0.8"/>
      </g>
     </g>
     <g id="text_13">
      <!-- 3.5 -->
      <g transform="translate(249.307204 130.884823) scale(0.07497 -0.07497)">
       <use xlink:href="#DejaVuSans-33"/>
       <use xlink:href="#DejaVuSans-2e" x="63.623047"/>
       <use xlink:href="#DejaVuSans-35" x="95.410156"/>
      </g>
     </g>
    </g>
    <g id="xtick_7">
     <g id="line2d_12">
      <g>
       <use xlink:href="#m06b35295f2" x="285.559629" y="121.188274" style="stroke: #000000; stroke-width: 0.8"/>
      </g>
     </g>
     <g id="text_14">
      <!-- 4.0 -->
      <g transform="translate(279.598343 130.884823) scale(0.07497 -0.07497)">
       <use xlink:href="#DejaVuSans-34"/>
       <use xlink:href="#DejaVuSans-2e" x="63.623047"/>
       <use xlink:href="#DejaVuSans-30" x="95.410156"/>
      </g>
     </g>
    </g>
    <g id="xtick_8">
     <g id="line2d_13">
      <g>
       <use xlink:href="#m06b35295f2" x="315.850768" y="121.188274" style="stroke: #000000; stroke-width: 0.8"/>
      </g>
     </g>
     <g id="text_15">
      <!-- 4.5 -->
      <g transform="translate(309.889482 130.884823) scale(0.07497 -0.07497)">
       <use xlink:href="#DejaVuSans-34"/>
       <use xlink:href="#DejaVuSans-2e" x="63.623047"/>
       <use xlink:href="#DejaVuSans-35" x="95.410156"/>
      </g>
     </g>
    </g>
    <g id="text_16">
     <!-- $\log_{10}$ Sample Size -->
     <g transform="translate(226.552546 140.783965) scale(0.09 -0.09)">
      <defs>
       <path id="DejaVuSans-6c" d="M 603 4863 
L 1178 4863 
L 1178 0 
L 603 0 
L 603 4863 
z
" transform="scale(0.015625)"/>
       <path id="DejaVuSans-6f" d="M 1959 3097 
Q 1497 3097 1228 2736 
Q 959 2375 959 1747 
Q 959 1119 1226 758 
Q 1494 397 1959 397 
Q 2419 397 2687 759 
Q 2956 1122 2956 1747 
Q 2956 2369 2687 2733 
Q 2419 3097 1959 3097 
z
M 1959 3584 
Q 2709 3584 3137 3096 
Q 3566 2609 3566 1747 
Q 3566 888 3137 398 
Q 2709 -91 1959 -91 
Q 1206 -91 779 398 
Q 353 888 353 1747 
Q 353 2609 779 3096 
Q 1206 3584 1959 3584 
z
" transform="scale(0.015625)"/>
       <path id="DejaVuSans-67" d="M 2906 1791 
Q 2906 2416 2648 2759 
Q 2391 3103 1925 3103 
Q 1463 3103 1205 2759 
Q 947 2416 947 1791 
Q 947 1169 1205 825 
Q 1463 481 1925 481 
Q 2391 481 2648 825 
Q 2906 1169 2906 1791 
z
M 3481 434 
Q 3481 -459 3084 -895 
Q 2688 -1331 1869 -1331 
Q 1566 -1331 1297 -1286 
Q 1028 -1241 775 -1147 
L 775 -588 
Q 1028 -725 1275 -790 
Q 1522 -856 1778 -856 
Q 2344 -856 2625 -561 
Q 2906 -266 2906 331 
L 2906 616 
Q 2728 306 2450 153 
Q 2172 0 1784 0 
Q 1141 0 747 490 
Q 353 981 353 1791 
Q 353 2603 747 3093 
Q 1141 3584 1784 3584 
Q 2172 3584 2450 3431 
Q 2728 3278 2906 2969 
L 2906 3500 
L 3481 3500 
L 3481 434 
z
" transform="scale(0.015625)"/>
       <path id="DejaVuSans-53" d="M 3425 4513 
L 3425 3897 
Q 3066 4069 2747 4153 
Q 2428 4238 2131 4238 
Q 1616 4238 1336 4038 
Q 1056 3838 1056 3469 
Q 1056 3159 1242 3001 
Q 1428 2844 1947 2747 
L 2328 2669 
Q 3034 2534 3370 2195 
Q 3706 1856 3706 1288 
Q 3706 609 3251 259 
Q 2797 -91 1919 -91 
Q 1588 -91 1214 -16 
Q 841 59 441 206 
L 441 856 
Q 825 641 1194 531 
Q 1563 422 1919 422 
Q 2459 422 2753 634 
Q 3047 847 3047 1241 
Q 3047 1584 2836 1778 
Q 2625 1972 2144 2069 
L 1759 2144 
Q 1053 2284 737 2584 
Q 422 2884 422 3419 
Q 422 4038 858 4394 
Q 1294 4750 2059 4750 
Q 2388 4750 2728 4690 
Q 3069 4631 3425 4513 
z
" transform="scale(0.015625)"/>
       <path id="DejaVuSans-6d" d="M 3328 2828 
Q 3544 3216 3844 3400 
Q 4144 3584 4550 3584 
Q 5097 3584 5394 3201 
Q 5691 2819 5691 2113 
L 5691 0 
L 5113 0 
L 5113 2094 
Q 5113 2597 4934 2840 
Q 4756 3084 4391 3084 
Q 3944 3084 3684 2787 
Q 3425 2491 3425 1978 
L 3425 0 
L 2847 0 
L 2847 2094 
Q 2847 2600 2669 2842 
Q 2491 3084 2119 3084 
Q 1678 3084 1418 2786 
Q 1159 2488 1159 1978 
L 1159 0 
L 581 0 
L 581 3500 
L 1159 3500 
L 1159 2956 
Q 1356 3278 1631 3431 
Q 1906 3584 2284 3584 
Q 2666 3584 2933 3390 
Q 3200 3197 3328 2828 
z
" transform="scale(0.015625)"/>
       <path id="DejaVuSans-70" d="M 1159 525 
L 1159 -1331 
L 581 -1331 
L 581 3500 
L 1159 3500 
L 1159 2969 
Q 1341 3281 1617 3432 
Q 1894 3584 2278 3584 
Q 2916 3584 3314 3078 
Q 3713 2572 3713 1747 
Q 3713 922 3314 415 
Q 2916 -91 2278 -91 
Q 1894 -91 1617 61 
Q 1341 213 1159 525 
z
M 3116 1747 
Q 3116 2381 2855 2742 
Q 2594 3103 2138 3103 
Q 1681 3103 1420 2742 
Q 1159 2381 1159 1747 
Q 1159 1113 1420 752 
Q 1681 391 2138 391 
Q 2594 391 2855 752 
Q 3116 1113 3116 1747 
z
" transform="scale(0.015625)"/>
       <path id="DejaVuSans-69" d="M 603 3500 
L 1178 3500 
L 1178 0 
L 603 0 
L 603 3500 
z
M 603 4863 
L 1178 4863 
L 1178 4134 
L 603 4134 
L 603 4863 
z
" transform="scale(0.015625)"/>
       <path id="DejaVuSans-7a" d="M 353 3500 
L 3084 3500 
L 3084 2975 
L 922 459 
L 3084 459 
L 3084 0 
L 275 0 
L 275 525 
L 2438 3041 
L 353 3041 
L 353 3500 
z
" transform="scale(0.015625)"/>
      </defs>
      <use xlink:href="#DejaVuSans-6c" transform="translate(0 0.015625)"/>
      <use xlink:href="#DejaVuSans-6f" transform="translate(27.783203 0.015625)"/>
      <use xlink:href="#DejaVuSans-67" transform="translate(88.964844 0.015625)"/>
      <use xlink:href="#DejaVuSans-31" transform="translate(153.398438 -16.390625) scale(0.7)"/>
      <use xlink:href="#DejaVuSans-30" transform="translate(197.93457 -16.390625) scale(0.7)"/>
      <use xlink:href="#DejaVuSans-20" transform="translate(261.440754 0.015625)"/>
      <use xlink:href="#DejaVuSans-53" transform="translate(293.227864 0.015625)"/>
      <use xlink:href="#DejaVuSans-61" transform="translate(356.704426 0.015625)"/>
      <use xlink:href="#DejaVuSans-6d" transform="translate(417.983723 0.015625)"/>
      <use xlink:href="#DejaVuSans-70" transform="translate(515.395833 0.015625)"/>
      <use xlink:href="#DejaVuSans-6c" transform="translate(578.872395 0.015625)"/>
      <use xlink:href="#DejaVuSans-65" transform="translate(606.655598 0.015625)"/>
      <use xlink:href="#DejaVuSans-20" transform="translate(668.179036 0.015625)"/>
      <use xlink:href="#DejaVuSans-53" transform="translate(699.966145 0.015625)"/>
      <use xlink:href="#DejaVuSans-69" transform="translate(763.442708 0.015625)"/>
      <use xlink:href="#DejaVuSans-7a" transform="translate(791.225911 0.015625)"/>
      <use xlink:href="#DejaVuSans-65" transform="translate(843.716145 0.015625)"/>
     </g>
    </g>
   </g>
   <g id="matplotlib.axis_4">
    <g id="ytick_5">
     <g id="line2d_14">
      <g>
       <use xlink:href="#m62aa7c27c3" x="206.740268" y="121.188274" style="stroke: #000000; stroke-width: 0.8"/>
      </g>
     </g>
     <g id="text_17">
      <!-- −3 -->
      <g transform="translate(191.68805 124.036549) scale(0.07497 -0.07497)">
       <use xlink:href="#DejaVuSans-2212"/>
       <use xlink:href="#DejaVuSans-33" x="83.789062"/>
      </g>
     </g>
    </g>
    <g id="ytick_6">
     <g id="line2d_15">
      <g>
       <use xlink:href="#m62aa7c27c3" x="206.740268" y="102.664941" style="stroke: #000000; stroke-width: 0.8"/>
      </g>
     </g>
     <g id="text_18">
      <!-- −2 -->
      <g transform="translate(191.68805 105.513215) scale(0.07497 -0.07497)">
       <use xlink:href="#DejaVuSans-2212"/>
       <use xlink:href="#DejaVuSans-32" x="83.789062"/>
      </g>
     </g>
    </g>
    <g id="ytick_7">
     <g id="line2d_16">
      <g>
       <use xlink:href="#m62aa7c27c3" x="206.740268" y="84.141608" style="stroke: #000000; stroke-width: 0.8"/>
      </g>
     </g>
     <g id="text_19">
      <!-- −1 -->
      <g transform="translate(191.68805 86.989882) scale(0.07497 -0.07497)">
       <use xlink:href="#DejaVuSans-2212"/>
       <use xlink:href="#DejaVuSans-31" x="83.789062"/>
      </g>
     </g>
    </g>
    <g id="ytick_8">
     <g id="line2d_17">
      <g>
       <use xlink:href="#m62aa7c27c3" x="206.740268" y="65.618274" style="stroke: #000000; stroke-width: 0.8"/>
      </g>
     </g>
     <g id="text_20">
      <!-- 0 -->
      <g transform="translate(197.970302 68.466549) scale(0.07497 -0.07497)">
       <use xlink:href="#DejaVuSans-30"/>
      </g>
     </g>
    </g>
    <g id="ytick_9">
     <g id="line2d_18">
      <g>
       <use xlink:href="#m62aa7c27c3" x="206.740268" y="47.094941" style="stroke: #000000; stroke-width: 0.8"/>
      </g>
     </g>
     <g id="text_21">
      <!-- 1 -->
      <g transform="translate(197.970302 49.943215) scale(0.07497 -0.07497)">
       <use xlink:href="#DejaVuSans-31"/>
      </g>
     </g>
    </g>
    <g id="ytick_10">
     <g id="line2d_19">
      <g>
       <use xlink:href="#m62aa7c27c3" x="206.740268" y="28.571608" style="stroke: #000000; stroke-width: 0.8"/>
      </g>
     </g>
     <g id="text_22">
      <!-- 2 -->
      <g transform="translate(197.970302 31.419882) scale(0.07497 -0.07497)">
       <use xlink:href="#DejaVuSans-32"/>
      </g>
     </g>
    </g>
    <g id="ytick_11">
     <g id="line2d_20">
      <g>
       <use xlink:href="#m62aa7c27c3" x="206.740268" y="10.048274" style="stroke: #000000; stroke-width: 0.8"/>
      </g>
     </g>
     <g id="text_23">
      <!-- 3 -->
      <g transform="translate(197.970302 12.896549) scale(0.07497 -0.07497)">
       <use xlink:href="#DejaVuSans-33"/>
      </g>
     </g>
    </g>
    <g id="text_24">
     <!-- symlog$_{10}$ Bias -->
     <g transform="translate(188.29805 96.938274) rotate(-90) scale(0.09 -0.09)">
      <defs>
       <path id="DejaVuSans-73" d="M 2834 3397 
L 2834 2853 
Q 2591 2978 2328 3040 
Q 2066 3103 1784 3103 
Q 1356 3103 1142 2972 
Q 928 2841 928 2578 
Q 928 2378 1081 2264 
Q 1234 2150 1697 2047 
L 1894 2003 
Q 2506 1872 2764 1633 
Q 3022 1394 3022 966 
Q 3022 478 2636 193 
Q 2250 -91 1575 -91 
Q 1294 -91 989 -36 
Q 684 19 347 128 
L 347 722 
Q 666 556 975 473 
Q 1284 391 1588 391 
Q 1994 391 2212 530 
Q 2431 669 2431 922 
Q 2431 1156 2273 1281 
Q 2116 1406 1581 1522 
L 1381 1569 
Q 847 1681 609 1914 
Q 372 2147 372 2553 
Q 372 3047 722 3315 
Q 1072 3584 1716 3584 
Q 2034 3584 2315 3537 
Q 2597 3491 2834 3397 
z
" transform="scale(0.015625)"/>
       <path id="DejaVuSans-42" d="M 1259 2228 
L 1259 519 
L 2272 519 
Q 2781 519 3026 730 
Q 3272 941 3272 1375 
Q 3272 1813 3026 2020 
Q 2781 2228 2272 2228 
L 1259 2228 
z
M 1259 4147 
L 1259 2741 
L 2194 2741 
Q 2656 2741 2882 2914 
Q 3109 3088 3109 3444 
Q 3109 3797 2882 3972 
Q 2656 4147 2194 4147 
L 1259 4147 
z
M 628 4666 
L 2241 4666 
Q 2963 4666 3353 4366 
Q 3744 4066 3744 3513 
Q 3744 3084 3544 2831 
Q 3344 2578 2956 2516 
Q 3422 2416 3680 2098 
Q 3938 1781 3938 1306 
Q 3938 681 3513 340 
Q 3088 0 2303 0 
L 628 0 
L 628 4666 
z
" transform="scale(0.015625)"/>
      </defs>
      <use xlink:href="#DejaVuSans-73" transform="translate(0 0.015625)"/>
      <use xlink:href="#DejaVuSans-79" transform="translate(52.099609 0.015625)"/>
      <use xlink:href="#DejaVuSans-6d" transform="translate(111.279297 0.015625)"/>
      <use xlink:href="#DejaVuSans-6c" transform="translate(208.691406 0.015625)"/>
      <use xlink:href="#DejaVuSans-6f" transform="translate(236.474609 0.015625)"/>
      <use xlink:href="#DejaVuSans-67" transform="translate(297.65625 0.015625)"/>
      <use xlink:href="#DejaVuSans-31" transform="translate(362.089844 -16.390625) scale(0.7)"/>
      <use xlink:href="#DejaVuSans-30" transform="translate(406.625977 -16.390625) scale(0.7)"/>
      <use xlink:href="#DejaVuSans-20" transform="translate(453.896484 0.015625)"/>
      <use xlink:href="#DejaVuSans-42" transform="translate(485.683594 0.015625)"/>
      <use xlink:href="#DejaVuSans-69" transform="translate(554.287109 0.015625)"/>
      <use xlink:href="#DejaVuSans-61" transform="translate(582.070312 0.015625)"/>
      <use xlink:href="#DejaVuSans-73" transform="translate(643.349609 0.015625)"/>
     </g>
    </g>
   </g>
   <g id="patch_6">
    <path d="M 206.740268 121.188274 
L 206.740268 10.048274 
L 239.003671 10.048274 
L 239.003671 121.188274 
z
" clip-path="url(#p969720e7ef)" style="fill: #1f77b4; opacity: 0.2; stroke: #1f77b4; stroke-width: 0.8; stroke-linejoin: miter"/>
   </g>
   <g id="patch_7">
    <path d="M 239.003671 121.188274 
L 239.003671 10.048274 
L 416.539742 10.048274 
L 416.539742 121.188274 
z
" clip-path="url(#p969720e7ef)" style="fill: #ff7f0e; opacity: 0.2; stroke: #ff7f0e; stroke-width: 0.8; stroke-linejoin: miter"/>
   </g>
   <g id="patch_8">
    <path d="M 416.539742 121.188274 
L 416.539742 10.048274 
L 327.904824 10.048274 
L 327.904824 121.188274 
z
" clip-path="url(#p969720e7ef)" style="fill: #2ca02c; opacity: 0.2; stroke: #2ca02c; stroke-width: 0.8; stroke-linejoin: miter"/>
   </g>
   <g id="line2d_21">
    <path d="M 206.740268 65.618274 
L 327.904824 65.618274 
" clip-path="url(#p969720e7ef)" style="fill: none; stroke: #000000; stroke-width: 1.3; stroke-linecap: round"/>
   </g>
   <g id="line2d_22">
    <path d="M 206.740268 65.651 
L 215.366546 65.720884 
L 224.039981 65.718475 
L 232.697277 65.737211 
L 241.36158 65.743611 
L 250.015992 65.685379 
L 258.664803 65.481646 
L 267.322546 65.564944 
L 275.979136 65.592194 
L 284.633162 65.64099 
L 293.287402 65.767644 
L 301.941035 65.635816 
L 310.596239 65.642114 
L 319.250006 65.410168 
L 327.904824 65.814392 
" clip-path="url(#p969720e7ef)" style="fill: none; stroke: #1f77b4; stroke-width: 2; stroke-linecap: round"/>
   </g>
   <g id="line2d_23">
    <path d="M 206.740268 60.233945 
L 215.366546 60.271567 
L 224.039981 60.295499 
L 232.697277 60.335478 
L 241.36158 60.387289 
L 250.015992 60.373118 
L 258.664803 60.26137 
L 267.322546 60.493958 
L 275.979136 60.683807 
L 284.633162 60.946518 
L 293.287402 61.343203 
L 301.941035 61.521957 
L 310.596239 61.904896 
L 319.250006 62.083779 
L 327.904824 62.931124 
" clip-path="url(#p969720e7ef)" style="fill: none; stroke: #ff7f0e; stroke-linecap: round"/>
   </g>
   <g id="line2d_24">
    <path d="M 206.740268 1.676986 
L 215.366546 4.38762 
L 224.039981 7.067825 
L 232.697277 9.823923 
L 241.36158 12.508705 
L 250.015992 15.232647 
L 258.664803 17.861027 
L 267.322546 20.901347 
L 275.979136 23.894648 
L 284.633162 27.005856 
L 293.287402 30.33293 
L 301.941035 33.495247 
L 310.596239 36.972422 
L 319.250006 40.300059 
L 327.904824 44.353921 
" clip-path="url(#p969720e7ef)" style="fill: none; stroke: #2ca02c; stroke-linecap: round"/>
   </g>
   <g id="patch_9">
    <path d="M 206.740268 121.188274 
L 206.740268 10.048274 
" style="fill: none; stroke: #000000; stroke-linejoin: miter; stroke-linecap: square"/>
   </g>
   <g id="patch_10">
    <path d="M 206.740268 121.188274 
L 327.904824 121.188274 
" style="fill: none; stroke: #000000; stroke-linejoin: miter; stroke-linecap: square"/>
   </g>
   <g id="text_25">
    <!-- B -->
    <g transform="translate(172.814192 17.998268) scale(0.09 -0.09)">
     <defs>
      <path id="DejaVuSans-Bold-42" d="M 2456 2859 
Q 2741 2859 2887 2984 
Q 3034 3109 3034 3353 
Q 3034 3594 2887 3720 
Q 2741 3847 2456 3847 
L 1791 3847 
L 1791 2859 
L 2456 2859 
z
M 2497 819 
Q 2859 819 3042 972 
Q 3225 1125 3225 1434 
Q 3225 1738 3044 1889 
Q 2863 2041 2497 2041 
L 1791 2041 
L 1791 819 
L 2497 819 
z
M 3616 2497 
Q 4003 2384 4215 2081 
Q 4428 1778 4428 1338 
Q 4428 663 3972 331 
Q 3516 0 2584 0 
L 588 0 
L 588 4666 
L 2394 4666 
Q 3366 4666 3802 4372 
Q 4238 4078 4238 3431 
Q 4238 3091 4078 2852 
Q 3919 2613 3616 2497 
z
" transform="scale(0.015625)"/>
     </defs>
     <use xlink:href="#DejaVuSans-Bold-42"/>
    </g>
   </g>
   <g id="legend_1">
    <g id="patch_11">
     <path d="M 230.905593 118.938274 
L 303.739499 118.938274 
Q 305.539499 118.938274 305.539499 117.138274 
L 305.539499 82.907337 
Q 305.539499 81.107337 303.739499 81.107337 
L 230.905593 81.107337 
Q 229.105593 81.107337 229.105593 82.907337 
L 229.105593 117.138274 
Q 229.105593 118.938274 230.905593 118.938274 
z
" style="fill: #ffffff; opacity: 0.8; stroke: #cccccc; stroke-width: 0.8; stroke-linejoin: miter"/>
    </g>
    <g id="line2d_25">
     <path d="M 232.705593 88.395931 
L 238.330593 88.395931 
L 243.955593 88.395931 
" style="fill: none; stroke: #1f77b4; stroke-width: 2; stroke-linecap: round"/>
    </g>
    <g id="text_26">
     <!-- Unbiased -->
     <g transform="translate(248.455593 91.545931) scale(0.09 -0.09)">
      <defs>
       <path id="DejaVuSans-55" d="M 556 4666 
L 1191 4666 
L 1191 1831 
Q 1191 1081 1462 751 
Q 1734 422 2344 422 
Q 2950 422 3222 751 
Q 3494 1081 3494 1831 
L 3494 4666 
L 4128 4666 
L 4128 1753 
Q 4128 841 3676 375 
Q 3225 -91 2344 -91 
Q 1459 -91 1007 375 
Q 556 841 556 1753 
L 556 4666 
z
" transform="scale(0.015625)"/>
       <path id="DejaVuSans-62" d="M 3116 1747 
Q 3116 2381 2855 2742 
Q 2594 3103 2138 3103 
Q 1681 3103 1420 2742 
Q 1159 2381 1159 1747 
Q 1159 1113 1420 752 
Q 1681 391 2138 391 
Q 2594 391 2855 752 
Q 3116 1113 3116 1747 
z
M 1159 2969 
Q 1341 3281 1617 3432 
Q 1894 3584 2278 3584 
Q 2916 3584 3314 3078 
Q 3713 2572 3713 1747 
Q 3713 922 3314 415 
Q 2916 -91 2278 -91 
Q 1894 -91 1617 61 
Q 1341 213 1159 525 
L 1159 0 
L 581 0 
L 581 4863 
L 1159 4863 
L 1159 2969 
z
" transform="scale(0.015625)"/>
       <path id="DejaVuSans-64" d="M 2906 2969 
L 2906 4863 
L 3481 4863 
L 3481 0 
L 2906 0 
L 2906 525 
Q 2725 213 2448 61 
Q 2172 -91 1784 -91 
Q 1150 -91 751 415 
Q 353 922 353 1747 
Q 353 2572 751 3078 
Q 1150 3584 1784 3584 
Q 2172 3584 2448 3432 
Q 2725 3281 2906 2969 
z
M 947 1747 
Q 947 1113 1208 752 
Q 1469 391 1925 391 
Q 2381 391 2643 752 
Q 2906 1113 2906 1747 
Q 2906 2381 2643 2742 
Q 2381 3103 1925 3103 
Q 1469 3103 1208 2742 
Q 947 2381 947 1747 
z
" transform="scale(0.015625)"/>
      </defs>
      <use xlink:href="#DejaVuSans-55"/>
      <use xlink:href="#DejaVuSans-6e" x="73.193359"/>
      <use xlink:href="#DejaVuSans-62" x="136.572266"/>
      <use xlink:href="#DejaVuSans-69" x="200.048828"/>
      <use xlink:href="#DejaVuSans-61" x="227.832031"/>
      <use xlink:href="#DejaVuSans-73" x="289.111328"/>
      <use xlink:href="#DejaVuSans-65" x="341.210938"/>
      <use xlink:href="#DejaVuSans-64" x="402.734375"/>
     </g>
    </g>
    <g id="line2d_26">
     <path d="M 232.705593 99.356243 
L 238.330593 99.356243 
L 243.955593 99.356243 
" style="fill: none; stroke: #ff7f0e; stroke-linecap: round"/>
    </g>
    <g id="text_27">
     <!-- Grundmann -->
     <g transform="translate(248.455593 102.506243) scale(0.09 -0.09)">
      <defs>
       <path id="DejaVuSans-47" d="M 3809 666 
L 3809 1919 
L 2778 1919 
L 2778 2438 
L 4434 2438 
L 4434 434 
Q 4069 175 3628 42 
Q 3188 -91 2688 -91 
Q 1594 -91 976 548 
Q 359 1188 359 2328 
Q 359 3472 976 4111 
Q 1594 4750 2688 4750 
Q 3144 4750 3555 4637 
Q 3966 4525 4313 4306 
L 4313 3634 
Q 3963 3931 3569 4081 
Q 3175 4231 2741 4231 
Q 1884 4231 1454 3753 
Q 1025 3275 1025 2328 
Q 1025 1384 1454 906 
Q 1884 428 2741 428 
Q 3075 428 3337 486 
Q 3600 544 3809 666 
z
" transform="scale(0.015625)"/>
      </defs>
      <use xlink:href="#DejaVuSans-47"/>
      <use xlink:href="#DejaVuSans-72" x="77.490234"/>
      <use xlink:href="#DejaVuSans-75" x="118.603516"/>
      <use xlink:href="#DejaVuSans-6e" x="181.982422"/>
      <use xlink:href="#DejaVuSans-64" x="245.361328"/>
      <use xlink:href="#DejaVuSans-6d" x="308.837891"/>
      <use xlink:href="#DejaVuSans-61" x="406.25"/>
      <use xlink:href="#DejaVuSans-6e" x="467.529297"/>
      <use xlink:href="#DejaVuSans-6e" x="530.908203"/>
     </g>
    </g>
    <g id="line2d_27">
     <path d="M 232.705593 110.316556 
L 238.330593 110.316556 
L 243.955593 110.316556 
" style="fill: none; stroke: #2ca02c; stroke-linecap: round"/>
    </g>
    <g id="text_28">
     <!-- Plugin -->
     <g transform="translate(248.455593 113.466556) scale(0.09 -0.09)">
      <defs>
       <path id="DejaVuSans-50" d="M 1259 4147 
L 1259 2394 
L 2053 2394 
Q 2494 2394 2734 2622 
Q 2975 2850 2975 3272 
Q 2975 3691 2734 3919 
Q 2494 4147 2053 4147 
L 1259 4147 
z
M 628 4666 
L 2053 4666 
Q 2838 4666 3239 4311 
Q 3641 3956 3641 3272 
Q 3641 2581 3239 2228 
Q 2838 1875 2053 1875 
L 1259 1875 
L 1259 0 
L 628 0 
L 628 4666 
z
" transform="scale(0.015625)"/>
      </defs>
      <use xlink:href="#DejaVuSans-50"/>
      <use xlink:href="#DejaVuSans-6c" x="60.302734"/>
      <use xlink:href="#DejaVuSans-75" x="88.085938"/>
      <use xlink:href="#DejaVuSans-67" x="151.464844"/>
      <use xlink:href="#DejaVuSans-69" x="214.941406"/>
      <use xlink:href="#DejaVuSans-6e" x="242.724609"/>
     </g>
    </g>
   </g>
  </g>
  <g id="axes_3">
   <g id="patch_12">
    <path d="M 372.354461 121.188274 
L 493.519017 121.188274 
L 493.519017 10.048274 
L 372.354461 10.048274 
z
" style="fill: #ffffff"/>
   </g>
   <g id="matplotlib.axis_5">
    <g id="xtick_9">
     <g id="line2d_28">
      <g>
       <use xlink:href="#m06b35295f2" x="390.591544" y="121.188274" style="stroke: #000000; stroke-width: 0.8"/>
      </g>
     </g>
     <g id="text_29">
      <!-- 3.0 -->
      <g transform="translate(384.630257 130.884823) scale(0.07497 -0.07497)">
       <use xlink:href="#DejaVuSans-33"/>
       <use xlink:href="#DejaVuSans-2e" x="63.623047"/>
       <use xlink:href="#DejaVuSans-30" x="95.410156"/>
      </g>
     </g>
    </g>
    <g id="xtick_10">
     <g id="line2d_29">
      <g>
       <use xlink:href="#m06b35295f2" x="420.882683" y="121.188274" style="stroke: #000000; stroke-width: 0.8"/>
      </g>
     </g>
     <g id="text_30">
      <!-- 3.5 -->
      <g transform="translate(414.921396 130.884823) scale(0.07497 -0.07497)">
       <use xlink:href="#DejaVuSans-33"/>
       <use xlink:href="#DejaVuSans-2e" x="63.623047"/>
       <use xlink:href="#DejaVuSans-35" x="95.410156"/>
      </g>
     </g>
    </g>
    <g id="xtick_11">
     <g id="line2d_30">
      <g>
       <use xlink:href="#m06b35295f2" x="451.173822" y="121.188274" style="stroke: #000000; stroke-width: 0.8"/>
      </g>
     </g>
     <g id="text_31">
      <!-- 4.0 -->
      <g transform="translate(445.212535 130.884823) scale(0.07497 -0.07497)">
       <use xlink:href="#DejaVuSans-34"/>
       <use xlink:href="#DejaVuSans-2e" x="63.623047"/>
       <use xlink:href="#DejaVuSans-30" x="95.410156"/>
      </g>
     </g>
    </g>
    <g id="xtick_12">
     <g id="line2d_31">
      <g>
       <use xlink:href="#m06b35295f2" x="481.464961" y="121.188274" style="stroke: #000000; stroke-width: 0.8"/>
      </g>
     </g>
     <g id="text_32">
      <!-- 4.5 -->
      <g transform="translate(475.503674 130.884823) scale(0.07497 -0.07497)">
       <use xlink:href="#DejaVuSans-34"/>
       <use xlink:href="#DejaVuSans-2e" x="63.623047"/>
       <use xlink:href="#DejaVuSans-35" x="95.410156"/>
      </g>
     </g>
    </g>
    <g id="text_33">
     <!-- $\log_{10}$ Sample Size -->
     <g transform="translate(392.166739 140.783965) scale(0.09 -0.09)">
      <use xlink:href="#DejaVuSans-6c" transform="translate(0 0.015625)"/>
      <use xlink:href="#DejaVuSans-6f" transform="translate(27.783203 0.015625)"/>
      <use xlink:href="#DejaVuSans-67" transform="translate(88.964844 0.015625)"/>
      <use xlink:href="#DejaVuSans-31" transform="translate(153.398438 -16.390625) scale(0.7)"/>
      <use xlink:href="#DejaVuSans-30" transform="translate(197.93457 -16.390625) scale(0.7)"/>
      <use xlink:href="#DejaVuSans-20" transform="translate(261.440754 0.015625)"/>
      <use xlink:href="#DejaVuSans-53" transform="translate(293.227864 0.015625)"/>
      <use xlink:href="#DejaVuSans-61" transform="translate(356.704426 0.015625)"/>
      <use xlink:href="#DejaVuSans-6d" transform="translate(417.983723 0.015625)"/>
      <use xlink:href="#DejaVuSans-70" transform="translate(515.395833 0.015625)"/>
      <use xlink:href="#DejaVuSans-6c" transform="translate(578.872395 0.015625)"/>
      <use xlink:href="#DejaVuSans-65" transform="translate(606.655598 0.015625)"/>
      <use xlink:href="#DejaVuSans-20" transform="translate(668.179036 0.015625)"/>
      <use xlink:href="#DejaVuSans-53" transform="translate(699.966145 0.015625)"/>
      <use xlink:href="#DejaVuSans-69" transform="translate(763.442708 0.015625)"/>
      <use xlink:href="#DejaVuSans-7a" transform="translate(791.225911 0.015625)"/>
      <use xlink:href="#DejaVuSans-65" transform="translate(843.716145 0.015625)"/>
     </g>
    </g>
   </g>
   <g id="matplotlib.axis_6">
    <g id="ytick_12">
     <g id="line2d_32">
      <g>
       <use xlink:href="#m62aa7c27c3" x="372.354461" y="121.188274" style="stroke: #000000; stroke-width: 0.8"/>
      </g>
     </g>
     <g id="text_34">
      <!-- 0.0 -->
      <g transform="translate(356.431888 124.036549) scale(0.07497 -0.07497)">
       <use xlink:href="#DejaVuSans-30"/>
       <use xlink:href="#DejaVuSans-2e" x="63.623047"/>
       <use xlink:href="#DejaVuSans-30" x="95.410156"/>
      </g>
     </g>
    </g>
    <g id="ytick_13">
     <g id="line2d_33">
      <g>
       <use xlink:href="#m62aa7c27c3" x="372.354461" y="93.403274" style="stroke: #000000; stroke-width: 0.8"/>
      </g>
     </g>
     <g id="text_35">
      <!-- 0.5 -->
      <g transform="translate(356.431888 96.251549) scale(0.07497 -0.07497)">
       <use xlink:href="#DejaVuSans-30"/>
       <use xlink:href="#DejaVuSans-2e" x="63.623047"/>
       <use xlink:href="#DejaVuSans-35" x="95.410156"/>
      </g>
     </g>
    </g>
    <g id="ytick_14">
     <g id="line2d_34">
      <g>
       <use xlink:href="#m62aa7c27c3" x="372.354461" y="65.618274" style="stroke: #000000; stroke-width: 0.8"/>
      </g>
     </g>
     <g id="text_36">
      <!-- 1.0 -->
      <g transform="translate(356.431888 68.466549) scale(0.07497 -0.07497)">
       <use xlink:href="#DejaVuSans-31"/>
       <use xlink:href="#DejaVuSans-2e" x="63.623047"/>
       <use xlink:href="#DejaVuSans-30" x="95.410156"/>
      </g>
     </g>
    </g>
    <g id="ytick_15">
     <g id="line2d_35">
      <g>
       <use xlink:href="#m62aa7c27c3" x="372.354461" y="37.833274" style="stroke: #000000; stroke-width: 0.8"/>
      </g>
     </g>
     <g id="text_37">
      <!-- 1.5 -->
      <g transform="translate(356.431888 40.681549) scale(0.07497 -0.07497)">
       <use xlink:href="#DejaVuSans-31"/>
       <use xlink:href="#DejaVuSans-2e" x="63.623047"/>
       <use xlink:href="#DejaVuSans-35" x="95.410156"/>
      </g>
     </g>
    </g>
    <g id="ytick_16">
     <g id="line2d_36">
      <g>
       <use xlink:href="#m62aa7c27c3" x="372.354461" y="10.048274" style="stroke: #000000; stroke-width: 0.8"/>
      </g>
     </g>
     <g id="text_38">
      <!-- 2.0 -->
      <g transform="translate(356.431888 12.896549) scale(0.07497 -0.07497)">
       <use xlink:href="#DejaVuSans-32"/>
       <use xlink:href="#DejaVuSans-2e" x="63.623047"/>
       <use xlink:href="#DejaVuSans-30" x="95.410156"/>
      </g>
     </g>
    </g>
    <g id="text_39">
     <!-- Variance -->
     <g transform="translate(353.060169 85.058274) rotate(-90) scale(0.09 -0.09)">
      <defs>
       <path id="DejaVuSans-56" d="M 1831 0 
L 50 4666 
L 709 4666 
L 2188 738 
L 3669 4666 
L 4325 4666 
L 2547 0 
L 1831 0 
z
" transform="scale(0.015625)"/>
      </defs>
      <use xlink:href="#DejaVuSans-56"/>
      <use xlink:href="#DejaVuSans-61" x="60.658203"/>
      <use xlink:href="#DejaVuSans-72" x="121.9375"/>
      <use xlink:href="#DejaVuSans-69" x="163.050781"/>
      <use xlink:href="#DejaVuSans-61" x="190.833984"/>
      <use xlink:href="#DejaVuSans-6e" x="252.113281"/>
      <use xlink:href="#DejaVuSans-63" x="315.492188"/>
      <use xlink:href="#DejaVuSans-65" x="370.472656"/>
     </g>
    </g>
   </g>
   <g id="patch_13">
    <path d="M 372.354461 121.188274 
L 372.354461 10.048274 
L 404.617863 10.048274 
L 404.617863 121.188274 
z
" clip-path="url(#pb5765836da)" style="fill: #1f77b4; opacity: 0.2; stroke: #1f77b4; stroke-width: 0.8; stroke-linejoin: miter"/>
   </g>
   <g id="patch_14">
    <path d="M 404.617863 121.188274 
L 404.617863 10.048274 
L 582.153934 10.048274 
L 582.153934 121.188274 
z
" clip-path="url(#pb5765836da)" style="fill: #ff7f0e; opacity: 0.2; stroke: #ff7f0e; stroke-width: 0.8; stroke-linejoin: miter"/>
   </g>
   <g id="patch_15">
    <path d="M 582.153934 121.188274 
L 582.153934 10.048274 
L 493.519017 10.048274 
L 493.519017 121.188274 
z
" clip-path="url(#pb5765836da)" style="fill: #2ca02c; opacity: 0.2; stroke: #2ca02c; stroke-width: 0.8; stroke-linejoin: miter"/>
   </g>
   <g id="line2d_37">
    <path d="M 399.511356 -1 
L 406.975773 46.339979 
L 415.630185 77.774293 
L 424.278995 94.315091 
L 432.936739 103.789727 
L 441.593329 109.591427 
L 450.247355 113.325677 
L 458.901594 115.730624 
L 467.555228 117.684063 
L 476.210431 118.513977 
L 484.864198 119.139812 
L 493.519017 119.799491 
" clip-path="url(#pb5765836da)" style="fill: none; stroke: #1f77b4; stroke-width: 2; stroke-linecap: round"/>
   </g>
   <g id="line2d_38">
    <path d="M 415.387949 -1 
L 415.630185 1.800151 
L 424.278995 53.055201 
L 432.936739 81.79416 
L 441.593329 97.780244 
L 450.247355 106.797542 
L 458.901594 112.159167 
L 467.555228 115.77009 
L 476.210431 117.423996 
L 484.864198 118.513104 
L 493.519017 119.462641 
" clip-path="url(#pb5765836da)" style="fill: none; stroke: #ff7f0e; stroke-linecap: round"/>
   </g>
   <g id="line2d_39">
    <path d="M 425.787775 -1 
L 432.936739 48.379026 
L 441.593329 80.326754 
L 450.247355 97.527284 
L 458.901594 107.293991 
L 467.555228 113.235888 
L 476.210431 116.049804 
L 484.864198 117.75499 
L 493.519017 119.071122 
" clip-path="url(#pb5765836da)" style="fill: none; stroke: #2ca02c; stroke-linecap: round"/>
   </g>
   <g id="patch_16">
    <path d="M 372.354461 121.188274 
L 372.354461 10.048274 
" style="fill: none; stroke: #000000; stroke-linejoin: miter; stroke-linecap: square"/>
   </g>
   <g id="patch_17">
    <path d="M 372.354461 121.188274 
L 493.519017 121.188274 
" style="fill: none; stroke: #000000; stroke-linejoin: miter; stroke-linecap: square"/>
   </g>
   <g id="text_40">
    <!-- C -->
    <g transform="translate(338.428385 17.998268) scale(0.09 -0.09)">
     <defs>
      <path id="DejaVuSans-Bold-43" d="M 4288 256 
Q 3956 84 3597 -3 
Q 3238 -91 2847 -91 
Q 1681 -91 1000 561 
Q 319 1213 319 2328 
Q 319 3447 1000 4098 
Q 1681 4750 2847 4750 
Q 3238 4750 3597 4662 
Q 3956 4575 4288 4403 
L 4288 3438 
Q 3953 3666 3628 3772 
Q 3303 3878 2944 3878 
Q 2300 3878 1931 3465 
Q 1563 3053 1563 2328 
Q 1563 1606 1931 1193 
Q 2300 781 2944 781 
Q 3303 781 3628 887 
Q 3953 994 4288 1222 
L 4288 256 
z
" transform="scale(0.015625)"/>
     </defs>
     <use xlink:href="#DejaVuSans-Bold-43"/>
    </g>
   </g>
  </g>
 </g>
 <defs>
  <clipPath id="p7fc20c78c1">
   <rect x="41.126076" y="10.048274" width="121.164556" height="111.14"/>
  </clipPath>
  <clipPath id="p969720e7ef">
   <rect x="206.740268" y="10.048274" width="121.164556" height="111.14"/>
  </clipPath>
  <clipPath id="pb5765836da">
   <rect x="372.354461" y="10.048274" width="121.164556" height="111.14"/>
  </clipPath>
 </defs>
</svg>
