<?xml version="1.0" encoding="utf-8" standalone="no"?>
<!DOCTYPE svg PUBLIC "-//W3C//DTD SVG 1.1//EN"
  "http://www.w3.org/Graphics/SVG/1.1/DTD/svg11.dtd">
<svg xmlns:xlink="http://www.w3.org/1999/xlink" width="499.475918pt" height="149.998277pt" viewBox="0 0 499.475918 149.998277" xmlns="http://www.w3.org/2000/svg" version="1.1">
 <metadata>
  <rdf:RDF xmlns:dc="http://purl.org/dc/elements/1.1/" xmlns:cc="http://creativecommons.org/ns#" xmlns:rdf="http://www.w3.org/1999/02/22-rdf-syntax-ns#">
   <cc:Work>
    <dc:type rdf:resource="http://purl.org/dc/dcmitype/StillImage"/>
    <dc:date>2024-02-25T17:59:58.139010</dc:date>
    <dc:format>image/svg+xml</dc:format>
    <dc:creator>
     <cc:Agent>
      <dc:title>Matplotlib v3.7.0, https://matplotlib.org/</dc:title>
     </cc:Agent>
    </dc:creator>
   </cc:Work>
  </rdf:RDF>
 </metadata>
 <defs>
  <style type="text/css">*{stroke-linejoin: round; stroke-linecap: butt}</style>
 </defs>
 <g id="figure_1">
  <g id="patch_1">
   <path d="M 0 149.998277 
L 499.475918 149.998277 
L 499.475918 0 
L 0 0 
L 0 149.998277 
z
" style="fill: none"/>
  </g>
  <g id="axes_1">
   <g id="patch_2">
    <path d="M 39.882977 121.332274 
L 156.607896 121.332274 
L 156.607896 10.048274 
L 39.882977 10.048274 
z
" style="fill: #ffffff"/>
   </g>
   <g id="matplotlib.axis_1">
    <g id="xtick_1">
     <g id="line2d_1">
      <defs>
       <path id="mf60ed4fd98" d="M 0 2 
L 0 -2 
" style="stroke: #000000; stroke-width: 0.8"/>
      </defs>
      <g>
       <use xlink:href="#mf60ed4fd98" x="60.062146" y="121.332274" style="stroke: #000000; stroke-width: 0.8"/>
      </g>
     </g>
     <g id="text_1">
      <!-- $\mathdefault{10^{-7}}$ -->
      <g transform="translate(51.253171 131.028823) scale(0.07497 -0.07497)">
       <defs>
        <path id="DejaVuSans-31" d="M 794 531 
L 1825 531 
L 1825 4091 
L 703 3866 
L 703 4441 
L 1819 4666 
L 2450 4666 
L 2450 531 
L 3481 531 
L 3481 0 
L 794 0 
L 794 531 
z
" transform="scale(0.015625)"/>
        <path id="DejaVuSans-30" d="M 2034 4250 
Q 1547 4250 1301 3770 
Q 1056 3291 1056 2328 
Q 1056 1369 1301 889 
Q 1547 409 2034 409 
Q 2525 409 2770 889 
Q 3016 1369 3016 2328 
Q 3016 3291 2770 3770 
Q 2525 4250 2034 4250 
z
M 2034 4750 
Q 2819 4750 3233 4129 
Q 3647 3509 3647 2328 
Q 3647 1150 3233 529 
Q 2819 -91 2034 -91 
Q 1250 -91 836 529 
Q 422 1150 422 2328 
Q 422 3509 836 4129 
Q 1250 4750 2034 4750 
z
" transform="scale(0.015625)"/>
        <path id="DejaVuSans-2212" d="M 678 2272 
L 4684 2272 
L 4684 1741 
L 678 1741 
L 678 2272 
z
" transform="scale(0.015625)"/>
        <path id="DejaVuSans-37" d="M 525 4666 
L 3525 4666 
L 3525 4397 
L 1831 0 
L 1172 0 
L 2766 4134 
L 525 4134 
L 525 4666 
z
" transform="scale(0.015625)"/>
       </defs>
       <use xlink:href="#DejaVuSans-31" transform="translate(0 0.684375)"/>
       <use xlink:href="#DejaVuSans-30" transform="translate(63.623047 0.684375)"/>
       <use xlink:href="#DejaVuSans-2212" transform="translate(128.203125 38.965625) scale(0.7)"/>
       <use xlink:href="#DejaVuSans-37" transform="translate(186.855469 38.965625) scale(0.7)"/>
      </g>
     </g>
    </g>
    <g id="xtick_2">
     <g id="line2d_2">
      <g>
       <use xlink:href="#mf60ed4fd98" x="91.235545" y="121.332274" style="stroke: #000000; stroke-width: 0.8"/>
      </g>
     </g>
     <g id="text_2">
      <!-- $\mathdefault{10^{-6}}$ -->
      <g transform="translate(82.42657 131.028823) scale(0.07497 -0.07497)">
       <defs>
        <path id="DejaVuSans-36" d="M 2113 2584 
Q 1688 2584 1439 2293 
Q 1191 2003 1191 1497 
Q 1191 994 1439 701 
Q 1688 409 2113 409 
Q 2538 409 2786 701 
Q 3034 994 3034 1497 
Q 3034 2003 2786 2293 
Q 2538 2584 2113 2584 
z
M 3366 4563 
L 3366 3988 
Q 3128 4100 2886 4159 
Q 2644 4219 2406 4219 
Q 1781 4219 1451 3797 
Q 1122 3375 1075 2522 
Q 1259 2794 1537 2939 
Q 1816 3084 2150 3084 
Q 2853 3084 3261 2657 
Q 3669 2231 3669 1497 
Q 3669 778 3244 343 
Q 2819 -91 2113 -91 
Q 1303 -91 875 529 
Q 447 1150 447 2328 
Q 447 3434 972 4092 
Q 1497 4750 2381 4750 
Q 2619 4750 2861 4703 
Q 3103 4656 3366 4563 
z
" transform="scale(0.015625)"/>
       </defs>
       <use xlink:href="#DejaVuSans-31" transform="translate(0 0.765625)"/>
       <use xlink:href="#DejaVuSans-30" transform="translate(63.623047 0.765625)"/>
       <use xlink:href="#DejaVuSans-2212" transform="translate(128.203125 39.046875) scale(0.7)"/>
       <use xlink:href="#DejaVuSans-36" transform="translate(186.855469 39.046875) scale(0.7)"/>
      </g>
     </g>
    </g>
    <g id="xtick_3">
     <g id="line2d_3">
      <g>
       <use xlink:href="#mf60ed4fd98" x="122.408944" y="121.332274" style="stroke: #000000; stroke-width: 0.8"/>
      </g>
     </g>
     <g id="text_3">
      <!-- $\mathdefault{10^{-5}}$ -->
      <g transform="translate(113.599969 131.028823) scale(0.07497 -0.07497)">
       <defs>
        <path id="DejaVuSans-35" d="M 691 4666 
L 3169 4666 
L 3169 4134 
L 1269 4134 
L 1269 2991 
Q 1406 3038 1543 3061 
Q 1681 3084 1819 3084 
Q 2600 3084 3056 2656 
Q 3513 2228 3513 1497 
Q 3513 744 3044 326 
Q 2575 -91 1722 -91 
Q 1428 -91 1123 -41 
Q 819 9 494 109 
L 494 744 
Q 775 591 1075 516 
Q 1375 441 1709 441 
Q 2250 441 2565 725 
Q 2881 1009 2881 1497 
Q 2881 1984 2565 2268 
Q 2250 2553 1709 2553 
Q 1456 2553 1204 2497 
Q 953 2441 691 2322 
L 691 4666 
z
" transform="scale(0.015625)"/>
       </defs>
       <use xlink:href="#DejaVuSans-31" transform="translate(0 0.684375)"/>
       <use xlink:href="#DejaVuSans-30" transform="translate(63.623047 0.684375)"/>
       <use xlink:href="#DejaVuSans-2212" transform="translate(128.203125 38.965625) scale(0.7)"/>
       <use xlink:href="#DejaVuSans-35" transform="translate(186.855469 38.965625) scale(0.7)"/>
      </g>
     </g>
    </g>
    <g id="xtick_4">
     <g id="line2d_4">
      <g>
       <use xlink:href="#mf60ed4fd98" x="153.582343" y="121.332274" style="stroke: #000000; stroke-width: 0.8"/>
      </g>
     </g>
     <g id="text_4">
      <!-- $\mathdefault{10^{-4}}$ -->
      <g transform="translate(144.773368 131.028823) scale(0.07497 -0.07497)">
       <defs>
        <path id="DejaVuSans-34" d="M 2419 4116 
L 825 1625 
L 2419 1625 
L 2419 4116 
z
M 2253 4666 
L 3047 4666 
L 3047 1625 
L 3713 1625 
L 3713 1100 
L 3047 1100 
L 3047 0 
L 2419 0 
L 2419 1100 
L 313 1100 
L 313 1709 
L 2253 4666 
z
" transform="scale(0.015625)"/>
       </defs>
       <use xlink:href="#DejaVuSans-31" transform="translate(0 0.684375)"/>
       <use xlink:href="#DejaVuSans-30" transform="translate(63.623047 0.684375)"/>
       <use xlink:href="#DejaVuSans-2212" transform="translate(128.203125 38.965625) scale(0.7)"/>
       <use xlink:href="#DejaVuSans-34" transform="translate(186.855469 38.965625) scale(0.7)"/>
      </g>
     </g>
    </g>
    <g id="xtick_5">
     <g id="line2d_5">
      <defs>
       <path id="mb6be68d307" d="M 0 1 
L 0 -1 
" style="stroke: #000000; stroke-width: 0.4"/>
      </defs>
      <g>
       <use xlink:href="#mb6be68d307" x="43.762239" y="121.332274" style="stroke: #000000; stroke-width: 0.4"/>
      </g>
     </g>
    </g>
    <g id="xtick_6">
     <g id="line2d_6">
      <g>
       <use xlink:href="#mb6be68d307" x="47.657004" y="121.332274" style="stroke: #000000; stroke-width: 0.4"/>
      </g>
     </g>
    </g>
    <g id="xtick_7">
     <g id="line2d_7">
      <g>
       <use xlink:href="#mb6be68d307" x="50.678018" y="121.332274" style="stroke: #000000; stroke-width: 0.4"/>
      </g>
     </g>
    </g>
    <g id="xtick_8">
     <g id="line2d_8">
      <g>
       <use xlink:href="#mb6be68d307" x="53.146367" y="121.332274" style="stroke: #000000; stroke-width: 0.4"/>
      </g>
     </g>
    </g>
    <g id="xtick_9">
     <g id="line2d_9">
      <g>
       <use xlink:href="#mb6be68d307" x="55.233326" y="121.332274" style="stroke: #000000; stroke-width: 0.4"/>
      </g>
     </g>
    </g>
    <g id="xtick_10">
     <g id="line2d_10">
      <g>
       <use xlink:href="#mb6be68d307" x="57.041132" y="121.332274" style="stroke: #000000; stroke-width: 0.4"/>
      </g>
     </g>
    </g>
    <g id="xtick_11">
     <g id="line2d_11">
      <g>
       <use xlink:href="#mb6be68d307" x="58.63573" y="121.332274" style="stroke: #000000; stroke-width: 0.4"/>
      </g>
     </g>
    </g>
    <g id="xtick_12">
     <g id="line2d_12">
      <g>
       <use xlink:href="#mb6be68d307" x="69.446275" y="121.332274" style="stroke: #000000; stroke-width: 0.4"/>
      </g>
     </g>
    </g>
    <g id="xtick_13">
     <g id="line2d_13">
      <g>
       <use xlink:href="#mb6be68d307" x="74.935638" y="121.332274" style="stroke: #000000; stroke-width: 0.4"/>
      </g>
     </g>
    </g>
    <g id="xtick_14">
     <g id="line2d_14">
      <g>
       <use xlink:href="#mb6be68d307" x="78.830403" y="121.332274" style="stroke: #000000; stroke-width: 0.4"/>
      </g>
     </g>
    </g>
    <g id="xtick_15">
     <g id="line2d_15">
      <g>
       <use xlink:href="#mb6be68d307" x="81.851417" y="121.332274" style="stroke: #000000; stroke-width: 0.4"/>
      </g>
     </g>
    </g>
    <g id="xtick_16">
     <g id="line2d_16">
      <g>
       <use xlink:href="#mb6be68d307" x="84.319766" y="121.332274" style="stroke: #000000; stroke-width: 0.4"/>
      </g>
     </g>
    </g>
    <g id="xtick_17">
     <g id="line2d_17">
      <g>
       <use xlink:href="#mb6be68d307" x="86.406725" y="121.332274" style="stroke: #000000; stroke-width: 0.4"/>
      </g>
     </g>
    </g>
    <g id="xtick_18">
     <g id="line2d_18">
      <g>
       <use xlink:href="#mb6be68d307" x="88.214531" y="121.332274" style="stroke: #000000; stroke-width: 0.4"/>
      </g>
     </g>
    </g>
    <g id="xtick_19">
     <g id="line2d_19">
      <g>
       <use xlink:href="#mb6be68d307" x="89.809129" y="121.332274" style="stroke: #000000; stroke-width: 0.4"/>
      </g>
     </g>
    </g>
    <g id="xtick_20">
     <g id="line2d_20">
      <g>
       <use xlink:href="#mb6be68d307" x="100.619673" y="121.332274" style="stroke: #000000; stroke-width: 0.4"/>
      </g>
     </g>
    </g>
    <g id="xtick_21">
     <g id="line2d_21">
      <g>
       <use xlink:href="#mb6be68d307" x="106.109036" y="121.332274" style="stroke: #000000; stroke-width: 0.4"/>
      </g>
     </g>
    </g>
    <g id="xtick_22">
     <g id="line2d_22">
      <g>
       <use xlink:href="#mb6be68d307" x="110.003801" y="121.332274" style="stroke: #000000; stroke-width: 0.4"/>
      </g>
     </g>
    </g>
    <g id="xtick_23">
     <g id="line2d_23">
      <g>
       <use xlink:href="#mb6be68d307" x="113.024816" y="121.332274" style="stroke: #000000; stroke-width: 0.4"/>
      </g>
     </g>
    </g>
    <g id="xtick_24">
     <g id="line2d_24">
      <g>
       <use xlink:href="#mb6be68d307" x="115.493164" y="121.332274" style="stroke: #000000; stroke-width: 0.4"/>
      </g>
     </g>
    </g>
    <g id="xtick_25">
     <g id="line2d_25">
      <g>
       <use xlink:href="#mb6be68d307" x="117.580123" y="121.332274" style="stroke: #000000; stroke-width: 0.4"/>
      </g>
     </g>
    </g>
    <g id="xtick_26">
     <g id="line2d_26">
      <g>
       <use xlink:href="#mb6be68d307" x="119.387929" y="121.332274" style="stroke: #000000; stroke-width: 0.4"/>
      </g>
     </g>
    </g>
    <g id="xtick_27">
     <g id="line2d_27">
      <g>
       <use xlink:href="#mb6be68d307" x="120.982527" y="121.332274" style="stroke: #000000; stroke-width: 0.4"/>
      </g>
     </g>
    </g>
    <g id="xtick_28">
     <g id="line2d_28">
      <g>
       <use xlink:href="#mb6be68d307" x="131.793072" y="121.332274" style="stroke: #000000; stroke-width: 0.4"/>
      </g>
     </g>
    </g>
    <g id="xtick_29">
     <g id="line2d_29">
      <g>
       <use xlink:href="#mb6be68d307" x="137.282435" y="121.332274" style="stroke: #000000; stroke-width: 0.4"/>
      </g>
     </g>
    </g>
    <g id="xtick_30">
     <g id="line2d_30">
      <g>
       <use xlink:href="#mb6be68d307" x="141.1772" y="121.332274" style="stroke: #000000; stroke-width: 0.4"/>
      </g>
     </g>
    </g>
    <g id="xtick_31">
     <g id="line2d_31">
      <g>
       <use xlink:href="#mb6be68d307" x="144.198215" y="121.332274" style="stroke: #000000; stroke-width: 0.4"/>
      </g>
     </g>
    </g>
    <g id="xtick_32">
     <g id="line2d_32">
      <g>
       <use xlink:href="#mb6be68d307" x="146.666563" y="121.332274" style="stroke: #000000; stroke-width: 0.4"/>
      </g>
     </g>
    </g>
    <g id="xtick_33">
     <g id="line2d_33">
      <g>
       <use xlink:href="#mb6be68d307" x="148.753522" y="121.332274" style="stroke: #000000; stroke-width: 0.4"/>
      </g>
     </g>
    </g>
    <g id="xtick_34">
     <g id="line2d_34">
      <g>
       <use xlink:href="#mb6be68d307" x="150.561328" y="121.332274" style="stroke: #000000; stroke-width: 0.4"/>
      </g>
     </g>
    </g>
    <g id="xtick_35">
     <g id="line2d_35">
      <g>
       <use xlink:href="#mb6be68d307" x="152.155926" y="121.332274" style="stroke: #000000; stroke-width: 0.4"/>
      </g>
     </g>
    </g>
    <g id="text_5">
     <!-- Frequency -->
     <g transform="translate(74.998718 140.926558) scale(0.09 -0.09)">
      <defs>
       <path id="DejaVuSans-46" d="M 628 4666 
L 3309 4666 
L 3309 4134 
L 1259 4134 
L 1259 2759 
L 3109 2759 
L 3109 2228 
L 1259 2228 
L 1259 0 
L 628 0 
L 628 4666 
z
" transform="scale(0.015625)"/>
       <path id="DejaVuSans-72" d="M 2631 2963 
Q 2534 3019 2420 3045 
Q 2306 3072 2169 3072 
Q 1681 3072 1420 2755 
Q 1159 2438 1159 1844 
L 1159 0 
L 581 0 
L 581 3500 
L 1159 3500 
L 1159 2956 
Q 1341 3275 1631 3429 
Q 1922 3584 2338 3584 
Q 2397 3584 2469 3576 
Q 2541 3569 2628 3553 
L 2631 2963 
z
" transform="scale(0.015625)"/>
       <path id="DejaVuSans-65" d="M 3597 1894 
L 3597 1613 
L 953 1613 
Q 991 1019 1311 708 
Q 1631 397 2203 397 
Q 2534 397 2845 478 
Q 3156 559 3463 722 
L 3463 178 
Q 3153 47 2828 -22 
Q 2503 -91 2169 -91 
Q 1331 -91 842 396 
Q 353 884 353 1716 
Q 353 2575 817 3079 
Q 1281 3584 2069 3584 
Q 2775 3584 3186 3129 
Q 3597 2675 3597 1894 
z
M 3022 2063 
Q 3016 2534 2758 2815 
Q 2500 3097 2075 3097 
Q 1594 3097 1305 2825 
Q 1016 2553 972 2059 
L 3022 2063 
z
" transform="scale(0.015625)"/>
       <path id="DejaVuSans-71" d="M 947 1747 
Q 947 1113 1208 752 
Q 1469 391 1925 391 
Q 2381 391 2643 752 
Q 2906 1113 2906 1747 
Q 2906 2381 2643 2742 
Q 2381 3103 1925 3103 
Q 1469 3103 1208 2742 
Q 947 2381 947 1747 
z
M 2906 525 
Q 2725 213 2448 61 
Q 2172 -91 1784 -91 
Q 1150 -91 751 415 
Q 353 922 353 1747 
Q 353 2572 751 3078 
Q 1150 3584 1784 3584 
Q 2172 3584 2448 3432 
Q 2725 3281 2906 2969 
L 2906 3500 
L 3481 3500 
L 3481 -1331 
L 2906 -1331 
L 2906 525 
z
" transform="scale(0.015625)"/>
       <path id="DejaVuSans-75" d="M 544 1381 
L 544 3500 
L 1119 3500 
L 1119 1403 
Q 1119 906 1312 657 
Q 1506 409 1894 409 
Q 2359 409 2629 706 
Q 2900 1003 2900 1516 
L 2900 3500 
L 3475 3500 
L 3475 0 
L 2900 0 
L 2900 538 
Q 2691 219 2414 64 
Q 2138 -91 1772 -91 
Q 1169 -91 856 284 
Q 544 659 544 1381 
z
M 1991 3584 
L 1991 3584 
z
" transform="scale(0.015625)"/>
       <path id="DejaVuSans-6e" d="M 3513 2113 
L 3513 0 
L 2938 0 
L 2938 2094 
Q 2938 2591 2744 2837 
Q 2550 3084 2163 3084 
Q 1697 3084 1428 2787 
Q 1159 2491 1159 1978 
L 1159 0 
L 581 0 
L 581 3500 
L 1159 3500 
L 1159 2956 
Q 1366 3272 1645 3428 
Q 1925 3584 2291 3584 
Q 2894 3584 3203 3211 
Q 3513 2838 3513 2113 
z
" transform="scale(0.015625)"/>
       <path id="DejaVuSans-63" d="M 3122 3366 
L 3122 2828 
Q 2878 2963 2633 3030 
Q 2388 3097 2138 3097 
Q 1578 3097 1268 2742 
Q 959 2388 959 1747 
Q 959 1106 1268 751 
Q 1578 397 2138 397 
Q 2388 397 2633 464 
Q 2878 531 3122 666 
L 3122 134 
Q 2881 22 2623 -34 
Q 2366 -91 2075 -91 
Q 1284 -91 818 406 
Q 353 903 353 1747 
Q 353 2603 823 3093 
Q 1294 3584 2113 3584 
Q 2378 3584 2631 3529 
Q 2884 3475 3122 3366 
z
" transform="scale(0.015625)"/>
       <path id="DejaVuSans-79" d="M 2059 -325 
Q 1816 -950 1584 -1140 
Q 1353 -1331 966 -1331 
L 506 -1331 
L 506 -850 
L 844 -850 
Q 1081 -850 1212 -737 
Q 1344 -625 1503 -206 
L 1606 56 
L 191 3500 
L 800 3500 
L 1894 763 
L 2988 3500 
L 3597 3500 
L 2059 -325 
z
" transform="scale(0.015625)"/>
      </defs>
      <use xlink:href="#DejaVuSans-46"/>
      <use xlink:href="#DejaVuSans-72" x="50.269531"/>
      <use xlink:href="#DejaVuSans-65" x="89.132812"/>
      <use xlink:href="#DejaVuSans-71" x="150.65625"/>
      <use xlink:href="#DejaVuSans-75" x="214.132812"/>
      <use xlink:href="#DejaVuSans-65" x="277.511719"/>
      <use xlink:href="#DejaVuSans-6e" x="339.035156"/>
      <use xlink:href="#DejaVuSans-63" x="402.414062"/>
      <use xlink:href="#DejaVuSans-79" x="457.394531"/>
     </g>
    </g>
   </g>
   <g id="matplotlib.axis_2">
    <g id="ytick_1">
     <g id="line2d_36">
      <defs>
       <path id="m9f17fde6e8" d="M 2 0 
L -2 -0 
" style="stroke: #000000; stroke-width: 0.8"/>
      </defs>
      <g>
       <use xlink:href="#m9f17fde6e8" x="39.882977" y="102.344182" style="stroke: #000000; stroke-width: 0.8"/>
      </g>
     </g>
     <g id="text_6">
      <!-- $\mathdefault{10^{1}}$ -->
      <g transform="translate(22.688257 105.192456) scale(0.07497 -0.07497)">
       <use xlink:href="#DejaVuSans-31" transform="translate(0 0.684375)"/>
       <use xlink:href="#DejaVuSans-30" transform="translate(63.623047 0.684375)"/>
       <use xlink:href="#DejaVuSans-31" transform="translate(128.203125 38.965625) scale(0.7)"/>
      </g>
     </g>
    </g>
    <g id="ytick_2">
     <g id="line2d_37">
      <g>
       <use xlink:href="#m9f17fde6e8" x="39.882977" y="74.484724" style="stroke: #000000; stroke-width: 0.8"/>
      </g>
     </g>
     <g id="text_7">
      <!-- $\mathdefault{10^{3}}$ -->
      <g transform="translate(22.688257 77.332998) scale(0.07497 -0.07497)">
       <defs>
        <path id="DejaVuSans-33" d="M 2597 2516 
Q 3050 2419 3304 2112 
Q 3559 1806 3559 1356 
Q 3559 666 3084 287 
Q 2609 -91 1734 -91 
Q 1441 -91 1130 -33 
Q 819 25 488 141 
L 488 750 
Q 750 597 1062 519 
Q 1375 441 1716 441 
Q 2309 441 2620 675 
Q 2931 909 2931 1356 
Q 2931 1769 2642 2001 
Q 2353 2234 1838 2234 
L 1294 2234 
L 1294 2753 
L 1863 2753 
Q 2328 2753 2575 2939 
Q 2822 3125 2822 3475 
Q 2822 3834 2567 4026 
Q 2313 4219 1838 4219 
Q 1578 4219 1281 4162 
Q 984 4106 628 3988 
L 628 4550 
Q 988 4650 1302 4700 
Q 1616 4750 1894 4750 
Q 2613 4750 3031 4423 
Q 3450 4097 3450 3541 
Q 3450 3153 3228 2886 
Q 3006 2619 2597 2516 
z
" transform="scale(0.015625)"/>
       </defs>
       <use xlink:href="#DejaVuSans-31" transform="translate(0 0.765625)"/>
       <use xlink:href="#DejaVuSans-30" transform="translate(63.623047 0.765625)"/>
       <use xlink:href="#DejaVuSans-33" transform="translate(128.203125 39.046875) scale(0.7)"/>
      </g>
     </g>
    </g>
    <g id="ytick_3">
     <g id="line2d_38">
      <g>
       <use xlink:href="#m9f17fde6e8" x="39.882977" y="46.625266" style="stroke: #000000; stroke-width: 0.8"/>
      </g>
     </g>
     <g id="text_8">
      <!-- $\mathdefault{10^{5}}$ -->
      <g transform="translate(22.688257 49.47354) scale(0.07497 -0.07497)">
       <use xlink:href="#DejaVuSans-31" transform="translate(0 0.684375)"/>
       <use xlink:href="#DejaVuSans-30" transform="translate(63.623047 0.684375)"/>
       <use xlink:href="#DejaVuSans-35" transform="translate(128.203125 38.965625) scale(0.7)"/>
      </g>
     </g>
    </g>
    <g id="ytick_4">
     <g id="line2d_39">
      <g>
       <use xlink:href="#m9f17fde6e8" x="39.882977" y="18.765808" style="stroke: #000000; stroke-width: 0.8"/>
      </g>
     </g>
     <g id="text_9">
      <!-- $\mathdefault{10^{7}}$ -->
      <g transform="translate(22.688257 21.614082) scale(0.07497 -0.07497)">
       <use xlink:href="#DejaVuSans-31" transform="translate(0 0.684375)"/>
       <use xlink:href="#DejaVuSans-30" transform="translate(63.623047 0.684375)"/>
       <use xlink:href="#DejaVuSans-37" transform="translate(128.203125 38.965625) scale(0.7)"/>
      </g>
     </g>
    </g>
    <g id="text_10">
     <!-- Rank -->
     <g transform="translate(19.316538 76.931134) rotate(-90) scale(0.09 -0.09)">
      <defs>
       <path id="DejaVuSans-52" d="M 2841 2188 
Q 3044 2119 3236 1894 
Q 3428 1669 3622 1275 
L 4263 0 
L 3584 0 
L 2988 1197 
Q 2756 1666 2539 1819 
Q 2322 1972 1947 1972 
L 1259 1972 
L 1259 0 
L 628 0 
L 628 4666 
L 2053 4666 
Q 2853 4666 3247 4331 
Q 3641 3997 3641 3322 
Q 3641 2881 3436 2590 
Q 3231 2300 2841 2188 
z
M 1259 4147 
L 1259 2491 
L 2053 2491 
Q 2509 2491 2742 2702 
Q 2975 2913 2975 3322 
Q 2975 3731 2742 3939 
Q 2509 4147 2053 4147 
L 1259 4147 
z
" transform="scale(0.015625)"/>
       <path id="DejaVuSans-61" d="M 2194 1759 
Q 1497 1759 1228 1600 
Q 959 1441 959 1056 
Q 959 750 1161 570 
Q 1363 391 1709 391 
Q 2188 391 2477 730 
Q 2766 1069 2766 1631 
L 2766 1759 
L 2194 1759 
z
M 3341 1997 
L 3341 0 
L 2766 0 
L 2766 531 
Q 2569 213 2275 61 
Q 1981 -91 1556 -91 
Q 1019 -91 701 211 
Q 384 513 384 1019 
Q 384 1609 779 1909 
Q 1175 2209 1959 2209 
L 2766 2209 
L 2766 2266 
Q 2766 2663 2505 2880 
Q 2244 3097 1772 3097 
Q 1472 3097 1187 3025 
Q 903 2953 641 2809 
L 641 3341 
Q 956 3463 1253 3523 
Q 1550 3584 1831 3584 
Q 2591 3584 2966 3190 
Q 3341 2797 3341 1997 
z
" transform="scale(0.015625)"/>
       <path id="DejaVuSans-6b" d="M 581 4863 
L 1159 4863 
L 1159 1991 
L 2875 3500 
L 3609 3500 
L 1753 1863 
L 3688 0 
L 2938 0 
L 1159 1709 
L 1159 0 
L 581 0 
L 581 4863 
z
" transform="scale(0.015625)"/>
      </defs>
      <use xlink:href="#DejaVuSans-52"/>
      <use xlink:href="#DejaVuSans-61" x="67.232422"/>
      <use xlink:href="#DejaVuSans-6e" x="128.511719"/>
      <use xlink:href="#DejaVuSans-6b" x="191.890625"/>
     </g>
    </g>
   </g>
   <g id="line2d_40">
    <path d="M 151.302218 150.998277 
L 151.302218 116.273911 
L 149.420203 116.273911 
L 149.420203 112.080644 
L 148.30788 112.080644 
L 148.30788 109.627741 
L 146.515294 109.627741 
L 146.515294 107.887378 
L 145.748615 107.887378 
L 145.748615 106.537448 
L 145.306839 106.537448 
L 145.306839 105.434475 
L 144.944444 105.434475 
L 144.944444 104.501924 
L 144.08037 104.501924 
L 144.08037 103.694112 
L 143.551204 103.694112 
L 143.503784 102.344182 
L 142.911474 102.344182 
L 142.831836 101.241208 
L 142.135303 101.241208 
L 142.072088 100.308658 
L 141.632037 100.308658 
L 141.632037 99.891278 
L 141.4674 99.891278 
L 141.389879 99.134091 
L 141.255945 99.134091 
L 141.165913 98.150915 
L 141.097995 98.150915 
L 141.097995 97.855754 
L 140.984034 97.855754 
L 140.984034 97.574327 
L 140.553837 97.574327 
L 140.5065 96.563715 
L 140.399382 96.563715 
L 140.351501 96.115392 
L 140.158264 96.115392 
L 140.158264 95.903103 
L 140.011504 95.903103 
L 139.925154 95.307579 
L 139.850699 95.307579 
L 139.850699 95.121423 
L 139.612185 95.121423 
L 139.612185 94.940824 
L 139.446536 94.940824 
L 139.343582 94.110812 
L 139.213778 94.110812 
L 139.161506 93.808269 
L 139.069542 93.808269 
L 139.069542 93.520138 
L 138.937071 93.520138 
L 138.856961 93.245108 
L 138.559104 93.245108 
L 138.449146 92.729937 
L 138.226515 92.729937 
L 138.212479 92.487921 
L 138.028664 92.487921 
L 138.028664 92.370449 
L 137.88555 92.370449 
L 137.784463 92.142135 
L 137.506216 92.03113 
L 137.461755 91.81505 
L 137.161555 91.709837 
L 137.085454 91.504746 
L 136.916509 91.40475 
L 136.916509 91.30638 
L 136.603829 91.209585 
L 136.524518 91.020519 
L 136.34838 90.928157 
L 136.251329 90.572195 
L 136.202542 90.486384 
L 136.202542 90.401772 
L 135.889406 90.318328 
L 135.889406 90.236019 
L 135.721641 90.154816 
L 135.721641 89.995606 
L 135.551771 89.917546 
L 135.534666 89.689232 
L 135.205501 89.615002 
L 135.152788 89.397628 
L 134.939859 89.326872 
L 134.939859 89.256933 
L 134.668901 89.187794 
L 134.577363 88.918879 
L 134.540573 88.918879 
L 134.540573 88.853477 
L 134.429602 88.536671 
L 134.355113 88.536671 
L 134.355113 88.475253 
L 134.261421 88.294655 
L 134.148128 88.235634 
L 134.052987 88.061949 
L 133.880031 88.005145 
L 133.782981 87.728859 
L 133.527346 87.621784 
L 133.427725 87.413156 
L 133.347497 87.311479 
L 133.347497 87.261275 
L 133.001122 87.162099 
L 132.918318 86.921047 
L 132.793154 86.873968 
L 132.793154 86.827253 
L 132.709064 86.509972 
L 132.603212 86.422295 
L 132.560638 86.208506 
L 132.367382 86.125062 
L 132.258813 85.881421 
L 132.236995 85.881421 
L 132.236995 85.80234 
L 132.215141 85.724279 
L 131.950106 85.647213 
L 131.860596 85.495965 
L 131.747869 85.38496 
L 131.657006 85.204362 
L 131.56553 85.098535 
L 131.473431 84.892279 
L 131.334098 84.791729 
L 131.240406 84.660211 
L 131.169709 84.563415 
L 131.098641 84.468143 
L 130.93135 84.374349 
L 130.834819 84.25151 
L 130.737595 84.160991 
L 130.639667 83.983917 
L 130.441661 83.897286 
L 130.341561 83.783675 
L 130.19001 83.699846 
L 130.088025 83.323304 
L 130.036743 83.297284 
L 130.036743 83.21989 
L 129.933592 83.043062 
L 129.751166 82.944291 
L 129.645808 82.775229 
L 129.512947 82.680702 
L 129.405711 82.541624 
L 129.21598 82.495967 
L 129.21598 82.450651 
L 129.106357 82.294667 
L 129.023553 82.185663 
L 128.940239 82.12119 
L 128.88441 82.036282 
L 128.88441 82.01524 
L 128.800233 81.931796 
L 128.630293 81.849487 
L 128.630293 81.829084 
L 128.544515 81.648485 
L 128.429294 81.550434 
L 128.34223 81.396785 
L 128.195867 81.302699 
L 128.107284 81.155141 
L 127.958344 81.046787 
L 127.868188 80.853042 
L 127.747038 80.749921 
L 127.655459 80.565314 
L 127.47042 80.483229 
L 127.47042 80.466944 
L 127.376944 80.354165 
L 127.282818 80.243451 
L 127.188032 80.150139 
L 127.028567 80.058244 
L 127.028567 80.043063 
L 126.931979 79.87854 
L 126.802113 79.790651 
L 126.802113 79.776126 
L 126.703889 79.604494 
L 126.604947 79.520471 
L 126.604947 79.506579 
L 126.505277 79.328838 
L 126.303709 79.261843 
L 126.303709 79.221999 
L 126.235847 79.104018 
L 126.133412 79.052312 
L 126.133412 79.001044 
L 126.030196 78.874743 
L 125.960945 78.800208 
L 125.960945 78.775566 
L 125.856401 78.593883 
L 125.786254 78.510929 
L 125.786254 78.487436 
L 125.680346 78.417497 
L 125.501972 78.314083 
L 125.393808 78.12344 
L 125.321215 78.046653 
L 125.321215 78.014041 
L 125.211592 77.895944 
L 125.02689 77.81148 
L 125.02689 77.790547 
L 124.952298 77.686955 
L 124.839633 77.595216 
L 124.839633 77.585108 
L 124.763999 77.455219 
L 124.687941 77.386417 
L 124.687941 77.34745 
L 124.611452 77.232032 
L 124.495903 77.137505 
L 124.495903 77.128133 
L 124.418319 77.025989 
L 124.261803 76.916491 
L 124.182862 76.738286 
L 124.063579 76.685833 
L 124.063579 76.63383 
L 123.98347 76.54814 
L 123.86241 76.463647 
L 123.86241 76.438528 
L 123.781098 76.306291 
L 123.616994 76.233158 
L 123.616994 76.200936 
L 123.53419 76.097386 
L 123.409026 75.987817 
L 123.324936 75.887821 
L 123.197814 75.819549 
L 123.197814 75.78195 
L 123.112397 75.663181 
L 122.983254 75.582859 
L 122.983254 75.553914 
L 122.896469 75.418283 
L 122.721212 75.327204 
L 122.721212 75.313313 
L 122.632725 75.182914 
L 122.498901 75.101981 
L 122.498901 75.075243 
L 122.408944 74.962904 
L 122.227217 74.865485 
L 122.227217 74.852613 
L 122.135431 74.700254 
L 121.996574 74.619301 
L 121.996574 74.594609 
L 121.903205 74.496835 
L 121.761933 74.418542 
L 121.761933 74.388696 
L 121.666926 74.259099 
L 121.523154 74.16656 
L 121.523154 74.149366 
L 121.42645 74.002359 
L 121.280087 73.919144 
L 121.280087 73.891658 
L 121.181626 73.772183 
L 121.032577 73.670865 
L 121.032577 73.665579 
L 120.932292 73.550445 
L 120.780457 73.462955 
L 120.780457 73.442551 
L 120.67828 73.316566 
L 120.523553 73.227454 
L 120.523553 73.207828 
L 120.419411 73.115466 
L 120.314462 73.029247 
L 120.314462 73.005513 
L 120.208692 72.86041 
L 120.048472 72.759504 
L 120.048472 72.750414 
L 119.940595 72.615673 
L 119.777152 72.518736 
L 119.777152 72.505637 
L 119.667082 72.380454 
L 119.500282 72.295605 
L 119.500282 72.270381 
L 119.444222 72.182915 
L 119.217632 72.084479 
L 119.217632 72.072286 
L 119.160387 71.975619 
L 118.987185 71.900172 
L 118.987185 71.86476 
L 118.928955 71.782928 
L 118.752748 71.702188 
L 118.752748 71.675513 
L 118.693499 71.592433 
L 118.514179 71.492007 
L 118.514179 71.484634 
L 118.453874 71.367871 
L 118.27133 71.256866 
L 118.209932 71.147861 
L 118.086292 71.085458 
L 118.086292 71.037363 
L 118.024046 70.976083 
L 117.835573 70.88865 
L 117.835573 70.865325 
L 117.772161 70.759825 
L 117.644439 70.70128 
L 117.644439 70.649711 
L 117.580123 70.585863 
L 117.385322 70.478843 
L 117.385322 70.475724 
L 117.319761 70.361431 
L 117.187677 70.300539 
L 117.187677 70.252262 
L 117.121149 70.186505 
L 116.919581 70.097973 
L 116.919581 70.0775 
L 116.851719 69.967557 
L 116.646068 69.865212 
L 116.646068 69.856761 
L 116.576817 69.753489 
L 116.437245 69.687433 
L 116.437245 69.643793 
L 116.366915 69.584297 
L 116.22515 69.51739 
L 116.22515 69.474955 
L 116.153707 69.390968 
L 116.00968 69.318424 
L 116.00968 69.279916 
L 115.937087 69.193528 
L 115.790724 69.135781 
L 115.790724 69.083532 
L 115.716945 69.004773 
L 115.56817 68.92944 
L 115.56817 68.895724 
L 115.493164 68.831226 
L 115.341895 68.762708 
L 115.341895 68.720567 
L 115.265622 68.58446 
L 115.111775 68.509646 
L 115.111775 68.473703 
L 115.03419 68.371542 
L 114.877675 68.308011 
L 114.877675 68.262419 
L 114.798733 68.178649 
L 114.639456 68.125554 
L 114.639456 68.06873 
L 114.559109 67.975193 
L 114.39697 67.885113 
L 114.39697 67.864826 
L 114.315167 67.718756 
L 114.150062 67.630439 
L 114.150062 67.609045 
L 114.066748 67.467056 
L 113.898566 67.404796 
L 113.898566 67.356189 
L 113.813686 67.267467 
L 113.642311 67.196327 
L 113.642311 67.156562 
L 113.555803 67.076031 
L 113.381111 67.001824 
L 113.381111 66.965058 
L 113.292912 66.856085 
L 113.114773 66.796381 
L 113.114773 66.745672 
L 113.024816 66.653794 
L 112.843089 66.560026 
L 112.843089 66.543724 
L 112.751303 66.406904 
L 112.565842 66.351453 
L 112.565842 66.296506 
L 112.47215 66.198843 
L 112.282798 66.10273 
L 112.282798 66.089124 
L 112.18712 65.925249 
L 111.99371 65.85656 
L 111.99371 65.814564 
L 111.895959 65.701618 
L 111.698314 65.620017 
L 111.698314 65.590742 
L 111.598399 65.455964 
L 111.396329 65.380276 
L 111.396329 65.345454 
L 111.294152 65.227751 
L 111.087454 65.143212 
L 111.087454 65.117436 
L 110.98291 64.946264 
L 110.771368 64.868011 
L 110.771368 64.836009 
L 110.664344 64.694058 
L 110.447724 64.590623 
L 110.447724 64.583555 
L 110.338101 64.42895 
L 110.116154 64.323143 
L 110.116154 64.318633 
L 110.116154 64.239143 
L 109.890508 64.158488 
L 109.890508 64.128926 
L 109.890508 64.071316 
L 109.661038 63.978987 
L 109.661038 63.960901 
L 109.661038 63.914341 
L 109.427611 63.827475 
L 109.427611 63.803623 
L 109.427611 63.755173 
L 109.190088 63.65134 
L 109.190088 63.64428 
L 109.190088 63.559192 
L 108.948324 63.460598 
L 108.948324 63.448874 
L 108.948324 63.356852 
L 108.702164 63.262422 
L 108.702164 63.246354 
L 108.702164 63.157339 
L 108.451445 63.070532 
L 108.451445 63.04674 
L 108.451445 62.953396 
L 108.195995 62.864127 
L 108.195995 62.842898 
L 108.195995 62.750883 
L 107.935633 62.655965 
L 107.935633 62.640574 
L 107.935633 62.563357 
L 107.670165 62.463015 
L 107.670165 62.453072 
L 107.670165 62.348016 
L 107.535453 62.348016 
L 107.535453 62.237558 
L 107.535453 62.228776 
L 107.26194 62.124375 
L 107.26194 62.118105 
L 107.26194 62.027144 
L 106.982787 61.920068 
L 106.982787 61.916279 
L 106.982787 61.830521 
L 106.697757 61.720969 
L 106.697757 61.719502 
L 106.697757 61.602566 
L 106.552959 61.602566 
L 106.552959 61.492084 
L 106.552959 61.487142 
L 106.258634 61.385666 
L 106.258634 61.376651 
L 106.258634 61.271545 
L 106.109036 61.271545 
L 106.109036 61.160874 
L 106.109036 61.139514 
L 105.804789 61.044316 
L 105.804789 61.028594 
L 105.804789 60.944137 
L 105.493547 60.841783 
L 105.493547 60.833543 
L 105.493547 60.734274 
L 105.335201 60.734274 
L 105.335201 60.623745 
L 105.335201 60.621909 
L 105.174981 60.621909 
L 105.174981 60.510993 
L 105.174981 60.493003 
L 105.012842 60.493003 
L 105.012842 60.382052 
L 105.012842 60.349803 
L 104.848738 60.349803 
L 104.848738 60.239128 
L 104.848738 60.224217 
L 104.68262 60.224217 
L 104.68262 60.113546 
L 104.68262 60.107924 
L 104.514438 60.107924 
L 104.514438 59.997134 
L 104.514438 59.981707 
L 104.344141 59.981707 
L 104.344141 59.871022 
L 104.344141 59.840841 
L 104.171675 59.840841 
L 104.171675 59.730041 
L 104.171675 59.724765 
L 103.996983 59.724765 
L 103.996983 59.613981 
L 103.996983 59.59124 
L 103.820007 59.59124 
L 103.820007 59.480319 
L 103.820007 59.443457 
L 103.640688 59.443457 
L 103.640688 59.332718 
L 103.640688 59.310516 
L 103.458961 59.310516 
L 103.458961 59.199743 
L 103.458961 59.182361 
L 103.274762 59.182361 
L 103.274762 59.071522 
L 103.274762 59.050257 
L 103.088022 59.050257 
L 103.088022 58.939475 
L 103.088022 58.907599 
L 102.89867 58.907599 
L 102.89867 58.796661 
L 102.89867 58.773183 
L 102.706632 58.773183 
L 102.706632 58.662449 
L 102.706632 58.631997 
L 102.511831 58.631997 
L 102.511831 58.5212 
L 102.511831 58.500919 
L 102.314186 58.500919 
L 102.314186 58.389937 
L 102.314186 58.363349 
L 102.113613 58.362928 
L 102.113613 58.252359 
L 102.113613 58.220196 
L 101.910024 58.220196 
L 101.910024 58.109355 
L 101.910024 58.063898 
L 101.703326 58.063898 
L 101.703326 57.953104 
L 101.703326 57.910365 
L 101.493424 57.910365 
L 101.493424 57.799637 
L 101.493424 57.762156 
L 101.280216 57.762156 
L 101.280216 57.651089 
L 101.280216 57.615259 
L 101.063596 57.615259 
L 101.063596 57.504275 
L 101.063596 57.467485 
L 100.843454 57.467485 
L 100.843454 57.356659 
L 100.843454 57.297759 
L 100.619673 57.297759 
L 100.619673 57.18685 
L 100.619673 57.144702 
L 100.392131 57.144702 
L 100.392131 57.033835 
L 100.392131 56.975303 
L 100.160699 56.975303 
L 100.160699 56.864511 
L 100.160699 56.800427 
L 99.925242 56.800102 
L 99.925242 56.68957 
L 99.925242 56.634261 
L 99.685618 56.634261 
L 99.685618 56.523274 
L 99.685618 56.464533 
L 99.441675 56.464533 
L 99.441675 56.353567 
L 99.441675 56.280904 
L 99.193257 56.280904 
L 99.193257 56.170002 
L 99.193257 56.113997 
L 98.940195 56.113997 
L 98.940195 56.00295 
L 98.940195 55.929003 
L 98.682312 55.929003 
L 98.682312 55.817951 
L 98.682312 55.747311 
L 98.419421 55.747311 
L 98.419421 55.636296 
L 98.419421 55.56349 
L 98.151325 55.56349 
L 98.151325 55.452384 
L 98.151325 55.382003 
L 97.877812 55.382003 
L 97.877812 55.271119 
L 97.877812 55.186343 
L 97.598659 55.186343 
L 97.598659 55.075288 
L 97.598659 54.991506 
L 97.313629 54.991506 
L 97.313629 54.880624 
L 97.313629 54.809063 
L 97.022468 54.809063 
L 97.022468 54.697999 
L 97.022468 54.605657 
L 96.724908 54.605657 
L 96.724908 54.494677 
L 96.724908 54.390717 
L 96.420661 54.390717 
L 96.420661 54.279715 
L 96.420661 54.19202 
L 96.109419 54.19202 
L 96.109419 54.081046 
L 96.109419 53.975128 
L 95.790853 53.975128 
L 95.790853 53.864023 
L 95.790853 53.764168 
L 95.46461 53.764168 
L 95.46461 53.653163 
L 95.46461 53.539224 
L 95.13031 53.539224 
L 95.13031 53.428136 
L 95.13031 53.311556 
L 94.787547 53.311556 
L 94.787547 53.200588 
L 94.787547 53.082288 
L 94.435879 53.082288 
L 94.435879 52.971264 
L 94.435879 52.848348 
L 94.074833 52.848348 
L 94.074833 52.737343 
L 94.074833 52.60001 
L 93.703894 52.60001 
L 93.703894 52.488964 
L 93.703894 52.33949 
L 93.322504 52.33949 
L 93.322504 52.228499 
L 93.322504 52.084206 
L 92.930058 52.084206 
L 92.930058 51.97322 
L 92.930058 51.825954 
L 92.525896 51.825954 
L 92.525896 51.714934 
L 92.525896 51.556641 
L 92.109296 51.556641 
L 92.109296 51.445579 
L 92.109296 51.281673 
L 91.679468 51.281673 
L 91.679468 51.170627 
L 91.679468 50.996191 
L 91.235545 50.996191 
L 91.235545 50.885202 
L 91.235545 50.704668 
L 90.776571 50.704668 
L 90.776571 50.593607 
L 90.776571 50.416126 
L 90.30149 50.416126 
L 90.30149 50.305078 
L 90.30149 50.11191 
L 89.809129 50.11191 
L 89.809129 50.000867 
L 89.809129 49.794004 
L 89.298184 49.794004 
L 89.298184 49.682979 
L 89.298184 49.458061 
L 88.767197 49.458061 
L 88.767197 49.347001 
L 88.767197 49.114272 
L 88.214531 49.114272 
L 88.214531 49.003197 
L 88.214531 48.75903 
L 87.63834 48.75903 
L 87.63834 48.647978 
L 87.63834 48.387528 
L 87.036533 48.387528 
L 87.036533 48.276433 
L 87.036533 48.005976 
L 86.406725 48.005976 
L 86.406725 47.894894 
L 86.406725 47.606733 
L 85.746182 47.606733 
L 85.746182 47.495625 
L 85.746182 47.193814 
L 85.051751 47.193814 
L 85.051751 47.082727 
L 85.051751 46.75774 
L 84.319766 46.75774 
L 84.319766 46.646659 
L 84.319766 46.301538 
L 83.54593 46.301538 
L 83.54593 46.190456 
L 83.54593 45.81818 
L 82.725168 45.81818 
L 82.725168 45.707079 
L 82.725168 45.307946 
L 81.851417 45.307946 
L 81.851417 45.196863 
L 81.851417 44.763059 
L 80.917362 44.763059 
L 80.917362 44.651983 
L 80.917362 44.189002 
L 79.914056 44.189002 
L 79.914056 44.077923 
L 79.914056 43.571916 
L 78.830403 43.571916 
L 78.830403 43.460826 
L 78.830403 42.904912 
L 77.652405 42.904912 
L 77.652405 42.793817 
L 77.652405 42.174492 
L 76.362054 42.174492 
L 76.362054 42.063395 
L 76.362054 41.376957 
L 74.935638 41.376957 
L 74.935638 41.265862 
L 74.935638 40.496732 
L 73.34104 40.496732 
L 73.34104 40.385639 
L 73.34104 39.511757 
L 71.533234 39.511757 
L 71.533234 39.400656 
L 71.533234 38.395605 
L 69.446275 38.395605 
L 69.446275 38.284505 
L 69.446275 37.081632 
L 66.977926 37.081632 
L 66.977926 36.970526 
L 66.977926 35.511735 
L 63.956912 35.511735 
L 63.956912 35.400627 
L 63.956912 33.517518 
L 60.062146 33.517518 
L 60.062146 33.40641 
L 60.062146 30.770893 
L 54.572783 30.770893 
L 54.572783 30.659784 
L 54.572783 25.994117 
L 45.188655 25.994117 
L 45.188655 25.883007 
L 45.188655 15.106638 
L 45.188655 15.106638 
" clip-path="url(#pd57540f8c9)" style="fill: none; stroke: #1f77b4; stroke-width: 1.3; stroke-linecap: round"/>
   </g>
   <g id="patch_3">
    <path d="M 39.882977 121.332274 
L 39.882977 10.048274 
" style="fill: none; stroke: #000000; stroke-linejoin: miter; stroke-linecap: square"/>
   </g>
   <g id="patch_4">
    <path d="M 39.882977 121.332274 
L 156.607896 121.332274 
" style="fill: none; stroke: #000000; stroke-linejoin: miter; stroke-linecap: square"/>
   </g>
   <g id="text_11">
    <!-- A -->
    <g transform="translate(7.2 17.999708) scale(0.09 -0.09)">
     <defs>
      <path id="DejaVuSans-Bold-41" d="M 3419 850 
L 1538 850 
L 1241 0 
L 31 0 
L 1759 4666 
L 3194 4666 
L 4922 0 
L 3713 0 
L 3419 850 
z
M 1838 1716 
L 3116 1716 
L 2478 3572 
L 1838 1716 
z
" transform="scale(0.015625)"/>
     </defs>
     <use xlink:href="#DejaVuSans-Bold-41"/>
    </g>
   </g>
  </g>
  <g id="axes_2">
   <g id="patch_5">
    <path d="M 207.716988 121.332274 
L 324.441907 121.332274 
L 324.441907 10.048274 
L 207.716988 10.048274 
z
" style="fill: #ffffff"/>
   </g>
   <g id="matplotlib.axis_3">
    <g id="xtick_36">
     <g id="line2d_41">
      <g>
       <use xlink:href="#mf60ed4fd98" x="225.285839" y="121.332274" style="stroke: #000000; stroke-width: 0.8"/>
      </g>
     </g>
     <g id="text_12">
      <!-- $\mathdefault{10^{3}}$ -->
      <g transform="translate(218.688479 131.028823) scale(0.07497 -0.07497)">
       <use xlink:href="#DejaVuSans-31" transform="translate(0 0.765625)"/>
       <use xlink:href="#DejaVuSans-30" transform="translate(63.623047 0.765625)"/>
       <use xlink:href="#DejaVuSans-33" transform="translate(128.203125 39.046875) scale(0.7)"/>
      </g>
     </g>
    </g>
    <g id="xtick_37">
     <g id="line2d_42">
      <g>
       <use xlink:href="#mf60ed4fd98" x="283.648299" y="121.332274" style="stroke: #000000; stroke-width: 0.8"/>
      </g>
     </g>
     <g id="text_13">
      <!-- $\mathdefault{10^{4}}$ -->
      <g transform="translate(277.050939 131.028823) scale(0.07497 -0.07497)">
       <use xlink:href="#DejaVuSans-31" transform="translate(0 0.684375)"/>
       <use xlink:href="#DejaVuSans-30" transform="translate(63.623047 0.684375)"/>
       <use xlink:href="#DejaVuSans-34" transform="translate(128.203125 38.965625) scale(0.7)"/>
      </g>
     </g>
    </g>
    <g id="xtick_38">
     <g id="line2d_43">
      <g>
       <use xlink:href="#mb6be68d307" x="207.716988" y="121.332274" style="stroke: #000000; stroke-width: 0.4"/>
      </g>
     </g>
    </g>
    <g id="xtick_39">
     <g id="line2d_44">
      <g>
       <use xlink:href="#mb6be68d307" x="212.338201" y="121.332274" style="stroke: #000000; stroke-width: 0.4"/>
      </g>
     </g>
    </g>
    <g id="xtick_40">
     <g id="line2d_45">
      <g>
       <use xlink:href="#mb6be68d307" x="216.24538" y="121.332274" style="stroke: #000000; stroke-width: 0.4"/>
      </g>
     </g>
    </g>
    <g id="xtick_41">
     <g id="line2d_46">
      <g>
       <use xlink:href="#mb6be68d307" x="219.629933" y="121.332274" style="stroke: #000000; stroke-width: 0.4"/>
      </g>
     </g>
    </g>
    <g id="xtick_42">
     <g id="line2d_47">
      <g>
       <use xlink:href="#mb6be68d307" x="222.61532" y="121.332274" style="stroke: #000000; stroke-width: 0.4"/>
      </g>
     </g>
    </g>
    <g id="xtick_43">
     <g id="line2d_48">
      <g>
       <use xlink:href="#mb6be68d307" x="242.85469" y="121.332274" style="stroke: #000000; stroke-width: 0.4"/>
      </g>
     </g>
    </g>
    <g id="xtick_44">
     <g id="line2d_49">
      <g>
       <use xlink:href="#mb6be68d307" x="253.131809" y="121.332274" style="stroke: #000000; stroke-width: 0.4"/>
      </g>
     </g>
    </g>
    <g id="xtick_45">
     <g id="line2d_50">
      <g>
       <use xlink:href="#mb6be68d307" x="260.423541" y="121.332274" style="stroke: #000000; stroke-width: 0.4"/>
      </g>
     </g>
    </g>
    <g id="xtick_46">
     <g id="line2d_51">
      <g>
       <use xlink:href="#mb6be68d307" x="266.079448" y="121.332274" style="stroke: #000000; stroke-width: 0.4"/>
      </g>
     </g>
    </g>
    <g id="xtick_47">
     <g id="line2d_52">
      <g>
       <use xlink:href="#mb6be68d307" x="270.70066" y="121.332274" style="stroke: #000000; stroke-width: 0.4"/>
      </g>
     </g>
    </g>
    <g id="xtick_48">
     <g id="line2d_53">
      <g>
       <use xlink:href="#mb6be68d307" x="274.607839" y="121.332274" style="stroke: #000000; stroke-width: 0.4"/>
      </g>
     </g>
    </g>
    <g id="xtick_49">
     <g id="line2d_54">
      <g>
       <use xlink:href="#mb6be68d307" x="277.992392" y="121.332274" style="stroke: #000000; stroke-width: 0.4"/>
      </g>
     </g>
    </g>
    <g id="xtick_50">
     <g id="line2d_55">
      <g>
       <use xlink:href="#mb6be68d307" x="280.977779" y="121.332274" style="stroke: #000000; stroke-width: 0.4"/>
      </g>
     </g>
    </g>
    <g id="xtick_51">
     <g id="line2d_56">
      <g>
       <use xlink:href="#mb6be68d307" x="301.21715" y="121.332274" style="stroke: #000000; stroke-width: 0.4"/>
      </g>
     </g>
    </g>
    <g id="xtick_52">
     <g id="line2d_57">
      <g>
       <use xlink:href="#mb6be68d307" x="311.494268" y="121.332274" style="stroke: #000000; stroke-width: 0.4"/>
      </g>
     </g>
    </g>
    <g id="xtick_53">
     <g id="line2d_58">
      <g>
       <use xlink:href="#mb6be68d307" x="318.786" y="121.332274" style="stroke: #000000; stroke-width: 0.4"/>
      </g>
     </g>
    </g>
    <g id="xtick_54">
     <g id="line2d_59">
      <g>
       <use xlink:href="#mb6be68d307" x="324.441907" y="121.332274" style="stroke: #000000; stroke-width: 0.4"/>
      </g>
     </g>
    </g>
    <g id="text_14">
     <!-- Sample Size N -->
     <g transform="translate(233.741323 140.926558) scale(0.09 -0.09)">
      <defs>
       <path id="DejaVuSans-53" d="M 3425 4513 
L 3425 3897 
Q 3066 4069 2747 4153 
Q 2428 4238 2131 4238 
Q 1616 4238 1336 4038 
Q 1056 3838 1056 3469 
Q 1056 3159 1242 3001 
Q 1428 2844 1947 2747 
L 2328 2669 
Q 3034 2534 3370 2195 
Q 3706 1856 3706 1288 
Q 3706 609 3251 259 
Q 2797 -91 1919 -91 
Q 1588 -91 1214 -16 
Q 841 59 441 206 
L 441 856 
Q 825 641 1194 531 
Q 1563 422 1919 422 
Q 2459 422 2753 634 
Q 3047 847 3047 1241 
Q 3047 1584 2836 1778 
Q 2625 1972 2144 2069 
L 1759 2144 
Q 1053 2284 737 2584 
Q 422 2884 422 3419 
Q 422 4038 858 4394 
Q 1294 4750 2059 4750 
Q 2388 4750 2728 4690 
Q 3069 4631 3425 4513 
z
" transform="scale(0.015625)"/>
       <path id="DejaVuSans-6d" d="M 3328 2828 
Q 3544 3216 3844 3400 
Q 4144 3584 4550 3584 
Q 5097 3584 5394 3201 
Q 5691 2819 5691 2113 
L 5691 0 
L 5113 0 
L 5113 2094 
Q 5113 2597 4934 2840 
Q 4756 3084 4391 3084 
Q 3944 3084 3684 2787 
Q 3425 2491 3425 1978 
L 3425 0 
L 2847 0 
L 2847 2094 
Q 2847 2600 2669 2842 
Q 2491 3084 2119 3084 
Q 1678 3084 1418 2786 
Q 1159 2488 1159 1978 
L 1159 0 
L 581 0 
L 581 3500 
L 1159 3500 
L 1159 2956 
Q 1356 3278 1631 3431 
Q 1906 3584 2284 3584 
Q 2666 3584 2933 3390 
Q 3200 3197 3328 2828 
z
" transform="scale(0.015625)"/>
       <path id="DejaVuSans-70" d="M 1159 525 
L 1159 -1331 
L 581 -1331 
L 581 3500 
L 1159 3500 
L 1159 2969 
Q 1341 3281 1617 3432 
Q 1894 3584 2278 3584 
Q 2916 3584 3314 3078 
Q 3713 2572 3713 1747 
Q 3713 922 3314 415 
Q 2916 -91 2278 -91 
Q 1894 -91 1617 61 
Q 1341 213 1159 525 
z
M 3116 1747 
Q 3116 2381 2855 2742 
Q 2594 3103 2138 3103 
Q 1681 3103 1420 2742 
Q 1159 2381 1159 1747 
Q 1159 1113 1420 752 
Q 1681 391 2138 391 
Q 2594 391 2855 752 
Q 3116 1113 3116 1747 
z
" transform="scale(0.015625)"/>
       <path id="DejaVuSans-6c" d="M 603 4863 
L 1178 4863 
L 1178 0 
L 603 0 
L 603 4863 
z
" transform="scale(0.015625)"/>
       <path id="DejaVuSans-20" transform="scale(0.015625)"/>
       <path id="DejaVuSans-69" d="M 603 3500 
L 1178 3500 
L 1178 0 
L 603 0 
L 603 3500 
z
M 603 4863 
L 1178 4863 
L 1178 4134 
L 603 4134 
L 603 4863 
z
" transform="scale(0.015625)"/>
       <path id="DejaVuSans-7a" d="M 353 3500 
L 3084 3500 
L 3084 2975 
L 922 459 
L 3084 459 
L 3084 0 
L 275 0 
L 275 525 
L 2438 3041 
L 353 3041 
L 353 3500 
z
" transform="scale(0.015625)"/>
       <path id="DejaVuSans-4e" d="M 628 4666 
L 1478 4666 
L 3547 763 
L 3547 4666 
L 4159 4666 
L 4159 0 
L 3309 0 
L 1241 3903 
L 1241 0 
L 628 0 
L 628 4666 
z
" transform="scale(0.015625)"/>
      </defs>
      <use xlink:href="#DejaVuSans-53"/>
      <use xlink:href="#DejaVuSans-61" x="63.476562"/>
      <use xlink:href="#DejaVuSans-6d" x="124.755859"/>
      <use xlink:href="#DejaVuSans-70" x="222.167969"/>
      <use xlink:href="#DejaVuSans-6c" x="285.644531"/>
      <use xlink:href="#DejaVuSans-65" x="313.427734"/>
      <use xlink:href="#DejaVuSans-20" x="374.951172"/>
      <use xlink:href="#DejaVuSans-53" x="406.738281"/>
      <use xlink:href="#DejaVuSans-69" x="470.214844"/>
      <use xlink:href="#DejaVuSans-7a" x="497.998047"/>
      <use xlink:href="#DejaVuSans-65" x="550.488281"/>
      <use xlink:href="#DejaVuSans-20" x="612.011719"/>
      <use xlink:href="#DejaVuSans-4e" x="643.798828"/>
     </g>
    </g>
   </g>
   <g id="matplotlib.axis_4">
    <g id="ytick_5">
     <g id="line2d_60">
      <g>
       <use xlink:href="#m9f17fde6e8" x="207.716988" y="117.535952" style="stroke: #000000; stroke-width: 0.8"/>
      </g>
     </g>
     <g id="text_15">
      <!-- $\mathdefault{-10^{3}}$ -->
      <g transform="translate(184.224788 120.384226) scale(0.07497 -0.07497)">
       <use xlink:href="#DejaVuSans-2212" transform="translate(0 0.765625)"/>
       <use xlink:href="#DejaVuSans-31" transform="translate(83.789062 0.765625)"/>
       <use xlink:href="#DejaVuSans-30" transform="translate(147.412109 0.765625)"/>
       <use xlink:href="#DejaVuSans-33" transform="translate(211.992188 39.046875) scale(0.7)"/>
      </g>
     </g>
    </g>
    <g id="ytick_6">
     <g id="line2d_61">
      <g>
       <use xlink:href="#m9f17fde6e8" x="207.716988" y="104.924841" style="stroke: #000000; stroke-width: 0.8"/>
      </g>
     </g>
     <g id="text_16">
      <!-- $\mathdefault{-10^{2}}$ -->
      <g transform="translate(184.224788 107.773115) scale(0.07497 -0.07497)">
       <defs>
        <path id="DejaVuSans-32" d="M 1228 531 
L 3431 531 
L 3431 0 
L 469 0 
L 469 531 
Q 828 903 1448 1529 
Q 2069 2156 2228 2338 
Q 2531 2678 2651 2914 
Q 2772 3150 2772 3378 
Q 2772 3750 2511 3984 
Q 2250 4219 1831 4219 
Q 1534 4219 1204 4116 
Q 875 4013 500 3803 
L 500 4441 
Q 881 4594 1212 4672 
Q 1544 4750 1819 4750 
Q 2544 4750 2975 4387 
Q 3406 4025 3406 3419 
Q 3406 3131 3298 2873 
Q 3191 2616 2906 2266 
Q 2828 2175 2409 1742 
Q 1991 1309 1228 531 
z
" transform="scale(0.015625)"/>
       </defs>
       <use xlink:href="#DejaVuSans-2212" transform="translate(0 0.765625)"/>
       <use xlink:href="#DejaVuSans-31" transform="translate(83.789062 0.765625)"/>
       <use xlink:href="#DejaVuSans-30" transform="translate(147.412109 0.765625)"/>
       <use xlink:href="#DejaVuSans-32" transform="translate(211.992188 39.046875) scale(0.7)"/>
      </g>
     </g>
    </g>
    <g id="ytick_7">
     <g id="line2d_62">
      <g>
       <use xlink:href="#m9f17fde6e8" x="207.716988" y="92.31373" style="stroke: #000000; stroke-width: 0.8"/>
      </g>
     </g>
     <g id="text_17">
      <!-- $\mathdefault{-10^{1}}$ -->
      <g transform="translate(184.224788 95.162005) scale(0.07497 -0.07497)">
       <use xlink:href="#DejaVuSans-2212" transform="translate(0 0.684375)"/>
       <use xlink:href="#DejaVuSans-31" transform="translate(83.789062 0.684375)"/>
       <use xlink:href="#DejaVuSans-30" transform="translate(147.412109 0.684375)"/>
       <use xlink:href="#DejaVuSans-31" transform="translate(211.992188 38.965625) scale(0.7)"/>
      </g>
     </g>
    </g>
    <g id="ytick_8">
     <g id="line2d_63">
      <g>
       <use xlink:href="#m9f17fde6e8" x="207.716988" y="79.70262" style="stroke: #000000; stroke-width: 0.8"/>
      </g>
     </g>
     <g id="text_18">
      <!-- $\mathdefault{-10^{0}}$ -->
      <g transform="translate(184.224788 82.550894) scale(0.07497 -0.07497)">
       <use xlink:href="#DejaVuSans-2212" transform="translate(0 0.765625)"/>
       <use xlink:href="#DejaVuSans-31" transform="translate(83.789062 0.765625)"/>
       <use xlink:href="#DejaVuSans-30" transform="translate(147.412109 0.765625)"/>
       <use xlink:href="#DejaVuSans-30" transform="translate(211.992188 39.046875) scale(0.7)"/>
      </g>
     </g>
    </g>
    <g id="ytick_9">
     <g id="line2d_64">
      <g>
       <use xlink:href="#m9f17fde6e8" x="207.716988" y="65.690274" style="stroke: #000000; stroke-width: 0.8"/>
      </g>
     </g>
     <g id="text_19">
      <!-- $\mathdefault{0}$ -->
      <g transform="translate(198.918908 68.538549) scale(0.07497 -0.07497)">
       <use xlink:href="#DejaVuSans-30" transform="translate(0 0.78125)"/>
      </g>
     </g>
    </g>
    <g id="ytick_10">
     <g id="line2d_65">
      <g>
       <use xlink:href="#m9f17fde6e8" x="207.716988" y="51.677929" style="stroke: #000000; stroke-width: 0.8"/>
      </g>
     </g>
     <g id="text_20">
      <!-- $\mathdefault{10^{0}}$ -->
      <g transform="translate(190.522268 54.526203) scale(0.07497 -0.07497)">
       <use xlink:href="#DejaVuSans-31" transform="translate(0 0.765625)"/>
       <use xlink:href="#DejaVuSans-30" transform="translate(63.623047 0.765625)"/>
       <use xlink:href="#DejaVuSans-30" transform="translate(128.203125 39.046875) scale(0.7)"/>
      </g>
     </g>
    </g>
    <g id="ytick_11">
     <g id="line2d_66">
      <g>
       <use xlink:href="#m9f17fde6e8" x="207.716988" y="39.066818" style="stroke: #000000; stroke-width: 0.8"/>
      </g>
     </g>
     <g id="text_21">
      <!-- $\mathdefault{10^{1}}$ -->
      <g transform="translate(190.522268 41.915093) scale(0.07497 -0.07497)">
       <use xlink:href="#DejaVuSans-31" transform="translate(0 0.684375)"/>
       <use xlink:href="#DejaVuSans-30" transform="translate(63.623047 0.684375)"/>
       <use xlink:href="#DejaVuSans-31" transform="translate(128.203125 38.965625) scale(0.7)"/>
      </g>
     </g>
    </g>
    <g id="ytick_12">
     <g id="line2d_67">
      <g>
       <use xlink:href="#m9f17fde6e8" x="207.716988" y="26.455708" style="stroke: #000000; stroke-width: 0.8"/>
      </g>
     </g>
     <g id="text_22">
      <!-- $\mathdefault{10^{2}}$ -->
      <g transform="translate(190.522268 29.303982) scale(0.07497 -0.07497)">
       <use xlink:href="#DejaVuSans-31" transform="translate(0 0.765625)"/>
       <use xlink:href="#DejaVuSans-30" transform="translate(63.623047 0.765625)"/>
       <use xlink:href="#DejaVuSans-32" transform="translate(128.203125 39.046875) scale(0.7)"/>
      </g>
     </g>
    </g>
    <g id="ytick_13">
     <g id="line2d_68">
      <g>
       <use xlink:href="#m9f17fde6e8" x="207.716988" y="13.844597" style="stroke: #000000; stroke-width: 0.8"/>
      </g>
     </g>
     <g id="text_23">
      <!-- $\mathdefault{10^{3}}$ -->
      <g transform="translate(190.522268 16.692871) scale(0.07497 -0.07497)">
       <use xlink:href="#DejaVuSans-31" transform="translate(0 0.765625)"/>
       <use xlink:href="#DejaVuSans-30" transform="translate(63.623047 0.765625)"/>
       <use xlink:href="#DejaVuSans-33" transform="translate(128.203125 39.046875) scale(0.7)"/>
      </g>
     </g>
    </g>
    <g id="text_24">
     <!-- Bias -->
     <g transform="translate(180.85307 75.129727) rotate(-90) scale(0.09 -0.09)">
      <defs>
       <path id="DejaVuSans-42" d="M 1259 2228 
L 1259 519 
L 2272 519 
Q 2781 519 3026 730 
Q 3272 941 3272 1375 
Q 3272 1813 3026 2020 
Q 2781 2228 2272 2228 
L 1259 2228 
z
M 1259 4147 
L 1259 2741 
L 2194 2741 
Q 2656 2741 2882 2914 
Q 3109 3088 3109 3444 
Q 3109 3797 2882 3972 
Q 2656 4147 2194 4147 
L 1259 4147 
z
M 628 4666 
L 2241 4666 
Q 2963 4666 3353 4366 
Q 3744 4066 3744 3513 
Q 3744 3084 3544 2831 
Q 3344 2578 2956 2516 
Q 3422 2416 3680 2098 
Q 3938 1781 3938 1306 
Q 3938 681 3513 340 
Q 3088 0 2303 0 
L 628 0 
L 628 4666 
z
" transform="scale(0.015625)"/>
       <path id="DejaVuSans-73" d="M 2834 3397 
L 2834 2853 
Q 2591 2978 2328 3040 
Q 2066 3103 1784 3103 
Q 1356 3103 1142 2972 
Q 928 2841 928 2578 
Q 928 2378 1081 2264 
Q 1234 2150 1697 2047 
L 1894 2003 
Q 2506 1872 2764 1633 
Q 3022 1394 3022 966 
Q 3022 478 2636 193 
Q 2250 -91 1575 -91 
Q 1294 -91 989 -36 
Q 684 19 347 128 
L 347 722 
Q 666 556 975 473 
Q 1284 391 1588 391 
Q 1994 391 2212 530 
Q 2431 669 2431 922 
Q 2431 1156 2273 1281 
Q 2116 1406 1581 1522 
L 1381 1569 
Q 847 1681 609 1914 
Q 372 2147 372 2553 
Q 372 3047 722 3315 
Q 1072 3584 1716 3584 
Q 2034 3584 2315 3537 
Q 2597 3491 2834 3397 
z
" transform="scale(0.015625)"/>
      </defs>
      <use xlink:href="#DejaVuSans-42"/>
      <use xlink:href="#DejaVuSans-69" x="68.603516"/>
      <use xlink:href="#DejaVuSans-61" x="96.386719"/>
      <use xlink:href="#DejaVuSans-73" x="157.666016"/>
     </g>
    </g>
   </g>
   <g id="patch_6">
    <path d="M 207.716988 121.332274 
L 207.716988 10.048274 
L 238.780705 10.048274 
L 238.780705 121.332274 
z
" clip-path="url(#pb7158610d1)" style="fill: #1f77b4; opacity: 0.2; stroke: #1f77b4; stroke-width: 0.8; stroke-linejoin: miter"/>
   </g>
   <g id="patch_7">
    <path d="M 238.780705 121.332274 
L 238.780705 10.048274 
L 409.794098 10.048274 
L 409.794098 121.332274 
z
" clip-path="url(#pb7158610d1)" style="fill: #ff7f0e; opacity: 0.2; stroke: #ff7f0e; stroke-width: 0.8; stroke-linejoin: miter"/>
   </g>
   <g id="patch_8">
    <path d="M 409.794098 121.332274 
L 409.794098 10.048274 
L 324.441907 10.048274 
L 324.441907 121.332274 
z
" clip-path="url(#pb7158610d1)" style="fill: #2ca02c; opacity: 0.2; stroke: #2ca02c; stroke-width: 0.8; stroke-linejoin: miter"/>
   </g>
   <g id="line2d_69">
    <path d="M 207.716988 65.690274 
L 324.441907 65.690274 
" clip-path="url(#pb7158610d1)" style="fill: none; stroke: #000000; stroke-width: 1.3; stroke-linecap: round"/>
   </g>
   <g id="line2d_70">
    <path d="M 207.716988 65.700985 
L 216.027188 65.831239 
L 224.382815 65.75231 
L 232.722896 65.726076 
L 241.069728 65.899217 
L 249.40703 66.265067 
L 257.738936 65.621362 
L 266.079448 65.916541 
L 274.418848 65.70737 
L 282.755779 65.929612 
L 291.092915 65.768491 
L 299.429467 66.036787 
L 307.767532 65.609568 
L 316.104213 64.377732 
L 324.441907 65.158973 
" clip-path="url(#pb7158610d1)" style="fill: none; stroke: #1f77b4; stroke-width: 2; stroke-linecap: round"/>
   </g>
   <g id="line2d_71">
    <path d="M 207.716988 52.009214 
L 216.027188 52.299148 
L 224.382815 52.276802 
L 232.722896 52.310904 
L 241.069728 52.774728 
L 249.40703 53.711887 
L 257.738936 52.782854 
L 266.079448 53.719632 
L 274.418848 53.925938 
L 282.755779 54.989237 
L 291.092915 55.510094 
L 299.429467 56.926613 
L 307.767532 57.265016 
L 316.104213 56.517585 
L 324.441907 58.857974 
" clip-path="url(#pb7158610d1)" style="fill: none; stroke: #ff7f0e; stroke-linecap: round"/>
   </g>
   <g id="line2d_72">
    <path d="M 207.716988 8.092448 
L 216.027188 9.957806 
L 224.382815 11.861851 
L 232.722896 13.661532 
L 241.069728 15.591641 
L 249.40703 17.683485 
L 257.738936 19.298091 
L 266.079448 21.340984 
L 274.418848 23.334428 
L 282.755779 25.525698 
L 291.092915 27.661426 
L 299.429467 30.060434 
L 307.767532 32.292718 
L 316.104213 34.319614 
L 324.441907 37.229157 
" clip-path="url(#pb7158610d1)" style="fill: none; stroke: #2ca02c; stroke-linecap: round"/>
   </g>
   <g id="patch_9">
    <path d="M 207.716988 121.332274 
L 207.716988 10.048274 
" style="fill: none; stroke: #000000; stroke-linejoin: miter; stroke-linecap: square"/>
   </g>
   <g id="patch_10">
    <path d="M 207.716988 121.332274 
L 324.441907 121.332274 
" style="fill: none; stroke: #000000; stroke-linejoin: miter; stroke-linecap: square"/>
   </g>
   <g id="text_25">
    <!-- B -->
    <g transform="translate(175.034011 17.999708) scale(0.09 -0.09)">
     <defs>
      <path id="DejaVuSans-Bold-42" d="M 2456 2859 
Q 2741 2859 2887 2984 
Q 3034 3109 3034 3353 
Q 3034 3594 2887 3720 
Q 2741 3847 2456 3847 
L 1791 3847 
L 1791 2859 
L 2456 2859 
z
M 2497 819 
Q 2859 819 3042 972 
Q 3225 1125 3225 1434 
Q 3225 1738 3044 1889 
Q 2863 2041 2497 2041 
L 1791 2041 
L 1791 819 
L 2497 819 
z
M 3616 2497 
Q 4003 2384 4215 2081 
Q 4428 1778 4428 1338 
Q 4428 663 3972 331 
Q 3516 0 2584 0 
L 588 0 
L 588 4666 
L 2394 4666 
Q 3366 4666 3802 4372 
Q 4238 4078 4238 3431 
Q 4238 3091 4078 2852 
Q 3919 2613 3616 2497 
z
" transform="scale(0.015625)"/>
     </defs>
     <use xlink:href="#DejaVuSans-Bold-42"/>
    </g>
   </g>
   <g id="legend_1">
    <g id="patch_11">
     <path d="M 229.662495 119.082274 
L 302.496401 119.082274 
Q 304.296401 119.082274 304.296401 117.282274 
L 304.296401 83.051337 
Q 304.296401 81.251337 302.496401 81.251337 
L 229.662495 81.251337 
Q 227.862495 81.251337 227.862495 83.051337 
L 227.862495 117.282274 
Q 227.862495 119.082274 229.662495 119.082274 
z
" style="fill: #ffffff; opacity: 0.8; stroke: #cccccc; stroke-width: 0.8; stroke-linejoin: miter"/>
    </g>
    <g id="line2d_73">
     <path d="M 231.462495 88.539931 
L 237.087495 88.539931 
L 242.712495 88.539931 
" style="fill: none; stroke: #1f77b4; stroke-width: 2; stroke-linecap: round"/>
    </g>
    <g id="text_26">
     <!-- Unbiased -->
     <g transform="translate(247.212495 91.689931) scale(0.09 -0.09)">
      <defs>
       <path id="DejaVuSans-55" d="M 556 4666 
L 1191 4666 
L 1191 1831 
Q 1191 1081 1462 751 
Q 1734 422 2344 422 
Q 2950 422 3222 751 
Q 3494 1081 3494 1831 
L 3494 4666 
L 4128 4666 
L 4128 1753 
Q 4128 841 3676 375 
Q 3225 -91 2344 -91 
Q 1459 -91 1007 375 
Q 556 841 556 1753 
L 556 4666 
z
" transform="scale(0.015625)"/>
       <path id="DejaVuSans-62" d="M 3116 1747 
Q 3116 2381 2855 2742 
Q 2594 3103 2138 3103 
Q 1681 3103 1420 2742 
Q 1159 2381 1159 1747 
Q 1159 1113 1420 752 
Q 1681 391 2138 391 
Q 2594 391 2855 752 
Q 3116 1113 3116 1747 
z
M 1159 2969 
Q 1341 3281 1617 3432 
Q 1894 3584 2278 3584 
Q 2916 3584 3314 3078 
Q 3713 2572 3713 1747 
Q 3713 922 3314 415 
Q 2916 -91 2278 -91 
Q 1894 -91 1617 61 
Q 1341 213 1159 525 
L 1159 0 
L 581 0 
L 581 4863 
L 1159 4863 
L 1159 2969 
z
" transform="scale(0.015625)"/>
       <path id="DejaVuSans-64" d="M 2906 2969 
L 2906 4863 
L 3481 4863 
L 3481 0 
L 2906 0 
L 2906 525 
Q 2725 213 2448 61 
Q 2172 -91 1784 -91 
Q 1150 -91 751 415 
Q 353 922 353 1747 
Q 353 2572 751 3078 
Q 1150 3584 1784 3584 
Q 2172 3584 2448 3432 
Q 2725 3281 2906 2969 
z
M 947 1747 
Q 947 1113 1208 752 
Q 1469 391 1925 391 
Q 2381 391 2643 752 
Q 2906 1113 2906 1747 
Q 2906 2381 2643 2742 
Q 2381 3103 1925 3103 
Q 1469 3103 1208 2742 
Q 947 2381 947 1747 
z
" transform="scale(0.015625)"/>
      </defs>
      <use xlink:href="#DejaVuSans-55"/>
      <use xlink:href="#DejaVuSans-6e" x="73.193359"/>
      <use xlink:href="#DejaVuSans-62" x="136.572266"/>
      <use xlink:href="#DejaVuSans-69" x="200.048828"/>
      <use xlink:href="#DejaVuSans-61" x="227.832031"/>
      <use xlink:href="#DejaVuSans-73" x="289.111328"/>
      <use xlink:href="#DejaVuSans-65" x="341.210938"/>
      <use xlink:href="#DejaVuSans-64" x="402.734375"/>
     </g>
    </g>
    <g id="line2d_74">
     <path d="M 231.462495 99.500243 
L 237.087495 99.500243 
L 242.712495 99.500243 
" style="fill: none; stroke: #ff7f0e; stroke-linecap: round"/>
    </g>
    <g id="text_27">
     <!-- Grundmann -->
     <g transform="translate(247.212495 102.650243) scale(0.09 -0.09)">
      <defs>
       <path id="DejaVuSans-47" d="M 3809 666 
L 3809 1919 
L 2778 1919 
L 2778 2438 
L 4434 2438 
L 4434 434 
Q 4069 175 3628 42 
Q 3188 -91 2688 -91 
Q 1594 -91 976 548 
Q 359 1188 359 2328 
Q 359 3472 976 4111 
Q 1594 4750 2688 4750 
Q 3144 4750 3555 4637 
Q 3966 4525 4313 4306 
L 4313 3634 
Q 3963 3931 3569 4081 
Q 3175 4231 2741 4231 
Q 1884 4231 1454 3753 
Q 1025 3275 1025 2328 
Q 1025 1384 1454 906 
Q 1884 428 2741 428 
Q 3075 428 3337 486 
Q 3600 544 3809 666 
z
" transform="scale(0.015625)"/>
      </defs>
      <use xlink:href="#DejaVuSans-47"/>
      <use xlink:href="#DejaVuSans-72" x="77.490234"/>
      <use xlink:href="#DejaVuSans-75" x="118.603516"/>
      <use xlink:href="#DejaVuSans-6e" x="181.982422"/>
      <use xlink:href="#DejaVuSans-64" x="245.361328"/>
      <use xlink:href="#DejaVuSans-6d" x="308.837891"/>
      <use xlink:href="#DejaVuSans-61" x="406.25"/>
      <use xlink:href="#DejaVuSans-6e" x="467.529297"/>
      <use xlink:href="#DejaVuSans-6e" x="530.908203"/>
     </g>
    </g>
    <g id="line2d_75">
     <path d="M 231.462495 110.460556 
L 237.087495 110.460556 
L 242.712495 110.460556 
" style="fill: none; stroke: #2ca02c; stroke-linecap: round"/>
    </g>
    <g id="text_28">
     <!-- Plugin -->
     <g transform="translate(247.212495 113.610556) scale(0.09 -0.09)">
      <defs>
       <path id="DejaVuSans-50" d="M 1259 4147 
L 1259 2394 
L 2053 2394 
Q 2494 2394 2734 2622 
Q 2975 2850 2975 3272 
Q 2975 3691 2734 3919 
Q 2494 4147 2053 4147 
L 1259 4147 
z
M 628 4666 
L 2053 4666 
Q 2838 4666 3239 4311 
Q 3641 3956 3641 3272 
Q 3641 2581 3239 2228 
Q 2838 1875 2053 1875 
L 1259 1875 
L 1259 0 
L 628 0 
L 628 4666 
z
" transform="scale(0.015625)"/>
       <path id="DejaVuSans-67" d="M 2906 1791 
Q 2906 2416 2648 2759 
Q 2391 3103 1925 3103 
Q 1463 3103 1205 2759 
Q 947 2416 947 1791 
Q 947 1169 1205 825 
Q 1463 481 1925 481 
Q 2391 481 2648 825 
Q 2906 1169 2906 1791 
z
M 3481 434 
Q 3481 -459 3084 -895 
Q 2688 -1331 1869 -1331 
Q 1566 -1331 1297 -1286 
Q 1028 -1241 775 -1147 
L 775 -588 
Q 1028 -725 1275 -790 
Q 1522 -856 1778 -856 
Q 2344 -856 2625 -561 
Q 2906 -266 2906 331 
L 2906 616 
Q 2728 306 2450 153 
Q 2172 0 1784 0 
Q 1141 0 747 490 
Q 353 981 353 1791 
Q 353 2603 747 3093 
Q 1141 3584 1784 3584 
Q 2172 3584 2450 3431 
Q 2728 3278 2906 2969 
L 2906 3500 
L 3481 3500 
L 3481 434 
z
" transform="scale(0.015625)"/>
      </defs>
      <use xlink:href="#DejaVuSans-50"/>
      <use xlink:href="#DejaVuSans-6c" x="60.302734"/>
      <use xlink:href="#DejaVuSans-75" x="88.085938"/>
      <use xlink:href="#DejaVuSans-67" x="151.464844"/>
      <use xlink:href="#DejaVuSans-69" x="214.941406"/>
      <use xlink:href="#DejaVuSans-6e" x="242.724609"/>
     </g>
    </g>
   </g>
  </g>
  <g id="axes_3">
   <g id="patch_12">
    <path d="M 375.551 121.332274 
L 492.275918 121.332274 
L 492.275918 10.048274 
L 375.551 10.048274 
z
" style="fill: #ffffff"/>
   </g>
   <g id="matplotlib.axis_5">
    <g id="xtick_55">
     <g id="line2d_76">
      <g>
       <use xlink:href="#mf60ed4fd98" x="393.119851" y="121.332274" style="stroke: #000000; stroke-width: 0.8"/>
      </g>
     </g>
     <g id="text_29">
      <!-- $\mathdefault{10^{3}}$ -->
      <g transform="translate(386.522491 131.028823) scale(0.07497 -0.07497)">
       <use xlink:href="#DejaVuSans-31" transform="translate(0 0.765625)"/>
       <use xlink:href="#DejaVuSans-30" transform="translate(63.623047 0.765625)"/>
       <use xlink:href="#DejaVuSans-33" transform="translate(128.203125 39.046875) scale(0.7)"/>
      </g>
     </g>
    </g>
    <g id="xtick_56">
     <g id="line2d_77">
      <g>
       <use xlink:href="#mf60ed4fd98" x="451.48231" y="121.332274" style="stroke: #000000; stroke-width: 0.8"/>
      </g>
     </g>
     <g id="text_30">
      <!-- $\mathdefault{10^{4}}$ -->
      <g transform="translate(444.88495 131.028823) scale(0.07497 -0.07497)">
       <use xlink:href="#DejaVuSans-31" transform="translate(0 0.684375)"/>
       <use xlink:href="#DejaVuSans-30" transform="translate(63.623047 0.684375)"/>
       <use xlink:href="#DejaVuSans-34" transform="translate(128.203125 38.965625) scale(0.7)"/>
      </g>
     </g>
    </g>
    <g id="xtick_57">
     <g id="line2d_78">
      <g>
       <use xlink:href="#mb6be68d307" x="375.551" y="121.332274" style="stroke: #000000; stroke-width: 0.4"/>
      </g>
     </g>
    </g>
    <g id="xtick_58">
     <g id="line2d_79">
      <g>
       <use xlink:href="#mb6be68d307" x="380.172212" y="121.332274" style="stroke: #000000; stroke-width: 0.4"/>
      </g>
     </g>
    </g>
    <g id="xtick_59">
     <g id="line2d_80">
      <g>
       <use xlink:href="#mb6be68d307" x="384.079391" y="121.332274" style="stroke: #000000; stroke-width: 0.4"/>
      </g>
     </g>
    </g>
    <g id="xtick_60">
     <g id="line2d_81">
      <g>
       <use xlink:href="#mb6be68d307" x="387.463944" y="121.332274" style="stroke: #000000; stroke-width: 0.4"/>
      </g>
     </g>
    </g>
    <g id="xtick_61">
     <g id="line2d_82">
      <g>
       <use xlink:href="#mb6be68d307" x="390.449331" y="121.332274" style="stroke: #000000; stroke-width: 0.4"/>
      </g>
     </g>
    </g>
    <g id="xtick_62">
     <g id="line2d_83">
      <g>
       <use xlink:href="#mb6be68d307" x="410.688702" y="121.332274" style="stroke: #000000; stroke-width: 0.4"/>
      </g>
     </g>
    </g>
    <g id="xtick_63">
     <g id="line2d_84">
      <g>
       <use xlink:href="#mb6be68d307" x="420.96582" y="121.332274" style="stroke: #000000; stroke-width: 0.4"/>
      </g>
     </g>
    </g>
    <g id="xtick_64">
     <g id="line2d_85">
      <g>
       <use xlink:href="#mb6be68d307" x="428.257552" y="121.332274" style="stroke: #000000; stroke-width: 0.4"/>
      </g>
     </g>
    </g>
    <g id="xtick_65">
     <g id="line2d_86">
      <g>
       <use xlink:href="#mb6be68d307" x="433.913459" y="121.332274" style="stroke: #000000; stroke-width: 0.4"/>
      </g>
     </g>
    </g>
    <g id="xtick_66">
     <g id="line2d_87">
      <g>
       <use xlink:href="#mb6be68d307" x="438.534671" y="121.332274" style="stroke: #000000; stroke-width: 0.4"/>
      </g>
     </g>
    </g>
    <g id="xtick_67">
     <g id="line2d_88">
      <g>
       <use xlink:href="#mb6be68d307" x="442.441851" y="121.332274" style="stroke: #000000; stroke-width: 0.4"/>
      </g>
     </g>
    </g>
    <g id="xtick_68">
     <g id="line2d_89">
      <g>
       <use xlink:href="#mb6be68d307" x="445.826403" y="121.332274" style="stroke: #000000; stroke-width: 0.4"/>
      </g>
     </g>
    </g>
    <g id="xtick_69">
     <g id="line2d_90">
      <g>
       <use xlink:href="#mb6be68d307" x="448.81179" y="121.332274" style="stroke: #000000; stroke-width: 0.4"/>
      </g>
     </g>
    </g>
    <g id="xtick_70">
     <g id="line2d_91">
      <g>
       <use xlink:href="#mb6be68d307" x="469.051161" y="121.332274" style="stroke: #000000; stroke-width: 0.4"/>
      </g>
     </g>
    </g>
    <g id="xtick_71">
     <g id="line2d_92">
      <g>
       <use xlink:href="#mb6be68d307" x="479.32828" y="121.332274" style="stroke: #000000; stroke-width: 0.4"/>
      </g>
     </g>
    </g>
    <g id="xtick_72">
     <g id="line2d_93">
      <g>
       <use xlink:href="#mb6be68d307" x="486.620012" y="121.332274" style="stroke: #000000; stroke-width: 0.4"/>
      </g>
     </g>
    </g>
    <g id="xtick_73">
     <g id="line2d_94">
      <g>
       <use xlink:href="#mb6be68d307" x="492.275918" y="121.332274" style="stroke: #000000; stroke-width: 0.4"/>
      </g>
     </g>
    </g>
    <g id="text_31">
     <!-- Sample Size N -->
     <g transform="translate(401.575334 140.926558) scale(0.09 -0.09)">
      <use xlink:href="#DejaVuSans-53"/>
      <use xlink:href="#DejaVuSans-61" x="63.476562"/>
      <use xlink:href="#DejaVuSans-6d" x="124.755859"/>
      <use xlink:href="#DejaVuSans-70" x="222.167969"/>
      <use xlink:href="#DejaVuSans-6c" x="285.644531"/>
      <use xlink:href="#DejaVuSans-65" x="313.427734"/>
      <use xlink:href="#DejaVuSans-20" x="374.951172"/>
      <use xlink:href="#DejaVuSans-53" x="406.738281"/>
      <use xlink:href="#DejaVuSans-69" x="470.214844"/>
      <use xlink:href="#DejaVuSans-7a" x="497.998047"/>
      <use xlink:href="#DejaVuSans-65" x="550.488281"/>
      <use xlink:href="#DejaVuSans-20" x="612.011719"/>
      <use xlink:href="#DejaVuSans-4e" x="643.798828"/>
     </g>
    </g>
   </g>
   <g id="matplotlib.axis_6">
    <g id="ytick_14">
     <g id="line2d_95">
      <g>
       <use xlink:href="#m9f17fde6e8" x="375.551" y="121.332274" style="stroke: #000000; stroke-width: 0.8"/>
      </g>
     </g>
     <g id="text_32">
      <!-- 0.0 -->
      <g transform="translate(359.628427 124.180549) scale(0.07497 -0.07497)">
       <defs>
        <path id="DejaVuSans-2e" d="M 684 794 
L 1344 794 
L 1344 0 
L 684 0 
L 684 794 
z
" transform="scale(0.015625)"/>
       </defs>
       <use xlink:href="#DejaVuSans-30"/>
       <use xlink:href="#DejaVuSans-2e" x="63.623047"/>
       <use xlink:href="#DejaVuSans-30" x="95.410156"/>
      </g>
     </g>
    </g>
    <g id="ytick_15">
     <g id="line2d_96">
      <g>
       <use xlink:href="#m9f17fde6e8" x="375.551" y="93.511274" style="stroke: #000000; stroke-width: 0.8"/>
      </g>
     </g>
     <g id="text_33">
      <!-- 0.5 -->
      <g transform="translate(359.628427 96.359549) scale(0.07497 -0.07497)">
       <use xlink:href="#DejaVuSans-30"/>
       <use xlink:href="#DejaVuSans-2e" x="63.623047"/>
       <use xlink:href="#DejaVuSans-35" x="95.410156"/>
      </g>
     </g>
    </g>
    <g id="ytick_16">
     <g id="line2d_97">
      <g>
       <use xlink:href="#m9f17fde6e8" x="375.551" y="65.690274" style="stroke: #000000; stroke-width: 0.8"/>
      </g>
     </g>
     <g id="text_34">
      <!-- 1.0 -->
      <g transform="translate(359.628427 68.538549) scale(0.07497 -0.07497)">
       <use xlink:href="#DejaVuSans-31"/>
       <use xlink:href="#DejaVuSans-2e" x="63.623047"/>
       <use xlink:href="#DejaVuSans-30" x="95.410156"/>
      </g>
     </g>
    </g>
    <g id="ytick_17">
     <g id="line2d_98">
      <g>
       <use xlink:href="#m9f17fde6e8" x="375.551" y="37.869274" style="stroke: #000000; stroke-width: 0.8"/>
      </g>
     </g>
     <g id="text_35">
      <!-- 1.5 -->
      <g transform="translate(359.628427 40.717549) scale(0.07497 -0.07497)">
       <use xlink:href="#DejaVuSans-31"/>
       <use xlink:href="#DejaVuSans-2e" x="63.623047"/>
       <use xlink:href="#DejaVuSans-35" x="95.410156"/>
      </g>
     </g>
    </g>
    <g id="ytick_18">
     <g id="line2d_99">
      <g>
       <use xlink:href="#m9f17fde6e8" x="375.551" y="10.048274" style="stroke: #000000; stroke-width: 0.8"/>
      </g>
     </g>
     <g id="text_36">
      <!-- 2.0 -->
      <g transform="translate(359.628427 12.896549) scale(0.07497 -0.07497)">
       <use xlink:href="#DejaVuSans-32"/>
       <use xlink:href="#DejaVuSans-2e" x="63.623047"/>
       <use xlink:href="#DejaVuSans-30" x="95.410156"/>
      </g>
     </g>
    </g>
    <g id="text_37">
     <!-- Variance -->
     <g transform="translate(356.256708 85.130274) rotate(-90) scale(0.09 -0.09)">
      <defs>
       <path id="DejaVuSans-56" d="M 1831 0 
L 50 4666 
L 709 4666 
L 2188 738 
L 3669 4666 
L 4325 4666 
L 2547 0 
L 1831 0 
z
" transform="scale(0.015625)"/>
      </defs>
      <use xlink:href="#DejaVuSans-56"/>
      <use xlink:href="#DejaVuSans-61" x="60.658203"/>
      <use xlink:href="#DejaVuSans-72" x="121.9375"/>
      <use xlink:href="#DejaVuSans-69" x="163.050781"/>
      <use xlink:href="#DejaVuSans-61" x="190.833984"/>
      <use xlink:href="#DejaVuSans-6e" x="252.113281"/>
      <use xlink:href="#DejaVuSans-63" x="315.492188"/>
      <use xlink:href="#DejaVuSans-65" x="370.472656"/>
     </g>
    </g>
   </g>
   <g id="patch_13">
    <path d="M 375.551 121.332274 
L 375.551 10.048274 
L 406.614717 10.048274 
L 406.614717 121.332274 
z
" clip-path="url(#p3fd5c9c405)" style="fill: #1f77b4; opacity: 0.2; stroke: #1f77b4; stroke-width: 0.8; stroke-linejoin: miter"/>
   </g>
   <g id="patch_14">
    <path d="M 406.614717 121.332274 
L 406.614717 10.048274 
L 577.62811 10.048274 
L 577.62811 121.332274 
z
" clip-path="url(#p3fd5c9c405)" style="fill: #ff7f0e; opacity: 0.2; stroke: #ff7f0e; stroke-width: 0.8; stroke-linejoin: miter"/>
   </g>
   <g id="patch_15">
    <path d="M 577.62811 121.332274 
L 577.62811 10.048274 
L 492.275918 10.048274 
L 492.275918 121.332274 
z
" clip-path="url(#p3fd5c9c405)" style="fill: #2ca02c; opacity: 0.2; stroke: #2ca02c; stroke-width: 0.8; stroke-linejoin: miter"/>
   </g>
   <g id="line2d_100">
    <path d="M 400.515463 -1 
L 400.556908 -0.521116 
L 408.903739 50.558533 
L 417.241041 80.515838 
L 425.572947 95.811227 
L 433.913459 105.758573 
L 442.25286 109.308294 
L 450.58979 113.314944 
L 458.926926 115.20533 
L 467.263479 117.576181 
L 475.601543 118.789344 
L 483.938224 119.333268 
L 492.275918 119.906627 
" clip-path="url(#p3fd5c9c405)" style="fill: none; stroke: #1f77b4; stroke-width: 2; stroke-linecap: round"/>
   </g>
   <g id="line2d_101">
    <path d="M 416.46975 -1 
L 417.241041 8.198074 
L 425.572947 55.33565 
L 433.913459 84.622065 
L 442.25286 97.528783 
L 450.58979 106.988212 
L 458.926926 111.663809 
L 467.263479 115.713681 
L 475.601543 117.729889 
L 483.938224 118.698053 
L 492.275918 119.556279 
" clip-path="url(#p3fd5c9c405)" style="fill: none; stroke: #ff7f0e; stroke-linecap: round"/>
   </g>
   <g id="line2d_102">
    <path d="M 426.527653 -1 
L 433.913459 52.231493 
L 442.25286 80.132093 
L 450.58979 97.960419 
L 458.926926 106.812015 
L 467.263479 113.246594 
L 475.601543 116.383908 
L 483.938224 117.92273 
L 492.275918 119.14759 
" clip-path="url(#p3fd5c9c405)" style="fill: none; stroke: #2ca02c; stroke-linecap: round"/>
   </g>
   <g id="patch_16">
    <path d="M 375.551 121.332274 
L 375.551 10.048274 
" style="fill: none; stroke: #000000; stroke-linejoin: miter; stroke-linecap: square"/>
   </g>
   <g id="patch_17">
    <path d="M 375.551 121.332274 
L 492.275918 121.332274 
" style="fill: none; stroke: #000000; stroke-linejoin: miter; stroke-linecap: square"/>
   </g>
   <g id="text_38">
    <!-- C -->
    <g transform="translate(342.868023 17.999708) scale(0.09 -0.09)">
     <defs>
      <path id="DejaVuSans-Bold-43" d="M 4288 256 
Q 3956 84 3597 -3 
Q 3238 -91 2847 -91 
Q 1681 -91 1000 561 
Q 319 1213 319 2328 
Q 319 3447 1000 4098 
Q 1681 4750 2847 4750 
Q 3238 4750 3597 4662 
Q 3956 4575 4288 4403 
L 4288 3438 
Q 3953 3666 3628 3772 
Q 3303 3878 2944 3878 
Q 2300 3878 1931 3465 
Q 1563 3053 1563 2328 
Q 1563 1606 1931 1193 
Q 2300 781 2944 781 
Q 3303 781 3628 887 
Q 3953 994 4288 1222 
L 4288 256 
z
" transform="scale(0.015625)"/>
     </defs>
     <use xlink:href="#DejaVuSans-Bold-43"/>
    </g>
   </g>
  </g>
 </g>
 <defs>
  <clipPath id="pd57540f8c9">
   <rect x="39.882977" y="10.048274" width="116.724919" height="111.284"/>
  </clipPath>
  <clipPath id="pb7158610d1">
   <rect x="207.716988" y="10.048274" width="116.724919" height="111.284"/>
  </clipPath>
  <clipPath id="p3fd5c9c405">
   <rect x="375.551" y="10.048274" width="116.724919" height="111.284"/>
  </clipPath>
 </defs>
</svg>
